<?xml version="1.0" encoding="utf-8" standalone="no"?>
<!DOCTYPE svg PUBLIC "-//W3C//DTD SVG 1.1//EN"
  "http://www.w3.org/Graphics/SVG/1.1/DTD/svg11.dtd">
<svg xmlns:xlink="http://www.w3.org/1999/xlink" width="440.47375pt" height="438.513437pt" viewBox="0 0 440.47375 438.513437" xmlns="http://www.w3.org/2000/svg" version="1.1">
 <metadata>
  <rdf:RDF xmlns:dc="http://purl.org/dc/elements/1.1/" xmlns:cc="http://creativecommons.org/ns#" xmlns:rdf="http://www.w3.org/1999/02/22-rdf-syntax-ns#">
   <cc:Work>
    <dc:type rdf:resource="http://purl.org/dc/dcmitype/StillImage"/>
    <dc:date>2022-02-23T14:19:33.731597</dc:date>
    <dc:format>image/svg+xml</dc:format>
    <dc:creator>
     <cc:Agent>
      <dc:title>Matplotlib v3.5.1, https://matplotlib.org/</dc:title>
     </cc:Agent>
    </dc:creator>
   </cc:Work>
  </rdf:RDF>
 </metadata>
 <defs>
  <style type="text/css">*{stroke-linejoin: round; stroke-linecap: butt}</style>
 </defs>
 <g id="figure_1">
  <g id="patch_1">
   <path d="M 0 438.513437 
L 440.47375 438.513437 
L 440.47375 0 
L 0 0 
z
" style="fill: #ffffff"/>
  </g>
  <g id="axes_1">
   <g id="patch_2">
    <path d="M 56.64375 386.44 
L 368.708607 386.44 
L 368.708607 72.212571 
L 56.64375 72.212571 
z
" style="fill: #ffffff"/>
   </g>
   <g id="PathCollection_1">
    <defs>
     <path id="m6d87b76f12" d="M 0 4.330127 
C 1.148363 4.330127 2.249847 3.873878 3.061862 3.061862 
C 3.873878 2.249847 4.330127 1.148363 4.330127 0 
C 4.330127 -1.148363 3.873878 -2.249847 3.061862 -3.061862 
C 2.249847 -3.873878 1.148363 -4.330127 0 -4.330127 
C -1.148363 -4.330127 -2.249847 -3.873878 -3.061862 -3.061862 
C -3.873878 -2.249847 -4.330127 -1.148363 -4.330127 0 
C -4.330127 1.148363 -3.873878 2.249847 -3.061862 3.061862 
C -2.249847 3.873878 -1.148363 4.330127 0 4.330127 
z
" style="stroke: #ffffff; stroke-opacity: 0.5; stroke-width: 0.69282"/>
    </defs>
    <g clip-path="url(#p408c8201dd)">
     <use xlink:href="#m6d87b76f12" x="70.828516" y="137.768177" style="fill: #1f77b4; fill-opacity: 0.5; stroke: #ffffff; stroke-opacity: 0.5; stroke-width: 0.69282"/>
     <use xlink:href="#m6d87b76f12" x="93.241037" y="145.092826" style="fill: #1f77b4; fill-opacity: 0.5; stroke: #ffffff; stroke-opacity: 0.5; stroke-width: 0.69282"/>
     <use xlink:href="#m6d87b76f12" x="70.828516" y="328.209043" style="fill: #1f77b4; fill-opacity: 0.5; stroke: #ffffff; stroke-opacity: 0.5; stroke-width: 0.69282"/>
     <use xlink:href="#m6d87b76f12" x="73.187729" y="137.768177" style="fill: #1f77b4; fill-opacity: 0.5; stroke: #ffffff; stroke-opacity: 0.5; stroke-width: 0.69282"/>
     <use xlink:href="#m6d87b76f12" x="72.597926" y="218.339313" style="fill: #1f77b4; fill-opacity: 0.5; stroke: #ffffff; stroke-opacity: 0.5; stroke-width: 0.69282"/>
     <use xlink:href="#m6d87b76f12" x="73.187729" y="196.365367" style="fill: #1f77b4; fill-opacity: 0.5; stroke: #ffffff; stroke-opacity: 0.5; stroke-width: 0.69282"/>
     <use xlink:href="#m6d87b76f12" x="70.828516" y="211.014664" style="fill: #1f77b4; fill-opacity: 0.5; stroke: #ffffff; stroke-opacity: 0.5; stroke-width: 0.69282"/>
     <use xlink:href="#m6d87b76f12" x="120.371982" y="101.144934" style="fill: #1f77b4; fill-opacity: 0.5; stroke: #ffffff; stroke-opacity: 0.5; stroke-width: 0.69282"/>
     <use xlink:href="#m6d87b76f12" x="95.010446" y="130.443528" style="fill: #1f77b4; fill-opacity: 0.5; stroke: #ffffff; stroke-opacity: 0.5; stroke-width: 0.69282"/>
     <use xlink:href="#m6d87b76f12" x="70.828516" y="320.884394" style="fill: #1f77b4; fill-opacity: 0.5; stroke: #ffffff; stroke-opacity: 0.5; stroke-width: 0.69282"/>
     <use xlink:href="#m6d87b76f12" x="70.828516" y="372.156935" style="fill: #1f77b4; fill-opacity: 0.5; stroke: #ffffff; stroke-opacity: 0.5; stroke-width: 0.69282"/>
     <use xlink:href="#m6d87b76f12" x="73.187729" y="152.417475" style="fill: #1f77b4; fill-opacity: 0.5; stroke: #ffffff; stroke-opacity: 0.5; stroke-width: 0.69282"/>
     <use xlink:href="#m6d87b76f12" x="87.343005" y="174.391421" style="fill: #1f77b4; fill-opacity: 0.5; stroke: #ffffff; stroke-opacity: 0.5; stroke-width: 0.69282"/>
     <use xlink:href="#m6d87b76f12" x="70.828516" y="342.85834" style="fill: #1f77b4; fill-opacity: 0.5; stroke: #ffffff; stroke-opacity: 0.5; stroke-width: 0.69282"/>
     <use xlink:href="#m6d87b76f12" x="354.523841" y="86.495636" style="fill: #1f77b4; fill-opacity: 0.5; stroke: #ffffff; stroke-opacity: 0.5; stroke-width: 0.69282"/>
     <use xlink:href="#m6d87b76f12" x="87.343005" y="152.417475" style="fill: #1f77b4; fill-opacity: 0.5; stroke: #ffffff; stroke-opacity: 0.5; stroke-width: 0.69282"/>
     <use xlink:href="#m6d87b76f12" x="70.828516" y="313.559746" style="fill: #1f77b4; fill-opacity: 0.5; stroke: #ffffff; stroke-opacity: 0.5; stroke-width: 0.69282"/>
     <use xlink:href="#m6d87b76f12" x="73.777532" y="254.962556" style="fill: #1f77b4; fill-opacity: 0.5; stroke: #ffffff; stroke-opacity: 0.5; stroke-width: 0.69282"/>
     <use xlink:href="#m6d87b76f12" x="72.008123" y="225.663961" style="fill: #1f77b4; fill-opacity: 0.5; stroke: #ffffff; stroke-opacity: 0.5; stroke-width: 0.69282"/>
     <use xlink:href="#m6d87b76f12" x="74.957138" y="189.040718" style="fill: #1f77b4; fill-opacity: 0.5; stroke: #ffffff; stroke-opacity: 0.5; stroke-width: 0.69282"/>
     <use xlink:href="#m6d87b76f12" x="72.008123" y="254.962556" style="fill: #1f77b4; fill-opacity: 0.5; stroke: #ffffff; stroke-opacity: 0.5; stroke-width: 0.69282"/>
     <use xlink:href="#m6d87b76f12" x="148.682535" y="93.820285" style="fill: #1f77b4; fill-opacity: 0.5; stroke: #ffffff; stroke-opacity: 0.5; stroke-width: 0.69282"/>
     <use xlink:href="#m6d87b76f12" x="70.828516" y="298.910448" style="fill: #1f77b4; fill-opacity: 0.5; stroke: #ffffff; stroke-opacity: 0.5; stroke-width: 0.69282"/>
    </g>
   </g>
   <g id="matplotlib.axis_1">
    <g id="xtick_1">
     <g id="line2d_1">
      <defs>
       <path id="me7769b4415" d="M 0 0 
L 0 3.5 
" style="stroke: #000000; stroke-width: 0.8"/>
      </defs>
      <g>
       <use xlink:href="#me7769b4415" x="70.238713" y="386.44" style="stroke: #000000; stroke-width: 0.8"/>
      </g>
     </g>
     <g id="text_1">
      <!-- 0 -->
      <g transform="translate(65.466838 404.837656)scale(0.15 -0.15)">
       <defs>
        <path id="DejaVuSans-30" d="M 2034 4250 
Q 1547 4250 1301 3770 
Q 1056 3291 1056 2328 
Q 1056 1369 1301 889 
Q 1547 409 2034 409 
Q 2525 409 2770 889 
Q 3016 1369 3016 2328 
Q 3016 3291 2770 3770 
Q 2525 4250 2034 4250 
z
M 2034 4750 
Q 2819 4750 3233 4129 
Q 3647 3509 3647 2328 
Q 3647 1150 3233 529 
Q 2819 -91 2034 -91 
Q 1250 -91 836 529 
Q 422 1150 422 2328 
Q 422 3509 836 4129 
Q 1250 4750 2034 4750 
z
" transform="scale(0.015625)"/>
       </defs>
       <use xlink:href="#DejaVuSans-30"/>
      </g>
     </g>
    </g>
    <g id="xtick_2">
     <g id="line2d_2">
      <g>
       <use xlink:href="#me7769b4415" x="129.21903" y="386.44" style="stroke: #000000; stroke-width: 0.8"/>
      </g>
     </g>
     <g id="text_2">
      <!-- 100 -->
      <g transform="translate(114.903405 404.837656)scale(0.15 -0.15)">
       <defs>
        <path id="DejaVuSans-31" d="M 794 531 
L 1825 531 
L 1825 4091 
L 703 3866 
L 703 4441 
L 1819 4666 
L 2450 4666 
L 2450 531 
L 3481 531 
L 3481 0 
L 794 0 
L 794 531 
z
" transform="scale(0.015625)"/>
       </defs>
       <use xlink:href="#DejaVuSans-31"/>
       <use xlink:href="#DejaVuSans-30" x="63.623047"/>
       <use xlink:href="#DejaVuSans-30" x="127.246094"/>
      </g>
     </g>
    </g>
    <g id="xtick_3">
     <g id="line2d_3">
      <g>
       <use xlink:href="#me7769b4415" x="188.199347" y="386.44" style="stroke: #000000; stroke-width: 0.8"/>
      </g>
     </g>
     <g id="text_3">
      <!-- 200 -->
      <g transform="translate(173.883722 404.837656)scale(0.15 -0.15)">
       <defs>
        <path id="DejaVuSans-32" d="M 1228 531 
L 3431 531 
L 3431 0 
L 469 0 
L 469 531 
Q 828 903 1448 1529 
Q 2069 2156 2228 2338 
Q 2531 2678 2651 2914 
Q 2772 3150 2772 3378 
Q 2772 3750 2511 3984 
Q 2250 4219 1831 4219 
Q 1534 4219 1204 4116 
Q 875 4013 500 3803 
L 500 4441 
Q 881 4594 1212 4672 
Q 1544 4750 1819 4750 
Q 2544 4750 2975 4387 
Q 3406 4025 3406 3419 
Q 3406 3131 3298 2873 
Q 3191 2616 2906 2266 
Q 2828 2175 2409 1742 
Q 1991 1309 1228 531 
z
" transform="scale(0.015625)"/>
       </defs>
       <use xlink:href="#DejaVuSans-32"/>
       <use xlink:href="#DejaVuSans-30" x="63.623047"/>
       <use xlink:href="#DejaVuSans-30" x="127.246094"/>
      </g>
     </g>
    </g>
    <g id="xtick_4">
     <g id="line2d_4">
      <g>
       <use xlink:href="#me7769b4415" x="247.179664" y="386.44" style="stroke: #000000; stroke-width: 0.8"/>
      </g>
     </g>
     <g id="text_4">
      <!-- 300 -->
      <g transform="translate(232.864039 404.837656)scale(0.15 -0.15)">
       <defs>
        <path id="DejaVuSans-33" d="M 2597 2516 
Q 3050 2419 3304 2112 
Q 3559 1806 3559 1356 
Q 3559 666 3084 287 
Q 2609 -91 1734 -91 
Q 1441 -91 1130 -33 
Q 819 25 488 141 
L 488 750 
Q 750 597 1062 519 
Q 1375 441 1716 441 
Q 2309 441 2620 675 
Q 2931 909 2931 1356 
Q 2931 1769 2642 2001 
Q 2353 2234 1838 2234 
L 1294 2234 
L 1294 2753 
L 1863 2753 
Q 2328 2753 2575 2939 
Q 2822 3125 2822 3475 
Q 2822 3834 2567 4026 
Q 2313 4219 1838 4219 
Q 1578 4219 1281 4162 
Q 984 4106 628 3988 
L 628 4550 
Q 988 4650 1302 4700 
Q 1616 4750 1894 4750 
Q 2613 4750 3031 4423 
Q 3450 4097 3450 3541 
Q 3450 3153 3228 2886 
Q 3006 2619 2597 2516 
z
" transform="scale(0.015625)"/>
       </defs>
       <use xlink:href="#DejaVuSans-33"/>
       <use xlink:href="#DejaVuSans-30" x="63.623047"/>
       <use xlink:href="#DejaVuSans-30" x="127.246094"/>
      </g>
     </g>
    </g>
    <g id="xtick_5">
     <g id="line2d_5">
      <g>
       <use xlink:href="#me7769b4415" x="306.159981" y="386.44" style="stroke: #000000; stroke-width: 0.8"/>
      </g>
     </g>
     <g id="text_5">
      <!-- 400 -->
      <g transform="translate(291.844356 404.837656)scale(0.15 -0.15)">
       <defs>
        <path id="DejaVuSans-34" d="M 2419 4116 
L 825 1625 
L 2419 1625 
L 2419 4116 
z
M 2253 4666 
L 3047 4666 
L 3047 1625 
L 3713 1625 
L 3713 1100 
L 3047 1100 
L 3047 0 
L 2419 0 
L 2419 1100 
L 313 1100 
L 313 1709 
L 2253 4666 
z
" transform="scale(0.015625)"/>
       </defs>
       <use xlink:href="#DejaVuSans-34"/>
       <use xlink:href="#DejaVuSans-30" x="63.623047"/>
       <use xlink:href="#DejaVuSans-30" x="127.246094"/>
      </g>
     </g>
    </g>
    <g id="xtick_6">
     <g id="line2d_6">
      <g>
       <use xlink:href="#me7769b4415" x="365.140298" y="386.44" style="stroke: #000000; stroke-width: 0.8"/>
      </g>
     </g>
     <g id="text_6">
      <!-- 500 -->
      <g transform="translate(350.824673 404.837656)scale(0.15 -0.15)">
       <defs>
        <path id="DejaVuSans-35" d="M 691 4666 
L 3169 4666 
L 3169 4134 
L 1269 4134 
L 1269 2991 
Q 1406 3038 1543 3061 
Q 1681 3084 1819 3084 
Q 2600 3084 3056 2656 
Q 3513 2228 3513 1497 
Q 3513 744 3044 326 
Q 2575 -91 1722 -91 
Q 1428 -91 1123 -41 
Q 819 9 494 109 
L 494 744 
Q 775 591 1075 516 
Q 1375 441 1709 441 
Q 2250 441 2565 725 
Q 2881 1009 2881 1497 
Q 2881 1984 2565 2268 
Q 2250 2553 1709 2553 
Q 1456 2553 1204 2497 
Q 953 2441 691 2322 
L 691 4666 
z
" transform="scale(0.015625)"/>
       </defs>
       <use xlink:href="#DejaVuSans-35"/>
       <use xlink:href="#DejaVuSans-30" x="63.623047"/>
       <use xlink:href="#DejaVuSans-30" x="127.246094"/>
      </g>
     </g>
    </g>
    <g id="text_7">
     <!-- # Commits -->
     <g transform="translate(156.627741 427.154062)scale(0.2 -0.2)">
      <defs>
       <path id="DejaVuSans-23" d="M 3272 2816 
L 2363 2816 
L 2100 1772 
L 3016 1772 
L 3272 2816 
z
M 2803 4594 
L 2478 3297 
L 3391 3297 
L 3719 4594 
L 4219 4594 
L 3897 3297 
L 4872 3297 
L 4872 2816 
L 3775 2816 
L 3519 1772 
L 4513 1772 
L 4513 1294 
L 3397 1294 
L 3072 0 
L 2572 0 
L 2894 1294 
L 1978 1294 
L 1656 0 
L 1153 0 
L 1478 1294 
L 494 1294 
L 494 1772 
L 1594 1772 
L 1856 2816 
L 850 2816 
L 850 3297 
L 1978 3297 
L 2297 4594 
L 2803 4594 
z
" transform="scale(0.015625)"/>
       <path id="DejaVuSans-20" transform="scale(0.015625)"/>
       <path id="DejaVuSans-43" d="M 4122 4306 
L 4122 3641 
Q 3803 3938 3442 4084 
Q 3081 4231 2675 4231 
Q 1875 4231 1450 3742 
Q 1025 3253 1025 2328 
Q 1025 1406 1450 917 
Q 1875 428 2675 428 
Q 3081 428 3442 575 
Q 3803 722 4122 1019 
L 4122 359 
Q 3791 134 3420 21 
Q 3050 -91 2638 -91 
Q 1578 -91 968 557 
Q 359 1206 359 2328 
Q 359 3453 968 4101 
Q 1578 4750 2638 4750 
Q 3056 4750 3426 4639 
Q 3797 4528 4122 4306 
z
" transform="scale(0.015625)"/>
       <path id="DejaVuSans-6f" d="M 1959 3097 
Q 1497 3097 1228 2736 
Q 959 2375 959 1747 
Q 959 1119 1226 758 
Q 1494 397 1959 397 
Q 2419 397 2687 759 
Q 2956 1122 2956 1747 
Q 2956 2369 2687 2733 
Q 2419 3097 1959 3097 
z
M 1959 3584 
Q 2709 3584 3137 3096 
Q 3566 2609 3566 1747 
Q 3566 888 3137 398 
Q 2709 -91 1959 -91 
Q 1206 -91 779 398 
Q 353 888 353 1747 
Q 353 2609 779 3096 
Q 1206 3584 1959 3584 
z
" transform="scale(0.015625)"/>
       <path id="DejaVuSans-6d" d="M 3328 2828 
Q 3544 3216 3844 3400 
Q 4144 3584 4550 3584 
Q 5097 3584 5394 3201 
Q 5691 2819 5691 2113 
L 5691 0 
L 5113 0 
L 5113 2094 
Q 5113 2597 4934 2840 
Q 4756 3084 4391 3084 
Q 3944 3084 3684 2787 
Q 3425 2491 3425 1978 
L 3425 0 
L 2847 0 
L 2847 2094 
Q 2847 2600 2669 2842 
Q 2491 3084 2119 3084 
Q 1678 3084 1418 2786 
Q 1159 2488 1159 1978 
L 1159 0 
L 581 0 
L 581 3500 
L 1159 3500 
L 1159 2956 
Q 1356 3278 1631 3431 
Q 1906 3584 2284 3584 
Q 2666 3584 2933 3390 
Q 3200 3197 3328 2828 
z
" transform="scale(0.015625)"/>
       <path id="DejaVuSans-69" d="M 603 3500 
L 1178 3500 
L 1178 0 
L 603 0 
L 603 3500 
z
M 603 4863 
L 1178 4863 
L 1178 4134 
L 603 4134 
L 603 4863 
z
" transform="scale(0.015625)"/>
       <path id="DejaVuSans-74" d="M 1172 4494 
L 1172 3500 
L 2356 3500 
L 2356 3053 
L 1172 3053 
L 1172 1153 
Q 1172 725 1289 603 
Q 1406 481 1766 481 
L 2356 481 
L 2356 0 
L 1766 0 
Q 1100 0 847 248 
Q 594 497 594 1153 
L 594 3053 
L 172 3053 
L 172 3500 
L 594 3500 
L 594 4494 
L 1172 4494 
z
" transform="scale(0.015625)"/>
       <path id="DejaVuSans-73" d="M 2834 3397 
L 2834 2853 
Q 2591 2978 2328 3040 
Q 2066 3103 1784 3103 
Q 1356 3103 1142 2972 
Q 928 2841 928 2578 
Q 928 2378 1081 2264 
Q 1234 2150 1697 2047 
L 1894 2003 
Q 2506 1872 2764 1633 
Q 3022 1394 3022 966 
Q 3022 478 2636 193 
Q 2250 -91 1575 -91 
Q 1294 -91 989 -36 
Q 684 19 347 128 
L 347 722 
Q 666 556 975 473 
Q 1284 391 1588 391 
Q 1994 391 2212 530 
Q 2431 669 2431 922 
Q 2431 1156 2273 1281 
Q 2116 1406 1581 1522 
L 1381 1569 
Q 847 1681 609 1914 
Q 372 2147 372 2553 
Q 372 3047 722 3315 
Q 1072 3584 1716 3584 
Q 2034 3584 2315 3537 
Q 2597 3491 2834 3397 
z
" transform="scale(0.015625)"/>
      </defs>
      <use xlink:href="#DejaVuSans-23"/>
      <use xlink:href="#DejaVuSans-20" x="83.789062"/>
      <use xlink:href="#DejaVuSans-43" x="115.576172"/>
      <use xlink:href="#DejaVuSans-6f" x="185.400391"/>
      <use xlink:href="#DejaVuSans-6d" x="246.582031"/>
      <use xlink:href="#DejaVuSans-6d" x="343.994141"/>
      <use xlink:href="#DejaVuSans-69" x="441.40625"/>
      <use xlink:href="#DejaVuSans-74" x="469.189453"/>
      <use xlink:href="#DejaVuSans-73" x="508.398438"/>
     </g>
    </g>
   </g>
   <g id="matplotlib.axis_2">
    <g id="ytick_1">
     <g id="line2d_7">
      <defs>
       <path id="m44dc3085d4" d="M 0 0 
L -3.5 0 
" style="stroke: #000000; stroke-width: 0.8"/>
      </defs>
      <g>
       <use xlink:href="#m44dc3085d4" x="56.64375" y="350.182989" style="stroke: #000000; stroke-width: 0.8"/>
      </g>
     </g>
     <g id="text_8">
      <!-- 5 -->
      <g transform="translate(40.1 355.881817)scale(0.15 -0.15)">
       <use xlink:href="#DejaVuSans-35"/>
      </g>
     </g>
    </g>
    <g id="ytick_2">
     <g id="line2d_8">
      <g>
       <use xlink:href="#m44dc3085d4" x="56.64375" y="313.559746" style="stroke: #000000; stroke-width: 0.8"/>
      </g>
     </g>
     <g id="text_9">
      <!-- 10 -->
      <g transform="translate(30.55625 319.258574)scale(0.15 -0.15)">
       <use xlink:href="#DejaVuSans-31"/>
       <use xlink:href="#DejaVuSans-30" x="63.623047"/>
      </g>
     </g>
    </g>
    <g id="ytick_3">
     <g id="line2d_9">
      <g>
       <use xlink:href="#m44dc3085d4" x="56.64375" y="276.936502" style="stroke: #000000; stroke-width: 0.8"/>
      </g>
     </g>
     <g id="text_10">
      <!-- 15 -->
      <g transform="translate(30.55625 282.63533)scale(0.15 -0.15)">
       <use xlink:href="#DejaVuSans-31"/>
       <use xlink:href="#DejaVuSans-35" x="63.623047"/>
      </g>
     </g>
    </g>
    <g id="ytick_4">
     <g id="line2d_10">
      <g>
       <use xlink:href="#m44dc3085d4" x="56.64375" y="240.313259" style="stroke: #000000; stroke-width: 0.8"/>
      </g>
     </g>
     <g id="text_11">
      <!-- 20 -->
      <g transform="translate(30.55625 246.012087)scale(0.15 -0.15)">
       <use xlink:href="#DejaVuSans-32"/>
       <use xlink:href="#DejaVuSans-30" x="63.623047"/>
      </g>
     </g>
    </g>
    <g id="ytick_5">
     <g id="line2d_11">
      <g>
       <use xlink:href="#m44dc3085d4" x="56.64375" y="203.690015" style="stroke: #000000; stroke-width: 0.8"/>
      </g>
     </g>
     <g id="text_12">
      <!-- 25 -->
      <g transform="translate(30.55625 209.388843)scale(0.15 -0.15)">
       <use xlink:href="#DejaVuSans-32"/>
       <use xlink:href="#DejaVuSans-35" x="63.623047"/>
      </g>
     </g>
    </g>
    <g id="ytick_6">
     <g id="line2d_12">
      <g>
       <use xlink:href="#m44dc3085d4" x="56.64375" y="167.066772" style="stroke: #000000; stroke-width: 0.8"/>
      </g>
     </g>
     <g id="text_13">
      <!-- 30 -->
      <g transform="translate(30.55625 172.7656)scale(0.15 -0.15)">
       <use xlink:href="#DejaVuSans-33"/>
       <use xlink:href="#DejaVuSans-30" x="63.623047"/>
      </g>
     </g>
    </g>
    <g id="ytick_7">
     <g id="line2d_13">
      <g>
       <use xlink:href="#m44dc3085d4" x="56.64375" y="130.443528" style="stroke: #000000; stroke-width: 0.8"/>
      </g>
     </g>
     <g id="text_14">
      <!-- 35 -->
      <g transform="translate(30.55625 136.142357)scale(0.15 -0.15)">
       <use xlink:href="#DejaVuSans-33"/>
       <use xlink:href="#DejaVuSans-35" x="63.623047"/>
      </g>
     </g>
    </g>
    <g id="ytick_8">
     <g id="line2d_14">
      <g>
       <use xlink:href="#m44dc3085d4" x="56.64375" y="93.820285" style="stroke: #000000; stroke-width: 0.8"/>
      </g>
     </g>
     <g id="text_15">
      <!-- 40 -->
      <g transform="translate(30.55625 99.519113)scale(0.15 -0.15)">
       <use xlink:href="#DejaVuSans-34"/>
       <use xlink:href="#DejaVuSans-30" x="63.623047"/>
      </g>
     </g>
    </g>
    <g id="text_16">
     <!-- # Interacting authors -->
     <g transform="translate(22.396875 336.707536)rotate(-90)scale(0.2 -0.2)">
      <defs>
       <path id="DejaVuSans-49" d="M 628 4666 
L 1259 4666 
L 1259 0 
L 628 0 
L 628 4666 
z
" transform="scale(0.015625)"/>
       <path id="DejaVuSans-6e" d="M 3513 2113 
L 3513 0 
L 2938 0 
L 2938 2094 
Q 2938 2591 2744 2837 
Q 2550 3084 2163 3084 
Q 1697 3084 1428 2787 
Q 1159 2491 1159 1978 
L 1159 0 
L 581 0 
L 581 3500 
L 1159 3500 
L 1159 2956 
Q 1366 3272 1645 3428 
Q 1925 3584 2291 3584 
Q 2894 3584 3203 3211 
Q 3513 2838 3513 2113 
z
" transform="scale(0.015625)"/>
       <path id="DejaVuSans-65" d="M 3597 1894 
L 3597 1613 
L 953 1613 
Q 991 1019 1311 708 
Q 1631 397 2203 397 
Q 2534 397 2845 478 
Q 3156 559 3463 722 
L 3463 178 
Q 3153 47 2828 -22 
Q 2503 -91 2169 -91 
Q 1331 -91 842 396 
Q 353 884 353 1716 
Q 353 2575 817 3079 
Q 1281 3584 2069 3584 
Q 2775 3584 3186 3129 
Q 3597 2675 3597 1894 
z
M 3022 2063 
Q 3016 2534 2758 2815 
Q 2500 3097 2075 3097 
Q 1594 3097 1305 2825 
Q 1016 2553 972 2059 
L 3022 2063 
z
" transform="scale(0.015625)"/>
       <path id="DejaVuSans-72" d="M 2631 2963 
Q 2534 3019 2420 3045 
Q 2306 3072 2169 3072 
Q 1681 3072 1420 2755 
Q 1159 2438 1159 1844 
L 1159 0 
L 581 0 
L 581 3500 
L 1159 3500 
L 1159 2956 
Q 1341 3275 1631 3429 
Q 1922 3584 2338 3584 
Q 2397 3584 2469 3576 
Q 2541 3569 2628 3553 
L 2631 2963 
z
" transform="scale(0.015625)"/>
       <path id="DejaVuSans-61" d="M 2194 1759 
Q 1497 1759 1228 1600 
Q 959 1441 959 1056 
Q 959 750 1161 570 
Q 1363 391 1709 391 
Q 2188 391 2477 730 
Q 2766 1069 2766 1631 
L 2766 1759 
L 2194 1759 
z
M 3341 1997 
L 3341 0 
L 2766 0 
L 2766 531 
Q 2569 213 2275 61 
Q 1981 -91 1556 -91 
Q 1019 -91 701 211 
Q 384 513 384 1019 
Q 384 1609 779 1909 
Q 1175 2209 1959 2209 
L 2766 2209 
L 2766 2266 
Q 2766 2663 2505 2880 
Q 2244 3097 1772 3097 
Q 1472 3097 1187 3025 
Q 903 2953 641 2809 
L 641 3341 
Q 956 3463 1253 3523 
Q 1550 3584 1831 3584 
Q 2591 3584 2966 3190 
Q 3341 2797 3341 1997 
z
" transform="scale(0.015625)"/>
       <path id="DejaVuSans-63" d="M 3122 3366 
L 3122 2828 
Q 2878 2963 2633 3030 
Q 2388 3097 2138 3097 
Q 1578 3097 1268 2742 
Q 959 2388 959 1747 
Q 959 1106 1268 751 
Q 1578 397 2138 397 
Q 2388 397 2633 464 
Q 2878 531 3122 666 
L 3122 134 
Q 2881 22 2623 -34 
Q 2366 -91 2075 -91 
Q 1284 -91 818 406 
Q 353 903 353 1747 
Q 353 2603 823 3093 
Q 1294 3584 2113 3584 
Q 2378 3584 2631 3529 
Q 2884 3475 3122 3366 
z
" transform="scale(0.015625)"/>
       <path id="DejaVuSans-67" d="M 2906 1791 
Q 2906 2416 2648 2759 
Q 2391 3103 1925 3103 
Q 1463 3103 1205 2759 
Q 947 2416 947 1791 
Q 947 1169 1205 825 
Q 1463 481 1925 481 
Q 2391 481 2648 825 
Q 2906 1169 2906 1791 
z
M 3481 434 
Q 3481 -459 3084 -895 
Q 2688 -1331 1869 -1331 
Q 1566 -1331 1297 -1286 
Q 1028 -1241 775 -1147 
L 775 -588 
Q 1028 -725 1275 -790 
Q 1522 -856 1778 -856 
Q 2344 -856 2625 -561 
Q 2906 -266 2906 331 
L 2906 616 
Q 2728 306 2450 153 
Q 2172 0 1784 0 
Q 1141 0 747 490 
Q 353 981 353 1791 
Q 353 2603 747 3093 
Q 1141 3584 1784 3584 
Q 2172 3584 2450 3431 
Q 2728 3278 2906 2969 
L 2906 3500 
L 3481 3500 
L 3481 434 
z
" transform="scale(0.015625)"/>
       <path id="DejaVuSans-75" d="M 544 1381 
L 544 3500 
L 1119 3500 
L 1119 1403 
Q 1119 906 1312 657 
Q 1506 409 1894 409 
Q 2359 409 2629 706 
Q 2900 1003 2900 1516 
L 2900 3500 
L 3475 3500 
L 3475 0 
L 2900 0 
L 2900 538 
Q 2691 219 2414 64 
Q 2138 -91 1772 -91 
Q 1169 -91 856 284 
Q 544 659 544 1381 
z
M 1991 3584 
L 1991 3584 
z
" transform="scale(0.015625)"/>
       <path id="DejaVuSans-68" d="M 3513 2113 
L 3513 0 
L 2938 0 
L 2938 2094 
Q 2938 2591 2744 2837 
Q 2550 3084 2163 3084 
Q 1697 3084 1428 2787 
Q 1159 2491 1159 1978 
L 1159 0 
L 581 0 
L 581 4863 
L 1159 4863 
L 1159 2956 
Q 1366 3272 1645 3428 
Q 1925 3584 2291 3584 
Q 2894 3584 3203 3211 
Q 3513 2838 3513 2113 
z
" transform="scale(0.015625)"/>
      </defs>
      <use xlink:href="#DejaVuSans-23"/>
      <use xlink:href="#DejaVuSans-20" x="83.789062"/>
      <use xlink:href="#DejaVuSans-49" x="115.576172"/>
      <use xlink:href="#DejaVuSans-6e" x="145.068359"/>
      <use xlink:href="#DejaVuSans-74" x="208.447266"/>
      <use xlink:href="#DejaVuSans-65" x="247.65625"/>
      <use xlink:href="#DejaVuSans-72" x="309.179688"/>
      <use xlink:href="#DejaVuSans-61" x="350.292969"/>
      <use xlink:href="#DejaVuSans-63" x="411.572266"/>
      <use xlink:href="#DejaVuSans-74" x="466.552734"/>
      <use xlink:href="#DejaVuSans-69" x="505.761719"/>
      <use xlink:href="#DejaVuSans-6e" x="533.544922"/>
      <use xlink:href="#DejaVuSans-67" x="596.923828"/>
      <use xlink:href="#DejaVuSans-20" x="660.400391"/>
      <use xlink:href="#DejaVuSans-61" x="692.1875"/>
      <use xlink:href="#DejaVuSans-75" x="753.466797"/>
      <use xlink:href="#DejaVuSans-74" x="816.845703"/>
      <use xlink:href="#DejaVuSans-68" x="856.054688"/>
      <use xlink:href="#DejaVuSans-6f" x="919.433594"/>
      <use xlink:href="#DejaVuSans-72" x="980.615234"/>
      <use xlink:href="#DejaVuSans-73" x="1021.728516"/>
     </g>
    </g>
   </g>
   <g id="patch_3">
    <path d="M 56.64375 386.44 
L 56.64375 72.212571 
" style="fill: none; stroke: #000000; stroke-width: 0.8; stroke-linejoin: miter; stroke-linecap: square"/>
   </g>
   <g id="patch_4">
    <path d="M 56.64375 386.44 
L 368.708607 386.44 
" style="fill: none; stroke: #000000; stroke-width: 0.8; stroke-linejoin: miter; stroke-linecap: square"/>
   </g>
  </g>
  <g id="axes_2">
   <g id="patch_5">
    <path d="M 56.64375 61.377143 
L 368.708607 61.377143 
L 368.708607 7.2 
L 56.64375 7.2 
z
" style="fill: #ffffff"/>
   </g>
   <g id="PolyCollection_1">
    <path d="M -25.447153 60.944645 
L -25.447153 61.377143 
L -23.053954 61.377143 
L -20.660755 61.377143 
L -18.267555 61.377143 
L -15.874356 61.377143 
L -13.481157 61.377143 
L -11.087957 61.377143 
L -8.694758 61.377143 
L -6.301559 61.377143 
L -3.908359 61.377143 
L -1.51516 61.377143 
L 0.878039 61.377143 
L 3.271238 61.377143 
L 5.664438 61.377143 
L 8.057637 61.377143 
L 10.450836 61.377143 
L 12.844036 61.377143 
L 15.237235 61.377143 
L 17.630434 61.377143 
L 20.023634 61.377143 
L 22.416833 61.377143 
L 24.810032 61.377143 
L 27.203232 61.377143 
L 29.596431 61.377143 
L 31.98963 61.377143 
L 34.38283 61.377143 
L 36.776029 61.377143 
L 39.169228 61.377143 
L 41.562428 61.377143 
L 43.955627 61.377143 
L 46.348826 61.377143 
L 48.742025 61.377143 
L 51.135225 61.377143 
L 53.528424 61.377143 
L 55.921623 61.377143 
L 58.314823 61.377143 
L 60.708022 61.377143 
L 63.101221 61.377143 
L 65.494421 61.377143 
L 67.88762 61.377143 
L 70.280819 61.377143 
L 72.674019 61.377143 
L 75.067218 61.377143 
L 77.460417 61.377143 
L 79.853617 61.377143 
L 82.246816 61.377143 
L 84.640015 61.377143 
L 87.033215 61.377143 
L 89.426414 61.377143 
L 91.819613 61.377143 
L 94.212812 61.377143 
L 96.606012 61.377143 
L 98.999211 61.377143 
L 101.39241 61.377143 
L 103.78561 61.377143 
L 106.178809 61.377143 
L 108.572008 61.377143 
L 110.965208 61.377143 
L 113.358407 61.377143 
L 115.751606 61.377143 
L 118.144806 61.377143 
L 120.538005 61.377143 
L 122.931204 61.377143 
L 125.324404 61.377143 
L 127.717603 61.377143 
L 130.110802 61.377143 
L 132.504001 61.377143 
L 134.897201 61.377143 
L 137.2904 61.377143 
L 139.683599 61.377143 
L 142.076799 61.377143 
L 144.469998 61.377143 
L 146.863197 61.377143 
L 149.256397 61.377143 
L 151.649596 61.377143 
L 154.042795 61.377143 
L 156.435995 61.377143 
L 158.829194 61.377143 
L 161.222393 61.377143 
L 163.615593 61.377143 
L 166.008792 61.377143 
L 168.401991 61.377143 
L 170.795191 61.377143 
L 173.18839 61.377143 
L 175.581589 61.377143 
L 177.974788 61.377143 
L 180.367988 61.377143 
L 182.761187 61.377143 
L 185.154386 61.377143 
L 187.547586 61.377143 
L 189.940785 61.377143 
L 192.333984 61.377143 
L 194.727184 61.377143 
L 197.120383 61.377143 
L 199.513582 61.377143 
L 201.906782 61.377143 
L 204.299981 61.377143 
L 206.69318 61.377143 
L 209.08638 61.377143 
L 211.479579 61.377143 
L 213.872778 61.377143 
L 216.265978 61.377143 
L 218.659177 61.377143 
L 221.052376 61.377143 
L 223.445575 61.377143 
L 225.838775 61.377143 
L 228.231974 61.377143 
L 230.625173 61.377143 
L 233.018373 61.377143 
L 235.411572 61.377143 
L 237.804771 61.377143 
L 240.197971 61.377143 
L 242.59117 61.377143 
L 244.984369 61.377143 
L 247.377569 61.377143 
L 249.770768 61.377143 
L 252.163967 61.377143 
L 254.557167 61.377143 
L 256.950366 61.377143 
L 259.343565 61.377143 
L 261.736765 61.377143 
L 264.129964 61.377143 
L 266.523163 61.377143 
L 268.916362 61.377143 
L 271.309562 61.377143 
L 273.702761 61.377143 
L 276.09596 61.377143 
L 278.48916 61.377143 
L 280.882359 61.377143 
L 283.275558 61.377143 
L 285.668758 61.377143 
L 288.061957 61.377143 
L 290.455156 61.377143 
L 292.848356 61.377143 
L 295.241555 61.377143 
L 297.634754 61.377143 
L 300.027954 61.377143 
L 302.421153 61.377143 
L 304.814352 61.377143 
L 307.207552 61.377143 
L 309.600751 61.377143 
L 311.99395 61.377143 
L 314.387149 61.377143 
L 316.780349 61.377143 
L 319.173548 61.377143 
L 321.566747 61.377143 
L 323.959947 61.377143 
L 326.353146 61.377143 
L 328.746345 61.377143 
L 331.139545 61.377143 
L 333.532744 61.377143 
L 335.925943 61.377143 
L 338.319143 61.377143 
L 340.712342 61.377143 
L 343.105541 61.377143 
L 345.498741 61.377143 
L 347.89194 61.377143 
L 350.285139 61.377143 
L 352.678339 61.377143 
L 355.071538 61.377143 
L 357.464737 61.377143 
L 359.857936 61.377143 
L 362.251136 61.377143 
L 364.644335 61.377143 
L 367.037534 61.377143 
L 369.430734 61.377143 
L 371.823933 61.377143 
L 374.217132 61.377143 
L 376.610332 61.377143 
L 379.003531 61.377143 
L 381.39673 61.377143 
L 383.78993 61.377143 
L 386.183129 61.377143 
L 388.576328 61.377143 
L 390.969528 61.377143 
L 393.362727 61.377143 
L 395.755926 61.377143 
L 398.149126 61.377143 
L 400.542325 61.377143 
L 402.935524 61.377143 
L 405.328723 61.377143 
L 407.721923 61.377143 
L 410.115122 61.377143 
L 412.508321 61.377143 
L 414.901521 61.377143 
L 417.29472 61.377143 
L 419.687919 61.377143 
L 422.081119 61.377143 
L 424.474318 61.377143 
L 426.867517 61.377143 
L 429.260717 61.377143 
L 431.653916 61.377143 
L 434.047115 61.377143 
L 436.440315 61.377143 
L 438.833514 61.377143 
L 441.226713 61.377143 
L 443.619913 61.377143 
L 446.013112 61.377143 
L 448.406311 61.377143 
L 450.79951 61.377143 
L 450.79951 61.348344 
L 450.79951 61.348344 
L 448.406311 61.341224 
L 446.013112 61.332592 
L 443.619913 61.322191 
L 441.226713 61.309738 
L 438.833514 61.294922 
L 436.440315 61.277406 
L 434.047115 61.256828 
L 431.653916 61.23281 
L 429.260717 61.204958 
L 426.867517 61.172869 
L 424.474318 61.136145 
L 422.081119 61.094395 
L 419.687919 61.047253 
L 417.29472 60.994385 
L 414.901521 60.935507 
L 412.508321 60.870398 
L 410.115122 60.798915 
L 407.721923 60.721007 
L 405.328723 60.636732 
L 402.935524 60.546265 
L 400.542325 60.449916 
L 398.149126 60.348132 
L 395.755926 60.241509 
L 393.362727 60.130788 
L 390.969528 60.016857 
L 388.576328 59.900746 
L 386.183129 59.783611 
L 383.78993 59.66672 
L 381.39673 59.551437 
L 379.003531 59.43919 
L 376.610332 59.331451 
L 374.217132 59.229698 
L 371.823933 59.135385 
L 369.430734 59.049908 
L 367.037534 58.974571 
L 364.644335 58.91055 
L 362.251136 58.858866 
L 359.857936 58.820358 
L 357.464737 58.795658 
L 355.071538 58.785173 
L 352.678339 58.789078 
L 350.285139 58.807309 
L 347.89194 58.839563 
L 345.498741 58.885307 
L 343.105541 58.943798 
L 340.712342 59.014093 
L 338.319143 59.095084 
L 335.925943 59.185521 
L 333.532744 59.284046 
L 331.139545 59.389228 
L 328.746345 59.499595 
L 326.353146 59.613669 
L 323.959947 59.729997 
L 321.566747 59.847184 
L 319.173548 59.963914 
L 316.780349 60.078977 
L 314.387149 60.191284 
L 311.99395 60.299883 
L 309.600751 60.403961 
L 307.207552 60.502858 
L 304.814352 60.596058 
L 302.421153 60.683189 
L 300.027954 60.764013 
L 297.634754 60.838421 
L 295.241555 60.906412 
L 292.848356 60.968087 
L 290.455156 61.023631 
L 288.061957 61.073297 
L 285.668758 61.117391 
L 283.275558 61.15626 
L 280.882359 61.190275 
L 278.48916 61.219821 
L 276.09596 61.245286 
L 273.702761 61.267047 
L 271.309562 61.285468 
L 268.916362 61.300889 
L 266.523163 61.313618 
L 264.129964 61.323934 
L 261.736765 61.332074 
L 259.343565 61.338237 
L 256.950366 61.342579 
L 254.557167 61.345212 
L 252.163967 61.346201 
L 249.770768 61.345564 
L 247.377569 61.343273 
L 244.984369 61.33925 
L 242.59117 61.333365 
L 240.197971 61.32544 
L 237.804771 61.315245 
L 235.411572 61.302497 
L 233.018373 61.286861 
L 230.625173 61.267952 
L 228.231974 61.245329 
L 225.838775 61.218505 
L 223.445575 61.18694 
L 221.052376 61.150048 
L 218.659177 61.107201 
L 216.265978 61.057727 
L 213.872778 61.000921 
L 211.479579 60.936043 
L 209.08638 60.862326 
L 206.69318 60.778978 
L 204.299981 60.685186 
L 201.906782 60.580119 
L 199.513582 60.462927 
L 197.120383 60.332737 
L 194.727184 60.188653 
L 192.333984 60.029741 
L 189.940785 59.855023 
L 187.547586 59.663454 
L 185.154386 59.453908 
L 182.761187 59.225144 
L 180.367988 58.975784 
L 177.974788 58.704275 
L 175.581589 58.408853 
L 173.18839 58.087509 
L 170.795191 57.737948 
L 168.401991 57.357559 
L 166.008792 56.943381 
L 163.615593 56.492083 
L 161.222393 55.999951 
L 158.829194 55.462892 
L 156.435995 54.87645 
L 154.042795 54.23584 
L 151.649596 53.536014 
L 149.256397 52.771739 
L 146.863197 51.937706 
L 144.469998 51.028665 
L 142.076799 50.039585 
L 139.683599 48.965837 
L 137.2904 47.803395 
L 134.897201 46.549065 
L 132.504001 45.20071 
L 130.110802 43.757493 
L 127.717603 42.220107 
L 125.324404 40.591 
L 122.931204 38.874571 
L 120.538005 37.077344 
L 118.144806 35.208088 
L 115.751606 33.277897 
L 113.358407 31.300205 
L 110.965208 29.290735 
L 108.572008 27.267378 
L 106.178809 25.249998 
L 103.78561 23.260162 
L 101.39241 21.320795 
L 98.999211 19.455778 
L 96.606012 17.68948 
L 94.212812 16.04625 
L 91.819613 14.549877 
L 89.426414 13.223035 
L 87.033215 12.086724 
L 84.640015 11.159748 
L 82.246816 10.458211 
L 79.853617 9.99509 
L 77.460417 9.779864 
L 75.067218 9.818242 
L 72.674019 10.111981 
L 70.280819 10.658809 
L 67.88762 11.452459 
L 65.494421 12.482806 
L 63.101221 13.736109 
L 60.708022 15.195345 
L 58.314823 16.840628 
L 55.921623 18.649689 
L 53.528424 20.598416 
L 51.135225 22.661415 
L 48.742025 24.812592 
L 46.348826 27.025725 
L 43.955627 29.275017 
L 41.562428 31.535603 
L 39.169228 33.784007 
L 36.776029 35.998537 
L 34.38283 38.159604 
L 31.98963 40.249963 
L 29.596431 42.254879 
L 27.203232 44.16221 
L 24.810032 45.962422 
L 22.416833 47.648532 
L 20.023634 49.215993 
L 17.630434 50.662528 
L 15.237235 51.987928 
L 12.844036 53.193818 
L 10.450836 54.2834 
L 8.057637 55.261197 
L 5.664438 56.132791 
L 3.271238 56.904567 
L 0.878039 57.583477 
L -1.51516 58.176819 
L -3.908359 58.692045 
L -6.301559 59.136587 
L -8.694758 59.517716 
L -11.087957 59.842425 
L -13.481157 60.117341 
L -15.874356 60.348656 
L -18.267555 60.542085 
L -20.660755 60.702841 
L -23.053954 60.835627 
L -25.447153 60.944645 
z
" clip-path="url(#p548213bbff)" style="fill: #1f77b4; fill-opacity: 0.25; stroke: #1f77b4"/>
   </g>
   <g id="matplotlib.axis_3">
    <g id="xtick_7">
     <g id="line2d_15">
      <g>
       <use xlink:href="#me7769b4415" x="70.238713" y="61.377143" style="stroke: #000000; stroke-width: 0.8"/>
      </g>
     </g>
    </g>
    <g id="xtick_8">
     <g id="line2d_16">
      <g>
       <use xlink:href="#me7769b4415" x="129.21903" y="61.377143" style="stroke: #000000; stroke-width: 0.8"/>
      </g>
     </g>
    </g>
    <g id="xtick_9">
     <g id="line2d_17">
      <g>
       <use xlink:href="#me7769b4415" x="188.199347" y="61.377143" style="stroke: #000000; stroke-width: 0.8"/>
      </g>
     </g>
    </g>
    <g id="xtick_10">
     <g id="line2d_18">
      <g>
       <use xlink:href="#me7769b4415" x="247.179664" y="61.377143" style="stroke: #000000; stroke-width: 0.8"/>
      </g>
     </g>
    </g>
    <g id="xtick_11">
     <g id="line2d_19">
      <g>
       <use xlink:href="#me7769b4415" x="306.159981" y="61.377143" style="stroke: #000000; stroke-width: 0.8"/>
      </g>
     </g>
    </g>
    <g id="xtick_12">
     <g id="line2d_20">
      <g>
       <use xlink:href="#me7769b4415" x="365.140298" y="61.377143" style="stroke: #000000; stroke-width: 0.8"/>
      </g>
     </g>
    </g>
   </g>
   <g id="matplotlib.axis_4">
    <g id="ytick_9"/>
    <g id="ytick_10"/>
   </g>
   <g id="patch_6">
    <path d="M 56.64375 61.377143 
L 368.708607 61.377143 
" style="fill: none; stroke: #000000; stroke-width: 0.8; stroke-linejoin: miter; stroke-linecap: square"/>
   </g>
  </g>
  <g id="axes_3">
   <g id="patch_7">
    <path d="M 379.469464 386.44 
L 433.27375 386.44 
L 433.27375 72.212571 
L 379.469464 72.212571 
z
" style="fill: #ffffff"/>
   </g>
   <g id="PolyCollection_2">
    <path d="M 379.532669 510.214772 
L 379.469464 510.214772 
L 379.469464 507.391772 
L 379.469464 504.568772 
L 379.469464 501.745772 
L 379.469464 498.922772 
L 379.469464 496.099772 
L 379.469464 493.276773 
L 379.469464 490.453773 
L 379.469464 487.630773 
L 379.469464 484.807773 
L 379.469464 481.984773 
L 379.469464 479.161773 
L 379.469464 476.338773 
L 379.469464 473.515774 
L 379.469464 470.692774 
L 379.469464 467.869774 
L 379.469464 465.046774 
L 379.469464 462.223774 
L 379.469464 459.400774 
L 379.469464 456.577774 
L 379.469464 453.754775 
L 379.469464 450.931775 
L 379.469464 448.108775 
L 379.469464 445.285775 
L 379.469464 442.462775 
L 379.469464 439.639775 
L 379.469464 436.816775 
L 379.469464 433.993776 
L 379.469464 431.170776 
L 379.469464 428.347776 
L 379.469464 425.524776 
L 379.469464 422.701776 
L 379.469464 419.878776 
L 379.469464 417.055776 
L 379.469464 414.232777 
L 379.469464 411.409777 
L 379.469464 408.586777 
L 379.469464 405.763777 
L 379.469464 402.940777 
L 379.469464 400.117777 
L 379.469464 397.294777 
L 379.469464 394.471777 
L 379.469464 391.648778 
L 379.469464 388.825778 
L 379.469464 386.002778 
L 379.469464 383.179778 
L 379.469464 380.356778 
L 379.469464 377.533778 
L 379.469464 374.710778 
L 379.469464 371.887779 
L 379.469464 369.064779 
L 379.469464 366.241779 
L 379.469464 363.418779 
L 379.469464 360.595779 
L 379.469464 357.772779 
L 379.469464 354.949779 
L 379.469464 352.12678 
L 379.469464 349.30378 
L 379.469464 346.48078 
L 379.469464 343.65778 
L 379.469464 340.83478 
L 379.469464 338.01178 
L 379.469464 335.18878 
L 379.469464 332.365781 
L 379.469464 329.542781 
L 379.469464 326.719781 
L 379.469464 323.896781 
L 379.469464 321.073781 
L 379.469464 318.250781 
L 379.469464 315.427781 
L 379.469464 312.604782 
L 379.469464 309.781782 
L 379.469464 306.958782 
L 379.469464 304.135782 
L 379.469464 301.312782 
L 379.469464 298.489782 
L 379.469464 295.666782 
L 379.469464 292.843783 
L 379.469464 290.020783 
L 379.469464 287.197783 
L 379.469464 284.374783 
L 379.469464 281.551783 
L 379.469464 278.728783 
L 379.469464 275.905783 
L 379.469464 273.082784 
L 379.469464 270.259784 
L 379.469464 267.436784 
L 379.469464 264.613784 
L 379.469464 261.790784 
L 379.469464 258.967784 
L 379.469464 256.144784 
L 379.469464 253.321785 
L 379.469464 250.498785 
L 379.469464 247.675785 
L 379.469464 244.852785 
L 379.469464 242.029785 
L 379.469464 239.206785 
L 379.469464 236.383785 
L 379.469464 233.560786 
L 379.469464 230.737786 
L 379.469464 227.914786 
L 379.469464 225.091786 
L 379.469464 222.268786 
L 379.469464 219.445786 
L 379.469464 216.622786 
L 379.469464 213.799786 
L 379.469464 210.976787 
L 379.469464 208.153787 
L 379.469464 205.330787 
L 379.469464 202.507787 
L 379.469464 199.684787 
L 379.469464 196.861787 
L 379.469464 194.038787 
L 379.469464 191.215788 
L 379.469464 188.392788 
L 379.469464 185.569788 
L 379.469464 182.746788 
L 379.469464 179.923788 
L 379.469464 177.100788 
L 379.469464 174.277788 
L 379.469464 171.454789 
L 379.469464 168.631789 
L 379.469464 165.808789 
L 379.469464 162.985789 
L 379.469464 160.162789 
L 379.469464 157.339789 
L 379.469464 154.516789 
L 379.469464 151.69379 
L 379.469464 148.87079 
L 379.469464 146.04779 
L 379.469464 143.22479 
L 379.469464 140.40179 
L 379.469464 137.57879 
L 379.469464 134.75579 
L 379.469464 131.932791 
L 379.469464 129.109791 
L 379.469464 126.286791 
L 379.469464 123.463791 
L 379.469464 120.640791 
L 379.469464 117.817791 
L 379.469464 114.994791 
L 379.469464 112.171792 
L 379.469464 109.348792 
L 379.469464 106.525792 
L 379.469464 103.702792 
L 379.469464 100.879792 
L 379.469464 98.056792 
L 379.469464 95.233792 
L 379.469464 92.410793 
L 379.469464 89.587793 
L 379.469464 86.764793 
L 379.469464 83.941793 
L 379.469464 81.118793 
L 379.469464 78.295793 
L 379.469464 75.472793 
L 379.469464 72.649794 
L 379.469464 69.826794 
L 379.469464 67.003794 
L 379.469464 64.180794 
L 379.469464 61.357794 
L 379.469464 58.534794 
L 379.469464 55.711794 
L 379.469464 52.888795 
L 379.469464 50.065795 
L 379.469464 47.242795 
L 379.469464 44.419795 
L 379.469464 41.596795 
L 379.469464 38.773795 
L 379.469464 35.950795 
L 379.469464 33.127795 
L 379.469464 30.304796 
L 379.469464 27.481796 
L 379.469464 24.658796 
L 379.469464 21.835796 
L 379.469464 19.012796 
L 379.469464 16.189796 
L 379.469464 13.366796 
L 379.469464 10.543797 
L 379.469464 7.720797 
L 379.469464 4.897797 
L 379.469464 2.074797 
L 379.469464 -0.748203 
L 379.469464 -3.571203 
L 379.469464 -6.394203 
L 379.469464 -9.217202 
L 379.469464 -12.040202 
L 379.469464 -14.863202 
L 379.469464 -17.686202 
L 379.469464 -20.509202 
L 379.469464 -23.332202 
L 379.469464 -26.155202 
L 379.469464 -28.978201 
L 379.469464 -31.801201 
L 379.469464 -34.624201 
L 379.469464 -37.447201 
L 379.469464 -40.270201 
L 379.469464 -43.093201 
L 379.469464 -45.916201 
L 379.469464 -48.7392 
L 379.469464 -51.5622 
L 379.579716 -51.5622 
L 379.579716 -51.5622 
L 379.603012 -48.7392 
L 379.63066 -45.916201 
L 379.663348 -43.093201 
L 379.701847 -40.270201 
L 379.74702 -37.447201 
L 379.79982 -34.624201 
L 379.861303 -31.801201 
L 379.932623 -28.978201 
L 380.015044 -26.155202 
L 380.109932 -23.332202 
L 380.218763 -20.509202 
L 380.343116 -17.686202 
L 380.484672 -14.863202 
L 380.645208 -12.040202 
L 380.82659 -9.217202 
L 381.030762 -6.394203 
L 381.259737 -3.571203 
L 381.515576 -0.748203 
L 381.800379 2.074797 
L 382.116262 4.897797 
L 382.465334 7.720797 
L 382.849677 10.543797 
L 383.271321 13.366796 
L 383.732214 16.189796 
L 384.234197 19.012796 
L 384.778977 21.835796 
L 385.368096 24.658796 
L 386.002901 27.481796 
L 386.684522 30.304796 
L 387.413838 33.127795 
L 388.191457 35.950795 
L 389.01769 38.773795 
L 389.89253 41.596795 
L 390.815637 44.419795 
L 391.78632 47.242795 
L 392.803525 50.065795 
L 393.865831 52.888795 
L 394.971444 55.711794 
L 396.118195 58.534794 
L 397.30355 61.357794 
L 398.524612 64.180794 
L 399.778138 67.003794 
L 401.060552 69.826794 
L 402.367969 72.649794 
L 403.696215 75.472793 
L 405.040856 78.295793 
L 406.397226 81.118793 
L 407.760464 83.941793 
L 409.125547 86.764793 
L 410.487329 89.587793 
L 411.840582 92.410793 
L 413.180033 95.233792 
L 414.500416 98.056792 
L 415.796506 100.879792 
L 417.06317 103.702792 
L 418.29541 106.525792 
L 419.488404 109.348792 
L 420.63755 112.171792 
L 421.738508 114.994791 
L 422.787238 117.817791 
L 423.780033 120.640791 
L 424.713554 123.463791 
L 425.584857 126.286791 
L 426.391416 129.109791 
L 427.131139 131.932791 
L 427.802386 134.75579 
L 428.403968 137.57879 
L 428.935157 140.40179 
L 429.395671 143.22479 
L 429.785669 146.04779 
L 430.105732 148.87079 
L 430.356841 151.69379 
L 430.540348 154.516789 
L 430.657948 157.339789 
L 430.711641 160.162789 
L 430.703699 162.985789 
L 430.636625 165.808789 
L 430.513114 168.631789 
L 430.336019 171.454789 
L 430.108309 174.277788 
L 429.833042 177.100788 
L 429.513325 179.923788 
L 429.152298 182.746788 
L 428.753101 185.569788 
L 428.318865 188.392788 
L 427.852692 191.215788 
L 427.357649 194.038787 
L 426.836765 196.861787 
L 426.293029 199.684787 
L 425.729389 202.507787 
L 425.148765 205.330787 
L 424.554046 208.153787 
L 423.948105 210.976787 
L 423.3338 213.799786 
L 422.713982 216.622786 
L 422.091493 219.445786 
L 421.469173 222.268786 
L 420.849849 225.091786 
L 420.236329 227.914786 
L 419.631388 230.737786 
L 419.03775 233.560786 
L 418.458062 236.383785 
L 417.894872 239.206785 
L 417.350589 242.029785 
L 416.827456 244.852785 
L 416.327507 247.675785 
L 415.852529 250.498785 
L 415.404023 253.321785 
L 414.983168 256.144784 
L 414.59078 258.967784 
L 414.227285 261.790784 
L 413.892687 264.613784 
L 413.586549 267.436784 
L 413.307979 270.259784 
L 413.055623 273.082784 
L 412.827664 275.905783 
L 412.62184 278.728783 
L 412.435458 281.551783 
L 412.265429 284.374783 
L 412.108302 287.197783 
L 411.960316 290.020783 
L 411.81745 292.843783 
L 411.675488 295.666782 
L 411.530082 298.489782 
L 411.376825 301.312782 
L 411.211322 304.135782 
L 411.029265 306.958782 
L 410.826503 309.781782 
L 410.599114 312.604782 
L 410.343469 315.427781 
L 410.056296 318.250781 
L 409.73473 321.073781 
L 409.376363 323.896781 
L 408.979276 326.719781 
L 408.542075 329.542781 
L 408.0639 332.365781 
L 407.544441 335.18878 
L 406.983934 338.01178 
L 406.383148 340.83478 
L 405.743369 343.65778 
L 405.066366 346.48078 
L 404.354363 349.30378 
L 403.609991 352.12678 
L 402.836241 354.949779 
L 402.036417 357.772779 
L 401.214075 360.595779 
L 400.372973 363.418779 
L 399.51701 366.241779 
L 398.650172 369.064779 
L 397.776475 371.887779 
L 396.899916 374.710778 
L 396.02442 377.533778 
L 395.153798 380.356778 
L 394.291703 383.179778 
L 393.441599 386.002778 
L 392.606723 388.825778 
L 391.790064 391.648778 
L 390.994343 394.471777 
L 390.221994 397.294777 
L 389.475156 400.117777 
L 388.755667 402.940777 
L 388.065062 405.763777 
L 387.404577 408.586777 
L 386.775155 411.409777 
L 386.177458 414.232777 
L 385.611875 417.055776 
L 385.078543 419.878776 
L 384.577362 422.701776 
L 384.10801 425.524776 
L 383.66997 428.347776 
L 383.262548 431.170776 
L 382.884891 433.993776 
L 382.536012 436.816775 
L 382.214812 439.639775 
L 381.920096 442.462775 
L 381.650597 445.285775 
L 381.404994 448.108775 
L 381.181927 450.931775 
L 380.980019 453.754775 
L 380.797886 456.577774 
L 380.634153 459.400774 
L 380.487465 462.223774 
L 380.356501 465.046774 
L 380.239978 467.869774 
L 380.136662 470.692774 
L 380.045376 473.515774 
L 379.964999 476.338773 
L 379.894476 479.161773 
L 379.832816 481.984773 
L 379.779095 484.807773 
L 379.732457 487.630773 
L 379.692111 490.453773 
L 379.657334 493.276773 
L 379.627463 496.099772 
L 379.601899 498.922772 
L 379.580099 501.745772 
L 379.561577 504.568772 
L 379.545896 507.391772 
L 379.532669 510.214772 
z
" clip-path="url(#p12b499fa2c)" style="fill: #1f77b4; fill-opacity: 0.25; stroke: #1f77b4"/>
   </g>
   <g id="matplotlib.axis_5">
    <g id="xtick_13"/>
    <g id="xtick_14"/>
   </g>
   <g id="matplotlib.axis_6">
    <g id="ytick_11">
     <g id="line2d_21">
      <g>
       <use xlink:href="#m44dc3085d4" x="379.469464" y="350.182989" style="stroke: #000000; stroke-width: 0.8"/>
      </g>
     </g>
    </g>
    <g id="ytick_12">
     <g id="line2d_22">
      <g>
       <use xlink:href="#m44dc3085d4" x="379.469464" y="313.559746" style="stroke: #000000; stroke-width: 0.8"/>
      </g>
     </g>
    </g>
    <g id="ytick_13">
     <g id="line2d_23">
      <g>
       <use xlink:href="#m44dc3085d4" x="379.469464" y="276.936502" style="stroke: #000000; stroke-width: 0.8"/>
      </g>
     </g>
    </g>
    <g id="ytick_14">
     <g id="line2d_24">
      <g>
       <use xlink:href="#m44dc3085d4" x="379.469464" y="240.313259" style="stroke: #000000; stroke-width: 0.8"/>
      </g>
     </g>
    </g>
    <g id="ytick_15">
     <g id="line2d_25">
      <g>
       <use xlink:href="#m44dc3085d4" x="379.469464" y="203.690015" style="stroke: #000000; stroke-width: 0.8"/>
      </g>
     </g>
    </g>
    <g id="ytick_16">
     <g id="line2d_26">
      <g>
       <use xlink:href="#m44dc3085d4" x="379.469464" y="167.066772" style="stroke: #000000; stroke-width: 0.8"/>
      </g>
     </g>
    </g>
    <g id="ytick_17">
     <g id="line2d_27">
      <g>
       <use xlink:href="#m44dc3085d4" x="379.469464" y="130.443528" style="stroke: #000000; stroke-width: 0.8"/>
      </g>
     </g>
    </g>
    <g id="ytick_18">
     <g id="line2d_28">
      <g>
       <use xlink:href="#m44dc3085d4" x="379.469464" y="93.820285" style="stroke: #000000; stroke-width: 0.8"/>
      </g>
     </g>
    </g>
   </g>
   <g id="patch_8">
    <path d="M 379.469464 386.44 
L 379.469464 72.212571 
" style="fill: none; stroke: #000000; stroke-width: 0.8; stroke-linejoin: miter; stroke-linecap: square"/>
   </g>
  </g>
 </g>
 <defs>
  <clipPath id="p408c8201dd">
   <rect x="56.64375" y="72.212571" width="312.064857" height="314.227429"/>
  </clipPath>
  <clipPath id="p548213bbff">
   <rect x="56.64375" y="7.2" width="312.064857" height="54.177143"/>
  </clipPath>
  <clipPath id="p12b499fa2c">
   <rect x="379.469464" y="72.212571" width="53.804286" height="314.227429"/>
  </clipPath>
 </defs>
</svg>
