<?xml version="1.0" encoding="utf-8" standalone="no"?>
<!DOCTYPE svg PUBLIC "-//W3C//DTD SVG 1.1//EN"
  "http://www.w3.org/Graphics/SVG/1.1/DTD/svg11.dtd">
<svg xmlns:xlink="http://www.w3.org/1999/xlink" width="445.312812pt" height="443.3525pt" viewBox="0 0 445.312812 443.3525" xmlns="http://www.w3.org/2000/svg" version="1.1">
 <metadata>
  <rdf:RDF xmlns:dc="http://purl.org/dc/elements/1.1/" xmlns:cc="http://creativecommons.org/ns#" xmlns:rdf="http://www.w3.org/1999/02/22-rdf-syntax-ns#">
   <cc:Work>
    <dc:type rdf:resource="http://purl.org/dc/dcmitype/StillImage"/>
    <dc:date>2022-12-09T16:27:10.837799</dc:date>
    <dc:format>image/svg+xml</dc:format>
    <dc:creator>
     <cc:Agent>
      <dc:title>Matplotlib v3.6.2, https://matplotlib.org/</dc:title>
     </cc:Agent>
    </dc:creator>
   </cc:Work>
  </rdf:RDF>
 </metadata>
 <defs>
  <style type="text/css">*{stroke-linejoin: round; stroke-linecap: butt}</style>
 </defs>
 <g id="figure_1">
  <g id="patch_1">
   <path d="M 0 443.3525 
L 445.312812 443.3525 
L 445.312812 0 
L 0 0 
z
" style="fill: #ffffff"/>
  </g>
  <g id="axes_1">
   <g id="patch_2">
    <path d="M 61.482813 386.44 
L 373.54767 386.44 
L 373.54767 72.212571 
L 61.482813 72.212571 
z
" style="fill: #ffffff"/>
   </g>
   <g id="PathCollection_1">
    <defs>
     <path id="me40877648b" d="M 0 5 
C 1.326016 5 2.597899 4.473168 3.535534 3.535534 
C 4.473168 2.597899 5 1.326016 5 0 
C 5 -1.326016 4.473168 -2.597899 3.535534 -3.535534 
C 2.597899 -4.473168 1.326016 -5 0 -5 
C -1.326016 -5 -2.597899 -4.473168 -3.535534 -3.535534 
C -4.473168 -2.597899 -5 -1.326016 -5 0 
C -5 1.326016 -4.473168 2.597899 -3.535534 3.535534 
C -2.597899 4.473168 -1.326016 5 0 5 
z
" style="stroke: #ffffff; stroke-opacity: 0.5; stroke-width: 0.8"/>
    </defs>
    <g clip-path="url(#p3b88d4dcb7)">
     <use xlink:href="#me40877648b" x="359.362903" y="102.365709" style="fill: #1f77b4; fill-opacity: 0.5; stroke: #ffffff; stroke-opacity: 0.5; stroke-width: 0.8"/>
     <use xlink:href="#me40877648b" x="102.887812" y="110.300745" style="fill: #1f77b4; fill-opacity: 0.5; stroke: #ffffff; stroke-opacity: 0.5; stroke-width: 0.8"/>
     <use xlink:href="#me40877648b" x="99.258448" y="110.300745" style="fill: #1f77b4; fill-opacity: 0.5; stroke: #ffffff; stroke-opacity: 0.5; stroke-width: 0.8"/>
     <use xlink:href="#me40877648b" x="78.087155" y="157.910961" style="fill: #1f77b4; fill-opacity: 0.5; stroke: #ffffff; stroke-opacity: 0.5; stroke-width: 0.8"/>
     <use xlink:href="#me40877648b" x="75.667579" y="134.105853" style="fill: #1f77b4; fill-opacity: 0.5; stroke: #ffffff; stroke-opacity: 0.5; stroke-width: 0.8"/>
     <use xlink:href="#me40877648b" x="79.901837" y="165.845997" style="fill: #1f77b4; fill-opacity: 0.5; stroke: #ffffff; stroke-opacity: 0.5; stroke-width: 0.8"/>
     <use xlink:href="#me40877648b" x="75.667579" y="316.611683" style="fill: #1f77b4; fill-opacity: 0.5; stroke: #ffffff; stroke-opacity: 0.5; stroke-width: 0.8"/>
     <use xlink:href="#me40877648b" x="91.394825" y="118.235781" style="fill: #1f77b4; fill-opacity: 0.5; stroke: #ffffff; stroke-opacity: 0.5; stroke-width: 0.8"/>
     <use xlink:href="#me40877648b" x="78.692049" y="189.651105" style="fill: #1f77b4; fill-opacity: 0.5; stroke: #ffffff; stroke-opacity: 0.5; stroke-width: 0.8"/>
     <use xlink:href="#me40877648b" x="75.667579" y="372.156935" style="fill: #1f77b4; fill-opacity: 0.5; stroke: #ffffff; stroke-opacity: 0.5; stroke-width: 0.8"/>
     <use xlink:href="#me40877648b" x="76.877367" y="261.06643" style="fill: #1f77b4; fill-opacity: 0.5; stroke: #ffffff; stroke-opacity: 0.5; stroke-width: 0.8"/>
     <use xlink:href="#me40877648b" x="78.692049" y="205.521177" style="fill: #1f77b4; fill-opacity: 0.5; stroke: #ffffff; stroke-opacity: 0.5; stroke-width: 0.8"/>
     <use xlink:href="#me40877648b" x="75.667579" y="181.716069" style="fill: #1f77b4; fill-opacity: 0.5; stroke: #ffffff; stroke-opacity: 0.5; stroke-width: 0.8"/>
     <use xlink:href="#me40877648b" x="151.279339" y="86.495636" style="fill: #1f77b4; fill-opacity: 0.5; stroke: #ffffff; stroke-opacity: 0.5; stroke-width: 0.8"/>
     <use xlink:href="#me40877648b" x="78.087155" y="165.845997" style="fill: #1f77b4; fill-opacity: 0.5; stroke: #ffffff; stroke-opacity: 0.5; stroke-width: 0.8"/>
     <use xlink:href="#me40877648b" x="76.877367" y="197.586141" style="fill: #1f77b4; fill-opacity: 0.5; stroke: #ffffff; stroke-opacity: 0.5; stroke-width: 0.8"/>
     <use xlink:href="#me40877648b" x="75.667579" y="292.806574" style="fill: #1f77b4; fill-opacity: 0.5; stroke: #ffffff; stroke-opacity: 0.5; stroke-width: 0.8"/>
     <use xlink:href="#me40877648b" x="123.454211" y="94.430672" style="fill: #1f77b4; fill-opacity: 0.5; stroke: #ffffff; stroke-opacity: 0.5; stroke-width: 0.8"/>
     <use xlink:href="#me40877648b" x="75.667579" y="348.351827" style="fill: #1f77b4; fill-opacity: 0.5; stroke: #ffffff; stroke-opacity: 0.5; stroke-width: 0.8"/>
     <use xlink:href="#me40877648b" x="75.667579" y="364.221899" style="fill: #1f77b4; fill-opacity: 0.5; stroke: #ffffff; stroke-opacity: 0.5; stroke-width: 0.8"/>
     <use xlink:href="#me40877648b" x="75.667579" y="340.416791" style="fill: #1f77b4; fill-opacity: 0.5; stroke: #ffffff; stroke-opacity: 0.5; stroke-width: 0.8"/>
     <use xlink:href="#me40877648b" x="75.667579" y="261.06643" style="fill: #1f77b4; fill-opacity: 0.5; stroke: #ffffff; stroke-opacity: 0.5; stroke-width: 0.8"/>
     <use xlink:href="#me40877648b" x="93.209507" y="149.975925" style="fill: #1f77b4; fill-opacity: 0.5; stroke: #ffffff; stroke-opacity: 0.5; stroke-width: 0.8"/>
    </g>
   </g>
   <g id="matplotlib.axis_1">
    <g id="xtick_1">
     <g id="line2d_1">
      <defs>
       <path id="mf50e7ca69f" d="M 0 0 
L 0 3.5 
" style="stroke: #000000; stroke-width: 0.8"/>
      </defs>
      <g>
       <use xlink:href="#mf50e7ca69f" x="75.062685" y="386.44" style="stroke: #000000; stroke-width: 0.8"/>
      </g>
     </g>
     <g id="text_1">
      <!-- 0 -->
      <g transform="translate(70.29081 404.837656) scale(0.15 -0.15)">
       <defs>
        <path id="DejaVuSans-30" d="M 2034 4250 
Q 1547 4250 1301 3770 
Q 1056 3291 1056 2328 
Q 1056 1369 1301 889 
Q 1547 409 2034 409 
Q 2525 409 2770 889 
Q 3016 1369 3016 2328 
Q 3016 3291 2770 3770 
Q 2525 4250 2034 4250 
z
M 2034 4750 
Q 2819 4750 3233 4129 
Q 3647 3509 3647 2328 
Q 3647 1150 3233 529 
Q 2819 -91 2034 -91 
Q 1250 -91 836 529 
Q 422 1150 422 2328 
Q 422 3509 836 4129 
Q 1250 4750 2034 4750 
z
" transform="scale(0.015625)"/>
       </defs>
       <use xlink:href="#DejaVuSans-30"/>
      </g>
     </g>
    </g>
    <g id="xtick_2">
     <g id="line2d_2">
      <g>
       <use xlink:href="#mf50e7ca69f" x="135.552093" y="386.44" style="stroke: #000000; stroke-width: 0.8"/>
      </g>
     </g>
     <g id="text_2">
      <!-- 100 -->
      <g transform="translate(121.236468 404.837656) scale(0.15 -0.15)">
       <defs>
        <path id="DejaVuSans-31" d="M 794 531 
L 1825 531 
L 1825 4091 
L 703 3866 
L 703 4441 
L 1819 4666 
L 2450 4666 
L 2450 531 
L 3481 531 
L 3481 0 
L 794 0 
L 794 531 
z
" transform="scale(0.015625)"/>
       </defs>
       <use xlink:href="#DejaVuSans-31"/>
       <use xlink:href="#DejaVuSans-30" x="63.623047"/>
       <use xlink:href="#DejaVuSans-30" x="127.246094"/>
      </g>
     </g>
    </g>
    <g id="xtick_3">
     <g id="line2d_3">
      <g>
       <use xlink:href="#mf50e7ca69f" x="196.041501" y="386.44" style="stroke: #000000; stroke-width: 0.8"/>
      </g>
     </g>
     <g id="text_3">
      <!-- 200 -->
      <g transform="translate(181.725876 404.837656) scale(0.15 -0.15)">
       <defs>
        <path id="DejaVuSans-32" d="M 1228 531 
L 3431 531 
L 3431 0 
L 469 0 
L 469 531 
Q 828 903 1448 1529 
Q 2069 2156 2228 2338 
Q 2531 2678 2651 2914 
Q 2772 3150 2772 3378 
Q 2772 3750 2511 3984 
Q 2250 4219 1831 4219 
Q 1534 4219 1204 4116 
Q 875 4013 500 3803 
L 500 4441 
Q 881 4594 1212 4672 
Q 1544 4750 1819 4750 
Q 2544 4750 2975 4387 
Q 3406 4025 3406 3419 
Q 3406 3131 3298 2873 
Q 3191 2616 2906 2266 
Q 2828 2175 2409 1742 
Q 1991 1309 1228 531 
z
" transform="scale(0.015625)"/>
       </defs>
       <use xlink:href="#DejaVuSans-32"/>
       <use xlink:href="#DejaVuSans-30" x="63.623047"/>
       <use xlink:href="#DejaVuSans-30" x="127.246094"/>
      </g>
     </g>
    </g>
    <g id="xtick_4">
     <g id="line2d_4">
      <g>
       <use xlink:href="#mf50e7ca69f" x="256.530909" y="386.44" style="stroke: #000000; stroke-width: 0.8"/>
      </g>
     </g>
     <g id="text_4">
      <!-- 300 -->
      <g transform="translate(242.215284 404.837656) scale(0.15 -0.15)">
       <defs>
        <path id="DejaVuSans-33" d="M 2597 2516 
Q 3050 2419 3304 2112 
Q 3559 1806 3559 1356 
Q 3559 666 3084 287 
Q 2609 -91 1734 -91 
Q 1441 -91 1130 -33 
Q 819 25 488 141 
L 488 750 
Q 750 597 1062 519 
Q 1375 441 1716 441 
Q 2309 441 2620 675 
Q 2931 909 2931 1356 
Q 2931 1769 2642 2001 
Q 2353 2234 1838 2234 
L 1294 2234 
L 1294 2753 
L 1863 2753 
Q 2328 2753 2575 2939 
Q 2822 3125 2822 3475 
Q 2822 3834 2567 4026 
Q 2313 4219 1838 4219 
Q 1578 4219 1281 4162 
Q 984 4106 628 3988 
L 628 4550 
Q 988 4650 1302 4700 
Q 1616 4750 1894 4750 
Q 2613 4750 3031 4423 
Q 3450 4097 3450 3541 
Q 3450 3153 3228 2886 
Q 3006 2619 2597 2516 
z
" transform="scale(0.015625)"/>
       </defs>
       <use xlink:href="#DejaVuSans-33"/>
       <use xlink:href="#DejaVuSans-30" x="63.623047"/>
       <use xlink:href="#DejaVuSans-30" x="127.246094"/>
      </g>
     </g>
    </g>
    <g id="xtick_5">
     <g id="line2d_5">
      <g>
       <use xlink:href="#mf50e7ca69f" x="317.020318" y="386.44" style="stroke: #000000; stroke-width: 0.8"/>
      </g>
     </g>
     <g id="text_5">
      <!-- 400 -->
      <g transform="translate(302.704693 404.837656) scale(0.15 -0.15)">
       <defs>
        <path id="DejaVuSans-34" d="M 2419 4116 
L 825 1625 
L 2419 1625 
L 2419 4116 
z
M 2253 4666 
L 3047 4666 
L 3047 1625 
L 3713 1625 
L 3713 1100 
L 3047 1100 
L 3047 0 
L 2419 0 
L 2419 1100 
L 313 1100 
L 313 1709 
L 2253 4666 
z
" transform="scale(0.015625)"/>
       </defs>
       <use xlink:href="#DejaVuSans-34"/>
       <use xlink:href="#DejaVuSans-30" x="63.623047"/>
       <use xlink:href="#DejaVuSans-30" x="127.246094"/>
      </g>
     </g>
    </g>
    <g id="text_6">
     <!-- # Commits -->
     <g transform="translate(147.454694 430.953281) scale(0.25 -0.25)">
      <defs>
       <path id="DejaVuSans-23" d="M 3272 2816 
L 2363 2816 
L 2100 1772 
L 3016 1772 
L 3272 2816 
z
M 2803 4594 
L 2478 3297 
L 3391 3297 
L 3719 4594 
L 4219 4594 
L 3897 3297 
L 4872 3297 
L 4872 2816 
L 3775 2816 
L 3519 1772 
L 4513 1772 
L 4513 1294 
L 3397 1294 
L 3072 0 
L 2572 0 
L 2894 1294 
L 1978 1294 
L 1656 0 
L 1153 0 
L 1478 1294 
L 494 1294 
L 494 1772 
L 1594 1772 
L 1856 2816 
L 850 2816 
L 850 3297 
L 1978 3297 
L 2297 4594 
L 2803 4594 
z
" transform="scale(0.015625)"/>
       <path id="DejaVuSans-20" transform="scale(0.015625)"/>
       <path id="DejaVuSans-43" d="M 4122 4306 
L 4122 3641 
Q 3803 3938 3442 4084 
Q 3081 4231 2675 4231 
Q 1875 4231 1450 3742 
Q 1025 3253 1025 2328 
Q 1025 1406 1450 917 
Q 1875 428 2675 428 
Q 3081 428 3442 575 
Q 3803 722 4122 1019 
L 4122 359 
Q 3791 134 3420 21 
Q 3050 -91 2638 -91 
Q 1578 -91 968 557 
Q 359 1206 359 2328 
Q 359 3453 968 4101 
Q 1578 4750 2638 4750 
Q 3056 4750 3426 4639 
Q 3797 4528 4122 4306 
z
" transform="scale(0.015625)"/>
       <path id="DejaVuSans-6f" d="M 1959 3097 
Q 1497 3097 1228 2736 
Q 959 2375 959 1747 
Q 959 1119 1226 758 
Q 1494 397 1959 397 
Q 2419 397 2687 759 
Q 2956 1122 2956 1747 
Q 2956 2369 2687 2733 
Q 2419 3097 1959 3097 
z
M 1959 3584 
Q 2709 3584 3137 3096 
Q 3566 2609 3566 1747 
Q 3566 888 3137 398 
Q 2709 -91 1959 -91 
Q 1206 -91 779 398 
Q 353 888 353 1747 
Q 353 2609 779 3096 
Q 1206 3584 1959 3584 
z
" transform="scale(0.015625)"/>
       <path id="DejaVuSans-6d" d="M 3328 2828 
Q 3544 3216 3844 3400 
Q 4144 3584 4550 3584 
Q 5097 3584 5394 3201 
Q 5691 2819 5691 2113 
L 5691 0 
L 5113 0 
L 5113 2094 
Q 5113 2597 4934 2840 
Q 4756 3084 4391 3084 
Q 3944 3084 3684 2787 
Q 3425 2491 3425 1978 
L 3425 0 
L 2847 0 
L 2847 2094 
Q 2847 2600 2669 2842 
Q 2491 3084 2119 3084 
Q 1678 3084 1418 2786 
Q 1159 2488 1159 1978 
L 1159 0 
L 581 0 
L 581 3500 
L 1159 3500 
L 1159 2956 
Q 1356 3278 1631 3431 
Q 1906 3584 2284 3584 
Q 2666 3584 2933 3390 
Q 3200 3197 3328 2828 
z
" transform="scale(0.015625)"/>
       <path id="DejaVuSans-69" d="M 603 3500 
L 1178 3500 
L 1178 0 
L 603 0 
L 603 3500 
z
M 603 4863 
L 1178 4863 
L 1178 4134 
L 603 4134 
L 603 4863 
z
" transform="scale(0.015625)"/>
       <path id="DejaVuSans-74" d="M 1172 4494 
L 1172 3500 
L 2356 3500 
L 2356 3053 
L 1172 3053 
L 1172 1153 
Q 1172 725 1289 603 
Q 1406 481 1766 481 
L 2356 481 
L 2356 0 
L 1766 0 
Q 1100 0 847 248 
Q 594 497 594 1153 
L 594 3053 
L 172 3053 
L 172 3500 
L 594 3500 
L 594 4494 
L 1172 4494 
z
" transform="scale(0.015625)"/>
       <path id="DejaVuSans-73" d="M 2834 3397 
L 2834 2853 
Q 2591 2978 2328 3040 
Q 2066 3103 1784 3103 
Q 1356 3103 1142 2972 
Q 928 2841 928 2578 
Q 928 2378 1081 2264 
Q 1234 2150 1697 2047 
L 1894 2003 
Q 2506 1872 2764 1633 
Q 3022 1394 3022 966 
Q 3022 478 2636 193 
Q 2250 -91 1575 -91 
Q 1294 -91 989 -36 
Q 684 19 347 128 
L 347 722 
Q 666 556 975 473 
Q 1284 391 1588 391 
Q 1994 391 2212 530 
Q 2431 669 2431 922 
Q 2431 1156 2273 1281 
Q 2116 1406 1581 1522 
L 1381 1569 
Q 847 1681 609 1914 
Q 372 2147 372 2553 
Q 372 3047 722 3315 
Q 1072 3584 1716 3584 
Q 2034 3584 2315 3537 
Q 2597 3491 2834 3397 
z
" transform="scale(0.015625)"/>
      </defs>
      <use xlink:href="#DejaVuSans-23"/>
      <use xlink:href="#DejaVuSans-20" x="83.789062"/>
      <use xlink:href="#DejaVuSans-43" x="115.576172"/>
      <use xlink:href="#DejaVuSans-6f" x="185.400391"/>
      <use xlink:href="#DejaVuSans-6d" x="246.582031"/>
      <use xlink:href="#DejaVuSans-6d" x="343.994141"/>
      <use xlink:href="#DejaVuSans-69" x="441.40625"/>
      <use xlink:href="#DejaVuSans-74" x="469.189453"/>
      <use xlink:href="#DejaVuSans-73" x="508.398438"/>
     </g>
    </g>
   </g>
   <g id="matplotlib.axis_2">
    <g id="ytick_1">
     <g id="line2d_6">
      <defs>
       <path id="m1c0f7791a8" d="M 0 0 
L -3.5 0 
" style="stroke: #000000; stroke-width: 0.8"/>
      </defs>
      <g>
       <use xlink:href="#m1c0f7791a8" x="61.482813" y="380.091971" style="stroke: #000000; stroke-width: 0.8"/>
      </g>
     </g>
     <g id="text_7">
      <!-- 0 -->
      <g transform="translate(44.939063 385.790799) scale(0.15 -0.15)">
       <use xlink:href="#DejaVuSans-30"/>
      </g>
     </g>
    </g>
    <g id="ytick_2">
     <g id="line2d_7">
      <g>
       <use xlink:href="#m1c0f7791a8" x="61.482813" y="340.416791" style="stroke: #000000; stroke-width: 0.8"/>
      </g>
     </g>
     <g id="text_8">
      <!-- 5 -->
      <g transform="translate(44.939063 346.115619) scale(0.15 -0.15)">
       <defs>
        <path id="DejaVuSans-35" d="M 691 4666 
L 3169 4666 
L 3169 4134 
L 1269 4134 
L 1269 2991 
Q 1406 3038 1543 3061 
Q 1681 3084 1819 3084 
Q 2600 3084 3056 2656 
Q 3513 2228 3513 1497 
Q 3513 744 3044 326 
Q 2575 -91 1722 -91 
Q 1428 -91 1123 -41 
Q 819 9 494 109 
L 494 744 
Q 775 591 1075 516 
Q 1375 441 1709 441 
Q 2250 441 2565 725 
Q 2881 1009 2881 1497 
Q 2881 1984 2565 2268 
Q 2250 2553 1709 2553 
Q 1456 2553 1204 2497 
Q 953 2441 691 2322 
L 691 4666 
z
" transform="scale(0.015625)"/>
       </defs>
       <use xlink:href="#DejaVuSans-35"/>
      </g>
     </g>
    </g>
    <g id="ytick_3">
     <g id="line2d_8">
      <g>
       <use xlink:href="#m1c0f7791a8" x="61.482813" y="300.74161" style="stroke: #000000; stroke-width: 0.8"/>
      </g>
     </g>
     <g id="text_9">
      <!-- 10 -->
      <g transform="translate(35.395313 306.440439) scale(0.15 -0.15)">
       <use xlink:href="#DejaVuSans-31"/>
       <use xlink:href="#DejaVuSans-30" x="63.623047"/>
      </g>
     </g>
    </g>
    <g id="ytick_4">
     <g id="line2d_9">
      <g>
       <use xlink:href="#m1c0f7791a8" x="61.482813" y="261.06643" style="stroke: #000000; stroke-width: 0.8"/>
      </g>
     </g>
     <g id="text_10">
      <!-- 15 -->
      <g transform="translate(35.395313 266.765258) scale(0.15 -0.15)">
       <use xlink:href="#DejaVuSans-31"/>
       <use xlink:href="#DejaVuSans-35" x="63.623047"/>
      </g>
     </g>
    </g>
    <g id="ytick_5">
     <g id="line2d_10">
      <g>
       <use xlink:href="#m1c0f7791a8" x="61.482813" y="221.39125" style="stroke: #000000; stroke-width: 0.8"/>
      </g>
     </g>
     <g id="text_11">
      <!-- 20 -->
      <g transform="translate(35.395313 227.090078) scale(0.15 -0.15)">
       <use xlink:href="#DejaVuSans-32"/>
       <use xlink:href="#DejaVuSans-30" x="63.623047"/>
      </g>
     </g>
    </g>
    <g id="ytick_6">
     <g id="line2d_11">
      <g>
       <use xlink:href="#m1c0f7791a8" x="61.482813" y="181.716069" style="stroke: #000000; stroke-width: 0.8"/>
      </g>
     </g>
     <g id="text_12">
      <!-- 25 -->
      <g transform="translate(35.395313 187.414897) scale(0.15 -0.15)">
       <use xlink:href="#DejaVuSans-32"/>
       <use xlink:href="#DejaVuSans-35" x="63.623047"/>
      </g>
     </g>
    </g>
    <g id="ytick_7">
     <g id="line2d_12">
      <g>
       <use xlink:href="#m1c0f7791a8" x="61.482813" y="142.040889" style="stroke: #000000; stroke-width: 0.8"/>
      </g>
     </g>
     <g id="text_13">
      <!-- 30 -->
      <g transform="translate(35.395313 147.739717) scale(0.15 -0.15)">
       <use xlink:href="#DejaVuSans-33"/>
       <use xlink:href="#DejaVuSans-30" x="63.623047"/>
      </g>
     </g>
    </g>
    <g id="ytick_8">
     <g id="line2d_13">
      <g>
       <use xlink:href="#m1c0f7791a8" x="61.482813" y="102.365709" style="stroke: #000000; stroke-width: 0.8"/>
      </g>
     </g>
     <g id="text_14">
      <!-- 35 -->
      <g transform="translate(35.395313 108.064537) scale(0.15 -0.15)">
       <use xlink:href="#DejaVuSans-33"/>
       <use xlink:href="#DejaVuSans-35" x="63.623047"/>
      </g>
     </g>
    </g>
    <g id="text_15">
     <!-- # Interacting authors -->
     <g transform="translate(26.196094 363.552848) rotate(-90) scale(0.25 -0.25)">
      <defs>
       <path id="DejaVuSans-49" d="M 628 4666 
L 1259 4666 
L 1259 0 
L 628 0 
L 628 4666 
z
" transform="scale(0.015625)"/>
       <path id="DejaVuSans-6e" d="M 3513 2113 
L 3513 0 
L 2938 0 
L 2938 2094 
Q 2938 2591 2744 2837 
Q 2550 3084 2163 3084 
Q 1697 3084 1428 2787 
Q 1159 2491 1159 1978 
L 1159 0 
L 581 0 
L 581 3500 
L 1159 3500 
L 1159 2956 
Q 1366 3272 1645 3428 
Q 1925 3584 2291 3584 
Q 2894 3584 3203 3211 
Q 3513 2838 3513 2113 
z
" transform="scale(0.015625)"/>
       <path id="DejaVuSans-65" d="M 3597 1894 
L 3597 1613 
L 953 1613 
Q 991 1019 1311 708 
Q 1631 397 2203 397 
Q 2534 397 2845 478 
Q 3156 559 3463 722 
L 3463 178 
Q 3153 47 2828 -22 
Q 2503 -91 2169 -91 
Q 1331 -91 842 396 
Q 353 884 353 1716 
Q 353 2575 817 3079 
Q 1281 3584 2069 3584 
Q 2775 3584 3186 3129 
Q 3597 2675 3597 1894 
z
M 3022 2063 
Q 3016 2534 2758 2815 
Q 2500 3097 2075 3097 
Q 1594 3097 1305 2825 
Q 1016 2553 972 2059 
L 3022 2063 
z
" transform="scale(0.015625)"/>
       <path id="DejaVuSans-72" d="M 2631 2963 
Q 2534 3019 2420 3045 
Q 2306 3072 2169 3072 
Q 1681 3072 1420 2755 
Q 1159 2438 1159 1844 
L 1159 0 
L 581 0 
L 581 3500 
L 1159 3500 
L 1159 2956 
Q 1341 3275 1631 3429 
Q 1922 3584 2338 3584 
Q 2397 3584 2469 3576 
Q 2541 3569 2628 3553 
L 2631 2963 
z
" transform="scale(0.015625)"/>
       <path id="DejaVuSans-61" d="M 2194 1759 
Q 1497 1759 1228 1600 
Q 959 1441 959 1056 
Q 959 750 1161 570 
Q 1363 391 1709 391 
Q 2188 391 2477 730 
Q 2766 1069 2766 1631 
L 2766 1759 
L 2194 1759 
z
M 3341 1997 
L 3341 0 
L 2766 0 
L 2766 531 
Q 2569 213 2275 61 
Q 1981 -91 1556 -91 
Q 1019 -91 701 211 
Q 384 513 384 1019 
Q 384 1609 779 1909 
Q 1175 2209 1959 2209 
L 2766 2209 
L 2766 2266 
Q 2766 2663 2505 2880 
Q 2244 3097 1772 3097 
Q 1472 3097 1187 3025 
Q 903 2953 641 2809 
L 641 3341 
Q 956 3463 1253 3523 
Q 1550 3584 1831 3584 
Q 2591 3584 2966 3190 
Q 3341 2797 3341 1997 
z
" transform="scale(0.015625)"/>
       <path id="DejaVuSans-63" d="M 3122 3366 
L 3122 2828 
Q 2878 2963 2633 3030 
Q 2388 3097 2138 3097 
Q 1578 3097 1268 2742 
Q 959 2388 959 1747 
Q 959 1106 1268 751 
Q 1578 397 2138 397 
Q 2388 397 2633 464 
Q 2878 531 3122 666 
L 3122 134 
Q 2881 22 2623 -34 
Q 2366 -91 2075 -91 
Q 1284 -91 818 406 
Q 353 903 353 1747 
Q 353 2603 823 3093 
Q 1294 3584 2113 3584 
Q 2378 3584 2631 3529 
Q 2884 3475 3122 3366 
z
" transform="scale(0.015625)"/>
       <path id="DejaVuSans-67" d="M 2906 1791 
Q 2906 2416 2648 2759 
Q 2391 3103 1925 3103 
Q 1463 3103 1205 2759 
Q 947 2416 947 1791 
Q 947 1169 1205 825 
Q 1463 481 1925 481 
Q 2391 481 2648 825 
Q 2906 1169 2906 1791 
z
M 3481 434 
Q 3481 -459 3084 -895 
Q 2688 -1331 1869 -1331 
Q 1566 -1331 1297 -1286 
Q 1028 -1241 775 -1147 
L 775 -588 
Q 1028 -725 1275 -790 
Q 1522 -856 1778 -856 
Q 2344 -856 2625 -561 
Q 2906 -266 2906 331 
L 2906 616 
Q 2728 306 2450 153 
Q 2172 0 1784 0 
Q 1141 0 747 490 
Q 353 981 353 1791 
Q 353 2603 747 3093 
Q 1141 3584 1784 3584 
Q 2172 3584 2450 3431 
Q 2728 3278 2906 2969 
L 2906 3500 
L 3481 3500 
L 3481 434 
z
" transform="scale(0.015625)"/>
       <path id="DejaVuSans-75" d="M 544 1381 
L 544 3500 
L 1119 3500 
L 1119 1403 
Q 1119 906 1312 657 
Q 1506 409 1894 409 
Q 2359 409 2629 706 
Q 2900 1003 2900 1516 
L 2900 3500 
L 3475 3500 
L 3475 0 
L 2900 0 
L 2900 538 
Q 2691 219 2414 64 
Q 2138 -91 1772 -91 
Q 1169 -91 856 284 
Q 544 659 544 1381 
z
M 1991 3584 
L 1991 3584 
z
" transform="scale(0.015625)"/>
       <path id="DejaVuSans-68" d="M 3513 2113 
L 3513 0 
L 2938 0 
L 2938 2094 
Q 2938 2591 2744 2837 
Q 2550 3084 2163 3084 
Q 1697 3084 1428 2787 
Q 1159 2491 1159 1978 
L 1159 0 
L 581 0 
L 581 4863 
L 1159 4863 
L 1159 2956 
Q 1366 3272 1645 3428 
Q 1925 3584 2291 3584 
Q 2894 3584 3203 3211 
Q 3513 2838 3513 2113 
z
" transform="scale(0.015625)"/>
      </defs>
      <use xlink:href="#DejaVuSans-23"/>
      <use xlink:href="#DejaVuSans-20" x="83.789062"/>
      <use xlink:href="#DejaVuSans-49" x="115.576172"/>
      <use xlink:href="#DejaVuSans-6e" x="145.068359"/>
      <use xlink:href="#DejaVuSans-74" x="208.447266"/>
      <use xlink:href="#DejaVuSans-65" x="247.65625"/>
      <use xlink:href="#DejaVuSans-72" x="309.179688"/>
      <use xlink:href="#DejaVuSans-61" x="350.292969"/>
      <use xlink:href="#DejaVuSans-63" x="411.572266"/>
      <use xlink:href="#DejaVuSans-74" x="466.552734"/>
      <use xlink:href="#DejaVuSans-69" x="505.761719"/>
      <use xlink:href="#DejaVuSans-6e" x="533.544922"/>
      <use xlink:href="#DejaVuSans-67" x="596.923828"/>
      <use xlink:href="#DejaVuSans-20" x="660.400391"/>
      <use xlink:href="#DejaVuSans-61" x="692.1875"/>
      <use xlink:href="#DejaVuSans-75" x="753.466797"/>
      <use xlink:href="#DejaVuSans-74" x="816.845703"/>
      <use xlink:href="#DejaVuSans-68" x="856.054688"/>
      <use xlink:href="#DejaVuSans-6f" x="919.433594"/>
      <use xlink:href="#DejaVuSans-72" x="980.615234"/>
      <use xlink:href="#DejaVuSans-73" x="1021.728516"/>
     </g>
    </g>
   </g>
   <g id="patch_3">
    <path d="M 61.482813 386.44 
L 61.482813 72.212571 
" style="fill: none; stroke: #000000; stroke-width: 0.8; stroke-linejoin: miter; stroke-linecap: square"/>
   </g>
   <g id="patch_4">
    <path d="M 61.482813 386.44 
L 373.54767 386.44 
" style="fill: none; stroke: #000000; stroke-width: 0.8; stroke-linejoin: miter; stroke-linecap: square"/>
   </g>
  </g>
  <g id="axes_2">
   <g id="patch_5">
    <path d="M 61.482813 61.377143 
L 373.54767 61.377143 
L 373.54767 7.2 
L 61.482813 7.2 
z
" style="fill: #ffffff"/>
   </g>
   <g id="PolyCollection_1">
    <path d="M -20.438201 60.942913 
L -20.438201 61.377143 
L -18.046709 61.377143 
L -15.655217 61.377143 
L -13.263725 61.377143 
L -10.872233 61.377143 
L -8.480742 61.377143 
L -6.08925 61.377143 
L -3.697758 61.377143 
L -1.306266 61.377143 
L 1.085226 61.377143 
L 3.476718 61.377143 
L 5.86821 61.377143 
L 8.259702 61.377143 
L 10.651194 61.377143 
L 13.042685 61.377143 
L 15.434177 61.377143 
L 17.825669 61.377143 
L 20.217161 61.377143 
L 22.608653 61.377143 
L 25.000145 61.377143 
L 27.391637 61.377143 
L 29.783129 61.377143 
L 32.17462 61.377143 
L 34.566112 61.377143 
L 36.957604 61.377143 
L 39.349096 61.377143 
L 41.740588 61.377143 
L 44.13208 61.377143 
L 46.523572 61.377143 
L 48.915064 61.377143 
L 51.306555 61.377143 
L 53.698047 61.377143 
L 56.089539 61.377143 
L 58.481031 61.377143 
L 60.872523 61.377143 
L 63.264015 61.377143 
L 65.655507 61.377143 
L 68.046999 61.377143 
L 70.43849 61.377143 
L 72.829982 61.377143 
L 75.221474 61.377143 
L 77.612966 61.377143 
L 80.004458 61.377143 
L 82.39595 61.377143 
L 84.787442 61.377143 
L 87.178934 61.377143 
L 89.570426 61.377143 
L 91.961917 61.377143 
L 94.353409 61.377143 
L 96.744901 61.377143 
L 99.136393 61.377143 
L 101.527885 61.377143 
L 103.919377 61.377143 
L 106.310869 61.377143 
L 108.702361 61.377143 
L 111.093852 61.377143 
L 113.485344 61.377143 
L 115.876836 61.377143 
L 118.268328 61.377143 
L 120.65982 61.377143 
L 123.051312 61.377143 
L 125.442804 61.377143 
L 127.834296 61.377143 
L 130.225787 61.377143 
L 132.617279 61.377143 
L 135.008771 61.377143 
L 137.400263 61.377143 
L 139.791755 61.377143 
L 142.183247 61.377143 
L 144.574739 61.377143 
L 146.966231 61.377143 
L 149.357723 61.377143 
L 151.749214 61.377143 
L 154.140706 61.377143 
L 156.532198 61.377143 
L 158.92369 61.377143 
L 161.315182 61.377143 
L 163.706674 61.377143 
L 166.098166 61.377143 
L 168.489658 61.377143 
L 170.881149 61.377143 
L 173.272641 61.377143 
L 175.664133 61.377143 
L 178.055625 61.377143 
L 180.447117 61.377143 
L 182.838609 61.377143 
L 185.230101 61.377143 
L 187.621593 61.377143 
L 190.013084 61.377143 
L 192.404576 61.377143 
L 194.796068 61.377143 
L 197.18756 61.377143 
L 199.579052 61.377143 
L 201.970544 61.377143 
L 204.362036 61.377143 
L 206.753528 61.377143 
L 209.145019 61.377143 
L 211.536511 61.377143 
L 213.928003 61.377143 
L 216.319495 61.377143 
L 218.710987 61.377143 
L 221.102479 61.377143 
L 223.493971 61.377143 
L 225.885463 61.377143 
L 228.276955 61.377143 
L 230.668446 61.377143 
L 233.059938 61.377143 
L 235.45143 61.377143 
L 237.842922 61.377143 
L 240.234414 61.377143 
L 242.625906 61.377143 
L 245.017398 61.377143 
L 247.40889 61.377143 
L 249.800381 61.377143 
L 252.191873 61.377143 
L 254.583365 61.377143 
L 256.974857 61.377143 
L 259.366349 61.377143 
L 261.757841 61.377143 
L 264.149333 61.377143 
L 266.540825 61.377143 
L 268.932316 61.377143 
L 271.323808 61.377143 
L 273.7153 61.377143 
L 276.106792 61.377143 
L 278.498284 61.377143 
L 280.889776 61.377143 
L 283.281268 61.377143 
L 285.67276 61.377143 
L 288.064252 61.377143 
L 290.455743 61.377143 
L 292.847235 61.377143 
L 295.238727 61.377143 
L 297.630219 61.377143 
L 300.021711 61.377143 
L 302.413203 61.377143 
L 304.804695 61.377143 
L 307.196187 61.377143 
L 309.587678 61.377143 
L 311.97917 61.377143 
L 314.370662 61.377143 
L 316.762154 61.377143 
L 319.153646 61.377143 
L 321.545138 61.377143 
L 323.93663 61.377143 
L 326.328122 61.377143 
L 328.719613 61.377143 
L 331.111105 61.377143 
L 333.502597 61.377143 
L 335.894089 61.377143 
L 338.285581 61.377143 
L 340.677073 61.377143 
L 343.068565 61.377143 
L 345.460057 61.377143 
L 347.851548 61.377143 
L 350.24304 61.377143 
L 352.634532 61.377143 
L 355.026024 61.377143 
L 357.417516 61.377143 
L 359.809008 61.377143 
L 362.2005 61.377143 
L 364.591992 61.377143 
L 366.983484 61.377143 
L 369.374975 61.377143 
L 371.766467 61.377143 
L 374.157959 61.377143 
L 376.549451 61.377143 
L 378.940943 61.377143 
L 381.332435 61.377143 
L 383.723927 61.377143 
L 386.115419 61.377143 
L 388.50691 61.377143 
L 390.898402 61.377143 
L 393.289894 61.377143 
L 395.681386 61.377143 
L 398.072878 61.377143 
L 400.46437 61.377143 
L 402.855862 61.377143 
L 405.247354 61.377143 
L 407.638845 61.377143 
L 410.030337 61.377143 
L 412.421829 61.377143 
L 414.813321 61.377143 
L 417.204813 61.377143 
L 419.596305 61.377143 
L 421.987797 61.377143 
L 424.379289 61.377143 
L 426.770781 61.377143 
L 429.162272 61.377143 
L 431.553764 61.377143 
L 433.945256 61.377143 
L 436.336748 61.377143 
L 438.72824 61.377143 
L 441.119732 61.377143 
L 443.511224 61.377143 
L 445.902716 61.377143 
L 448.294207 61.377143 
L 450.685699 61.377143 
L 453.077191 61.377143 
L 455.468683 61.377143 
L 455.468683 61.348296 
L 455.468683 61.348296 
L 453.077191 61.341156 
L 450.685699 61.332497 
L 448.294207 61.322063 
L 445.902716 61.309568 
L 443.511224 61.294699 
L 441.119732 61.277118 
L 438.72824 61.256462 
L 436.336748 61.232349 
L 433.945256 61.204384 
L 431.553764 61.172164 
L 429.162272 61.135286 
L 426.770781 61.093359 
L 424.379289 61.046014 
L 421.987797 60.992917 
L 419.596305 60.933784 
L 417.204813 60.868394 
L 414.813321 60.796604 
L 412.421829 60.718365 
L 410.030337 60.633736 
L 407.638845 60.542897 
L 405.247354 60.446162 
L 402.855862 60.343983 
L 400.46437 60.236962 
L 398.072878 60.125847 
L 395.681386 60.011536 
L 393.289894 59.895064 
L 390.898402 59.777598 
L 388.50691 59.660415 
L 386.115419 59.544887 
L 383.723927 59.432452 
L 381.332435 59.324588 
L 378.940943 59.222781 
L 376.549451 59.128491 
L 374.157959 59.043118 
L 371.766467 58.967967 
L 369.374975 58.904216 
L 366.983484 58.852885 
L 364.591992 58.814808 
L 362.2005 58.790611 
L 359.809008 58.780696 
L 357.417516 58.785228 
L 355.026024 58.804131 
L 352.634532 58.837091 
L 350.24304 58.883564 
L 347.851548 58.942792 
L 345.460057 59.013819 
L 343.068565 59.095525 
L 340.677073 59.186648 
L 338.285581 59.285819 
L 335.894089 59.391596 
L 333.502597 59.502499 
L 331.111105 59.617044 
L 328.719613 59.733774 
L 326.328122 59.851289 
L 323.93663 59.968275 
L 321.545138 60.08352 
L 319.153646 60.195939 
L 316.762154 60.304581 
L 314.370662 60.408643 
L 311.97917 60.507467 
L 309.587678 60.600546 
L 307.196187 60.687513 
L 304.804695 60.768141 
L 302.413203 60.842326 
L 300.021711 60.910075 
L 297.630219 60.971498 
L 295.238727 61.026785 
L 292.847235 61.076196 
L 290.455743 61.120044 
L 288.064252 61.158681 
L 285.67276 61.192484 
L 283.281268 61.221844 
L 280.889776 61.247151 
L 278.498284 61.268792 
L 276.106792 61.287133 
L 273.7153 61.302521 
L 271.323808 61.315273 
L 268.932316 61.325674 
L 266.540825 61.333971 
L 264.149333 61.340375 
L 261.757841 61.345054 
L 259.366349 61.348135 
L 256.974857 61.349701 
L 254.583365 61.34979 
L 252.191873 61.348395 
L 249.800381 61.345461 
L 247.40889 61.340888 
L 245.017398 61.334524 
L 242.625906 61.326169 
L 240.234414 61.315573 
L 237.842922 61.302432 
L 235.45143 61.28639 
L 233.059938 61.267036 
L 230.668446 61.243907 
L 228.276955 61.216485 
L 225.885463 61.184199 
L 223.493971 61.146426 
L 221.102479 61.102493 
L 218.710987 61.051677 
L 216.319495 60.993213 
L 213.928003 60.926289 
L 211.536511 60.850053 
L 209.145019 60.763616 
L 206.753528 60.666051 
L 204.362036 60.556393 
L 201.970544 60.433637 
L 199.579052 60.296738 
L 197.18756 60.144597 
L 194.796068 59.976057 
L 192.404576 59.789887 
L 190.013084 59.584765 
L 187.621593 59.359257 
L 185.230101 59.111792 
L 182.838609 58.840634 
L 180.447117 58.543855 
L 178.055625 58.219298 
L 175.664133 57.864554 
L 173.272641 57.476926 
L 170.881149 57.053409 
L 168.489658 56.590672 
L 166.098166 56.08505 
L 163.706674 55.532546 
L 161.315182 54.928852 
L 158.92369 54.269388 
L 156.532198 53.549356 
L 154.140706 52.763819 
L 151.749214 51.907808 
L 149.357723 50.976446 
L 146.966231 49.9651 
L 144.574739 48.869554 
L 142.183247 47.686206 
L 139.791755 46.412273 
L 137.400263 45.046014 
L 135.008771 43.586958 
L 132.617279 42.036121 
L 130.225787 40.396221 
L 127.834296 38.671868 
L 125.442804 36.869724 
L 123.051312 34.998624 
L 120.65982 33.069652 
L 118.268328 31.096149 
L 115.876836 29.093674 
L 113.485344 27.079882 
L 111.093852 25.074336 
L 108.702361 23.09825 
L 106.310869 21.174156 
L 103.919377 19.325508 
L 101.527885 17.576239 
L 99.136393 15.95026 
L 96.744901 14.470933 
L 94.353409 13.160534 
L 91.961917 12.039706 
L 89.570426 11.126942 
L 87.178934 10.438095 
L 84.787442 9.985951 
L 82.39595 9.779864 
L 80.004458 9.825485 
L 77.612966 10.124574 
L 75.221474 10.674922 
L 72.829982 11.470377 
L 70.43849 12.500972 
L 68.046999 13.75316 
L 65.655507 15.210134 
L 63.264015 16.852242 
L 60.872523 18.657451 
L 58.481031 20.601881 
L 56.089539 22.66036 
L 53.698047 24.806992 
L 51.306555 27.015736 
L 48.915064 29.26094 
L 46.523572 31.517859 
L 44.13208 33.763106 
L 41.740588 35.975045 
L 39.349096 38.134116 
L 36.957604 40.223078 
L 34.566112 42.227177 
L 32.17462 44.134236 
L 29.783129 45.934669 
L 27.391637 47.621431 
L 25.000145 49.189909 
L 22.608653 50.637757 
L 20.217161 51.964695 
L 17.825669 53.172281 
L 15.434177 54.263657 
L 13.042685 55.24329 
L 10.651194 56.116715 
L 8.259702 56.890276 
L 5.86821 57.570893 
L 3.476718 58.165843 
L 1.085226 58.682557 
L -1.306266 59.128458 
L -3.697758 59.510813 
L -6.08925 59.836614 
L -8.480742 60.11249 
L -10.872233 60.344641 
L -13.263725 60.53879 
L -15.655217 60.70016 
L -18.046709 60.833464 
L -20.438201 60.942913 
z
" clip-path="url(#p193be0e2e9)" style="fill: #1f77b4; fill-opacity: 0.25; stroke: #1f77b4"/>
   </g>
   <g id="matplotlib.axis_3">
    <g id="xtick_6">
     <g id="line2d_14">
      <g>
       <use xlink:href="#mf50e7ca69f" x="75.062685" y="61.377143" style="stroke: #000000; stroke-width: 0.8"/>
      </g>
     </g>
    </g>
    <g id="xtick_7">
     <g id="line2d_15">
      <g>
       <use xlink:href="#mf50e7ca69f" x="135.552093" y="61.377143" style="stroke: #000000; stroke-width: 0.8"/>
      </g>
     </g>
    </g>
    <g id="xtick_8">
     <g id="line2d_16">
      <g>
       <use xlink:href="#mf50e7ca69f" x="196.041501" y="61.377143" style="stroke: #000000; stroke-width: 0.8"/>
      </g>
     </g>
    </g>
    <g id="xtick_9">
     <g id="line2d_17">
      <g>
       <use xlink:href="#mf50e7ca69f" x="256.530909" y="61.377143" style="stroke: #000000; stroke-width: 0.8"/>
      </g>
     </g>
    </g>
    <g id="xtick_10">
     <g id="line2d_18">
      <g>
       <use xlink:href="#mf50e7ca69f" x="317.020318" y="61.377143" style="stroke: #000000; stroke-width: 0.8"/>
      </g>
     </g>
    </g>
   </g>
   <g id="matplotlib.axis_4">
    <g id="ytick_9"/>
    <g id="ytick_10"/>
   </g>
   <g id="patch_6">
    <path d="M 61.482813 61.377143 
L 373.54767 61.377143 
" style="fill: none; stroke: #000000; stroke-width: 0.8; stroke-linejoin: miter; stroke-linecap: square"/>
   </g>
  </g>
  <g id="axes_3">
   <g id="patch_7">
    <path d="M 384.308527 386.44 
L 438.112812 386.44 
L 438.112812 72.212571 
L 384.308527 72.212571 
z
" style="fill: #ffffff"/>
   </g>
   <g id="PolyCollection_2">
    <path d="M 384.404754 523.044677 
L 384.308527 523.044677 
L 384.308527 520.092733 
L 384.308527 517.14079 
L 384.308527 514.188846 
L 384.308527 511.236902 
L 384.308527 508.284959 
L 384.308527 505.333015 
L 384.308527 502.381072 
L 384.308527 499.429128 
L 384.308527 496.477184 
L 384.308527 493.525241 
L 384.308527 490.573297 
L 384.308527 487.621353 
L 384.308527 484.66941 
L 384.308527 481.717466 
L 384.308527 478.765523 
L 384.308527 475.813579 
L 384.308527 472.861635 
L 384.308527 469.909692 
L 384.308527 466.957748 
L 384.308527 464.005804 
L 384.308527 461.053861 
L 384.308527 458.101917 
L 384.308527 455.149974 
L 384.308527 452.19803 
L 384.308527 449.246086 
L 384.308527 446.294143 
L 384.308527 443.342199 
L 384.308527 440.390255 
L 384.308527 437.438312 
L 384.308527 434.486368 
L 384.308527 431.534424 
L 384.308527 428.582481 
L 384.308527 425.630537 
L 384.308527 422.678594 
L 384.308527 419.72665 
L 384.308527 416.774706 
L 384.308527 413.822763 
L 384.308527 410.870819 
L 384.308527 407.918875 
L 384.308527 404.966932 
L 384.308527 402.014988 
L 384.308527 399.063045 
L 384.308527 396.111101 
L 384.308527 393.159157 
L 384.308527 390.207214 
L 384.308527 387.25527 
L 384.308527 384.303326 
L 384.308527 381.351383 
L 384.308527 378.399439 
L 384.308527 375.447495 
L 384.308527 372.495552 
L 384.308527 369.543608 
L 384.308527 366.591665 
L 384.308527 363.639721 
L 384.308527 360.687777 
L 384.308527 357.735834 
L 384.308527 354.78389 
L 384.308527 351.831946 
L 384.308527 348.880003 
L 384.308527 345.928059 
L 384.308527 342.976116 
L 384.308527 340.024172 
L 384.308527 337.072228 
L 384.308527 334.120285 
L 384.308527 331.168341 
L 384.308527 328.216397 
L 384.308527 325.264454 
L 384.308527 322.31251 
L 384.308527 319.360566 
L 384.308527 316.408623 
L 384.308527 313.456679 
L 384.308527 310.504736 
L 384.308527 307.552792 
L 384.308527 304.600848 
L 384.308527 301.648905 
L 384.308527 298.696961 
L 384.308527 295.745017 
L 384.308527 292.793074 
L 384.308527 289.84113 
L 384.308527 286.889187 
L 384.308527 283.937243 
L 384.308527 280.985299 
L 384.308527 278.033356 
L 384.308527 275.081412 
L 384.308527 272.129468 
L 384.308527 269.177525 
L 384.308527 266.225581 
L 384.308527 263.273637 
L 384.308527 260.321694 
L 384.308527 257.36975 
L 384.308527 254.417807 
L 384.308527 251.465863 
L 384.308527 248.513919 
L 384.308527 245.561976 
L 384.308527 242.610032 
L 384.308527 239.658088 
L 384.308527 236.706145 
L 384.308527 233.754201 
L 384.308527 230.802258 
L 384.308527 227.850314 
L 384.308527 224.89837 
L 384.308527 221.946427 
L 384.308527 218.994483 
L 384.308527 216.042539 
L 384.308527 213.090596 
L 384.308527 210.138652 
L 384.308527 207.186708 
L 384.308527 204.234765 
L 384.308527 201.282821 
L 384.308527 198.330878 
L 384.308527 195.378934 
L 384.308527 192.42699 
L 384.308527 189.475047 
L 384.308527 186.523103 
L 384.308527 183.571159 
L 384.308527 180.619216 
L 384.308527 177.667272 
L 384.308527 174.715329 
L 384.308527 171.763385 
L 384.308527 168.811441 
L 384.308527 165.859498 
L 384.308527 162.907554 
L 384.308527 159.95561 
L 384.308527 157.003667 
L 384.308527 154.051723 
L 384.308527 151.099779 
L 384.308527 148.147836 
L 384.308527 145.195892 
L 384.308527 142.243949 
L 384.308527 139.292005 
L 384.308527 136.340061 
L 384.308527 133.388118 
L 384.308527 130.436174 
L 384.308527 127.48423 
L 384.308527 124.532287 
L 384.308527 121.580343 
L 384.308527 118.6284 
L 384.308527 115.676456 
L 384.308527 112.724512 
L 384.308527 109.772569 
L 384.308527 106.820625 
L 384.308527 103.868681 
L 384.308527 100.916738 
L 384.308527 97.964794 
L 384.308527 95.01285 
L 384.308527 92.060907 
L 384.308527 89.108963 
L 384.308527 86.15702 
L 384.308527 83.205076 
L 384.308527 80.253132 
L 384.308527 77.301189 
L 384.308527 74.349245 
L 384.308527 71.397301 
L 384.308527 68.445358 
L 384.308527 65.493414 
L 384.308527 62.541471 
L 384.308527 59.589527 
L 384.308527 56.637583 
L 384.308527 53.68564 
L 384.308527 50.733696 
L 384.308527 47.781752 
L 384.308527 44.829809 
L 384.308527 41.877865 
L 384.308527 38.925922 
L 384.308527 35.973978 
L 384.308527 33.022034 
L 384.308527 30.070091 
L 384.308527 27.118147 
L 384.308527 24.166203 
L 384.308527 21.21426 
L 384.308527 18.262316 
L 384.308527 15.310372 
L 384.308527 12.358429 
L 384.308527 9.406485 
L 384.308527 6.454542 
L 384.308527 3.502598 
L 384.308527 0.550654 
L 384.308527 -2.401289 
L 384.308527 -5.353233 
L 384.308527 -8.305177 
L 384.308527 -11.25712 
L 384.308527 -14.209064 
L 384.308527 -17.161007 
L 384.308527 -20.112951 
L 384.308527 -23.064895 
L 384.308527 -26.016838 
L 384.308527 -28.968782 
L 384.308527 -31.920726 
L 384.308527 -34.872669 
L 384.308527 -37.824613 
L 384.308527 -40.776557 
L 384.308527 -43.7285 
L 384.308527 -46.680444 
L 384.308527 -49.632387 
L 384.308527 -52.584331 
L 384.308527 -55.536275 
L 384.308527 -58.488218 
L 384.308527 -61.440162 
L 384.308527 -64.392106 
L 384.435003 -64.392106 
L 384.435003 -64.392106 
L 384.46103 -61.440162 
L 384.49182 -58.488218 
L 384.528116 -55.536275 
L 384.570751 -52.584331 
L 384.620657 -49.632387 
L 384.678869 -46.680444 
L 384.746529 -43.7285 
L 384.824893 -40.776557 
L 384.915336 -37.824613 
L 385.019348 -34.872669 
L 385.138543 -31.920726 
L 385.274653 -28.968782 
L 385.429527 -26.016838 
L 385.605124 -23.064895 
L 385.803511 -20.112951 
L 386.026845 -17.161007 
L 386.277367 -14.209064 
L 386.557381 -11.25712 
L 386.869241 -8.305177 
L 387.215321 -5.353233 
L 387.597998 -2.401289 
L 388.01962 0.550654 
L 388.482475 3.502598 
L 388.988761 6.454542 
L 389.540551 9.406485 
L 390.139754 12.358429 
L 390.78808 15.310372 
L 391.487002 18.262316 
L 392.237718 21.21426 
L 393.041119 24.166203 
L 393.897746 27.118147 
L 394.807766 30.070091 
L 395.77094 33.022034 
L 396.786601 35.973978 
L 397.853628 38.925922 
L 398.970441 41.877865 
L 400.134984 44.829809 
L 401.344728 47.781752 
L 402.596675 50.733696 
L 403.887369 53.68564 
L 405.212913 56.637583 
L 406.568995 59.589527 
L 407.950924 62.541471 
L 409.353658 65.493414 
L 410.771855 68.445358 
L 412.199919 71.397301 
L 413.632048 74.349245 
L 415.06229 77.301189 
L 416.484601 80.253132 
L 417.892898 83.205076 
L 419.281118 86.15702 
L 420.643273 89.108963 
L 421.973503 92.060907 
L 423.266125 95.01285 
L 424.515682 97.964794 
L 425.716983 100.916738 
L 426.865138 103.868681 
L 427.955595 106.820625 
L 428.984164 109.772569 
L 429.947036 112.724512 
L 430.840803 115.676456 
L 431.662467 118.6284 
L 432.409445 121.580343 
L 433.079577 124.532287 
L 433.67112 127.48423 
L 434.182748 130.436174 
L 434.613543 133.388118 
L 434.962993 136.340061 
L 435.230978 139.292005 
L 435.417768 142.243949 
L 435.524005 145.195892 
L 435.550704 148.147836 
L 435.499236 151.099779 
L 435.371326 154.051723 
L 435.16904 157.003667 
L 434.89478 159.95561 
L 434.551272 162.907554 
L 434.14156 165.859498 
L 433.668991 168.811441 
L 433.137208 171.763385 
L 432.550131 174.715329 
L 431.911943 177.667272 
L 431.227068 180.619216 
L 430.50015 183.571159 
L 429.736027 186.523103 
L 428.939697 189.475047 
L 428.116292 192.42699 
L 427.271037 195.378934 
L 426.409214 198.330878 
L 425.536118 201.282821 
L 424.657015 204.234765 
L 423.777102 207.186708 
L 422.901456 210.138652 
L 422.034995 213.090596 
L 421.182434 216.042539 
L 420.348241 218.994483 
L 419.536606 221.946427 
L 418.751399 224.89837 
L 417.996144 227.850314 
L 417.27399 230.802258 
L 416.587693 233.754201 
L 415.939596 236.706145 
L 415.33162 239.658088 
L 414.765259 242.610032 
L 414.241579 245.561976 
L 413.761218 248.513919 
L 413.3244 251.465863 
L 412.930944 254.417807 
L 412.580277 257.36975 
L 412.271459 260.321694 
L 412.003196 263.273637 
L 411.773868 266.225581 
L 411.581549 269.177525 
L 411.424034 272.129468 
L 411.298859 275.081412 
L 411.203331 278.033356 
L 411.13455 280.985299 
L 411.089431 283.937243 
L 411.064732 286.889187 
L 411.057077 289.84113 
L 411.062976 292.793074 
L 411.078852 295.745017 
L 411.101064 298.696961 
L 411.125929 301.648905 
L 411.149752 304.600848 
L 411.168844 307.552792 
L 411.179556 310.504736 
L 411.178301 313.456679 
L 411.161585 316.408623 
L 411.126037 319.360566 
L 411.068434 322.31251 
L 410.985741 325.264454 
L 410.875131 328.216397 
L 410.734022 331.168341 
L 410.560106 334.120285 
L 410.351372 337.072228 
L 410.106137 340.024172 
L 409.823068 342.976116 
L 409.501198 345.928059 
L 409.139949 348.880003 
L 408.739136 351.831946 
L 408.29898 354.78389 
L 407.820103 357.735834 
L 407.303531 360.687777 
L 406.750678 363.639721 
L 406.163336 366.591665 
L 405.543649 369.543608 
L 404.894091 372.495552 
L 404.217433 375.447495 
L 403.516706 378.399439 
L 402.795166 381.351383 
L 402.056249 384.303326 
L 401.303526 387.25527 
L 400.54066 390.207214 
L 399.771356 393.159157 
L 398.999318 396.111101 
L 398.228203 399.063045 
L 397.461575 402.014988 
L 396.70287 404.966932 
L 395.955353 407.918875 
L 395.222091 410.870819 
L 394.505919 413.822763 
L 393.809416 416.774706 
L 393.134892 419.72665 
L 392.484366 422.678594 
L 391.859561 425.630537 
L 391.2619 428.582481 
L 390.692507 431.534424 
L 390.152209 434.486368 
L 389.641549 437.438312 
L 389.160797 440.390255 
L 388.709967 443.342199 
L 388.288834 446.294143 
L 387.896955 449.246086 
L 387.533695 452.19803 
L 387.198244 455.149974 
L 386.889647 458.101917 
L 386.606823 461.053861 
L 386.348593 464.005804 
L 386.113698 466.957748 
L 385.900824 469.909692 
L 385.708623 472.861635 
L 385.535726 475.813579 
L 385.380768 478.765523 
L 385.242398 481.717466 
L 385.119291 484.66941 
L 385.010163 487.621353 
L 384.913779 490.573297 
L 384.82896 493.525241 
L 384.754588 496.477184 
L 384.689613 499.429128 
L 384.633051 502.381072 
L 384.58399 505.333015 
L 384.541589 508.284959 
L 384.505075 511.236902 
L 384.473743 514.188846 
L 384.446953 517.14079 
L 384.424129 520.092733 
L 384.404754 523.044677 
z
" clip-path="url(#p290d542f6e)" style="fill: #1f77b4; fill-opacity: 0.25; stroke: #1f77b4"/>
   </g>
   <g id="matplotlib.axis_5">
    <g id="xtick_11"/>
    <g id="xtick_12"/>
   </g>
   <g id="matplotlib.axis_6">
    <g id="ytick_11">
     <g id="line2d_19">
      <g>
       <use xlink:href="#m1c0f7791a8" x="384.308527" y="380.091971" style="stroke: #000000; stroke-width: 0.8"/>
      </g>
     </g>
    </g>
    <g id="ytick_12">
     <g id="line2d_20">
      <g>
       <use xlink:href="#m1c0f7791a8" x="384.308527" y="340.416791" style="stroke: #000000; stroke-width: 0.8"/>
      </g>
     </g>
    </g>
    <g id="ytick_13">
     <g id="line2d_21">
      <g>
       <use xlink:href="#m1c0f7791a8" x="384.308527" y="300.74161" style="stroke: #000000; stroke-width: 0.8"/>
      </g>
     </g>
    </g>
    <g id="ytick_14">
     <g id="line2d_22">
      <g>
       <use xlink:href="#m1c0f7791a8" x="384.308527" y="261.06643" style="stroke: #000000; stroke-width: 0.8"/>
      </g>
     </g>
    </g>
    <g id="ytick_15">
     <g id="line2d_23">
      <g>
       <use xlink:href="#m1c0f7791a8" x="384.308527" y="221.39125" style="stroke: #000000; stroke-width: 0.8"/>
      </g>
     </g>
    </g>
    <g id="ytick_16">
     <g id="line2d_24">
      <g>
       <use xlink:href="#m1c0f7791a8" x="384.308527" y="181.716069" style="stroke: #000000; stroke-width: 0.8"/>
      </g>
     </g>
    </g>
    <g id="ytick_17">
     <g id="line2d_25">
      <g>
       <use xlink:href="#m1c0f7791a8" x="384.308527" y="142.040889" style="stroke: #000000; stroke-width: 0.8"/>
      </g>
     </g>
    </g>
    <g id="ytick_18">
     <g id="line2d_26">
      <g>
       <use xlink:href="#m1c0f7791a8" x="384.308527" y="102.365709" style="stroke: #000000; stroke-width: 0.8"/>
      </g>
     </g>
    </g>
   </g>
   <g id="patch_8">
    <path d="M 384.308527 386.44 
L 384.308527 72.212571 
" style="fill: none; stroke: #000000; stroke-width: 0.8; stroke-linejoin: miter; stroke-linecap: square"/>
   </g>
  </g>
 </g>
 <defs>
  <clipPath id="p3b88d4dcb7">
   <rect x="61.482813" y="72.212571" width="312.064857" height="314.227429"/>
  </clipPath>
  <clipPath id="p193be0e2e9">
   <rect x="61.482813" y="7.2" width="312.064857" height="54.177143"/>
  </clipPath>
  <clipPath id="p290d542f6e">
   <rect x="384.308527" y="72.212571" width="53.804286" height="314.227429"/>
  </clipPath>
 </defs>
</svg>
