<?xml version="1.0" encoding="utf-8" standalone="no"?>
<!DOCTYPE svg PUBLIC "-//W3C//DTD SVG 1.1//EN"
  "http://www.w3.org/Graphics/SVG/1.1/DTD/svg11.dtd">
<svg xmlns:xlink="http://www.w3.org/1999/xlink" width="414.641875pt" height="150.520479pt" viewBox="0 0 414.641875 150.520479" xmlns="http://www.w3.org/2000/svg" version="1.1">
 <metadata>
  <rdf:RDF xmlns:dc="http://purl.org/dc/elements/1.1/" xmlns:cc="http://creativecommons.org/ns#" xmlns:rdf="http://www.w3.org/1999/02/22-rdf-syntax-ns#">
   <cc:Work>
    <dc:type rdf:resource="http://purl.org/dc/dcmitype/StillImage"/>
    <dc:date>2022-12-10T10:48:20.393764</dc:date>
    <dc:format>image/svg+xml</dc:format>
    <dc:creator>
     <cc:Agent>
      <dc:title>Matplotlib v3.6.2, https://matplotlib.org/</dc:title>
     </cc:Agent>
    </dc:creator>
   </cc:Work>
  </rdf:RDF>
 </metadata>
 <defs>
  <style type="text/css">*{stroke-linejoin: round; stroke-linecap: butt}</style>
 </defs>
 <g id="figure_1">
  <g id="patch_1">
   <path d="M 0 150.520479 
L 414.641875 150.520479 
L 414.641875 0 
L 0 0 
z
" style="fill: #ffffff"/>
  </g>
  <g id="axes_1">
   <g id="patch_2">
    <path d="M 50.321875 139.332094 
L 407.441875 139.332094 
L 407.441875 32.196094 
L 50.321875 32.196094 
z
" style="fill: #ffffff"/>
   </g>
   <g id="patch_3">
    <path d="M 51.809875 50.052094 
L 63.713875 50.052094 
L 63.713875 50.052094 
L 51.809875 50.052094 
z
" clip-path="url(#p26090860a2)" style="fill: #3274a1"/>
   </g>
   <g id="patch_4">
    <path d="M 66.689875 50.052094 
L 78.593875 50.052094 
L 78.593875 50.052094 
L 66.689875 50.052094 
z
" clip-path="url(#p26090860a2)" style="fill: #3274a1"/>
   </g>
   <g id="patch_5">
    <path d="M 81.569875 50.052094 
L 93.473875 50.052094 
L 93.473875 37.065912 
L 81.569875 37.065912 
z
" clip-path="url(#p26090860a2)" style="fill: #3274a1"/>
   </g>
   <g id="patch_6">
    <path d="M 96.449875 50.052094 
L 108.353875 50.052094 
L 108.353875 50.052094 
L 96.449875 50.052094 
z
" clip-path="url(#p26090860a2)" style="fill: #3274a1"/>
   </g>
   <g id="patch_7">
    <path d="M 111.329875 50.052094 
L 123.233875 50.052094 
L 123.233875 50.052094 
L 111.329875 50.052094 
z
" clip-path="url(#p26090860a2)" style="fill: #3274a1"/>
   </g>
   <g id="patch_8">
    <path d="M 126.209875 50.052094 
L 138.113875 50.052094 
L 138.113875 50.052094 
L 126.209875 50.052094 
z
" clip-path="url(#p26090860a2)" style="fill: #3274a1"/>
   </g>
   <g id="patch_9">
    <path d="M 141.089875 50.052094 
L 152.993875 50.052094 
L 152.993875 50.052094 
L 141.089875 50.052094 
z
" clip-path="url(#p26090860a2)" style="fill: #3274a1"/>
   </g>
   <g id="patch_10">
    <path d="M 155.969875 50.052094 
L 167.873875 50.052094 
L 167.873875 50.052094 
L 155.969875 50.052094 
z
" clip-path="url(#p26090860a2)" style="fill: #3274a1"/>
   </g>
   <g id="patch_11">
    <path d="M 170.849875 50.052094 
L 182.753875 50.052094 
L 182.753875 37.065912 
L 170.849875 37.065912 
z
" clip-path="url(#p26090860a2)" style="fill: #3274a1"/>
   </g>
   <g id="patch_12">
    <path d="M 185.729875 50.052094 
L 197.633875 50.052094 
L 197.633875 50.052094 
L 185.729875 50.052094 
z
" clip-path="url(#p26090860a2)" style="fill: #3274a1"/>
   </g>
   <g id="patch_13">
    <path d="M 200.609875 50.052094 
L 212.513875 50.052094 
L 212.513875 50.052094 
L 200.609875 50.052094 
z
" clip-path="url(#p26090860a2)" style="fill: #3274a1"/>
   </g>
   <g id="patch_14">
    <path d="M 215.489875 50.052094 
L 227.393875 50.052094 
L 227.393875 37.065912 
L 215.489875 37.065912 
z
" clip-path="url(#p26090860a2)" style="fill: #3274a1"/>
   </g>
   <g id="patch_15">
    <path d="M 230.369875 50.052094 
L 242.273875 50.052094 
L 242.273875 50.052094 
L 230.369875 50.052094 
z
" clip-path="url(#p26090860a2)" style="fill: #3274a1"/>
   </g>
   <g id="patch_16">
    <path d="M 245.249875 50.052094 
L 257.153875 50.052094 
L 257.153875 50.052094 
L 245.249875 50.052094 
z
" clip-path="url(#p26090860a2)" style="fill: #3274a1"/>
   </g>
   <g id="patch_17">
    <path d="M 260.129875 50.052094 
L 272.033875 50.052094 
L 272.033875 50.052094 
L 260.129875 50.052094 
z
" clip-path="url(#p26090860a2)" style="fill: #3274a1"/>
   </g>
   <g id="patch_18">
    <path d="M 275.009875 50.052094 
L 286.913875 50.052094 
L 286.913875 50.052094 
L 275.009875 50.052094 
z
" clip-path="url(#p26090860a2)" style="fill: #3274a1"/>
   </g>
   <g id="patch_19">
    <path d="M 289.889875 50.052094 
L 301.793875 50.052094 
L 301.793875 50.052094 
L 289.889875 50.052094 
z
" clip-path="url(#p26090860a2)" style="fill: #3274a1"/>
   </g>
   <g id="patch_20">
    <path d="M 304.769875 50.052094 
L 316.673875 50.052094 
L 316.673875 50.052094 
L 304.769875 50.052094 
z
" clip-path="url(#p26090860a2)" style="fill: #3274a1"/>
   </g>
   <g id="patch_21">
    <path d="M 319.649875 50.052094 
L 331.553875 50.052094 
L 331.553875 50.052094 
L 319.649875 50.052094 
z
" clip-path="url(#p26090860a2)" style="fill: #3274a1"/>
   </g>
   <g id="patch_22">
    <path d="M 334.529875 50.052094 
L 346.433875 50.052094 
L 346.433875 50.052094 
L 334.529875 50.052094 
z
" clip-path="url(#p26090860a2)" style="fill: #3274a1"/>
   </g>
   <g id="patch_23">
    <path d="M 349.409875 50.052094 
L 361.313875 50.052094 
L 361.313875 50.052094 
L 349.409875 50.052094 
z
" clip-path="url(#p26090860a2)" style="fill: #3274a1"/>
   </g>
   <g id="patch_24">
    <path d="M 364.289875 50.052094 
L 376.193875 50.052094 
L 376.193875 50.052094 
L 364.289875 50.052094 
z
" clip-path="url(#p26090860a2)" style="fill: #3274a1"/>
   </g>
   <g id="patch_25">
    <path d="M 379.169875 50.052094 
L 391.073875 50.052094 
L 391.073875 50.052094 
L 379.169875 50.052094 
z
" clip-path="url(#p26090860a2)" style="fill: #3274a1"/>
   </g>
   <g id="patch_26">
    <path d="M 394.049875 50.052094 
L 405.953875 50.052094 
L 405.953875 50.052094 
L 394.049875 50.052094 
z
" clip-path="url(#p26090860a2)" style="fill: #3274a1"/>
   </g>
   <g id="patch_27">
    <path d="M 51.809875 50.052094 
L 63.713875 50.052094 
L 63.713875 56.545185 
L 51.809875 56.545185 
z
" clip-path="url(#p26090860a2)" style="fill: #e1812c"/>
   </g>
   <g id="patch_28">
    <path d="M 66.689875 50.052094 
L 78.593875 50.052094 
L 78.593875 56.545185 
L 66.689875 56.545185 
z
" clip-path="url(#p26090860a2)" style="fill: #e1812c"/>
   </g>
   <g id="patch_29">
    <path d="M 81.569875 50.052094 
L 93.473875 50.052094 
L 93.473875 63.038276 
L 81.569875 63.038276 
z
" clip-path="url(#p26090860a2)" style="fill: #e1812c"/>
   </g>
   <g id="patch_30">
    <path d="M 96.449875 50.052094 
L 108.353875 50.052094 
L 108.353875 56.545185 
L 96.449875 56.545185 
z
" clip-path="url(#p26090860a2)" style="fill: #e1812c"/>
   </g>
   <g id="patch_31">
    <path d="M 111.329875 50.052094 
L 123.233875 50.052094 
L 123.233875 95.50373 
L 111.329875 95.50373 
z
" clip-path="url(#p26090860a2)" style="fill: #e1812c"/>
   </g>
   <g id="patch_32">
    <path d="M 126.209875 50.052094 
L 138.113875 50.052094 
L 138.113875 89.010639 
L 126.209875 89.010639 
z
" clip-path="url(#p26090860a2)" style="fill: #e1812c"/>
   </g>
   <g id="patch_33">
    <path d="M 141.089875 50.052094 
L 152.993875 50.052094 
L 152.993875 56.545185 
L 141.089875 56.545185 
z
" clip-path="url(#p26090860a2)" style="fill: #e1812c"/>
   </g>
   <g id="patch_34">
    <path d="M 155.969875 50.052094 
L 167.873875 50.052094 
L 167.873875 69.531366 
L 155.969875 69.531366 
z
" clip-path="url(#p26090860a2)" style="fill: #e1812c"/>
   </g>
   <g id="patch_35">
    <path d="M 170.849875 50.052094 
L 182.753875 50.052094 
L 182.753875 76.024457 
L 170.849875 76.024457 
z
" clip-path="url(#p26090860a2)" style="fill: #e1812c"/>
   </g>
   <g id="patch_36">
    <path d="M 185.729875 50.052094 
L 197.633875 50.052094 
L 197.633875 76.024457 
L 185.729875 76.024457 
z
" clip-path="url(#p26090860a2)" style="fill: #e1812c"/>
   </g>
   <g id="patch_37">
    <path d="M 200.609875 50.052094 
L 212.513875 50.052094 
L 212.513875 76.024457 
L 200.609875 76.024457 
z
" clip-path="url(#p26090860a2)" style="fill: #e1812c"/>
   </g>
   <g id="patch_38">
    <path d="M 215.489875 50.052094 
L 227.393875 50.052094 
L 227.393875 82.517548 
L 215.489875 82.517548 
z
" clip-path="url(#p26090860a2)" style="fill: #e1812c"/>
   </g>
   <g id="patch_39">
    <path d="M 230.369875 50.052094 
L 242.273875 50.052094 
L 242.273875 69.531366 
L 230.369875 69.531366 
z
" clip-path="url(#p26090860a2)" style="fill: #e1812c"/>
   </g>
   <g id="patch_40">
    <path d="M 245.249875 50.052094 
L 257.153875 50.052094 
L 257.153875 134.462276 
L 245.249875 134.462276 
z
" clip-path="url(#p26090860a2)" style="fill: #e1812c"/>
   </g>
   <g id="patch_41">
    <path d="M 260.129875 50.052094 
L 272.033875 50.052094 
L 272.033875 101.996821 
L 260.129875 101.996821 
z
" clip-path="url(#p26090860a2)" style="fill: #e1812c"/>
   </g>
   <g id="patch_42">
    <path d="M 275.009875 50.052094 
L 286.913875 50.052094 
L 286.913875 56.545185 
L 275.009875 56.545185 
z
" clip-path="url(#p26090860a2)" style="fill: #e1812c"/>
   </g>
   <g id="patch_43">
    <path d="M 289.889875 50.052094 
L 301.793875 50.052094 
L 301.793875 101.996821 
L 289.889875 101.996821 
z
" clip-path="url(#p26090860a2)" style="fill: #e1812c"/>
   </g>
   <g id="patch_44">
    <path d="M 304.769875 50.052094 
L 316.673875 50.052094 
L 316.673875 108.489912 
L 304.769875 108.489912 
z
" clip-path="url(#p26090860a2)" style="fill: #e1812c"/>
   </g>
   <g id="patch_45">
    <path d="M 319.649875 50.052094 
L 331.553875 50.052094 
L 331.553875 76.024457 
L 319.649875 76.024457 
z
" clip-path="url(#p26090860a2)" style="fill: #e1812c"/>
   </g>
   <g id="patch_46">
    <path d="M 334.529875 50.052094 
L 346.433875 50.052094 
L 346.433875 56.545185 
L 334.529875 56.545185 
z
" clip-path="url(#p26090860a2)" style="fill: #e1812c"/>
   </g>
   <g id="patch_47">
    <path d="M 349.409875 50.052094 
L 361.313875 50.052094 
L 361.313875 82.517548 
L 349.409875 82.517548 
z
" clip-path="url(#p26090860a2)" style="fill: #e1812c"/>
   </g>
   <g id="patch_48">
    <path d="M 364.289875 50.052094 
L 376.193875 50.052094 
L 376.193875 114.983003 
L 364.289875 114.983003 
z
" clip-path="url(#p26090860a2)" style="fill: #e1812c"/>
   </g>
   <g id="patch_49">
    <path d="M 379.169875 50.052094 
L 391.073875 50.052094 
L 391.073875 56.545185 
L 379.169875 56.545185 
z
" clip-path="url(#p26090860a2)" style="fill: #e1812c"/>
   </g>
   <g id="patch_50">
    <path d="M 394.049875 50.052094 
L 405.953875 50.052094 
L 405.953875 76.024457 
L 394.049875 76.024457 
z
" clip-path="url(#p26090860a2)" style="fill: #e1812c"/>
   </g>
   <g id="matplotlib.axis_1"/>
   <g id="matplotlib.axis_2">
    <g id="ytick_1">
     <g id="line2d_1">
      <defs>
       <path id="m0b3053adde" d="M 0 0 
L -3.5 0 
" style="stroke: #000000; stroke-width: 0.8"/>
      </defs>
      <g>
       <use xlink:href="#m0b3053adde" x="50.321875" y="37.065912" style="stroke: #000000; stroke-width: 0.8"/>
      </g>
     </g>
     <g id="text_1">
      <!--    2 -->
      <g transform="translate(7.2 42.804584) scale(0.15 -0.15)">
       <defs>
        <path id="DejaVuSansMono-20" transform="scale(0.015625)"/>
        <path id="DejaVuSansMono-32" d="M 1166 531 
L 3309 531 
L 3309 0 
L 475 0 
L 475 531 
Q 1059 1147 1496 1619 
Q 1934 2091 2100 2284 
Q 2413 2666 2522 2902 
Q 2631 3138 2631 3384 
Q 2631 3775 2401 3997 
Q 2172 4219 1772 4219 
Q 1488 4219 1175 4116 
Q 863 4013 513 3803 
L 513 4441 
Q 834 4594 1145 4672 
Q 1456 4750 1759 4750 
Q 2444 4750 2861 4386 
Q 3278 4022 3278 3431 
Q 3278 3131 3139 2831 
Q 3000 2531 2688 2169 
Q 2513 1966 2180 1606 
Q 1847 1247 1166 531 
z
" transform="scale(0.015625)"/>
       </defs>
       <use xlink:href="#DejaVuSansMono-20"/>
       <use xlink:href="#DejaVuSansMono-20" x="60.205078"/>
       <use xlink:href="#DejaVuSansMono-20" x="120.410156"/>
       <use xlink:href="#DejaVuSansMono-32" x="180.615234"/>
      </g>
     </g>
    </g>
    <g id="ytick_2">
     <g id="line2d_2">
      <g>
       <use xlink:href="#m0b3053adde" x="50.321875" y="134.462276" style="stroke: #000000; stroke-width: 0.8"/>
      </g>
     </g>
     <g id="text_2">
      <!--  -13 -->
      <g transform="translate(7.2 140.200947) scale(0.15 -0.15)">
       <defs>
        <path id="DejaVuSansMono-2d" d="M 1113 2009 
L 2741 2009 
L 2741 1497 
L 1113 1497 
L 1113 2009 
z
" transform="scale(0.015625)"/>
        <path id="DejaVuSansMono-31" d="M 844 531 
L 1825 531 
L 1825 4097 
L 769 3859 
L 769 4434 
L 1819 4666 
L 2450 4666 
L 2450 531 
L 3419 531 
L 3419 0 
L 844 0 
L 844 531 
z
" transform="scale(0.015625)"/>
        <path id="DejaVuSansMono-33" d="M 2425 2497 
Q 2884 2375 3128 2064 
Q 3372 1753 3372 1288 
Q 3372 644 2939 276 
Q 2506 -91 1741 -91 
Q 1419 -91 1084 -31 
Q 750 28 428 141 
L 428 769 
Q 747 603 1056 522 
Q 1366 441 1672 441 
Q 2191 441 2469 675 
Q 2747 909 2747 1350 
Q 2747 1756 2469 1995 
Q 2191 2234 1716 2234 
L 1234 2234 
L 1234 2753 
L 1716 2753 
Q 2150 2753 2394 2943 
Q 2638 3134 2638 3475 
Q 2638 3834 2411 4026 
Q 2184 4219 1766 4219 
Q 1488 4219 1191 4156 
Q 894 4094 569 3969 
L 569 4550 
Q 947 4650 1242 4700 
Q 1538 4750 1766 4750 
Q 2447 4750 2855 4408 
Q 3263 4066 3263 3500 
Q 3263 3116 3048 2859 
Q 2834 2603 2425 2497 
z
" transform="scale(0.015625)"/>
       </defs>
       <use xlink:href="#DejaVuSansMono-20"/>
       <use xlink:href="#DejaVuSansMono-2d" x="60.205078"/>
       <use xlink:href="#DejaVuSansMono-31" x="120.410156"/>
       <use xlink:href="#DejaVuSansMono-33" x="180.615234"/>
      </g>
     </g>
    </g>
   </g>
   <g id="line2d_3">
    <path clip-path="url(#p26090860a2)" style="fill: none; stroke: #424242; stroke-width: 2.7; stroke-linecap: square"/>
   </g>
   <g id="line2d_4">
    <path clip-path="url(#p26090860a2)" style="fill: none; stroke: #424242; stroke-width: 2.7; stroke-linecap: square"/>
   </g>
   <g id="line2d_5">
    <path clip-path="url(#p26090860a2)" style="fill: none; stroke: #424242; stroke-width: 2.7; stroke-linecap: square"/>
   </g>
   <g id="line2d_6">
    <path clip-path="url(#p26090860a2)" style="fill: none; stroke: #424242; stroke-width: 2.7; stroke-linecap: square"/>
   </g>
   <g id="line2d_7">
    <path clip-path="url(#p26090860a2)" style="fill: none; stroke: #424242; stroke-width: 2.7; stroke-linecap: square"/>
   </g>
   <g id="line2d_8">
    <path clip-path="url(#p26090860a2)" style="fill: none; stroke: #424242; stroke-width: 2.7; stroke-linecap: square"/>
   </g>
   <g id="line2d_9">
    <path clip-path="url(#p26090860a2)" style="fill: none; stroke: #424242; stroke-width: 2.7; stroke-linecap: square"/>
   </g>
   <g id="line2d_10">
    <path clip-path="url(#p26090860a2)" style="fill: none; stroke: #424242; stroke-width: 2.7; stroke-linecap: square"/>
   </g>
   <g id="line2d_11">
    <path clip-path="url(#p26090860a2)" style="fill: none; stroke: #424242; stroke-width: 2.7; stroke-linecap: square"/>
   </g>
   <g id="line2d_12">
    <path clip-path="url(#p26090860a2)" style="fill: none; stroke: #424242; stroke-width: 2.7; stroke-linecap: square"/>
   </g>
   <g id="line2d_13">
    <path clip-path="url(#p26090860a2)" style="fill: none; stroke: #424242; stroke-width: 2.7; stroke-linecap: square"/>
   </g>
   <g id="line2d_14">
    <path clip-path="url(#p26090860a2)" style="fill: none; stroke: #424242; stroke-width: 2.7; stroke-linecap: square"/>
   </g>
   <g id="line2d_15">
    <path clip-path="url(#p26090860a2)" style="fill: none; stroke: #424242; stroke-width: 2.7; stroke-linecap: square"/>
   </g>
   <g id="line2d_16">
    <path clip-path="url(#p26090860a2)" style="fill: none; stroke: #424242; stroke-width: 2.7; stroke-linecap: square"/>
   </g>
   <g id="line2d_17">
    <path clip-path="url(#p26090860a2)" style="fill: none; stroke: #424242; stroke-width: 2.7; stroke-linecap: square"/>
   </g>
   <g id="line2d_18">
    <path clip-path="url(#p26090860a2)" style="fill: none; stroke: #424242; stroke-width: 2.7; stroke-linecap: square"/>
   </g>
   <g id="line2d_19">
    <path clip-path="url(#p26090860a2)" style="fill: none; stroke: #424242; stroke-width: 2.7; stroke-linecap: square"/>
   </g>
   <g id="line2d_20">
    <path clip-path="url(#p26090860a2)" style="fill: none; stroke: #424242; stroke-width: 2.7; stroke-linecap: square"/>
   </g>
   <g id="line2d_21">
    <path clip-path="url(#p26090860a2)" style="fill: none; stroke: #424242; stroke-width: 2.7; stroke-linecap: square"/>
   </g>
   <g id="line2d_22">
    <path clip-path="url(#p26090860a2)" style="fill: none; stroke: #424242; stroke-width: 2.7; stroke-linecap: square"/>
   </g>
   <g id="line2d_23">
    <path clip-path="url(#p26090860a2)" style="fill: none; stroke: #424242; stroke-width: 2.7; stroke-linecap: square"/>
   </g>
   <g id="line2d_24">
    <path clip-path="url(#p26090860a2)" style="fill: none; stroke: #424242; stroke-width: 2.7; stroke-linecap: square"/>
   </g>
   <g id="line2d_25">
    <path clip-path="url(#p26090860a2)" style="fill: none; stroke: #424242; stroke-width: 2.7; stroke-linecap: square"/>
   </g>
   <g id="line2d_26">
    <path clip-path="url(#p26090860a2)" style="fill: none; stroke: #424242; stroke-width: 2.7; stroke-linecap: square"/>
   </g>
   <g id="line2d_27">
    <path clip-path="url(#p26090860a2)" style="fill: none; stroke: #424242; stroke-width: 2.7; stroke-linecap: square"/>
   </g>
   <g id="line2d_28">
    <path clip-path="url(#p26090860a2)" style="fill: none; stroke: #424242; stroke-width: 2.7; stroke-linecap: square"/>
   </g>
   <g id="line2d_29">
    <path clip-path="url(#p26090860a2)" style="fill: none; stroke: #424242; stroke-width: 2.7; stroke-linecap: square"/>
   </g>
   <g id="line2d_30">
    <path clip-path="url(#p26090860a2)" style="fill: none; stroke: #424242; stroke-width: 2.7; stroke-linecap: square"/>
   </g>
   <g id="line2d_31">
    <path clip-path="url(#p26090860a2)" style="fill: none; stroke: #424242; stroke-width: 2.7; stroke-linecap: square"/>
   </g>
   <g id="line2d_32">
    <path clip-path="url(#p26090860a2)" style="fill: none; stroke: #424242; stroke-width: 2.7; stroke-linecap: square"/>
   </g>
   <g id="line2d_33">
    <path clip-path="url(#p26090860a2)" style="fill: none; stroke: #424242; stroke-width: 2.7; stroke-linecap: square"/>
   </g>
   <g id="line2d_34">
    <path clip-path="url(#p26090860a2)" style="fill: none; stroke: #424242; stroke-width: 2.7; stroke-linecap: square"/>
   </g>
   <g id="line2d_35">
    <path clip-path="url(#p26090860a2)" style="fill: none; stroke: #424242; stroke-width: 2.7; stroke-linecap: square"/>
   </g>
   <g id="line2d_36">
    <path clip-path="url(#p26090860a2)" style="fill: none; stroke: #424242; stroke-width: 2.7; stroke-linecap: square"/>
   </g>
   <g id="line2d_37">
    <path clip-path="url(#p26090860a2)" style="fill: none; stroke: #424242; stroke-width: 2.7; stroke-linecap: square"/>
   </g>
   <g id="line2d_38">
    <path clip-path="url(#p26090860a2)" style="fill: none; stroke: #424242; stroke-width: 2.7; stroke-linecap: square"/>
   </g>
   <g id="line2d_39">
    <path clip-path="url(#p26090860a2)" style="fill: none; stroke: #424242; stroke-width: 2.7; stroke-linecap: square"/>
   </g>
   <g id="line2d_40">
    <path clip-path="url(#p26090860a2)" style="fill: none; stroke: #424242; stroke-width: 2.7; stroke-linecap: square"/>
   </g>
   <g id="line2d_41">
    <path clip-path="url(#p26090860a2)" style="fill: none; stroke: #424242; stroke-width: 2.7; stroke-linecap: square"/>
   </g>
   <g id="line2d_42">
    <path clip-path="url(#p26090860a2)" style="fill: none; stroke: #424242; stroke-width: 2.7; stroke-linecap: square"/>
   </g>
   <g id="line2d_43">
    <path clip-path="url(#p26090860a2)" style="fill: none; stroke: #424242; stroke-width: 2.7; stroke-linecap: square"/>
   </g>
   <g id="line2d_44">
    <path clip-path="url(#p26090860a2)" style="fill: none; stroke: #424242; stroke-width: 2.7; stroke-linecap: square"/>
   </g>
   <g id="line2d_45">
    <path clip-path="url(#p26090860a2)" style="fill: none; stroke: #424242; stroke-width: 2.7; stroke-linecap: square"/>
   </g>
   <g id="line2d_46">
    <path clip-path="url(#p26090860a2)" style="fill: none; stroke: #424242; stroke-width: 2.7; stroke-linecap: square"/>
   </g>
   <g id="line2d_47">
    <path clip-path="url(#p26090860a2)" style="fill: none; stroke: #424242; stroke-width: 2.7; stroke-linecap: square"/>
   </g>
   <g id="line2d_48">
    <path clip-path="url(#p26090860a2)" style="fill: none; stroke: #424242; stroke-width: 2.7; stroke-linecap: square"/>
   </g>
   <g id="line2d_49">
    <path clip-path="url(#p26090860a2)" style="fill: none; stroke: #424242; stroke-width: 2.7; stroke-linecap: square"/>
   </g>
   <g id="line2d_50">
    <path clip-path="url(#p26090860a2)" style="fill: none; stroke: #424242; stroke-width: 2.7; stroke-linecap: square"/>
   </g>
   <g id="patch_51">
    <path d="M 50.321875 139.332094 
L 50.321875 32.196094 
" style="fill: none; stroke: #000000; stroke-width: 0.8; stroke-linejoin: miter; stroke-linecap: square"/>
   </g>
   <g id="patch_52">
    <path d="M 407.441875 139.332094 
L 407.441875 32.196094 
" style="fill: none; stroke: #000000; stroke-width: 0.8; stroke-linejoin: miter; stroke-linecap: square"/>
   </g>
   <g id="patch_53">
    <path d="M 50.321875 139.332094 
L 407.441875 139.332094 
" style="fill: none; stroke: #000000; stroke-width: 0.8; stroke-linejoin: miter; stroke-linecap: square"/>
   </g>
   <g id="patch_54">
    <path d="M 50.321875 32.196094 
L 407.441875 32.196094 
" style="fill: none; stroke: #000000; stroke-width: 0.8; stroke-linejoin: miter; stroke-linecap: square"/>
   </g>
   <g id="text_3">
    <!-- brotli -->
    <g transform="translate(196.594766 26.196094) scale(0.25 -0.25)">
     <defs>
      <path id="DejaVuSans-62" d="M 3116 1747 
Q 3116 2381 2855 2742 
Q 2594 3103 2138 3103 
Q 1681 3103 1420 2742 
Q 1159 2381 1159 1747 
Q 1159 1113 1420 752 
Q 1681 391 2138 391 
Q 2594 391 2855 752 
Q 3116 1113 3116 1747 
z
M 1159 2969 
Q 1341 3281 1617 3432 
Q 1894 3584 2278 3584 
Q 2916 3584 3314 3078 
Q 3713 2572 3713 1747 
Q 3713 922 3314 415 
Q 2916 -91 2278 -91 
Q 1894 -91 1617 61 
Q 1341 213 1159 525 
L 1159 0 
L 581 0 
L 581 4863 
L 1159 4863 
L 1159 2969 
z
" transform="scale(0.015625)"/>
      <path id="DejaVuSans-72" d="M 2631 2963 
Q 2534 3019 2420 3045 
Q 2306 3072 2169 3072 
Q 1681 3072 1420 2755 
Q 1159 2438 1159 1844 
L 1159 0 
L 581 0 
L 581 3500 
L 1159 3500 
L 1159 2956 
Q 1341 3275 1631 3429 
Q 1922 3584 2338 3584 
Q 2397 3584 2469 3576 
Q 2541 3569 2628 3553 
L 2631 2963 
z
" transform="scale(0.015625)"/>
      <path id="DejaVuSans-6f" d="M 1959 3097 
Q 1497 3097 1228 2736 
Q 959 2375 959 1747 
Q 959 1119 1226 758 
Q 1494 397 1959 397 
Q 2419 397 2687 759 
Q 2956 1122 2956 1747 
Q 2956 2369 2687 2733 
Q 2419 3097 1959 3097 
z
M 1959 3584 
Q 2709 3584 3137 3096 
Q 3566 2609 3566 1747 
Q 3566 888 3137 398 
Q 2709 -91 1959 -91 
Q 1206 -91 779 398 
Q 353 888 353 1747 
Q 353 2609 779 3096 
Q 1206 3584 1959 3584 
z
" transform="scale(0.015625)"/>
      <path id="DejaVuSans-74" d="M 1172 4494 
L 1172 3500 
L 2356 3500 
L 2356 3053 
L 1172 3053 
L 1172 1153 
Q 1172 725 1289 603 
Q 1406 481 1766 481 
L 2356 481 
L 2356 0 
L 1766 0 
Q 1100 0 847 248 
Q 594 497 594 1153 
L 594 3053 
L 172 3053 
L 172 3500 
L 594 3500 
L 594 4494 
L 1172 4494 
z
" transform="scale(0.015625)"/>
      <path id="DejaVuSans-6c" d="M 603 4863 
L 1178 4863 
L 1178 0 
L 603 0 
L 603 4863 
z
" transform="scale(0.015625)"/>
      <path id="DejaVuSans-69" d="M 603 3500 
L 1178 3500 
L 1178 0 
L 603 0 
L 603 3500 
z
M 603 4863 
L 1178 4863 
L 1178 4134 
L 603 4134 
L 603 4863 
z
" transform="scale(0.015625)"/>
     </defs>
     <use xlink:href="#DejaVuSans-62"/>
     <use xlink:href="#DejaVuSans-72" x="63.476562"/>
     <use xlink:href="#DejaVuSans-6f" x="102.339844"/>
     <use xlink:href="#DejaVuSans-74" x="163.521484"/>
     <use xlink:href="#DejaVuSans-6c" x="202.730469"/>
     <use xlink:href="#DejaVuSans-69" x="230.513672"/>
    </g>
   </g>
  </g>
 </g>
 <defs>
  <clipPath id="p26090860a2">
   <rect x="50.321875" y="32.196094" width="357.12" height="107.136"/>
  </clipPath>
 </defs>
</svg>
