<?xml version="1.0" encoding="utf-8" standalone="no"?>
<!DOCTYPE svg PUBLIC "-//W3C//DTD SVG 1.1//EN"
  "http://www.w3.org/Graphics/SVG/1.1/DTD/svg11.dtd">
<svg xmlns:xlink="http://www.w3.org/1999/xlink" width="414.641875pt" height="150.520479pt" viewBox="0 0 414.641875 150.520479" xmlns="http://www.w3.org/2000/svg" version="1.1">
 <metadata>
  <rdf:RDF xmlns:dc="http://purl.org/dc/elements/1.1/" xmlns:cc="http://creativecommons.org/ns#" xmlns:rdf="http://www.w3.org/1999/02/22-rdf-syntax-ns#">
   <cc:Work>
    <dc:type rdf:resource="http://purl.org/dc/dcmitype/StillImage"/>
    <dc:date>2022-12-10T10:48:04.910213</dc:date>
    <dc:format>image/svg+xml</dc:format>
    <dc:creator>
     <cc:Agent>
      <dc:title>Matplotlib v3.6.2, https://matplotlib.org/</dc:title>
     </cc:Agent>
    </dc:creator>
   </cc:Work>
  </rdf:RDF>
 </metadata>
 <defs>
  <style type="text/css">*{stroke-linejoin: round; stroke-linecap: butt}</style>
 </defs>
 <g id="figure_1">
  <g id="patch_1">
   <path d="M 0 150.520479 
L 414.641875 150.520479 
L 414.641875 0 
L 0 0 
z
" style="fill: #ffffff"/>
  </g>
  <g id="axes_1">
   <g id="patch_2">
    <path d="M 50.321875 139.332094 
L 407.441875 139.332094 
L 407.441875 32.196094 
L 50.321875 32.196094 
z
" style="fill: #ffffff"/>
   </g>
   <g id="patch_3">
    <path d="M 53.068952 56.545185 
L 75.045567 56.545185 
L 75.045567 56.545185 
L 53.068952 56.545185 
z
" clip-path="url(#p46df57ef69)" style="fill: #3274a1"/>
   </g>
   <g id="patch_4">
    <path d="M 80.539721 56.545185 
L 102.516337 56.545185 
L 102.516337 56.545185 
L 80.539721 56.545185 
z
" clip-path="url(#p46df57ef69)" style="fill: #3274a1"/>
   </g>
   <g id="patch_5">
    <path d="M 108.01049 56.545185 
L 129.987106 56.545185 
L 129.987106 37.065912 
L 108.01049 37.065912 
z
" clip-path="url(#p46df57ef69)" style="fill: #3274a1"/>
   </g>
   <g id="patch_6">
    <path d="M 135.48126 56.545185 
L 157.457875 56.545185 
L 157.457875 56.545185 
L 135.48126 56.545185 
z
" clip-path="url(#p46df57ef69)" style="fill: #3274a1"/>
   </g>
   <g id="patch_7">
    <path d="M 162.952029 56.545185 
L 184.928644 56.545185 
L 184.928644 56.545185 
L 162.952029 56.545185 
z
" clip-path="url(#p46df57ef69)" style="fill: #3274a1"/>
   </g>
   <g id="patch_8">
    <path d="M 190.422798 56.545185 
L 212.399413 56.545185 
L 212.399413 56.545185 
L 190.422798 56.545185 
z
" clip-path="url(#p46df57ef69)" style="fill: #3274a1"/>
   </g>
   <g id="patch_9">
    <path d="M 217.893567 56.545185 
L 239.870183 56.545185 
L 239.870183 56.545185 
L 217.893567 56.545185 
z
" clip-path="url(#p46df57ef69)" style="fill: #3274a1"/>
   </g>
   <g id="patch_10">
    <path d="M 245.364337 56.545185 
L 267.340952 56.545185 
L 267.340952 37.065912 
L 245.364337 37.065912 
z
" clip-path="url(#p46df57ef69)" style="fill: #3274a1"/>
   </g>
   <g id="patch_11">
    <path d="M 272.835106 56.545185 
L 294.811721 56.545185 
L 294.811721 56.545185 
L 272.835106 56.545185 
z
" clip-path="url(#p46df57ef69)" style="fill: #3274a1"/>
   </g>
   <g id="patch_12">
    <path d="M 300.305875 56.545185 
L 322.28249 56.545185 
L 322.28249 37.065912 
L 300.305875 37.065912 
z
" clip-path="url(#p46df57ef69)" style="fill: #3274a1"/>
   </g>
   <g id="patch_13">
    <path d="M 327.776644 56.545185 
L 349.75326 56.545185 
L 349.75326 56.545185 
L 327.776644 56.545185 
z
" clip-path="url(#p46df57ef69)" style="fill: #3274a1"/>
   </g>
   <g id="patch_14">
    <path d="M 355.247413 56.545185 
L 377.224029 56.545185 
L 377.224029 56.545185 
L 355.247413 56.545185 
z
" clip-path="url(#p46df57ef69)" style="fill: #3274a1"/>
   </g>
   <g id="patch_15">
    <path d="M 382.718183 56.545185 
L 404.694798 56.545185 
L 404.694798 37.065912 
L 382.718183 37.065912 
z
" clip-path="url(#p46df57ef69)" style="fill: #3274a1"/>
   </g>
   <g id="patch_16">
    <path d="M 53.068952 56.545185 
L 75.045567 56.545185 
L 75.045567 56.545185 
L 53.068952 56.545185 
z
" clip-path="url(#p46df57ef69)" style="fill: #e1812c"/>
   </g>
   <g id="patch_17">
    <path d="M 80.539721 56.545185 
L 102.516337 56.545185 
L 102.516337 95.50373 
L 80.539721 95.50373 
z
" clip-path="url(#p46df57ef69)" style="fill: #e1812c"/>
   </g>
   <g id="patch_18">
    <path d="M 108.01049 56.545185 
L 129.987106 56.545185 
L 129.987106 56.545185 
L 108.01049 56.545185 
z
" clip-path="url(#p46df57ef69)" style="fill: #e1812c"/>
   </g>
   <g id="patch_19">
    <path d="M 135.48126 56.545185 
L 157.457875 56.545185 
L 157.457875 95.50373 
L 135.48126 95.50373 
z
" clip-path="url(#p46df57ef69)" style="fill: #e1812c"/>
   </g>
   <g id="patch_20">
    <path d="M 162.952029 56.545185 
L 184.928644 56.545185 
L 184.928644 134.462276 
L 162.952029 134.462276 
z
" clip-path="url(#p46df57ef69)" style="fill: #e1812c"/>
   </g>
   <g id="patch_21">
    <path d="M 190.422798 56.545185 
L 212.399413 56.545185 
L 212.399413 76.024457 
L 190.422798 76.024457 
z
" clip-path="url(#p46df57ef69)" style="fill: #e1812c"/>
   </g>
   <g id="patch_22">
    <path d="M 217.893567 56.545185 
L 239.870183 56.545185 
L 239.870183 56.545185 
L 217.893567 56.545185 
z
" clip-path="url(#p46df57ef69)" style="fill: #e1812c"/>
   </g>
   <g id="patch_23">
    <path d="M 245.364337 56.545185 
L 267.340952 56.545185 
L 267.340952 95.50373 
L 245.364337 95.50373 
z
" clip-path="url(#p46df57ef69)" style="fill: #e1812c"/>
   </g>
   <g id="patch_24">
    <path d="M 272.835106 56.545185 
L 294.811721 56.545185 
L 294.811721 76.024457 
L 272.835106 76.024457 
z
" clip-path="url(#p46df57ef69)" style="fill: #e1812c"/>
   </g>
   <g id="patch_25">
    <path d="M 300.305875 56.545185 
L 322.28249 56.545185 
L 322.28249 56.545185 
L 300.305875 56.545185 
z
" clip-path="url(#p46df57ef69)" style="fill: #e1812c"/>
   </g>
   <g id="patch_26">
    <path d="M 327.776644 56.545185 
L 349.75326 56.545185 
L 349.75326 56.545185 
L 327.776644 56.545185 
z
" clip-path="url(#p46df57ef69)" style="fill: #e1812c"/>
   </g>
   <g id="patch_27">
    <path d="M 355.247413 56.545185 
L 377.224029 56.545185 
L 377.224029 134.462276 
L 355.247413 134.462276 
z
" clip-path="url(#p46df57ef69)" style="fill: #e1812c"/>
   </g>
   <g id="patch_28">
    <path d="M 382.718183 56.545185 
L 404.694798 56.545185 
L 404.694798 56.545185 
L 382.718183 56.545185 
z
" clip-path="url(#p46df57ef69)" style="fill: #e1812c"/>
   </g>
   <g id="matplotlib.axis_1"/>
   <g id="matplotlib.axis_2">
    <g id="ytick_1">
     <g id="line2d_1">
      <defs>
       <path id="m8ac11bb8a3" d="M 0 0 
L -3.5 0 
" style="stroke: #000000; stroke-width: 0.8"/>
      </defs>
      <g>
       <use xlink:href="#m8ac11bb8a3" x="50.321875" y="56.545185" style="stroke: #000000; stroke-width: 0.8"/>
      </g>
     </g>
     <g id="text_1">
      <!--    0 -->
      <g transform="translate(7.2 62.283857) scale(0.15 -0.15)">
       <defs>
        <path id="DejaVuSansMono-20" transform="scale(0.015625)"/>
        <path id="DejaVuSansMono-30" d="M 1509 2344 
Q 1509 2516 1629 2641 
Q 1750 2766 1919 2766 
Q 2094 2766 2219 2641 
Q 2344 2516 2344 2344 
Q 2344 2169 2220 2047 
Q 2097 1925 1919 1925 
Q 1744 1925 1626 2044 
Q 1509 2163 1509 2344 
z
M 1925 4250 
Q 1484 4250 1267 3775 
Q 1050 3300 1050 2328 
Q 1050 1359 1267 884 
Q 1484 409 1925 409 
Q 2369 409 2586 884 
Q 2803 1359 2803 2328 
Q 2803 3300 2586 3775 
Q 2369 4250 1925 4250 
z
M 1925 4750 
Q 2672 4750 3055 4137 
Q 3438 3525 3438 2328 
Q 3438 1134 3055 521 
Q 2672 -91 1925 -91 
Q 1178 -91 797 521 
Q 416 1134 416 2328 
Q 416 3525 797 4137 
Q 1178 4750 1925 4750 
z
" transform="scale(0.015625)"/>
       </defs>
       <use xlink:href="#DejaVuSansMono-20"/>
       <use xlink:href="#DejaVuSansMono-20" x="60.205078"/>
       <use xlink:href="#DejaVuSansMono-20" x="120.410156"/>
       <use xlink:href="#DejaVuSansMono-30" x="180.615234"/>
      </g>
     </g>
    </g>
    <g id="ytick_2">
     <g id="line2d_2">
      <g>
       <use xlink:href="#m8ac11bb8a3" x="50.321875" y="37.065912" style="stroke: #000000; stroke-width: 0.8"/>
      </g>
     </g>
     <g id="text_2">
      <!--    1 -->
      <g transform="translate(7.2 42.804584) scale(0.15 -0.15)">
       <defs>
        <path id="DejaVuSansMono-31" d="M 844 531 
L 1825 531 
L 1825 4097 
L 769 3859 
L 769 4434 
L 1819 4666 
L 2450 4666 
L 2450 531 
L 3419 531 
L 3419 0 
L 844 0 
L 844 531 
z
" transform="scale(0.015625)"/>
       </defs>
       <use xlink:href="#DejaVuSansMono-20"/>
       <use xlink:href="#DejaVuSansMono-20" x="60.205078"/>
       <use xlink:href="#DejaVuSansMono-20" x="120.410156"/>
       <use xlink:href="#DejaVuSansMono-31" x="180.615234"/>
      </g>
     </g>
    </g>
    <g id="ytick_3">
     <g id="line2d_3">
      <g>
       <use xlink:href="#m8ac11bb8a3" x="50.321875" y="134.462276" style="stroke: #000000; stroke-width: 0.8"/>
      </g>
     </g>
     <g id="text_3">
      <!--   -4 -->
      <g transform="translate(7.2 140.200947) scale(0.15 -0.15)">
       <defs>
        <path id="DejaVuSansMono-2d" d="M 1113 2009 
L 2741 2009 
L 2741 1497 
L 1113 1497 
L 1113 2009 
z
" transform="scale(0.015625)"/>
        <path id="DejaVuSansMono-34" d="M 2297 4091 
L 825 1625 
L 2297 1625 
L 2297 4091 
z
M 2194 4666 
L 2925 4666 
L 2925 1625 
L 3547 1625 
L 3547 1113 
L 2925 1113 
L 2925 0 
L 2297 0 
L 2297 1113 
L 319 1113 
L 319 1709 
L 2194 4666 
z
" transform="scale(0.015625)"/>
       </defs>
       <use xlink:href="#DejaVuSansMono-20"/>
       <use xlink:href="#DejaVuSansMono-20" x="60.205078"/>
       <use xlink:href="#DejaVuSansMono-2d" x="120.410156"/>
       <use xlink:href="#DejaVuSansMono-34" x="180.615234"/>
      </g>
     </g>
    </g>
   </g>
   <g id="line2d_4">
    <path clip-path="url(#p46df57ef69)" style="fill: none; stroke: #424242; stroke-width: 2.7; stroke-linecap: square"/>
   </g>
   <g id="line2d_5">
    <path clip-path="url(#p46df57ef69)" style="fill: none; stroke: #424242; stroke-width: 2.7; stroke-linecap: square"/>
   </g>
   <g id="line2d_6">
    <path clip-path="url(#p46df57ef69)" style="fill: none; stroke: #424242; stroke-width: 2.7; stroke-linecap: square"/>
   </g>
   <g id="line2d_7">
    <path clip-path="url(#p46df57ef69)" style="fill: none; stroke: #424242; stroke-width: 2.7; stroke-linecap: square"/>
   </g>
   <g id="line2d_8">
    <path clip-path="url(#p46df57ef69)" style="fill: none; stroke: #424242; stroke-width: 2.7; stroke-linecap: square"/>
   </g>
   <g id="line2d_9">
    <path clip-path="url(#p46df57ef69)" style="fill: none; stroke: #424242; stroke-width: 2.7; stroke-linecap: square"/>
   </g>
   <g id="line2d_10">
    <path clip-path="url(#p46df57ef69)" style="fill: none; stroke: #424242; stroke-width: 2.7; stroke-linecap: square"/>
   </g>
   <g id="line2d_11">
    <path clip-path="url(#p46df57ef69)" style="fill: none; stroke: #424242; stroke-width: 2.7; stroke-linecap: square"/>
   </g>
   <g id="line2d_12">
    <path clip-path="url(#p46df57ef69)" style="fill: none; stroke: #424242; stroke-width: 2.7; stroke-linecap: square"/>
   </g>
   <g id="line2d_13">
    <path clip-path="url(#p46df57ef69)" style="fill: none; stroke: #424242; stroke-width: 2.7; stroke-linecap: square"/>
   </g>
   <g id="line2d_14">
    <path clip-path="url(#p46df57ef69)" style="fill: none; stroke: #424242; stroke-width: 2.7; stroke-linecap: square"/>
   </g>
   <g id="line2d_15">
    <path clip-path="url(#p46df57ef69)" style="fill: none; stroke: #424242; stroke-width: 2.7; stroke-linecap: square"/>
   </g>
   <g id="line2d_16">
    <path clip-path="url(#p46df57ef69)" style="fill: none; stroke: #424242; stroke-width: 2.7; stroke-linecap: square"/>
   </g>
   <g id="line2d_17">
    <path clip-path="url(#p46df57ef69)" style="fill: none; stroke: #424242; stroke-width: 2.7; stroke-linecap: square"/>
   </g>
   <g id="line2d_18">
    <path clip-path="url(#p46df57ef69)" style="fill: none; stroke: #424242; stroke-width: 2.7; stroke-linecap: square"/>
   </g>
   <g id="line2d_19">
    <path clip-path="url(#p46df57ef69)" style="fill: none; stroke: #424242; stroke-width: 2.7; stroke-linecap: square"/>
   </g>
   <g id="line2d_20">
    <path clip-path="url(#p46df57ef69)" style="fill: none; stroke: #424242; stroke-width: 2.7; stroke-linecap: square"/>
   </g>
   <g id="line2d_21">
    <path clip-path="url(#p46df57ef69)" style="fill: none; stroke: #424242; stroke-width: 2.7; stroke-linecap: square"/>
   </g>
   <g id="line2d_22">
    <path clip-path="url(#p46df57ef69)" style="fill: none; stroke: #424242; stroke-width: 2.7; stroke-linecap: square"/>
   </g>
   <g id="line2d_23">
    <path clip-path="url(#p46df57ef69)" style="fill: none; stroke: #424242; stroke-width: 2.7; stroke-linecap: square"/>
   </g>
   <g id="line2d_24">
    <path clip-path="url(#p46df57ef69)" style="fill: none; stroke: #424242; stroke-width: 2.7; stroke-linecap: square"/>
   </g>
   <g id="line2d_25">
    <path clip-path="url(#p46df57ef69)" style="fill: none; stroke: #424242; stroke-width: 2.7; stroke-linecap: square"/>
   </g>
   <g id="line2d_26">
    <path clip-path="url(#p46df57ef69)" style="fill: none; stroke: #424242; stroke-width: 2.7; stroke-linecap: square"/>
   </g>
   <g id="line2d_27">
    <path clip-path="url(#p46df57ef69)" style="fill: none; stroke: #424242; stroke-width: 2.7; stroke-linecap: square"/>
   </g>
   <g id="line2d_28">
    <path clip-path="url(#p46df57ef69)" style="fill: none; stroke: #424242; stroke-width: 2.7; stroke-linecap: square"/>
   </g>
   <g id="line2d_29">
    <path clip-path="url(#p46df57ef69)" style="fill: none; stroke: #424242; stroke-width: 2.7; stroke-linecap: square"/>
   </g>
   <g id="patch_29">
    <path d="M 50.321875 139.332094 
L 50.321875 32.196094 
" style="fill: none; stroke: #000000; stroke-width: 0.8; stroke-linejoin: miter; stroke-linecap: square"/>
   </g>
   <g id="patch_30">
    <path d="M 407.441875 139.332094 
L 407.441875 32.196094 
" style="fill: none; stroke: #000000; stroke-width: 0.8; stroke-linejoin: miter; stroke-linecap: square"/>
   </g>
   <g id="patch_31">
    <path d="M 50.321875 139.332094 
L 407.441875 139.332094 
" style="fill: none; stroke: #000000; stroke-width: 0.8; stroke-linejoin: miter; stroke-linecap: square"/>
   </g>
   <g id="patch_32">
    <path d="M 50.321875 32.196094 
L 407.441875 32.196094 
" style="fill: none; stroke: #000000; stroke-width: 0.8; stroke-linejoin: miter; stroke-linecap: square"/>
   </g>
   <g id="text_4">
    <!-- brotli -->
    <g transform="translate(196.594766 26.196094) scale(0.25 -0.25)">
     <defs>
      <path id="DejaVuSans-62" d="M 3116 1747 
Q 3116 2381 2855 2742 
Q 2594 3103 2138 3103 
Q 1681 3103 1420 2742 
Q 1159 2381 1159 1747 
Q 1159 1113 1420 752 
Q 1681 391 2138 391 
Q 2594 391 2855 752 
Q 3116 1113 3116 1747 
z
M 1159 2969 
Q 1341 3281 1617 3432 
Q 1894 3584 2278 3584 
Q 2916 3584 3314 3078 
Q 3713 2572 3713 1747 
Q 3713 922 3314 415 
Q 2916 -91 2278 -91 
Q 1894 -91 1617 61 
Q 1341 213 1159 525 
L 1159 0 
L 581 0 
L 581 4863 
L 1159 4863 
L 1159 2969 
z
" transform="scale(0.015625)"/>
      <path id="DejaVuSans-72" d="M 2631 2963 
Q 2534 3019 2420 3045 
Q 2306 3072 2169 3072 
Q 1681 3072 1420 2755 
Q 1159 2438 1159 1844 
L 1159 0 
L 581 0 
L 581 3500 
L 1159 3500 
L 1159 2956 
Q 1341 3275 1631 3429 
Q 1922 3584 2338 3584 
Q 2397 3584 2469 3576 
Q 2541 3569 2628 3553 
L 2631 2963 
z
" transform="scale(0.015625)"/>
      <path id="DejaVuSans-6f" d="M 1959 3097 
Q 1497 3097 1228 2736 
Q 959 2375 959 1747 
Q 959 1119 1226 758 
Q 1494 397 1959 397 
Q 2419 397 2687 759 
Q 2956 1122 2956 1747 
Q 2956 2369 2687 2733 
Q 2419 3097 1959 3097 
z
M 1959 3584 
Q 2709 3584 3137 3096 
Q 3566 2609 3566 1747 
Q 3566 888 3137 398 
Q 2709 -91 1959 -91 
Q 1206 -91 779 398 
Q 353 888 353 1747 
Q 353 2609 779 3096 
Q 1206 3584 1959 3584 
z
" transform="scale(0.015625)"/>
      <path id="DejaVuSans-74" d="M 1172 4494 
L 1172 3500 
L 2356 3500 
L 2356 3053 
L 1172 3053 
L 1172 1153 
Q 1172 725 1289 603 
Q 1406 481 1766 481 
L 2356 481 
L 2356 0 
L 1766 0 
Q 1100 0 847 248 
Q 594 497 594 1153 
L 594 3053 
L 172 3053 
L 172 3500 
L 594 3500 
L 594 4494 
L 1172 4494 
z
" transform="scale(0.015625)"/>
      <path id="DejaVuSans-6c" d="M 603 4863 
L 1178 4863 
L 1178 0 
L 603 0 
L 603 4863 
z
" transform="scale(0.015625)"/>
      <path id="DejaVuSans-69" d="M 603 3500 
L 1178 3500 
L 1178 0 
L 603 0 
L 603 3500 
z
M 603 4863 
L 1178 4863 
L 1178 4134 
L 603 4134 
L 603 4863 
z
" transform="scale(0.015625)"/>
     </defs>
     <use xlink:href="#DejaVuSans-62"/>
     <use xlink:href="#DejaVuSans-72" x="63.476562"/>
     <use xlink:href="#DejaVuSans-6f" x="102.339844"/>
     <use xlink:href="#DejaVuSans-74" x="163.521484"/>
     <use xlink:href="#DejaVuSans-6c" x="202.730469"/>
     <use xlink:href="#DejaVuSans-69" x="230.513672"/>
    </g>
   </g>
  </g>
 </g>
 <defs>
  <clipPath id="p46df57ef69">
   <rect x="50.321875" y="32.196094" width="357.12" height="107.136"/>
  </clipPath>
 </defs>
</svg>
