<?xml version="1.0" encoding="utf-8" standalone="no"?>
<!DOCTYPE svg PUBLIC "-//W3C//DTD SVG 1.1//EN"
  "http://www.w3.org/Graphics/SVG/1.1/DTD/svg11.dtd">
<svg xmlns:xlink="http://www.w3.org/1999/xlink" width="445.222812pt" height="443.3525pt" viewBox="0 0 445.222812 443.3525" xmlns="http://www.w3.org/2000/svg" version="1.1">
 <metadata>
  <rdf:RDF xmlns:dc="http://purl.org/dc/elements/1.1/" xmlns:cc="http://creativecommons.org/ns#" xmlns:rdf="http://www.w3.org/1999/02/22-rdf-syntax-ns#">
   <cc:Work>
    <dc:type rdf:resource="http://purl.org/dc/dcmitype/StillImage"/>
    <dc:date>2022-12-09T16:27:01.308859</dc:date>
    <dc:format>image/svg+xml</dc:format>
    <dc:creator>
     <cc:Agent>
      <dc:title>Matplotlib v3.6.2, https://matplotlib.org/</dc:title>
     </cc:Agent>
    </dc:creator>
   </cc:Work>
  </rdf:RDF>
 </metadata>
 <defs>
  <style type="text/css">*{stroke-linejoin: round; stroke-linecap: butt}</style>
 </defs>
 <g id="figure_1">
  <g id="patch_1">
   <path d="M 0 443.3525 
L 445.222812 443.3525 
L 445.222812 0 
L 0 0 
z
" style="fill: #ffffff"/>
  </g>
  <g id="axes_1">
   <g id="patch_2">
    <path d="M 61.482813 386.44 
L 373.473098 386.44 
L 373.473098 72.212571 
L 61.482813 72.212571 
z
" style="fill: #ffffff"/>
   </g>
   <g id="PathCollection_1">
    <defs>
     <path id="m31294e0b7a" d="M 0 5 
C 1.326016 5 2.597899 4.473168 3.535534 3.535534 
C 4.473168 2.597899 5 1.326016 5 0 
C 5 -1.326016 4.473168 -2.597899 3.535534 -3.535534 
C 2.597899 -4.473168 1.326016 -5 0 -5 
C -1.326016 -5 -2.597899 -4.473168 -3.535534 -3.535534 
C -4.473168 -2.597899 -5 -1.326016 -5 0 
C -5 1.326016 -4.473168 2.597899 -3.535534 3.535534 
C -2.597899 4.473168 -1.326016 5 0 5 
z
" style="stroke: #ffffff; stroke-opacity: 0.5; stroke-width: 0.8"/>
    </defs>
    <g clip-path="url(#p4b099b5210)">
     <use xlink:href="#m31294e0b7a" x="75.664189" y="247.180117" style="fill: #1f77b4; fill-opacity: 0.5; stroke: #ffffff; stroke-opacity: 0.5; stroke-width: 0.8"/>
     <use xlink:href="#m31294e0b7a" x="84.813464" y="211.472455" style="fill: #1f77b4; fill-opacity: 0.5; stroke: #ffffff; stroke-opacity: 0.5; stroke-width: 0.8"/>
     <use xlink:href="#m31294e0b7a" x="80.238827" y="247.180117" style="fill: #1f77b4; fill-opacity: 0.5; stroke: #ffffff; stroke-opacity: 0.5; stroke-width: 0.8"/>
     <use xlink:href="#m31294e0b7a" x="276.948244" y="122.203299" style="fill: #1f77b4; fill-opacity: 0.5; stroke: #ffffff; stroke-opacity: 0.5; stroke-width: 0.8"/>
     <use xlink:href="#m31294e0b7a" x="98.537377" y="157.910961" style="fill: #1f77b4; fill-opacity: 0.5; stroke: #ffffff; stroke-opacity: 0.5; stroke-width: 0.8"/>
     <use xlink:href="#m31294e0b7a" x="80.238827" y="229.326286" style="fill: #1f77b4; fill-opacity: 0.5; stroke: #ffffff; stroke-opacity: 0.5; stroke-width: 0.8"/>
     <use xlink:href="#m31294e0b7a" x="75.664189" y="336.449273" style="fill: #1f77b4; fill-opacity: 0.5; stroke: #ffffff; stroke-opacity: 0.5; stroke-width: 0.8"/>
     <use xlink:href="#m31294e0b7a" x="75.664189" y="372.156935" style="fill: #1f77b4; fill-opacity: 0.5; stroke: #ffffff; stroke-opacity: 0.5; stroke-width: 0.8"/>
     <use xlink:href="#m31294e0b7a" x="75.664189" y="229.326286" style="fill: #1f77b4; fill-opacity: 0.5; stroke: #ffffff; stroke-opacity: 0.5; stroke-width: 0.8"/>
     <use xlink:href="#m31294e0b7a" x="75.664189" y="372.156935" style="fill: #1f77b4; fill-opacity: 0.5; stroke: #ffffff; stroke-opacity: 0.5; stroke-width: 0.8"/>
     <use xlink:href="#m31294e0b7a" x="359.291722" y="86.495636" style="fill: #1f77b4; fill-opacity: 0.5; stroke: #ffffff; stroke-opacity: 0.5; stroke-width: 0.8"/>
    </g>
   </g>
   <g id="matplotlib.axis_1">
    <g id="xtick_1">
     <g id="line2d_1">
      <defs>
       <path id="m27d221c3f8" d="M 0 0 
L 0 3.5 
" style="stroke: #000000; stroke-width: 0.8"/>
      </defs>
      <g>
       <use xlink:href="#m27d221c3f8" x="71.089552" y="386.44" style="stroke: #000000; stroke-width: 0.8"/>
      </g>
     </g>
     <g id="text_1">
      <!-- 0 -->
      <g transform="translate(66.317677 404.837656) scale(0.15 -0.15)">
       <defs>
        <path id="DejaVuSans-30" d="M 2034 4250 
Q 1547 4250 1301 3770 
Q 1056 3291 1056 2328 
Q 1056 1369 1301 889 
Q 1547 409 2034 409 
Q 2525 409 2770 889 
Q 3016 1369 3016 2328 
Q 3016 3291 2770 3770 
Q 2525 4250 2034 4250 
z
M 2034 4750 
Q 2819 4750 3233 4129 
Q 3647 3509 3647 2328 
Q 3647 1150 3233 529 
Q 2819 -91 2034 -91 
Q 1250 -91 836 529 
Q 422 1150 422 2328 
Q 422 3509 836 4129 
Q 1250 4750 2034 4750 
z
" transform="scale(0.015625)"/>
       </defs>
       <use xlink:href="#DejaVuSans-30"/>
      </g>
     </g>
    </g>
    <g id="xtick_2">
     <g id="line2d_2">
      <g>
       <use xlink:href="#m27d221c3f8" x="162.582304" y="386.44" style="stroke: #000000; stroke-width: 0.8"/>
      </g>
     </g>
     <g id="text_2">
      <!-- 20 -->
      <g transform="translate(153.038554 404.837656) scale(0.15 -0.15)">
       <defs>
        <path id="DejaVuSans-32" d="M 1228 531 
L 3431 531 
L 3431 0 
L 469 0 
L 469 531 
Q 828 903 1448 1529 
Q 2069 2156 2228 2338 
Q 2531 2678 2651 2914 
Q 2772 3150 2772 3378 
Q 2772 3750 2511 3984 
Q 2250 4219 1831 4219 
Q 1534 4219 1204 4116 
Q 875 4013 500 3803 
L 500 4441 
Q 881 4594 1212 4672 
Q 1544 4750 1819 4750 
Q 2544 4750 2975 4387 
Q 3406 4025 3406 3419 
Q 3406 3131 3298 2873 
Q 3191 2616 2906 2266 
Q 2828 2175 2409 1742 
Q 1991 1309 1228 531 
z
" transform="scale(0.015625)"/>
       </defs>
       <use xlink:href="#DejaVuSans-32"/>
       <use xlink:href="#DejaVuSans-30" x="63.623047"/>
      </g>
     </g>
    </g>
    <g id="xtick_3">
     <g id="line2d_3">
      <g>
       <use xlink:href="#m27d221c3f8" x="254.075056" y="386.44" style="stroke: #000000; stroke-width: 0.8"/>
      </g>
     </g>
     <g id="text_3">
      <!-- 40 -->
      <g transform="translate(244.531306 404.837656) scale(0.15 -0.15)">
       <defs>
        <path id="DejaVuSans-34" d="M 2419 4116 
L 825 1625 
L 2419 1625 
L 2419 4116 
z
M 2253 4666 
L 3047 4666 
L 3047 1625 
L 3713 1625 
L 3713 1100 
L 3047 1100 
L 3047 0 
L 2419 0 
L 2419 1100 
L 313 1100 
L 313 1709 
L 2253 4666 
z
" transform="scale(0.015625)"/>
       </defs>
       <use xlink:href="#DejaVuSans-34"/>
       <use xlink:href="#DejaVuSans-30" x="63.623047"/>
      </g>
     </g>
    </g>
    <g id="xtick_4">
     <g id="line2d_4">
      <g>
       <use xlink:href="#m27d221c3f8" x="345.567809" y="386.44" style="stroke: #000000; stroke-width: 0.8"/>
      </g>
     </g>
     <g id="text_4">
      <!-- 60 -->
      <g transform="translate(336.024059 404.837656) scale(0.15 -0.15)">
       <defs>
        <path id="DejaVuSans-36" d="M 2113 2584 
Q 1688 2584 1439 2293 
Q 1191 2003 1191 1497 
Q 1191 994 1439 701 
Q 1688 409 2113 409 
Q 2538 409 2786 701 
Q 3034 994 3034 1497 
Q 3034 2003 2786 2293 
Q 2538 2584 2113 2584 
z
M 3366 4563 
L 3366 3988 
Q 3128 4100 2886 4159 
Q 2644 4219 2406 4219 
Q 1781 4219 1451 3797 
Q 1122 3375 1075 2522 
Q 1259 2794 1537 2939 
Q 1816 3084 2150 3084 
Q 2853 3084 3261 2657 
Q 3669 2231 3669 1497 
Q 3669 778 3244 343 
Q 2819 -91 2113 -91 
Q 1303 -91 875 529 
Q 447 1150 447 2328 
Q 447 3434 972 4092 
Q 1497 4750 2381 4750 
Q 2619 4750 2861 4703 
Q 3103 4656 3366 4563 
z
" transform="scale(0.015625)"/>
       </defs>
       <use xlink:href="#DejaVuSans-36"/>
       <use xlink:href="#DejaVuSans-30" x="63.623047"/>
      </g>
     </g>
    </g>
    <g id="text_5">
     <!-- # Commits -->
     <g transform="translate(147.417408 430.953281) scale(0.25 -0.25)">
      <defs>
       <path id="DejaVuSans-23" d="M 3272 2816 
L 2363 2816 
L 2100 1772 
L 3016 1772 
L 3272 2816 
z
M 2803 4594 
L 2478 3297 
L 3391 3297 
L 3719 4594 
L 4219 4594 
L 3897 3297 
L 4872 3297 
L 4872 2816 
L 3775 2816 
L 3519 1772 
L 4513 1772 
L 4513 1294 
L 3397 1294 
L 3072 0 
L 2572 0 
L 2894 1294 
L 1978 1294 
L 1656 0 
L 1153 0 
L 1478 1294 
L 494 1294 
L 494 1772 
L 1594 1772 
L 1856 2816 
L 850 2816 
L 850 3297 
L 1978 3297 
L 2297 4594 
L 2803 4594 
z
" transform="scale(0.015625)"/>
       <path id="DejaVuSans-20" transform="scale(0.015625)"/>
       <path id="DejaVuSans-43" d="M 4122 4306 
L 4122 3641 
Q 3803 3938 3442 4084 
Q 3081 4231 2675 4231 
Q 1875 4231 1450 3742 
Q 1025 3253 1025 2328 
Q 1025 1406 1450 917 
Q 1875 428 2675 428 
Q 3081 428 3442 575 
Q 3803 722 4122 1019 
L 4122 359 
Q 3791 134 3420 21 
Q 3050 -91 2638 -91 
Q 1578 -91 968 557 
Q 359 1206 359 2328 
Q 359 3453 968 4101 
Q 1578 4750 2638 4750 
Q 3056 4750 3426 4639 
Q 3797 4528 4122 4306 
z
" transform="scale(0.015625)"/>
       <path id="DejaVuSans-6f" d="M 1959 3097 
Q 1497 3097 1228 2736 
Q 959 2375 959 1747 
Q 959 1119 1226 758 
Q 1494 397 1959 397 
Q 2419 397 2687 759 
Q 2956 1122 2956 1747 
Q 2956 2369 2687 2733 
Q 2419 3097 1959 3097 
z
M 1959 3584 
Q 2709 3584 3137 3096 
Q 3566 2609 3566 1747 
Q 3566 888 3137 398 
Q 2709 -91 1959 -91 
Q 1206 -91 779 398 
Q 353 888 353 1747 
Q 353 2609 779 3096 
Q 1206 3584 1959 3584 
z
" transform="scale(0.015625)"/>
       <path id="DejaVuSans-6d" d="M 3328 2828 
Q 3544 3216 3844 3400 
Q 4144 3584 4550 3584 
Q 5097 3584 5394 3201 
Q 5691 2819 5691 2113 
L 5691 0 
L 5113 0 
L 5113 2094 
Q 5113 2597 4934 2840 
Q 4756 3084 4391 3084 
Q 3944 3084 3684 2787 
Q 3425 2491 3425 1978 
L 3425 0 
L 2847 0 
L 2847 2094 
Q 2847 2600 2669 2842 
Q 2491 3084 2119 3084 
Q 1678 3084 1418 2786 
Q 1159 2488 1159 1978 
L 1159 0 
L 581 0 
L 581 3500 
L 1159 3500 
L 1159 2956 
Q 1356 3278 1631 3431 
Q 1906 3584 2284 3584 
Q 2666 3584 2933 3390 
Q 3200 3197 3328 2828 
z
" transform="scale(0.015625)"/>
       <path id="DejaVuSans-69" d="M 603 3500 
L 1178 3500 
L 1178 0 
L 603 0 
L 603 3500 
z
M 603 4863 
L 1178 4863 
L 1178 4134 
L 603 4134 
L 603 4863 
z
" transform="scale(0.015625)"/>
       <path id="DejaVuSans-74" d="M 1172 4494 
L 1172 3500 
L 2356 3500 
L 2356 3053 
L 1172 3053 
L 1172 1153 
Q 1172 725 1289 603 
Q 1406 481 1766 481 
L 2356 481 
L 2356 0 
L 1766 0 
Q 1100 0 847 248 
Q 594 497 594 1153 
L 594 3053 
L 172 3053 
L 172 3500 
L 594 3500 
L 594 4494 
L 1172 4494 
z
" transform="scale(0.015625)"/>
       <path id="DejaVuSans-73" d="M 2834 3397 
L 2834 2853 
Q 2591 2978 2328 3040 
Q 2066 3103 1784 3103 
Q 1356 3103 1142 2972 
Q 928 2841 928 2578 
Q 928 2378 1081 2264 
Q 1234 2150 1697 2047 
L 1894 2003 
Q 2506 1872 2764 1633 
Q 3022 1394 3022 966 
Q 3022 478 2636 193 
Q 2250 -91 1575 -91 
Q 1294 -91 989 -36 
Q 684 19 347 128 
L 347 722 
Q 666 556 975 473 
Q 1284 391 1588 391 
Q 1994 391 2212 530 
Q 2431 669 2431 922 
Q 2431 1156 2273 1281 
Q 2116 1406 1581 1522 
L 1381 1569 
Q 847 1681 609 1914 
Q 372 2147 372 2553 
Q 372 3047 722 3315 
Q 1072 3584 1716 3584 
Q 2034 3584 2315 3537 
Q 2597 3491 2834 3397 
z
" transform="scale(0.015625)"/>
      </defs>
      <use xlink:href="#DejaVuSans-23"/>
      <use xlink:href="#DejaVuSans-20" x="83.789062"/>
      <use xlink:href="#DejaVuSans-43" x="115.576172"/>
      <use xlink:href="#DejaVuSans-6f" x="185.400391"/>
      <use xlink:href="#DejaVuSans-6d" x="246.582031"/>
      <use xlink:href="#DejaVuSans-6d" x="343.994141"/>
      <use xlink:href="#DejaVuSans-69" x="441.40625"/>
      <use xlink:href="#DejaVuSans-74" x="469.189453"/>
      <use xlink:href="#DejaVuSans-73" x="508.398438"/>
     </g>
    </g>
   </g>
   <g id="matplotlib.axis_2">
    <g id="ytick_1">
     <g id="line2d_5">
      <defs>
       <path id="ma51fad60ee" d="M 0 0 
L -3.5 0 
" style="stroke: #000000; stroke-width: 0.8"/>
      </defs>
      <g>
       <use xlink:href="#ma51fad60ee" x="61.482813" y="354.303104" style="stroke: #000000; stroke-width: 0.8"/>
      </g>
     </g>
     <g id="text_6">
      <!-- 2 -->
      <g transform="translate(44.939063 360.001932) scale(0.15 -0.15)">
       <use xlink:href="#DejaVuSans-32"/>
      </g>
     </g>
    </g>
    <g id="ytick_2">
     <g id="line2d_6">
      <g>
       <use xlink:href="#ma51fad60ee" x="61.482813" y="318.595442" style="stroke: #000000; stroke-width: 0.8"/>
      </g>
     </g>
     <g id="text_7">
      <!-- 4 -->
      <g transform="translate(44.939063 324.29427) scale(0.15 -0.15)">
       <use xlink:href="#DejaVuSans-34"/>
      </g>
     </g>
    </g>
    <g id="ytick_3">
     <g id="line2d_7">
      <g>
       <use xlink:href="#ma51fad60ee" x="61.482813" y="282.887779" style="stroke: #000000; stroke-width: 0.8"/>
      </g>
     </g>
     <g id="text_8">
      <!-- 6 -->
      <g transform="translate(44.939063 288.586607) scale(0.15 -0.15)">
       <use xlink:href="#DejaVuSans-36"/>
      </g>
     </g>
    </g>
    <g id="ytick_4">
     <g id="line2d_8">
      <g>
       <use xlink:href="#ma51fad60ee" x="61.482813" y="247.180117" style="stroke: #000000; stroke-width: 0.8"/>
      </g>
     </g>
     <g id="text_9">
      <!-- 8 -->
      <g transform="translate(44.939063 252.878945) scale(0.15 -0.15)">
       <defs>
        <path id="DejaVuSans-38" d="M 2034 2216 
Q 1584 2216 1326 1975 
Q 1069 1734 1069 1313 
Q 1069 891 1326 650 
Q 1584 409 2034 409 
Q 2484 409 2743 651 
Q 3003 894 3003 1313 
Q 3003 1734 2745 1975 
Q 2488 2216 2034 2216 
z
M 1403 2484 
Q 997 2584 770 2862 
Q 544 3141 544 3541 
Q 544 4100 942 4425 
Q 1341 4750 2034 4750 
Q 2731 4750 3128 4425 
Q 3525 4100 3525 3541 
Q 3525 3141 3298 2862 
Q 3072 2584 2669 2484 
Q 3125 2378 3379 2068 
Q 3634 1759 3634 1313 
Q 3634 634 3220 271 
Q 2806 -91 2034 -91 
Q 1263 -91 848 271 
Q 434 634 434 1313 
Q 434 1759 690 2068 
Q 947 2378 1403 2484 
z
M 1172 3481 
Q 1172 3119 1398 2916 
Q 1625 2713 2034 2713 
Q 2441 2713 2670 2916 
Q 2900 3119 2900 3481 
Q 2900 3844 2670 4047 
Q 2441 4250 2034 4250 
Q 1625 4250 1398 4047 
Q 1172 3844 1172 3481 
z
" transform="scale(0.015625)"/>
       </defs>
       <use xlink:href="#DejaVuSans-38"/>
      </g>
     </g>
    </g>
    <g id="ytick_5">
     <g id="line2d_9">
      <g>
       <use xlink:href="#ma51fad60ee" x="61.482813" y="211.472455" style="stroke: #000000; stroke-width: 0.8"/>
      </g>
     </g>
     <g id="text_10">
      <!-- 10 -->
      <g transform="translate(35.395313 217.171283) scale(0.15 -0.15)">
       <defs>
        <path id="DejaVuSans-31" d="M 794 531 
L 1825 531 
L 1825 4091 
L 703 3866 
L 703 4441 
L 1819 4666 
L 2450 4666 
L 2450 531 
L 3481 531 
L 3481 0 
L 794 0 
L 794 531 
z
" transform="scale(0.015625)"/>
       </defs>
       <use xlink:href="#DejaVuSans-31"/>
       <use xlink:href="#DejaVuSans-30" x="63.623047"/>
      </g>
     </g>
    </g>
    <g id="ytick_6">
     <g id="line2d_10">
      <g>
       <use xlink:href="#ma51fad60ee" x="61.482813" y="175.764792" style="stroke: #000000; stroke-width: 0.8"/>
      </g>
     </g>
     <g id="text_11">
      <!-- 12 -->
      <g transform="translate(35.395313 181.46362) scale(0.15 -0.15)">
       <use xlink:href="#DejaVuSans-31"/>
       <use xlink:href="#DejaVuSans-32" x="63.623047"/>
      </g>
     </g>
    </g>
    <g id="ytick_7">
     <g id="line2d_11">
      <g>
       <use xlink:href="#ma51fad60ee" x="61.482813" y="140.05713" style="stroke: #000000; stroke-width: 0.8"/>
      </g>
     </g>
     <g id="text_12">
      <!-- 14 -->
      <g transform="translate(35.395313 145.755958) scale(0.15 -0.15)">
       <use xlink:href="#DejaVuSans-31"/>
       <use xlink:href="#DejaVuSans-34" x="63.623047"/>
      </g>
     </g>
    </g>
    <g id="ytick_8">
     <g id="line2d_12">
      <g>
       <use xlink:href="#ma51fad60ee" x="61.482813" y="104.349468" style="stroke: #000000; stroke-width: 0.8"/>
      </g>
     </g>
     <g id="text_13">
      <!-- 16 -->
      <g transform="translate(35.395313 110.048296) scale(0.15 -0.15)">
       <use xlink:href="#DejaVuSans-31"/>
       <use xlink:href="#DejaVuSans-36" x="63.623047"/>
      </g>
     </g>
    </g>
    <g id="text_14">
     <!-- # Interacting authors -->
     <g transform="translate(26.196094 363.552848) rotate(-90) scale(0.25 -0.25)">
      <defs>
       <path id="DejaVuSans-49" d="M 628 4666 
L 1259 4666 
L 1259 0 
L 628 0 
L 628 4666 
z
" transform="scale(0.015625)"/>
       <path id="DejaVuSans-6e" d="M 3513 2113 
L 3513 0 
L 2938 0 
L 2938 2094 
Q 2938 2591 2744 2837 
Q 2550 3084 2163 3084 
Q 1697 3084 1428 2787 
Q 1159 2491 1159 1978 
L 1159 0 
L 581 0 
L 581 3500 
L 1159 3500 
L 1159 2956 
Q 1366 3272 1645 3428 
Q 1925 3584 2291 3584 
Q 2894 3584 3203 3211 
Q 3513 2838 3513 2113 
z
" transform="scale(0.015625)"/>
       <path id="DejaVuSans-65" d="M 3597 1894 
L 3597 1613 
L 953 1613 
Q 991 1019 1311 708 
Q 1631 397 2203 397 
Q 2534 397 2845 478 
Q 3156 559 3463 722 
L 3463 178 
Q 3153 47 2828 -22 
Q 2503 -91 2169 -91 
Q 1331 -91 842 396 
Q 353 884 353 1716 
Q 353 2575 817 3079 
Q 1281 3584 2069 3584 
Q 2775 3584 3186 3129 
Q 3597 2675 3597 1894 
z
M 3022 2063 
Q 3016 2534 2758 2815 
Q 2500 3097 2075 3097 
Q 1594 3097 1305 2825 
Q 1016 2553 972 2059 
L 3022 2063 
z
" transform="scale(0.015625)"/>
       <path id="DejaVuSans-72" d="M 2631 2963 
Q 2534 3019 2420 3045 
Q 2306 3072 2169 3072 
Q 1681 3072 1420 2755 
Q 1159 2438 1159 1844 
L 1159 0 
L 581 0 
L 581 3500 
L 1159 3500 
L 1159 2956 
Q 1341 3275 1631 3429 
Q 1922 3584 2338 3584 
Q 2397 3584 2469 3576 
Q 2541 3569 2628 3553 
L 2631 2963 
z
" transform="scale(0.015625)"/>
       <path id="DejaVuSans-61" d="M 2194 1759 
Q 1497 1759 1228 1600 
Q 959 1441 959 1056 
Q 959 750 1161 570 
Q 1363 391 1709 391 
Q 2188 391 2477 730 
Q 2766 1069 2766 1631 
L 2766 1759 
L 2194 1759 
z
M 3341 1997 
L 3341 0 
L 2766 0 
L 2766 531 
Q 2569 213 2275 61 
Q 1981 -91 1556 -91 
Q 1019 -91 701 211 
Q 384 513 384 1019 
Q 384 1609 779 1909 
Q 1175 2209 1959 2209 
L 2766 2209 
L 2766 2266 
Q 2766 2663 2505 2880 
Q 2244 3097 1772 3097 
Q 1472 3097 1187 3025 
Q 903 2953 641 2809 
L 641 3341 
Q 956 3463 1253 3523 
Q 1550 3584 1831 3584 
Q 2591 3584 2966 3190 
Q 3341 2797 3341 1997 
z
" transform="scale(0.015625)"/>
       <path id="DejaVuSans-63" d="M 3122 3366 
L 3122 2828 
Q 2878 2963 2633 3030 
Q 2388 3097 2138 3097 
Q 1578 3097 1268 2742 
Q 959 2388 959 1747 
Q 959 1106 1268 751 
Q 1578 397 2138 397 
Q 2388 397 2633 464 
Q 2878 531 3122 666 
L 3122 134 
Q 2881 22 2623 -34 
Q 2366 -91 2075 -91 
Q 1284 -91 818 406 
Q 353 903 353 1747 
Q 353 2603 823 3093 
Q 1294 3584 2113 3584 
Q 2378 3584 2631 3529 
Q 2884 3475 3122 3366 
z
" transform="scale(0.015625)"/>
       <path id="DejaVuSans-67" d="M 2906 1791 
Q 2906 2416 2648 2759 
Q 2391 3103 1925 3103 
Q 1463 3103 1205 2759 
Q 947 2416 947 1791 
Q 947 1169 1205 825 
Q 1463 481 1925 481 
Q 2391 481 2648 825 
Q 2906 1169 2906 1791 
z
M 3481 434 
Q 3481 -459 3084 -895 
Q 2688 -1331 1869 -1331 
Q 1566 -1331 1297 -1286 
Q 1028 -1241 775 -1147 
L 775 -588 
Q 1028 -725 1275 -790 
Q 1522 -856 1778 -856 
Q 2344 -856 2625 -561 
Q 2906 -266 2906 331 
L 2906 616 
Q 2728 306 2450 153 
Q 2172 0 1784 0 
Q 1141 0 747 490 
Q 353 981 353 1791 
Q 353 2603 747 3093 
Q 1141 3584 1784 3584 
Q 2172 3584 2450 3431 
Q 2728 3278 2906 2969 
L 2906 3500 
L 3481 3500 
L 3481 434 
z
" transform="scale(0.015625)"/>
       <path id="DejaVuSans-75" d="M 544 1381 
L 544 3500 
L 1119 3500 
L 1119 1403 
Q 1119 906 1312 657 
Q 1506 409 1894 409 
Q 2359 409 2629 706 
Q 2900 1003 2900 1516 
L 2900 3500 
L 3475 3500 
L 3475 0 
L 2900 0 
L 2900 538 
Q 2691 219 2414 64 
Q 2138 -91 1772 -91 
Q 1169 -91 856 284 
Q 544 659 544 1381 
z
M 1991 3584 
L 1991 3584 
z
" transform="scale(0.015625)"/>
       <path id="DejaVuSans-68" d="M 3513 2113 
L 3513 0 
L 2938 0 
L 2938 2094 
Q 2938 2591 2744 2837 
Q 2550 3084 2163 3084 
Q 1697 3084 1428 2787 
Q 1159 2491 1159 1978 
L 1159 0 
L 581 0 
L 581 4863 
L 1159 4863 
L 1159 2956 
Q 1366 3272 1645 3428 
Q 1925 3584 2291 3584 
Q 2894 3584 3203 3211 
Q 3513 2838 3513 2113 
z
" transform="scale(0.015625)"/>
      </defs>
      <use xlink:href="#DejaVuSans-23"/>
      <use xlink:href="#DejaVuSans-20" x="83.789062"/>
      <use xlink:href="#DejaVuSans-49" x="115.576172"/>
      <use xlink:href="#DejaVuSans-6e" x="145.068359"/>
      <use xlink:href="#DejaVuSans-74" x="208.447266"/>
      <use xlink:href="#DejaVuSans-65" x="247.65625"/>
      <use xlink:href="#DejaVuSans-72" x="309.179688"/>
      <use xlink:href="#DejaVuSans-61" x="350.292969"/>
      <use xlink:href="#DejaVuSans-63" x="411.572266"/>
      <use xlink:href="#DejaVuSans-74" x="466.552734"/>
      <use xlink:href="#DejaVuSans-69" x="505.761719"/>
      <use xlink:href="#DejaVuSans-6e" x="533.544922"/>
      <use xlink:href="#DejaVuSans-67" x="596.923828"/>
      <use xlink:href="#DejaVuSans-20" x="660.400391"/>
      <use xlink:href="#DejaVuSans-61" x="692.1875"/>
      <use xlink:href="#DejaVuSans-75" x="753.466797"/>
      <use xlink:href="#DejaVuSans-74" x="816.845703"/>
      <use xlink:href="#DejaVuSans-68" x="856.054688"/>
      <use xlink:href="#DejaVuSans-6f" x="919.433594"/>
      <use xlink:href="#DejaVuSans-72" x="980.615234"/>
      <use xlink:href="#DejaVuSans-73" x="1021.728516"/>
     </g>
    </g>
   </g>
   <g id="patch_3">
    <path d="M 61.482813 386.44 
L 61.482813 72.212571 
" style="fill: none; stroke: #000000; stroke-width: 0.8; stroke-linejoin: miter; stroke-linecap: square"/>
   </g>
   <g id="patch_4">
    <path d="M 61.482813 386.44 
L 373.473098 386.44 
" style="fill: none; stroke: #000000; stroke-width: 0.8; stroke-linejoin: miter; stroke-linecap: square"/>
   </g>
  </g>
  <g id="axes_2">
   <g id="patch_5">
    <path d="M 61.482813 61.377143 
L 373.473098 61.377143 
L 373.473098 7.2 
L 61.482813 7.2 
z
" style="fill: #ffffff"/>
   </g>
   <g id="PolyCollection_1">
    <path d="M -106.721148 60.89497 
L -106.721148 61.377143 
L -103.462865 61.377143 
L -100.204583 61.377143 
L -96.9463 61.377143 
L -93.688018 61.377143 
L -90.429735 61.377143 
L -87.171453 61.377143 
L -83.913171 61.377143 
L -80.654888 61.377143 
L -77.396606 61.377143 
L -74.138323 61.377143 
L -70.880041 61.377143 
L -67.621758 61.377143 
L -64.363476 61.377143 
L -61.105193 61.377143 
L -57.846911 61.377143 
L -54.588629 61.377143 
L -51.330346 61.377143 
L -48.072064 61.377143 
L -44.813781 61.377143 
L -41.555499 61.377143 
L -38.297216 61.377143 
L -35.038934 61.377143 
L -31.780651 61.377143 
L -28.522369 61.377143 
L -25.264087 61.377143 
L -22.005804 61.377143 
L -18.747522 61.377143 
L -15.489239 61.377143 
L -12.230957 61.377143 
L -8.972674 61.377143 
L -5.714392 61.377143 
L -2.456109 61.377143 
L 0.802173 61.377143 
L 4.060455 61.377143 
L 7.318738 61.377143 
L 10.57702 61.377143 
L 13.835303 61.377143 
L 17.093585 61.377143 
L 20.351868 61.377143 
L 23.61015 61.377143 
L 26.868433 61.377143 
L 30.126715 61.377143 
L 33.384997 61.377143 
L 36.64328 61.377143 
L 39.901562 61.377143 
L 43.159845 61.377143 
L 46.418127 61.377143 
L 49.67641 61.377143 
L 52.934692 61.377143 
L 56.192974 61.377143 
L 59.451257 61.377143 
L 62.709539 61.377143 
L 65.967822 61.377143 
L 69.226104 61.377143 
L 72.484387 61.377143 
L 75.742669 61.377143 
L 79.000952 61.377143 
L 82.259234 61.377143 
L 85.517516 61.377143 
L 88.775799 61.377143 
L 92.034081 61.377143 
L 95.292364 61.377143 
L 98.550646 61.377143 
L 101.808929 61.377143 
L 105.067211 61.377143 
L 108.325494 61.377143 
L 111.583776 61.377143 
L 114.842058 61.377143 
L 118.100341 61.377143 
L 121.358623 61.377143 
L 124.616906 61.377143 
L 127.875188 61.377143 
L 131.133471 61.377143 
L 134.391753 61.377143 
L 137.650036 61.377143 
L 140.908318 61.377143 
L 144.1666 61.377143 
L 147.424883 61.377143 
L 150.683165 61.377143 
L 153.941448 61.377143 
L 157.19973 61.377143 
L 160.458013 61.377143 
L 163.716295 61.377143 
L 166.974578 61.377143 
L 170.23286 61.377143 
L 173.491142 61.377143 
L 176.749425 61.377143 
L 180.007707 61.377143 
L 183.26599 61.377143 
L 186.524272 61.377143 
L 189.782555 61.377143 
L 193.040837 61.377143 
L 196.299119 61.377143 
L 199.557402 61.377143 
L 202.815684 61.377143 
L 206.073967 61.377143 
L 209.332249 61.377143 
L 212.590532 61.377143 
L 215.848814 61.377143 
L 219.107097 61.377143 
L 222.365379 61.377143 
L 225.623661 61.377143 
L 228.881944 61.377143 
L 232.140226 61.377143 
L 235.398509 61.377143 
L 238.656791 61.377143 
L 241.915074 61.377143 
L 245.173356 61.377143 
L 248.431639 61.377143 
L 251.689921 61.377143 
L 254.948203 61.377143 
L 258.206486 61.377143 
L 261.464768 61.377143 
L 264.723051 61.377143 
L 267.981333 61.377143 
L 271.239616 61.377143 
L 274.497898 61.377143 
L 277.756181 61.377143 
L 281.014463 61.377143 
L 284.272745 61.377143 
L 287.531028 61.377143 
L 290.78931 61.377143 
L 294.047593 61.377143 
L 297.305875 61.377143 
L 300.564158 61.377143 
L 303.82244 61.377143 
L 307.080723 61.377143 
L 310.339005 61.377143 
L 313.597287 61.377143 
L 316.85557 61.377143 
L 320.113852 61.377143 
L 323.372135 61.377143 
L 326.630417 61.377143 
L 329.8887 61.377143 
L 333.146982 61.377143 
L 336.405264 61.377143 
L 339.663547 61.377143 
L 342.921829 61.377143 
L 346.180112 61.377143 
L 349.438394 61.377143 
L 352.696677 61.377143 
L 355.954959 61.377143 
L 359.213242 61.377143 
L 362.471524 61.377143 
L 365.729806 61.377143 
L 368.988089 61.377143 
L 372.246371 61.377143 
L 375.504654 61.377143 
L 378.762936 61.377143 
L 382.021219 61.377143 
L 385.279501 61.377143 
L 388.537784 61.377143 
L 391.796066 61.377143 
L 395.054348 61.377143 
L 398.312631 61.377143 
L 401.570913 61.377143 
L 404.829196 61.377143 
L 408.087478 61.377143 
L 411.345761 61.377143 
L 414.604043 61.377143 
L 417.862326 61.377143 
L 421.120608 61.377143 
L 424.37889 61.377143 
L 427.637173 61.377143 
L 430.895455 61.377143 
L 434.153738 61.377143 
L 437.41202 61.377143 
L 440.670303 61.377143 
L 443.928585 61.377143 
L 447.186868 61.377143 
L 450.44515 61.377143 
L 453.703432 61.377143 
L 456.961715 61.377143 
L 460.219997 61.377143 
L 463.47828 61.377143 
L 466.736562 61.377143 
L 469.994845 61.377143 
L 473.253127 61.377143 
L 476.511409 61.377143 
L 479.769692 61.377143 
L 483.027974 61.377143 
L 486.286257 61.377143 
L 489.544539 61.377143 
L 492.802822 61.377143 
L 496.061104 61.377143 
L 499.319387 61.377143 
L 502.577669 61.377143 
L 505.835951 61.377143 
L 509.094234 61.377143 
L 512.352516 61.377143 
L 515.610799 61.377143 
L 518.869081 61.377143 
L 522.127364 61.377143 
L 525.385646 61.377143 
L 528.643929 61.377143 
L 531.902211 61.377143 
L 535.160493 61.377143 
L 538.418776 61.377143 
L 541.677058 61.377143 
L 541.677058 61.312603 
L 541.677058 61.312603 
L 538.418776 61.301415 
L 535.160493 61.288539 
L 531.902211 61.273767 
L 528.643929 61.256873 
L 525.385646 61.237612 
L 522.127364 61.215724 
L 518.869081 61.190926 
L 515.610799 61.162924 
L 512.352516 61.131401 
L 509.094234 61.09603 
L 505.835951 61.056466 
L 502.577669 61.012355 
L 499.319387 60.963331 
L 496.061104 60.909024 
L 492.802822 60.849057 
L 489.544539 60.783056 
L 486.286257 60.71065 
L 483.027974 60.631474 
L 479.769692 60.54518 
L 476.511409 60.451436 
L 473.253127 60.349933 
L 469.994845 60.240392 
L 466.736562 60.122569 
L 463.47828 59.996257 
L 460.219997 59.861297 
L 456.961715 59.71758 
L 453.703432 59.565052 
L 450.44515 59.403719 
L 447.186868 59.233652 
L 443.928585 59.054989 
L 440.670303 58.867936 
L 437.41202 58.672774 
L 434.153738 58.469854 
L 430.895455 58.259602 
L 427.637173 58.042513 
L 424.37889 57.819156 
L 421.120608 57.590162 
L 417.862326 57.356228 
L 414.604043 57.118109 
L 411.345761 56.876609 
L 408.087478 56.632581 
L 404.829196 56.386915 
L 401.570913 56.14053 
L 398.312631 55.894371 
L 395.054348 55.649392 
L 391.796066 55.406556 
L 388.537784 55.166822 
L 385.279501 54.931136 
L 382.021219 54.700426 
L 378.762936 54.475594 
L 375.504654 54.257506 
L 372.246371 54.046991 
L 368.988089 53.844831 
L 365.729806 53.65176 
L 362.471524 53.468459 
L 359.213242 53.295553 
L 355.954959 53.133611 
L 352.696677 52.983143 
L 349.438394 52.844598 
L 346.180112 52.71837 
L 342.921829 52.604792 
L 339.663547 52.504139 
L 336.405264 52.416631 
L 333.146982 52.342431 
L 329.8887 52.281646 
L 326.630417 52.234325 
L 323.372135 52.200464 
L 320.113852 52.179999 
L 316.85557 52.172806 
L 313.597287 52.178699 
L 310.339005 52.197423 
L 307.080723 52.228651 
L 303.82244 52.271981 
L 300.564158 52.326922 
L 297.305875 52.392892 
L 294.047593 52.469209 
L 290.78931 52.555078 
L 287.531028 52.649588 
L 284.272745 52.751696 
L 281.014463 52.860221 
L 277.756181 52.973836 
L 274.497898 53.091054 
L 271.239616 53.210225 
L 267.981333 53.329527 
L 264.723051 53.446961 
L 261.464768 53.560345 
L 258.206486 53.667314 
L 254.948203 53.76532 
L 251.689921 53.85163 
L 248.431639 53.923337 
L 245.173356 53.977365 
L 241.915074 54.010476 
L 238.656791 54.019292 
L 235.398509 54.000303 
L 232.140226 53.949897 
L 228.881944 53.864375 
L 225.623661 53.739989 
L 222.365379 53.572965 
L 219.107097 53.359544 
L 215.848814 53.09602 
L 212.590532 52.77878 
L 209.332249 52.404353 
L 206.073967 51.969455 
L 202.815684 51.471043 
L 199.557402 50.906367 
L 196.299119 50.273024 
L 193.040837 49.569011 
L 189.782555 48.792785 
L 186.524272 47.943312 
L 183.26599 47.020125 
L 180.007707 46.023368 
L 176.749425 44.953847 
L 173.491142 43.81307 
L 170.23286 42.603279 
L 166.974578 41.327485 
L 163.716295 39.989483 
L 160.458013 38.593866 
L 157.19973 37.146027 
L 153.941448 35.652149 
L 150.683165 34.119185 
L 147.424883 32.554826 
L 144.1666 30.967457 
L 140.908318 29.366102 
L 137.650036 27.760354 
L 134.391753 26.160298 
L 131.133471 24.576417 
L 127.875188 23.019496 
L 124.616906 21.500511 
L 121.358623 20.03051 
L 118.100341 18.620499 
L 114.842058 17.281307 
L 111.583776 16.023465 
L 108.325494 14.857074 
L 105.067211 13.791684 
L 101.808929 12.83617 
L 98.550646 11.998617 
L 95.292364 11.286219 
L 92.034081 10.705179 
L 88.775799 10.26063 
L 85.517516 9.956566 
L 82.259234 9.795787 
L 79.000952 9.779864 
L 75.742669 9.909119 
L 72.484387 10.182621 
L 69.226104 10.598206 
L 65.967822 11.152503 
L 62.709539 11.840988 
L 59.451257 12.658047 
L 56.192974 13.597056 
L 52.934692 14.650469 
L 49.67641 15.809929 
L 46.418127 17.066373 
L 43.159845 18.410154 
L 39.901562 19.831168 
L 36.64328 21.318976 
L 33.384997 22.862937 
L 30.126715 24.452331 
L 26.868433 26.076481 
L 23.61015 27.724873 
L 20.351868 29.387264 
L 17.093585 31.053783 
L 13.835303 32.715021 
L 10.57702 34.362114 
L 7.318738 35.986807 
L 4.060455 37.581515 
L 0.802173 39.139364 
L -2.456109 40.654219 
L -5.714392 42.12071 
L -8.972674 43.534233 
L -12.230957 44.89095 
L -15.489239 46.187771 
L -18.747522 47.422337 
L -22.005804 48.592982 
L -25.264087 49.698701 
L -28.522369 50.739101 
L -31.780651 51.714354 
L -35.038934 52.625147 
L -38.297216 53.472624 
L -41.555499 54.258333 
L -44.813781 54.984172 
L -48.072064 55.652329 
L -51.330346 56.265233 
L -54.588629 56.825501 
L -57.846911 57.335891 
L -61.105193 57.799257 
L -64.363476 58.218505 
L -67.621758 58.596561 
L -70.880041 58.936333 
L -74.138323 59.240684 
L -77.396606 59.512407 
L -80.654888 59.754204 
L -83.913171 59.968668 
L -87.171453 60.158272 
L -90.429735 60.325355 
L -93.688018 60.472118 
L -96.9463 60.600621 
L -100.204583 60.712774 
L -103.462865 60.810349 
L -106.721148 60.89497 
z
" clip-path="url(#pddf4679a87)" style="fill: #1f77b4; fill-opacity: 0.25; stroke: #1f77b4"/>
   </g>
   <g id="matplotlib.axis_3">
    <g id="xtick_5">
     <g id="line2d_13">
      <g>
       <use xlink:href="#m27d221c3f8" x="71.089552" y="61.377143" style="stroke: #000000; stroke-width: 0.8"/>
      </g>
     </g>
    </g>
    <g id="xtick_6">
     <g id="line2d_14">
      <g>
       <use xlink:href="#m27d221c3f8" x="162.582304" y="61.377143" style="stroke: #000000; stroke-width: 0.8"/>
      </g>
     </g>
    </g>
    <g id="xtick_7">
     <g id="line2d_15">
      <g>
       <use xlink:href="#m27d221c3f8" x="254.075056" y="61.377143" style="stroke: #000000; stroke-width: 0.8"/>
      </g>
     </g>
    </g>
    <g id="xtick_8">
     <g id="line2d_16">
      <g>
       <use xlink:href="#m27d221c3f8" x="345.567809" y="61.377143" style="stroke: #000000; stroke-width: 0.8"/>
      </g>
     </g>
    </g>
   </g>
   <g id="matplotlib.axis_4">
    <g id="ytick_9"/>
    <g id="ytick_10"/>
   </g>
   <g id="patch_6">
    <path d="M 61.482813 61.377143 
L 373.473098 61.377143 
" style="fill: none; stroke: #000000; stroke-width: 0.8; stroke-linejoin: miter; stroke-linecap: square"/>
   </g>
  </g>
  <g id="axes_3">
   <g id="patch_7">
    <path d="M 384.231384 386.44 
L 438.022812 386.44 
L 438.022812 72.212571 
L 384.231384 72.212571 
z
" style="fill: #ffffff"/>
   </g>
   <g id="PolyCollection_2">
    <path d="M 384.438185 547.834557 
L 384.231384 547.834557 
L 384.231384 544.633469 
L 384.231384 541.432381 
L 384.231384 538.231293 
L 384.231384 535.030205 
L 384.231384 531.829116 
L 384.231384 528.628028 
L 384.231384 525.42694 
L 384.231384 522.225852 
L 384.231384 519.024764 
L 384.231384 515.823676 
L 384.231384 512.622588 
L 384.231384 509.421499 
L 384.231384 506.220411 
L 384.231384 503.019323 
L 384.231384 499.818235 
L 384.231384 496.617147 
L 384.231384 493.416059 
L 384.231384 490.21497 
L 384.231384 487.013882 
L 384.231384 483.812794 
L 384.231384 480.611706 
L 384.231384 477.410618 
L 384.231384 474.20953 
L 384.231384 471.008441 
L 384.231384 467.807353 
L 384.231384 464.606265 
L 384.231384 461.405177 
L 384.231384 458.204089 
L 384.231384 455.003001 
L 384.231384 451.801913 
L 384.231384 448.600824 
L 384.231384 445.399736 
L 384.231384 442.198648 
L 384.231384 438.99756 
L 384.231384 435.796472 
L 384.231384 432.595384 
L 384.231384 429.394295 
L 384.231384 426.193207 
L 384.231384 422.992119 
L 384.231384 419.791031 
L 384.231384 416.589943 
L 384.231384 413.388855 
L 384.231384 410.187767 
L 384.231384 406.986678 
L 384.231384 403.78559 
L 384.231384 400.584502 
L 384.231384 397.383414 
L 384.231384 394.182326 
L 384.231384 390.981238 
L 384.231384 387.780149 
L 384.231384 384.579061 
L 384.231384 381.377973 
L 384.231384 378.176885 
L 384.231384 374.975797 
L 384.231384 371.774709 
L 384.231384 368.573621 
L 384.231384 365.372532 
L 384.231384 362.171444 
L 384.231384 358.970356 
L 384.231384 355.769268 
L 384.231384 352.56818 
L 384.231384 349.367092 
L 384.231384 346.166003 
L 384.231384 342.964915 
L 384.231384 339.763827 
L 384.231384 336.562739 
L 384.231384 333.361651 
L 384.231384 330.160563 
L 384.231384 326.959474 
L 384.231384 323.758386 
L 384.231384 320.557298 
L 384.231384 317.35621 
L 384.231384 314.155122 
L 384.231384 310.954034 
L 384.231384 307.752946 
L 384.231384 304.551857 
L 384.231384 301.350769 
L 384.231384 298.149681 
L 384.231384 294.948593 
L 384.231384 291.747505 
L 384.231384 288.546417 
L 384.231384 285.345328 
L 384.231384 282.14424 
L 384.231384 278.943152 
L 384.231384 275.742064 
L 384.231384 272.540976 
L 384.231384 269.339888 
L 384.231384 266.1388 
L 384.231384 262.937711 
L 384.231384 259.736623 
L 384.231384 256.535535 
L 384.231384 253.334447 
L 384.231384 250.133359 
L 384.231384 246.932271 
L 384.231384 243.731182 
L 384.231384 240.530094 
L 384.231384 237.329006 
L 384.231384 234.127918 
L 384.231384 230.92683 
L 384.231384 227.725742 
L 384.231384 224.524653 
L 384.231384 221.323565 
L 384.231384 218.122477 
L 384.231384 214.921389 
L 384.231384 211.720301 
L 384.231384 208.519213 
L 384.231384 205.318125 
L 384.231384 202.117036 
L 384.231384 198.915948 
L 384.231384 195.71486 
L 384.231384 192.513772 
L 384.231384 189.312684 
L 384.231384 186.111596 
L 384.231384 182.910507 
L 384.231384 179.709419 
L 384.231384 176.508331 
L 384.231384 173.307243 
L 384.231384 170.106155 
L 384.231384 166.905067 
L 384.231384 163.703979 
L 384.231384 160.50289 
L 384.231384 157.301802 
L 384.231384 154.100714 
L 384.231384 150.899626 
L 384.231384 147.698538 
L 384.231384 144.49745 
L 384.231384 141.296361 
L 384.231384 138.095273 
L 384.231384 134.894185 
L 384.231384 131.693097 
L 384.231384 128.492009 
L 384.231384 125.290921 
L 384.231384 122.089832 
L 384.231384 118.888744 
L 384.231384 115.687656 
L 384.231384 112.486568 
L 384.231384 109.28548 
L 384.231384 106.084392 
L 384.231384 102.883304 
L 384.231384 99.682215 
L 384.231384 96.481127 
L 384.231384 93.280039 
L 384.231384 90.078951 
L 384.231384 86.877863 
L 384.231384 83.676775 
L 384.231384 80.475686 
L 384.231384 77.274598 
L 384.231384 74.07351 
L 384.231384 70.872422 
L 384.231384 67.671334 
L 384.231384 64.470246 
L 384.231384 61.269158 
L 384.231384 58.068069 
L 384.231384 54.866981 
L 384.231384 51.665893 
L 384.231384 48.464805 
L 384.231384 45.263717 
L 384.231384 42.062629 
L 384.231384 38.86154 
L 384.231384 35.660452 
L 384.231384 32.459364 
L 384.231384 29.258276 
L 384.231384 26.057188 
L 384.231384 22.8561 
L 384.231384 19.655011 
L 384.231384 16.453923 
L 384.231384 13.252835 
L 384.231384 10.051747 
L 384.231384 6.850659 
L 384.231384 3.649571 
L 384.231384 0.448483 
L 384.231384 -2.752606 
L 384.231384 -5.953694 
L 384.231384 -9.154782 
L 384.231384 -12.35587 
L 384.231384 -15.556958 
L 384.231384 -18.758046 
L 384.231384 -21.959135 
L 384.231384 -25.160223 
L 384.231384 -28.361311 
L 384.231384 -31.562399 
L 384.231384 -34.763487 
L 384.231384 -37.964575 
L 384.231384 -41.165663 
L 384.231384 -44.366752 
L 384.231384 -47.56784 
L 384.231384 -50.768928 
L 384.231384 -53.970016 
L 384.231384 -57.171104 
L 384.231384 -60.372192 
L 384.231384 -63.573281 
L 384.231384 -66.774369 
L 384.231384 -69.975457 
L 384.231384 -73.176545 
L 384.231384 -76.377633 
L 384.231384 -79.578721 
L 384.231384 -82.77981 
L 384.231384 -85.980898 
L 384.231384 -89.181986 
L 384.342435 -89.181986 
L 384.342435 -89.181986 
L 384.362645 -85.980898 
L 384.386095 -82.77981 
L 384.413222 -79.578721 
L 384.444504 -76.377633 
L 384.480469 -73.176545 
L 384.521689 -69.975457 
L 384.568788 -66.774369 
L 384.622437 -63.573281 
L 384.68336 -60.372192 
L 384.752329 -57.171104 
L 384.830166 -53.970016 
L 384.917742 -50.768928 
L 385.015969 -47.56784 
L 385.125805 -44.366752 
L 385.248241 -41.165663 
L 385.384302 -37.964575 
L 385.535036 -34.763487 
L 385.70151 -31.562399 
L 385.884798 -28.361311 
L 386.085975 -25.160223 
L 386.306104 -21.959135 
L 386.546225 -18.758046 
L 386.807344 -15.556958 
L 387.090416 -12.35587 
L 387.39634 -9.154782 
L 387.725936 -5.953694 
L 388.079939 -2.752606 
L 388.45898 0.448483 
L 388.863579 3.649571 
L 389.294127 6.850659 
L 389.750877 10.051747 
L 390.233935 13.252835 
L 390.743251 16.453923 
L 391.278611 19.655011 
L 391.839635 22.8561 
L 392.425773 26.057188 
L 393.036304 29.258276 
L 393.670341 32.459364 
L 394.326836 35.660452 
L 395.00459 38.86154 
L 395.70226 42.062629 
L 396.418376 45.263717 
L 397.15136 48.464805 
L 397.89954 51.665893 
L 398.661176 54.866981 
L 399.43448 58.068069 
L 400.217645 61.269158 
L 401.008867 64.470246 
L 401.806376 67.671334 
L 402.608458 70.872422 
L 403.413488 74.07351 
L 404.21995 77.274598 
L 405.026464 80.475686 
L 405.831807 83.676775 
L 406.634931 86.877863 
L 407.43498 90.078951 
L 408.231302 93.280039 
L 409.023454 96.481127 
L 409.811205 99.682215 
L 410.594537 102.883304 
L 411.373629 106.084392 
L 412.148853 109.28548 
L 412.920749 112.486568 
L 413.69 115.687656 
L 414.457407 118.888744 
L 415.223851 122.089832 
L 415.990259 125.290921 
L 416.757556 128.492009 
L 417.526626 131.693097 
L 418.298265 134.894185 
L 419.073132 138.095273 
L 419.851701 141.296361 
L 420.634221 144.49745 
L 421.420666 147.698538 
L 422.210702 150.899626 
L 423.003647 154.100714 
L 423.798446 157.301802 
L 424.593648 160.50289 
L 425.387392 163.703979 
L 426.177401 166.905067 
L 426.960988 170.106155 
L 427.735067 173.307243 
L 428.496178 176.508331 
L 429.24052 179.709419 
L 429.963992 182.910507 
L 430.662248 186.111596 
L 431.330754 189.312684 
L 431.964857 192.513772 
L 432.559859 195.71486 
L 433.111094 198.915948 
L 433.614012 202.117036 
L 434.064261 205.318125 
L 434.457769 208.519213 
L 434.79083 211.720301 
L 435.060177 214.921389 
L 435.263054 218.122477 
L 435.397283 221.323565 
L 435.461316 224.524653 
L 435.454283 227.725742 
L 435.376024 230.92683 
L 435.227106 234.127918 
L 435.008834 237.329006 
L 434.723242 240.530094 
L 434.373073 243.731182 
L 433.961742 246.932271 
L 433.493289 250.133359 
L 432.972317 253.334447 
L 432.403924 256.535535 
L 431.793615 259.736623 
L 431.147216 262.937711 
L 430.470777 266.1388 
L 429.77047 269.339888 
L 429.052485 272.540976 
L 428.322927 275.742064 
L 427.587717 278.943152 
L 426.852488 282.14424 
L 426.122502 285.345328 
L 425.40256 288.546417 
L 424.696932 291.747505 
L 424.009292 294.948593 
L 423.342671 298.149681 
L 422.699417 301.350769 
L 422.081171 304.551857 
L 421.488862 307.752946 
L 420.922711 310.954034 
L 420.382246 314.155122 
L 419.866338 317.35621 
L 419.373246 320.557298 
L 418.900667 323.758386 
L 418.445808 326.959474 
L 418.005455 330.160563 
L 417.576054 333.361651 
L 417.153794 336.562739 
L 416.734698 339.763827 
L 416.314708 342.964915 
L 415.889774 346.166003 
L 415.455939 349.367092 
L 415.00942 352.56818 
L 414.546681 355.769268 
L 414.064504 358.970356 
L 413.560045 362.171444 
L 413.030888 365.372532 
L 412.475085 368.573621 
L 411.891183 371.774709 
L 411.278247 374.975797 
L 410.63587 378.176885 
L 409.964167 381.377973 
L 409.263772 384.579061 
L 408.535809 387.780149 
L 407.781871 390.981238 
L 407.003976 394.182326 
L 406.204534 397.383414 
L 405.386291 400.584502 
L 404.552279 403.78559 
L 403.705764 406.986678 
L 402.850187 410.187767 
L 401.989106 413.388855 
L 401.12614 416.589943 
L 400.264915 419.791031 
L 399.409012 422.992119 
L 398.561917 426.193207 
L 397.726974 429.394295 
L 396.907351 432.595384 
L 396.106001 435.796472 
L 395.32563 438.99756 
L 394.568683 442.198648 
L 393.837315 445.399736 
L 393.133387 448.600824 
L 392.458455 451.801913 
L 391.813771 455.003001 
L 391.200284 458.204089 
L 390.618651 461.405177 
L 390.069244 464.606265 
L 389.552169 467.807353 
L 389.067283 471.008441 
L 388.614213 474.20953 
L 388.192377 477.410618 
L 387.801011 480.611706 
L 387.439187 483.812794 
L 387.105843 487.013882 
L 386.7998 490.21497 
L 386.519789 493.416059 
L 386.264475 496.617147 
L 386.032471 499.818235 
L 385.822364 503.019323 
L 385.632728 506.220411 
L 385.462144 509.421499 
L 385.30921 512.622588 
L 385.172556 515.823676 
L 385.050854 519.024764 
L 384.942826 522.225852 
L 384.84725 525.42694 
L 384.762969 528.628028 
L 384.68889 531.829116 
L 384.623992 535.030205 
L 384.56732 538.231293 
L 384.517992 541.432381 
L 384.475196 544.633469 
L 384.438185 547.834557 
z
" clip-path="url(#pfa5d2c2184)" style="fill: #1f77b4; fill-opacity: 0.25; stroke: #1f77b4"/>
   </g>
   <g id="matplotlib.axis_5">
    <g id="xtick_9"/>
    <g id="xtick_10"/>
   </g>
   <g id="matplotlib.axis_6">
    <g id="ytick_11">
     <g id="line2d_17">
      <g>
       <use xlink:href="#ma51fad60ee" x="384.231384" y="354.303104" style="stroke: #000000; stroke-width: 0.8"/>
      </g>
     </g>
    </g>
    <g id="ytick_12">
     <g id="line2d_18">
      <g>
       <use xlink:href="#ma51fad60ee" x="384.231384" y="318.595442" style="stroke: #000000; stroke-width: 0.8"/>
      </g>
     </g>
    </g>
    <g id="ytick_13">
     <g id="line2d_19">
      <g>
       <use xlink:href="#ma51fad60ee" x="384.231384" y="282.887779" style="stroke: #000000; stroke-width: 0.8"/>
      </g>
     </g>
    </g>
    <g id="ytick_14">
     <g id="line2d_20">
      <g>
       <use xlink:href="#ma51fad60ee" x="384.231384" y="247.180117" style="stroke: #000000; stroke-width: 0.8"/>
      </g>
     </g>
    </g>
    <g id="ytick_15">
     <g id="line2d_21">
      <g>
       <use xlink:href="#ma51fad60ee" x="384.231384" y="211.472455" style="stroke: #000000; stroke-width: 0.8"/>
      </g>
     </g>
    </g>
    <g id="ytick_16">
     <g id="line2d_22">
      <g>
       <use xlink:href="#ma51fad60ee" x="384.231384" y="175.764792" style="stroke: #000000; stroke-width: 0.8"/>
      </g>
     </g>
    </g>
    <g id="ytick_17">
     <g id="line2d_23">
      <g>
       <use xlink:href="#ma51fad60ee" x="384.231384" y="140.05713" style="stroke: #000000; stroke-width: 0.8"/>
      </g>
     </g>
    </g>
    <g id="ytick_18">
     <g id="line2d_24">
      <g>
       <use xlink:href="#ma51fad60ee" x="384.231384" y="104.349468" style="stroke: #000000; stroke-width: 0.8"/>
      </g>
     </g>
    </g>
   </g>
   <g id="patch_8">
    <path d="M 384.231384 386.44 
L 384.231384 72.212571 
" style="fill: none; stroke: #000000; stroke-width: 0.8; stroke-linejoin: miter; stroke-linecap: square"/>
   </g>
  </g>
 </g>
 <defs>
  <clipPath id="p4b099b5210">
   <rect x="61.482813" y="72.212571" width="311.990286" height="314.227429"/>
  </clipPath>
  <clipPath id="pddf4679a87">
   <rect x="61.482813" y="7.2" width="311.990286" height="54.177143"/>
  </clipPath>
  <clipPath id="pfa5d2c2184">
   <rect x="384.231384" y="72.212571" width="53.791429" height="314.227429"/>
  </clipPath>
 </defs>
</svg>
