<?xml version="1.0" encoding="utf-8" standalone="no"?>
<!DOCTYPE svg PUBLIC "-//W3C//DTD SVG 1.1//EN"
  "http://www.w3.org/Graphics/SVG/1.1/DTD/svg11.dtd">
<svg xmlns:xlink="http://www.w3.org/1999/xlink" width="440.38375pt" height="438.513437pt" viewBox="0 0 440.38375 438.513437" xmlns="http://www.w3.org/2000/svg" version="1.1">
 <metadata>
  <rdf:RDF xmlns:dc="http://purl.org/dc/elements/1.1/" xmlns:cc="http://creativecommons.org/ns#" xmlns:rdf="http://www.w3.org/1999/02/22-rdf-syntax-ns#">
   <cc:Work>
    <dc:type rdf:resource="http://purl.org/dc/dcmitype/StillImage"/>
    <dc:date>2022-02-23T14:20:03.648819</dc:date>
    <dc:format>image/svg+xml</dc:format>
    <dc:creator>
     <cc:Agent>
      <dc:title>Matplotlib v3.5.1, https://matplotlib.org/</dc:title>
     </cc:Agent>
    </dc:creator>
   </cc:Work>
  </rdf:RDF>
 </metadata>
 <defs>
  <style type="text/css">*{stroke-linejoin: round; stroke-linecap: butt}</style>
 </defs>
 <g id="figure_1">
  <g id="patch_1">
   <path d="M 0 438.513437 
L 440.38375 438.513437 
L 440.38375 0 
L 0 0 
z
" style="fill: #ffffff"/>
  </g>
  <g id="axes_1">
   <g id="patch_2">
    <path d="M 56.64375 386.44 
L 368.634036 386.44 
L 368.634036 72.212571 
L 56.64375 72.212571 
z
" style="fill: #ffffff"/>
   </g>
   <g id="PathCollection_1">
    <defs>
     <path id="m13b53608a7" d="M 0 4.330127 
C 1.148363 4.330127 2.249847 3.873878 3.061862 3.061862 
C 3.873878 2.249847 4.330127 1.148363 4.330127 0 
C 4.330127 -1.148363 3.873878 -2.249847 3.061862 -3.061862 
C 2.249847 -3.873878 1.148363 -4.330127 0 -4.330127 
C -1.148363 -4.330127 -2.249847 -3.873878 -3.061862 -3.061862 
C -3.873878 -2.249847 -4.330127 -1.148363 -4.330127 0 
C -4.330127 1.148363 -3.873878 2.249847 -3.061862 3.061862 
C -2.249847 3.873878 -1.148363 4.330127 0 4.330127 
z
" style="stroke: #ffffff; stroke-opacity: 0.5; stroke-width: 0.69282"/>
    </defs>
    <g clip-path="url(#pab0ec82142)">
     <use xlink:href="#m13b53608a7" x="70.825127" y="372.156935" style="fill: #1f77b4; fill-opacity: 0.5; stroke: #ffffff; stroke-opacity: 0.5; stroke-width: 0.69282"/>
     <use xlink:href="#m13b53608a7" x="70.825127" y="219.804242" style="fill: #1f77b4; fill-opacity: 0.5; stroke: #ffffff; stroke-opacity: 0.5; stroke-width: 0.69282"/>
     <use xlink:href="#m13b53608a7" x="354.452659" y="86.495636" style="fill: #1f77b4; fill-opacity: 0.5; stroke: #ffffff; stroke-opacity: 0.5; stroke-width: 0.69282"/>
     <use xlink:href="#m13b53608a7" x="93.698315" y="181.716069" style="fill: #1f77b4; fill-opacity: 0.5; stroke: #ffffff; stroke-opacity: 0.5; stroke-width: 0.69282"/>
     <use xlink:href="#m13b53608a7" x="70.825127" y="276.936502" style="fill: #1f77b4; fill-opacity: 0.5; stroke: #ffffff; stroke-opacity: 0.5; stroke-width: 0.69282"/>
     <use xlink:href="#m13b53608a7" x="70.825127" y="334.068762" style="fill: #1f77b4; fill-opacity: 0.5; stroke: #ffffff; stroke-opacity: 0.5; stroke-width: 0.69282"/>
     <use xlink:href="#m13b53608a7" x="281.258457" y="143.627896" style="fill: #1f77b4; fill-opacity: 0.5; stroke: #ffffff; stroke-opacity: 0.5; stroke-width: 0.69282"/>
     <use xlink:href="#m13b53608a7" x="75.399764" y="219.804242" style="fill: #1f77b4; fill-opacity: 0.5; stroke: #ffffff; stroke-opacity: 0.5; stroke-width: 0.69282"/>
     <use xlink:href="#m13b53608a7" x="79.974402" y="200.760156" style="fill: #1f77b4; fill-opacity: 0.5; stroke: #ffffff; stroke-opacity: 0.5; stroke-width: 0.69282"/>
     <use xlink:href="#m13b53608a7" x="70.825127" y="372.156935" style="fill: #1f77b4; fill-opacity: 0.5; stroke: #ffffff; stroke-opacity: 0.5; stroke-width: 0.69282"/>
     <use xlink:href="#m13b53608a7" x="70.825127" y="372.156935" style="fill: #1f77b4; fill-opacity: 0.5; stroke: #ffffff; stroke-opacity: 0.5; stroke-width: 0.69282"/>
    </g>
   </g>
   <g id="matplotlib.axis_1">
    <g id="xtick_1">
     <g id="line2d_1">
      <defs>
       <path id="me1522bfea7" d="M 0 0 
L 0 3.5 
" style="stroke: #000000; stroke-width: 0.8"/>
      </defs>
      <g>
       <use xlink:href="#me1522bfea7" x="66.250489" y="386.44" style="stroke: #000000; stroke-width: 0.8"/>
      </g>
     </g>
     <g id="text_1">
      <!-- 0 -->
      <g transform="translate(61.478614 404.837656)scale(0.15 -0.15)">
       <defs>
        <path id="DejaVuSans-30" d="M 2034 4250 
Q 1547 4250 1301 3770 
Q 1056 3291 1056 2328 
Q 1056 1369 1301 889 
Q 1547 409 2034 409 
Q 2525 409 2770 889 
Q 3016 1369 3016 2328 
Q 3016 3291 2770 3770 
Q 2525 4250 2034 4250 
z
M 2034 4750 
Q 2819 4750 3233 4129 
Q 3647 3509 3647 2328 
Q 3647 1150 3233 529 
Q 2819 -91 2034 -91 
Q 1250 -91 836 529 
Q 422 1150 422 2328 
Q 422 3509 836 4129 
Q 1250 4750 2034 4750 
z
" transform="scale(0.015625)"/>
       </defs>
       <use xlink:href="#DejaVuSans-30"/>
      </g>
     </g>
    </g>
    <g id="xtick_2">
     <g id="line2d_2">
      <g>
       <use xlink:href="#me1522bfea7" x="157.743241" y="386.44" style="stroke: #000000; stroke-width: 0.8"/>
      </g>
     </g>
     <g id="text_2">
      <!-- 20 -->
      <g transform="translate(148.199491 404.837656)scale(0.15 -0.15)">
       <defs>
        <path id="DejaVuSans-32" d="M 1228 531 
L 3431 531 
L 3431 0 
L 469 0 
L 469 531 
Q 828 903 1448 1529 
Q 2069 2156 2228 2338 
Q 2531 2678 2651 2914 
Q 2772 3150 2772 3378 
Q 2772 3750 2511 3984 
Q 2250 4219 1831 4219 
Q 1534 4219 1204 4116 
Q 875 4013 500 3803 
L 500 4441 
Q 881 4594 1212 4672 
Q 1544 4750 1819 4750 
Q 2544 4750 2975 4387 
Q 3406 4025 3406 3419 
Q 3406 3131 3298 2873 
Q 3191 2616 2906 2266 
Q 2828 2175 2409 1742 
Q 1991 1309 1228 531 
z
" transform="scale(0.015625)"/>
       </defs>
       <use xlink:href="#DejaVuSans-32"/>
       <use xlink:href="#DejaVuSans-30" x="63.623047"/>
      </g>
     </g>
    </g>
    <g id="xtick_3">
     <g id="line2d_3">
      <g>
       <use xlink:href="#me1522bfea7" x="249.235994" y="386.44" style="stroke: #000000; stroke-width: 0.8"/>
      </g>
     </g>
     <g id="text_3">
      <!-- 40 -->
      <g transform="translate(239.692244 404.837656)scale(0.15 -0.15)">
       <defs>
        <path id="DejaVuSans-34" d="M 2419 4116 
L 825 1625 
L 2419 1625 
L 2419 4116 
z
M 2253 4666 
L 3047 4666 
L 3047 1625 
L 3713 1625 
L 3713 1100 
L 3047 1100 
L 3047 0 
L 2419 0 
L 2419 1100 
L 313 1100 
L 313 1709 
L 2253 4666 
z
" transform="scale(0.015625)"/>
       </defs>
       <use xlink:href="#DejaVuSans-34"/>
       <use xlink:href="#DejaVuSans-30" x="63.623047"/>
      </g>
     </g>
    </g>
    <g id="xtick_4">
     <g id="line2d_4">
      <g>
       <use xlink:href="#me1522bfea7" x="340.728746" y="386.44" style="stroke: #000000; stroke-width: 0.8"/>
      </g>
     </g>
     <g id="text_4">
      <!-- 60 -->
      <g transform="translate(331.184996 404.837656)scale(0.15 -0.15)">
       <defs>
        <path id="DejaVuSans-36" d="M 2113 2584 
Q 1688 2584 1439 2293 
Q 1191 2003 1191 1497 
Q 1191 994 1439 701 
Q 1688 409 2113 409 
Q 2538 409 2786 701 
Q 3034 994 3034 1497 
Q 3034 2003 2786 2293 
Q 2538 2584 2113 2584 
z
M 3366 4563 
L 3366 3988 
Q 3128 4100 2886 4159 
Q 2644 4219 2406 4219 
Q 1781 4219 1451 3797 
Q 1122 3375 1075 2522 
Q 1259 2794 1537 2939 
Q 1816 3084 2150 3084 
Q 2853 3084 3261 2657 
Q 3669 2231 3669 1497 
Q 3669 778 3244 343 
Q 2819 -91 2113 -91 
Q 1303 -91 875 529 
Q 447 1150 447 2328 
Q 447 3434 972 4092 
Q 1497 4750 2381 4750 
Q 2619 4750 2861 4703 
Q 3103 4656 3366 4563 
z
" transform="scale(0.015625)"/>
       </defs>
       <use xlink:href="#DejaVuSans-36"/>
       <use xlink:href="#DejaVuSans-30" x="63.623047"/>
      </g>
     </g>
    </g>
    <g id="text_5">
     <!-- # Commits -->
     <g transform="translate(156.590455 427.154062)scale(0.2 -0.2)">
      <defs>
       <path id="DejaVuSans-23" d="M 3272 2816 
L 2363 2816 
L 2100 1772 
L 3016 1772 
L 3272 2816 
z
M 2803 4594 
L 2478 3297 
L 3391 3297 
L 3719 4594 
L 4219 4594 
L 3897 3297 
L 4872 3297 
L 4872 2816 
L 3775 2816 
L 3519 1772 
L 4513 1772 
L 4513 1294 
L 3397 1294 
L 3072 0 
L 2572 0 
L 2894 1294 
L 1978 1294 
L 1656 0 
L 1153 0 
L 1478 1294 
L 494 1294 
L 494 1772 
L 1594 1772 
L 1856 2816 
L 850 2816 
L 850 3297 
L 1978 3297 
L 2297 4594 
L 2803 4594 
z
" transform="scale(0.015625)"/>
       <path id="DejaVuSans-20" transform="scale(0.015625)"/>
       <path id="DejaVuSans-43" d="M 4122 4306 
L 4122 3641 
Q 3803 3938 3442 4084 
Q 3081 4231 2675 4231 
Q 1875 4231 1450 3742 
Q 1025 3253 1025 2328 
Q 1025 1406 1450 917 
Q 1875 428 2675 428 
Q 3081 428 3442 575 
Q 3803 722 4122 1019 
L 4122 359 
Q 3791 134 3420 21 
Q 3050 -91 2638 -91 
Q 1578 -91 968 557 
Q 359 1206 359 2328 
Q 359 3453 968 4101 
Q 1578 4750 2638 4750 
Q 3056 4750 3426 4639 
Q 3797 4528 4122 4306 
z
" transform="scale(0.015625)"/>
       <path id="DejaVuSans-6f" d="M 1959 3097 
Q 1497 3097 1228 2736 
Q 959 2375 959 1747 
Q 959 1119 1226 758 
Q 1494 397 1959 397 
Q 2419 397 2687 759 
Q 2956 1122 2956 1747 
Q 2956 2369 2687 2733 
Q 2419 3097 1959 3097 
z
M 1959 3584 
Q 2709 3584 3137 3096 
Q 3566 2609 3566 1747 
Q 3566 888 3137 398 
Q 2709 -91 1959 -91 
Q 1206 -91 779 398 
Q 353 888 353 1747 
Q 353 2609 779 3096 
Q 1206 3584 1959 3584 
z
" transform="scale(0.015625)"/>
       <path id="DejaVuSans-6d" d="M 3328 2828 
Q 3544 3216 3844 3400 
Q 4144 3584 4550 3584 
Q 5097 3584 5394 3201 
Q 5691 2819 5691 2113 
L 5691 0 
L 5113 0 
L 5113 2094 
Q 5113 2597 4934 2840 
Q 4756 3084 4391 3084 
Q 3944 3084 3684 2787 
Q 3425 2491 3425 1978 
L 3425 0 
L 2847 0 
L 2847 2094 
Q 2847 2600 2669 2842 
Q 2491 3084 2119 3084 
Q 1678 3084 1418 2786 
Q 1159 2488 1159 1978 
L 1159 0 
L 581 0 
L 581 3500 
L 1159 3500 
L 1159 2956 
Q 1356 3278 1631 3431 
Q 1906 3584 2284 3584 
Q 2666 3584 2933 3390 
Q 3200 3197 3328 2828 
z
" transform="scale(0.015625)"/>
       <path id="DejaVuSans-69" d="M 603 3500 
L 1178 3500 
L 1178 0 
L 603 0 
L 603 3500 
z
M 603 4863 
L 1178 4863 
L 1178 4134 
L 603 4134 
L 603 4863 
z
" transform="scale(0.015625)"/>
       <path id="DejaVuSans-74" d="M 1172 4494 
L 1172 3500 
L 2356 3500 
L 2356 3053 
L 1172 3053 
L 1172 1153 
Q 1172 725 1289 603 
Q 1406 481 1766 481 
L 2356 481 
L 2356 0 
L 1766 0 
Q 1100 0 847 248 
Q 594 497 594 1153 
L 594 3053 
L 172 3053 
L 172 3500 
L 594 3500 
L 594 4494 
L 1172 4494 
z
" transform="scale(0.015625)"/>
       <path id="DejaVuSans-73" d="M 2834 3397 
L 2834 2853 
Q 2591 2978 2328 3040 
Q 2066 3103 1784 3103 
Q 1356 3103 1142 2972 
Q 928 2841 928 2578 
Q 928 2378 1081 2264 
Q 1234 2150 1697 2047 
L 1894 2003 
Q 2506 1872 2764 1633 
Q 3022 1394 3022 966 
Q 3022 478 2636 193 
Q 2250 -91 1575 -91 
Q 1294 -91 989 -36 
Q 684 19 347 128 
L 347 722 
Q 666 556 975 473 
Q 1284 391 1588 391 
Q 1994 391 2212 530 
Q 2431 669 2431 922 
Q 2431 1156 2273 1281 
Q 2116 1406 1581 1522 
L 1381 1569 
Q 847 1681 609 1914 
Q 372 2147 372 2553 
Q 372 3047 722 3315 
Q 1072 3584 1716 3584 
Q 2034 3584 2315 3537 
Q 2597 3491 2834 3397 
z
" transform="scale(0.015625)"/>
      </defs>
      <use xlink:href="#DejaVuSans-23"/>
      <use xlink:href="#DejaVuSans-20" x="83.789062"/>
      <use xlink:href="#DejaVuSans-43" x="115.576172"/>
      <use xlink:href="#DejaVuSans-6f" x="185.400391"/>
      <use xlink:href="#DejaVuSans-6d" x="246.582031"/>
      <use xlink:href="#DejaVuSans-6d" x="343.994141"/>
      <use xlink:href="#DejaVuSans-69" x="441.40625"/>
      <use xlink:href="#DejaVuSans-74" x="469.189453"/>
      <use xlink:href="#DejaVuSans-73" x="508.398438"/>
     </g>
    </g>
   </g>
   <g id="matplotlib.axis_2">
    <g id="ytick_1">
     <g id="line2d_5">
      <defs>
       <path id="mcd42aba367" d="M 0 0 
L -3.5 0 
" style="stroke: #000000; stroke-width: 0.8"/>
      </defs>
      <g>
       <use xlink:href="#mcd42aba367" x="56.64375" y="353.112848" style="stroke: #000000; stroke-width: 0.8"/>
      </g>
     </g>
     <g id="text_6">
      <!-- 2 -->
      <g transform="translate(40.1 358.811677)scale(0.15 -0.15)">
       <use xlink:href="#DejaVuSans-32"/>
      </g>
     </g>
    </g>
    <g id="ytick_2">
     <g id="line2d_6">
      <g>
       <use xlink:href="#mcd42aba367" x="56.64375" y="315.024675" style="stroke: #000000; stroke-width: 0.8"/>
      </g>
     </g>
     <g id="text_7">
      <!-- 4 -->
      <g transform="translate(40.1 320.723503)scale(0.15 -0.15)">
       <use xlink:href="#DejaVuSans-34"/>
      </g>
     </g>
    </g>
    <g id="ytick_3">
     <g id="line2d_7">
      <g>
       <use xlink:href="#mcd42aba367" x="56.64375" y="276.936502" style="stroke: #000000; stroke-width: 0.8"/>
      </g>
     </g>
     <g id="text_8">
      <!-- 6 -->
      <g transform="translate(40.1 282.63533)scale(0.15 -0.15)">
       <use xlink:href="#DejaVuSans-36"/>
      </g>
     </g>
    </g>
    <g id="ytick_4">
     <g id="line2d_8">
      <g>
       <use xlink:href="#mcd42aba367" x="56.64375" y="238.848329" style="stroke: #000000; stroke-width: 0.8"/>
      </g>
     </g>
     <g id="text_9">
      <!-- 8 -->
      <g transform="translate(40.1 244.547157)scale(0.15 -0.15)">
       <defs>
        <path id="DejaVuSans-38" d="M 2034 2216 
Q 1584 2216 1326 1975 
Q 1069 1734 1069 1313 
Q 1069 891 1326 650 
Q 1584 409 2034 409 
Q 2484 409 2743 651 
Q 3003 894 3003 1313 
Q 3003 1734 2745 1975 
Q 2488 2216 2034 2216 
z
M 1403 2484 
Q 997 2584 770 2862 
Q 544 3141 544 3541 
Q 544 4100 942 4425 
Q 1341 4750 2034 4750 
Q 2731 4750 3128 4425 
Q 3525 4100 3525 3541 
Q 3525 3141 3298 2862 
Q 3072 2584 2669 2484 
Q 3125 2378 3379 2068 
Q 3634 1759 3634 1313 
Q 3634 634 3220 271 
Q 2806 -91 2034 -91 
Q 1263 -91 848 271 
Q 434 634 434 1313 
Q 434 1759 690 2068 
Q 947 2378 1403 2484 
z
M 1172 3481 
Q 1172 3119 1398 2916 
Q 1625 2713 2034 2713 
Q 2441 2713 2670 2916 
Q 2900 3119 2900 3481 
Q 2900 3844 2670 4047 
Q 2441 4250 2034 4250 
Q 1625 4250 1398 4047 
Q 1172 3844 1172 3481 
z
" transform="scale(0.015625)"/>
       </defs>
       <use xlink:href="#DejaVuSans-38"/>
      </g>
     </g>
    </g>
    <g id="ytick_5">
     <g id="line2d_9">
      <g>
       <use xlink:href="#mcd42aba367" x="56.64375" y="200.760156" style="stroke: #000000; stroke-width: 0.8"/>
      </g>
     </g>
     <g id="text_10">
      <!-- 10 -->
      <g transform="translate(30.55625 206.458984)scale(0.15 -0.15)">
       <defs>
        <path id="DejaVuSans-31" d="M 794 531 
L 1825 531 
L 1825 4091 
L 703 3866 
L 703 4441 
L 1819 4666 
L 2450 4666 
L 2450 531 
L 3481 531 
L 3481 0 
L 794 0 
L 794 531 
z
" transform="scale(0.015625)"/>
       </defs>
       <use xlink:href="#DejaVuSans-31"/>
       <use xlink:href="#DejaVuSans-30" x="63.623047"/>
      </g>
     </g>
    </g>
    <g id="ytick_6">
     <g id="line2d_10">
      <g>
       <use xlink:href="#mcd42aba367" x="56.64375" y="162.671983" style="stroke: #000000; stroke-width: 0.8"/>
      </g>
     </g>
     <g id="text_11">
      <!-- 12 -->
      <g transform="translate(30.55625 168.370811)scale(0.15 -0.15)">
       <use xlink:href="#DejaVuSans-31"/>
       <use xlink:href="#DejaVuSans-32" x="63.623047"/>
      </g>
     </g>
    </g>
    <g id="ytick_7">
     <g id="line2d_11">
      <g>
       <use xlink:href="#mcd42aba367" x="56.64375" y="124.58381" style="stroke: #000000; stroke-width: 0.8"/>
      </g>
     </g>
     <g id="text_12">
      <!-- 14 -->
      <g transform="translate(30.55625 130.282638)scale(0.15 -0.15)">
       <use xlink:href="#DejaVuSans-31"/>
       <use xlink:href="#DejaVuSans-34" x="63.623047"/>
      </g>
     </g>
    </g>
    <g id="ytick_8">
     <g id="line2d_12">
      <g>
       <use xlink:href="#mcd42aba367" x="56.64375" y="86.495636" style="stroke: #000000; stroke-width: 0.8"/>
      </g>
     </g>
     <g id="text_13">
      <!-- 16 -->
      <g transform="translate(30.55625 92.194464)scale(0.15 -0.15)">
       <use xlink:href="#DejaVuSans-31"/>
       <use xlink:href="#DejaVuSans-36" x="63.623047"/>
      </g>
     </g>
    </g>
    <g id="text_14">
     <!-- # Interacting authors -->
     <g transform="translate(22.396875 336.707536)rotate(-90)scale(0.2 -0.2)">
      <defs>
       <path id="DejaVuSans-49" d="M 628 4666 
L 1259 4666 
L 1259 0 
L 628 0 
L 628 4666 
z
" transform="scale(0.015625)"/>
       <path id="DejaVuSans-6e" d="M 3513 2113 
L 3513 0 
L 2938 0 
L 2938 2094 
Q 2938 2591 2744 2837 
Q 2550 3084 2163 3084 
Q 1697 3084 1428 2787 
Q 1159 2491 1159 1978 
L 1159 0 
L 581 0 
L 581 3500 
L 1159 3500 
L 1159 2956 
Q 1366 3272 1645 3428 
Q 1925 3584 2291 3584 
Q 2894 3584 3203 3211 
Q 3513 2838 3513 2113 
z
" transform="scale(0.015625)"/>
       <path id="DejaVuSans-65" d="M 3597 1894 
L 3597 1613 
L 953 1613 
Q 991 1019 1311 708 
Q 1631 397 2203 397 
Q 2534 397 2845 478 
Q 3156 559 3463 722 
L 3463 178 
Q 3153 47 2828 -22 
Q 2503 -91 2169 -91 
Q 1331 -91 842 396 
Q 353 884 353 1716 
Q 353 2575 817 3079 
Q 1281 3584 2069 3584 
Q 2775 3584 3186 3129 
Q 3597 2675 3597 1894 
z
M 3022 2063 
Q 3016 2534 2758 2815 
Q 2500 3097 2075 3097 
Q 1594 3097 1305 2825 
Q 1016 2553 972 2059 
L 3022 2063 
z
" transform="scale(0.015625)"/>
       <path id="DejaVuSans-72" d="M 2631 2963 
Q 2534 3019 2420 3045 
Q 2306 3072 2169 3072 
Q 1681 3072 1420 2755 
Q 1159 2438 1159 1844 
L 1159 0 
L 581 0 
L 581 3500 
L 1159 3500 
L 1159 2956 
Q 1341 3275 1631 3429 
Q 1922 3584 2338 3584 
Q 2397 3584 2469 3576 
Q 2541 3569 2628 3553 
L 2631 2963 
z
" transform="scale(0.015625)"/>
       <path id="DejaVuSans-61" d="M 2194 1759 
Q 1497 1759 1228 1600 
Q 959 1441 959 1056 
Q 959 750 1161 570 
Q 1363 391 1709 391 
Q 2188 391 2477 730 
Q 2766 1069 2766 1631 
L 2766 1759 
L 2194 1759 
z
M 3341 1997 
L 3341 0 
L 2766 0 
L 2766 531 
Q 2569 213 2275 61 
Q 1981 -91 1556 -91 
Q 1019 -91 701 211 
Q 384 513 384 1019 
Q 384 1609 779 1909 
Q 1175 2209 1959 2209 
L 2766 2209 
L 2766 2266 
Q 2766 2663 2505 2880 
Q 2244 3097 1772 3097 
Q 1472 3097 1187 3025 
Q 903 2953 641 2809 
L 641 3341 
Q 956 3463 1253 3523 
Q 1550 3584 1831 3584 
Q 2591 3584 2966 3190 
Q 3341 2797 3341 1997 
z
" transform="scale(0.015625)"/>
       <path id="DejaVuSans-63" d="M 3122 3366 
L 3122 2828 
Q 2878 2963 2633 3030 
Q 2388 3097 2138 3097 
Q 1578 3097 1268 2742 
Q 959 2388 959 1747 
Q 959 1106 1268 751 
Q 1578 397 2138 397 
Q 2388 397 2633 464 
Q 2878 531 3122 666 
L 3122 134 
Q 2881 22 2623 -34 
Q 2366 -91 2075 -91 
Q 1284 -91 818 406 
Q 353 903 353 1747 
Q 353 2603 823 3093 
Q 1294 3584 2113 3584 
Q 2378 3584 2631 3529 
Q 2884 3475 3122 3366 
z
" transform="scale(0.015625)"/>
       <path id="DejaVuSans-67" d="M 2906 1791 
Q 2906 2416 2648 2759 
Q 2391 3103 1925 3103 
Q 1463 3103 1205 2759 
Q 947 2416 947 1791 
Q 947 1169 1205 825 
Q 1463 481 1925 481 
Q 2391 481 2648 825 
Q 2906 1169 2906 1791 
z
M 3481 434 
Q 3481 -459 3084 -895 
Q 2688 -1331 1869 -1331 
Q 1566 -1331 1297 -1286 
Q 1028 -1241 775 -1147 
L 775 -588 
Q 1028 -725 1275 -790 
Q 1522 -856 1778 -856 
Q 2344 -856 2625 -561 
Q 2906 -266 2906 331 
L 2906 616 
Q 2728 306 2450 153 
Q 2172 0 1784 0 
Q 1141 0 747 490 
Q 353 981 353 1791 
Q 353 2603 747 3093 
Q 1141 3584 1784 3584 
Q 2172 3584 2450 3431 
Q 2728 3278 2906 2969 
L 2906 3500 
L 3481 3500 
L 3481 434 
z
" transform="scale(0.015625)"/>
       <path id="DejaVuSans-75" d="M 544 1381 
L 544 3500 
L 1119 3500 
L 1119 1403 
Q 1119 906 1312 657 
Q 1506 409 1894 409 
Q 2359 409 2629 706 
Q 2900 1003 2900 1516 
L 2900 3500 
L 3475 3500 
L 3475 0 
L 2900 0 
L 2900 538 
Q 2691 219 2414 64 
Q 2138 -91 1772 -91 
Q 1169 -91 856 284 
Q 544 659 544 1381 
z
M 1991 3584 
L 1991 3584 
z
" transform="scale(0.015625)"/>
       <path id="DejaVuSans-68" d="M 3513 2113 
L 3513 0 
L 2938 0 
L 2938 2094 
Q 2938 2591 2744 2837 
Q 2550 3084 2163 3084 
Q 1697 3084 1428 2787 
Q 1159 2491 1159 1978 
L 1159 0 
L 581 0 
L 581 4863 
L 1159 4863 
L 1159 2956 
Q 1366 3272 1645 3428 
Q 1925 3584 2291 3584 
Q 2894 3584 3203 3211 
Q 3513 2838 3513 2113 
z
" transform="scale(0.015625)"/>
      </defs>
      <use xlink:href="#DejaVuSans-23"/>
      <use xlink:href="#DejaVuSans-20" x="83.789062"/>
      <use xlink:href="#DejaVuSans-49" x="115.576172"/>
      <use xlink:href="#DejaVuSans-6e" x="145.068359"/>
      <use xlink:href="#DejaVuSans-74" x="208.447266"/>
      <use xlink:href="#DejaVuSans-65" x="247.65625"/>
      <use xlink:href="#DejaVuSans-72" x="309.179688"/>
      <use xlink:href="#DejaVuSans-61" x="350.292969"/>
      <use xlink:href="#DejaVuSans-63" x="411.572266"/>
      <use xlink:href="#DejaVuSans-74" x="466.552734"/>
      <use xlink:href="#DejaVuSans-69" x="505.761719"/>
      <use xlink:href="#DejaVuSans-6e" x="533.544922"/>
      <use xlink:href="#DejaVuSans-67" x="596.923828"/>
      <use xlink:href="#DejaVuSans-20" x="660.400391"/>
      <use xlink:href="#DejaVuSans-61" x="692.1875"/>
      <use xlink:href="#DejaVuSans-75" x="753.466797"/>
      <use xlink:href="#DejaVuSans-74" x="816.845703"/>
      <use xlink:href="#DejaVuSans-68" x="856.054688"/>
      <use xlink:href="#DejaVuSans-6f" x="919.433594"/>
      <use xlink:href="#DejaVuSans-72" x="980.615234"/>
      <use xlink:href="#DejaVuSans-73" x="1021.728516"/>
     </g>
    </g>
   </g>
   <g id="patch_3">
    <path d="M 56.64375 386.44 
L 56.64375 72.212571 
" style="fill: none; stroke: #000000; stroke-width: 0.8; stroke-linejoin: miter; stroke-linecap: square"/>
   </g>
   <g id="patch_4">
    <path d="M 56.64375 386.44 
L 368.634036 386.44 
" style="fill: none; stroke: #000000; stroke-width: 0.8; stroke-linejoin: miter; stroke-linecap: square"/>
   </g>
  </g>
  <g id="axes_2">
   <g id="patch_5">
    <path d="M 56.64375 61.377143 
L 368.634036 61.377143 
L 368.634036 7.2 
L 56.64375 7.2 
z
" style="fill: #ffffff"/>
   </g>
   <g id="PolyCollection_1">
    <path d="M -114.660203 60.880846 
L -114.660203 61.377143 
L -111.370765 61.377143 
L -108.081327 61.377143 
L -104.791889 61.377143 
L -101.502451 61.377143 
L -98.213013 61.377143 
L -94.923574 61.377143 
L -91.634136 61.377143 
L -88.344698 61.377143 
L -85.05526 61.377143 
L -81.765822 61.377143 
L -78.476384 61.377143 
L -75.186946 61.377143 
L -71.897507 61.377143 
L -68.608069 61.377143 
L -65.318631 61.377143 
L -62.029193 61.377143 
L -58.739755 61.377143 
L -55.450317 61.377143 
L -52.160879 61.377143 
L -48.87144 61.377143 
L -45.582002 61.377143 
L -42.292564 61.377143 
L -39.003126 61.377143 
L -35.713688 61.377143 
L -32.42425 61.377143 
L -29.134811 61.377143 
L -25.845373 61.377143 
L -22.555935 61.377143 
L -19.266497 61.377143 
L -15.977059 61.377143 
L -12.687621 61.377143 
L -9.398183 61.377143 
L -6.108744 61.377143 
L -2.819306 61.377143 
L 0.470132 61.377143 
L 3.75957 61.377143 
L 7.049008 61.377143 
L 10.338446 61.377143 
L 13.627885 61.377143 
L 16.917323 61.377143 
L 20.206761 61.377143 
L 23.496199 61.377143 
L 26.785637 61.377143 
L 30.075075 61.377143 
L 33.364513 61.377143 
L 36.653952 61.377143 
L 39.94339 61.377143 
L 43.232828 61.377143 
L 46.522266 61.377143 
L 49.811704 61.377143 
L 53.101142 61.377143 
L 56.390581 61.377143 
L 59.680019 61.377143 
L 62.969457 61.377143 
L 66.258895 61.377143 
L 69.548333 61.377143 
L 72.837771 61.377143 
L 76.127209 61.377143 
L 79.416648 61.377143 
L 82.706086 61.377143 
L 85.995524 61.377143 
L 89.284962 61.377143 
L 92.5744 61.377143 
L 95.863838 61.377143 
L 99.153277 61.377143 
L 102.442715 61.377143 
L 105.732153 61.377143 
L 109.021591 61.377143 
L 112.311029 61.377143 
L 115.600467 61.377143 
L 118.889905 61.377143 
L 122.179344 61.377143 
L 125.468782 61.377143 
L 128.75822 61.377143 
L 132.047658 61.377143 
L 135.337096 61.377143 
L 138.626534 61.377143 
L 141.915973 61.377143 
L 145.205411 61.377143 
L 148.494849 61.377143 
L 151.784287 61.377143 
L 155.073725 61.377143 
L 158.363163 61.377143 
L 161.652601 61.377143 
L 164.94204 61.377143 
L 168.231478 61.377143 
L 171.520916 61.377143 
L 174.810354 61.377143 
L 178.099792 61.377143 
L 181.38923 61.377143 
L 184.678669 61.377143 
L 187.968107 61.377143 
L 191.257545 61.377143 
L 194.546983 61.377143 
L 197.836421 61.377143 
L 201.125859 61.377143 
L 204.415297 61.377143 
L 207.704736 61.377143 
L 210.994174 61.377143 
L 214.283612 61.377143 
L 217.57305 61.377143 
L 220.862488 61.377143 
L 224.151926 61.377143 
L 227.441365 61.377143 
L 230.730803 61.377143 
L 234.020241 61.377143 
L 237.309679 61.377143 
L 240.599117 61.377143 
L 243.888555 61.377143 
L 247.177993 61.377143 
L 250.467432 61.377143 
L 253.75687 61.377143 
L 257.046308 61.377143 
L 260.335746 61.377143 
L 263.625184 61.377143 
L 266.914622 61.377143 
L 270.204061 61.377143 
L 273.493499 61.377143 
L 276.782937 61.377143 
L 280.072375 61.377143 
L 283.361813 61.377143 
L 286.651251 61.377143 
L 289.940689 61.377143 
L 293.230128 61.377143 
L 296.519566 61.377143 
L 299.809004 61.377143 
L 303.098442 61.377143 
L 306.38788 61.377143 
L 309.677318 61.377143 
L 312.966757 61.377143 
L 316.256195 61.377143 
L 319.545633 61.377143 
L 322.835071 61.377143 
L 326.124509 61.377143 
L 329.413947 61.377143 
L 332.703385 61.377143 
L 335.992824 61.377143 
L 339.282262 61.377143 
L 342.5717 61.377143 
L 345.861138 61.377143 
L 349.150576 61.377143 
L 352.440014 61.377143 
L 355.729453 61.377143 
L 359.018891 61.377143 
L 362.308329 61.377143 
L 365.597767 61.377143 
L 368.887205 61.377143 
L 372.176643 61.377143 
L 375.466081 61.377143 
L 378.75552 61.377143 
L 382.044958 61.377143 
L 385.334396 61.377143 
L 388.623834 61.377143 
L 391.913272 61.377143 
L 395.20271 61.377143 
L 398.492149 61.377143 
L 401.781587 61.377143 
L 405.071025 61.377143 
L 408.360463 61.377143 
L 411.649901 61.377143 
L 414.939339 61.377143 
L 418.228777 61.377143 
L 421.518216 61.377143 
L 424.807654 61.377143 
L 428.097092 61.377143 
L 431.38653 61.377143 
L 434.675968 61.377143 
L 437.965406 61.377143 
L 441.254845 61.377143 
L 444.544283 61.377143 
L 447.833721 61.377143 
L 451.123159 61.377143 
L 454.412597 61.377143 
L 457.702035 61.377143 
L 460.991473 61.377143 
L 464.280912 61.377143 
L 467.57035 61.377143 
L 470.859788 61.377143 
L 474.149226 61.377143 
L 477.438664 61.377143 
L 480.728102 61.377143 
L 484.017541 61.377143 
L 487.306979 61.377143 
L 490.596417 61.377143 
L 493.885855 61.377143 
L 497.175293 61.377143 
L 500.464731 61.377143 
L 503.754169 61.377143 
L 507.043608 61.377143 
L 510.333046 61.377143 
L 513.622484 61.377143 
L 516.911922 61.377143 
L 520.20136 61.377143 
L 523.490798 61.377143 
L 526.780237 61.377143 
L 530.069675 61.377143 
L 533.359113 61.377143 
L 536.648551 61.377143 
L 539.937989 61.377143 
L 539.937989 61.312118 
L 539.937989 61.312118 
L 536.648551 61.300904 
L 533.359113 61.288003 
L 530.069675 61.273208 
L 526.780237 61.256291 
L 523.490798 61.237008 
L 520.20136 61.215096 
L 516.911922 61.190272 
L 513.622484 61.162236 
L 510.333046 61.130671 
L 507.043608 61.095242 
L 503.754169 61.0556 
L 500.464731 61.01138 
L 497.175293 60.962208 
L 493.885855 60.907699 
L 490.596417 60.847463 
L 487.306979 60.781107 
L 484.017541 60.708238 
L 480.728102 60.628469 
L 477.438664 60.541421 
L 474.149226 60.446729 
L 470.859788 60.344051 
L 467.57035 60.233065 
L 464.280912 60.113481 
L 460.991473 59.985045 
L 457.702035 59.847545 
L 454.412597 59.700814 
L 451.123159 59.544738 
L 447.833721 59.37926 
L 444.544283 59.204386 
L 441.254845 59.020185 
L 437.965406 58.8268 
L 434.675968 58.624443 
L 431.38653 58.413402 
L 428.097092 58.194043 
L 424.807654 57.966808 
L 421.518216 57.732214 
L 418.228777 57.490856 
L 414.939339 57.243401 
L 411.649901 56.990588 
L 408.360463 56.73322 
L 405.071025 56.472162 
L 401.781587 56.208337 
L 398.492149 55.942716 
L 395.20271 55.676313 
L 391.913272 55.410176 
L 388.623834 55.145383 
L 385.334396 54.883028 
L 382.044958 54.624219 
L 378.75552 54.370063 
L 375.466081 54.121663 
L 372.176643 53.880108 
L 368.887205 53.646464 
L 365.597767 53.421765 
L 362.308329 53.207009 
L 359.018891 53.003151 
L 355.729453 52.811093 
L 352.440014 52.63168 
L 349.150576 52.465696 
L 345.861138 52.313857 
L 342.5717 52.176805 
L 339.282262 52.055108 
L 335.992824 51.949252 
L 332.703385 51.859637 
L 329.413947 51.786578 
L 326.124509 51.730297 
L 322.835071 51.690921 
L 319.545633 51.668478 
L 316.256195 51.662894 
L 312.966757 51.673991 
L 309.677318 51.701479 
L 306.38788 51.744955 
L 303.098442 51.803899 
L 299.809004 51.877668 
L 296.519566 51.965493 
L 293.230128 52.066473 
L 289.940689 52.17957 
L 286.651251 52.303609 
L 283.361813 52.437268 
L 280.072375 52.579075 
L 276.782937 52.727407 
L 273.493499 52.880487 
L 270.204061 53.036376 
L 266.914622 53.192978 
L 263.625184 53.348034 
L 260.335746 53.499126 
L 257.046308 53.643678 
L 253.75687 53.778955 
L 250.467432 53.902074 
L 247.177993 54.010009 
L 243.888555 54.099595 
L 240.599117 54.167544 
L 237.309679 54.210459 
L 234.020241 54.224843 
L 230.730803 54.207126 
L 227.441365 54.153681 
L 224.151926 54.06085 
L 220.862488 53.924971 
L 217.57305 53.742412 
L 214.283612 53.509596 
L 210.994174 53.223049 
L 207.704736 52.879431 
L 204.415297 52.475582 
L 201.125859 52.008565 
L 197.836421 51.475716 
L 194.546983 50.87469 
L 191.257545 50.20351 
L 187.968107 49.460622 
L 184.678669 48.644938 
L 181.38923 47.755892 
L 178.099792 46.793483 
L 174.810354 45.75832 
L 171.520916 44.651666 
L 168.231478 43.47547 
L 164.94204 42.232398 
L 161.652601 40.925859 
L 158.363163 39.560017 
L 155.073725 38.139802 
L 151.784287 36.670902 
L 148.494849 35.159755 
L 145.205411 33.613523 
L 141.915973 32.040054 
L 138.626534 30.447844 
L 135.337096 28.84597 
L 132.047658 27.244025 
L 128.75822 25.65204 
L 125.468782 24.080391 
L 122.179344 22.539701 
L 118.889905 21.040734 
L 115.600467 19.594283 
L 112.311029 18.211047 
L 109.021591 16.901516 
L 105.732153 15.675845 
L 102.442715 14.543731 
L 99.153277 13.514298 
L 95.863838 12.595978 
L 92.5744 11.796409 
L 89.284962 11.122332 
L 85.995524 10.579505 
L 82.706086 10.172627 
L 79.416648 9.905276 
L 76.127209 9.779864 
L 72.837771 9.797602 
L 69.548333 9.958488 
L 66.258895 10.261308 
L 62.969457 10.703655 
L 59.680019 11.281965 
L 56.390581 11.991563 
L 53.101142 12.826736 
L 49.811704 13.780805 
L 46.522266 14.846219 
L 43.232828 16.014656 
L 39.94339 17.277133 
L 36.653952 18.624122 
L 33.364513 20.045667 
L 30.075075 21.531512 
L 26.785637 23.071223 
L 23.496199 24.654304 
L 20.206761 26.270323 
L 16.917323 27.909014 
L 13.627885 29.560392 
L 10.338446 31.214841 
L 7.049008 32.863205 
L 3.75957 34.496863 
L 0.470132 36.107793 
L -2.819306 37.688628 
L -6.108744 39.23269 
L -9.398183 40.734028 
L -12.687621 42.187429 
L -15.977059 43.588427 
L -19.266497 44.933297 
L -22.555935 46.219045 
L -25.845373 47.443381 
L -29.134811 48.604691 
L -32.42425 49.701999 
L -35.713688 50.734925 
L -39.003126 51.703639 
L -42.292564 52.608808 
L -45.582002 53.451547 
L -48.87144 54.233362 
L -52.160879 54.956101 
L -55.450317 55.621895 
L -58.739755 56.233113 
L -62.029193 56.792307 
L -65.318631 57.30217 
L -68.608069 57.765487 
L -71.897507 58.185103 
L -75.186946 58.563877 
L -78.476384 58.90466 
L -81.765822 59.210258 
L -85.05526 59.483411 
L -88.344698 59.726774 
L -91.634136 59.942899 
L -94.923574 60.134218 
L -98.213013 60.303039 
L -101.502451 60.451535 
L -104.791889 60.581741 
L -108.081327 60.695549 
L -111.370765 60.794712 
L -114.660203 60.880846 
z
" clip-path="url(#pd52d146c9e)" style="fill: #1f77b4; fill-opacity: 0.25; stroke: #1f77b4"/>
   </g>
   <g id="matplotlib.axis_3">
    <g id="xtick_5">
     <g id="line2d_13">
      <g>
       <use xlink:href="#me1522bfea7" x="66.250489" y="61.377143" style="stroke: #000000; stroke-width: 0.8"/>
      </g>
     </g>
    </g>
    <g id="xtick_6">
     <g id="line2d_14">
      <g>
       <use xlink:href="#me1522bfea7" x="157.743241" y="61.377143" style="stroke: #000000; stroke-width: 0.8"/>
      </g>
     </g>
    </g>
    <g id="xtick_7">
     <g id="line2d_15">
      <g>
       <use xlink:href="#me1522bfea7" x="249.235994" y="61.377143" style="stroke: #000000; stroke-width: 0.8"/>
      </g>
     </g>
    </g>
    <g id="xtick_8">
     <g id="line2d_16">
      <g>
       <use xlink:href="#me1522bfea7" x="340.728746" y="61.377143" style="stroke: #000000; stroke-width: 0.8"/>
      </g>
     </g>
    </g>
   </g>
   <g id="matplotlib.axis_4">
    <g id="ytick_9"/>
    <g id="ytick_10"/>
   </g>
   <g id="patch_6">
    <path d="M 56.64375 61.377143 
L 368.634036 61.377143 
" style="fill: none; stroke: #000000; stroke-width: 0.8; stroke-linejoin: miter; stroke-linecap: square"/>
   </g>
  </g>
  <g id="axes_3">
   <g id="patch_7">
    <path d="M 379.392321 386.44 
L 433.18375 386.44 
L 433.18375 72.212571 
L 379.392321 72.212571 
z
" style="fill: #ffffff"/>
   </g>
   <g id="PolyCollection_2">
    <path d="M 379.726004 557.348922 
L 379.392321 557.348922 
L 379.392321 554.052212 
L 379.392321 550.755502 
L 379.392321 547.458792 
L 379.392321 544.162082 
L 379.392321 540.865372 
L 379.392321 537.568662 
L 379.392321 534.271952 
L 379.392321 530.975243 
L 379.392321 527.678533 
L 379.392321 524.381823 
L 379.392321 521.085113 
L 379.392321 517.788403 
L 379.392321 514.491693 
L 379.392321 511.194983 
L 379.392321 507.898273 
L 379.392321 504.601563 
L 379.392321 501.304853 
L 379.392321 498.008143 
L 379.392321 494.711434 
L 379.392321 491.414724 
L 379.392321 488.118014 
L 379.392321 484.821304 
L 379.392321 481.524594 
L 379.392321 478.227884 
L 379.392321 474.931174 
L 379.392321 471.634464 
L 379.392321 468.337754 
L 379.392321 465.041044 
L 379.392321 461.744334 
L 379.392321 458.447625 
L 379.392321 455.150915 
L 379.392321 451.854205 
L 379.392321 448.557495 
L 379.392321 445.260785 
L 379.392321 441.964075 
L 379.392321 438.667365 
L 379.392321 435.370655 
L 379.392321 432.073945 
L 379.392321 428.777235 
L 379.392321 425.480525 
L 379.392321 422.183816 
L 379.392321 418.887106 
L 379.392321 415.590396 
L 379.392321 412.293686 
L 379.392321 408.996976 
L 379.392321 405.700266 
L 379.392321 402.403556 
L 379.392321 399.106846 
L 379.392321 395.810136 
L 379.392321 392.513426 
L 379.392321 389.216716 
L 379.392321 385.920006 
L 379.392321 382.623297 
L 379.392321 379.326587 
L 379.392321 376.029877 
L 379.392321 372.733167 
L 379.392321 369.436457 
L 379.392321 366.139747 
L 379.392321 362.843037 
L 379.392321 359.546327 
L 379.392321 356.249617 
L 379.392321 352.952907 
L 379.392321 349.656197 
L 379.392321 346.359488 
L 379.392321 343.062778 
L 379.392321 339.766068 
L 379.392321 336.469358 
L 379.392321 333.172648 
L 379.392321 329.875938 
L 379.392321 326.579228 
L 379.392321 323.282518 
L 379.392321 319.985808 
L 379.392321 316.689098 
L 379.392321 313.392388 
L 379.392321 310.095679 
L 379.392321 306.798969 
L 379.392321 303.502259 
L 379.392321 300.205549 
L 379.392321 296.908839 
L 379.392321 293.612129 
L 379.392321 290.315419 
L 379.392321 287.018709 
L 379.392321 283.721999 
L 379.392321 280.425289 
L 379.392321 277.128579 
L 379.392321 273.83187 
L 379.392321 270.53516 
L 379.392321 267.23845 
L 379.392321 263.94174 
L 379.392321 260.64503 
L 379.392321 257.34832 
L 379.392321 254.05161 
L 379.392321 250.7549 
L 379.392321 247.45819 
L 379.392321 244.16148 
L 379.392321 240.86477 
L 379.392321 237.56806 
L 379.392321 234.271351 
L 379.392321 230.974641 
L 379.392321 227.677931 
L 379.392321 224.381221 
L 379.392321 221.084511 
L 379.392321 217.787801 
L 379.392321 214.491091 
L 379.392321 211.194381 
L 379.392321 207.897671 
L 379.392321 204.600961 
L 379.392321 201.304251 
L 379.392321 198.007542 
L 379.392321 194.710832 
L 379.392321 191.414122 
L 379.392321 188.117412 
L 379.392321 184.820702 
L 379.392321 181.523992 
L 379.392321 178.227282 
L 379.392321 174.930572 
L 379.392321 171.633862 
L 379.392321 168.337152 
L 379.392321 165.040442 
L 379.392321 161.743733 
L 379.392321 158.447023 
L 379.392321 155.150313 
L 379.392321 151.853603 
L 379.392321 148.556893 
L 379.392321 145.260183 
L 379.392321 141.963473 
L 379.392321 138.666763 
L 379.392321 135.370053 
L 379.392321 132.073343 
L 379.392321 128.776633 
L 379.392321 125.479924 
L 379.392321 122.183214 
L 379.392321 118.886504 
L 379.392321 115.589794 
L 379.392321 112.293084 
L 379.392321 108.996374 
L 379.392321 105.699664 
L 379.392321 102.402954 
L 379.392321 99.106244 
L 379.392321 95.809534 
L 379.392321 92.512824 
L 379.392321 89.216114 
L 379.392321 85.919405 
L 379.392321 82.622695 
L 379.392321 79.325985 
L 379.392321 76.029275 
L 379.392321 72.732565 
L 379.392321 69.435855 
L 379.392321 66.139145 
L 379.392321 62.842435 
L 379.392321 59.545725 
L 379.392321 56.249015 
L 379.392321 52.952305 
L 379.392321 49.655596 
L 379.392321 46.358886 
L 379.392321 43.062176 
L 379.392321 39.765466 
L 379.392321 36.468756 
L 379.392321 33.172046 
L 379.392321 29.875336 
L 379.392321 26.578626 
L 379.392321 23.281916 
L 379.392321 19.985206 
L 379.392321 16.688496 
L 379.392321 13.391787 
L 379.392321 10.095077 
L 379.392321 6.798367 
L 379.392321 3.501657 
L 379.392321 0.204947 
L 379.392321 -3.091763 
L 379.392321 -6.388473 
L 379.392321 -9.685183 
L 379.392321 -12.981893 
L 379.392321 -16.278603 
L 379.392321 -19.575313 
L 379.392321 -22.872022 
L 379.392321 -26.168732 
L 379.392321 -29.465442 
L 379.392321 -32.762152 
L 379.392321 -36.058862 
L 379.392321 -39.355572 
L 379.392321 -42.652282 
L 379.392321 -45.948992 
L 379.392321 -49.245702 
L 379.392321 -52.542412 
L 379.392321 -55.839122 
L 379.392321 -59.135831 
L 379.392321 -62.432541 
L 379.392321 -65.729251 
L 379.392321 -69.025961 
L 379.392321 -72.322671 
L 379.392321 -75.619381 
L 379.392321 -78.916091 
L 379.392321 -82.212801 
L 379.392321 -85.509511 
L 379.392321 -88.806221 
L 379.392321 -92.102931 
L 379.392321 -95.399641 
L 379.392321 -98.69635 
L 379.503575 -98.69635 
L 379.503575 -98.69635 
L 379.523023 -95.399641 
L 379.545452 -92.102931 
L 379.571243 -88.806221 
L 379.600812 -85.509511 
L 379.634612 -82.212801 
L 379.673134 -78.916091 
L 379.716908 -75.619381 
L 379.766502 -72.322671 
L 379.822525 -69.025961 
L 379.885625 -65.729251 
L 379.956486 -62.432541 
L 380.03583 -59.135831 
L 380.124413 -55.839122 
L 380.223021 -52.542412 
L 380.332471 -49.245702 
L 380.453603 -45.948992 
L 380.587278 -42.652282 
L 380.734369 -39.355572 
L 380.895763 -36.058862 
L 381.072345 -32.762152 
L 381.265002 -29.465442 
L 381.474605 -26.168732 
L 381.702011 -22.872022 
L 381.948051 -19.575313 
L 382.213525 -16.278603 
L 382.499192 -12.981893 
L 382.805765 -9.685183 
L 383.133905 -6.388473 
L 383.484213 -3.091763 
L 383.857225 0.204947 
L 384.253409 3.501657 
L 384.673161 6.798367 
L 385.1168 10.095077 
L 385.584568 13.391787 
L 386.07663 16.688496 
L 386.593073 19.985206 
L 387.133909 23.281916 
L 387.699076 26.578626 
L 388.288446 29.875336 
L 388.901822 33.172046 
L 389.538953 36.468756 
L 390.199529 39.765466 
L 390.883197 43.062176 
L 391.589561 46.358886 
L 392.318191 49.655596 
L 393.068627 52.952305 
L 393.840385 56.249015 
L 394.632961 59.545725 
L 395.445833 62.842435 
L 396.278464 66.139145 
L 397.130299 69.435855 
L 398.000768 72.732565 
L 398.889275 76.029275 
L 399.7952 79.325985 
L 400.717885 82.622695 
L 401.656629 85.919405 
L 402.610674 89.216114 
L 403.579191 92.512824 
L 404.561272 95.809534 
L 405.555906 99.106244 
L 406.561973 102.402954 
L 407.57822 105.699664 
L 408.603253 108.996374 
L 409.635514 112.293084 
L 410.673279 115.589794 
L 411.714637 118.886504 
L 412.757487 122.183214 
L 413.799533 125.479924 
L 414.838277 128.776633 
L 415.871027 132.073343 
L 416.894902 135.370053 
L 417.906837 138.666763 
L 418.903606 141.963473 
L 419.881841 145.260183 
L 420.838052 148.556893 
L 421.768663 151.853603 
L 422.670041 155.150313 
L 423.538539 158.447023 
L 424.370535 161.743733 
L 425.162475 165.040442 
L 425.910924 168.337152 
L 426.612612 171.633862 
L 427.264483 174.930572 
L 427.863743 178.227282 
L 428.407912 181.523992 
L 428.894862 184.820702 
L 429.322867 188.117412 
L 429.690636 191.414122 
L 429.99735 194.710832 
L 430.242686 198.007542 
L 430.426843 201.304251 
L 430.550551 204.600961 
L 430.615085 207.897671 
L 430.622253 211.194381 
L 430.574399 214.491091 
L 430.474373 217.787801 
L 430.325515 221.084511 
L 430.131613 224.381221 
L 429.896866 227.677931 
L 429.625831 230.974641 
L 429.32337 234.271351 
L 428.994585 237.56806 
L 428.644754 240.86477 
L 428.279258 244.16148 
L 427.903506 247.45819 
L 427.522863 250.7549 
L 427.142567 254.05161 
L 426.76766 257.34832 
L 426.402908 260.64503 
L 426.052731 263.94174 
L 425.721138 267.23845 
L 425.41166 270.53516 
L 425.127299 273.83187 
L 424.870476 277.128579 
L 424.64299 280.425289 
L 424.445989 283.721999 
L 424.279946 287.018709 
L 424.144646 290.315419 
L 424.039186 293.612129 
L 423.961981 296.908839 
L 423.910784 300.205549 
L 423.882715 303.502259 
L 423.8743 306.798969 
L 423.881519 310.095679 
L 423.899863 313.392388 
L 423.924401 316.689098 
L 423.949849 319.985808 
L 423.970648 323.282518 
L 423.981051 326.579228 
L 423.975202 329.875938 
L 423.94723 333.172648 
L 423.891335 336.469358 
L 423.801873 339.766068 
L 423.673447 343.062778 
L 423.500985 346.359488 
L 423.279817 349.656197 
L 423.005747 352.952907 
L 422.675115 356.249617 
L 422.284853 359.546327 
L 421.832528 362.843037 
L 421.316381 366.139747 
L 420.735348 369.436457 
L 420.08908 372.733167 
L 419.377938 376.029877 
L 418.602995 379.326587 
L 417.76601 382.623297 
L 416.869405 385.920006 
L 415.916224 389.216716 
L 414.91009 392.513426 
L 413.85515 395.810136 
L 412.756014 399.106846 
L 411.617688 402.403556 
L 410.44551 405.700266 
L 409.24507 408.996976 
L 408.022141 412.293686 
L 406.782602 415.590396 
L 405.532366 418.887106 
L 404.27731 422.183816 
L 403.023203 425.480525 
L 401.775648 428.777235 
L 400.54002 432.073945 
L 399.321415 435.370655 
L 398.124603 438.667365 
L 396.95399 441.964075 
L 395.813587 445.260785 
L 394.706985 448.557495 
L 393.637336 451.854205 
L 392.607345 455.150915 
L 391.619265 458.447625 
L 390.674903 461.744334 
L 389.775628 465.041044 
L 388.922381 468.337754 
L 388.115702 471.634464 
L 387.355747 474.931174 
L 386.64232 478.227884 
L 385.974897 481.524594 
L 385.352662 484.821304 
L 384.774534 488.118014 
L 384.239209 491.414724 
L 383.745184 494.711434 
L 383.290797 498.008143 
L 382.874256 501.304853 
L 382.493667 504.601563 
L 382.14707 507.898273 
L 381.832457 511.194983 
L 381.547806 514.491693 
L 381.291095 517.788403 
L 381.060325 521.085113 
L 380.853541 524.381823 
L 380.66884 527.678533 
L 380.504387 530.975243 
L 380.358427 534.271952 
L 380.229288 537.568662 
L 380.115391 540.865372 
L 380.015252 544.162082 
L 379.927484 547.458792 
L 379.850798 550.755502 
L 379.784003 554.052212 
L 379.726004 557.348922 
z
" clip-path="url(#p7953031412)" style="fill: #1f77b4; fill-opacity: 0.25; stroke: #1f77b4"/>
   </g>
   <g id="matplotlib.axis_5">
    <g id="xtick_9"/>
    <g id="xtick_10"/>
   </g>
   <g id="matplotlib.axis_6">
    <g id="ytick_11">
     <g id="line2d_17">
      <g>
       <use xlink:href="#mcd42aba367" x="379.392321" y="353.112848" style="stroke: #000000; stroke-width: 0.8"/>
      </g>
     </g>
    </g>
    <g id="ytick_12">
     <g id="line2d_18">
      <g>
       <use xlink:href="#mcd42aba367" x="379.392321" y="315.024675" style="stroke: #000000; stroke-width: 0.8"/>
      </g>
     </g>
    </g>
    <g id="ytick_13">
     <g id="line2d_19">
      <g>
       <use xlink:href="#mcd42aba367" x="379.392321" y="276.936502" style="stroke: #000000; stroke-width: 0.8"/>
      </g>
     </g>
    </g>
    <g id="ytick_14">
     <g id="line2d_20">
      <g>
       <use xlink:href="#mcd42aba367" x="379.392321" y="238.848329" style="stroke: #000000; stroke-width: 0.8"/>
      </g>
     </g>
    </g>
    <g id="ytick_15">
     <g id="line2d_21">
      <g>
       <use xlink:href="#mcd42aba367" x="379.392321" y="200.760156" style="stroke: #000000; stroke-width: 0.8"/>
      </g>
     </g>
    </g>
    <g id="ytick_16">
     <g id="line2d_22">
      <g>
       <use xlink:href="#mcd42aba367" x="379.392321" y="162.671983" style="stroke: #000000; stroke-width: 0.8"/>
      </g>
     </g>
    </g>
    <g id="ytick_17">
     <g id="line2d_23">
      <g>
       <use xlink:href="#mcd42aba367" x="379.392321" y="124.58381" style="stroke: #000000; stroke-width: 0.8"/>
      </g>
     </g>
    </g>
    <g id="ytick_18">
     <g id="line2d_24">
      <g>
       <use xlink:href="#mcd42aba367" x="379.392321" y="86.495636" style="stroke: #000000; stroke-width: 0.8"/>
      </g>
     </g>
    </g>
   </g>
   <g id="patch_8">
    <path d="M 379.392321 386.44 
L 379.392321 72.212571 
" style="fill: none; stroke: #000000; stroke-width: 0.8; stroke-linejoin: miter; stroke-linecap: square"/>
   </g>
  </g>
 </g>
 <defs>
  <clipPath id="pab0ec82142">
   <rect x="56.64375" y="72.212571" width="311.990286" height="314.227429"/>
  </clipPath>
  <clipPath id="pd52d146c9e">
   <rect x="56.64375" y="7.2" width="311.990286" height="54.177143"/>
  </clipPath>
  <clipPath id="p7953031412">
   <rect x="379.392321" y="72.212571" width="53.791429" height="314.227429"/>
  </clipPath>
 </defs>
</svg>
