<?xml version="1.0" encoding="utf-8" standalone="no"?>
<!DOCTYPE svg PUBLIC "-//W3C//DTD SVG 1.1//EN"
  "http://www.w3.org/Graphics/SVG/1.1/DTD/svg11.dtd">
<svg xmlns:xlink="http://www.w3.org/1999/xlink" width="448.556562pt" height="443.3525pt" viewBox="0 0 448.556562 443.3525" xmlns="http://www.w3.org/2000/svg" version="1.1">
 <metadata>
  <rdf:RDF xmlns:dc="http://purl.org/dc/elements/1.1/" xmlns:cc="http://creativecommons.org/ns#" xmlns:rdf="http://www.w3.org/1999/02/22-rdf-syntax-ns#">
   <cc:Work>
    <dc:type rdf:resource="http://purl.org/dc/dcmitype/StillImage"/>
    <dc:date>2022-12-09T16:23:29.870411</dc:date>
    <dc:format>image/svg+xml</dc:format>
    <dc:creator>
     <cc:Agent>
      <dc:title>Matplotlib v3.6.2, https://matplotlib.org/</dc:title>
     </cc:Agent>
    </dc:creator>
   </cc:Work>
  </rdf:RDF>
 </metadata>
 <defs>
  <style type="text/css">*{stroke-linejoin: round; stroke-linecap: butt}</style>
 </defs>
 <g id="figure_1">
  <g id="patch_1">
   <path d="M 0 443.3525 
L 448.556562 443.3525 
L 448.556562 0 
L 0 0 
z
" style="fill: #ffffff"/>
  </g>
  <g id="axes_1">
   <g id="patch_2">
    <path d="M 71.026562 386.44 
L 377.87142 386.44 
L 377.87142 72.212571 
L 71.026562 72.212571 
z
" style="fill: #ffffff"/>
   </g>
   <g id="PathCollection_1">
    <defs>
     <path id="mdb582908cb" d="M 0 5 
C 1.326016 5 2.597899 4.473168 3.535534 3.535534 
C 4.473168 2.597899 5 1.326016 5 0 
C 5 -1.326016 4.473168 -2.597899 3.535534 -3.535534 
C 2.597899 -4.473168 1.326016 -5 0 -5 
C -1.326016 -5 -2.597899 -4.473168 -3.535534 -3.535534 
C -4.473168 -2.597899 -5 -1.326016 -5 0 
C -5 1.326016 -4.473168 2.597899 -3.535534 3.535534 
C -2.597899 4.473168 -1.326016 5 0 5 
z
" style="stroke: #ffffff; stroke-opacity: 0.5; stroke-width: 0.8"/>
    </defs>
    <g clip-path="url(#p023c4b7fa7)">
     <use xlink:href="#mdb582908cb" x="91.648829" y="341.664999" style="fill: #1f77b4; fill-opacity: 0.5; stroke: #ffffff; stroke-opacity: 0.5; stroke-width: 0.8"/>
     <use xlink:href="#mdb582908cb" x="85.252172" y="359.318225" style="fill: #1f77b4; fill-opacity: 0.5; stroke: #ffffff; stroke-opacity: 0.5; stroke-width: 0.8"/>
     <use xlink:href="#mdb582908cb" x="89.980135" y="298.334352" style="fill: #1f77b4; fill-opacity: 0.5; stroke: #ffffff; stroke-opacity: 0.5; stroke-width: 0.8"/>
     <use xlink:href="#mdb582908cb" x="89.145789" y="328.826289" style="fill: #1f77b4; fill-opacity: 0.5; stroke: #ffffff; stroke-opacity: 0.5; stroke-width: 0.8"/>
     <use xlink:href="#mdb582908cb" x="206.51054" y="306.358546" style="fill: #1f77b4; fill-opacity: 0.5; stroke: #ffffff; stroke-opacity: 0.5; stroke-width: 0.8"/>
     <use xlink:href="#mdb582908cb" x="85.808403" y="372.156935" style="fill: #1f77b4; fill-opacity: 0.5; stroke: #ffffff; stroke-opacity: 0.5; stroke-width: 0.8"/>
     <use xlink:href="#mdb582908cb" x="92.483175" y="367.342419" style="fill: #1f77b4; fill-opacity: 0.5; stroke: #ffffff; stroke-opacity: 0.5; stroke-width: 0.8"/>
     <use xlink:href="#mdb582908cb" x="87.19898" y="368.947258" style="fill: #1f77b4; fill-opacity: 0.5; stroke: #ffffff; stroke-opacity: 0.5; stroke-width: 0.8"/>
     <use xlink:href="#mdb582908cb" x="127.525731" y="253.398867" style="fill: #1f77b4; fill-opacity: 0.5; stroke: #ffffff; stroke-opacity: 0.5; stroke-width: 0.8"/>
     <use xlink:href="#mdb582908cb" x="101.104756" y="356.108547" style="fill: #1f77b4; fill-opacity: 0.5; stroke: #ffffff; stroke-opacity: 0.5; stroke-width: 0.8"/>
     <use xlink:href="#mdb582908cb" x="123.910229" y="263.0279" style="fill: #1f77b4; fill-opacity: 0.5; stroke: #ffffff; stroke-opacity: 0.5; stroke-width: 0.8"/>
     <use xlink:href="#mdb582908cb" x="91.926944" y="320.802095" style="fill: #1f77b4; fill-opacity: 0.5; stroke: #ffffff; stroke-opacity: 0.5; stroke-width: 0.8"/>
     <use xlink:href="#mdb582908cb" x="108.057644" y="299.939191" style="fill: #1f77b4; fill-opacity: 0.5; stroke: #ffffff; stroke-opacity: 0.5; stroke-width: 0.8"/>
     <use xlink:href="#mdb582908cb" x="88.311442" y="322.406934" style="fill: #1f77b4; fill-opacity: 0.5; stroke: #ffffff; stroke-opacity: 0.5; stroke-width: 0.8"/>
     <use xlink:href="#mdb582908cb" x="103.607796" y="311.173062" style="fill: #1f77b4; fill-opacity: 0.5; stroke: #ffffff; stroke-opacity: 0.5; stroke-width: 0.8"/>
     <use xlink:href="#mdb582908cb" x="183.983182" y="221.302092" style="fill: #1f77b4; fill-opacity: 0.5; stroke: #ffffff; stroke-opacity: 0.5; stroke-width: 0.8"/>
     <use xlink:href="#mdb582908cb" x="128.638193" y="258.213383" style="fill: #1f77b4; fill-opacity: 0.5; stroke: #ffffff; stroke-opacity: 0.5; stroke-width: 0.8"/>
     <use xlink:href="#mdb582908cb" x="85.252172" y="261.423061" style="fill: #1f77b4; fill-opacity: 0.5; stroke: #ffffff; stroke-opacity: 0.5; stroke-width: 0.8"/>
     <use xlink:href="#mdb582908cb" x="182.592605" y="246.979512" style="fill: #1f77b4; fill-opacity: 0.5; stroke: #ffffff; stroke-opacity: 0.5; stroke-width: 0.8"/>
     <use xlink:href="#mdb582908cb" x="297.1762" y="115.382734" style="fill: #1f77b4; fill-opacity: 0.5; stroke: #ffffff; stroke-opacity: 0.5; stroke-width: 0.8"/>
     <use xlink:href="#mdb582908cb" x="148.940626" y="330.431127" style="fill: #1f77b4; fill-opacity: 0.5; stroke: #ffffff; stroke-opacity: 0.5; stroke-width: 0.8"/>
     <use xlink:href="#mdb582908cb" x="99.436063" y="335.245644" style="fill: #1f77b4; fill-opacity: 0.5; stroke: #ffffff; stroke-opacity: 0.5; stroke-width: 0.8"/>
     <use xlink:href="#mdb582908cb" x="88.033327" y="362.527903" style="fill: #1f77b4; fill-opacity: 0.5; stroke: #ffffff; stroke-opacity: 0.5; stroke-width: 0.8"/>
     <use xlink:href="#mdb582908cb" x="183.983182" y="352.89887" style="fill: #1f77b4; fill-opacity: 0.5; stroke: #ffffff; stroke-opacity: 0.5; stroke-width: 0.8"/>
     <use xlink:href="#mdb582908cb" x="91.092598" y="315.987579" style="fill: #1f77b4; fill-opacity: 0.5; stroke: #ffffff; stroke-opacity: 0.5; stroke-width: 0.8"/>
     <use xlink:href="#mdb582908cb" x="93.873753" y="340.06016" style="fill: #1f77b4; fill-opacity: 0.5; stroke: #ffffff; stroke-opacity: 0.5; stroke-width: 0.8"/>
     <use xlink:href="#mdb582908cb" x="123.910229" y="299.939191" style="fill: #1f77b4; fill-opacity: 0.5; stroke: #ffffff; stroke-opacity: 0.5; stroke-width: 0.8"/>
     <use xlink:href="#mdb582908cb" x="197.054612" y="86.495636" style="fill: #1f77b4; fill-opacity: 0.5; stroke: #ffffff; stroke-opacity: 0.5; stroke-width: 0.8"/>
     <use xlink:href="#mdb582908cb" x="115.844879" y="288.70532" style="fill: #1f77b4; fill-opacity: 0.5; stroke: #ffffff; stroke-opacity: 0.5; stroke-width: 0.8"/>
     <use xlink:href="#mdb582908cb" x="91.092598" y="356.108547" style="fill: #1f77b4; fill-opacity: 0.5; stroke: #ffffff; stroke-opacity: 0.5; stroke-width: 0.8"/>
     <use xlink:href="#mdb582908cb" x="93.317522" y="346.479515" style="fill: #1f77b4; fill-opacity: 0.5; stroke: #ffffff; stroke-opacity: 0.5; stroke-width: 0.8"/>
     <use xlink:href="#mdb582908cb" x="88.311442" y="315.987579" style="fill: #1f77b4; fill-opacity: 0.5; stroke: #ffffff; stroke-opacity: 0.5; stroke-width: 0.8"/>
     <use xlink:href="#mdb582908cb" x="99.436063" y="354.503709" style="fill: #1f77b4; fill-opacity: 0.5; stroke: #ffffff; stroke-opacity: 0.5; stroke-width: 0.8"/>
     <use xlink:href="#mdb582908cb" x="100.826641" y="328.826289" style="fill: #1f77b4; fill-opacity: 0.5; stroke: #ffffff; stroke-opacity: 0.5; stroke-width: 0.8"/>
     <use xlink:href="#mdb582908cb" x="89.70202" y="317.592417" style="fill: #1f77b4; fill-opacity: 0.5; stroke: #ffffff; stroke-opacity: 0.5; stroke-width: 0.8"/>
     <use xlink:href="#mdb582908cb" x="88.867673" y="340.06016" style="fill: #1f77b4; fill-opacity: 0.5; stroke: #ffffff; stroke-opacity: 0.5; stroke-width: 0.8"/>
     <use xlink:href="#mdb582908cb" x="88.867673" y="364.132741" style="fill: #1f77b4; fill-opacity: 0.5; stroke: #ffffff; stroke-opacity: 0.5; stroke-width: 0.8"/>
     <use xlink:href="#mdb582908cb" x="226.534857" y="179.576284" style="fill: #1f77b4; fill-opacity: 0.5; stroke: #ffffff; stroke-opacity: 0.5; stroke-width: 0.8"/>
     <use xlink:href="#mdb582908cb" x="95.542446" y="229.326286" style="fill: #1f77b4; fill-opacity: 0.5; stroke: #ffffff; stroke-opacity: 0.5; stroke-width: 0.8"/>
     <use xlink:href="#mdb582908cb" x="85.808403" y="356.108547" style="fill: #1f77b4; fill-opacity: 0.5; stroke: #ffffff; stroke-opacity: 0.5; stroke-width: 0.8"/>
     <use xlink:href="#mdb582908cb" x="86.086518" y="299.939191" style="fill: #1f77b4; fill-opacity: 0.5; stroke: #ffffff; stroke-opacity: 0.5; stroke-width: 0.8"/>
     <use xlink:href="#mdb582908cb" x="167.296251" y="282.285965" style="fill: #1f77b4; fill-opacity: 0.5; stroke: #ffffff; stroke-opacity: 0.5; stroke-width: 0.8"/>
     <use xlink:href="#mdb582908cb" x="111.951262" y="293.519836" style="fill: #1f77b4; fill-opacity: 0.5; stroke: #ffffff; stroke-opacity: 0.5; stroke-width: 0.8"/>
     <use xlink:href="#mdb582908cb" x="136.703543" y="290.310158" style="fill: #1f77b4; fill-opacity: 0.5; stroke: #ffffff; stroke-opacity: 0.5; stroke-width: 0.8"/>
     <use xlink:href="#mdb582908cb" x="94.708099" y="322.406934" style="fill: #1f77b4; fill-opacity: 0.5; stroke: #ffffff; stroke-opacity: 0.5; stroke-width: 0.8"/>
     <use xlink:href="#mdb582908cb" x="289.388966" y="314.38274" style="fill: #1f77b4; fill-opacity: 0.5; stroke: #ffffff; stroke-opacity: 0.5; stroke-width: 0.8"/>
     <use xlink:href="#mdb582908cb" x="86.364634" y="368.947258" style="fill: #1f77b4; fill-opacity: 0.5; stroke: #ffffff; stroke-opacity: 0.5; stroke-width: 0.8"/>
     <use xlink:href="#mdb582908cb" x="84.974056" y="312.777901" style="fill: #1f77b4; fill-opacity: 0.5; stroke: #ffffff; stroke-opacity: 0.5; stroke-width: 0.8"/>
     <use xlink:href="#mdb582908cb" x="120.294727" y="263.0279" style="fill: #1f77b4; fill-opacity: 0.5; stroke: #ffffff; stroke-opacity: 0.5; stroke-width: 0.8"/>
     <use xlink:href="#mdb582908cb" x="123.632114" y="267.842416" style="fill: #1f77b4; fill-opacity: 0.5; stroke: #ffffff; stroke-opacity: 0.5; stroke-width: 0.8"/>
     <use xlink:href="#mdb582908cb" x="124.188345" y="275.86661" style="fill: #1f77b4; fill-opacity: 0.5; stroke: #ffffff; stroke-opacity: 0.5; stroke-width: 0.8"/>
     <use xlink:href="#mdb582908cb" x="105.83272" y="309.568224" style="fill: #1f77b4; fill-opacity: 0.5; stroke: #ffffff; stroke-opacity: 0.5; stroke-width: 0.8"/>
     <use xlink:href="#mdb582908cb" x="92.761291" y="312.777901" style="fill: #1f77b4; fill-opacity: 0.5; stroke: #ffffff; stroke-opacity: 0.5; stroke-width: 0.8"/>
     <use xlink:href="#mdb582908cb" x="105.83272" y="344.874676" style="fill: #1f77b4; fill-opacity: 0.5; stroke: #ffffff; stroke-opacity: 0.5; stroke-width: 0.8"/>
     <use xlink:href="#mdb582908cb" x="250.174677" y="317.592417" style="fill: #1f77b4; fill-opacity: 0.5; stroke: #ffffff; stroke-opacity: 0.5; stroke-width: 0.8"/>
     <use xlink:href="#mdb582908cb" x="85.530287" y="370.552096" style="fill: #1f77b4; fill-opacity: 0.5; stroke: #ffffff; stroke-opacity: 0.5; stroke-width: 0.8"/>
     <use xlink:href="#mdb582908cb" x="125.578922" y="327.22145" style="fill: #1f77b4; fill-opacity: 0.5; stroke: #ffffff; stroke-opacity: 0.5; stroke-width: 0.8"/>
     <use xlink:href="#mdb582908cb" x="113.619955" y="304.753707" style="fill: #1f77b4; fill-opacity: 0.5; stroke: #ffffff; stroke-opacity: 0.5; stroke-width: 0.8"/>
     <use xlink:href="#mdb582908cb" x="116.122995" y="315.987579" style="fill: #1f77b4; fill-opacity: 0.5; stroke: #ffffff; stroke-opacity: 0.5; stroke-width: 0.8"/>
     <use xlink:href="#mdb582908cb" x="102.495334" y="280.681126" style="fill: #1f77b4; fill-opacity: 0.5; stroke: #ffffff; stroke-opacity: 0.5; stroke-width: 0.8"/>
     <use xlink:href="#mdb582908cb" x="94.986215" y="372.156935" style="fill: #1f77b4; fill-opacity: 0.5; stroke: #ffffff; stroke-opacity: 0.5; stroke-width: 0.8"/>
     <use xlink:href="#mdb582908cb" x="86.920865" y="368.947258" style="fill: #1f77b4; fill-opacity: 0.5; stroke: #ffffff; stroke-opacity: 0.5; stroke-width: 0.8"/>
     <use xlink:href="#mdb582908cb" x="146.715702" y="327.22145" style="fill: #1f77b4; fill-opacity: 0.5; stroke: #ffffff; stroke-opacity: 0.5; stroke-width: 0.8"/>
     <use xlink:href="#mdb582908cb" x="91.648829" y="317.592417" style="fill: #1f77b4; fill-opacity: 0.5; stroke: #ffffff; stroke-opacity: 0.5; stroke-width: 0.8"/>
     <use xlink:href="#mdb582908cb" x="86.642749" y="349.689192" style="fill: #1f77b4; fill-opacity: 0.5; stroke: #ffffff; stroke-opacity: 0.5; stroke-width: 0.8"/>
     <use xlink:href="#mdb582908cb" x="109.170107" y="324.011772" style="fill: #1f77b4; fill-opacity: 0.5; stroke: #ffffff; stroke-opacity: 0.5; stroke-width: 0.8"/>
     <use xlink:href="#mdb582908cb" x="88.311442" y="312.777901" style="fill: #1f77b4; fill-opacity: 0.5; stroke: #ffffff; stroke-opacity: 0.5; stroke-width: 0.8"/>
     <use xlink:href="#mdb582908cb" x="117.513572" y="272.656932" style="fill: #1f77b4; fill-opacity: 0.5; stroke: #ffffff; stroke-opacity: 0.5; stroke-width: 0.8"/>
     <use xlink:href="#mdb582908cb" x="160.343363" y="290.310158" style="fill: #1f77b4; fill-opacity: 0.5; stroke: #ffffff; stroke-opacity: 0.5; stroke-width: 0.8"/>
     <use xlink:href="#mdb582908cb" x="123.632114" y="295.124675" style="fill: #1f77b4; fill-opacity: 0.5; stroke: #ffffff; stroke-opacity: 0.5; stroke-width: 0.8"/>
     <use xlink:href="#mdb582908cb" x="86.642749" y="299.939191" style="fill: #1f77b4; fill-opacity: 0.5; stroke: #ffffff; stroke-opacity: 0.5; stroke-width: 0.8"/>
     <use xlink:href="#mdb582908cb" x="114.732417" y="315.987579" style="fill: #1f77b4; fill-opacity: 0.5; stroke: #ffffff; stroke-opacity: 0.5; stroke-width: 0.8"/>
     <use xlink:href="#mdb582908cb" x="115.010533" y="250.18919" style="fill: #1f77b4; fill-opacity: 0.5; stroke: #ffffff; stroke-opacity: 0.5; stroke-width: 0.8"/>
     <use xlink:href="#mdb582908cb" x="161.177709" y="255.003706" style="fill: #1f77b4; fill-opacity: 0.5; stroke: #ffffff; stroke-opacity: 0.5; stroke-width: 0.8"/>
     <use xlink:href="#mdb582908cb" x="116.957341" y="198.834349" style="fill: #1f77b4; fill-opacity: 0.5; stroke: #ffffff; stroke-opacity: 0.5; stroke-width: 0.8"/>
     <use xlink:href="#mdb582908cb" x="224.588049" y="216.487576" style="fill: #1f77b4; fill-opacity: 0.5; stroke: #ffffff; stroke-opacity: 0.5; stroke-width: 0.8"/>
     <use xlink:href="#mdb582908cb" x="226.256742" y="301.54403" style="fill: #1f77b4; fill-opacity: 0.5; stroke: #ffffff; stroke-opacity: 0.5; stroke-width: 0.8"/>
     <use xlink:href="#mdb582908cb" x="84.974056" y="322.406934" style="fill: #1f77b4; fill-opacity: 0.5; stroke: #ffffff; stroke-opacity: 0.5; stroke-width: 0.8"/>
     <use xlink:href="#mdb582908cb" x="141.153392" y="325.616611" style="fill: #1f77b4; fill-opacity: 0.5; stroke: #ffffff; stroke-opacity: 0.5; stroke-width: 0.8"/>
     <use xlink:href="#mdb582908cb" x="118.347919" y="272.656932" style="fill: #1f77b4; fill-opacity: 0.5; stroke: #ffffff; stroke-opacity: 0.5; stroke-width: 0.8"/>
     <use xlink:href="#mdb582908cb" x="162.290172" y="330.431127" style="fill: #1f77b4; fill-opacity: 0.5; stroke: #ffffff; stroke-opacity: 0.5; stroke-width: 0.8"/>
     <use xlink:href="#mdb582908cb" x="85.252172" y="362.527903" style="fill: #1f77b4; fill-opacity: 0.5; stroke: #ffffff; stroke-opacity: 0.5; stroke-width: 0.8"/>
     <use xlink:href="#mdb582908cb" x="134.756735" y="312.777901" style="fill: #1f77b4; fill-opacity: 0.5; stroke: #ffffff; stroke-opacity: 0.5; stroke-width: 0.8"/>
     <use xlink:href="#mdb582908cb" x="270.47711" y="312.777901" style="fill: #1f77b4; fill-opacity: 0.5; stroke: #ffffff; stroke-opacity: 0.5; stroke-width: 0.8"/>
     <use xlink:href="#mdb582908cb" x="94.986215" y="348.084354" style="fill: #1f77b4; fill-opacity: 0.5; stroke: #ffffff; stroke-opacity: 0.5; stroke-width: 0.8"/>
     <use xlink:href="#mdb582908cb" x="110.004453" y="320.802095" style="fill: #1f77b4; fill-opacity: 0.5; stroke: #ffffff; stroke-opacity: 0.5; stroke-width: 0.8"/>
     <use xlink:href="#mdb582908cb" x="208.457348" y="240.560157" style="fill: #1f77b4; fill-opacity: 0.5; stroke: #ffffff; stroke-opacity: 0.5; stroke-width: 0.8"/>
     <use xlink:href="#mdb582908cb" x="84.974056" y="333.640805" style="fill: #1f77b4; fill-opacity: 0.5; stroke: #ffffff; stroke-opacity: 0.5; stroke-width: 0.8"/>
     <use xlink:href="#mdb582908cb" x="115.844879" y="222.906931" style="fill: #1f77b4; fill-opacity: 0.5; stroke: #ffffff; stroke-opacity: 0.5; stroke-width: 0.8"/>
     <use xlink:href="#mdb582908cb" x="98.601717" y="370.552096" style="fill: #1f77b4; fill-opacity: 0.5; stroke: #ffffff; stroke-opacity: 0.5; stroke-width: 0.8"/>
     <use xlink:href="#mdb582908cb" x="363.923926" y="155.503703" style="fill: #1f77b4; fill-opacity: 0.5; stroke: #ffffff; stroke-opacity: 0.5; stroke-width: 0.8"/>
     <use xlink:href="#mdb582908cb" x="86.086518" y="351.294031" style="fill: #1f77b4; fill-opacity: 0.5; stroke: #ffffff; stroke-opacity: 0.5; stroke-width: 0.8"/>
     <use xlink:href="#mdb582908cb" x="84.974056" y="216.487576" style="fill: #1f77b4; fill-opacity: 0.5; stroke: #ffffff; stroke-opacity: 0.5; stroke-width: 0.8"/>
     <use xlink:href="#mdb582908cb" x="86.086518" y="357.713386" style="fill: #1f77b4; fill-opacity: 0.5; stroke: #ffffff; stroke-opacity: 0.5; stroke-width: 0.8"/>
     <use xlink:href="#mdb582908cb" x="85.808403" y="333.640805" style="fill: #1f77b4; fill-opacity: 0.5; stroke: #ffffff; stroke-opacity: 0.5; stroke-width: 0.8"/>
     <use xlink:href="#mdb582908cb" x="85.252172" y="365.73758" style="fill: #1f77b4; fill-opacity: 0.5; stroke: #ffffff; stroke-opacity: 0.5; stroke-width: 0.8"/>
     <use xlink:href="#mdb582908cb" x="87.755211" y="354.503709" style="fill: #1f77b4; fill-opacity: 0.5; stroke: #ffffff; stroke-opacity: 0.5; stroke-width: 0.8"/>
     <use xlink:href="#mdb582908cb" x="110.8388" y="319.197256" style="fill: #1f77b4; fill-opacity: 0.5; stroke: #ffffff; stroke-opacity: 0.5; stroke-width: 0.8"/>
     <use xlink:href="#mdb582908cb" x="85.808403" y="368.947258" style="fill: #1f77b4; fill-opacity: 0.5; stroke: #ffffff; stroke-opacity: 0.5; stroke-width: 0.8"/>
     <use xlink:href="#mdb582908cb" x="84.974056" y="304.753707" style="fill: #1f77b4; fill-opacity: 0.5; stroke: #ffffff; stroke-opacity: 0.5; stroke-width: 0.8"/>
     <use xlink:href="#mdb582908cb" x="120.572843" y="288.70532" style="fill: #1f77b4; fill-opacity: 0.5; stroke: #ffffff; stroke-opacity: 0.5; stroke-width: 0.8"/>
     <use xlink:href="#mdb582908cb" x="91.370713" y="359.318225" style="fill: #1f77b4; fill-opacity: 0.5; stroke: #ffffff; stroke-opacity: 0.5; stroke-width: 0.8"/>
     <use xlink:href="#mdb582908cb" x="86.642749" y="328.826289" style="fill: #1f77b4; fill-opacity: 0.5; stroke: #ffffff; stroke-opacity: 0.5; stroke-width: 0.8"/>
     <use xlink:href="#mdb582908cb" x="100.826641" y="344.874676" style="fill: #1f77b4; fill-opacity: 0.5; stroke: #ffffff; stroke-opacity: 0.5; stroke-width: 0.8"/>
     <use xlink:href="#mdb582908cb" x="91.092598" y="325.616611" style="fill: #1f77b4; fill-opacity: 0.5; stroke: #ffffff; stroke-opacity: 0.5; stroke-width: 0.8"/>
     <use xlink:href="#mdb582908cb" x="84.974056" y="147.479509" style="fill: #1f77b4; fill-opacity: 0.5; stroke: #ffffff; stroke-opacity: 0.5; stroke-width: 0.8"/>
     <use xlink:href="#mdb582908cb" x="114.454302" y="359.318225" style="fill: #1f77b4; fill-opacity: 0.5; stroke: #ffffff; stroke-opacity: 0.5; stroke-width: 0.8"/>
     <use xlink:href="#mdb582908cb" x="85.808403" y="341.664999" style="fill: #1f77b4; fill-opacity: 0.5; stroke: #ffffff; stroke-opacity: 0.5; stroke-width: 0.8"/>
     <use xlink:href="#mdb582908cb" x="89.70202" y="317.592417" style="fill: #1f77b4; fill-opacity: 0.5; stroke: #ffffff; stroke-opacity: 0.5; stroke-width: 0.8"/>
    </g>
   </g>
   <g id="matplotlib.axis_1">
    <g id="xtick_1">
     <g id="line2d_1">
      <defs>
       <path id="m5d45ee5828" d="M 0 0 
L 0 3.5 
" style="stroke: #000000; stroke-width: 0.8"/>
      </defs>
      <g>
       <use xlink:href="#m5d45ee5828" x="84.974056" y="386.44" style="stroke: #000000; stroke-width: 0.8"/>
      </g>
     </g>
     <g id="text_1">
      <!-- 0 -->
      <g transform="translate(80.202181 404.837656) scale(0.15 -0.15)">
       <defs>
        <path id="DejaVuSans-30" d="M 2034 4250 
Q 1547 4250 1301 3770 
Q 1056 3291 1056 2328 
Q 1056 1369 1301 889 
Q 1547 409 2034 409 
Q 2525 409 2770 889 
Q 3016 1369 3016 2328 
Q 3016 3291 2770 3770 
Q 2525 4250 2034 4250 
z
M 2034 4750 
Q 2819 4750 3233 4129 
Q 3647 3509 3647 2328 
Q 3647 1150 3233 529 
Q 2819 -91 2034 -91 
Q 1250 -91 836 529 
Q 422 1150 422 2328 
Q 422 3509 836 4129 
Q 1250 4750 2034 4750 
z
" transform="scale(0.015625)"/>
       </defs>
       <use xlink:href="#DejaVuSans-30"/>
      </g>
     </g>
    </g>
    <g id="xtick_2">
     <g id="line2d_2">
      <g>
       <use xlink:href="#m5d45ee5828" x="140.597161" y="386.44" style="stroke: #000000; stroke-width: 0.8"/>
      </g>
     </g>
     <g id="text_2">
      <!-- 200 -->
      <g transform="translate(126.281536 404.837656) scale(0.15 -0.15)">
       <defs>
        <path id="DejaVuSans-32" d="M 1228 531 
L 3431 531 
L 3431 0 
L 469 0 
L 469 531 
Q 828 903 1448 1529 
Q 2069 2156 2228 2338 
Q 2531 2678 2651 2914 
Q 2772 3150 2772 3378 
Q 2772 3750 2511 3984 
Q 2250 4219 1831 4219 
Q 1534 4219 1204 4116 
Q 875 4013 500 3803 
L 500 4441 
Q 881 4594 1212 4672 
Q 1544 4750 1819 4750 
Q 2544 4750 2975 4387 
Q 3406 4025 3406 3419 
Q 3406 3131 3298 2873 
Q 3191 2616 2906 2266 
Q 2828 2175 2409 1742 
Q 1991 1309 1228 531 
z
" transform="scale(0.015625)"/>
       </defs>
       <use xlink:href="#DejaVuSans-32"/>
       <use xlink:href="#DejaVuSans-30" x="63.623047"/>
       <use xlink:href="#DejaVuSans-30" x="127.246094"/>
      </g>
     </g>
    </g>
    <g id="xtick_3">
     <g id="line2d_3">
      <g>
       <use xlink:href="#m5d45ee5828" x="196.220265" y="386.44" style="stroke: #000000; stroke-width: 0.8"/>
      </g>
     </g>
     <g id="text_3">
      <!-- 400 -->
      <g transform="translate(181.90464 404.837656) scale(0.15 -0.15)">
       <defs>
        <path id="DejaVuSans-34" d="M 2419 4116 
L 825 1625 
L 2419 1625 
L 2419 4116 
z
M 2253 4666 
L 3047 4666 
L 3047 1625 
L 3713 1625 
L 3713 1100 
L 3047 1100 
L 3047 0 
L 2419 0 
L 2419 1100 
L 313 1100 
L 313 1709 
L 2253 4666 
z
" transform="scale(0.015625)"/>
       </defs>
       <use xlink:href="#DejaVuSans-34"/>
       <use xlink:href="#DejaVuSans-30" x="63.623047"/>
       <use xlink:href="#DejaVuSans-30" x="127.246094"/>
      </g>
     </g>
    </g>
    <g id="xtick_4">
     <g id="line2d_4">
      <g>
       <use xlink:href="#m5d45ee5828" x="251.84337" y="386.44" style="stroke: #000000; stroke-width: 0.8"/>
      </g>
     </g>
     <g id="text_4">
      <!-- 600 -->
      <g transform="translate(237.527745 404.837656) scale(0.15 -0.15)">
       <defs>
        <path id="DejaVuSans-36" d="M 2113 2584 
Q 1688 2584 1439 2293 
Q 1191 2003 1191 1497 
Q 1191 994 1439 701 
Q 1688 409 2113 409 
Q 2538 409 2786 701 
Q 3034 994 3034 1497 
Q 3034 2003 2786 2293 
Q 2538 2584 2113 2584 
z
M 3366 4563 
L 3366 3988 
Q 3128 4100 2886 4159 
Q 2644 4219 2406 4219 
Q 1781 4219 1451 3797 
Q 1122 3375 1075 2522 
Q 1259 2794 1537 2939 
Q 1816 3084 2150 3084 
Q 2853 3084 3261 2657 
Q 3669 2231 3669 1497 
Q 3669 778 3244 343 
Q 2819 -91 2113 -91 
Q 1303 -91 875 529 
Q 447 1150 447 2328 
Q 447 3434 972 4092 
Q 1497 4750 2381 4750 
Q 2619 4750 2861 4703 
Q 3103 4656 3366 4563 
z
" transform="scale(0.015625)"/>
       </defs>
       <use xlink:href="#DejaVuSans-36"/>
       <use xlink:href="#DejaVuSans-30" x="63.623047"/>
       <use xlink:href="#DejaVuSans-30" x="127.246094"/>
      </g>
     </g>
    </g>
    <g id="xtick_5">
     <g id="line2d_5">
      <g>
       <use xlink:href="#m5d45ee5828" x="307.466475" y="386.44" style="stroke: #000000; stroke-width: 0.8"/>
      </g>
     </g>
     <g id="text_5">
      <!-- 800 -->
      <g transform="translate(293.15085 404.837656) scale(0.15 -0.15)">
       <defs>
        <path id="DejaVuSans-38" d="M 2034 2216 
Q 1584 2216 1326 1975 
Q 1069 1734 1069 1313 
Q 1069 891 1326 650 
Q 1584 409 2034 409 
Q 2484 409 2743 651 
Q 3003 894 3003 1313 
Q 3003 1734 2745 1975 
Q 2488 2216 2034 2216 
z
M 1403 2484 
Q 997 2584 770 2862 
Q 544 3141 544 3541 
Q 544 4100 942 4425 
Q 1341 4750 2034 4750 
Q 2731 4750 3128 4425 
Q 3525 4100 3525 3541 
Q 3525 3141 3298 2862 
Q 3072 2584 2669 2484 
Q 3125 2378 3379 2068 
Q 3634 1759 3634 1313 
Q 3634 634 3220 271 
Q 2806 -91 2034 -91 
Q 1263 -91 848 271 
Q 434 634 434 1313 
Q 434 1759 690 2068 
Q 947 2378 1403 2484 
z
M 1172 3481 
Q 1172 3119 1398 2916 
Q 1625 2713 2034 2713 
Q 2441 2713 2670 2916 
Q 2900 3119 2900 3481 
Q 2900 3844 2670 4047 
Q 2441 4250 2034 4250 
Q 1625 4250 1398 4047 
Q 1172 3844 1172 3481 
z
" transform="scale(0.015625)"/>
       </defs>
       <use xlink:href="#DejaVuSans-38"/>
       <use xlink:href="#DejaVuSans-30" x="63.623047"/>
       <use xlink:href="#DejaVuSans-30" x="127.246094"/>
      </g>
     </g>
    </g>
    <g id="xtick_6">
     <g id="line2d_6">
      <g>
       <use xlink:href="#m5d45ee5828" x="363.08958" y="386.44" style="stroke: #000000; stroke-width: 0.8"/>
      </g>
     </g>
     <g id="text_6">
      <!-- 1000 -->
      <g transform="translate(344.00208 404.837656) scale(0.15 -0.15)">
       <defs>
        <path id="DejaVuSans-31" d="M 794 531 
L 1825 531 
L 1825 4091 
L 703 3866 
L 703 4441 
L 1819 4666 
L 2450 4666 
L 2450 531 
L 3481 531 
L 3481 0 
L 794 0 
L 794 531 
z
" transform="scale(0.015625)"/>
       </defs>
       <use xlink:href="#DejaVuSans-31"/>
       <use xlink:href="#DejaVuSans-30" x="63.623047"/>
       <use xlink:href="#DejaVuSans-30" x="127.246094"/>
       <use xlink:href="#DejaVuSans-30" x="190.869141"/>
      </g>
     </g>
    </g>
    <g id="text_7">
     <!-- Commit Size -->
     <g transform="translate(145.714616 430.953281) scale(0.25 -0.25)">
      <defs>
       <path id="DejaVuSans-43" d="M 4122 4306 
L 4122 3641 
Q 3803 3938 3442 4084 
Q 3081 4231 2675 4231 
Q 1875 4231 1450 3742 
Q 1025 3253 1025 2328 
Q 1025 1406 1450 917 
Q 1875 428 2675 428 
Q 3081 428 3442 575 
Q 3803 722 4122 1019 
L 4122 359 
Q 3791 134 3420 21 
Q 3050 -91 2638 -91 
Q 1578 -91 968 557 
Q 359 1206 359 2328 
Q 359 3453 968 4101 
Q 1578 4750 2638 4750 
Q 3056 4750 3426 4639 
Q 3797 4528 4122 4306 
z
" transform="scale(0.015625)"/>
       <path id="DejaVuSans-6f" d="M 1959 3097 
Q 1497 3097 1228 2736 
Q 959 2375 959 1747 
Q 959 1119 1226 758 
Q 1494 397 1959 397 
Q 2419 397 2687 759 
Q 2956 1122 2956 1747 
Q 2956 2369 2687 2733 
Q 2419 3097 1959 3097 
z
M 1959 3584 
Q 2709 3584 3137 3096 
Q 3566 2609 3566 1747 
Q 3566 888 3137 398 
Q 2709 -91 1959 -91 
Q 1206 -91 779 398 
Q 353 888 353 1747 
Q 353 2609 779 3096 
Q 1206 3584 1959 3584 
z
" transform="scale(0.015625)"/>
       <path id="DejaVuSans-6d" d="M 3328 2828 
Q 3544 3216 3844 3400 
Q 4144 3584 4550 3584 
Q 5097 3584 5394 3201 
Q 5691 2819 5691 2113 
L 5691 0 
L 5113 0 
L 5113 2094 
Q 5113 2597 4934 2840 
Q 4756 3084 4391 3084 
Q 3944 3084 3684 2787 
Q 3425 2491 3425 1978 
L 3425 0 
L 2847 0 
L 2847 2094 
Q 2847 2600 2669 2842 
Q 2491 3084 2119 3084 
Q 1678 3084 1418 2786 
Q 1159 2488 1159 1978 
L 1159 0 
L 581 0 
L 581 3500 
L 1159 3500 
L 1159 2956 
Q 1356 3278 1631 3431 
Q 1906 3584 2284 3584 
Q 2666 3584 2933 3390 
Q 3200 3197 3328 2828 
z
" transform="scale(0.015625)"/>
       <path id="DejaVuSans-69" d="M 603 3500 
L 1178 3500 
L 1178 0 
L 603 0 
L 603 3500 
z
M 603 4863 
L 1178 4863 
L 1178 4134 
L 603 4134 
L 603 4863 
z
" transform="scale(0.015625)"/>
       <path id="DejaVuSans-74" d="M 1172 4494 
L 1172 3500 
L 2356 3500 
L 2356 3053 
L 1172 3053 
L 1172 1153 
Q 1172 725 1289 603 
Q 1406 481 1766 481 
L 2356 481 
L 2356 0 
L 1766 0 
Q 1100 0 847 248 
Q 594 497 594 1153 
L 594 3053 
L 172 3053 
L 172 3500 
L 594 3500 
L 594 4494 
L 1172 4494 
z
" transform="scale(0.015625)"/>
       <path id="DejaVuSans-20" transform="scale(0.015625)"/>
       <path id="DejaVuSans-53" d="M 3425 4513 
L 3425 3897 
Q 3066 4069 2747 4153 
Q 2428 4238 2131 4238 
Q 1616 4238 1336 4038 
Q 1056 3838 1056 3469 
Q 1056 3159 1242 3001 
Q 1428 2844 1947 2747 
L 2328 2669 
Q 3034 2534 3370 2195 
Q 3706 1856 3706 1288 
Q 3706 609 3251 259 
Q 2797 -91 1919 -91 
Q 1588 -91 1214 -16 
Q 841 59 441 206 
L 441 856 
Q 825 641 1194 531 
Q 1563 422 1919 422 
Q 2459 422 2753 634 
Q 3047 847 3047 1241 
Q 3047 1584 2836 1778 
Q 2625 1972 2144 2069 
L 1759 2144 
Q 1053 2284 737 2584 
Q 422 2884 422 3419 
Q 422 4038 858 4394 
Q 1294 4750 2059 4750 
Q 2388 4750 2728 4690 
Q 3069 4631 3425 4513 
z
" transform="scale(0.015625)"/>
       <path id="DejaVuSans-7a" d="M 353 3500 
L 3084 3500 
L 3084 2975 
L 922 459 
L 3084 459 
L 3084 0 
L 275 0 
L 275 525 
L 2438 3041 
L 353 3041 
L 353 3500 
z
" transform="scale(0.015625)"/>
       <path id="DejaVuSans-65" d="M 3597 1894 
L 3597 1613 
L 953 1613 
Q 991 1019 1311 708 
Q 1631 397 2203 397 
Q 2534 397 2845 478 
Q 3156 559 3463 722 
L 3463 178 
Q 3153 47 2828 -22 
Q 2503 -91 2169 -91 
Q 1331 -91 842 396 
Q 353 884 353 1716 
Q 353 2575 817 3079 
Q 1281 3584 2069 3584 
Q 2775 3584 3186 3129 
Q 3597 2675 3597 1894 
z
M 3022 2063 
Q 3016 2534 2758 2815 
Q 2500 3097 2075 3097 
Q 1594 3097 1305 2825 
Q 1016 2553 972 2059 
L 3022 2063 
z
" transform="scale(0.015625)"/>
      </defs>
      <use xlink:href="#DejaVuSans-43"/>
      <use xlink:href="#DejaVuSans-6f" x="69.824219"/>
      <use xlink:href="#DejaVuSans-6d" x="131.005859"/>
      <use xlink:href="#DejaVuSans-6d" x="228.417969"/>
      <use xlink:href="#DejaVuSans-69" x="325.830078"/>
      <use xlink:href="#DejaVuSans-74" x="353.613281"/>
      <use xlink:href="#DejaVuSans-20" x="392.822266"/>
      <use xlink:href="#DejaVuSans-53" x="424.609375"/>
      <use xlink:href="#DejaVuSans-69" x="488.085938"/>
      <use xlink:href="#DejaVuSans-7a" x="515.869141"/>
      <use xlink:href="#DejaVuSans-65" x="568.359375"/>
     </g>
    </g>
   </g>
   <g id="matplotlib.axis_2">
    <g id="ytick_1">
     <g id="line2d_7">
      <defs>
       <path id="m63d00ce827" d="M 0 0 
L -3.5 0 
" style="stroke: #000000; stroke-width: 0.8"/>
      </defs>
      <g>
       <use xlink:href="#m63d00ce827" x="71.026562" y="373.761774" style="stroke: #000000; stroke-width: 0.8"/>
      </g>
     </g>
     <g id="text_8">
      <!-- 0 -->
      <g transform="translate(54.482812 379.460602) scale(0.15 -0.15)">
       <use xlink:href="#DejaVuSans-30"/>
      </g>
     </g>
    </g>
    <g id="ytick_2">
     <g id="line2d_8">
      <g>
       <use xlink:href="#m63d00ce827" x="71.026562" y="333.640805" style="stroke: #000000; stroke-width: 0.8"/>
      </g>
     </g>
     <g id="text_9">
      <!-- 25 -->
      <g transform="translate(44.939062 339.339633) scale(0.15 -0.15)">
       <defs>
        <path id="DejaVuSans-35" d="M 691 4666 
L 3169 4666 
L 3169 4134 
L 1269 4134 
L 1269 2991 
Q 1406 3038 1543 3061 
Q 1681 3084 1819 3084 
Q 2600 3084 3056 2656 
Q 3513 2228 3513 1497 
Q 3513 744 3044 326 
Q 2575 -91 1722 -91 
Q 1428 -91 1123 -41 
Q 819 9 494 109 
L 494 744 
Q 775 591 1075 516 
Q 1375 441 1709 441 
Q 2250 441 2565 725 
Q 2881 1009 2881 1497 
Q 2881 1984 2565 2268 
Q 2250 2553 1709 2553 
Q 1456 2553 1204 2497 
Q 953 2441 691 2322 
L 691 4666 
z
" transform="scale(0.015625)"/>
       </defs>
       <use xlink:href="#DejaVuSans-32"/>
       <use xlink:href="#DejaVuSans-35" x="63.623047"/>
      </g>
     </g>
    </g>
    <g id="ytick_3">
     <g id="line2d_9">
      <g>
       <use xlink:href="#m63d00ce827" x="71.026562" y="293.519836" style="stroke: #000000; stroke-width: 0.8"/>
      </g>
     </g>
     <g id="text_10">
      <!-- 50 -->
      <g transform="translate(44.939062 299.218664) scale(0.15 -0.15)">
       <use xlink:href="#DejaVuSans-35"/>
       <use xlink:href="#DejaVuSans-30" x="63.623047"/>
      </g>
     </g>
    </g>
    <g id="ytick_4">
     <g id="line2d_10">
      <g>
       <use xlink:href="#m63d00ce827" x="71.026562" y="253.398867" style="stroke: #000000; stroke-width: 0.8"/>
      </g>
     </g>
     <g id="text_11">
      <!-- 75 -->
      <g transform="translate(44.939062 259.097695) scale(0.15 -0.15)">
       <defs>
        <path id="DejaVuSans-37" d="M 525 4666 
L 3525 4666 
L 3525 4397 
L 1831 0 
L 1172 0 
L 2766 4134 
L 525 4134 
L 525 4666 
z
" transform="scale(0.015625)"/>
       </defs>
       <use xlink:href="#DejaVuSans-37"/>
       <use xlink:href="#DejaVuSans-35" x="63.623047"/>
      </g>
     </g>
    </g>
    <g id="ytick_5">
     <g id="line2d_11">
      <g>
       <use xlink:href="#m63d00ce827" x="71.026562" y="213.277898" style="stroke: #000000; stroke-width: 0.8"/>
      </g>
     </g>
     <g id="text_12">
      <!-- 100 -->
      <g transform="translate(35.395313 218.976726) scale(0.15 -0.15)">
       <use xlink:href="#DejaVuSans-31"/>
       <use xlink:href="#DejaVuSans-30" x="63.623047"/>
       <use xlink:href="#DejaVuSans-30" x="127.246094"/>
      </g>
     </g>
    </g>
    <g id="ytick_6">
     <g id="line2d_12">
      <g>
       <use xlink:href="#m63d00ce827" x="71.026562" y="173.156929" style="stroke: #000000; stroke-width: 0.8"/>
      </g>
     </g>
     <g id="text_13">
      <!-- 125 -->
      <g transform="translate(35.395313 178.855757) scale(0.15 -0.15)">
       <use xlink:href="#DejaVuSans-31"/>
       <use xlink:href="#DejaVuSans-32" x="63.623047"/>
       <use xlink:href="#DejaVuSans-35" x="127.246094"/>
      </g>
     </g>
    </g>
    <g id="ytick_7">
     <g id="line2d_13">
      <g>
       <use xlink:href="#m63d00ce827" x="71.026562" y="133.03596" style="stroke: #000000; stroke-width: 0.8"/>
      </g>
     </g>
     <g id="text_14">
      <!-- 150 -->
      <g transform="translate(35.395313 138.734788) scale(0.15 -0.15)">
       <use xlink:href="#DejaVuSans-31"/>
       <use xlink:href="#DejaVuSans-35" x="63.623047"/>
       <use xlink:href="#DejaVuSans-30" x="127.246094"/>
      </g>
     </g>
    </g>
    <g id="ytick_8">
     <g id="line2d_14">
      <g>
       <use xlink:href="#m63d00ce827" x="71.026562" y="92.914991" style="stroke: #000000; stroke-width: 0.8"/>
      </g>
     </g>
     <g id="text_15">
      <!-- 175 -->
      <g transform="translate(35.395313 98.61382) scale(0.15 -0.15)">
       <use xlink:href="#DejaVuSans-31"/>
       <use xlink:href="#DejaVuSans-37" x="63.623047"/>
       <use xlink:href="#DejaVuSans-35" x="127.246094"/>
      </g>
     </g>
    </g>
    <g id="text_16">
     <!-- Node Degree -->
     <g transform="translate(26.196094 311.418083) rotate(-90) scale(0.25 -0.25)">
      <defs>
       <path id="DejaVuSans-4e" d="M 628 4666 
L 1478 4666 
L 3547 763 
L 3547 4666 
L 4159 4666 
L 4159 0 
L 3309 0 
L 1241 3903 
L 1241 0 
L 628 0 
L 628 4666 
z
" transform="scale(0.015625)"/>
       <path id="DejaVuSans-64" d="M 2906 2969 
L 2906 4863 
L 3481 4863 
L 3481 0 
L 2906 0 
L 2906 525 
Q 2725 213 2448 61 
Q 2172 -91 1784 -91 
Q 1150 -91 751 415 
Q 353 922 353 1747 
Q 353 2572 751 3078 
Q 1150 3584 1784 3584 
Q 2172 3584 2448 3432 
Q 2725 3281 2906 2969 
z
M 947 1747 
Q 947 1113 1208 752 
Q 1469 391 1925 391 
Q 2381 391 2643 752 
Q 2906 1113 2906 1747 
Q 2906 2381 2643 2742 
Q 2381 3103 1925 3103 
Q 1469 3103 1208 2742 
Q 947 2381 947 1747 
z
" transform="scale(0.015625)"/>
       <path id="DejaVuSans-44" d="M 1259 4147 
L 1259 519 
L 2022 519 
Q 2988 519 3436 956 
Q 3884 1394 3884 2338 
Q 3884 3275 3436 3711 
Q 2988 4147 2022 4147 
L 1259 4147 
z
M 628 4666 
L 1925 4666 
Q 3281 4666 3915 4102 
Q 4550 3538 4550 2338 
Q 4550 1131 3912 565 
Q 3275 0 1925 0 
L 628 0 
L 628 4666 
z
" transform="scale(0.015625)"/>
       <path id="DejaVuSans-67" d="M 2906 1791 
Q 2906 2416 2648 2759 
Q 2391 3103 1925 3103 
Q 1463 3103 1205 2759 
Q 947 2416 947 1791 
Q 947 1169 1205 825 
Q 1463 481 1925 481 
Q 2391 481 2648 825 
Q 2906 1169 2906 1791 
z
M 3481 434 
Q 3481 -459 3084 -895 
Q 2688 -1331 1869 -1331 
Q 1566 -1331 1297 -1286 
Q 1028 -1241 775 -1147 
L 775 -588 
Q 1028 -725 1275 -790 
Q 1522 -856 1778 -856 
Q 2344 -856 2625 -561 
Q 2906 -266 2906 331 
L 2906 616 
Q 2728 306 2450 153 
Q 2172 0 1784 0 
Q 1141 0 747 490 
Q 353 981 353 1791 
Q 353 2603 747 3093 
Q 1141 3584 1784 3584 
Q 2172 3584 2450 3431 
Q 2728 3278 2906 2969 
L 2906 3500 
L 3481 3500 
L 3481 434 
z
" transform="scale(0.015625)"/>
       <path id="DejaVuSans-72" d="M 2631 2963 
Q 2534 3019 2420 3045 
Q 2306 3072 2169 3072 
Q 1681 3072 1420 2755 
Q 1159 2438 1159 1844 
L 1159 0 
L 581 0 
L 581 3500 
L 1159 3500 
L 1159 2956 
Q 1341 3275 1631 3429 
Q 1922 3584 2338 3584 
Q 2397 3584 2469 3576 
Q 2541 3569 2628 3553 
L 2631 2963 
z
" transform="scale(0.015625)"/>
      </defs>
      <use xlink:href="#DejaVuSans-4e"/>
      <use xlink:href="#DejaVuSans-6f" x="74.804688"/>
      <use xlink:href="#DejaVuSans-64" x="135.986328"/>
      <use xlink:href="#DejaVuSans-65" x="199.462891"/>
      <use xlink:href="#DejaVuSans-20" x="260.986328"/>
      <use xlink:href="#DejaVuSans-44" x="292.773438"/>
      <use xlink:href="#DejaVuSans-65" x="369.775391"/>
      <use xlink:href="#DejaVuSans-67" x="431.298828"/>
      <use xlink:href="#DejaVuSans-72" x="494.775391"/>
      <use xlink:href="#DejaVuSans-65" x="533.638672"/>
      <use xlink:href="#DejaVuSans-65" x="595.162109"/>
     </g>
    </g>
   </g>
   <g id="line2d_15">
    <path d="M 86.642749 386.44 
L 86.642749 72.212571 
" clip-path="url(#p023c4b7fa7)" style="fill: none; stroke: #777777; stroke-width: 3; stroke-linecap: square"/>
   </g>
   <g id="line2d_16">
    <path d="M 71.026562 272.656932 
L 377.87142 272.656932 
" clip-path="url(#p023c4b7fa7)" style="fill: none; stroke: #777777; stroke-width: 3; stroke-linecap: square"/>
   </g>
   <g id="patch_3">
    <path d="M 71.026562 386.44 
L 71.026562 72.212571 
" style="fill: none; stroke: #000000; stroke-width: 0.8; stroke-linejoin: miter; stroke-linecap: square"/>
   </g>
   <g id="patch_4">
    <path d="M 71.026562 386.44 
L 377.87142 386.44 
" style="fill: none; stroke: #000000; stroke-width: 0.8; stroke-linejoin: miter; stroke-linecap: square"/>
   </g>
   <g id="PathCollection_2"/>
  </g>
  <g id="axes_2">
   <g id="patch_5">
    <path d="M 71.026562 61.377143 
L 377.87142 61.377143 
L 377.87142 7.2 
L 71.026562 7.2 
z
" style="fill: #ffffff"/>
   </g>
   <g id="PolyCollection_1">
    <defs>
     <path id="m7524e0781c" d="M 24.004084 -382.247179 
L 24.004084 -381.975357 
L 26.018606 -381.975357 
L 28.033128 -381.975357 
L 30.047649 -381.975357 
L 32.062171 -381.975357 
L 34.076693 -381.975357 
L 36.091214 -381.975357 
L 38.105736 -381.975357 
L 40.120258 -381.975357 
L 42.134779 -381.975357 
L 44.149301 -381.975357 
L 46.163823 -381.975357 
L 48.178344 -381.975357 
L 50.192866 -381.975357 
L 52.207388 -381.975357 
L 54.221909 -381.975357 
L 56.236431 -381.975357 
L 58.250953 -381.975357 
L 60.265474 -381.975357 
L 62.279996 -381.975357 
L 64.294518 -381.975357 
L 66.309039 -381.975357 
L 68.323561 -381.975357 
L 70.338083 -381.975357 
L 72.352604 -381.975357 
L 74.367126 -381.975357 
L 76.381648 -381.975357 
L 78.396169 -381.975357 
L 80.410691 -381.975357 
L 82.425213 -381.975357 
L 84.439735 -381.975357 
L 86.454256 -381.975357 
L 88.468778 -381.975357 
L 90.4833 -381.975357 
L 92.497821 -381.975357 
L 94.512343 -381.975357 
L 96.526865 -381.975357 
L 98.541386 -381.975357 
L 100.555908 -381.975357 
L 102.57043 -381.975357 
L 104.584951 -381.975357 
L 106.599473 -381.975357 
L 108.613995 -381.975357 
L 110.628516 -381.975357 
L 112.643038 -381.975357 
L 114.65756 -381.975357 
L 116.672081 -381.975357 
L 118.686603 -381.975357 
L 120.701125 -381.975357 
L 122.715646 -381.975357 
L 124.730168 -381.975357 
L 126.74469 -381.975357 
L 128.759211 -381.975357 
L 130.773733 -381.975357 
L 132.788255 -381.975357 
L 134.802776 -381.975357 
L 136.817298 -381.975357 
L 138.83182 -381.975357 
L 140.846341 -381.975357 
L 142.860863 -381.975357 
L 144.875385 -381.975357 
L 146.889907 -381.975357 
L 148.904428 -381.975357 
L 150.91895 -381.975357 
L 152.933472 -381.975357 
L 154.947993 -381.975357 
L 156.962515 -381.975357 
L 158.977037 -381.975357 
L 160.991558 -381.975357 
L 163.00608 -381.975357 
L 165.020602 -381.975357 
L 167.035123 -381.975357 
L 169.049645 -381.975357 
L 171.064167 -381.975357 
L 173.078688 -381.975357 
L 175.09321 -381.975357 
L 177.107732 -381.975357 
L 179.122253 -381.975357 
L 181.136775 -381.975357 
L 183.151297 -381.975357 
L 185.165818 -381.975357 
L 187.18034 -381.975357 
L 189.194862 -381.975357 
L 191.209383 -381.975357 
L 193.223905 -381.975357 
L 195.238427 -381.975357 
L 197.252948 -381.975357 
L 199.26747 -381.975357 
L 201.281992 -381.975357 
L 203.296513 -381.975357 
L 205.311035 -381.975357 
L 207.325557 -381.975357 
L 209.340078 -381.975357 
L 211.3546 -381.975357 
L 213.369122 -381.975357 
L 215.383644 -381.975357 
L 217.398165 -381.975357 
L 219.412687 -381.975357 
L 221.427209 -381.975357 
L 223.44173 -381.975357 
L 225.456252 -381.975357 
L 227.470774 -381.975357 
L 229.485295 -381.975357 
L 231.499817 -381.975357 
L 233.514339 -381.975357 
L 235.52886 -381.975357 
L 237.543382 -381.975357 
L 239.557904 -381.975357 
L 241.572425 -381.975357 
L 243.586947 -381.975357 
L 245.601469 -381.975357 
L 247.61599 -381.975357 
L 249.630512 -381.975357 
L 251.645034 -381.975357 
L 253.659555 -381.975357 
L 255.674077 -381.975357 
L 257.688599 -381.975357 
L 259.70312 -381.975357 
L 261.717642 -381.975357 
L 263.732164 -381.975357 
L 265.746685 -381.975357 
L 267.761207 -381.975357 
L 269.775729 -381.975357 
L 271.79025 -381.975357 
L 273.804772 -381.975357 
L 275.819294 -381.975357 
L 277.833816 -381.975357 
L 279.848337 -381.975357 
L 281.862859 -381.975357 
L 283.877381 -381.975357 
L 285.891902 -381.975357 
L 287.906424 -381.975357 
L 289.920946 -381.975357 
L 291.935467 -381.975357 
L 293.949989 -381.975357 
L 295.964511 -381.975357 
L 297.979032 -381.975357 
L 299.993554 -381.975357 
L 302.008076 -381.975357 
L 304.022597 -381.975357 
L 306.037119 -381.975357 
L 308.051641 -381.975357 
L 310.066162 -381.975357 
L 312.080684 -381.975357 
L 314.095206 -381.975357 
L 316.109727 -381.975357 
L 318.124249 -381.975357 
L 320.138771 -381.975357 
L 322.153292 -381.975357 
L 324.167814 -381.975357 
L 326.182336 -381.975357 
L 328.196857 -381.975357 
L 330.211379 -381.975357 
L 332.225901 -381.975357 
L 334.240422 -381.975357 
L 336.254944 -381.975357 
L 338.269466 -381.975357 
L 340.283987 -381.975357 
L 342.298509 -381.975357 
L 344.313031 -381.975357 
L 346.327553 -381.975357 
L 348.342074 -381.975357 
L 350.356596 -381.975357 
L 352.371118 -381.975357 
L 354.385639 -381.975357 
L 356.400161 -381.975357 
L 358.414683 -381.975357 
L 360.429204 -381.975357 
L 362.443726 -381.975357 
L 364.458248 -381.975357 
L 366.472769 -381.975357 
L 368.487291 -381.975357 
L 370.501813 -381.975357 
L 372.516334 -381.975357 
L 374.530856 -381.975357 
L 376.545378 -381.975357 
L 378.559899 -381.975357 
L 380.574421 -381.975357 
L 382.588943 -381.975357 
L 384.603464 -381.975357 
L 386.617986 -381.975357 
L 388.632508 -381.975357 
L 390.647029 -381.975357 
L 392.661551 -381.975357 
L 394.676073 -381.975357 
L 396.690594 -381.975357 
L 398.705116 -381.975357 
L 400.719638 -381.975357 
L 402.734159 -381.975357 
L 404.748681 -381.975357 
L 406.763203 -381.975357 
L 408.777725 -381.975357 
L 410.792246 -381.975357 
L 412.806768 -381.975357 
L 414.82129 -381.975357 
L 416.835811 -381.975357 
L 418.850333 -381.975357 
L 420.864855 -381.975357 
L 422.879376 -381.975357 
L 424.893898 -381.975357 
L 424.893898 -381.983415 
L 424.893898 -381.983415 
L 422.879376 -381.986153 
L 420.864855 -381.989679 
L 418.850333 -381.994171 
L 416.835811 -381.99983 
L 414.82129 -382.00688 
L 412.806768 -382.015564 
L 410.792246 -382.026139 
L 408.777725 -382.038869 
L 406.763203 -382.054013 
L 404.748681 -382.071816 
L 402.734159 -382.092491 
L 400.719638 -382.116208 
L 398.705116 -382.143071 
L 396.690594 -382.173105 
L 394.676073 -382.206239 
L 392.661551 -382.242289 
L 390.647029 -382.280953 
L 388.632508 -382.3218 
L 386.617986 -382.36427 
L 384.603464 -382.407684 
L 382.588943 -382.451256 
L 380.574421 -382.494112 
L 378.559899 -382.535322 
L 376.545378 -382.57393 
L 374.530856 -382.608994 
L 372.516334 -382.639629 
L 370.501813 -382.665043 
L 368.487291 -382.684582 
L 366.472769 -382.697762 
L 364.458248 -382.704302 
L 362.443726 -382.704139 
L 360.429204 -382.697445 
L 358.414683 -382.684629 
L 356.400161 -382.666325 
L 354.385639 -382.643382 
L 352.371118 -382.616831 
L 350.356596 -382.58786 
L 348.342074 -382.557771 
L 346.327553 -382.527947 
L 344.313031 -382.499805 
L 342.298509 -382.474758 
L 340.283987 -382.454173 
L 338.269466 -382.439339 
L 336.254944 -382.431428 
L 334.240422 -382.431467 
L 332.225901 -382.440309 
L 330.211379 -382.458613 
L 328.196857 -382.486821 
L 326.182336 -382.525145 
L 324.167814 -382.573553 
L 322.153292 -382.631766 
L 320.138771 -382.699254 
L 318.124249 -382.775243 
L 316.109727 -382.858728 
L 314.095206 -382.948495 
L 312.080684 -383.043149 
L 310.066162 -383.141149 
L 308.051641 -383.240857 
L 306.037119 -383.340586 
L 304.022597 -383.438652 
L 302.008076 -383.533436 
L 299.993554 -383.623439 
L 297.979032 -383.707331 
L 295.964511 -383.784006 
L 293.949989 -383.852612 
L 291.935467 -383.912588 
L 289.920946 -383.963676 
L 287.906424 -384.005933 
L 285.891902 -384.039716 
L 283.877381 -384.065674 
L 281.862859 -384.084719 
L 279.848337 -384.097988 
L 277.833816 -384.106809 
L 275.819294 -384.112655 
L 273.804772 -384.117098 
L 271.79025 -384.121764 
L 269.775729 -384.128289 
L 267.761207 -384.138276 
L 265.746685 -384.153251 
L 263.732164 -384.17463 
L 261.717642 -384.203681 
L 259.70312 -384.24149 
L 257.688599 -384.288932 
L 255.674077 -384.346645 
L 253.659555 -384.415011 
L 251.645034 -384.494135 
L 249.630512 -384.583839 
L 247.61599 -384.683659 
L 245.601469 -384.792857 
L 243.586947 -384.910433 
L 241.572425 -385.03516 
L 239.557904 -385.165623 
L 237.543382 -385.300263 
L 235.52886 -385.437442 
L 233.514339 -385.575499 
L 231.499817 -385.712818 
L 229.485295 -385.847892 
L 227.470774 -385.979378 
L 225.456252 -386.10615 
L 223.44173 -386.22734 
L 221.427209 -386.342362 
L 219.412687 -386.450921 
L 217.398165 -386.553019 
L 215.383644 -386.648928 
L 213.369122 -386.739172 
L 211.3546 -386.824482 
L 209.340078 -386.905755 
L 207.325557 -386.98401 
L 205.311035 -387.060342 
L 203.296513 -387.135882 
L 201.281992 -387.211763 
L 199.26747 -387.289101 
L 197.252948 -387.368978 
L 195.238427 -387.452443 
L 193.223905 -387.540528 
L 191.209383 -387.634267 
L 189.194862 -387.734732 
L 187.18034 -387.84308 
L 185.165818 -387.960598 
L 183.151297 -388.088767 
L 181.136775 -388.229316 
L 179.122253 -388.38429 
L 177.107732 -388.556099 
L 175.09321 -388.747583 
L 173.078688 -388.962045 
L 171.064167 -389.203291 
L 169.049645 -389.47564 
L 167.035123 -389.783922 
L 165.020602 -390.133447 
L 163.00608 -390.529948 
L 160.991558 -390.979506 
L 158.977037 -391.488432 
L 156.962515 -392.063136 
L 154.947993 -392.70997 
L 152.933472 -393.435053 
L 150.91895 -394.244088 
L 148.904428 -395.142177 
L 146.889907 -396.133636 
L 144.875385 -397.221827 
L 142.860863 -398.409004 
L 140.846341 -399.69618 
L 138.83182 -401.08301 
L 136.817298 -402.567694 
L 134.802776 -404.14689 
L 132.788255 -405.81563 
L 130.773733 -407.567232 
L 128.759211 -409.393202 
L 126.74469 -411.283116 
L 124.730168 -413.224495 
L 122.715646 -415.202658 
L 120.701125 -417.200592 
L 118.686603 -419.198838 
L 116.672081 -421.175427 
L 114.65756 -423.1059 
L 112.643038 -424.963433 
L 110.628516 -426.719117 
L 108.613995 -428.342388 
L 106.599473 -429.80165 
L 104.584951 -431.06507 
L 102.57043 -432.101542 
L 100.555908 -432.881783 
L 98.541386 -433.379508 
L 96.526865 -433.572636 
L 94.512343 -433.444429 
L 92.497821 -432.984516 
L 90.4833 -432.189703 
L 88.468778 -431.064517 
L 86.454256 -429.621427 
L 84.439735 -427.880708 
L 82.425213 -425.869948 
L 80.410691 -423.623204 
L 78.396169 -421.179865 
L 76.381648 -418.583261 
L 74.367126 -415.879121 
L 72.352604 -413.113948 
L 70.338083 -410.333417 
L 68.323561 -407.580875 
L 66.309039 -404.896021 
L 64.294518 -402.313827 
L 62.279996 -399.863748 
L 60.265474 -397.569222 
L 58.250953 -395.44749 
L 56.236431 -393.509684 
L 54.221909 -391.761177 
L 52.207388 -390.202122 
L 50.192866 -388.828152 
L 48.178344 -387.631169 
L 46.163823 -386.600168 
L 44.149301 -385.722064 
L 42.134779 -384.982459 
L 40.120258 -384.366342 
L 38.105736 -383.858677 
L 36.091214 -383.444889 
L 34.076693 -383.111237 
L 32.062171 -382.845069 
L 30.047649 -382.634985 
L 28.033128 -382.470917 
L 26.018606 -382.344131 
L 24.004084 -382.247179 
z
" style="stroke: #1f77b4"/>
    </defs>
    <g clip-path="url(#p16f94b87b5)">
     <use xlink:href="#m7524e0781c" x="0" y="443.3525" style="fill: #1f77b4; fill-opacity: 0.25; stroke: #1f77b4"/>
    </g>
   </g>
   <g id="matplotlib.axis_3">
    <g id="xtick_7">
     <g id="line2d_17">
      <g>
       <use xlink:href="#m5d45ee5828" x="84.974056" y="61.377143" style="stroke: #000000; stroke-width: 0.8"/>
      </g>
     </g>
    </g>
    <g id="xtick_8">
     <g id="line2d_18">
      <g>
       <use xlink:href="#m5d45ee5828" x="140.597161" y="61.377143" style="stroke: #000000; stroke-width: 0.8"/>
      </g>
     </g>
    </g>
    <g id="xtick_9">
     <g id="line2d_19">
      <g>
       <use xlink:href="#m5d45ee5828" x="196.220265" y="61.377143" style="stroke: #000000; stroke-width: 0.8"/>
      </g>
     </g>
    </g>
    <g id="xtick_10">
     <g id="line2d_20">
      <g>
       <use xlink:href="#m5d45ee5828" x="251.84337" y="61.377143" style="stroke: #000000; stroke-width: 0.8"/>
      </g>
     </g>
    </g>
    <g id="xtick_11">
     <g id="line2d_21">
      <g>
       <use xlink:href="#m5d45ee5828" x="307.466475" y="61.377143" style="stroke: #000000; stroke-width: 0.8"/>
      </g>
     </g>
    </g>
    <g id="xtick_12">
     <g id="line2d_22">
      <g>
       <use xlink:href="#m5d45ee5828" x="363.08958" y="61.377143" style="stroke: #000000; stroke-width: 0.8"/>
      </g>
     </g>
    </g>
   </g>
   <g id="matplotlib.axis_4">
    <g id="ytick_9"/>
    <g id="ytick_10"/>
   </g>
   <g id="patch_6">
    <path d="M 71.026562 61.377143 
L 377.87142 61.377143 
" style="fill: none; stroke: #000000; stroke-width: 0.8; stroke-linejoin: miter; stroke-linecap: square"/>
   </g>
  </g>
  <g id="axes_3">
   <g id="patch_7">
    <path d="M 388.452277 386.44 
L 441.356562 386.44 
L 441.356562 72.212571 
L 388.452277 72.212571 
z
" style="fill: #ffffff"/>
   </g>
   <g id="PolyCollection_2">
    <defs>
     <path id="md19775f6ac" d="M 388.548125 -6.497376 
L 388.452277 -6.497376 
L 388.452277 -8.583093 
L 388.452277 -10.66881 
L 388.452277 -12.754527 
L 388.452277 -14.840244 
L 388.452277 -16.925961 
L 388.452277 -19.011678 
L 388.452277 -21.097395 
L 388.452277 -23.183112 
L 388.452277 -25.268829 
L 388.452277 -27.354546 
L 388.452277 -29.440263 
L 388.452277 -31.52598 
L 388.452277 -33.611697 
L 388.452277 -35.697414 
L 388.452277 -37.783131 
L 388.452277 -39.868848 
L 388.452277 -41.954565 
L 388.452277 -44.040282 
L 388.452277 -46.125999 
L 388.452277 -48.211716 
L 388.452277 -50.297433 
L 388.452277 -52.38315 
L 388.452277 -54.468867 
L 388.452277 -56.554584 
L 388.452277 -58.6403 
L 388.452277 -60.726017 
L 388.452277 -62.811734 
L 388.452277 -64.897451 
L 388.452277 -66.983168 
L 388.452277 -69.068885 
L 388.452277 -71.154602 
L 388.452277 -73.240319 
L 388.452277 -75.326036 
L 388.452277 -77.411753 
L 388.452277 -79.49747 
L 388.452277 -81.583187 
L 388.452277 -83.668904 
L 388.452277 -85.754621 
L 388.452277 -87.840338 
L 388.452277 -89.926055 
L 388.452277 -92.011772 
L 388.452277 -94.097489 
L 388.452277 -96.183206 
L 388.452277 -98.268923 
L 388.452277 -100.35464 
L 388.452277 -102.440357 
L 388.452277 -104.526074 
L 388.452277 -106.611791 
L 388.452277 -108.697508 
L 388.452277 -110.783225 
L 388.452277 -112.868942 
L 388.452277 -114.954658 
L 388.452277 -117.040375 
L 388.452277 -119.126092 
L 388.452277 -121.211809 
L 388.452277 -123.297526 
L 388.452277 -125.383243 
L 388.452277 -127.46896 
L 388.452277 -129.554677 
L 388.452277 -131.640394 
L 388.452277 -133.726111 
L 388.452277 -135.811828 
L 388.452277 -137.897545 
L 388.452277 -139.983262 
L 388.452277 -142.068979 
L 388.452277 -144.154696 
L 388.452277 -146.240413 
L 388.452277 -148.32613 
L 388.452277 -150.411847 
L 388.452277 -152.497564 
L 388.452277 -154.583281 
L 388.452277 -156.668998 
L 388.452277 -158.754715 
L 388.452277 -160.840432 
L 388.452277 -162.926149 
L 388.452277 -165.011866 
L 388.452277 -167.097583 
L 388.452277 -169.1833 
L 388.452277 -171.269017 
L 388.452277 -173.354733 
L 388.452277 -175.44045 
L 388.452277 -177.526167 
L 388.452277 -179.611884 
L 388.452277 -181.697601 
L 388.452277 -183.783318 
L 388.452277 -185.869035 
L 388.452277 -187.954752 
L 388.452277 -190.040469 
L 388.452277 -192.126186 
L 388.452277 -194.211903 
L 388.452277 -196.29762 
L 388.452277 -198.383337 
L 388.452277 -200.469054 
L 388.452277 -202.554771 
L 388.452277 -204.640488 
L 388.452277 -206.726205 
L 388.452277 -208.811922 
L 388.452277 -210.897639 
L 388.452277 -212.983356 
L 388.452277 -215.069073 
L 388.452277 -217.15479 
L 388.452277 -219.240507 
L 388.452277 -221.326224 
L 388.452277 -223.411941 
L 388.452277 -225.497658 
L 388.452277 -227.583375 
L 388.452277 -229.669092 
L 388.452277 -231.754808 
L 388.452277 -233.840525 
L 388.452277 -235.926242 
L 388.452277 -238.011959 
L 388.452277 -240.097676 
L 388.452277 -242.183393 
L 388.452277 -244.26911 
L 388.452277 -246.354827 
L 388.452277 -248.440544 
L 388.452277 -250.526261 
L 388.452277 -252.611978 
L 388.452277 -254.697695 
L 388.452277 -256.783412 
L 388.452277 -258.869129 
L 388.452277 -260.954846 
L 388.452277 -263.040563 
L 388.452277 -265.12628 
L 388.452277 -267.211997 
L 388.452277 -269.297714 
L 388.452277 -271.383431 
L 388.452277 -273.469148 
L 388.452277 -275.554865 
L 388.452277 -277.640582 
L 388.452277 -279.726299 
L 388.452277 -281.812016 
L 388.452277 -283.897733 
L 388.452277 -285.98345 
L 388.452277 -288.069167 
L 388.452277 -290.154883 
L 388.452277 -292.2406 
L 388.452277 -294.326317 
L 388.452277 -296.412034 
L 388.452277 -298.497751 
L 388.452277 -300.583468 
L 388.452277 -302.669185 
L 388.452277 -304.754902 
L 388.452277 -306.840619 
L 388.452277 -308.926336 
L 388.452277 -311.012053 
L 388.452277 -313.09777 
L 388.452277 -315.183487 
L 388.452277 -317.269204 
L 388.452277 -319.354921 
L 388.452277 -321.440638 
L 388.452277 -323.526355 
L 388.452277 -325.612072 
L 388.452277 -327.697789 
L 388.452277 -329.783506 
L 388.452277 -331.869223 
L 388.452277 -333.95494 
L 388.452277 -336.040657 
L 388.452277 -338.126374 
L 388.452277 -340.212091 
L 388.452277 -342.297808 
L 388.452277 -344.383525 
L 388.452277 -346.469241 
L 388.452277 -348.554958 
L 388.452277 -350.640675 
L 388.452277 -352.726392 
L 388.452277 -354.812109 
L 388.452277 -356.897826 
L 388.452277 -358.983543 
L 388.452277 -361.06926 
L 388.452277 -363.154977 
L 388.452277 -365.240694 
L 388.452277 -367.326411 
L 388.452277 -369.412128 
L 388.452277 -371.497845 
L 388.452277 -373.583562 
L 388.452277 -375.669279 
L 388.452277 -377.754996 
L 388.452277 -379.840713 
L 388.452277 -381.92643 
L 388.452277 -384.012147 
L 388.452277 -386.097864 
L 388.452277 -388.183581 
L 388.452277 -390.269298 
L 388.452277 -392.355015 
L 388.452277 -394.440732 
L 388.452277 -396.526449 
L 388.452277 -398.612166 
L 388.452277 -400.697883 
L 388.452277 -402.7836 
L 388.452277 -404.869316 
L 388.452277 -406.955033 
L 388.452277 -409.04075 
L 388.452277 -411.126467 
L 388.452277 -413.212184 
L 388.452277 -415.297901 
L 388.452277 -417.383618 
L 388.452277 -419.469335 
L 388.452277 -421.555052 
L 388.463154 -421.555052 
L 388.463154 -421.555052 
L 388.466763 -419.469335 
L 388.471391 -417.383618 
L 388.477267 -415.297901 
L 388.484651 -413.212184 
L 388.493835 -411.126467 
L 388.50514 -409.04075 
L 388.518912 -406.955033 
L 388.535514 -404.869316 
L 388.555319 -402.7836 
L 388.578697 -400.697883 
L 388.606001 -398.612166 
L 388.637553 -396.526449 
L 388.673624 -394.440732 
L 388.714419 -392.355015 
L 388.760061 -390.269298 
L 388.81057 -388.183581 
L 388.865857 -386.097864 
L 388.92571 -384.012147 
L 388.98979 -381.92643 
L 389.057637 -379.840713 
L 389.128669 -377.754996 
L 389.202204 -375.669279 
L 389.277473 -373.583562 
L 389.353646 -371.497845 
L 389.42986 -369.412128 
L 389.505251 -367.326411 
L 389.578984 -365.240694 
L 389.650283 -363.154977 
L 389.718459 -361.06926 
L 389.782936 -358.983543 
L 389.843268 -356.897826 
L 389.899154 -354.812109 
L 389.950443 -352.726392 
L 389.997139 -350.640675 
L 390.039393 -348.554958 
L 390.077497 -346.469241 
L 390.111869 -344.383525 
L 390.14304 -342.297808 
L 390.171632 -340.212091 
L 390.19834 -338.126374 
L 390.223909 -336.040657 
L 390.24911 -333.95494 
L 390.274715 -331.869223 
L 390.301474 -329.783506 
L 390.33008 -327.697789 
L 390.361151 -325.612072 
L 390.395195 -323.526355 
L 390.432585 -321.440638 
L 390.47354 -319.354921 
L 390.518103 -317.269204 
L 390.566133 -315.183487 
L 390.617298 -313.09777 
L 390.671088 -311.012053 
L 390.726831 -308.926336 
L 390.783722 -306.840619 
L 390.840866 -304.754902 
L 390.897326 -302.669185 
L 390.952179 -300.583468 
L 391.004575 -298.497751 
L 391.053798 -296.412034 
L 391.099323 -294.326317 
L 391.140861 -292.2406 
L 391.178404 -290.154883 
L 391.212246 -288.069167 
L 391.243003 -285.98345 
L 391.271601 -283.897733 
L 391.299269 -281.812016 
L 391.327506 -279.726299 
L 391.358038 -277.640582 
L 391.39277 -275.554865 
L 391.433725 -273.469148 
L 391.482986 -271.383431 
L 391.542626 -269.297714 
L 391.614648 -267.211997 
L 391.700916 -265.12628 
L 391.803102 -263.040563 
L 391.922631 -260.954846 
L 392.060629 -258.869129 
L 392.217895 -256.783412 
L 392.394868 -254.697695 
L 392.591616 -252.611978 
L 392.807834 -250.526261 
L 393.042864 -248.440544 
L 393.295722 -246.354827 
L 393.565148 -244.26911 
L 393.849672 -242.183393 
L 394.147685 -240.097676 
L 394.45753 -238.011959 
L 394.777588 -235.926242 
L 395.106375 -233.840525 
L 395.442623 -231.754808 
L 395.785354 -229.669092 
L 396.133937 -227.583375 
L 396.488121 -225.497658 
L 396.848044 -223.411941 
L 397.214213 -221.326224 
L 397.587467 -219.240507 
L 397.96891 -217.15479 
L 398.359835 -215.069073 
L 398.761637 -212.983356 
L 399.175726 -210.897639 
L 399.603457 -208.811922 
L 400.046067 -206.726205 
L 400.504647 -204.640488 
L 400.98014 -202.554771 
L 401.47337 -200.469054 
L 401.985109 -198.383337 
L 402.516163 -196.29762 
L 403.067481 -194.211903 
L 403.640281 -192.126186 
L 404.23616 -190.040469 
L 404.857203 -187.954752 
L 405.506057 -185.869035 
L 406.185967 -183.783318 
L 406.900768 -181.697601 
L 407.654812 -179.611884 
L 408.45285 -177.526167 
L 409.29984 -175.44045 
L 410.200718 -173.354733 
L 411.160108 -171.269017 
L 412.182011 -169.1833 
L 413.269471 -167.097583 
L 414.424241 -165.011866 
L 415.646462 -162.926149 
L 416.934388 -160.840432 
L 418.284157 -158.754715 
L 419.689637 -156.668998 
L 421.142358 -154.583281 
L 422.631541 -152.497564 
L 424.144228 -150.411847 
L 425.665523 -148.32613 
L 427.178924 -146.240413 
L 428.666759 -144.154696 
L 430.110688 -142.068979 
L 431.492267 -139.983262 
L 432.793543 -137.897545 
L 433.997644 -135.811828 
L 435.089353 -133.726111 
L 436.055604 -131.640394 
L 436.885908 -129.554677 
L 437.572647 -127.46896 
L 438.111243 -125.383243 
L 438.500177 -123.297526 
L 438.74085 -121.211809 
L 438.837311 -119.126092 
L 438.795842 -117.040375 
L 438.624447 -114.954658 
L 438.332267 -112.868942 
L 437.928957 -110.783225 
L 437.424071 -108.697508 
L 436.826501 -106.611791 
L 436.14399 -104.526074 
L 435.38278 -102.440357 
L 434.547383 -100.35464 
L 433.64053 -98.268923 
L 432.663258 -96.183206 
L 431.615167 -94.097489 
L 430.494788 -92.011772 
L 429.300067 -89.926055 
L 428.028901 -87.840338 
L 426.679707 -85.754621 
L 425.251962 -83.668904 
L 423.746691 -81.583187 
L 422.166854 -79.49747 
L 420.51762 -77.411753 
L 418.80649 -75.326036 
L 417.043272 -73.240319 
L 415.239921 -71.154602 
L 413.410227 -69.068885 
L 411.569407 -66.983168 
L 409.733598 -64.897451 
L 407.919313 -62.811734 
L 406.142865 -60.726017 
L 404.419818 -58.6403 
L 402.764478 -56.554584 
L 401.189465 -54.468867 
L 399.705366 -52.38315 
L 398.320507 -50.297433 
L 397.040823 -48.211716 
L 395.869843 -46.125999 
L 394.808768 -44.040282 
L 393.856642 -41.954565 
L 393.010585 -39.868848 
L 392.26608 -37.783131 
L 391.617289 -35.697414 
L 391.057376 -33.611697 
L 390.578834 -31.52598 
L 390.173779 -29.440263 
L 389.834225 -27.354546 
L 389.552315 -25.268829 
L 389.320507 -23.183112 
L 389.13172 -21.097395 
L 388.979441 -19.011678 
L 388.857781 -16.925961 
L 388.76151 -14.840244 
L 388.686055 -12.754527 
L 388.627477 -10.66881 
L 388.582433 -8.583093 
L 388.548125 -6.497376 
z
" style="stroke: #1f77b4"/>
    </defs>
    <g clip-path="url(#pf9154032ee)">
     <use xlink:href="#md19775f6ac" x="0" y="443.3525" style="fill: #1f77b4; fill-opacity: 0.25; stroke: #1f77b4"/>
    </g>
   </g>
   <g id="matplotlib.axis_5">
    <g id="xtick_13"/>
    <g id="xtick_14"/>
   </g>
   <g id="matplotlib.axis_6">
    <g id="ytick_11">
     <g id="line2d_23">
      <g>
       <use xlink:href="#m63d00ce827" x="388.452277" y="373.761774" style="stroke: #000000; stroke-width: 0.8"/>
      </g>
     </g>
    </g>
    <g id="ytick_12">
     <g id="line2d_24">
      <g>
       <use xlink:href="#m63d00ce827" x="388.452277" y="333.640805" style="stroke: #000000; stroke-width: 0.8"/>
      </g>
     </g>
    </g>
    <g id="ytick_13">
     <g id="line2d_25">
      <g>
       <use xlink:href="#m63d00ce827" x="388.452277" y="293.519836" style="stroke: #000000; stroke-width: 0.8"/>
      </g>
     </g>
    </g>
    <g id="ytick_14">
     <g id="line2d_26">
      <g>
       <use xlink:href="#m63d00ce827" x="388.452277" y="253.398867" style="stroke: #000000; stroke-width: 0.8"/>
      </g>
     </g>
    </g>
    <g id="ytick_15">
     <g id="line2d_27">
      <g>
       <use xlink:href="#m63d00ce827" x="388.452277" y="213.277898" style="stroke: #000000; stroke-width: 0.8"/>
      </g>
     </g>
    </g>
    <g id="ytick_16">
     <g id="line2d_28">
      <g>
       <use xlink:href="#m63d00ce827" x="388.452277" y="173.156929" style="stroke: #000000; stroke-width: 0.8"/>
      </g>
     </g>
    </g>
    <g id="ytick_17">
     <g id="line2d_29">
      <g>
       <use xlink:href="#m63d00ce827" x="388.452277" y="133.03596" style="stroke: #000000; stroke-width: 0.8"/>
      </g>
     </g>
    </g>
    <g id="ytick_18">
     <g id="line2d_30">
      <g>
       <use xlink:href="#m63d00ce827" x="388.452277" y="92.914991" style="stroke: #000000; stroke-width: 0.8"/>
      </g>
     </g>
    </g>
   </g>
   <g id="patch_8">
    <path d="M 388.452277 386.44 
L 388.452277 72.212571 
" style="fill: none; stroke: #000000; stroke-width: 0.8; stroke-linejoin: miter; stroke-linecap: square"/>
   </g>
  </g>
 </g>
 <defs>
  <clipPath id="p023c4b7fa7">
   <rect x="71.026562" y="72.212571" width="306.844857" height="314.227429"/>
  </clipPath>
  <clipPath id="p16f94b87b5">
   <rect x="71.026562" y="7.2" width="306.844857" height="54.177143"/>
  </clipPath>
  <clipPath id="pf9154032ee">
   <rect x="388.452277" y="72.212571" width="52.904286" height="314.227429"/>
  </clipPath>
 </defs>
</svg>
