<?xml version="1.0" encoding="utf-8" standalone="no"?>
<!DOCTYPE svg PUBLIC "-//W3C//DTD SVG 1.1//EN"
  "http://www.w3.org/Graphics/SVG/1.1/DTD/svg11.dtd">
<svg xmlns:xlink="http://www.w3.org/1999/xlink" width="448.556562pt" height="443.3525pt" viewBox="0 0 448.556562 443.3525" xmlns="http://www.w3.org/2000/svg" version="1.1">
 <metadata>
  <rdf:RDF xmlns:dc="http://purl.org/dc/elements/1.1/" xmlns:cc="http://creativecommons.org/ns#" xmlns:rdf="http://www.w3.org/1999/02/22-rdf-syntax-ns#">
   <cc:Work>
    <dc:type rdf:resource="http://purl.org/dc/dcmitype/StillImage"/>
    <dc:date>2022-12-09T16:27:25.455141</dc:date>
    <dc:format>image/svg+xml</dc:format>
    <dc:creator>
     <cc:Agent>
      <dc:title>Matplotlib v3.6.2, https://matplotlib.org/</dc:title>
     </cc:Agent>
    </dc:creator>
   </cc:Work>
  </rdf:RDF>
 </metadata>
 <defs>
  <style type="text/css">*{stroke-linejoin: round; stroke-linecap: butt}</style>
 </defs>
 <g id="figure_1">
  <g id="patch_1">
   <path d="M 0 443.3525 
L 448.556562 443.3525 
L 448.556562 0 
L 0 0 
z
" style="fill: #ffffff"/>
  </g>
  <g id="axes_1">
   <g id="patch_2">
    <path d="M 71.026563 386.44 
L 377.87142 386.44 
L 377.87142 72.212571 
L 71.026563 72.212571 
z
" style="fill: #ffffff"/>
   </g>
   <g id="PathCollection_1">
    <defs>
     <path id="m0f98ecd0c4" d="M 0 5 
C 1.326016 5 2.597899 4.473168 3.535534 3.535534 
C 4.473168 2.597899 5 1.326016 5 0 
C 5 -1.326016 4.473168 -2.597899 3.535534 -3.535534 
C 2.597899 -4.473168 1.326016 -5 0 -5 
C -1.326016 -5 -2.597899 -4.473168 -3.535534 -3.535534 
C -4.473168 -2.597899 -5 -1.326016 -5 0 
C -5 1.326016 -4.473168 2.597899 -3.535534 3.535534 
C -2.597899 4.473168 -1.326016 5 0 5 
z
" style="stroke: #ffffff; stroke-opacity: 0.5; stroke-width: 0.8"/>
    </defs>
    <g clip-path="url(#p2f4fe9694d)">
     <use xlink:href="#m0f98ecd0c4" x="84.974056" y="282.585172" style="fill: #1f77b4; fill-opacity: 0.5; stroke: #ffffff; stroke-opacity: 0.5; stroke-width: 0.8"/>
     <use xlink:href="#m0f98ecd0c4" x="86.411942" y="168.804824" style="fill: #1f77b4; fill-opacity: 0.5; stroke: #ffffff; stroke-opacity: 0.5; stroke-width: 0.8"/>
     <use xlink:href="#m0f98ecd0c4" x="84.974056" y="289.847747" style="fill: #1f77b4; fill-opacity: 0.5; stroke: #ffffff; stroke-opacity: 0.5; stroke-width: 0.8"/>
     <use xlink:href="#m0f98ecd0c4" x="84.974056" y="185.750833" style="fill: #1f77b4; fill-opacity: 0.5; stroke: #ffffff; stroke-opacity: 0.5; stroke-width: 0.8"/>
     <use xlink:href="#m0f98ecd0c4" x="132.424292" y="105.862504" style="fill: #1f77b4; fill-opacity: 0.5; stroke: #ffffff; stroke-opacity: 0.5; stroke-width: 0.8"/>
     <use xlink:href="#m0f98ecd0c4" x="363.923926" y="86.495636" style="fill: #1f77b4; fill-opacity: 0.5; stroke: #ffffff; stroke-opacity: 0.5; stroke-width: 0.8"/>
     <use xlink:href="#m0f98ecd0c4" x="84.974056" y="292.268606" style="fill: #1f77b4; fill-opacity: 0.5; stroke: #ffffff; stroke-opacity: 0.5; stroke-width: 0.8"/>
     <use xlink:href="#m0f98ecd0c4" x="95.039258" y="217.221993" style="fill: #1f77b4; fill-opacity: 0.5; stroke: #ffffff; stroke-opacity: 0.5; stroke-width: 0.8"/>
     <use xlink:href="#m0f98ecd0c4" x="84.974056" y="321.318907" style="fill: #1f77b4; fill-opacity: 0.5; stroke: #ffffff; stroke-opacity: 0.5; stroke-width: 0.8"/>
     <use xlink:href="#m0f98ecd0c4" x="96.477143" y="154.279673" style="fill: #1f77b4; fill-opacity: 0.5; stroke: #ffffff; stroke-opacity: 0.5; stroke-width: 0.8"/>
     <use xlink:href="#m0f98ecd0c4" x="84.974056" y="362.473501" style="fill: #1f77b4; fill-opacity: 0.5; stroke: #ffffff; stroke-opacity: 0.5; stroke-width: 0.8"/>
     <use xlink:href="#m0f98ecd0c4" x="84.974056" y="292.268606" style="fill: #1f77b4; fill-opacity: 0.5; stroke: #ffffff; stroke-opacity: 0.5; stroke-width: 0.8"/>
     <use xlink:href="#m0f98ecd0c4" x="92.163486" y="285.00603" style="fill: #1f77b4; fill-opacity: 0.5; stroke: #ffffff; stroke-opacity: 0.5; stroke-width: 0.8"/>
     <use xlink:href="#m0f98ecd0c4" x="84.974056" y="280.164313" style="fill: #1f77b4; fill-opacity: 0.5; stroke: #ffffff; stroke-opacity: 0.5; stroke-width: 0.8"/>
     <use xlink:href="#m0f98ecd0c4" x="84.974056" y="185.750833" style="fill: #1f77b4; fill-opacity: 0.5; stroke: #ffffff; stroke-opacity: 0.5; stroke-width: 0.8"/>
     <use xlink:href="#m0f98ecd0c4" x="84.974056" y="171.225683" style="fill: #1f77b4; fill-opacity: 0.5; stroke: #ffffff; stroke-opacity: 0.5; stroke-width: 0.8"/>
     <use xlink:href="#m0f98ecd0c4" x="84.974056" y="338.264917" style="fill: #1f77b4; fill-opacity: 0.5; stroke: #ffffff; stroke-opacity: 0.5; stroke-width: 0.8"/>
     <use xlink:href="#m0f98ecd0c4" x="84.974056" y="180.909116" style="fill: #1f77b4; fill-opacity: 0.5; stroke: #ffffff; stroke-opacity: 0.5; stroke-width: 0.8"/>
     <use xlink:href="#m0f98ecd0c4" x="84.974056" y="226.905427" style="fill: #1f77b4; fill-opacity: 0.5; stroke: #ffffff; stroke-opacity: 0.5; stroke-width: 0.8"/>
     <use xlink:href="#m0f98ecd0c4" x="84.974056" y="362.473501" style="fill: #1f77b4; fill-opacity: 0.5; stroke: #ffffff; stroke-opacity: 0.5; stroke-width: 0.8"/>
     <use xlink:href="#m0f98ecd0c4" x="84.974056" y="171.225683" style="fill: #1f77b4; fill-opacity: 0.5; stroke: #ffffff; stroke-opacity: 0.5; stroke-width: 0.8"/>
     <use xlink:href="#m0f98ecd0c4" x="84.974056" y="360.052643" style="fill: #1f77b4; fill-opacity: 0.5; stroke: #ffffff; stroke-opacity: 0.5; stroke-width: 0.8"/>
     <use xlink:href="#m0f98ecd0c4" x="84.974056" y="168.804824" style="fill: #1f77b4; fill-opacity: 0.5; stroke: #ffffff; stroke-opacity: 0.5; stroke-width: 0.8"/>
     <use xlink:href="#m0f98ecd0c4" x="92.163486" y="151.858815" style="fill: #1f77b4; fill-opacity: 0.5; stroke: #ffffff; stroke-opacity: 0.5; stroke-width: 0.8"/>
     <use xlink:href="#m0f98ecd0c4" x="87.849828" y="137.333664" style="fill: #1f77b4; fill-opacity: 0.5; stroke: #ffffff; stroke-opacity: 0.5; stroke-width: 0.8"/>
     <use xlink:href="#m0f98ecd0c4" x="86.411942" y="343.106634" style="fill: #1f77b4; fill-opacity: 0.5; stroke: #ffffff; stroke-opacity: 0.5; stroke-width: 0.8"/>
     <use xlink:href="#m0f98ecd0c4" x="84.974056" y="139.754523" style="fill: #1f77b4; fill-opacity: 0.5; stroke: #ffffff; stroke-opacity: 0.5; stroke-width: 0.8"/>
     <use xlink:href="#m0f98ecd0c4" x="84.974056" y="166.383966" style="fill: #1f77b4; fill-opacity: 0.5; stroke: #ffffff; stroke-opacity: 0.5; stroke-width: 0.8"/>
     <use xlink:href="#m0f98ecd0c4" x="84.974056" y="188.171692" style="fill: #1f77b4; fill-opacity: 0.5; stroke: #ffffff; stroke-opacity: 0.5; stroke-width: 0.8"/>
     <use xlink:href="#m0f98ecd0c4" x="84.974056" y="193.013409" style="fill: #1f77b4; fill-opacity: 0.5; stroke: #ffffff; stroke-opacity: 0.5; stroke-width: 0.8"/>
     <use xlink:href="#m0f98ecd0c4" x="84.974056" y="362.473501" style="fill: #1f77b4; fill-opacity: 0.5; stroke: #ffffff; stroke-opacity: 0.5; stroke-width: 0.8"/>
     <use xlink:href="#m0f98ecd0c4" x="84.974056" y="369.736077" style="fill: #1f77b4; fill-opacity: 0.5; stroke: #ffffff; stroke-opacity: 0.5; stroke-width: 0.8"/>
     <use xlink:href="#m0f98ecd0c4" x="84.974056" y="357.631784" style="fill: #1f77b4; fill-opacity: 0.5; stroke: #ffffff; stroke-opacity: 0.5; stroke-width: 0.8"/>
     <use xlink:href="#m0f98ecd0c4" x="86.411942" y="166.383966" style="fill: #1f77b4; fill-opacity: 0.5; stroke: #ffffff; stroke-opacity: 0.5; stroke-width: 0.8"/>
     <use xlink:href="#m0f98ecd0c4" x="84.974056" y="367.315218" style="fill: #1f77b4; fill-opacity: 0.5; stroke: #ffffff; stroke-opacity: 0.5; stroke-width: 0.8"/>
     <use xlink:href="#m0f98ecd0c4" x="84.974056" y="163.963107" style="fill: #1f77b4; fill-opacity: 0.5; stroke: #ffffff; stroke-opacity: 0.5; stroke-width: 0.8"/>
     <use xlink:href="#m0f98ecd0c4" x="86.411942" y="139.754523" style="fill: #1f77b4; fill-opacity: 0.5; stroke: #ffffff; stroke-opacity: 0.5; stroke-width: 0.8"/>
     <use xlink:href="#m0f98ecd0c4" x="84.974056" y="289.847747" style="fill: #1f77b4; fill-opacity: 0.5; stroke: #ffffff; stroke-opacity: 0.5; stroke-width: 0.8"/>
     <use xlink:href="#m0f98ecd0c4" x="89.287714" y="234.168003" style="fill: #1f77b4; fill-opacity: 0.5; stroke: #ffffff; stroke-opacity: 0.5; stroke-width: 0.8"/>
     <use xlink:href="#m0f98ecd0c4" x="84.974056" y="289.847747" style="fill: #1f77b4; fill-opacity: 0.5; stroke: #ffffff; stroke-opacity: 0.5; stroke-width: 0.8"/>
     <use xlink:href="#m0f98ecd0c4" x="84.974056" y="166.383966" style="fill: #1f77b4; fill-opacity: 0.5; stroke: #ffffff; stroke-opacity: 0.5; stroke-width: 0.8"/>
     <use xlink:href="#m0f98ecd0c4" x="87.849828" y="159.12139" style="fill: #1f77b4; fill-opacity: 0.5; stroke: #ffffff; stroke-opacity: 0.5; stroke-width: 0.8"/>
     <use xlink:href="#m0f98ecd0c4" x="84.974056" y="161.542249" style="fill: #1f77b4; fill-opacity: 0.5; stroke: #ffffff; stroke-opacity: 0.5; stroke-width: 0.8"/>
     <use xlink:href="#m0f98ecd0c4" x="84.974056" y="180.909116" style="fill: #1f77b4; fill-opacity: 0.5; stroke: #ffffff; stroke-opacity: 0.5; stroke-width: 0.8"/>
     <use xlink:href="#m0f98ecd0c4" x="84.974056" y="323.739766" style="fill: #1f77b4; fill-opacity: 0.5; stroke: #ffffff; stroke-opacity: 0.5; stroke-width: 0.8"/>
     <use xlink:href="#m0f98ecd0c4" x="89.287714" y="156.700532" style="fill: #1f77b4; fill-opacity: 0.5; stroke: #ffffff; stroke-opacity: 0.5; stroke-width: 0.8"/>
     <use xlink:href="#m0f98ecd0c4" x="118.045432" y="127.65023" style="fill: #1f77b4; fill-opacity: 0.5; stroke: #ffffff; stroke-opacity: 0.5; stroke-width: 0.8"/>
     <use xlink:href="#m0f98ecd0c4" x="84.974056" y="176.0674" style="fill: #1f77b4; fill-opacity: 0.5; stroke: #ffffff; stroke-opacity: 0.5; stroke-width: 0.8"/>
     <use xlink:href="#m0f98ecd0c4" x="84.974056" y="287.426889" style="fill: #1f77b4; fill-opacity: 0.5; stroke: #ffffff; stroke-opacity: 0.5; stroke-width: 0.8"/>
     <use xlink:href="#m0f98ecd0c4" x="86.411942" y="316.47719" style="fill: #1f77b4; fill-opacity: 0.5; stroke: #ffffff; stroke-opacity: 0.5; stroke-width: 0.8"/>
     <use xlink:href="#m0f98ecd0c4" x="84.974056" y="253.53487" style="fill: #1f77b4; fill-opacity: 0.5; stroke: #ffffff; stroke-opacity: 0.5; stroke-width: 0.8"/>
     <use xlink:href="#m0f98ecd0c4" x="84.974056" y="260.797446" style="fill: #1f77b4; fill-opacity: 0.5; stroke: #ffffff; stroke-opacity: 0.5; stroke-width: 0.8"/>
     <use xlink:href="#m0f98ecd0c4" x="166.933554" y="108.283363" style="fill: #1f77b4; fill-opacity: 0.5; stroke: #ffffff; stroke-opacity: 0.5; stroke-width: 0.8"/>
     <use xlink:href="#m0f98ecd0c4" x="84.974056" y="193.013409" style="fill: #1f77b4; fill-opacity: 0.5; stroke: #ffffff; stroke-opacity: 0.5; stroke-width: 0.8"/>
     <use xlink:href="#m0f98ecd0c4" x="84.974056" y="171.225683" style="fill: #1f77b4; fill-opacity: 0.5; stroke: #ffffff; stroke-opacity: 0.5; stroke-width: 0.8"/>
     <use xlink:href="#m0f98ecd0c4" x="86.411942" y="163.963107" style="fill: #1f77b4; fill-opacity: 0.5; stroke: #ffffff; stroke-opacity: 0.5; stroke-width: 0.8"/>
     <use xlink:href="#m0f98ecd0c4" x="86.411942" y="183.329975" style="fill: #1f77b4; fill-opacity: 0.5; stroke: #ffffff; stroke-opacity: 0.5; stroke-width: 0.8"/>
     <use xlink:href="#m0f98ecd0c4" x="84.974056" y="193.013409" style="fill: #1f77b4; fill-opacity: 0.5; stroke: #ffffff; stroke-opacity: 0.5; stroke-width: 0.8"/>
     <use xlink:href="#m0f98ecd0c4" x="84.974056" y="292.268606" style="fill: #1f77b4; fill-opacity: 0.5; stroke: #ffffff; stroke-opacity: 0.5; stroke-width: 0.8"/>
     <use xlink:href="#m0f98ecd0c4" x="84.974056" y="183.329975" style="fill: #1f77b4; fill-opacity: 0.5; stroke: #ffffff; stroke-opacity: 0.5; stroke-width: 0.8"/>
     <use xlink:href="#m0f98ecd0c4" x="84.974056" y="357.631784" style="fill: #1f77b4; fill-opacity: 0.5; stroke: #ffffff; stroke-opacity: 0.5; stroke-width: 0.8"/>
     <use xlink:href="#m0f98ecd0c4" x="86.411942" y="364.89436" style="fill: #1f77b4; fill-opacity: 0.5; stroke: #ffffff; stroke-opacity: 0.5; stroke-width: 0.8"/>
     <use xlink:href="#m0f98ecd0c4" x="84.974056" y="338.264917" style="fill: #1f77b4; fill-opacity: 0.5; stroke: #ffffff; stroke-opacity: 0.5; stroke-width: 0.8"/>
     <use xlink:href="#m0f98ecd0c4" x="84.974056" y="151.858815" style="fill: #1f77b4; fill-opacity: 0.5; stroke: #ffffff; stroke-opacity: 0.5; stroke-width: 0.8"/>
     <use xlink:href="#m0f98ecd0c4" x="84.974056" y="372.156935" style="fill: #1f77b4; fill-opacity: 0.5; stroke: #ffffff; stroke-opacity: 0.5; stroke-width: 0.8"/>
     <use xlink:href="#m0f98ecd0c4" x="84.974056" y="255.955729" style="fill: #1f77b4; fill-opacity: 0.5; stroke: #ffffff; stroke-opacity: 0.5; stroke-width: 0.8"/>
     <use xlink:href="#m0f98ecd0c4" x="99.352915" y="173.646541" style="fill: #1f77b4; fill-opacity: 0.5; stroke: #ffffff; stroke-opacity: 0.5; stroke-width: 0.8"/>
     <use xlink:href="#m0f98ecd0c4" x="84.974056" y="338.264917" style="fill: #1f77b4; fill-opacity: 0.5; stroke: #ffffff; stroke-opacity: 0.5; stroke-width: 0.8"/>
    </g>
   </g>
   <g id="matplotlib.axis_1">
    <g id="xtick_1">
     <g id="line2d_1">
      <defs>
       <path id="mf06de3323a" d="M 0 0 
L 0 3.5 
" style="stroke: #000000; stroke-width: 0.8"/>
      </defs>
      <g>
       <use xlink:href="#mf06de3323a" x="83.53617" y="386.44" style="stroke: #000000; stroke-width: 0.8"/>
      </g>
     </g>
     <g id="text_1">
      <!-- 0 -->
      <g transform="translate(78.764295 404.837656) scale(0.15 -0.15)">
       <defs>
        <path id="DejaVuSans-30" d="M 2034 4250 
Q 1547 4250 1301 3770 
Q 1056 3291 1056 2328 
Q 1056 1369 1301 889 
Q 1547 409 2034 409 
Q 2525 409 2770 889 
Q 3016 1369 3016 2328 
Q 3016 3291 2770 3770 
Q 2525 4250 2034 4250 
z
M 2034 4750 
Q 2819 4750 3233 4129 
Q 3647 3509 3647 2328 
Q 3647 1150 3233 529 
Q 2819 -91 2034 -91 
Q 1250 -91 836 529 
Q 422 1150 422 2328 
Q 422 3509 836 4129 
Q 1250 4750 2034 4750 
z
" transform="scale(0.015625)"/>
       </defs>
       <use xlink:href="#DejaVuSans-30"/>
      </g>
     </g>
    </g>
    <g id="xtick_2">
     <g id="line2d_2">
      <g>
       <use xlink:href="#mf06de3323a" x="155.430467" y="386.44" style="stroke: #000000; stroke-width: 0.8"/>
      </g>
     </g>
     <g id="text_2">
      <!-- 50 -->
      <g transform="translate(145.886717 404.837656) scale(0.15 -0.15)">
       <defs>
        <path id="DejaVuSans-35" d="M 691 4666 
L 3169 4666 
L 3169 4134 
L 1269 4134 
L 1269 2991 
Q 1406 3038 1543 3061 
Q 1681 3084 1819 3084 
Q 2600 3084 3056 2656 
Q 3513 2228 3513 1497 
Q 3513 744 3044 326 
Q 2575 -91 1722 -91 
Q 1428 -91 1123 -41 
Q 819 9 494 109 
L 494 744 
Q 775 591 1075 516 
Q 1375 441 1709 441 
Q 2250 441 2565 725 
Q 2881 1009 2881 1497 
Q 2881 1984 2565 2268 
Q 2250 2553 1709 2553 
Q 1456 2553 1204 2497 
Q 953 2441 691 2322 
L 691 4666 
z
" transform="scale(0.015625)"/>
       </defs>
       <use xlink:href="#DejaVuSans-35"/>
       <use xlink:href="#DejaVuSans-30" x="63.623047"/>
      </g>
     </g>
    </g>
    <g id="xtick_3">
     <g id="line2d_3">
      <g>
       <use xlink:href="#mf06de3323a" x="227.324763" y="386.44" style="stroke: #000000; stroke-width: 0.8"/>
      </g>
     </g>
     <g id="text_3">
      <!-- 100 -->
      <g transform="translate(213.009138 404.837656) scale(0.15 -0.15)">
       <defs>
        <path id="DejaVuSans-31" d="M 794 531 
L 1825 531 
L 1825 4091 
L 703 3866 
L 703 4441 
L 1819 4666 
L 2450 4666 
L 2450 531 
L 3481 531 
L 3481 0 
L 794 0 
L 794 531 
z
" transform="scale(0.015625)"/>
       </defs>
       <use xlink:href="#DejaVuSans-31"/>
       <use xlink:href="#DejaVuSans-30" x="63.623047"/>
       <use xlink:href="#DejaVuSans-30" x="127.246094"/>
      </g>
     </g>
    </g>
    <g id="xtick_4">
     <g id="line2d_4">
      <g>
       <use xlink:href="#mf06de3323a" x="299.219059" y="386.44" style="stroke: #000000; stroke-width: 0.8"/>
      </g>
     </g>
     <g id="text_4">
      <!-- 150 -->
      <g transform="translate(284.903434 404.837656) scale(0.15 -0.15)">
       <use xlink:href="#DejaVuSans-31"/>
       <use xlink:href="#DejaVuSans-35" x="63.623047"/>
       <use xlink:href="#DejaVuSans-30" x="127.246094"/>
      </g>
     </g>
    </g>
    <g id="xtick_5">
     <g id="line2d_5">
      <g>
       <use xlink:href="#mf06de3323a" x="371.113356" y="386.44" style="stroke: #000000; stroke-width: 0.8"/>
      </g>
     </g>
     <g id="text_5">
      <!-- 200 -->
      <g transform="translate(356.797731 404.837656) scale(0.15 -0.15)">
       <defs>
        <path id="DejaVuSans-32" d="M 1228 531 
L 3431 531 
L 3431 0 
L 469 0 
L 469 531 
Q 828 903 1448 1529 
Q 2069 2156 2228 2338 
Q 2531 2678 2651 2914 
Q 2772 3150 2772 3378 
Q 2772 3750 2511 3984 
Q 2250 4219 1831 4219 
Q 1534 4219 1204 4116 
Q 875 4013 500 3803 
L 500 4441 
Q 881 4594 1212 4672 
Q 1544 4750 1819 4750 
Q 2544 4750 2975 4387 
Q 3406 4025 3406 3419 
Q 3406 3131 3298 2873 
Q 3191 2616 2906 2266 
Q 2828 2175 2409 1742 
Q 1991 1309 1228 531 
z
" transform="scale(0.015625)"/>
       </defs>
       <use xlink:href="#DejaVuSans-32"/>
       <use xlink:href="#DejaVuSans-30" x="63.623047"/>
       <use xlink:href="#DejaVuSans-30" x="127.246094"/>
      </g>
     </g>
    </g>
    <g id="text_6">
     <!-- # Commits -->
     <g transform="translate(154.388444 430.953281) scale(0.25 -0.25)">
      <defs>
       <path id="DejaVuSans-23" d="M 3272 2816 
L 2363 2816 
L 2100 1772 
L 3016 1772 
L 3272 2816 
z
M 2803 4594 
L 2478 3297 
L 3391 3297 
L 3719 4594 
L 4219 4594 
L 3897 3297 
L 4872 3297 
L 4872 2816 
L 3775 2816 
L 3519 1772 
L 4513 1772 
L 4513 1294 
L 3397 1294 
L 3072 0 
L 2572 0 
L 2894 1294 
L 1978 1294 
L 1656 0 
L 1153 0 
L 1478 1294 
L 494 1294 
L 494 1772 
L 1594 1772 
L 1856 2816 
L 850 2816 
L 850 3297 
L 1978 3297 
L 2297 4594 
L 2803 4594 
z
" transform="scale(0.015625)"/>
       <path id="DejaVuSans-20" transform="scale(0.015625)"/>
       <path id="DejaVuSans-43" d="M 4122 4306 
L 4122 3641 
Q 3803 3938 3442 4084 
Q 3081 4231 2675 4231 
Q 1875 4231 1450 3742 
Q 1025 3253 1025 2328 
Q 1025 1406 1450 917 
Q 1875 428 2675 428 
Q 3081 428 3442 575 
Q 3803 722 4122 1019 
L 4122 359 
Q 3791 134 3420 21 
Q 3050 -91 2638 -91 
Q 1578 -91 968 557 
Q 359 1206 359 2328 
Q 359 3453 968 4101 
Q 1578 4750 2638 4750 
Q 3056 4750 3426 4639 
Q 3797 4528 4122 4306 
z
" transform="scale(0.015625)"/>
       <path id="DejaVuSans-6f" d="M 1959 3097 
Q 1497 3097 1228 2736 
Q 959 2375 959 1747 
Q 959 1119 1226 758 
Q 1494 397 1959 397 
Q 2419 397 2687 759 
Q 2956 1122 2956 1747 
Q 2956 2369 2687 2733 
Q 2419 3097 1959 3097 
z
M 1959 3584 
Q 2709 3584 3137 3096 
Q 3566 2609 3566 1747 
Q 3566 888 3137 398 
Q 2709 -91 1959 -91 
Q 1206 -91 779 398 
Q 353 888 353 1747 
Q 353 2609 779 3096 
Q 1206 3584 1959 3584 
z
" transform="scale(0.015625)"/>
       <path id="DejaVuSans-6d" d="M 3328 2828 
Q 3544 3216 3844 3400 
Q 4144 3584 4550 3584 
Q 5097 3584 5394 3201 
Q 5691 2819 5691 2113 
L 5691 0 
L 5113 0 
L 5113 2094 
Q 5113 2597 4934 2840 
Q 4756 3084 4391 3084 
Q 3944 3084 3684 2787 
Q 3425 2491 3425 1978 
L 3425 0 
L 2847 0 
L 2847 2094 
Q 2847 2600 2669 2842 
Q 2491 3084 2119 3084 
Q 1678 3084 1418 2786 
Q 1159 2488 1159 1978 
L 1159 0 
L 581 0 
L 581 3500 
L 1159 3500 
L 1159 2956 
Q 1356 3278 1631 3431 
Q 1906 3584 2284 3584 
Q 2666 3584 2933 3390 
Q 3200 3197 3328 2828 
z
" transform="scale(0.015625)"/>
       <path id="DejaVuSans-69" d="M 603 3500 
L 1178 3500 
L 1178 0 
L 603 0 
L 603 3500 
z
M 603 4863 
L 1178 4863 
L 1178 4134 
L 603 4134 
L 603 4863 
z
" transform="scale(0.015625)"/>
       <path id="DejaVuSans-74" d="M 1172 4494 
L 1172 3500 
L 2356 3500 
L 2356 3053 
L 1172 3053 
L 1172 1153 
Q 1172 725 1289 603 
Q 1406 481 1766 481 
L 2356 481 
L 2356 0 
L 1766 0 
Q 1100 0 847 248 
Q 594 497 594 1153 
L 594 3053 
L 172 3053 
L 172 3500 
L 594 3500 
L 594 4494 
L 1172 4494 
z
" transform="scale(0.015625)"/>
       <path id="DejaVuSans-73" d="M 2834 3397 
L 2834 2853 
Q 2591 2978 2328 3040 
Q 2066 3103 1784 3103 
Q 1356 3103 1142 2972 
Q 928 2841 928 2578 
Q 928 2378 1081 2264 
Q 1234 2150 1697 2047 
L 1894 2003 
Q 2506 1872 2764 1633 
Q 3022 1394 3022 966 
Q 3022 478 2636 193 
Q 2250 -91 1575 -91 
Q 1294 -91 989 -36 
Q 684 19 347 128 
L 347 722 
Q 666 556 975 473 
Q 1284 391 1588 391 
Q 1994 391 2212 530 
Q 2431 669 2431 922 
Q 2431 1156 2273 1281 
Q 2116 1406 1581 1522 
L 1381 1569 
Q 847 1681 609 1914 
Q 372 2147 372 2553 
Q 372 3047 722 3315 
Q 1072 3584 1716 3584 
Q 2034 3584 2315 3537 
Q 2597 3491 2834 3397 
z
" transform="scale(0.015625)"/>
      </defs>
      <use xlink:href="#DejaVuSans-23"/>
      <use xlink:href="#DejaVuSans-20" x="83.789062"/>
      <use xlink:href="#DejaVuSans-43" x="115.576172"/>
      <use xlink:href="#DejaVuSans-6f" x="185.400391"/>
      <use xlink:href="#DejaVuSans-6d" x="246.582031"/>
      <use xlink:href="#DejaVuSans-6d" x="343.994141"/>
      <use xlink:href="#DejaVuSans-69" x="441.40625"/>
      <use xlink:href="#DejaVuSans-74" x="469.189453"/>
      <use xlink:href="#DejaVuSans-73" x="508.398438"/>
     </g>
    </g>
   </g>
   <g id="matplotlib.axis_2">
    <g id="ytick_1">
     <g id="line2d_6">
      <defs>
       <path id="m71785df0c9" d="M 0 0 
L -3.5 0 
" style="stroke: #000000; stroke-width: 0.8"/>
      </defs>
      <g>
       <use xlink:href="#m71785df0c9" x="71.026563" y="374.577794" style="stroke: #000000; stroke-width: 0.8"/>
      </g>
     </g>
     <g id="text_7">
      <!-- 0 -->
      <g transform="translate(54.482813 380.276622) scale(0.15 -0.15)">
       <use xlink:href="#DejaVuSans-30"/>
      </g>
     </g>
    </g>
    <g id="ytick_2">
     <g id="line2d_7">
      <g>
       <use xlink:href="#m71785df0c9" x="71.026563" y="326.160624" style="stroke: #000000; stroke-width: 0.8"/>
      </g>
     </g>
     <g id="text_8">
      <!-- 20 -->
      <g transform="translate(44.939063 331.859452) scale(0.15 -0.15)">
       <use xlink:href="#DejaVuSans-32"/>
       <use xlink:href="#DejaVuSans-30" x="63.623047"/>
      </g>
     </g>
    </g>
    <g id="ytick_3">
     <g id="line2d_8">
      <g>
       <use xlink:href="#m71785df0c9" x="71.026563" y="277.743455" style="stroke: #000000; stroke-width: 0.8"/>
      </g>
     </g>
     <g id="text_9">
      <!-- 40 -->
      <g transform="translate(44.939063 283.442283) scale(0.15 -0.15)">
       <defs>
        <path id="DejaVuSans-34" d="M 2419 4116 
L 825 1625 
L 2419 1625 
L 2419 4116 
z
M 2253 4666 
L 3047 4666 
L 3047 1625 
L 3713 1625 
L 3713 1100 
L 3047 1100 
L 3047 0 
L 2419 0 
L 2419 1100 
L 313 1100 
L 313 1709 
L 2253 4666 
z
" transform="scale(0.015625)"/>
       </defs>
       <use xlink:href="#DejaVuSans-34"/>
       <use xlink:href="#DejaVuSans-30" x="63.623047"/>
      </g>
     </g>
    </g>
    <g id="ytick_4">
     <g id="line2d_9">
      <g>
       <use xlink:href="#m71785df0c9" x="71.026563" y="229.326286" style="stroke: #000000; stroke-width: 0.8"/>
      </g>
     </g>
     <g id="text_10">
      <!-- 60 -->
      <g transform="translate(44.939063 235.025114) scale(0.15 -0.15)">
       <defs>
        <path id="DejaVuSans-36" d="M 2113 2584 
Q 1688 2584 1439 2293 
Q 1191 2003 1191 1497 
Q 1191 994 1439 701 
Q 1688 409 2113 409 
Q 2538 409 2786 701 
Q 3034 994 3034 1497 
Q 3034 2003 2786 2293 
Q 2538 2584 2113 2584 
z
M 3366 4563 
L 3366 3988 
Q 3128 4100 2886 4159 
Q 2644 4219 2406 4219 
Q 1781 4219 1451 3797 
Q 1122 3375 1075 2522 
Q 1259 2794 1537 2939 
Q 1816 3084 2150 3084 
Q 2853 3084 3261 2657 
Q 3669 2231 3669 1497 
Q 3669 778 3244 343 
Q 2819 -91 2113 -91 
Q 1303 -91 875 529 
Q 447 1150 447 2328 
Q 447 3434 972 4092 
Q 1497 4750 2381 4750 
Q 2619 4750 2861 4703 
Q 3103 4656 3366 4563 
z
" transform="scale(0.015625)"/>
       </defs>
       <use xlink:href="#DejaVuSans-36"/>
       <use xlink:href="#DejaVuSans-30" x="63.623047"/>
      </g>
     </g>
    </g>
    <g id="ytick_5">
     <g id="line2d_10">
      <g>
       <use xlink:href="#m71785df0c9" x="71.026563" y="180.909116" style="stroke: #000000; stroke-width: 0.8"/>
      </g>
     </g>
     <g id="text_11">
      <!-- 80 -->
      <g transform="translate(44.939063 186.607945) scale(0.15 -0.15)">
       <defs>
        <path id="DejaVuSans-38" d="M 2034 2216 
Q 1584 2216 1326 1975 
Q 1069 1734 1069 1313 
Q 1069 891 1326 650 
Q 1584 409 2034 409 
Q 2484 409 2743 651 
Q 3003 894 3003 1313 
Q 3003 1734 2745 1975 
Q 2488 2216 2034 2216 
z
M 1403 2484 
Q 997 2584 770 2862 
Q 544 3141 544 3541 
Q 544 4100 942 4425 
Q 1341 4750 2034 4750 
Q 2731 4750 3128 4425 
Q 3525 4100 3525 3541 
Q 3525 3141 3298 2862 
Q 3072 2584 2669 2484 
Q 3125 2378 3379 2068 
Q 3634 1759 3634 1313 
Q 3634 634 3220 271 
Q 2806 -91 2034 -91 
Q 1263 -91 848 271 
Q 434 634 434 1313 
Q 434 1759 690 2068 
Q 947 2378 1403 2484 
z
M 1172 3481 
Q 1172 3119 1398 2916 
Q 1625 2713 2034 2713 
Q 2441 2713 2670 2916 
Q 2900 3119 2900 3481 
Q 2900 3844 2670 4047 
Q 2441 4250 2034 4250 
Q 1625 4250 1398 4047 
Q 1172 3844 1172 3481 
z
" transform="scale(0.015625)"/>
       </defs>
       <use xlink:href="#DejaVuSans-38"/>
       <use xlink:href="#DejaVuSans-30" x="63.623047"/>
      </g>
     </g>
    </g>
    <g id="ytick_6">
     <g id="line2d_11">
      <g>
       <use xlink:href="#m71785df0c9" x="71.026563" y="132.491947" style="stroke: #000000; stroke-width: 0.8"/>
      </g>
     </g>
     <g id="text_12">
      <!-- 100 -->
      <g transform="translate(35.395313 138.190775) scale(0.15 -0.15)">
       <use xlink:href="#DejaVuSans-31"/>
       <use xlink:href="#DejaVuSans-30" x="63.623047"/>
       <use xlink:href="#DejaVuSans-30" x="127.246094"/>
      </g>
     </g>
    </g>
    <g id="ytick_7">
     <g id="line2d_12">
      <g>
       <use xlink:href="#m71785df0c9" x="71.026563" y="84.074778" style="stroke: #000000; stroke-width: 0.8"/>
      </g>
     </g>
     <g id="text_13">
      <!-- 120 -->
      <g transform="translate(35.395313 89.773606) scale(0.15 -0.15)">
       <use xlink:href="#DejaVuSans-31"/>
       <use xlink:href="#DejaVuSans-32" x="63.623047"/>
       <use xlink:href="#DejaVuSans-30" x="127.246094"/>
      </g>
     </g>
    </g>
    <g id="text_14">
     <!-- # Interacting authors -->
     <g transform="translate(26.196094 363.552848) rotate(-90) scale(0.25 -0.25)">
      <defs>
       <path id="DejaVuSans-49" d="M 628 4666 
L 1259 4666 
L 1259 0 
L 628 0 
L 628 4666 
z
" transform="scale(0.015625)"/>
       <path id="DejaVuSans-6e" d="M 3513 2113 
L 3513 0 
L 2938 0 
L 2938 2094 
Q 2938 2591 2744 2837 
Q 2550 3084 2163 3084 
Q 1697 3084 1428 2787 
Q 1159 2491 1159 1978 
L 1159 0 
L 581 0 
L 581 3500 
L 1159 3500 
L 1159 2956 
Q 1366 3272 1645 3428 
Q 1925 3584 2291 3584 
Q 2894 3584 3203 3211 
Q 3513 2838 3513 2113 
z
" transform="scale(0.015625)"/>
       <path id="DejaVuSans-65" d="M 3597 1894 
L 3597 1613 
L 953 1613 
Q 991 1019 1311 708 
Q 1631 397 2203 397 
Q 2534 397 2845 478 
Q 3156 559 3463 722 
L 3463 178 
Q 3153 47 2828 -22 
Q 2503 -91 2169 -91 
Q 1331 -91 842 396 
Q 353 884 353 1716 
Q 353 2575 817 3079 
Q 1281 3584 2069 3584 
Q 2775 3584 3186 3129 
Q 3597 2675 3597 1894 
z
M 3022 2063 
Q 3016 2534 2758 2815 
Q 2500 3097 2075 3097 
Q 1594 3097 1305 2825 
Q 1016 2553 972 2059 
L 3022 2063 
z
" transform="scale(0.015625)"/>
       <path id="DejaVuSans-72" d="M 2631 2963 
Q 2534 3019 2420 3045 
Q 2306 3072 2169 3072 
Q 1681 3072 1420 2755 
Q 1159 2438 1159 1844 
L 1159 0 
L 581 0 
L 581 3500 
L 1159 3500 
L 1159 2956 
Q 1341 3275 1631 3429 
Q 1922 3584 2338 3584 
Q 2397 3584 2469 3576 
Q 2541 3569 2628 3553 
L 2631 2963 
z
" transform="scale(0.015625)"/>
       <path id="DejaVuSans-61" d="M 2194 1759 
Q 1497 1759 1228 1600 
Q 959 1441 959 1056 
Q 959 750 1161 570 
Q 1363 391 1709 391 
Q 2188 391 2477 730 
Q 2766 1069 2766 1631 
L 2766 1759 
L 2194 1759 
z
M 3341 1997 
L 3341 0 
L 2766 0 
L 2766 531 
Q 2569 213 2275 61 
Q 1981 -91 1556 -91 
Q 1019 -91 701 211 
Q 384 513 384 1019 
Q 384 1609 779 1909 
Q 1175 2209 1959 2209 
L 2766 2209 
L 2766 2266 
Q 2766 2663 2505 2880 
Q 2244 3097 1772 3097 
Q 1472 3097 1187 3025 
Q 903 2953 641 2809 
L 641 3341 
Q 956 3463 1253 3523 
Q 1550 3584 1831 3584 
Q 2591 3584 2966 3190 
Q 3341 2797 3341 1997 
z
" transform="scale(0.015625)"/>
       <path id="DejaVuSans-63" d="M 3122 3366 
L 3122 2828 
Q 2878 2963 2633 3030 
Q 2388 3097 2138 3097 
Q 1578 3097 1268 2742 
Q 959 2388 959 1747 
Q 959 1106 1268 751 
Q 1578 397 2138 397 
Q 2388 397 2633 464 
Q 2878 531 3122 666 
L 3122 134 
Q 2881 22 2623 -34 
Q 2366 -91 2075 -91 
Q 1284 -91 818 406 
Q 353 903 353 1747 
Q 353 2603 823 3093 
Q 1294 3584 2113 3584 
Q 2378 3584 2631 3529 
Q 2884 3475 3122 3366 
z
" transform="scale(0.015625)"/>
       <path id="DejaVuSans-67" d="M 2906 1791 
Q 2906 2416 2648 2759 
Q 2391 3103 1925 3103 
Q 1463 3103 1205 2759 
Q 947 2416 947 1791 
Q 947 1169 1205 825 
Q 1463 481 1925 481 
Q 2391 481 2648 825 
Q 2906 1169 2906 1791 
z
M 3481 434 
Q 3481 -459 3084 -895 
Q 2688 -1331 1869 -1331 
Q 1566 -1331 1297 -1286 
Q 1028 -1241 775 -1147 
L 775 -588 
Q 1028 -725 1275 -790 
Q 1522 -856 1778 -856 
Q 2344 -856 2625 -561 
Q 2906 -266 2906 331 
L 2906 616 
Q 2728 306 2450 153 
Q 2172 0 1784 0 
Q 1141 0 747 490 
Q 353 981 353 1791 
Q 353 2603 747 3093 
Q 1141 3584 1784 3584 
Q 2172 3584 2450 3431 
Q 2728 3278 2906 2969 
L 2906 3500 
L 3481 3500 
L 3481 434 
z
" transform="scale(0.015625)"/>
       <path id="DejaVuSans-75" d="M 544 1381 
L 544 3500 
L 1119 3500 
L 1119 1403 
Q 1119 906 1312 657 
Q 1506 409 1894 409 
Q 2359 409 2629 706 
Q 2900 1003 2900 1516 
L 2900 3500 
L 3475 3500 
L 3475 0 
L 2900 0 
L 2900 538 
Q 2691 219 2414 64 
Q 2138 -91 1772 -91 
Q 1169 -91 856 284 
Q 544 659 544 1381 
z
M 1991 3584 
L 1991 3584 
z
" transform="scale(0.015625)"/>
       <path id="DejaVuSans-68" d="M 3513 2113 
L 3513 0 
L 2938 0 
L 2938 2094 
Q 2938 2591 2744 2837 
Q 2550 3084 2163 3084 
Q 1697 3084 1428 2787 
Q 1159 2491 1159 1978 
L 1159 0 
L 581 0 
L 581 4863 
L 1159 4863 
L 1159 2956 
Q 1366 3272 1645 3428 
Q 1925 3584 2291 3584 
Q 2894 3584 3203 3211 
Q 3513 2838 3513 2113 
z
" transform="scale(0.015625)"/>
      </defs>
      <use xlink:href="#DejaVuSans-23"/>
      <use xlink:href="#DejaVuSans-20" x="83.789062"/>
      <use xlink:href="#DejaVuSans-49" x="115.576172"/>
      <use xlink:href="#DejaVuSans-6e" x="145.068359"/>
      <use xlink:href="#DejaVuSans-74" x="208.447266"/>
      <use xlink:href="#DejaVuSans-65" x="247.65625"/>
      <use xlink:href="#DejaVuSans-72" x="309.179688"/>
      <use xlink:href="#DejaVuSans-61" x="350.292969"/>
      <use xlink:href="#DejaVuSans-63" x="411.572266"/>
      <use xlink:href="#DejaVuSans-74" x="466.552734"/>
      <use xlink:href="#DejaVuSans-69" x="505.761719"/>
      <use xlink:href="#DejaVuSans-6e" x="533.544922"/>
      <use xlink:href="#DejaVuSans-67" x="596.923828"/>
      <use xlink:href="#DejaVuSans-20" x="660.400391"/>
      <use xlink:href="#DejaVuSans-61" x="692.1875"/>
      <use xlink:href="#DejaVuSans-75" x="753.466797"/>
      <use xlink:href="#DejaVuSans-74" x="816.845703"/>
      <use xlink:href="#DejaVuSans-68" x="856.054688"/>
      <use xlink:href="#DejaVuSans-6f" x="919.433594"/>
      <use xlink:href="#DejaVuSans-72" x="980.615234"/>
      <use xlink:href="#DejaVuSans-73" x="1021.728516"/>
     </g>
    </g>
   </g>
   <g id="patch_3">
    <path d="M 71.026563 386.44 
L 71.026563 72.212571 
" style="fill: none; stroke: #000000; stroke-width: 0.8; stroke-linejoin: miter; stroke-linecap: square"/>
   </g>
   <g id="patch_4">
    <path d="M 71.026563 386.44 
L 377.87142 386.44 
" style="fill: none; stroke: #000000; stroke-width: 0.8; stroke-linejoin: miter; stroke-linecap: square"/>
   </g>
  </g>
  <g id="axes_2">
   <g id="patch_5">
    <path d="M 71.026563 61.377143 
L 377.87142 61.377143 
L 377.87142 7.2 
L 71.026563 7.2 
z
" style="fill: #ffffff"/>
   </g>
   <g id="PolyCollection_1">
    <defs>
     <path id="m3b08254d7c" d="M 39.145421 -382.480609 
L 39.145421 -381.975357 
L 41.007768 -381.975357 
L 42.870116 -381.975357 
L 44.732463 -381.975357 
L 46.59481 -381.975357 
L 48.457158 -381.975357 
L 50.319505 -381.975357 
L 52.181853 -381.975357 
L 54.0442 -381.975357 
L 55.906548 -381.975357 
L 57.768895 -381.975357 
L 59.631242 -381.975357 
L 61.49359 -381.975357 
L 63.355937 -381.975357 
L 65.218285 -381.975357 
L 67.080632 -381.975357 
L 68.94298 -381.975357 
L 70.805327 -381.975357 
L 72.667675 -381.975357 
L 74.530022 -381.975357 
L 76.392369 -381.975357 
L 78.254717 -381.975357 
L 80.117064 -381.975357 
L 81.979412 -381.975357 
L 83.841759 -381.975357 
L 85.704107 -381.975357 
L 87.566454 -381.975357 
L 89.428802 -381.975357 
L 91.291149 -381.975357 
L 93.153496 -381.975357 
L 95.015844 -381.975357 
L 96.878191 -381.975357 
L 98.740539 -381.975357 
L 100.602886 -381.975357 
L 102.465234 -381.975357 
L 104.327581 -381.975357 
L 106.189929 -381.975357 
L 108.052276 -381.975357 
L 109.914623 -381.975357 
L 111.776971 -381.975357 
L 113.639318 -381.975357 
L 115.501666 -381.975357 
L 117.364013 -381.975357 
L 119.226361 -381.975357 
L 121.088708 -381.975357 
L 122.951056 -381.975357 
L 124.813403 -381.975357 
L 126.67575 -381.975357 
L 128.538098 -381.975357 
L 130.400445 -381.975357 
L 132.262793 -381.975357 
L 134.12514 -381.975357 
L 135.987488 -381.975357 
L 137.849835 -381.975357 
L 139.712182 -381.975357 
L 141.57453 -381.975357 
L 143.436877 -381.975357 
L 145.299225 -381.975357 
L 147.161572 -381.975357 
L 149.02392 -381.975357 
L 150.886267 -381.975357 
L 152.748615 -381.975357 
L 154.610962 -381.975357 
L 156.473309 -381.975357 
L 158.335657 -381.975357 
L 160.198004 -381.975357 
L 162.060352 -381.975357 
L 163.922699 -381.975357 
L 165.785047 -381.975357 
L 167.647394 -381.975357 
L 169.509742 -381.975357 
L 171.372089 -381.975357 
L 173.234436 -381.975357 
L 175.096784 -381.975357 
L 176.959131 -381.975357 
L 178.821479 -381.975357 
L 180.683826 -381.975357 
L 182.546174 -381.975357 
L 184.408521 -381.975357 
L 186.270869 -381.975357 
L 188.133216 -381.975357 
L 189.995563 -381.975357 
L 191.857911 -381.975357 
L 193.720258 -381.975357 
L 195.582606 -381.975357 
L 197.444953 -381.975357 
L 199.307301 -381.975357 
L 201.169648 -381.975357 
L 203.031995 -381.975357 
L 204.894343 -381.975357 
L 206.75669 -381.975357 
L 208.619038 -381.975357 
L 210.481385 -381.975357 
L 212.343733 -381.975357 
L 214.20608 -381.975357 
L 216.068428 -381.975357 
L 217.930775 -381.975357 
L 219.793122 -381.975357 
L 221.65547 -381.975357 
L 223.517817 -381.975357 
L 225.380165 -381.975357 
L 227.242512 -381.975357 
L 229.10486 -381.975357 
L 230.967207 -381.975357 
L 232.829555 -381.975357 
L 234.691902 -381.975357 
L 236.554249 -381.975357 
L 238.416597 -381.975357 
L 240.278944 -381.975357 
L 242.141292 -381.975357 
L 244.003639 -381.975357 
L 245.865987 -381.975357 
L 247.728334 -381.975357 
L 249.590682 -381.975357 
L 251.453029 -381.975357 
L 253.315376 -381.975357 
L 255.177724 -381.975357 
L 257.040071 -381.975357 
L 258.902419 -381.975357 
L 260.764766 -381.975357 
L 262.627114 -381.975357 
L 264.489461 -381.975357 
L 266.351809 -381.975357 
L 268.214156 -381.975357 
L 270.076503 -381.975357 
L 271.938851 -381.975357 
L 273.801198 -381.975357 
L 275.663546 -381.975357 
L 277.525893 -381.975357 
L 279.388241 -381.975357 
L 281.250588 -381.975357 
L 283.112935 -381.975357 
L 284.975283 -381.975357 
L 286.83763 -381.975357 
L 288.699978 -381.975357 
L 290.562325 -381.975357 
L 292.424673 -381.975357 
L 294.28702 -381.975357 
L 296.149368 -381.975357 
L 298.011715 -381.975357 
L 299.874062 -381.975357 
L 301.73641 -381.975357 
L 303.598757 -381.975357 
L 305.461105 -381.975357 
L 307.323452 -381.975357 
L 309.1858 -381.975357 
L 311.048147 -381.975357 
L 312.910495 -381.975357 
L 314.772842 -381.975357 
L 316.635189 -381.975357 
L 318.497537 -381.975357 
L 320.359884 -381.975357 
L 322.222232 -381.975357 
L 324.084579 -381.975357 
L 325.946927 -381.975357 
L 327.809274 -381.975357 
L 329.671622 -381.975357 
L 331.533969 -381.975357 
L 333.396316 -381.975357 
L 335.258664 -381.975357 
L 337.121011 -381.975357 
L 338.983359 -381.975357 
L 340.845706 -381.975357 
L 342.708054 -381.975357 
L 344.570401 -381.975357 
L 346.432748 -381.975357 
L 348.295096 -381.975357 
L 350.157443 -381.975357 
L 352.019791 -381.975357 
L 353.882138 -381.975357 
L 355.744486 -381.975357 
L 357.606833 -381.975357 
L 359.469181 -381.975357 
L 361.331528 -381.975357 
L 363.193875 -381.975357 
L 365.056223 -381.975357 
L 366.91857 -381.975357 
L 368.780918 -381.975357 
L 370.643265 -381.975357 
L 372.505613 -381.975357 
L 374.36796 -381.975357 
L 376.230308 -381.975357 
L 378.092655 -381.975357 
L 379.955002 -381.975357 
L 381.81735 -381.975357 
L 383.679697 -381.975357 
L 385.542045 -381.975357 
L 387.404392 -381.975357 
L 389.26674 -381.975357 
L 391.129087 -381.975357 
L 392.991435 -381.975357 
L 394.853782 -381.975357 
L 396.716129 -381.975357 
L 398.578477 -381.975357 
L 400.440824 -381.975357 
L 402.303172 -381.975357 
L 404.165519 -381.975357 
L 406.027867 -381.975357 
L 407.890214 -381.975357 
L 409.752562 -381.975357 
L 409.752562 -381.984443 
L 409.752562 -381.984443 
L 407.890214 -381.988358 
L 406.027867 -381.993685 
L 404.165519 -382.000814 
L 402.303172 -382.010196 
L 400.440824 -382.02233 
L 398.578477 -382.037757 
L 396.716129 -382.057028 
L 394.853782 -382.080673 
L 392.991435 -382.10916 
L 391.129087 -382.142844 
L 389.26674 -382.181916 
L 387.404392 -382.226344 
L 385.542045 -382.27583 
L 383.679697 -382.329765 
L 381.81735 -382.387215 
L 379.955002 -382.446916 
L 378.092655 -382.507307 
L 376.230308 -382.566579 
L 374.36796 -382.622761 
L 372.505613 -382.673824 
L 370.643265 -382.717798 
L 368.780918 -382.752897 
L 366.91857 -382.777643 
L 365.056223 -382.790964 
L 363.193875 -382.792274 
L 361.331528 -382.781515 
L 359.469181 -382.759162 
L 357.606833 -382.726186 
L 355.744486 -382.683987 
L 353.882138 -382.634293 
L 352.019791 -382.579045 
L 350.157443 -382.520269 
L 348.295096 -382.45996 
L 346.432748 -382.399968 
L 344.570401 -382.341914 
L 342.708054 -382.287129 
L 340.845706 -382.23662 
L 338.983359 -382.191064 
L 337.121011 -382.150824 
L 335.258664 -382.115986 
L 333.396316 -382.086401 
L 331.533969 -382.061747 
L 329.671622 -382.041575 
L 327.809274 -382.025365 
L 325.946927 -382.012565 
L 324.084579 -382.002634 
L 322.222232 -381.995058 
L 320.359884 -381.989376 
L 318.497537 -381.985186 
L 316.635189 -381.982147 
L 314.772842 -381.979978 
L 312.910495 -381.978456 
L 311.048147 -381.977404 
L 309.1858 -381.976689 
L 307.323452 -381.976212 
L 305.461105 -381.975897 
L 303.598757 -381.975693 
L 301.73641 -381.975563 
L 299.874062 -381.975482 
L 298.011715 -381.975431 
L 296.149368 -381.975401 
L 294.28702 -381.975382 
L 292.424673 -381.975371 
L 290.562325 -381.975365 
L 288.699978 -381.975362 
L 286.83763 -381.97536 
L 284.975283 -381.975358 
L 283.112935 -381.975358 
L 281.250588 -381.975357 
L 279.388241 -381.975357 
L 277.525893 -381.975357 
L 275.663546 -381.975357 
L 273.801198 -381.975357 
L 271.938851 -381.975357 
L 270.076503 -381.975357 
L 268.214156 -381.975357 
L 266.351809 -381.975357 
L 264.489461 -381.975357 
L 262.627114 -381.975357 
L 260.764766 -381.975357 
L 258.902419 -381.975357 
L 257.040071 -381.975357 
L 255.177724 -381.975357 
L 253.315376 -381.975357 
L 251.453029 -381.975357 
L 249.590682 -381.975358 
L 247.728334 -381.975358 
L 245.865987 -381.975358 
L 244.003639 -381.97536 
L 242.141292 -381.975362 
L 240.278944 -381.975365 
L 238.416597 -381.975372 
L 236.554249 -381.975382 
L 234.691902 -381.975401 
L 232.829555 -381.975432 
L 230.967207 -381.975482 
L 229.10486 -381.975564 
L 227.242512 -381.975695 
L 225.380165 -381.975899 
L 223.517817 -381.976215 
L 221.65547 -381.976695 
L 219.793122 -381.977412 
L 217.930775 -381.978467 
L 216.068428 -381.979994 
L 214.20608 -381.982169 
L 212.343733 -381.985218 
L 210.481385 -381.98942 
L 208.619038 -381.995118 
L 206.75669 -382.002715 
L 204.894343 -382.012674 
L 203.031995 -382.025509 
L 201.169648 -382.041766 
L 199.307301 -382.061998 
L 197.444953 -382.086733 
L 195.582606 -382.116427 
L 193.720258 -382.151416 
L 191.857911 -382.191868 
L 189.995563 -382.237726 
L 188.133216 -382.28867 
L 186.270869 -382.344085 
L 184.408521 -382.40305 
L 182.546174 -382.464356 
L 180.683826 -382.52654 
L 178.821479 -382.587965 
L 176.959131 -382.646911 
L 175.096784 -382.701693 
L 173.234436 -382.750793 
L 171.372089 -382.792988 
L 169.509742 -382.827465 
L 167.647394 -382.853922 
L 165.785047 -382.872616 
L 163.922699 -382.884387 
L 162.060352 -382.890622 
L 160.198004 -382.893179 
L 158.335657 -382.894274 
L 156.473309 -382.896343 
L 154.610962 -382.901886 
L 152.748615 -382.913336 
L 150.886267 -382.932941 
L 149.02392 -382.962706 
L 147.161572 -383.004401 
L 145.299225 -383.05965 
L 143.436877 -383.130114 
L 141.57453 -383.21777 
L 139.712182 -383.325294 
L 137.849835 -383.456518 
L 135.987488 -383.616968 
L 134.12514 -383.814437 
L 132.262793 -384.059552 
L 130.400445 -384.3663 
L 128.538098 -384.752423 
L 126.67575 -385.239627 
L 124.813403 -385.853499 
L 122.951056 -386.62306 
L 121.088708 -387.579869 
L 119.226361 -388.756615 
L 117.364013 -390.185177 
L 115.501666 -391.894168 
L 113.639318 -393.906055 
L 111.776971 -396.234008 
L 109.914623 -398.878708 
L 108.052276 -401.825398 
L 106.189929 -405.041512 
L 104.327581 -408.475233 
L 102.465234 -412.055274 
L 100.602886 -415.692146 
L 98.740539 -419.281017 
L 96.878191 -422.706151 
L 95.015844 -425.84671 
L 93.153496 -428.583573 
L 91.291149 -430.806646 
L 89.428802 -432.422052 
L 87.566454 -433.358559 
L 85.704107 -433.572636 
L 83.841759 -433.051641 
L 81.979412 -431.814815 
L 80.117064 -429.911989 
L 78.254717 -427.420106 
L 76.392369 -424.437924 
L 74.530022 -421.079389 
L 72.667675 -417.466315 
L 70.805327 -413.721011 
L 68.94298 -409.959494 
L 67.080632 -406.285766 
L 65.218285 -402.78755 
L 63.355937 -399.533634 
L 61.49359 -396.572849 
L 59.631242 -393.934534 
L 57.768895 -391.630216 
L 55.906548 -389.656175 
L 54.0442 -387.996537 
L 52.181853 -386.626549 
L 50.319505 -385.515754 
L 48.457158 -384.630825 
L 46.59481 -383.937943 
L 44.732463 -383.404619 
L 42.870116 -383.00098 
L 41.007768 -382.70055 
L 39.145421 -382.480609 
z
" style="stroke: #1f77b4"/>
    </defs>
    <g clip-path="url(#p74cdaede01)">
     <use xlink:href="#m3b08254d7c" x="0" y="443.3525" style="fill: #1f77b4; fill-opacity: 0.25; stroke: #1f77b4"/>
    </g>
   </g>
   <g id="matplotlib.axis_3">
    <g id="xtick_6">
     <g id="line2d_13">
      <g>
       <use xlink:href="#mf06de3323a" x="83.53617" y="61.377143" style="stroke: #000000; stroke-width: 0.8"/>
      </g>
     </g>
    </g>
    <g id="xtick_7">
     <g id="line2d_14">
      <g>
       <use xlink:href="#mf06de3323a" x="155.430467" y="61.377143" style="stroke: #000000; stroke-width: 0.8"/>
      </g>
     </g>
    </g>
    <g id="xtick_8">
     <g id="line2d_15">
      <g>
       <use xlink:href="#mf06de3323a" x="227.324763" y="61.377143" style="stroke: #000000; stroke-width: 0.8"/>
      </g>
     </g>
    </g>
    <g id="xtick_9">
     <g id="line2d_16">
      <g>
       <use xlink:href="#mf06de3323a" x="299.219059" y="61.377143" style="stroke: #000000; stroke-width: 0.8"/>
      </g>
     </g>
    </g>
    <g id="xtick_10">
     <g id="line2d_17">
      <g>
       <use xlink:href="#mf06de3323a" x="371.113356" y="61.377143" style="stroke: #000000; stroke-width: 0.8"/>
      </g>
     </g>
    </g>
   </g>
   <g id="matplotlib.axis_4">
    <g id="ytick_8"/>
    <g id="ytick_9"/>
   </g>
   <g id="patch_6">
    <path d="M 71.026563 61.377143 
L 377.87142 61.377143 
" style="fill: none; stroke: #000000; stroke-width: 0.8; stroke-linejoin: miter; stroke-linecap: square"/>
   </g>
  </g>
  <g id="axes_3">
   <g id="patch_7">
    <path d="M 388.452277 386.44 
L 441.356562 386.44 
L 441.356562 72.212571 
L 388.452277 72.212571 
z
" style="fill: #ffffff"/>
   </g>
   <g id="PolyCollection_2">
    <path d="M 388.550929 480.122938 
L 388.452277 480.122938 
L 388.452277 477.602368 
L 388.452277 475.081799 
L 388.452277 472.56123 
L 388.452277 470.04066 
L 388.452277 467.520091 
L 388.452277 464.999521 
L 388.452277 462.478952 
L 388.452277 459.958383 
L 388.452277 457.437813 
L 388.452277 454.917244 
L 388.452277 452.396675 
L 388.452277 449.876105 
L 388.452277 447.355536 
L 388.452277 444.834967 
L 388.452277 442.314397 
L 388.452277 439.793828 
L 388.452277 437.273258 
L 388.452277 434.752689 
L 388.452277 432.23212 
L 388.452277 429.71155 
L 388.452277 427.190981 
L 388.452277 424.670412 
L 388.452277 422.149842 
L 388.452277 419.629273 
L 388.452277 417.108704 
L 388.452277 414.588134 
L 388.452277 412.067565 
L 388.452277 409.546995 
L 388.452277 407.026426 
L 388.452277 404.505857 
L 388.452277 401.985287 
L 388.452277 399.464718 
L 388.452277 396.944149 
L 388.452277 394.423579 
L 388.452277 391.90301 
L 388.452277 389.38244 
L 388.452277 386.861871 
L 388.452277 384.341302 
L 388.452277 381.820732 
L 388.452277 379.300163 
L 388.452277 376.779594 
L 388.452277 374.259024 
L 388.452277 371.738455 
L 388.452277 369.217886 
L 388.452277 366.697316 
L 388.452277 364.176747 
L 388.452277 361.656177 
L 388.452277 359.135608 
L 388.452277 356.615039 
L 388.452277 354.094469 
L 388.452277 351.5739 
L 388.452277 349.053331 
L 388.452277 346.532761 
L 388.452277 344.012192 
L 388.452277 341.491623 
L 388.452277 338.971053 
L 388.452277 336.450484 
L 388.452277 333.929914 
L 388.452277 331.409345 
L 388.452277 328.888776 
L 388.452277 326.368206 
L 388.452277 323.847637 
L 388.452277 321.327068 
L 388.452277 318.806498 
L 388.452277 316.285929 
L 388.452277 313.765359 
L 388.452277 311.24479 
L 388.452277 308.724221 
L 388.452277 306.203651 
L 388.452277 303.683082 
L 388.452277 301.162513 
L 388.452277 298.641943 
L 388.452277 296.121374 
L 388.452277 293.600805 
L 388.452277 291.080235 
L 388.452277 288.559666 
L 388.452277 286.039096 
L 388.452277 283.518527 
L 388.452277 280.997958 
L 388.452277 278.477388 
L 388.452277 275.956819 
L 388.452277 273.43625 
L 388.452277 270.91568 
L 388.452277 268.395111 
L 388.452277 265.874542 
L 388.452277 263.353972 
L 388.452277 260.833403 
L 388.452277 258.312833 
L 388.452277 255.792264 
L 388.452277 253.271695 
L 388.452277 250.751125 
L 388.452277 248.230556 
L 388.452277 245.709987 
L 388.452277 243.189417 
L 388.452277 240.668848 
L 388.452277 238.148278 
L 388.452277 235.627709 
L 388.452277 233.10714 
L 388.452277 230.58657 
L 388.452277 228.066001 
L 388.452277 225.545432 
L 388.452277 223.024862 
L 388.452277 220.504293 
L 388.452277 217.983724 
L 388.452277 215.463154 
L 388.452277 212.942585 
L 388.452277 210.422015 
L 388.452277 207.901446 
L 388.452277 205.380877 
L 388.452277 202.860307 
L 388.452277 200.339738 
L 388.452277 197.819169 
L 388.452277 195.298599 
L 388.452277 192.77803 
L 388.452277 190.257461 
L 388.452277 187.736891 
L 388.452277 185.216322 
L 388.452277 182.695752 
L 388.452277 180.175183 
L 388.452277 177.654614 
L 388.452277 175.134044 
L 388.452277 172.613475 
L 388.452277 170.092906 
L 388.452277 167.572336 
L 388.452277 165.051767 
L 388.452277 162.531197 
L 388.452277 160.010628 
L 388.452277 157.490059 
L 388.452277 154.969489 
L 388.452277 152.44892 
L 388.452277 149.928351 
L 388.452277 147.407781 
L 388.452277 144.887212 
L 388.452277 142.366643 
L 388.452277 139.846073 
L 388.452277 137.325504 
L 388.452277 134.804934 
L 388.452277 132.284365 
L 388.452277 129.763796 
L 388.452277 127.243226 
L 388.452277 124.722657 
L 388.452277 122.202088 
L 388.452277 119.681518 
L 388.452277 117.160949 
L 388.452277 114.64038 
L 388.452277 112.11981 
L 388.452277 109.599241 
L 388.452277 107.078671 
L 388.452277 104.558102 
L 388.452277 102.037533 
L 388.452277 99.516963 
L 388.452277 96.996394 
L 388.452277 94.475825 
L 388.452277 91.955255 
L 388.452277 89.434686 
L 388.452277 86.914117 
L 388.452277 84.393547 
L 388.452277 81.872978 
L 388.452277 79.352408 
L 388.452277 76.831839 
L 388.452277 74.31127 
L 388.452277 71.7907 
L 388.452277 69.270131 
L 388.452277 66.749562 
L 388.452277 64.228992 
L 388.452277 61.708423 
L 388.452277 59.187853 
L 388.452277 56.667284 
L 388.452277 54.146715 
L 388.452277 51.626145 
L 388.452277 49.105576 
L 388.452277 46.585007 
L 388.452277 44.064437 
L 388.452277 41.543868 
L 388.452277 39.023299 
L 388.452277 36.502729 
L 388.452277 33.98216 
L 388.452277 31.46159 
L 388.452277 28.941021 
L 388.452277 26.420452 
L 388.452277 23.899882 
L 388.452277 21.379313 
L 388.452277 18.858744 
L 388.452277 16.338174 
L 388.452277 13.817605 
L 388.452277 11.297036 
L 388.452277 8.776466 
L 388.452277 6.255897 
L 388.452277 3.735327 
L 388.452277 1.214758 
L 388.452277 -1.305811 
L 388.452277 -3.826381 
L 388.452277 -6.34695 
L 388.452277 -8.867519 
L 388.452277 -11.388089 
L 388.452277 -13.908658 
L 388.452277 -16.429228 
L 388.452277 -18.949797 
L 388.452277 -21.470366 
L 388.476833 -21.470366 
L 388.476833 -21.470366 
L 388.482859 -18.949797 
L 388.490197 -16.429228 
L 388.49909 -13.908658 
L 388.509816 -11.388089 
L 388.522696 -8.867519 
L 388.538088 -6.34695 
L 388.556399 -3.826381 
L 388.578083 -1.305811 
L 388.603645 1.214758 
L 388.633646 3.735327 
L 388.668697 6.255897 
L 388.709472 8.776466 
L 388.756697 11.297036 
L 388.811162 13.817605 
L 388.873709 16.338174 
L 388.945242 18.858744 
L 389.026719 21.379313 
L 389.119152 23.899882 
L 389.223608 26.420452 
L 389.341202 28.941021 
L 389.473099 31.46159 
L 389.620511 33.98216 
L 389.784693 36.502729 
L 389.966947 39.023299 
L 390.168619 41.543868 
L 390.391099 44.064437 
L 390.635823 46.585007 
L 390.90428 49.105576 
L 391.198011 51.626145 
L 391.518614 54.146715 
L 391.867754 56.667284 
L 392.247162 59.187853 
L 392.658647 61.708423 
L 393.104092 64.228992 
L 393.585466 66.749562 
L 394.104815 69.270131 
L 394.664263 71.7907 
L 395.266003 74.31127 
L 395.912279 76.831839 
L 396.605372 79.352408 
L 397.347562 81.872978 
L 398.141099 84.393547 
L 398.988151 86.914117 
L 399.890755 89.434686 
L 400.850744 91.955255 
L 401.86968 94.475825 
L 402.948772 96.996394 
L 404.088784 99.516963 
L 405.289948 102.037533 
L 406.551863 104.558102 
L 407.873406 107.078671 
L 409.252633 109.599241 
L 410.686699 112.11981 
L 412.171779 114.64038 
L 413.703006 117.160949 
L 415.274428 119.681518 
L 416.878981 122.202088 
L 418.508491 124.722657 
L 420.153696 127.243226 
L 421.804304 129.763796 
L 423.449071 132.284365 
L 425.075921 134.804934 
L 426.672083 137.325504 
L 428.224263 139.846073 
L 429.718842 142.366643 
L 431.14209 144.887212 
L 432.480403 147.407781 
L 433.72055 149.928351 
L 434.849923 152.44892 
L 435.856792 154.969489 
L 436.730552 157.490059 
L 437.461949 160.010628 
L 438.043297 162.531197 
L 438.46866 165.051767 
L 438.734003 167.572336 
L 438.837311 170.092906 
L 438.778659 172.613475 
L 438.560248 175.134044 
L 438.186388 177.654614 
L 437.663444 180.175183 
L 436.999731 182.695752 
L 436.205376 185.216322 
L 435.292137 187.736891 
L 434.273192 190.257461 
L 433.162902 192.77803 
L 431.976554 195.298599 
L 430.730087 197.819169 
L 429.43981 200.339738 
L 428.122128 202.860307 
L 426.793265 205.380877 
L 425.469002 207.901446 
L 424.164435 210.422015 
L 422.893751 212.942585 
L 421.670034 215.463154 
L 420.505097 217.983724 
L 419.409348 220.504293 
L 418.391687 223.024862 
L 417.459432 225.545432 
L 416.618286 228.066001 
L 415.872323 230.58657 
L 415.224017 233.10714 
L 414.674286 235.627709 
L 414.222568 238.148278 
L 413.866916 240.668848 
L 413.604115 243.189417 
L 413.42981 245.709987 
L 413.338654 248.230556 
L 413.324457 250.751125 
L 413.38035 253.271695 
L 413.498948 255.792264 
L 413.672515 258.312833 
L 413.893125 260.833403 
L 414.152821 263.353972 
L 414.443764 265.874542 
L 414.758367 268.395111 
L 415.089428 270.91568 
L 415.430229 273.43625 
L 415.774635 275.956819 
L 416.11716 278.477388 
L 416.453022 280.997958 
L 416.778164 283.518527 
L 417.089266 286.039096 
L 417.383724 288.559666 
L 417.659612 291.080235 
L 417.915627 293.600805 
L 418.151004 296.121374 
L 418.365434 298.641943 
L 418.558955 301.162513 
L 418.731838 303.683082 
L 418.884477 306.203651 
L 419.01727 308.724221 
L 419.130509 311.24479 
L 419.224278 313.765359 
L 419.298365 316.285929 
L 419.35219 318.806498 
L 419.384752 321.327068 
L 419.394602 323.847637 
L 419.379831 326.368206 
L 419.338094 328.888776 
L 419.266645 331.409345 
L 419.162404 333.929914 
L 419.022039 336.450484 
L 418.842068 338.971053 
L 418.618973 341.491623 
L 418.349322 344.012192 
L 418.029899 346.532761 
L 417.657834 349.053331 
L 417.23072 351.5739 
L 416.746733 354.094469 
L 416.204725 356.615039 
L 415.604311 359.135608 
L 414.945929 361.656177 
L 414.230875 364.176747 
L 413.461319 366.697316 
L 412.640292 369.217886 
L 411.771655 371.738455 
L 410.86003 374.259024 
L 409.91073 376.779594 
L 408.929656 379.300163 
L 407.923183 381.820732 
L 406.898035 384.341302 
L 405.861159 386.861871 
L 404.819582 389.38244 
L 403.780285 391.90301 
L 402.750071 394.423579 
L 401.735449 396.944149 
L 400.742521 399.464718 
L 399.776894 401.985287 
L 398.8436 404.505857 
L 397.947038 407.026426 
L 397.09093 409.546995 
L 396.278298 412.067565 
L 395.511461 414.588134 
L 394.792039 417.108704 
L 394.120983 419.629273 
L 393.498608 422.149842 
L 392.924648 424.670412 
L 392.398305 427.190981 
L 391.918316 429.71155 
L 391.48302 432.23212 
L 391.090426 434.752689 
L 390.738277 437.273258 
L 390.424125 439.793828 
L 390.145382 442.314397 
L 389.899388 444.834967 
L 389.683457 447.355536 
L 389.494925 449.876105 
L 389.331188 452.396675 
L 389.189738 454.917244 
L 389.068185 457.437813 
L 388.964278 459.958383 
L 388.87592 462.478952 
L 388.801176 464.999521 
L 388.738278 467.520091 
L 388.685622 470.04066 
L 388.641769 472.56123 
L 388.605436 475.081799 
L 388.575487 477.602368 
L 388.550929 480.122938 
z
" clip-path="url(#pc70efacde9)" style="fill: #1f77b4; fill-opacity: 0.25; stroke: #1f77b4"/>
   </g>
   <g id="matplotlib.axis_5">
    <g id="xtick_11"/>
    <g id="xtick_12"/>
   </g>
   <g id="matplotlib.axis_6">
    <g id="ytick_10">
     <g id="line2d_18">
      <g>
       <use xlink:href="#m71785df0c9" x="388.452277" y="374.577794" style="stroke: #000000; stroke-width: 0.8"/>
      </g>
     </g>
    </g>
    <g id="ytick_11">
     <g id="line2d_19">
      <g>
       <use xlink:href="#m71785df0c9" x="388.452277" y="326.160624" style="stroke: #000000; stroke-width: 0.8"/>
      </g>
     </g>
    </g>
    <g id="ytick_12">
     <g id="line2d_20">
      <g>
       <use xlink:href="#m71785df0c9" x="388.452277" y="277.743455" style="stroke: #000000; stroke-width: 0.8"/>
      </g>
     </g>
    </g>
    <g id="ytick_13">
     <g id="line2d_21">
      <g>
       <use xlink:href="#m71785df0c9" x="388.452277" y="229.326286" style="stroke: #000000; stroke-width: 0.8"/>
      </g>
     </g>
    </g>
    <g id="ytick_14">
     <g id="line2d_22">
      <g>
       <use xlink:href="#m71785df0c9" x="388.452277" y="180.909116" style="stroke: #000000; stroke-width: 0.8"/>
      </g>
     </g>
    </g>
    <g id="ytick_15">
     <g id="line2d_23">
      <g>
       <use xlink:href="#m71785df0c9" x="388.452277" y="132.491947" style="stroke: #000000; stroke-width: 0.8"/>
      </g>
     </g>
    </g>
    <g id="ytick_16">
     <g id="line2d_24">
      <g>
       <use xlink:href="#m71785df0c9" x="388.452277" y="84.074778" style="stroke: #000000; stroke-width: 0.8"/>
      </g>
     </g>
    </g>
   </g>
   <g id="patch_8">
    <path d="M 388.452277 386.44 
L 388.452277 72.212571 
" style="fill: none; stroke: #000000; stroke-width: 0.8; stroke-linejoin: miter; stroke-linecap: square"/>
   </g>
  </g>
 </g>
 <defs>
  <clipPath id="p2f4fe9694d">
   <rect x="71.026563" y="72.212571" width="306.844857" height="314.227429"/>
  </clipPath>
  <clipPath id="p74cdaede01">
   <rect x="71.026563" y="7.2" width="306.844857" height="54.177143"/>
  </clipPath>
  <clipPath id="pc70efacde9">
   <rect x="388.452277" y="72.212571" width="52.904286" height="314.227429"/>
  </clipPath>
 </defs>
</svg>
