<?xml version="1.0" encoding="utf-8" standalone="no"?>
<!DOCTYPE svg PUBLIC "-//W3C//DTD SVG 1.1//EN"
  "http://www.w3.org/Graphics/SVG/1.1/DTD/svg11.dtd">
<svg xmlns:xlink="http://www.w3.org/1999/xlink" width="440.47375pt" height="438.513437pt" viewBox="0 0 440.47375 438.513437" xmlns="http://www.w3.org/2000/svg" version="1.1">
 <metadata>
  <rdf:RDF xmlns:dc="http://purl.org/dc/elements/1.1/" xmlns:cc="http://creativecommons.org/ns#" xmlns:rdf="http://www.w3.org/1999/02/22-rdf-syntax-ns#">
   <cc:Work>
    <dc:type rdf:resource="http://purl.org/dc/dcmitype/StillImage"/>
    <dc:date>2022-02-23T14:19:30.179480</dc:date>
    <dc:format>image/svg+xml</dc:format>
    <dc:creator>
     <cc:Agent>
      <dc:title>Matplotlib v3.5.1, https://matplotlib.org/</dc:title>
     </cc:Agent>
    </dc:creator>
   </cc:Work>
  </rdf:RDF>
 </metadata>
 <defs>
  <style type="text/css">*{stroke-linejoin: round; stroke-linecap: butt}</style>
 </defs>
 <g id="figure_1">
  <g id="patch_1">
   <path d="M 0 438.513437 
L 440.47375 438.513437 
L 440.47375 0 
L 0 0 
z
" style="fill: #ffffff"/>
  </g>
  <g id="axes_1">
   <g id="patch_2">
    <path d="M 56.64375 386.44 
L 368.708607 386.44 
L 368.708607 72.212571 
L 56.64375 72.212571 
z
" style="fill: #ffffff"/>
   </g>
   <g id="PathCollection_1">
    <defs>
     <path id="mb7dd104727" d="M 0 4.330127 
C 1.148363 4.330127 2.249847 3.873878 3.061862 3.061862 
C 3.873878 2.249847 4.330127 1.148363 4.330127 0 
C 4.330127 -1.148363 3.873878 -2.249847 3.061862 -3.061862 
C 2.249847 -3.873878 1.148363 -4.330127 0 -4.330127 
C -1.148363 -4.330127 -2.249847 -3.873878 -3.061862 -3.061862 
C -3.873878 -2.249847 -4.330127 -1.148363 -4.330127 0 
C -4.330127 1.148363 -3.873878 2.249847 -3.061862 3.061862 
C -2.249847 3.873878 -1.148363 4.330127 0 4.330127 
z
" style="stroke: #ffffff; stroke-opacity: 0.5; stroke-width: 0.69282"/>
    </defs>
    <g clip-path="url(#p68d8cb3af9)">
     <use xlink:href="#mb7dd104727" x="70.828516" y="342.087325" style="fill: #1f77b4; fill-opacity: 0.5; stroke: #ffffff; stroke-opacity: 0.5; stroke-width: 0.69282"/>
     <use xlink:href="#mb7dd104727" x="76.010166" y="176.704468" style="fill: #1f77b4; fill-opacity: 0.5; stroke: #ffffff; stroke-opacity: 0.5; stroke-width: 0.69282"/>
     <use xlink:href="#mb7dd104727" x="72.123929" y="296.982909" style="fill: #1f77b4; fill-opacity: 0.5; stroke: #ffffff; stroke-opacity: 0.5; stroke-width: 0.69282"/>
     <use xlink:href="#mb7dd104727" x="70.828516" y="274.430701" style="fill: #1f77b4; fill-opacity: 0.5; stroke: #ffffff; stroke-opacity: 0.5; stroke-width: 0.69282"/>
     <use xlink:href="#mb7dd104727" x="105.804652" y="124.082649" style="fill: #1f77b4; fill-opacity: 0.5; stroke: #ffffff; stroke-opacity: 0.5; stroke-width: 0.69282"/>
     <use xlink:href="#mb7dd104727" x="72.123929" y="251.878494" style="fill: #1f77b4; fill-opacity: 0.5; stroke: #ffffff; stroke-opacity: 0.5; stroke-width: 0.69282"/>
     <use xlink:href="#mb7dd104727" x="70.828516" y="327.052519" style="fill: #1f77b4; fill-opacity: 0.5; stroke: #ffffff; stroke-opacity: 0.5; stroke-width: 0.69282"/>
     <use xlink:href="#mb7dd104727" x="70.828516" y="372.156935" style="fill: #1f77b4; fill-opacity: 0.5; stroke: #ffffff; stroke-opacity: 0.5; stroke-width: 0.69282"/>
     <use xlink:href="#mb7dd104727" x="70.828516" y="349.604727" style="fill: #1f77b4; fill-opacity: 0.5; stroke: #ffffff; stroke-opacity: 0.5; stroke-width: 0.69282"/>
     <use xlink:href="#mb7dd104727" x="70.828516" y="357.12213" style="fill: #1f77b4; fill-opacity: 0.5; stroke: #ffffff; stroke-opacity: 0.5; stroke-width: 0.69282"/>
     <use xlink:href="#mb7dd104727" x="83.782641" y="176.704468" style="fill: #1f77b4; fill-opacity: 0.5; stroke: #ffffff; stroke-opacity: 0.5; stroke-width: 0.69282"/>
     <use xlink:href="#mb7dd104727" x="76.010166" y="199.256675" style="fill: #1f77b4; fill-opacity: 0.5; stroke: #ffffff; stroke-opacity: 0.5; stroke-width: 0.69282"/>
     <use xlink:href="#mb7dd104727" x="105.804652" y="146.634857" style="fill: #1f77b4; fill-opacity: 0.5; stroke: #ffffff; stroke-opacity: 0.5; stroke-width: 0.69282"/>
     <use xlink:href="#mb7dd104727" x="73.419341" y="184.22187" style="fill: #1f77b4; fill-opacity: 0.5; stroke: #ffffff; stroke-opacity: 0.5; stroke-width: 0.69282"/>
     <use xlink:href="#mb7dd104727" x="74.714754" y="131.600052" style="fill: #1f77b4; fill-opacity: 0.5; stroke: #ffffff; stroke-opacity: 0.5; stroke-width: 0.69282"/>
     <use xlink:href="#mb7dd104727" x="73.419341" y="214.291481" style="fill: #1f77b4; fill-opacity: 0.5; stroke: #ffffff; stroke-opacity: 0.5; stroke-width: 0.69282"/>
     <use xlink:href="#mb7dd104727" x="73.419341" y="259.395896" style="fill: #1f77b4; fill-opacity: 0.5; stroke: #ffffff; stroke-opacity: 0.5; stroke-width: 0.69282"/>
     <use xlink:href="#mb7dd104727" x="354.523841" y="86.495636" style="fill: #1f77b4; fill-opacity: 0.5; stroke: #ffffff; stroke-opacity: 0.5; stroke-width: 0.69282"/>
     <use xlink:href="#mb7dd104727" x="208.142235" y="101.530442" style="fill: #1f77b4; fill-opacity: 0.5; stroke: #ffffff; stroke-opacity: 0.5; stroke-width: 0.69282"/>
     <use xlink:href="#mb7dd104727" x="70.828516" y="296.982909" style="fill: #1f77b4; fill-opacity: 0.5; stroke: #ffffff; stroke-opacity: 0.5; stroke-width: 0.69282"/>
     <use xlink:href="#mb7dd104727" x="70.828516" y="184.22187" style="fill: #1f77b4; fill-opacity: 0.5; stroke: #ffffff; stroke-opacity: 0.5; stroke-width: 0.69282"/>
     <use xlink:href="#mb7dd104727" x="133.008313" y="176.704468" style="fill: #1f77b4; fill-opacity: 0.5; stroke: #ffffff; stroke-opacity: 0.5; stroke-width: 0.69282"/>
     <use xlink:href="#mb7dd104727" x="72.123929" y="281.948104" style="fill: #1f77b4; fill-opacity: 0.5; stroke: #ffffff; stroke-opacity: 0.5; stroke-width: 0.69282"/>
    </g>
   </g>
   <g id="matplotlib.axis_1">
    <g id="xtick_1">
     <g id="line2d_1">
      <defs>
       <path id="m875561615a" d="M 0 0 
L 0 3.5 
" style="stroke: #000000; stroke-width: 0.8"/>
      </defs>
      <g>
       <use xlink:href="#m875561615a" x="69.533104" y="386.44" style="stroke: #000000; stroke-width: 0.8"/>
      </g>
     </g>
     <g id="text_1">
      <!-- 0 -->
      <g transform="translate(64.761229 404.837656)scale(0.15 -0.15)">
       <defs>
        <path id="DejaVuSans-30" d="M 2034 4250 
Q 1547 4250 1301 3770 
Q 1056 3291 1056 2328 
Q 1056 1369 1301 889 
Q 1547 409 2034 409 
Q 2525 409 2770 889 
Q 3016 1369 3016 2328 
Q 3016 3291 2770 3770 
Q 2525 4250 2034 4250 
z
M 2034 4750 
Q 2819 4750 3233 4129 
Q 3647 3509 3647 2328 
Q 3647 1150 3233 529 
Q 2819 -91 2034 -91 
Q 1250 -91 836 529 
Q 422 1150 422 2328 
Q 422 3509 836 4129 
Q 1250 4750 2034 4750 
z
" transform="scale(0.015625)"/>
       </defs>
       <use xlink:href="#DejaVuSans-30"/>
      </g>
     </g>
    </g>
    <g id="xtick_2">
     <g id="line2d_2">
      <g>
       <use xlink:href="#m875561615a" x="134.303726" y="386.44" style="stroke: #000000; stroke-width: 0.8"/>
      </g>
     </g>
     <g id="text_2">
      <!-- 50 -->
      <g transform="translate(124.759976 404.837656)scale(0.15 -0.15)">
       <defs>
        <path id="DejaVuSans-35" d="M 691 4666 
L 3169 4666 
L 3169 4134 
L 1269 4134 
L 1269 2991 
Q 1406 3038 1543 3061 
Q 1681 3084 1819 3084 
Q 2600 3084 3056 2656 
Q 3513 2228 3513 1497 
Q 3513 744 3044 326 
Q 2575 -91 1722 -91 
Q 1428 -91 1123 -41 
Q 819 9 494 109 
L 494 744 
Q 775 591 1075 516 
Q 1375 441 1709 441 
Q 2250 441 2565 725 
Q 2881 1009 2881 1497 
Q 2881 1984 2565 2268 
Q 2250 2553 1709 2553 
Q 1456 2553 1204 2497 
Q 953 2441 691 2322 
L 691 4666 
z
" transform="scale(0.015625)"/>
       </defs>
       <use xlink:href="#DejaVuSans-35"/>
       <use xlink:href="#DejaVuSans-30" x="63.623047"/>
      </g>
     </g>
    </g>
    <g id="xtick_3">
     <g id="line2d_3">
      <g>
       <use xlink:href="#m875561615a" x="199.074348" y="386.44" style="stroke: #000000; stroke-width: 0.8"/>
      </g>
     </g>
     <g id="text_3">
      <!-- 100 -->
      <g transform="translate(184.758723 404.837656)scale(0.15 -0.15)">
       <defs>
        <path id="DejaVuSans-31" d="M 794 531 
L 1825 531 
L 1825 4091 
L 703 3866 
L 703 4441 
L 1819 4666 
L 2450 4666 
L 2450 531 
L 3481 531 
L 3481 0 
L 794 0 
L 794 531 
z
" transform="scale(0.015625)"/>
       </defs>
       <use xlink:href="#DejaVuSans-31"/>
       <use xlink:href="#DejaVuSans-30" x="63.623047"/>
       <use xlink:href="#DejaVuSans-30" x="127.246094"/>
      </g>
     </g>
    </g>
    <g id="xtick_4">
     <g id="line2d_4">
      <g>
       <use xlink:href="#m875561615a" x="263.84497" y="386.44" style="stroke: #000000; stroke-width: 0.8"/>
      </g>
     </g>
     <g id="text_4">
      <!-- 150 -->
      <g transform="translate(249.529345 404.837656)scale(0.15 -0.15)">
       <use xlink:href="#DejaVuSans-31"/>
       <use xlink:href="#DejaVuSans-35" x="63.623047"/>
       <use xlink:href="#DejaVuSans-30" x="127.246094"/>
      </g>
     </g>
    </g>
    <g id="xtick_5">
     <g id="line2d_5">
      <g>
       <use xlink:href="#m875561615a" x="328.615592" y="386.44" style="stroke: #000000; stroke-width: 0.8"/>
      </g>
     </g>
     <g id="text_5">
      <!-- 200 -->
      <g transform="translate(314.299967 404.837656)scale(0.15 -0.15)">
       <defs>
        <path id="DejaVuSans-32" d="M 1228 531 
L 3431 531 
L 3431 0 
L 469 0 
L 469 531 
Q 828 903 1448 1529 
Q 2069 2156 2228 2338 
Q 2531 2678 2651 2914 
Q 2772 3150 2772 3378 
Q 2772 3750 2511 3984 
Q 2250 4219 1831 4219 
Q 1534 4219 1204 4116 
Q 875 4013 500 3803 
L 500 4441 
Q 881 4594 1212 4672 
Q 1544 4750 1819 4750 
Q 2544 4750 2975 4387 
Q 3406 4025 3406 3419 
Q 3406 3131 3298 2873 
Q 3191 2616 2906 2266 
Q 2828 2175 2409 1742 
Q 1991 1309 1228 531 
z
" transform="scale(0.015625)"/>
       </defs>
       <use xlink:href="#DejaVuSans-32"/>
       <use xlink:href="#DejaVuSans-30" x="63.623047"/>
       <use xlink:href="#DejaVuSans-30" x="127.246094"/>
      </g>
     </g>
    </g>
    <g id="text_6">
     <!-- # Commits -->
     <g transform="translate(156.627741 427.154062)scale(0.2 -0.2)">
      <defs>
       <path id="DejaVuSans-23" d="M 3272 2816 
L 2363 2816 
L 2100 1772 
L 3016 1772 
L 3272 2816 
z
M 2803 4594 
L 2478 3297 
L 3391 3297 
L 3719 4594 
L 4219 4594 
L 3897 3297 
L 4872 3297 
L 4872 2816 
L 3775 2816 
L 3519 1772 
L 4513 1772 
L 4513 1294 
L 3397 1294 
L 3072 0 
L 2572 0 
L 2894 1294 
L 1978 1294 
L 1656 0 
L 1153 0 
L 1478 1294 
L 494 1294 
L 494 1772 
L 1594 1772 
L 1856 2816 
L 850 2816 
L 850 3297 
L 1978 3297 
L 2297 4594 
L 2803 4594 
z
" transform="scale(0.015625)"/>
       <path id="DejaVuSans-20" transform="scale(0.015625)"/>
       <path id="DejaVuSans-43" d="M 4122 4306 
L 4122 3641 
Q 3803 3938 3442 4084 
Q 3081 4231 2675 4231 
Q 1875 4231 1450 3742 
Q 1025 3253 1025 2328 
Q 1025 1406 1450 917 
Q 1875 428 2675 428 
Q 3081 428 3442 575 
Q 3803 722 4122 1019 
L 4122 359 
Q 3791 134 3420 21 
Q 3050 -91 2638 -91 
Q 1578 -91 968 557 
Q 359 1206 359 2328 
Q 359 3453 968 4101 
Q 1578 4750 2638 4750 
Q 3056 4750 3426 4639 
Q 3797 4528 4122 4306 
z
" transform="scale(0.015625)"/>
       <path id="DejaVuSans-6f" d="M 1959 3097 
Q 1497 3097 1228 2736 
Q 959 2375 959 1747 
Q 959 1119 1226 758 
Q 1494 397 1959 397 
Q 2419 397 2687 759 
Q 2956 1122 2956 1747 
Q 2956 2369 2687 2733 
Q 2419 3097 1959 3097 
z
M 1959 3584 
Q 2709 3584 3137 3096 
Q 3566 2609 3566 1747 
Q 3566 888 3137 398 
Q 2709 -91 1959 -91 
Q 1206 -91 779 398 
Q 353 888 353 1747 
Q 353 2609 779 3096 
Q 1206 3584 1959 3584 
z
" transform="scale(0.015625)"/>
       <path id="DejaVuSans-6d" d="M 3328 2828 
Q 3544 3216 3844 3400 
Q 4144 3584 4550 3584 
Q 5097 3584 5394 3201 
Q 5691 2819 5691 2113 
L 5691 0 
L 5113 0 
L 5113 2094 
Q 5113 2597 4934 2840 
Q 4756 3084 4391 3084 
Q 3944 3084 3684 2787 
Q 3425 2491 3425 1978 
L 3425 0 
L 2847 0 
L 2847 2094 
Q 2847 2600 2669 2842 
Q 2491 3084 2119 3084 
Q 1678 3084 1418 2786 
Q 1159 2488 1159 1978 
L 1159 0 
L 581 0 
L 581 3500 
L 1159 3500 
L 1159 2956 
Q 1356 3278 1631 3431 
Q 1906 3584 2284 3584 
Q 2666 3584 2933 3390 
Q 3200 3197 3328 2828 
z
" transform="scale(0.015625)"/>
       <path id="DejaVuSans-69" d="M 603 3500 
L 1178 3500 
L 1178 0 
L 603 0 
L 603 3500 
z
M 603 4863 
L 1178 4863 
L 1178 4134 
L 603 4134 
L 603 4863 
z
" transform="scale(0.015625)"/>
       <path id="DejaVuSans-74" d="M 1172 4494 
L 1172 3500 
L 2356 3500 
L 2356 3053 
L 1172 3053 
L 1172 1153 
Q 1172 725 1289 603 
Q 1406 481 1766 481 
L 2356 481 
L 2356 0 
L 1766 0 
Q 1100 0 847 248 
Q 594 497 594 1153 
L 594 3053 
L 172 3053 
L 172 3500 
L 594 3500 
L 594 4494 
L 1172 4494 
z
" transform="scale(0.015625)"/>
       <path id="DejaVuSans-73" d="M 2834 3397 
L 2834 2853 
Q 2591 2978 2328 3040 
Q 2066 3103 1784 3103 
Q 1356 3103 1142 2972 
Q 928 2841 928 2578 
Q 928 2378 1081 2264 
Q 1234 2150 1697 2047 
L 1894 2003 
Q 2506 1872 2764 1633 
Q 3022 1394 3022 966 
Q 3022 478 2636 193 
Q 2250 -91 1575 -91 
Q 1294 -91 989 -36 
Q 684 19 347 128 
L 347 722 
Q 666 556 975 473 
Q 1284 391 1588 391 
Q 1994 391 2212 530 
Q 2431 669 2431 922 
Q 2431 1156 2273 1281 
Q 2116 1406 1581 1522 
L 1381 1569 
Q 847 1681 609 1914 
Q 372 2147 372 2553 
Q 372 3047 722 3315 
Q 1072 3584 1716 3584 
Q 2034 3584 2315 3537 
Q 2597 3491 2834 3397 
z
" transform="scale(0.015625)"/>
      </defs>
      <use xlink:href="#DejaVuSans-23"/>
      <use xlink:href="#DejaVuSans-20" x="83.789062"/>
      <use xlink:href="#DejaVuSans-43" x="115.576172"/>
      <use xlink:href="#DejaVuSans-6f" x="185.400391"/>
      <use xlink:href="#DejaVuSans-6d" x="246.582031"/>
      <use xlink:href="#DejaVuSans-6d" x="343.994141"/>
      <use xlink:href="#DejaVuSans-69" x="441.40625"/>
      <use xlink:href="#DejaVuSans-74" x="469.189453"/>
      <use xlink:href="#DejaVuSans-73" x="508.398438"/>
     </g>
    </g>
   </g>
   <g id="matplotlib.axis_2">
    <g id="ytick_1">
     <g id="line2d_6">
      <defs>
       <path id="md7e018c555" d="M 0 0 
L -3.5 0 
" style="stroke: #000000; stroke-width: 0.8"/>
      </defs>
      <g>
       <use xlink:href="#md7e018c555" x="56.64375" y="349.604727" style="stroke: #000000; stroke-width: 0.8"/>
      </g>
     </g>
     <g id="text_7">
      <!-- 5 -->
      <g transform="translate(40.1 355.303555)scale(0.15 -0.15)">
       <use xlink:href="#DejaVuSans-35"/>
      </g>
     </g>
    </g>
    <g id="ytick_2">
     <g id="line2d_7">
      <g>
       <use xlink:href="#md7e018c555" x="56.64375" y="312.017714" style="stroke: #000000; stroke-width: 0.8"/>
      </g>
     </g>
     <g id="text_8">
      <!-- 10 -->
      <g transform="translate(30.55625 317.716542)scale(0.15 -0.15)">
       <use xlink:href="#DejaVuSans-31"/>
       <use xlink:href="#DejaVuSans-30" x="63.623047"/>
      </g>
     </g>
    </g>
    <g id="ytick_3">
     <g id="line2d_8">
      <g>
       <use xlink:href="#md7e018c555" x="56.64375" y="274.430701" style="stroke: #000000; stroke-width: 0.8"/>
      </g>
     </g>
     <g id="text_9">
      <!-- 15 -->
      <g transform="translate(30.55625 280.129529)scale(0.15 -0.15)">
       <use xlink:href="#DejaVuSans-31"/>
       <use xlink:href="#DejaVuSans-35" x="63.623047"/>
      </g>
     </g>
    </g>
    <g id="ytick_4">
     <g id="line2d_9">
      <g>
       <use xlink:href="#md7e018c555" x="56.64375" y="236.843688" style="stroke: #000000; stroke-width: 0.8"/>
      </g>
     </g>
     <g id="text_10">
      <!-- 20 -->
      <g transform="translate(30.55625 242.542516)scale(0.15 -0.15)">
       <use xlink:href="#DejaVuSans-32"/>
       <use xlink:href="#DejaVuSans-30" x="63.623047"/>
      </g>
     </g>
    </g>
    <g id="ytick_5">
     <g id="line2d_10">
      <g>
       <use xlink:href="#md7e018c555" x="56.64375" y="199.256675" style="stroke: #000000; stroke-width: 0.8"/>
      </g>
     </g>
     <g id="text_11">
      <!-- 25 -->
      <g transform="translate(30.55625 204.955503)scale(0.15 -0.15)">
       <use xlink:href="#DejaVuSans-32"/>
       <use xlink:href="#DejaVuSans-35" x="63.623047"/>
      </g>
     </g>
    </g>
    <g id="ytick_6">
     <g id="line2d_11">
      <g>
       <use xlink:href="#md7e018c555" x="56.64375" y="161.669662" style="stroke: #000000; stroke-width: 0.8"/>
      </g>
     </g>
     <g id="text_12">
      <!-- 30 -->
      <g transform="translate(30.55625 167.36849)scale(0.15 -0.15)">
       <defs>
        <path id="DejaVuSans-33" d="M 2597 2516 
Q 3050 2419 3304 2112 
Q 3559 1806 3559 1356 
Q 3559 666 3084 287 
Q 2609 -91 1734 -91 
Q 1441 -91 1130 -33 
Q 819 25 488 141 
L 488 750 
Q 750 597 1062 519 
Q 1375 441 1716 441 
Q 2309 441 2620 675 
Q 2931 909 2931 1356 
Q 2931 1769 2642 2001 
Q 2353 2234 1838 2234 
L 1294 2234 
L 1294 2753 
L 1863 2753 
Q 2328 2753 2575 2939 
Q 2822 3125 2822 3475 
Q 2822 3834 2567 4026 
Q 2313 4219 1838 4219 
Q 1578 4219 1281 4162 
Q 984 4106 628 3988 
L 628 4550 
Q 988 4650 1302 4700 
Q 1616 4750 1894 4750 
Q 2613 4750 3031 4423 
Q 3450 4097 3450 3541 
Q 3450 3153 3228 2886 
Q 3006 2619 2597 2516 
z
" transform="scale(0.015625)"/>
       </defs>
       <use xlink:href="#DejaVuSans-33"/>
       <use xlink:href="#DejaVuSans-30" x="63.623047"/>
      </g>
     </g>
    </g>
    <g id="ytick_7">
     <g id="line2d_12">
      <g>
       <use xlink:href="#md7e018c555" x="56.64375" y="124.082649" style="stroke: #000000; stroke-width: 0.8"/>
      </g>
     </g>
     <g id="text_13">
      <!-- 35 -->
      <g transform="translate(30.55625 129.781477)scale(0.15 -0.15)">
       <use xlink:href="#DejaVuSans-33"/>
       <use xlink:href="#DejaVuSans-35" x="63.623047"/>
      </g>
     </g>
    </g>
    <g id="ytick_8">
     <g id="line2d_13">
      <g>
       <use xlink:href="#md7e018c555" x="56.64375" y="86.495636" style="stroke: #000000; stroke-width: 0.8"/>
      </g>
     </g>
     <g id="text_14">
      <!-- 40 -->
      <g transform="translate(30.55625 92.194464)scale(0.15 -0.15)">
       <defs>
        <path id="DejaVuSans-34" d="M 2419 4116 
L 825 1625 
L 2419 1625 
L 2419 4116 
z
M 2253 4666 
L 3047 4666 
L 3047 1625 
L 3713 1625 
L 3713 1100 
L 3047 1100 
L 3047 0 
L 2419 0 
L 2419 1100 
L 313 1100 
L 313 1709 
L 2253 4666 
z
" transform="scale(0.015625)"/>
       </defs>
       <use xlink:href="#DejaVuSans-34"/>
       <use xlink:href="#DejaVuSans-30" x="63.623047"/>
      </g>
     </g>
    </g>
    <g id="text_15">
     <!-- # Interacting authors -->
     <g transform="translate(22.396875 336.707536)rotate(-90)scale(0.2 -0.2)">
      <defs>
       <path id="DejaVuSans-49" d="M 628 4666 
L 1259 4666 
L 1259 0 
L 628 0 
L 628 4666 
z
" transform="scale(0.015625)"/>
       <path id="DejaVuSans-6e" d="M 3513 2113 
L 3513 0 
L 2938 0 
L 2938 2094 
Q 2938 2591 2744 2837 
Q 2550 3084 2163 3084 
Q 1697 3084 1428 2787 
Q 1159 2491 1159 1978 
L 1159 0 
L 581 0 
L 581 3500 
L 1159 3500 
L 1159 2956 
Q 1366 3272 1645 3428 
Q 1925 3584 2291 3584 
Q 2894 3584 3203 3211 
Q 3513 2838 3513 2113 
z
" transform="scale(0.015625)"/>
       <path id="DejaVuSans-65" d="M 3597 1894 
L 3597 1613 
L 953 1613 
Q 991 1019 1311 708 
Q 1631 397 2203 397 
Q 2534 397 2845 478 
Q 3156 559 3463 722 
L 3463 178 
Q 3153 47 2828 -22 
Q 2503 -91 2169 -91 
Q 1331 -91 842 396 
Q 353 884 353 1716 
Q 353 2575 817 3079 
Q 1281 3584 2069 3584 
Q 2775 3584 3186 3129 
Q 3597 2675 3597 1894 
z
M 3022 2063 
Q 3016 2534 2758 2815 
Q 2500 3097 2075 3097 
Q 1594 3097 1305 2825 
Q 1016 2553 972 2059 
L 3022 2063 
z
" transform="scale(0.015625)"/>
       <path id="DejaVuSans-72" d="M 2631 2963 
Q 2534 3019 2420 3045 
Q 2306 3072 2169 3072 
Q 1681 3072 1420 2755 
Q 1159 2438 1159 1844 
L 1159 0 
L 581 0 
L 581 3500 
L 1159 3500 
L 1159 2956 
Q 1341 3275 1631 3429 
Q 1922 3584 2338 3584 
Q 2397 3584 2469 3576 
Q 2541 3569 2628 3553 
L 2631 2963 
z
" transform="scale(0.015625)"/>
       <path id="DejaVuSans-61" d="M 2194 1759 
Q 1497 1759 1228 1600 
Q 959 1441 959 1056 
Q 959 750 1161 570 
Q 1363 391 1709 391 
Q 2188 391 2477 730 
Q 2766 1069 2766 1631 
L 2766 1759 
L 2194 1759 
z
M 3341 1997 
L 3341 0 
L 2766 0 
L 2766 531 
Q 2569 213 2275 61 
Q 1981 -91 1556 -91 
Q 1019 -91 701 211 
Q 384 513 384 1019 
Q 384 1609 779 1909 
Q 1175 2209 1959 2209 
L 2766 2209 
L 2766 2266 
Q 2766 2663 2505 2880 
Q 2244 3097 1772 3097 
Q 1472 3097 1187 3025 
Q 903 2953 641 2809 
L 641 3341 
Q 956 3463 1253 3523 
Q 1550 3584 1831 3584 
Q 2591 3584 2966 3190 
Q 3341 2797 3341 1997 
z
" transform="scale(0.015625)"/>
       <path id="DejaVuSans-63" d="M 3122 3366 
L 3122 2828 
Q 2878 2963 2633 3030 
Q 2388 3097 2138 3097 
Q 1578 3097 1268 2742 
Q 959 2388 959 1747 
Q 959 1106 1268 751 
Q 1578 397 2138 397 
Q 2388 397 2633 464 
Q 2878 531 3122 666 
L 3122 134 
Q 2881 22 2623 -34 
Q 2366 -91 2075 -91 
Q 1284 -91 818 406 
Q 353 903 353 1747 
Q 353 2603 823 3093 
Q 1294 3584 2113 3584 
Q 2378 3584 2631 3529 
Q 2884 3475 3122 3366 
z
" transform="scale(0.015625)"/>
       <path id="DejaVuSans-67" d="M 2906 1791 
Q 2906 2416 2648 2759 
Q 2391 3103 1925 3103 
Q 1463 3103 1205 2759 
Q 947 2416 947 1791 
Q 947 1169 1205 825 
Q 1463 481 1925 481 
Q 2391 481 2648 825 
Q 2906 1169 2906 1791 
z
M 3481 434 
Q 3481 -459 3084 -895 
Q 2688 -1331 1869 -1331 
Q 1566 -1331 1297 -1286 
Q 1028 -1241 775 -1147 
L 775 -588 
Q 1028 -725 1275 -790 
Q 1522 -856 1778 -856 
Q 2344 -856 2625 -561 
Q 2906 -266 2906 331 
L 2906 616 
Q 2728 306 2450 153 
Q 2172 0 1784 0 
Q 1141 0 747 490 
Q 353 981 353 1791 
Q 353 2603 747 3093 
Q 1141 3584 1784 3584 
Q 2172 3584 2450 3431 
Q 2728 3278 2906 2969 
L 2906 3500 
L 3481 3500 
L 3481 434 
z
" transform="scale(0.015625)"/>
       <path id="DejaVuSans-75" d="M 544 1381 
L 544 3500 
L 1119 3500 
L 1119 1403 
Q 1119 906 1312 657 
Q 1506 409 1894 409 
Q 2359 409 2629 706 
Q 2900 1003 2900 1516 
L 2900 3500 
L 3475 3500 
L 3475 0 
L 2900 0 
L 2900 538 
Q 2691 219 2414 64 
Q 2138 -91 1772 -91 
Q 1169 -91 856 284 
Q 544 659 544 1381 
z
M 1991 3584 
L 1991 3584 
z
" transform="scale(0.015625)"/>
       <path id="DejaVuSans-68" d="M 3513 2113 
L 3513 0 
L 2938 0 
L 2938 2094 
Q 2938 2591 2744 2837 
Q 2550 3084 2163 3084 
Q 1697 3084 1428 2787 
Q 1159 2491 1159 1978 
L 1159 0 
L 581 0 
L 581 4863 
L 1159 4863 
L 1159 2956 
Q 1366 3272 1645 3428 
Q 1925 3584 2291 3584 
Q 2894 3584 3203 3211 
Q 3513 2838 3513 2113 
z
" transform="scale(0.015625)"/>
      </defs>
      <use xlink:href="#DejaVuSans-23"/>
      <use xlink:href="#DejaVuSans-20" x="83.789062"/>
      <use xlink:href="#DejaVuSans-49" x="115.576172"/>
      <use xlink:href="#DejaVuSans-6e" x="145.068359"/>
      <use xlink:href="#DejaVuSans-74" x="208.447266"/>
      <use xlink:href="#DejaVuSans-65" x="247.65625"/>
      <use xlink:href="#DejaVuSans-72" x="309.179688"/>
      <use xlink:href="#DejaVuSans-61" x="350.292969"/>
      <use xlink:href="#DejaVuSans-63" x="411.572266"/>
      <use xlink:href="#DejaVuSans-74" x="466.552734"/>
      <use xlink:href="#DejaVuSans-69" x="505.761719"/>
      <use xlink:href="#DejaVuSans-6e" x="533.544922"/>
      <use xlink:href="#DejaVuSans-67" x="596.923828"/>
      <use xlink:href="#DejaVuSans-20" x="660.400391"/>
      <use xlink:href="#DejaVuSans-61" x="692.1875"/>
      <use xlink:href="#DejaVuSans-75" x="753.466797"/>
      <use xlink:href="#DejaVuSans-74" x="816.845703"/>
      <use xlink:href="#DejaVuSans-68" x="856.054688"/>
      <use xlink:href="#DejaVuSans-6f" x="919.433594"/>
      <use xlink:href="#DejaVuSans-72" x="980.615234"/>
      <use xlink:href="#DejaVuSans-73" x="1021.728516"/>
     </g>
    </g>
   </g>
   <g id="patch_3">
    <path d="M 56.64375 386.44 
L 56.64375 72.212571 
" style="fill: none; stroke: #000000; stroke-width: 0.8; stroke-linejoin: miter; stroke-linecap: square"/>
   </g>
   <g id="patch_4">
    <path d="M 56.64375 386.44 
L 368.708607 386.44 
" style="fill: none; stroke: #000000; stroke-width: 0.8; stroke-linejoin: miter; stroke-linecap: square"/>
   </g>
  </g>
  <g id="axes_2">
   <g id="patch_5">
    <path d="M 56.64375 61.377143 
L 368.708607 61.377143 
L 368.708607 7.2 
L 56.64375 7.2 
z
" style="fill: #ffffff"/>
   </g>
   <g id="PolyCollection_1">
    <path d="M -32.046145 60.924504 
L -32.046145 61.377143 
L -29.586624 61.377143 
L -27.127103 61.377143 
L -24.667582 61.377143 
L -22.208061 61.377143 
L -19.74854 61.377143 
L -17.28902 61.377143 
L -14.829499 61.377143 
L -12.369978 61.377143 
L -9.910457 61.377143 
L -7.450936 61.377143 
L -4.991415 61.377143 
L -2.531895 61.377143 
L -0.072374 61.377143 
L 2.387147 61.377143 
L 4.846668 61.377143 
L 7.306189 61.377143 
L 9.76571 61.377143 
L 12.22523 61.377143 
L 14.684751 61.377143 
L 17.144272 61.377143 
L 19.603793 61.377143 
L 22.063314 61.377143 
L 24.522835 61.377143 
L 26.982355 61.377143 
L 29.441876 61.377143 
L 31.901397 61.377143 
L 34.360918 61.377143 
L 36.820439 61.377143 
L 39.27996 61.377143 
L 41.73948 61.377143 
L 44.199001 61.377143 
L 46.658522 61.377143 
L 49.118043 61.377143 
L 51.577564 61.377143 
L 54.037085 61.377143 
L 56.496606 61.377143 
L 58.956126 61.377143 
L 61.415647 61.377143 
L 63.875168 61.377143 
L 66.334689 61.377143 
L 68.79421 61.377143 
L 71.253731 61.377143 
L 73.713251 61.377143 
L 76.172772 61.377143 
L 78.632293 61.377143 
L 81.091814 61.377143 
L 83.551335 61.377143 
L 86.010856 61.377143 
L 88.470376 61.377143 
L 90.929897 61.377143 
L 93.389418 61.377143 
L 95.848939 61.377143 
L 98.30846 61.377143 
L 100.767981 61.377143 
L 103.227501 61.377143 
L 105.687022 61.377143 
L 108.146543 61.377143 
L 110.606064 61.377143 
L 113.065585 61.377143 
L 115.525106 61.377143 
L 117.984626 61.377143 
L 120.444147 61.377143 
L 122.903668 61.377143 
L 125.363189 61.377143 
L 127.82271 61.377143 
L 130.282231 61.377143 
L 132.741751 61.377143 
L 135.201272 61.377143 
L 137.660793 61.377143 
L 140.120314 61.377143 
L 142.579835 61.377143 
L 145.039356 61.377143 
L 147.498876 61.377143 
L 149.958397 61.377143 
L 152.417918 61.377143 
L 154.877439 61.377143 
L 157.33696 61.377143 
L 159.796481 61.377143 
L 162.256001 61.377143 
L 164.715522 61.377143 
L 167.175043 61.377143 
L 169.634564 61.377143 
L 172.094085 61.377143 
L 174.553606 61.377143 
L 177.013126 61.377143 
L 179.472647 61.377143 
L 181.932168 61.377143 
L 184.391689 61.377143 
L 186.85121 61.377143 
L 189.310731 61.377143 
L 191.770251 61.377143 
L 194.229772 61.377143 
L 196.689293 61.377143 
L 199.148814 61.377143 
L 201.608335 61.377143 
L 204.067856 61.377143 
L 206.527376 61.377143 
L 208.986897 61.377143 
L 211.446418 61.377143 
L 213.905939 61.377143 
L 216.36546 61.377143 
L 218.824981 61.377143 
L 221.284501 61.377143 
L 223.744022 61.377143 
L 226.203543 61.377143 
L 228.663064 61.377143 
L 231.122585 61.377143 
L 233.582106 61.377143 
L 236.041627 61.377143 
L 238.501147 61.377143 
L 240.960668 61.377143 
L 243.420189 61.377143 
L 245.87971 61.377143 
L 248.339231 61.377143 
L 250.798752 61.377143 
L 253.258272 61.377143 
L 255.717793 61.377143 
L 258.177314 61.377143 
L 260.636835 61.377143 
L 263.096356 61.377143 
L 265.555877 61.377143 
L 268.015397 61.377143 
L 270.474918 61.377143 
L 272.934439 61.377143 
L 275.39396 61.377143 
L 277.853481 61.377143 
L 280.313002 61.377143 
L 282.772522 61.377143 
L 285.232043 61.377143 
L 287.691564 61.377143 
L 290.151085 61.377143 
L 292.610606 61.377143 
L 295.070127 61.377143 
L 297.529647 61.377143 
L 299.989168 61.377143 
L 302.448689 61.377143 
L 304.90821 61.377143 
L 307.367731 61.377143 
L 309.827252 61.377143 
L 312.286772 61.377143 
L 314.746293 61.377143 
L 317.205814 61.377143 
L 319.665335 61.377143 
L 322.124856 61.377143 
L 324.584377 61.377143 
L 327.043897 61.377143 
L 329.503418 61.377143 
L 331.962939 61.377143 
L 334.42246 61.377143 
L 336.881981 61.377143 
L 339.341502 61.377143 
L 341.801022 61.377143 
L 344.260543 61.377143 
L 346.720064 61.377143 
L 349.179585 61.377143 
L 351.639106 61.377143 
L 354.098627 61.377143 
L 356.558147 61.377143 
L 359.017668 61.377143 
L 361.477189 61.377143 
L 363.93671 61.377143 
L 366.396231 61.377143 
L 368.855752 61.377143 
L 371.315272 61.377143 
L 373.774793 61.377143 
L 376.234314 61.377143 
L 378.693835 61.377143 
L 381.153356 61.377143 
L 383.612877 61.377143 
L 386.072397 61.377143 
L 388.531918 61.377143 
L 390.991439 61.377143 
L 393.45096 61.377143 
L 395.910481 61.377143 
L 398.370002 61.377143 
L 400.829522 61.377143 
L 403.289043 61.377143 
L 405.748564 61.377143 
L 408.208085 61.377143 
L 410.667606 61.377143 
L 413.127127 61.377143 
L 415.586648 61.377143 
L 418.046168 61.377143 
L 420.505689 61.377143 
L 422.96521 61.377143 
L 425.424731 61.377143 
L 427.884252 61.377143 
L 430.343773 61.377143 
L 432.803293 61.377143 
L 435.262814 61.377143 
L 437.722335 61.377143 
L 440.181856 61.377143 
L 442.641377 61.377143 
L 445.100898 61.377143 
L 447.560418 61.377143 
L 450.019939 61.377143 
L 452.47946 61.377143 
L 454.938981 61.377143 
L 457.398502 61.377143 
L 457.398502 61.347716 
L 457.398502 61.347716 
L 454.938981 61.340745 
L 452.47946 61.332353 
L 450.019939 61.32231 
L 447.560418 61.31036 
L 445.100898 61.296222 
L 442.641377 61.279594 
L 440.181856 61.260153 
L 437.722335 61.237558 
L 435.262814 61.211453 
L 432.803293 61.181475 
L 430.343773 61.147259 
L 427.884252 61.108445 
L 425.424731 61.06469 
L 422.96521 61.015673 
L 420.505689 60.961113 
L 418.046168 60.900774 
L 415.586648 60.834483 
L 413.127127 60.762139 
L 410.667606 60.683727 
L 408.208085 60.599329 
L 405.748564 60.509135 
L 403.289043 60.413453 
L 400.829522 60.312713 
L 398.370002 60.207475 
L 395.910481 60.098428 
L 393.45096 59.986387 
L 390.991439 59.87229 
L 388.531918 59.757187 
L 386.072397 59.642229 
L 383.612877 59.528645 
L 381.153356 59.417731 
L 378.693835 59.310818 
L 376.234314 59.209251 
L 373.774793 59.114361 
L 371.315272 59.027434 
L 368.855752 58.949684 
L 366.396231 58.882224 
L 363.93671 58.826042 
L 361.477189 58.78197 
L 359.017668 58.750672 
L 356.558147 58.73262 
L 354.098627 58.728085 
L 351.639106 58.737128 
L 349.179585 58.759602 
L 346.720064 58.795149 
L 344.260543 58.843211 
L 341.801022 58.903047 
L 339.341502 58.973742 
L 336.881981 59.054237 
L 334.42246 59.143346 
L 331.962939 59.239788 
L 329.503418 59.342209 
L 327.043897 59.449212 
L 324.584377 59.559384 
L 322.124856 59.671323 
L 319.665335 59.783655 
L 317.205814 59.895063 
L 314.746293 60.004299 
L 312.286772 60.110198 
L 309.827252 60.211693 
L 307.367731 60.307814 
L 304.90821 60.397698 
L 302.448689 60.480589 
L 299.989168 60.555829 
L 297.529647 60.622862 
L 295.070127 60.681222 
L 292.610606 60.730528 
L 290.151085 60.770476 
L 287.691564 60.800832 
L 285.232043 60.821423 
L 282.772522 60.832136 
L 280.313002 60.832909 
L 277.853481 60.823732 
L 275.39396 60.804644 
L 272.934439 60.775736 
L 270.474918 60.737154 
L 268.015397 60.689102 
L 265.555877 60.631849 
L 263.096356 60.565735 
L 260.636835 60.491176 
L 258.177314 60.408671 
L 255.717793 60.318809 
L 253.258272 60.222268 
L 250.798752 60.119815 
L 248.339231 60.012309 
L 245.87971 59.900692 
L 243.420189 59.785978 
L 240.960668 59.669245 
L 238.501147 59.551613 
L 236.041627 59.434224 
L 233.582106 59.318221 
L 231.122585 59.204714 
L 228.663064 59.094758 
L 226.203543 58.989314 
L 223.744022 58.889218 
L 221.284501 58.795148 
L 218.824981 58.707596 
L 216.36546 58.626828 
L 213.905939 58.552865 
L 211.446418 58.485453 
L 208.986897 58.424045 
L 206.527376 58.367784 
L 204.067856 58.315492 
L 201.608335 58.265665 
L 199.148814 58.216471 
L 196.689293 58.165752 
L 194.229772 58.111034 
L 191.770251 58.049541 
L 189.310731 57.978203 
L 186.85121 57.893681 
L 184.391689 57.792378 
L 181.932168 57.670467 
L 179.472647 57.523905 
L 177.013126 57.348458 
L 174.553606 57.139722 
L 172.094085 56.893145 
L 169.634564 56.60405 
L 167.175043 56.267659 
L 164.715522 55.879126 
L 162.256001 55.433569 
L 159.796481 54.926105 
L 157.33696 54.351907 
L 154.877439 53.706252 
L 152.417918 52.984598 
L 149.958397 52.182658 
L 147.498876 51.296502 
L 145.039356 50.322662 
L 142.579835 49.258255 
L 140.120314 48.101117 
L 137.660793 46.849951 
L 135.201272 45.504478 
L 132.741751 44.065591 
L 130.282231 42.535514 
L 127.82271 40.917944 
L 125.363189 39.21819 
L 122.903668 37.443279 
L 120.444147 35.602049 
L 117.984626 33.705193 
L 115.525106 31.765271 
L 113.065585 29.796673 
L 110.606064 27.815528 
L 108.146543 25.839561 
L 105.687022 23.887891 
L 103.227501 21.98078 
L 100.767981 20.139321 
L 98.30846 18.385088 
L 95.848939 16.739736 
L 93.389418 15.224581 
L 90.929897 13.860157 
L 88.470376 12.66576 
L 86.010856 11.659014 
L 83.551335 10.855445 
L 81.091814 10.268095 
L 78.632293 9.907191 
L 76.172772 9.779864 
L 73.713251 9.889947 
L 71.253731 10.237849 
L 68.79421 10.820514 
L 66.334689 11.631466 
L 63.875168 12.660937 
L 61.415647 13.89608 
L 58.956126 15.321258 
L 56.496606 16.91839 
L 54.037085 18.667363 
L 51.577564 20.546475 
L 49.118043 22.532908 
L 46.658522 24.603213 
L 44.199001 26.733789 
L 41.73948 28.901353 
L 39.27996 31.083363 
L 36.820439 33.258421 
L 34.360918 35.406607 
L 31.901397 37.509765 
L 29.441876 39.551726 
L 26.982355 41.518465 
L 24.522835 43.398197 
L 22.063314 45.181406 
L 19.603793 46.860823 
L 17.144272 48.431352 
L 14.684751 49.889945 
L 12.22523 51.235452 
L 9.76571 52.468429 
L 7.306189 53.59094 
L 4.846668 54.606338 
L 2.387147 55.519042 
L -0.072374 56.334322 
L -2.531895 57.058089 
L -4.991415 57.696697 
L -7.450936 58.256762 
L -9.910457 58.745006 
L -12.369978 59.16811 
L -14.829499 59.532607 
L -17.28902 59.844778 
L -19.74854 60.110581 
L -22.208061 60.335596 
L -24.667582 60.524988 
L -27.127103 60.683487 
L -29.586624 60.815377 
L -32.046145 60.924504 
z
" clip-path="url(#pa877fc2834)" style="fill: #1f77b4; fill-opacity: 0.25; stroke: #1f77b4"/>
   </g>
   <g id="matplotlib.axis_3">
    <g id="xtick_6">
     <g id="line2d_14">
      <g>
       <use xlink:href="#m875561615a" x="69.533104" y="61.377143" style="stroke: #000000; stroke-width: 0.8"/>
      </g>
     </g>
    </g>
    <g id="xtick_7">
     <g id="line2d_15">
      <g>
       <use xlink:href="#m875561615a" x="134.303726" y="61.377143" style="stroke: #000000; stroke-width: 0.8"/>
      </g>
     </g>
    </g>
    <g id="xtick_8">
     <g id="line2d_16">
      <g>
       <use xlink:href="#m875561615a" x="199.074348" y="61.377143" style="stroke: #000000; stroke-width: 0.8"/>
      </g>
     </g>
    </g>
    <g id="xtick_9">
     <g id="line2d_17">
      <g>
       <use xlink:href="#m875561615a" x="263.84497" y="61.377143" style="stroke: #000000; stroke-width: 0.8"/>
      </g>
     </g>
    </g>
    <g id="xtick_10">
     <g id="line2d_18">
      <g>
       <use xlink:href="#m875561615a" x="328.615592" y="61.377143" style="stroke: #000000; stroke-width: 0.8"/>
      </g>
     </g>
    </g>
   </g>
   <g id="matplotlib.axis_4">
    <g id="ytick_9"/>
    <g id="ytick_10"/>
   </g>
   <g id="patch_6">
    <path d="M 56.64375 61.377143 
L 368.708607 61.377143 
" style="fill: none; stroke: #000000; stroke-width: 0.8; stroke-linejoin: miter; stroke-linecap: square"/>
   </g>
  </g>
  <g id="axes_3">
   <g id="patch_7">
    <path d="M 379.469464 386.44 
L 433.27375 386.44 
L 433.27375 72.212571 
L 379.469464 72.212571 
z
" style="fill: #ffffff"/>
   </g>
   <g id="PolyCollection_2">
    <path d="M 379.570304 511.550305 
L 379.469464 511.550305 
L 379.469464 508.713883 
L 379.469464 505.877461 
L 379.469464 503.041038 
L 379.469464 500.204616 
L 379.469464 497.368194 
L 379.469464 494.531771 
L 379.469464 491.695349 
L 379.469464 488.858927 
L 379.469464 486.022505 
L 379.469464 483.186082 
L 379.469464 480.34966 
L 379.469464 477.513238 
L 379.469464 474.676815 
L 379.469464 471.840393 
L 379.469464 469.003971 
L 379.469464 466.167548 
L 379.469464 463.331126 
L 379.469464 460.494704 
L 379.469464 457.658281 
L 379.469464 454.821859 
L 379.469464 451.985437 
L 379.469464 449.149015 
L 379.469464 446.312592 
L 379.469464 443.47617 
L 379.469464 440.639748 
L 379.469464 437.803325 
L 379.469464 434.966903 
L 379.469464 432.130481 
L 379.469464 429.294058 
L 379.469464 426.457636 
L 379.469464 423.621214 
L 379.469464 420.784791 
L 379.469464 417.948369 
L 379.469464 415.111947 
L 379.469464 412.275525 
L 379.469464 409.439102 
L 379.469464 406.60268 
L 379.469464 403.766258 
L 379.469464 400.929835 
L 379.469464 398.093413 
L 379.469464 395.256991 
L 379.469464 392.420568 
L 379.469464 389.584146 
L 379.469464 386.747724 
L 379.469464 383.911301 
L 379.469464 381.074879 
L 379.469464 378.238457 
L 379.469464 375.402035 
L 379.469464 372.565612 
L 379.469464 369.72919 
L 379.469464 366.892768 
L 379.469464 364.056345 
L 379.469464 361.219923 
L 379.469464 358.383501 
L 379.469464 355.547078 
L 379.469464 352.710656 
L 379.469464 349.874234 
L 379.469464 347.037811 
L 379.469464 344.201389 
L 379.469464 341.364967 
L 379.469464 338.528545 
L 379.469464 335.692122 
L 379.469464 332.8557 
L 379.469464 330.019278 
L 379.469464 327.182855 
L 379.469464 324.346433 
L 379.469464 321.510011 
L 379.469464 318.673588 
L 379.469464 315.837166 
L 379.469464 313.000744 
L 379.469464 310.164321 
L 379.469464 307.327899 
L 379.469464 304.491477 
L 379.469464 301.655055 
L 379.469464 298.818632 
L 379.469464 295.98221 
L 379.469464 293.145788 
L 379.469464 290.309365 
L 379.469464 287.472943 
L 379.469464 284.636521 
L 379.469464 281.800098 
L 379.469464 278.963676 
L 379.469464 276.127254 
L 379.469464 273.290831 
L 379.469464 270.454409 
L 379.469464 267.617987 
L 379.469464 264.781565 
L 379.469464 261.945142 
L 379.469464 259.10872 
L 379.469464 256.272298 
L 379.469464 253.435875 
L 379.469464 250.599453 
L 379.469464 247.763031 
L 379.469464 244.926608 
L 379.469464 242.090186 
L 379.469464 239.253764 
L 379.469464 236.417341 
L 379.469464 233.580919 
L 379.469464 230.744497 
L 379.469464 227.908075 
L 379.469464 225.071652 
L 379.469464 222.23523 
L 379.469464 219.398808 
L 379.469464 216.562385 
L 379.469464 213.725963 
L 379.469464 210.889541 
L 379.469464 208.053118 
L 379.469464 205.216696 
L 379.469464 202.380274 
L 379.469464 199.543851 
L 379.469464 196.707429 
L 379.469464 193.871007 
L 379.469464 191.034585 
L 379.469464 188.198162 
L 379.469464 185.36174 
L 379.469464 182.525318 
L 379.469464 179.688895 
L 379.469464 176.852473 
L 379.469464 174.016051 
L 379.469464 171.179628 
L 379.469464 168.343206 
L 379.469464 165.506784 
L 379.469464 162.670361 
L 379.469464 159.833939 
L 379.469464 156.997517 
L 379.469464 154.161095 
L 379.469464 151.324672 
L 379.469464 148.48825 
L 379.469464 145.651828 
L 379.469464 142.815405 
L 379.469464 139.978983 
L 379.469464 137.142561 
L 379.469464 134.306138 
L 379.469464 131.469716 
L 379.469464 128.633294 
L 379.469464 125.796872 
L 379.469464 122.960449 
L 379.469464 120.124027 
L 379.469464 117.287605 
L 379.469464 114.451182 
L 379.469464 111.61476 
L 379.469464 108.778338 
L 379.469464 105.941915 
L 379.469464 103.105493 
L 379.469464 100.269071 
L 379.469464 97.432648 
L 379.469464 94.596226 
L 379.469464 91.759804 
L 379.469464 88.923382 
L 379.469464 86.086959 
L 379.469464 83.250537 
L 379.469464 80.414115 
L 379.469464 77.577692 
L 379.469464 74.74127 
L 379.469464 71.904848 
L 379.469464 69.068425 
L 379.469464 66.232003 
L 379.469464 63.395581 
L 379.469464 60.559158 
L 379.469464 57.722736 
L 379.469464 54.886314 
L 379.469464 52.049892 
L 379.469464 49.213469 
L 379.469464 46.377047 
L 379.469464 43.540625 
L 379.469464 40.704202 
L 379.469464 37.86778 
L 379.469464 35.031358 
L 379.469464 32.194935 
L 379.469464 29.358513 
L 379.469464 26.522091 
L 379.469464 23.685668 
L 379.469464 20.849246 
L 379.469464 18.012824 
L 379.469464 15.176402 
L 379.469464 12.339979 
L 379.469464 9.503557 
L 379.469464 6.667135 
L 379.469464 3.830712 
L 379.469464 0.99429 
L 379.469464 -1.842132 
L 379.469464 -4.678555 
L 379.469464 -7.514977 
L 379.469464 -10.351399 
L 379.469464 -13.187822 
L 379.469464 -16.024244 
L 379.469464 -18.860666 
L 379.469464 -21.697088 
L 379.469464 -24.533511 
L 379.469464 -27.369933 
L 379.469464 -30.206355 
L 379.469464 -33.042778 
L 379.469464 -35.8792 
L 379.469464 -38.715622 
L 379.469464 -41.552045 
L 379.469464 -44.388467 
L 379.469464 -47.224889 
L 379.469464 -50.061312 
L 379.469464 -52.897734 
L 379.555419 -52.897734 
L 379.555419 -52.897734 
L 379.573445 -50.061312 
L 379.594816 -47.224889 
L 379.62006 -44.388467 
L 379.649766 -41.552045 
L 379.684593 -38.715622 
L 379.725273 -35.8792 
L 379.77261 -33.042778 
L 379.827492 -30.206355 
L 379.890884 -27.369933 
L 379.963834 -24.533511 
L 380.047474 -21.697088 
L 380.143014 -18.860666 
L 380.251746 -16.024244 
L 380.375036 -13.187822 
L 380.51432 -10.351399 
L 380.671098 -7.514977 
L 380.84692 -4.678555 
L 381.043383 -1.842132 
L 381.262113 0.99429 
L 381.504753 3.830712 
L 381.772945 6.667135 
L 382.068318 9.503557 
L 382.392464 12.339979 
L 382.746921 15.176402 
L 383.133155 18.012824 
L 383.552536 20.849246 
L 384.006321 23.685668 
L 384.495632 26.522091 
L 385.021438 29.358513 
L 385.584538 32.194935 
L 386.185544 35.031358 
L 386.824869 37.86778 
L 387.502715 40.704202 
L 388.219064 43.540625 
L 388.973673 46.377047 
L 389.766073 49.213469 
L 390.595567 52.049892 
L 391.461237 54.886314 
L 392.361951 57.722736 
L 393.296372 60.559158 
L 394.262971 63.395581 
L 395.260041 66.232003 
L 396.285717 69.068425 
L 397.337988 71.904848 
L 398.414719 74.74127 
L 399.513668 77.577692 
L 400.632501 80.414115 
L 401.76881 83.250537 
L 402.920125 86.086959 
L 404.083929 88.923382 
L 405.257659 91.759804 
L 406.438721 94.596226 
L 407.624483 97.432648 
L 408.812284 100.269071 
L 409.999421 103.105493 
L 411.183151 105.941915 
L 412.36068 108.778338 
L 413.529154 111.61476 
L 414.68565 114.451182 
L 415.827169 117.287605 
L 416.950628 120.124027 
L 418.052857 122.960449 
L 419.130597 125.796872 
L 420.180503 128.633294 
L 421.199159 131.469716 
L 422.183087 134.306138 
L 423.128773 137.142561 
L 424.032695 139.978983 
L 424.89136 142.815405 
L 425.701344 145.651828 
L 426.459343 148.48825 
L 427.162227 151.324672 
L 427.807095 154.161095 
L 428.391337 156.997517 
L 428.912696 159.833939 
L 429.369326 162.670361 
L 429.75985 165.506784 
L 430.083414 168.343206 
L 430.339735 171.179628 
L 430.529134 174.016051 
L 430.652567 176.852473 
L 430.711641 179.688895 
L 430.708615 182.525318 
L 430.646393 185.36174 
L 430.528495 188.198162 
L 430.359024 191.034585 
L 430.14261 193.871007 
L 429.884347 196.707429 
L 429.589714 199.543851 
L 429.264493 202.380274 
L 428.914671 205.216696 
L 428.546344 208.053118 
L 428.165609 210.889541 
L 427.778464 213.725963 
L 427.390704 216.562385 
L 427.007826 219.398808 
L 426.634934 222.23523 
L 426.276663 225.071652 
L 425.937104 227.908075 
L 425.619749 230.744497 
L 425.327444 233.580919 
L 425.062362 236.417341 
L 424.825986 239.253764 
L 424.619111 242.090186 
L 424.441856 244.926608 
L 424.293692 247.763031 
L 424.173479 250.599453 
L 424.07952 253.435875 
L 424.009612 256.272298 
L 423.961115 259.10872 
L 423.931019 261.945142 
L 423.916009 264.781565 
L 423.912544 267.617987 
L 423.916917 270.454409 
L 423.925325 273.290831 
L 423.933928 276.127254 
L 423.938898 278.963676 
L 423.936474 281.800098 
L 423.922993 284.636521 
L 423.894926 287.472943 
L 423.848902 290.309365 
L 423.781724 293.145788 
L 423.69038 295.98221 
L 423.572051 298.818632 
L 423.424109 301.655055 
L 423.244118 304.491477 
L 423.02983 307.327899 
L 422.779181 310.164321 
L 422.490291 313.000744 
L 422.161457 315.837166 
L 421.791157 318.673588 
L 421.378055 321.510011 
L 420.921003 324.346433 
L 420.419057 327.182855 
L 419.871488 330.019278 
L 419.277797 332.8557 
L 418.637736 335.692122 
L 417.951327 338.528545 
L 417.218883 341.364967 
L 416.441026 344.201389 
L 415.618707 347.037811 
L 414.753222 349.874234 
L 413.846219 352.710656 
L 412.899713 355.547078 
L 411.916076 358.383501 
L 410.898042 361.219923 
L 409.84869 364.056345 
L 408.771423 366.892768 
L 407.669947 369.72919 
L 406.548237 372.565612 
L 405.410496 375.402035 
L 404.261115 378.238457 
L 403.10462 381.074879 
L 401.945624 383.911301 
L 400.78877 386.747724 
L 399.638675 389.584146 
L 398.499877 392.420568 
L 397.376779 395.256991 
L 396.273598 398.093413 
L 395.194316 400.929835 
L 394.142637 403.766258 
L 393.12195 406.60268 
L 392.135296 409.439102 
L 391.185343 412.275525 
L 390.274368 415.111947 
L 389.404246 417.948369 
L 388.576444 420.784791 
L 387.792025 423.621214 
L 387.051657 426.457636 
L 386.355625 429.294058 
L 385.703853 432.130481 
L 385.095927 434.966903 
L 384.531124 437.803325 
L 384.008439 440.639748 
L 383.526624 443.47617 
L 383.084214 446.312592 
L 382.679569 449.149015 
L 382.310902 451.985437 
L 381.976317 454.821859 
L 381.673838 457.658281 
L 381.40144 460.494704 
L 381.157077 463.331126 
L 380.938706 466.167548 
L 380.744313 469.003971 
L 380.571927 471.840393 
L 380.419643 474.676815 
L 380.285629 477.513238 
L 380.168144 480.34966 
L 380.065542 483.186082 
L 379.976276 486.022505 
L 379.89891 488.858927 
L 379.83211 491.695349 
L 379.774652 494.531771 
L 379.725417 497.368194 
L 379.683387 500.204616 
L 379.647642 503.041038 
L 379.617358 505.877461 
L 379.591797 508.713883 
L 379.570304 511.550305 
z
" clip-path="url(#pcf120ecdfd)" style="fill: #1f77b4; fill-opacity: 0.25; stroke: #1f77b4"/>
   </g>
   <g id="matplotlib.axis_5">
    <g id="xtick_11"/>
    <g id="xtick_12"/>
   </g>
   <g id="matplotlib.axis_6">
    <g id="ytick_11">
     <g id="line2d_19">
      <g>
       <use xlink:href="#md7e018c555" x="379.469464" y="349.604727" style="stroke: #000000; stroke-width: 0.8"/>
      </g>
     </g>
    </g>
    <g id="ytick_12">
     <g id="line2d_20">
      <g>
       <use xlink:href="#md7e018c555" x="379.469464" y="312.017714" style="stroke: #000000; stroke-width: 0.8"/>
      </g>
     </g>
    </g>
    <g id="ytick_13">
     <g id="line2d_21">
      <g>
       <use xlink:href="#md7e018c555" x="379.469464" y="274.430701" style="stroke: #000000; stroke-width: 0.8"/>
      </g>
     </g>
    </g>
    <g id="ytick_14">
     <g id="line2d_22">
      <g>
       <use xlink:href="#md7e018c555" x="379.469464" y="236.843688" style="stroke: #000000; stroke-width: 0.8"/>
      </g>
     </g>
    </g>
    <g id="ytick_15">
     <g id="line2d_23">
      <g>
       <use xlink:href="#md7e018c555" x="379.469464" y="199.256675" style="stroke: #000000; stroke-width: 0.8"/>
      </g>
     </g>
    </g>
    <g id="ytick_16">
     <g id="line2d_24">
      <g>
       <use xlink:href="#md7e018c555" x="379.469464" y="161.669662" style="stroke: #000000; stroke-width: 0.8"/>
      </g>
     </g>
    </g>
    <g id="ytick_17">
     <g id="line2d_25">
      <g>
       <use xlink:href="#md7e018c555" x="379.469464" y="124.082649" style="stroke: #000000; stroke-width: 0.8"/>
      </g>
     </g>
    </g>
    <g id="ytick_18">
     <g id="line2d_26">
      <g>
       <use xlink:href="#md7e018c555" x="379.469464" y="86.495636" style="stroke: #000000; stroke-width: 0.8"/>
      </g>
     </g>
    </g>
   </g>
   <g id="patch_8">
    <path d="M 379.469464 386.44 
L 379.469464 72.212571 
" style="fill: none; stroke: #000000; stroke-width: 0.8; stroke-linejoin: miter; stroke-linecap: square"/>
   </g>
  </g>
 </g>
 <defs>
  <clipPath id="p68d8cb3af9">
   <rect x="56.64375" y="72.212571" width="312.064857" height="314.227429"/>
  </clipPath>
  <clipPath id="pa877fc2834">
   <rect x="56.64375" y="7.2" width="312.064857" height="54.177143"/>
  </clipPath>
  <clipPath id="pcf120ecdfd">
   <rect x="379.469464" y="72.212571" width="53.804286" height="314.227429"/>
  </clipPath>
 </defs>
</svg>
