<?xml version="1.0" encoding="utf-8" standalone="no"?>
<!DOCTYPE svg PUBLIC "-//W3C//DTD SVG 1.1//EN"
  "http://www.w3.org/Graphics/SVG/1.1/DTD/svg11.dtd">
<svg xmlns:xlink="http://www.w3.org/1999/xlink" width="445.312812pt" height="443.3525pt" viewBox="0 0 445.312812 443.3525" xmlns="http://www.w3.org/2000/svg" version="1.1">
 <metadata>
  <rdf:RDF xmlns:dc="http://purl.org/dc/elements/1.1/" xmlns:cc="http://creativecommons.org/ns#" xmlns:rdf="http://www.w3.org/1999/02/22-rdf-syntax-ns#">
   <cc:Work>
    <dc:type rdf:resource="http://purl.org/dc/dcmitype/StillImage"/>
    <dc:date>2022-12-09T16:27:03.199513</dc:date>
    <dc:format>image/svg+xml</dc:format>
    <dc:creator>
     <cc:Agent>
      <dc:title>Matplotlib v3.6.2, https://matplotlib.org/</dc:title>
     </cc:Agent>
    </dc:creator>
   </cc:Work>
  </rdf:RDF>
 </metadata>
 <defs>
  <style type="text/css">*{stroke-linejoin: round; stroke-linecap: butt}</style>
 </defs>
 <g id="figure_1">
  <g id="patch_1">
   <path d="M 0 443.3525 
L 445.312812 443.3525 
L 445.312812 0 
L 0 0 
z
" style="fill: #ffffff"/>
  </g>
  <g id="axes_1">
   <g id="patch_2">
    <path d="M 61.482813 386.44 
L 373.54767 386.44 
L 373.54767 72.212571 
L 61.482813 72.212571 
z
" style="fill: #ffffff"/>
   </g>
   <g id="PathCollection_1">
    <defs>
     <path id="m7eb27c4111" d="M 0 5 
C 1.326016 5 2.597899 4.473168 3.535534 3.535534 
C 4.473168 2.597899 5 1.326016 5 0 
C 5 -1.326016 4.473168 -2.597899 3.535534 -3.535534 
C 2.597899 -4.473168 1.326016 -5 0 -5 
C -1.326016 -5 -2.597899 -4.473168 -3.535534 -3.535534 
C -4.473168 -2.597899 -5 -1.326016 -5 0 
C -5 1.326016 -4.473168 2.597899 -3.535534 3.535534 
C -2.597899 4.473168 -1.326016 5 0 5 
z
" style="stroke: #ffffff; stroke-opacity: 0.5; stroke-width: 0.8"/>
    </defs>
    <g clip-path="url(#pca2a6ea0a1)">
     <use xlink:href="#m7eb27c4111" x="79.644616" y="191.739273" style="fill: #1f77b4; fill-opacity: 0.5; stroke: #ffffff; stroke-opacity: 0.5; stroke-width: 0.8"/>
     <use xlink:href="#m7eb27c4111" x="87.598691" y="199.256675" style="fill: #1f77b4; fill-opacity: 0.5; stroke: #ffffff; stroke-opacity: 0.5; stroke-width: 0.8"/>
     <use xlink:href="#m7eb27c4111" x="80.970295" y="214.291481" style="fill: #1f77b4; fill-opacity: 0.5; stroke: #ffffff; stroke-opacity: 0.5; stroke-width: 0.8"/>
     <use xlink:href="#m7eb27c4111" x="111.460914" y="131.600052" style="fill: #1f77b4; fill-opacity: 0.5; stroke: #ffffff; stroke-opacity: 0.5; stroke-width: 0.8"/>
     <use xlink:href="#m7eb27c4111" x="75.667579" y="349.604727" style="fill: #1f77b4; fill-opacity: 0.5; stroke: #ffffff; stroke-opacity: 0.5; stroke-width: 0.8"/>
     <use xlink:href="#m7eb27c4111" x="217.515241" y="94.013039" style="fill: #1f77b4; fill-opacity: 0.5; stroke: #ffffff; stroke-opacity: 0.5; stroke-width: 0.8"/>
     <use xlink:href="#m7eb27c4111" x="79.644616" y="229.326286" style="fill: #1f77b4; fill-opacity: 0.5; stroke: #ffffff; stroke-opacity: 0.5; stroke-width: 0.8"/>
     <use xlink:href="#m7eb27c4111" x="111.460914" y="131.600052" style="fill: #1f77b4; fill-opacity: 0.5; stroke: #ffffff; stroke-opacity: 0.5; stroke-width: 0.8"/>
     <use xlink:href="#m7eb27c4111" x="75.667579" y="372.156935" style="fill: #1f77b4; fill-opacity: 0.5; stroke: #ffffff; stroke-opacity: 0.5; stroke-width: 0.8"/>
     <use xlink:href="#m7eb27c4111" x="75.667579" y="206.774078" style="fill: #1f77b4; fill-opacity: 0.5; stroke: #ffffff; stroke-opacity: 0.5; stroke-width: 0.8"/>
     <use xlink:href="#m7eb27c4111" x="75.667579" y="304.500312" style="fill: #1f77b4; fill-opacity: 0.5; stroke: #ffffff; stroke-opacity: 0.5; stroke-width: 0.8"/>
     <use xlink:href="#m7eb27c4111" x="76.993258" y="289.465506" style="fill: #1f77b4; fill-opacity: 0.5; stroke: #ffffff; stroke-opacity: 0.5; stroke-width: 0.8"/>
     <use xlink:href="#m7eb27c4111" x="137.974496" y="214.291481" style="fill: #1f77b4; fill-opacity: 0.5; stroke: #ffffff; stroke-opacity: 0.5; stroke-width: 0.8"/>
     <use xlink:href="#m7eb27c4111" x="75.667579" y="296.982909" style="fill: #1f77b4; fill-opacity: 0.5; stroke: #ffffff; stroke-opacity: 0.5; stroke-width: 0.8"/>
     <use xlink:href="#m7eb27c4111" x="78.318937" y="229.326286" style="fill: #1f77b4; fill-opacity: 0.5; stroke: #ffffff; stroke-opacity: 0.5; stroke-width: 0.8"/>
     <use xlink:href="#m7eb27c4111" x="76.993258" y="281.948104" style="fill: #1f77b4; fill-opacity: 0.5; stroke: #ffffff; stroke-opacity: 0.5; stroke-width: 0.8"/>
     <use xlink:href="#m7eb27c4111" x="75.667579" y="349.604727" style="fill: #1f77b4; fill-opacity: 0.5; stroke: #ffffff; stroke-opacity: 0.5; stroke-width: 0.8"/>
     <use xlink:href="#m7eb27c4111" x="76.993258" y="327.052519" style="fill: #1f77b4; fill-opacity: 0.5; stroke: #ffffff; stroke-opacity: 0.5; stroke-width: 0.8"/>
     <use xlink:href="#m7eb27c4111" x="75.667579" y="349.604727" style="fill: #1f77b4; fill-opacity: 0.5; stroke: #ffffff; stroke-opacity: 0.5; stroke-width: 0.8"/>
     <use xlink:href="#m7eb27c4111" x="79.644616" y="244.361091" style="fill: #1f77b4; fill-opacity: 0.5; stroke: #ffffff; stroke-opacity: 0.5; stroke-width: 0.8"/>
     <use xlink:href="#m7eb27c4111" x="76.993258" y="319.535117" style="fill: #1f77b4; fill-opacity: 0.5; stroke: #ffffff; stroke-opacity: 0.5; stroke-width: 0.8"/>
     <use xlink:href="#m7eb27c4111" x="359.362903" y="86.495636" style="fill: #1f77b4; fill-opacity: 0.5; stroke: #ffffff; stroke-opacity: 0.5; stroke-width: 0.8"/>
     <use xlink:href="#m7eb27c4111" x="75.667579" y="327.052519" style="fill: #1f77b4; fill-opacity: 0.5; stroke: #ffffff; stroke-opacity: 0.5; stroke-width: 0.8"/>
    </g>
   </g>
   <g id="matplotlib.axis_1">
    <g id="xtick_1">
     <g id="line2d_1">
      <defs>
       <path id="m50d8d74b05" d="M 0 0 
L 0 3.5 
" style="stroke: #000000; stroke-width: 0.8"/>
      </defs>
      <g>
       <use xlink:href="#m50d8d74b05" x="74.3419" y="386.44" style="stroke: #000000; stroke-width: 0.8"/>
      </g>
     </g>
     <g id="text_1">
      <!-- 0 -->
      <g transform="translate(69.570025 404.837656) scale(0.15 -0.15)">
       <defs>
        <path id="DejaVuSans-30" d="M 2034 4250 
Q 1547 4250 1301 3770 
Q 1056 3291 1056 2328 
Q 1056 1369 1301 889 
Q 1547 409 2034 409 
Q 2525 409 2770 889 
Q 3016 1369 3016 2328 
Q 3016 3291 2770 3770 
Q 2525 4250 2034 4250 
z
M 2034 4750 
Q 2819 4750 3233 4129 
Q 3647 3509 3647 2328 
Q 3647 1150 3233 529 
Q 2819 -91 2034 -91 
Q 1250 -91 836 529 
Q 422 1150 422 2328 
Q 422 3509 836 4129 
Q 1250 4750 2034 4750 
z
" transform="scale(0.015625)"/>
       </defs>
       <use xlink:href="#DejaVuSans-30"/>
      </g>
     </g>
    </g>
    <g id="xtick_2">
     <g id="line2d_2">
      <g>
       <use xlink:href="#m50d8d74b05" x="140.625854" y="386.44" style="stroke: #000000; stroke-width: 0.8"/>
      </g>
     </g>
     <g id="text_2">
      <!-- 50 -->
      <g transform="translate(131.082104 404.837656) scale(0.15 -0.15)">
       <defs>
        <path id="DejaVuSans-35" d="M 691 4666 
L 3169 4666 
L 3169 4134 
L 1269 4134 
L 1269 2991 
Q 1406 3038 1543 3061 
Q 1681 3084 1819 3084 
Q 2600 3084 3056 2656 
Q 3513 2228 3513 1497 
Q 3513 744 3044 326 
Q 2575 -91 1722 -91 
Q 1428 -91 1123 -41 
Q 819 9 494 109 
L 494 744 
Q 775 591 1075 516 
Q 1375 441 1709 441 
Q 2250 441 2565 725 
Q 2881 1009 2881 1497 
Q 2881 1984 2565 2268 
Q 2250 2553 1709 2553 
Q 1456 2553 1204 2497 
Q 953 2441 691 2322 
L 691 4666 
z
" transform="scale(0.015625)"/>
       </defs>
       <use xlink:href="#DejaVuSans-35"/>
       <use xlink:href="#DejaVuSans-30" x="63.623047"/>
      </g>
     </g>
    </g>
    <g id="xtick_3">
     <g id="line2d_3">
      <g>
       <use xlink:href="#m50d8d74b05" x="206.909808" y="386.44" style="stroke: #000000; stroke-width: 0.8"/>
      </g>
     </g>
     <g id="text_3">
      <!-- 100 -->
      <g transform="translate(192.594183 404.837656) scale(0.15 -0.15)">
       <defs>
        <path id="DejaVuSans-31" d="M 794 531 
L 1825 531 
L 1825 4091 
L 703 3866 
L 703 4441 
L 1819 4666 
L 2450 4666 
L 2450 531 
L 3481 531 
L 3481 0 
L 794 0 
L 794 531 
z
" transform="scale(0.015625)"/>
       </defs>
       <use xlink:href="#DejaVuSans-31"/>
       <use xlink:href="#DejaVuSans-30" x="63.623047"/>
       <use xlink:href="#DejaVuSans-30" x="127.246094"/>
      </g>
     </g>
    </g>
    <g id="xtick_4">
     <g id="line2d_4">
      <g>
       <use xlink:href="#m50d8d74b05" x="273.193763" y="386.44" style="stroke: #000000; stroke-width: 0.8"/>
      </g>
     </g>
     <g id="text_4">
      <!-- 150 -->
      <g transform="translate(258.878138 404.837656) scale(0.15 -0.15)">
       <use xlink:href="#DejaVuSans-31"/>
       <use xlink:href="#DejaVuSans-35" x="63.623047"/>
       <use xlink:href="#DejaVuSans-30" x="127.246094"/>
      </g>
     </g>
    </g>
    <g id="xtick_5">
     <g id="line2d_5">
      <g>
       <use xlink:href="#m50d8d74b05" x="339.477717" y="386.44" style="stroke: #000000; stroke-width: 0.8"/>
      </g>
     </g>
     <g id="text_5">
      <!-- 200 -->
      <g transform="translate(325.162092 404.837656) scale(0.15 -0.15)">
       <defs>
        <path id="DejaVuSans-32" d="M 1228 531 
L 3431 531 
L 3431 0 
L 469 0 
L 469 531 
Q 828 903 1448 1529 
Q 2069 2156 2228 2338 
Q 2531 2678 2651 2914 
Q 2772 3150 2772 3378 
Q 2772 3750 2511 3984 
Q 2250 4219 1831 4219 
Q 1534 4219 1204 4116 
Q 875 4013 500 3803 
L 500 4441 
Q 881 4594 1212 4672 
Q 1544 4750 1819 4750 
Q 2544 4750 2975 4387 
Q 3406 4025 3406 3419 
Q 3406 3131 3298 2873 
Q 3191 2616 2906 2266 
Q 2828 2175 2409 1742 
Q 1991 1309 1228 531 
z
" transform="scale(0.015625)"/>
       </defs>
       <use xlink:href="#DejaVuSans-32"/>
       <use xlink:href="#DejaVuSans-30" x="63.623047"/>
       <use xlink:href="#DejaVuSans-30" x="127.246094"/>
      </g>
     </g>
    </g>
    <g id="text_6">
     <!-- # Commits -->
     <g transform="translate(147.454694 430.953281) scale(0.25 -0.25)">
      <defs>
       <path id="DejaVuSans-23" d="M 3272 2816 
L 2363 2816 
L 2100 1772 
L 3016 1772 
L 3272 2816 
z
M 2803 4594 
L 2478 3297 
L 3391 3297 
L 3719 4594 
L 4219 4594 
L 3897 3297 
L 4872 3297 
L 4872 2816 
L 3775 2816 
L 3519 1772 
L 4513 1772 
L 4513 1294 
L 3397 1294 
L 3072 0 
L 2572 0 
L 2894 1294 
L 1978 1294 
L 1656 0 
L 1153 0 
L 1478 1294 
L 494 1294 
L 494 1772 
L 1594 1772 
L 1856 2816 
L 850 2816 
L 850 3297 
L 1978 3297 
L 2297 4594 
L 2803 4594 
z
" transform="scale(0.015625)"/>
       <path id="DejaVuSans-20" transform="scale(0.015625)"/>
       <path id="DejaVuSans-43" d="M 4122 4306 
L 4122 3641 
Q 3803 3938 3442 4084 
Q 3081 4231 2675 4231 
Q 1875 4231 1450 3742 
Q 1025 3253 1025 2328 
Q 1025 1406 1450 917 
Q 1875 428 2675 428 
Q 3081 428 3442 575 
Q 3803 722 4122 1019 
L 4122 359 
Q 3791 134 3420 21 
Q 3050 -91 2638 -91 
Q 1578 -91 968 557 
Q 359 1206 359 2328 
Q 359 3453 968 4101 
Q 1578 4750 2638 4750 
Q 3056 4750 3426 4639 
Q 3797 4528 4122 4306 
z
" transform="scale(0.015625)"/>
       <path id="DejaVuSans-6f" d="M 1959 3097 
Q 1497 3097 1228 2736 
Q 959 2375 959 1747 
Q 959 1119 1226 758 
Q 1494 397 1959 397 
Q 2419 397 2687 759 
Q 2956 1122 2956 1747 
Q 2956 2369 2687 2733 
Q 2419 3097 1959 3097 
z
M 1959 3584 
Q 2709 3584 3137 3096 
Q 3566 2609 3566 1747 
Q 3566 888 3137 398 
Q 2709 -91 1959 -91 
Q 1206 -91 779 398 
Q 353 888 353 1747 
Q 353 2609 779 3096 
Q 1206 3584 1959 3584 
z
" transform="scale(0.015625)"/>
       <path id="DejaVuSans-6d" d="M 3328 2828 
Q 3544 3216 3844 3400 
Q 4144 3584 4550 3584 
Q 5097 3584 5394 3201 
Q 5691 2819 5691 2113 
L 5691 0 
L 5113 0 
L 5113 2094 
Q 5113 2597 4934 2840 
Q 4756 3084 4391 3084 
Q 3944 3084 3684 2787 
Q 3425 2491 3425 1978 
L 3425 0 
L 2847 0 
L 2847 2094 
Q 2847 2600 2669 2842 
Q 2491 3084 2119 3084 
Q 1678 3084 1418 2786 
Q 1159 2488 1159 1978 
L 1159 0 
L 581 0 
L 581 3500 
L 1159 3500 
L 1159 2956 
Q 1356 3278 1631 3431 
Q 1906 3584 2284 3584 
Q 2666 3584 2933 3390 
Q 3200 3197 3328 2828 
z
" transform="scale(0.015625)"/>
       <path id="DejaVuSans-69" d="M 603 3500 
L 1178 3500 
L 1178 0 
L 603 0 
L 603 3500 
z
M 603 4863 
L 1178 4863 
L 1178 4134 
L 603 4134 
L 603 4863 
z
" transform="scale(0.015625)"/>
       <path id="DejaVuSans-74" d="M 1172 4494 
L 1172 3500 
L 2356 3500 
L 2356 3053 
L 1172 3053 
L 1172 1153 
Q 1172 725 1289 603 
Q 1406 481 1766 481 
L 2356 481 
L 2356 0 
L 1766 0 
Q 1100 0 847 248 
Q 594 497 594 1153 
L 594 3053 
L 172 3053 
L 172 3500 
L 594 3500 
L 594 4494 
L 1172 4494 
z
" transform="scale(0.015625)"/>
       <path id="DejaVuSans-73" d="M 2834 3397 
L 2834 2853 
Q 2591 2978 2328 3040 
Q 2066 3103 1784 3103 
Q 1356 3103 1142 2972 
Q 928 2841 928 2578 
Q 928 2378 1081 2264 
Q 1234 2150 1697 2047 
L 1894 2003 
Q 2506 1872 2764 1633 
Q 3022 1394 3022 966 
Q 3022 478 2636 193 
Q 2250 -91 1575 -91 
Q 1294 -91 989 -36 
Q 684 19 347 128 
L 347 722 
Q 666 556 975 473 
Q 1284 391 1588 391 
Q 1994 391 2212 530 
Q 2431 669 2431 922 
Q 2431 1156 2273 1281 
Q 2116 1406 1581 1522 
L 1381 1569 
Q 847 1681 609 1914 
Q 372 2147 372 2553 
Q 372 3047 722 3315 
Q 1072 3584 1716 3584 
Q 2034 3584 2315 3537 
Q 2597 3491 2834 3397 
z
" transform="scale(0.015625)"/>
      </defs>
      <use xlink:href="#DejaVuSans-23"/>
      <use xlink:href="#DejaVuSans-20" x="83.789062"/>
      <use xlink:href="#DejaVuSans-43" x="115.576172"/>
      <use xlink:href="#DejaVuSans-6f" x="185.400391"/>
      <use xlink:href="#DejaVuSans-6d" x="246.582031"/>
      <use xlink:href="#DejaVuSans-6d" x="343.994141"/>
      <use xlink:href="#DejaVuSans-69" x="441.40625"/>
      <use xlink:href="#DejaVuSans-74" x="469.189453"/>
      <use xlink:href="#DejaVuSans-73" x="508.398438"/>
     </g>
    </g>
   </g>
   <g id="matplotlib.axis_2">
    <g id="ytick_1">
     <g id="line2d_6">
      <defs>
       <path id="mc33705fef1" d="M 0 0 
L -3.5 0 
" style="stroke: #000000; stroke-width: 0.8"/>
      </defs>
      <g>
       <use xlink:href="#mc33705fef1" x="61.482813" y="379.674338" style="stroke: #000000; stroke-width: 0.8"/>
      </g>
     </g>
     <g id="text_7">
      <!-- 0 -->
      <g transform="translate(44.939063 385.373166) scale(0.15 -0.15)">
       <use xlink:href="#DejaVuSans-30"/>
      </g>
     </g>
    </g>
    <g id="ytick_2">
     <g id="line2d_7">
      <g>
       <use xlink:href="#mc33705fef1" x="61.482813" y="342.087325" style="stroke: #000000; stroke-width: 0.8"/>
      </g>
     </g>
     <g id="text_8">
      <!-- 5 -->
      <g transform="translate(44.939063 347.786153) scale(0.15 -0.15)">
       <use xlink:href="#DejaVuSans-35"/>
      </g>
     </g>
    </g>
    <g id="ytick_3">
     <g id="line2d_8">
      <g>
       <use xlink:href="#mc33705fef1" x="61.482813" y="304.500312" style="stroke: #000000; stroke-width: 0.8"/>
      </g>
     </g>
     <g id="text_9">
      <!-- 10 -->
      <g transform="translate(35.395313 310.19914) scale(0.15 -0.15)">
       <use xlink:href="#DejaVuSans-31"/>
       <use xlink:href="#DejaVuSans-30" x="63.623047"/>
      </g>
     </g>
    </g>
    <g id="ytick_4">
     <g id="line2d_9">
      <g>
       <use xlink:href="#mc33705fef1" x="61.482813" y="266.913299" style="stroke: #000000; stroke-width: 0.8"/>
      </g>
     </g>
     <g id="text_10">
      <!-- 15 -->
      <g transform="translate(35.395313 272.612127) scale(0.15 -0.15)">
       <use xlink:href="#DejaVuSans-31"/>
       <use xlink:href="#DejaVuSans-35" x="63.623047"/>
      </g>
     </g>
    </g>
    <g id="ytick_5">
     <g id="line2d_10">
      <g>
       <use xlink:href="#mc33705fef1" x="61.482813" y="229.326286" style="stroke: #000000; stroke-width: 0.8"/>
      </g>
     </g>
     <g id="text_11">
      <!-- 20 -->
      <g transform="translate(35.395313 235.025114) scale(0.15 -0.15)">
       <use xlink:href="#DejaVuSans-32"/>
       <use xlink:href="#DejaVuSans-30" x="63.623047"/>
      </g>
     </g>
    </g>
    <g id="ytick_6">
     <g id="line2d_11">
      <g>
       <use xlink:href="#mc33705fef1" x="61.482813" y="191.739273" style="stroke: #000000; stroke-width: 0.8"/>
      </g>
     </g>
     <g id="text_12">
      <!-- 25 -->
      <g transform="translate(35.395313 197.438101) scale(0.15 -0.15)">
       <use xlink:href="#DejaVuSans-32"/>
       <use xlink:href="#DejaVuSans-35" x="63.623047"/>
      </g>
     </g>
    </g>
    <g id="ytick_7">
     <g id="line2d_12">
      <g>
       <use xlink:href="#mc33705fef1" x="61.482813" y="154.15226" style="stroke: #000000; stroke-width: 0.8"/>
      </g>
     </g>
     <g id="text_13">
      <!-- 30 -->
      <g transform="translate(35.395313 159.851088) scale(0.15 -0.15)">
       <defs>
        <path id="DejaVuSans-33" d="M 2597 2516 
Q 3050 2419 3304 2112 
Q 3559 1806 3559 1356 
Q 3559 666 3084 287 
Q 2609 -91 1734 -91 
Q 1441 -91 1130 -33 
Q 819 25 488 141 
L 488 750 
Q 750 597 1062 519 
Q 1375 441 1716 441 
Q 2309 441 2620 675 
Q 2931 909 2931 1356 
Q 2931 1769 2642 2001 
Q 2353 2234 1838 2234 
L 1294 2234 
L 1294 2753 
L 1863 2753 
Q 2328 2753 2575 2939 
Q 2822 3125 2822 3475 
Q 2822 3834 2567 4026 
Q 2313 4219 1838 4219 
Q 1578 4219 1281 4162 
Q 984 4106 628 3988 
L 628 4550 
Q 988 4650 1302 4700 
Q 1616 4750 1894 4750 
Q 2613 4750 3031 4423 
Q 3450 4097 3450 3541 
Q 3450 3153 3228 2886 
Q 3006 2619 2597 2516 
z
" transform="scale(0.015625)"/>
       </defs>
       <use xlink:href="#DejaVuSans-33"/>
       <use xlink:href="#DejaVuSans-30" x="63.623047"/>
      </g>
     </g>
    </g>
    <g id="ytick_8">
     <g id="line2d_13">
      <g>
       <use xlink:href="#mc33705fef1" x="61.482813" y="116.565247" style="stroke: #000000; stroke-width: 0.8"/>
      </g>
     </g>
     <g id="text_14">
      <!-- 35 -->
      <g transform="translate(35.395313 122.264075) scale(0.15 -0.15)">
       <use xlink:href="#DejaVuSans-33"/>
       <use xlink:href="#DejaVuSans-35" x="63.623047"/>
      </g>
     </g>
    </g>
    <g id="ytick_9">
     <g id="line2d_14">
      <g>
       <use xlink:href="#mc33705fef1" x="61.482813" y="78.978234" style="stroke: #000000; stroke-width: 0.8"/>
      </g>
     </g>
     <g id="text_15">
      <!-- 40 -->
      <g transform="translate(35.395313 84.677062) scale(0.15 -0.15)">
       <defs>
        <path id="DejaVuSans-34" d="M 2419 4116 
L 825 1625 
L 2419 1625 
L 2419 4116 
z
M 2253 4666 
L 3047 4666 
L 3047 1625 
L 3713 1625 
L 3713 1100 
L 3047 1100 
L 3047 0 
L 2419 0 
L 2419 1100 
L 313 1100 
L 313 1709 
L 2253 4666 
z
" transform="scale(0.015625)"/>
       </defs>
       <use xlink:href="#DejaVuSans-34"/>
       <use xlink:href="#DejaVuSans-30" x="63.623047"/>
      </g>
     </g>
    </g>
    <g id="text_16">
     <!-- # Interacting authors -->
     <g transform="translate(26.196094 363.552848) rotate(-90) scale(0.25 -0.25)">
      <defs>
       <path id="DejaVuSans-49" d="M 628 4666 
L 1259 4666 
L 1259 0 
L 628 0 
L 628 4666 
z
" transform="scale(0.015625)"/>
       <path id="DejaVuSans-6e" d="M 3513 2113 
L 3513 0 
L 2938 0 
L 2938 2094 
Q 2938 2591 2744 2837 
Q 2550 3084 2163 3084 
Q 1697 3084 1428 2787 
Q 1159 2491 1159 1978 
L 1159 0 
L 581 0 
L 581 3500 
L 1159 3500 
L 1159 2956 
Q 1366 3272 1645 3428 
Q 1925 3584 2291 3584 
Q 2894 3584 3203 3211 
Q 3513 2838 3513 2113 
z
" transform="scale(0.015625)"/>
       <path id="DejaVuSans-65" d="M 3597 1894 
L 3597 1613 
L 953 1613 
Q 991 1019 1311 708 
Q 1631 397 2203 397 
Q 2534 397 2845 478 
Q 3156 559 3463 722 
L 3463 178 
Q 3153 47 2828 -22 
Q 2503 -91 2169 -91 
Q 1331 -91 842 396 
Q 353 884 353 1716 
Q 353 2575 817 3079 
Q 1281 3584 2069 3584 
Q 2775 3584 3186 3129 
Q 3597 2675 3597 1894 
z
M 3022 2063 
Q 3016 2534 2758 2815 
Q 2500 3097 2075 3097 
Q 1594 3097 1305 2825 
Q 1016 2553 972 2059 
L 3022 2063 
z
" transform="scale(0.015625)"/>
       <path id="DejaVuSans-72" d="M 2631 2963 
Q 2534 3019 2420 3045 
Q 2306 3072 2169 3072 
Q 1681 3072 1420 2755 
Q 1159 2438 1159 1844 
L 1159 0 
L 581 0 
L 581 3500 
L 1159 3500 
L 1159 2956 
Q 1341 3275 1631 3429 
Q 1922 3584 2338 3584 
Q 2397 3584 2469 3576 
Q 2541 3569 2628 3553 
L 2631 2963 
z
" transform="scale(0.015625)"/>
       <path id="DejaVuSans-61" d="M 2194 1759 
Q 1497 1759 1228 1600 
Q 959 1441 959 1056 
Q 959 750 1161 570 
Q 1363 391 1709 391 
Q 2188 391 2477 730 
Q 2766 1069 2766 1631 
L 2766 1759 
L 2194 1759 
z
M 3341 1997 
L 3341 0 
L 2766 0 
L 2766 531 
Q 2569 213 2275 61 
Q 1981 -91 1556 -91 
Q 1019 -91 701 211 
Q 384 513 384 1019 
Q 384 1609 779 1909 
Q 1175 2209 1959 2209 
L 2766 2209 
L 2766 2266 
Q 2766 2663 2505 2880 
Q 2244 3097 1772 3097 
Q 1472 3097 1187 3025 
Q 903 2953 641 2809 
L 641 3341 
Q 956 3463 1253 3523 
Q 1550 3584 1831 3584 
Q 2591 3584 2966 3190 
Q 3341 2797 3341 1997 
z
" transform="scale(0.015625)"/>
       <path id="DejaVuSans-63" d="M 3122 3366 
L 3122 2828 
Q 2878 2963 2633 3030 
Q 2388 3097 2138 3097 
Q 1578 3097 1268 2742 
Q 959 2388 959 1747 
Q 959 1106 1268 751 
Q 1578 397 2138 397 
Q 2388 397 2633 464 
Q 2878 531 3122 666 
L 3122 134 
Q 2881 22 2623 -34 
Q 2366 -91 2075 -91 
Q 1284 -91 818 406 
Q 353 903 353 1747 
Q 353 2603 823 3093 
Q 1294 3584 2113 3584 
Q 2378 3584 2631 3529 
Q 2884 3475 3122 3366 
z
" transform="scale(0.015625)"/>
       <path id="DejaVuSans-67" d="M 2906 1791 
Q 2906 2416 2648 2759 
Q 2391 3103 1925 3103 
Q 1463 3103 1205 2759 
Q 947 2416 947 1791 
Q 947 1169 1205 825 
Q 1463 481 1925 481 
Q 2391 481 2648 825 
Q 2906 1169 2906 1791 
z
M 3481 434 
Q 3481 -459 3084 -895 
Q 2688 -1331 1869 -1331 
Q 1566 -1331 1297 -1286 
Q 1028 -1241 775 -1147 
L 775 -588 
Q 1028 -725 1275 -790 
Q 1522 -856 1778 -856 
Q 2344 -856 2625 -561 
Q 2906 -266 2906 331 
L 2906 616 
Q 2728 306 2450 153 
Q 2172 0 1784 0 
Q 1141 0 747 490 
Q 353 981 353 1791 
Q 353 2603 747 3093 
Q 1141 3584 1784 3584 
Q 2172 3584 2450 3431 
Q 2728 3278 2906 2969 
L 2906 3500 
L 3481 3500 
L 3481 434 
z
" transform="scale(0.015625)"/>
       <path id="DejaVuSans-75" d="M 544 1381 
L 544 3500 
L 1119 3500 
L 1119 1403 
Q 1119 906 1312 657 
Q 1506 409 1894 409 
Q 2359 409 2629 706 
Q 2900 1003 2900 1516 
L 2900 3500 
L 3475 3500 
L 3475 0 
L 2900 0 
L 2900 538 
Q 2691 219 2414 64 
Q 2138 -91 1772 -91 
Q 1169 -91 856 284 
Q 544 659 544 1381 
z
M 1991 3584 
L 1991 3584 
z
" transform="scale(0.015625)"/>
       <path id="DejaVuSans-68" d="M 3513 2113 
L 3513 0 
L 2938 0 
L 2938 2094 
Q 2938 2591 2744 2837 
Q 2550 3084 2163 3084 
Q 1697 3084 1428 2787 
Q 1159 2491 1159 1978 
L 1159 0 
L 581 0 
L 581 4863 
L 1159 4863 
L 1159 2956 
Q 1366 3272 1645 3428 
Q 1925 3584 2291 3584 
Q 2894 3584 3203 3211 
Q 3513 2838 3513 2113 
z
" transform="scale(0.015625)"/>
      </defs>
      <use xlink:href="#DejaVuSans-23"/>
      <use xlink:href="#DejaVuSans-20" x="83.789062"/>
      <use xlink:href="#DejaVuSans-49" x="115.576172"/>
      <use xlink:href="#DejaVuSans-6e" x="145.068359"/>
      <use xlink:href="#DejaVuSans-74" x="208.447266"/>
      <use xlink:href="#DejaVuSans-65" x="247.65625"/>
      <use xlink:href="#DejaVuSans-72" x="309.179688"/>
      <use xlink:href="#DejaVuSans-61" x="350.292969"/>
      <use xlink:href="#DejaVuSans-63" x="411.572266"/>
      <use xlink:href="#DejaVuSans-74" x="466.552734"/>
      <use xlink:href="#DejaVuSans-69" x="505.761719"/>
      <use xlink:href="#DejaVuSans-6e" x="533.544922"/>
      <use xlink:href="#DejaVuSans-67" x="596.923828"/>
      <use xlink:href="#DejaVuSans-20" x="660.400391"/>
      <use xlink:href="#DejaVuSans-61" x="692.1875"/>
      <use xlink:href="#DejaVuSans-75" x="753.466797"/>
      <use xlink:href="#DejaVuSans-74" x="816.845703"/>
      <use xlink:href="#DejaVuSans-68" x="856.054688"/>
      <use xlink:href="#DejaVuSans-6f" x="919.433594"/>
      <use xlink:href="#DejaVuSans-72" x="980.615234"/>
      <use xlink:href="#DejaVuSans-73" x="1021.728516"/>
     </g>
    </g>
   </g>
   <g id="patch_3">
    <path d="M 61.482813 386.44 
L 61.482813 72.212571 
" style="fill: none; stroke: #000000; stroke-width: 0.8; stroke-linejoin: miter; stroke-linecap: square"/>
   </g>
   <g id="patch_4">
    <path d="M 61.482813 386.44 
L 373.54767 386.44 
" style="fill: none; stroke: #000000; stroke-width: 0.8; stroke-linejoin: miter; stroke-linecap: square"/>
   </g>
  </g>
  <g id="axes_2">
   <g id="patch_5">
    <path d="M 61.482813 61.377143 
L 373.54767 61.377143 
L 373.54767 7.2 
L 61.482813 7.2 
z
" style="fill: #ffffff"/>
   </g>
   <g id="PolyCollection_1">
    <path d="M -27.847327 60.921525 
L -27.847327 61.377143 
L -25.381371 61.377143 
L -22.915416 61.377143 
L -20.449461 61.377143 
L -17.983505 61.377143 
L -15.51755 61.377143 
L -13.051594 61.377143 
L -10.585639 61.377143 
L -8.119683 61.377143 
L -5.653728 61.377143 
L -3.187772 61.377143 
L -0.721817 61.377143 
L 1.744139 61.377143 
L 4.210094 61.377143 
L 6.676049 61.377143 
L 9.142005 61.377143 
L 11.60796 61.377143 
L 14.073916 61.377143 
L 16.539871 61.377143 
L 19.005827 61.377143 
L 21.471782 61.377143 
L 23.937738 61.377143 
L 26.403693 61.377143 
L 28.869649 61.377143 
L 31.335604 61.377143 
L 33.801559 61.377143 
L 36.267515 61.377143 
L 38.73347 61.377143 
L 41.199426 61.377143 
L 43.665381 61.377143 
L 46.131337 61.377143 
L 48.597292 61.377143 
L 51.063248 61.377143 
L 53.529203 61.377143 
L 55.995159 61.377143 
L 58.461114 61.377143 
L 60.92707 61.377143 
L 63.393025 61.377143 
L 65.85898 61.377143 
L 68.324936 61.377143 
L 70.790891 61.377143 
L 73.256847 61.377143 
L 75.722802 61.377143 
L 78.188758 61.377143 
L 80.654713 61.377143 
L 83.120669 61.377143 
L 85.586624 61.377143 
L 88.05258 61.377143 
L 90.518535 61.377143 
L 92.98449 61.377143 
L 95.450446 61.377143 
L 97.916401 61.377143 
L 100.382357 61.377143 
L 102.848312 61.377143 
L 105.314268 61.377143 
L 107.780223 61.377143 
L 110.246179 61.377143 
L 112.712134 61.377143 
L 115.17809 61.377143 
L 117.644045 61.377143 
L 120.110001 61.377143 
L 122.575956 61.377143 
L 125.041911 61.377143 
L 127.507867 61.377143 
L 129.973822 61.377143 
L 132.439778 61.377143 
L 134.905733 61.377143 
L 137.371689 61.377143 
L 139.837644 61.377143 
L 142.3036 61.377143 
L 144.769555 61.377143 
L 147.235511 61.377143 
L 149.701466 61.377143 
L 152.167421 61.377143 
L 154.633377 61.377143 
L 157.099332 61.377143 
L 159.565288 61.377143 
L 162.031243 61.377143 
L 164.497199 61.377143 
L 166.963154 61.377143 
L 169.42911 61.377143 
L 171.895065 61.377143 
L 174.361021 61.377143 
L 176.826976 61.377143 
L 179.292931 61.377143 
L 181.758887 61.377143 
L 184.224842 61.377143 
L 186.690798 61.377143 
L 189.156753 61.377143 
L 191.622709 61.377143 
L 194.088664 61.377143 
L 196.55462 61.377143 
L 199.020575 61.377143 
L 201.486531 61.377143 
L 203.952486 61.377143 
L 206.418442 61.377143 
L 208.884397 61.377143 
L 211.350352 61.377143 
L 213.816308 61.377143 
L 216.282263 61.377143 
L 218.748219 61.377143 
L 221.214174 61.377143 
L 223.68013 61.377143 
L 226.146085 61.377143 
L 228.612041 61.377143 
L 231.077996 61.377143 
L 233.543952 61.377143 
L 236.009907 61.377143 
L 238.475862 61.377143 
L 240.941818 61.377143 
L 243.407773 61.377143 
L 245.873729 61.377143 
L 248.339684 61.377143 
L 250.80564 61.377143 
L 253.271595 61.377143 
L 255.737551 61.377143 
L 258.203506 61.377143 
L 260.669462 61.377143 
L 263.135417 61.377143 
L 265.601372 61.377143 
L 268.067328 61.377143 
L 270.533283 61.377143 
L 272.999239 61.377143 
L 275.465194 61.377143 
L 277.93115 61.377143 
L 280.397105 61.377143 
L 282.863061 61.377143 
L 285.329016 61.377143 
L 287.794972 61.377143 
L 290.260927 61.377143 
L 292.726883 61.377143 
L 295.192838 61.377143 
L 297.658793 61.377143 
L 300.124749 61.377143 
L 302.590704 61.377143 
L 305.05666 61.377143 
L 307.522615 61.377143 
L 309.988571 61.377143 
L 312.454526 61.377143 
L 314.920482 61.377143 
L 317.386437 61.377143 
L 319.852393 61.377143 
L 322.318348 61.377143 
L 324.784303 61.377143 
L 327.250259 61.377143 
L 329.716214 61.377143 
L 332.18217 61.377143 
L 334.648125 61.377143 
L 337.114081 61.377143 
L 339.580036 61.377143 
L 342.045992 61.377143 
L 344.511947 61.377143 
L 346.977903 61.377143 
L 349.443858 61.377143 
L 351.909813 61.377143 
L 354.375769 61.377143 
L 356.841724 61.377143 
L 359.30768 61.377143 
L 361.773635 61.377143 
L 364.239591 61.377143 
L 366.705546 61.377143 
L 369.171502 61.377143 
L 371.637457 61.377143 
L 374.103413 61.377143 
L 376.569368 61.377143 
L 379.035324 61.377143 
L 381.501279 61.377143 
L 383.967234 61.377143 
L 386.43319 61.377143 
L 388.899145 61.377143 
L 391.365101 61.377143 
L 393.831056 61.377143 
L 396.297012 61.377143 
L 398.762967 61.377143 
L 401.228923 61.377143 
L 403.694878 61.377143 
L 406.160834 61.377143 
L 408.626789 61.377143 
L 411.092744 61.377143 
L 413.5587 61.377143 
L 416.024655 61.377143 
L 418.490611 61.377143 
L 420.956566 61.377143 
L 423.422522 61.377143 
L 425.888477 61.377143 
L 428.354433 61.377143 
L 430.820388 61.377143 
L 433.286344 61.377143 
L 435.752299 61.377143 
L 438.218255 61.377143 
L 440.68421 61.377143 
L 443.150165 61.377143 
L 445.616121 61.377143 
L 448.082076 61.377143 
L 450.548032 61.377143 
L 453.013987 61.377143 
L 455.479943 61.377143 
L 457.945898 61.377143 
L 460.411854 61.377143 
L 462.877809 61.377143 
L 462.877809 61.347696 
L 462.877809 61.347696 
L 460.411854 61.340748 
L 457.945898 61.332389 
L 455.479943 61.322391 
L 453.013987 61.310501 
L 450.548032 61.296442 
L 448.082076 61.279915 
L 445.616121 61.2606 
L 443.150165 61.23816 
L 440.68421 61.212244 
L 438.218255 61.182491 
L 435.752299 61.14854 
L 433.286344 61.110036 
L 430.820388 61.066636 
L 428.354433 61.018023 
L 425.888477 60.963916 
L 423.422522 60.904079 
L 420.956566 60.838336 
L 418.490611 60.766583 
L 416.024655 60.6888 
L 413.5587 60.60506 
L 411.092744 60.515545 
L 408.626789 60.42055 
L 406.160834 60.320492 
L 403.694878 60.215914 
L 401.228923 60.107487 
L 398.762967 59.996008 
L 396.297012 59.882395 
L 393.831056 59.767676 
L 391.365101 59.652982 
L 388.899145 59.539523 
L 386.43319 59.428574 
L 383.967234 59.321451 
L 381.501279 59.219486 
L 379.035324 59.123997 
L 376.569368 59.036264 
L 374.103413 58.9575 
L 371.637457 58.888819 
L 369.171502 58.831214 
L 366.705546 58.785531 
L 364.239591 58.752447 
L 361.773635 58.732456 
L 359.30768 58.725852 
L 356.841724 58.732722 
L 354.375769 58.752945 
L 351.909813 58.786193 
L 349.443858 58.831938 
L 346.977903 58.889461 
L 344.511947 58.957875 
L 342.045992 59.036139 
L 339.580036 59.123083 
L 337.114081 59.217432 
L 334.648125 59.317834 
L 332.18217 59.422888 
L 329.716214 59.531165 
L 327.250259 59.641239 
L 324.784303 59.751706 
L 322.318348 59.861209 
L 319.852393 59.968451 
L 317.386437 60.072216 
L 314.920482 60.171373 
L 312.454526 60.26489 
L 309.988571 60.351839 
L 307.522615 60.431392 
L 305.05666 60.50283 
L 302.590704 60.565532 
L 300.124749 60.618977 
L 297.658793 60.662738 
L 295.192838 60.696477 
L 292.726883 60.719938 
L 290.260927 60.732948 
L 287.794972 60.735408 
L 285.329016 60.727295 
L 282.863061 60.70866 
L 280.397105 60.679628 
L 277.93115 60.640402 
L 275.465194 60.591262 
L 272.999239 60.532575 
L 270.533283 60.464791 
L 268.067328 60.388453 
L 265.601372 60.304198 
L 263.135417 60.212756 
L 260.669462 60.114953 
L 258.203506 60.011706 
L 255.737551 59.904018 
L 253.271595 59.792967 
L 250.80564 59.679696 
L 248.339684 59.565395 
L 245.873729 59.451279 
L 243.407773 59.33857 
L 240.941818 59.228465 
L 238.475862 59.12211 
L 236.009907 59.020568 
L 233.543952 58.924789 
L 231.077996 58.835576 
L 228.612041 58.753553 
L 226.146085 58.679138 
L 223.68013 58.612512 
L 221.214174 58.553599 
L 218.748219 58.502042 
L 216.282263 58.457187 
L 213.816308 58.418074 
L 211.350352 58.383432 
L 208.884397 58.351673 
L 206.418442 58.320901 
L 203.952486 58.288916 
L 201.486531 58.253228 
L 199.020575 58.211073 
L 196.55462 58.159427 
L 194.088664 58.095028 
L 191.622709 58.014396 
L 189.156753 57.913849 
L 186.690798 57.789531 
L 184.224842 57.637422 
L 181.758887 57.453363 
L 179.292931 57.233071 
L 176.826976 56.972158 
L 174.361021 56.666147 
L 171.895065 56.310496 
L 169.42911 55.90062 
L 166.963154 55.431916 
L 164.497199 54.899806 
L 162.031243 54.299771 
L 159.565288 53.627414 
L 157.099332 52.878518 
L 154.633377 52.049127 
L 152.167421 51.135643 
L 149.701466 50.134927 
L 147.235511 49.044421 
L 144.769555 47.862283 
L 142.3036 46.58753 
L 139.837644 45.220187 
L 137.371689 43.761441 
L 134.905733 42.213794 
L 132.439778 40.581205 
L 129.973822 38.86922 
L 127.507867 37.08508 
L 125.041911 35.237803 
L 122.575956 33.338227 
L 120.110001 31.399018 
L 117.644045 29.434623 
L 115.17809 27.46118 
L 112.712134 25.49637 
L 110.246179 23.55921 
L 107.780223 21.669804 
L 105.314268 19.849029 
L 102.848312 18.118186 
L 100.382357 16.498607 
L 97.916401 15.011237 
L 95.450446 13.676195 
L 92.98449 12.512335 
L 90.518535 11.536812 
L 88.05258 10.764672 
L 85.586624 10.208476 
L 83.120669 9.877979 
L 80.654713 9.779864 
L 78.188758 9.917546 
L 75.722802 10.291062 
L 73.256847 10.897031 
L 70.790891 11.728713 
L 68.324936 12.77614 
L 65.85898 14.02633 
L 63.393025 15.463579 
L 60.92707 17.069807 
L 58.461114 18.824962 
L 55.995159 20.707465 
L 53.529203 22.69467 
L 51.063248 24.763347 
L 48.597292 26.890149 
L 46.131337 29.052068 
L 43.665381 31.226862 
L 41.199426 33.393433 
L 38.73347 35.532163 
L 36.267515 37.625189 
L 33.801559 39.656617 
L 31.335604 41.612676 
L 28.869649 43.481805 
L 26.403693 45.254687 
L 23.937738 46.924217 
L 21.471782 48.48543 
L 19.005827 49.93538 
L 16.539871 51.272984 
L 14.073916 52.498842 
L 11.60796 53.615033 
L 9.142005 54.624902 
L 6.676049 55.532846 
L 4.210094 56.344095 
L 1.744139 57.064509 
L -0.721817 57.700383 
L -3.187772 58.258269 
L -5.653728 58.744823 
L -8.119683 59.166662 
L -10.585639 59.530255 
L -13.051594 59.841821 
L -15.51755 60.107265 
L -17.983505 60.332116 
L -20.449461 60.521495 
L -22.915416 60.680093 
L -25.381371 60.812164 
L -27.847327 60.921525 
z
" clip-path="url(#p62fa2d586b)" style="fill: #1f77b4; fill-opacity: 0.25; stroke: #1f77b4"/>
   </g>
   <g id="matplotlib.axis_3">
    <g id="xtick_6">
     <g id="line2d_15">
      <g>
       <use xlink:href="#m50d8d74b05" x="74.3419" y="61.377143" style="stroke: #000000; stroke-width: 0.8"/>
      </g>
     </g>
    </g>
    <g id="xtick_7">
     <g id="line2d_16">
      <g>
       <use xlink:href="#m50d8d74b05" x="140.625854" y="61.377143" style="stroke: #000000; stroke-width: 0.8"/>
      </g>
     </g>
    </g>
    <g id="xtick_8">
     <g id="line2d_17">
      <g>
       <use xlink:href="#m50d8d74b05" x="206.909808" y="61.377143" style="stroke: #000000; stroke-width: 0.8"/>
      </g>
     </g>
    </g>
    <g id="xtick_9">
     <g id="line2d_18">
      <g>
       <use xlink:href="#m50d8d74b05" x="273.193763" y="61.377143" style="stroke: #000000; stroke-width: 0.8"/>
      </g>
     </g>
    </g>
    <g id="xtick_10">
     <g id="line2d_19">
      <g>
       <use xlink:href="#m50d8d74b05" x="339.477717" y="61.377143" style="stroke: #000000; stroke-width: 0.8"/>
      </g>
     </g>
    </g>
   </g>
   <g id="matplotlib.axis_4">
    <g id="ytick_10"/>
    <g id="ytick_11"/>
   </g>
   <g id="patch_6">
    <path d="M 61.482813 61.377143 
L 373.54767 61.377143 
" style="fill: none; stroke: #000000; stroke-width: 0.8; stroke-linejoin: miter; stroke-linecap: square"/>
   </g>
  </g>
  <g id="axes_3">
   <g id="patch_7">
    <path d="M 384.308527 386.44 
L 438.112812 386.44 
L 438.112812 72.212571 
L 384.308527 72.212571 
z
" style="fill: #ffffff"/>
   </g>
   <g id="PolyCollection_2">
    <path d="M 384.403228 508.608199 
L 384.308527 508.608199 
L 384.308527 505.801345 
L 384.308527 502.994492 
L 384.308527 500.187639 
L 384.308527 497.380785 
L 384.308527 494.573932 
L 384.308527 491.767078 
L 384.308527 488.960225 
L 384.308527 486.153372 
L 384.308527 483.346518 
L 384.308527 480.539665 
L 384.308527 477.732811 
L 384.308527 474.925958 
L 384.308527 472.119105 
L 384.308527 469.312251 
L 384.308527 466.505398 
L 384.308527 463.698545 
L 384.308527 460.891691 
L 384.308527 458.084838 
L 384.308527 455.277984 
L 384.308527 452.471131 
L 384.308527 449.664278 
L 384.308527 446.857424 
L 384.308527 444.050571 
L 384.308527 441.243717 
L 384.308527 438.436864 
L 384.308527 435.630011 
L 384.308527 432.823157 
L 384.308527 430.016304 
L 384.308527 427.20945 
L 384.308527 424.402597 
L 384.308527 421.595744 
L 384.308527 418.78889 
L 384.308527 415.982037 
L 384.308527 413.175183 
L 384.308527 410.36833 
L 384.308527 407.561477 
L 384.308527 404.754623 
L 384.308527 401.94777 
L 384.308527 399.140916 
L 384.308527 396.334063 
L 384.308527 393.52721 
L 384.308527 390.720356 
L 384.308527 387.913503 
L 384.308527 385.106649 
L 384.308527 382.299796 
L 384.308527 379.492943 
L 384.308527 376.686089 
L 384.308527 373.879236 
L 384.308527 371.072382 
L 384.308527 368.265529 
L 384.308527 365.458676 
L 384.308527 362.651822 
L 384.308527 359.844969 
L 384.308527 357.038115 
L 384.308527 354.231262 
L 384.308527 351.424409 
L 384.308527 348.617555 
L 384.308527 345.810702 
L 384.308527 343.003848 
L 384.308527 340.196995 
L 384.308527 337.390142 
L 384.308527 334.583288 
L 384.308527 331.776435 
L 384.308527 328.969581 
L 384.308527 326.162728 
L 384.308527 323.355875 
L 384.308527 320.549021 
L 384.308527 317.742168 
L 384.308527 314.935314 
L 384.308527 312.128461 
L 384.308527 309.321608 
L 384.308527 306.514754 
L 384.308527 303.707901 
L 384.308527 300.901047 
L 384.308527 298.094194 
L 384.308527 295.287341 
L 384.308527 292.480487 
L 384.308527 289.673634 
L 384.308527 286.86678 
L 384.308527 284.059927 
L 384.308527 281.253074 
L 384.308527 278.44622 
L 384.308527 275.639367 
L 384.308527 272.832513 
L 384.308527 270.02566 
L 384.308527 267.218807 
L 384.308527 264.411953 
L 384.308527 261.6051 
L 384.308527 258.798246 
L 384.308527 255.991393 
L 384.308527 253.18454 
L 384.308527 250.377686 
L 384.308527 247.570833 
L 384.308527 244.763979 
L 384.308527 241.957126 
L 384.308527 239.150273 
L 384.308527 236.343419 
L 384.308527 233.536566 
L 384.308527 230.729712 
L 384.308527 227.922859 
L 384.308527 225.116006 
L 384.308527 222.309152 
L 384.308527 219.502299 
L 384.308527 216.695445 
L 384.308527 213.888592 
L 384.308527 211.081739 
L 384.308527 208.274885 
L 384.308527 205.468032 
L 384.308527 202.661178 
L 384.308527 199.854325 
L 384.308527 197.047472 
L 384.308527 194.240618 
L 384.308527 191.433765 
L 384.308527 188.626911 
L 384.308527 185.820058 
L 384.308527 183.013205 
L 384.308527 180.206351 
L 384.308527 177.399498 
L 384.308527 174.592644 
L 384.308527 171.785791 
L 384.308527 168.978938 
L 384.308527 166.172084 
L 384.308527 163.365231 
L 384.308527 160.558377 
L 384.308527 157.751524 
L 384.308527 154.944671 
L 384.308527 152.137817 
L 384.308527 149.330964 
L 384.308527 146.52411 
L 384.308527 143.717257 
L 384.308527 140.910404 
L 384.308527 138.10355 
L 384.308527 135.296697 
L 384.308527 132.489843 
L 384.308527 129.68299 
L 384.308527 126.876137 
L 384.308527 124.069283 
L 384.308527 121.26243 
L 384.308527 118.455576 
L 384.308527 115.648723 
L 384.308527 112.84187 
L 384.308527 110.035016 
L 384.308527 107.228163 
L 384.308527 104.421309 
L 384.308527 101.614456 
L 384.308527 98.807603 
L 384.308527 96.000749 
L 384.308527 93.193896 
L 384.308527 90.387042 
L 384.308527 87.580189 
L 384.308527 84.773336 
L 384.308527 81.966482 
L 384.308527 79.159629 
L 384.308527 76.352775 
L 384.308527 73.545922 
L 384.308527 70.739069 
L 384.308527 67.932215 
L 384.308527 65.125362 
L 384.308527 62.318508 
L 384.308527 59.511655 
L 384.308527 56.704802 
L 384.308527 53.897948 
L 384.308527 51.091095 
L 384.308527 48.284241 
L 384.308527 45.477388 
L 384.308527 42.670535 
L 384.308527 39.863681 
L 384.308527 37.056828 
L 384.308527 34.249975 
L 384.308527 31.443121 
L 384.308527 28.636268 
L 384.308527 25.829414 
L 384.308527 23.022561 
L 384.308527 20.215708 
L 384.308527 17.408854 
L 384.308527 14.602001 
L 384.308527 11.795147 
L 384.308527 8.988294 
L 384.308527 6.181441 
L 384.308527 3.374587 
L 384.308527 0.567734 
L 384.308527 -2.23912 
L 384.308527 -5.045973 
L 384.308527 -7.852826 
L 384.308527 -10.65968 
L 384.308527 -13.466533 
L 384.308527 -16.273387 
L 384.308527 -19.08024 
L 384.308527 -21.887093 
L 384.308527 -24.693947 
L 384.308527 -27.5008 
L 384.308527 -30.307654 
L 384.308527 -33.114507 
L 384.308527 -35.92136 
L 384.308527 -38.728214 
L 384.308527 -41.535067 
L 384.308527 -44.341921 
L 384.308527 -47.148774 
L 384.308527 -49.955627 
L 384.402035 -49.955627 
L 384.402035 -49.955627 
L 384.421522 -47.148774 
L 384.444571 -44.341921 
L 384.471725 -41.535067 
L 384.503587 -38.728214 
L 384.540823 -35.92136 
L 384.584166 -33.114507 
L 384.634413 -30.307654 
L 384.692432 -27.5008 
L 384.759155 -24.693947 
L 384.835577 -21.887093 
L 384.922756 -19.08024 
L 385.021803 -16.273387 
L 385.133879 -13.466533 
L 385.260183 -10.65968 
L 385.401943 -7.852826 
L 385.560402 -5.045973 
L 385.736805 -2.23912 
L 385.932379 0.567734 
L 386.148321 3.374587 
L 386.38577 6.181441 
L 386.645794 8.988294 
L 386.929362 11.795147 
L 387.237324 14.602001 
L 387.570388 17.408854 
L 387.929097 20.215708 
L 388.313809 23.022561 
L 388.724676 25.829414 
L 389.161624 28.636268 
L 389.624343 31.443121 
L 390.112268 34.249975 
L 390.624576 37.056828 
L 391.160182 39.863681 
L 391.717735 42.670535 
L 392.295627 45.477388 
L 392.892004 48.284241 
L 393.504784 51.091095 
L 394.131675 53.897948 
L 394.770206 56.704802 
L 395.417759 59.511655 
L 396.071607 62.318508 
L 396.728957 65.125362 
L 397.386994 67.932215 
L 398.042932 70.739069 
L 398.694065 73.545922 
L 399.33782 76.352775 
L 399.971807 79.159629 
L 400.593873 81.966482 
L 401.202152 84.773336 
L 401.795107 87.580189 
L 402.371578 90.387042 
L 402.930809 93.193896 
L 403.472484 96.000749 
L 403.996744 98.807603 
L 404.5042 101.614456 
L 404.995933 104.421309 
L 405.473492 107.228163 
L 405.938867 110.035016 
L 406.394466 112.84187 
L 406.843075 115.648723 
L 407.287802 118.455576 
L 407.732024 121.26243 
L 408.179313 124.069283 
L 408.633363 126.876137 
L 409.097901 129.68299 
L 409.576608 132.489843 
L 410.073019 135.296697 
L 410.590438 138.10355 
L 411.131846 140.910404 
L 411.699811 143.717257 
L 412.296414 146.52411 
L 412.92317 149.330964 
L 413.580968 152.137817 
L 414.270022 154.944671 
L 414.989837 157.751524 
L 415.739183 160.558377 
L 416.516098 163.365231 
L 417.317898 166.172084 
L 418.141214 168.978938 
L 418.982035 171.785791 
L 419.835782 174.592644 
L 420.697387 177.399498 
L 421.561391 180.206351 
L 422.422052 183.013205 
L 423.273467 185.820058 
L 424.109694 188.626911 
L 424.924883 191.433765 
L 425.713406 194.240618 
L 426.469981 197.047472 
L 427.189797 199.854325 
L 427.868618 202.661178 
L 428.502884 205.468032 
L 429.089794 208.274885 
L 429.627365 211.081739 
L 430.114483 213.888592 
L 430.550916 216.695445 
L 430.937324 219.502299 
L 431.27523 222.309152 
L 431.56698 225.116006 
L 431.815678 227.922859 
L 432.025102 230.729712 
L 432.199602 233.536566 
L 432.343985 236.343419 
L 432.463392 239.150273 
L 432.563156 241.957126 
L 432.648668 244.763979 
L 432.725234 247.570833 
L 432.797937 250.377686 
L 432.871503 253.18454 
L 432.950177 255.991393 
L 433.037612 258.798246 
L 433.136772 261.6051 
L 433.24985 264.411953 
L 433.378206 267.218807 
L 433.522325 270.02566 
L 433.681792 272.832513 
L 433.855293 275.639367 
L 434.040627 278.44622 
L 434.234749 281.253074 
L 434.433823 284.059927 
L 434.633289 286.86678 
L 434.827954 289.673634 
L 435.012086 292.480487 
L 435.179526 295.287341 
L 435.323798 298.094194 
L 435.438235 300.901047 
L 435.516099 303.707901 
L 435.550704 306.514754 
L 435.535539 309.321608 
L 435.464382 312.128461 
L 435.331414 314.935314 
L 435.131315 317.742168 
L 434.859362 320.549021 
L 434.511506 323.355875 
L 434.084441 326.162728 
L 433.575662 328.969581 
L 432.983505 331.776435 
L 432.307176 334.583288 
L 431.546762 337.390142 
L 430.703237 340.196995 
L 429.778443 343.003848 
L 428.775066 345.810702 
L 427.696598 348.617555 
L 426.547284 351.424409 
L 425.332066 354.231262 
L 424.056511 357.038115 
L 422.726734 359.844969 
L 421.349316 362.651822 
L 419.931216 365.458676 
L 418.47968 368.265529 
L 417.002145 371.072382 
L 415.50615 373.879236 
L 413.999243 376.686089 
L 412.48889 379.492943 
L 410.982393 382.299796 
L 409.486806 385.106649 
L 408.008868 387.913503 
L 406.554932 390.720356 
L 405.13091 393.52721 
L 403.742225 396.334063 
L 402.39377 399.140916 
L 401.089878 401.94777 
L 399.834302 404.754623 
L 398.630206 407.561477 
L 397.48016 410.36833 
L 396.386149 413.175183 
L 395.349583 415.982037 
L 394.371327 418.78889 
L 393.451721 421.595744 
L 392.590617 424.402597 
L 391.787419 427.20945 
L 391.041121 430.016304 
L 390.350353 432.823157 
L 389.713426 435.630011 
L 389.128379 438.436864 
L 388.593026 441.243717 
L 388.104998 444.050571 
L 387.66179 446.857424 
L 387.2608 449.664278 
L 386.899369 452.471131 
L 386.574816 455.277984 
L 386.284466 458.084838 
L 386.025687 460.891691 
L 385.795905 463.698545 
L 385.592631 466.505398 
L 385.413477 469.312251 
L 385.256167 472.119105 
L 385.11855 474.925958 
L 384.998609 477.732811 
L 384.894461 480.539665 
L 384.804361 483.346518 
L 384.726704 486.153372 
L 384.660019 488.960225 
L 384.602968 491.767078 
L 384.55434 494.573932 
L 384.513045 497.380785 
L 384.478106 500.187639 
L 384.448655 502.994492 
L 384.423922 505.801345 
L 384.403228 508.608199 
z
" clip-path="url(#pad61b4e0d1)" style="fill: #1f77b4; fill-opacity: 0.25; stroke: #1f77b4"/>
   </g>
   <g id="matplotlib.axis_5">
    <g id="xtick_11"/>
    <g id="xtick_12"/>
   </g>
   <g id="matplotlib.axis_6">
    <g id="ytick_12">
     <g id="line2d_20">
      <g>
       <use xlink:href="#mc33705fef1" x="384.308527" y="379.674338" style="stroke: #000000; stroke-width: 0.8"/>
      </g>
     </g>
    </g>
    <g id="ytick_13">
     <g id="line2d_21">
      <g>
       <use xlink:href="#mc33705fef1" x="384.308527" y="342.087325" style="stroke: #000000; stroke-width: 0.8"/>
      </g>
     </g>
    </g>
    <g id="ytick_14">
     <g id="line2d_22">
      <g>
       <use xlink:href="#mc33705fef1" x="384.308527" y="304.500312" style="stroke: #000000; stroke-width: 0.8"/>
      </g>
     </g>
    </g>
    <g id="ytick_15">
     <g id="line2d_23">
      <g>
       <use xlink:href="#mc33705fef1" x="384.308527" y="266.913299" style="stroke: #000000; stroke-width: 0.8"/>
      </g>
     </g>
    </g>
    <g id="ytick_16">
     <g id="line2d_24">
      <g>
       <use xlink:href="#mc33705fef1" x="384.308527" y="229.326286" style="stroke: #000000; stroke-width: 0.8"/>
      </g>
     </g>
    </g>
    <g id="ytick_17">
     <g id="line2d_25">
      <g>
       <use xlink:href="#mc33705fef1" x="384.308527" y="191.739273" style="stroke: #000000; stroke-width: 0.8"/>
      </g>
     </g>
    </g>
    <g id="ytick_18">
     <g id="line2d_26">
      <g>
       <use xlink:href="#mc33705fef1" x="384.308527" y="154.15226" style="stroke: #000000; stroke-width: 0.8"/>
      </g>
     </g>
    </g>
    <g id="ytick_19">
     <g id="line2d_27">
      <g>
       <use xlink:href="#mc33705fef1" x="384.308527" y="116.565247" style="stroke: #000000; stroke-width: 0.8"/>
      </g>
     </g>
    </g>
    <g id="ytick_20">
     <g id="line2d_28">
      <g>
       <use xlink:href="#mc33705fef1" x="384.308527" y="78.978234" style="stroke: #000000; stroke-width: 0.8"/>
      </g>
     </g>
    </g>
   </g>
   <g id="patch_8">
    <path d="M 384.308527 386.44 
L 384.308527 72.212571 
" style="fill: none; stroke: #000000; stroke-width: 0.8; stroke-linejoin: miter; stroke-linecap: square"/>
   </g>
  </g>
 </g>
 <defs>
  <clipPath id="pca2a6ea0a1">
   <rect x="61.482813" y="72.212571" width="312.064857" height="314.227429"/>
  </clipPath>
  <clipPath id="p62fa2d586b">
   <rect x="61.482813" y="7.2" width="312.064857" height="54.177143"/>
  </clipPath>
  <clipPath id="pad61b4e0d1">
   <rect x="384.308527" y="72.212571" width="53.804286" height="314.227429"/>
  </clipPath>
 </defs>
</svg>
