<?xml version="1.0" encoding="utf-8" standalone="no"?>
<!DOCTYPE svg PUBLIC "-//W3C//DTD SVG 1.1//EN"
  "http://www.w3.org/Graphics/SVG/1.1/DTD/svg11.dtd">
<svg xmlns:xlink="http://www.w3.org/1999/xlink" width="414.641875pt" height="150.520479pt" viewBox="0 0 414.641875 150.520479" xmlns="http://www.w3.org/2000/svg" version="1.1">
 <metadata>
  <rdf:RDF xmlns:dc="http://purl.org/dc/elements/1.1/" xmlns:cc="http://creativecommons.org/ns#" xmlns:rdf="http://www.w3.org/1999/02/22-rdf-syntax-ns#">
   <cc:Work>
    <dc:type rdf:resource="http://purl.org/dc/dcmitype/StillImage"/>
    <dc:date>2022-12-10T10:52:50.267446</dc:date>
    <dc:format>image/svg+xml</dc:format>
    <dc:creator>
     <cc:Agent>
      <dc:title>Matplotlib v3.6.2, https://matplotlib.org/</dc:title>
     </cc:Agent>
    </dc:creator>
   </cc:Work>
  </rdf:RDF>
 </metadata>
 <defs>
  <style type="text/css">*{stroke-linejoin: round; stroke-linecap: butt}</style>
 </defs>
 <g id="figure_1">
  <g id="patch_1">
   <path d="M 0 150.520479 
L 414.641875 150.520479 
L 414.641875 0 
L 0 0 
z
" style="fill: #ffffff"/>
  </g>
  <g id="axes_1">
   <g id="patch_2">
    <path d="M 50.321875 139.332094 
L 407.441875 139.332094 
L 407.441875 32.196094 
L 50.321875 32.196094 
z
" style="fill: #ffffff"/>
   </g>
   <g id="patch_3">
    <path d="M 51.750355 89.510108 
L 63.178195 89.510108 
L 63.178195 89.510108 
L 51.750355 89.510108 
z
" clip-path="url(#p029b277b7b)" style="fill: #3274a1"/>
   </g>
   <g id="patch_4">
    <path d="M 66.035155 89.510108 
L 77.462995 89.510108 
L 77.462995 89.510108 
L 66.035155 89.510108 
z
" clip-path="url(#p029b277b7b)" style="fill: #3274a1"/>
   </g>
   <g id="patch_5">
    <path d="M 80.319955 89.510108 
L 91.747795 89.510108 
L 91.747795 89.510108 
L 80.319955 89.510108 
z
" clip-path="url(#p029b277b7b)" style="fill: #3274a1"/>
   </g>
   <g id="patch_6">
    <path d="M 94.604755 89.510108 
L 106.032595 89.510108 
L 106.032595 59.541996 
L 94.604755 59.541996 
z
" clip-path="url(#p029b277b7b)" style="fill: #3274a1"/>
   </g>
   <g id="patch_7">
    <path d="M 108.889555 89.510108 
L 120.317395 89.510108 
L 120.317395 52.049968 
L 108.889555 52.049968 
z
" clip-path="url(#p029b277b7b)" style="fill: #3274a1"/>
   </g>
   <g id="patch_8">
    <path d="M 123.174355 89.510108 
L 134.602195 89.510108 
L 134.602195 37.065912 
L 123.174355 37.065912 
z
" clip-path="url(#p029b277b7b)" style="fill: #3274a1"/>
   </g>
   <g id="patch_9">
    <path d="M 137.459155 89.510108 
L 148.886995 89.510108 
L 148.886995 89.510108 
L 137.459155 89.510108 
z
" clip-path="url(#p029b277b7b)" style="fill: #3274a1"/>
   </g>
   <g id="patch_10">
    <path d="M 151.743955 89.510108 
L 163.171795 89.510108 
L 163.171795 67.034024 
L 151.743955 67.034024 
z
" clip-path="url(#p029b277b7b)" style="fill: #3274a1"/>
   </g>
   <g id="patch_11">
    <path d="M 166.028755 89.510108 
L 177.456595 89.510108 
L 177.456595 74.526052 
L 166.028755 74.526052 
z
" clip-path="url(#p029b277b7b)" style="fill: #3274a1"/>
   </g>
   <g id="patch_12">
    <path d="M 180.313555 89.510108 
L 191.741395 89.510108 
L 191.741395 89.510108 
L 180.313555 89.510108 
z
" clip-path="url(#p029b277b7b)" style="fill: #3274a1"/>
   </g>
   <g id="patch_13">
    <path d="M 194.598355 89.510108 
L 206.026195 89.510108 
L 206.026195 59.541996 
L 194.598355 59.541996 
z
" clip-path="url(#p029b277b7b)" style="fill: #3274a1"/>
   </g>
   <g id="patch_14">
    <path d="M 208.883155 89.510108 
L 220.310995 89.510108 
L 220.310995 67.034024 
L 208.883155 67.034024 
z
" clip-path="url(#p029b277b7b)" style="fill: #3274a1"/>
   </g>
   <g id="patch_15">
    <path d="M 223.167955 89.510108 
L 234.595795 89.510108 
L 234.595795 59.541996 
L 223.167955 59.541996 
z
" clip-path="url(#p029b277b7b)" style="fill: #3274a1"/>
   </g>
   <g id="patch_16">
    <path d="M 237.452755 89.510108 
L 248.880595 89.510108 
L 248.880595 89.510108 
L 237.452755 89.510108 
z
" clip-path="url(#p029b277b7b)" style="fill: #3274a1"/>
   </g>
   <g id="patch_17">
    <path d="M 251.737555 89.510108 
L 263.165395 89.510108 
L 263.165395 74.526052 
L 251.737555 74.526052 
z
" clip-path="url(#p029b277b7b)" style="fill: #3274a1"/>
   </g>
   <g id="patch_18">
    <path d="M 266.022355 89.510108 
L 277.450195 89.510108 
L 277.450195 89.510108 
L 266.022355 89.510108 
z
" clip-path="url(#p029b277b7b)" style="fill: #3274a1"/>
   </g>
   <g id="patch_19">
    <path d="M 280.307155 89.510108 
L 291.734995 89.510108 
L 291.734995 82.01808 
L 280.307155 82.01808 
z
" clip-path="url(#p029b277b7b)" style="fill: #3274a1"/>
   </g>
   <g id="patch_20">
    <path d="M 294.591955 89.510108 
L 306.019795 89.510108 
L 306.019795 89.510108 
L 294.591955 89.510108 
z
" clip-path="url(#p029b277b7b)" style="fill: #3274a1"/>
   </g>
   <g id="patch_21">
    <path d="M 308.876755 89.510108 
L 320.304595 89.510108 
L 320.304595 37.065912 
L 308.876755 37.065912 
z
" clip-path="url(#p029b277b7b)" style="fill: #3274a1"/>
   </g>
   <g id="patch_22">
    <path d="M 323.161555 89.510108 
L 334.589395 89.510108 
L 334.589395 67.034024 
L 323.161555 67.034024 
z
" clip-path="url(#p029b277b7b)" style="fill: #3274a1"/>
   </g>
   <g id="patch_23">
    <path d="M 337.446355 89.510108 
L 348.874195 89.510108 
L 348.874195 89.510108 
L 337.446355 89.510108 
z
" clip-path="url(#p029b277b7b)" style="fill: #3274a1"/>
   </g>
   <g id="patch_24">
    <path d="M 351.731155 89.510108 
L 363.158995 89.510108 
L 363.158995 82.01808 
L 351.731155 82.01808 
z
" clip-path="url(#p029b277b7b)" style="fill: #3274a1"/>
   </g>
   <g id="patch_25">
    <path d="M 366.015955 89.510108 
L 377.443795 89.510108 
L 377.443795 74.526052 
L 366.015955 74.526052 
z
" clip-path="url(#p029b277b7b)" style="fill: #3274a1"/>
   </g>
   <g id="patch_26">
    <path d="M 380.300755 89.510108 
L 391.728595 89.510108 
L 391.728595 67.034024 
L 380.300755 67.034024 
z
" clip-path="url(#p029b277b7b)" style="fill: #3274a1"/>
   </g>
   <g id="patch_27">
    <path d="M 394.585555 89.510108 
L 406.013395 89.510108 
L 406.013395 82.01808 
L 394.585555 82.01808 
z
" clip-path="url(#p029b277b7b)" style="fill: #3274a1"/>
   </g>
   <g id="patch_28">
    <path d="M 51.750355 89.510108 
L 63.178195 89.510108 
L 63.178195 119.47822 
L 51.750355 119.47822 
z
" clip-path="url(#p029b277b7b)" style="fill: #e1812c"/>
   </g>
   <g id="patch_29">
    <path d="M 66.035155 89.510108 
L 77.462995 89.510108 
L 77.462995 111.986192 
L 66.035155 111.986192 
z
" clip-path="url(#p029b277b7b)" style="fill: #e1812c"/>
   </g>
   <g id="patch_30">
    <path d="M 80.319955 89.510108 
L 91.747795 89.510108 
L 91.747795 89.510108 
L 80.319955 89.510108 
z
" clip-path="url(#p029b277b7b)" style="fill: #e1812c"/>
   </g>
   <g id="patch_31">
    <path d="M 94.604755 89.510108 
L 106.032595 89.510108 
L 106.032595 97.002136 
L 94.604755 97.002136 
z
" clip-path="url(#p029b277b7b)" style="fill: #e1812c"/>
   </g>
   <g id="patch_32">
    <path d="M 108.889555 89.510108 
L 120.317395 89.510108 
L 120.317395 89.510108 
L 108.889555 89.510108 
z
" clip-path="url(#p029b277b7b)" style="fill: #e1812c"/>
   </g>
   <g id="patch_33">
    <path d="M 123.174355 89.510108 
L 134.602195 89.510108 
L 134.602195 89.510108 
L 123.174355 89.510108 
z
" clip-path="url(#p029b277b7b)" style="fill: #e1812c"/>
   </g>
   <g id="patch_34">
    <path d="M 137.459155 89.510108 
L 148.886995 89.510108 
L 148.886995 119.47822 
L 137.459155 119.47822 
z
" clip-path="url(#p029b277b7b)" style="fill: #e1812c"/>
   </g>
   <g id="patch_35">
    <path d="M 151.743955 89.510108 
L 163.171795 89.510108 
L 163.171795 111.986192 
L 151.743955 111.986192 
z
" clip-path="url(#p029b277b7b)" style="fill: #e1812c"/>
   </g>
   <g id="patch_36">
    <path d="M 166.028755 89.510108 
L 177.456595 89.510108 
L 177.456595 97.002136 
L 166.028755 97.002136 
z
" clip-path="url(#p029b277b7b)" style="fill: #e1812c"/>
   </g>
   <g id="patch_37">
    <path d="M 180.313555 89.510108 
L 191.741395 89.510108 
L 191.741395 134.462276 
L 180.313555 134.462276 
z
" clip-path="url(#p029b277b7b)" style="fill: #e1812c"/>
   </g>
   <g id="patch_38">
    <path d="M 194.598355 89.510108 
L 206.026195 89.510108 
L 206.026195 89.510108 
L 194.598355 89.510108 
z
" clip-path="url(#p029b277b7b)" style="fill: #e1812c"/>
   </g>
   <g id="patch_39">
    <path d="M 208.883155 89.510108 
L 220.310995 89.510108 
L 220.310995 104.494164 
L 208.883155 104.494164 
z
" clip-path="url(#p029b277b7b)" style="fill: #e1812c"/>
   </g>
   <g id="patch_40">
    <path d="M 223.167955 89.510108 
L 234.595795 89.510108 
L 234.595795 111.986192 
L 223.167955 111.986192 
z
" clip-path="url(#p029b277b7b)" style="fill: #e1812c"/>
   </g>
   <g id="patch_41">
    <path d="M 237.452755 89.510108 
L 248.880595 89.510108 
L 248.880595 104.494164 
L 237.452755 104.494164 
z
" clip-path="url(#p029b277b7b)" style="fill: #e1812c"/>
   </g>
   <g id="patch_42">
    <path d="M 251.737555 89.510108 
L 263.165395 89.510108 
L 263.165395 104.494164 
L 251.737555 104.494164 
z
" clip-path="url(#p029b277b7b)" style="fill: #e1812c"/>
   </g>
   <g id="patch_43">
    <path d="M 266.022355 89.510108 
L 277.450195 89.510108 
L 277.450195 111.986192 
L 266.022355 111.986192 
z
" clip-path="url(#p029b277b7b)" style="fill: #e1812c"/>
   </g>
   <g id="patch_44">
    <path d="M 280.307155 89.510108 
L 291.734995 89.510108 
L 291.734995 89.510108 
L 280.307155 89.510108 
z
" clip-path="url(#p029b277b7b)" style="fill: #e1812c"/>
   </g>
   <g id="patch_45">
    <path d="M 294.591955 89.510108 
L 306.019795 89.510108 
L 306.019795 104.494164 
L 294.591955 104.494164 
z
" clip-path="url(#p029b277b7b)" style="fill: #e1812c"/>
   </g>
   <g id="patch_46">
    <path d="M 308.876755 89.510108 
L 320.304595 89.510108 
L 320.304595 97.002136 
L 308.876755 97.002136 
z
" clip-path="url(#p029b277b7b)" style="fill: #e1812c"/>
   </g>
   <g id="patch_47">
    <path d="M 323.161555 89.510108 
L 334.589395 89.510108 
L 334.589395 111.986192 
L 323.161555 111.986192 
z
" clip-path="url(#p029b277b7b)" style="fill: #e1812c"/>
   </g>
   <g id="patch_48">
    <path d="M 337.446355 89.510108 
L 348.874195 89.510108 
L 348.874195 134.462276 
L 337.446355 134.462276 
z
" clip-path="url(#p029b277b7b)" style="fill: #e1812c"/>
   </g>
   <g id="patch_49">
    <path d="M 351.731155 89.510108 
L 363.158995 89.510108 
L 363.158995 89.510108 
L 351.731155 89.510108 
z
" clip-path="url(#p029b277b7b)" style="fill: #e1812c"/>
   </g>
   <g id="patch_50">
    <path d="M 366.015955 89.510108 
L 377.443795 89.510108 
L 377.443795 89.510108 
L 366.015955 89.510108 
z
" clip-path="url(#p029b277b7b)" style="fill: #e1812c"/>
   </g>
   <g id="patch_51">
    <path d="M 380.300755 89.510108 
L 391.728595 89.510108 
L 391.728595 97.002136 
L 380.300755 97.002136 
z
" clip-path="url(#p029b277b7b)" style="fill: #e1812c"/>
   </g>
   <g id="patch_52">
    <path d="M 394.585555 89.510108 
L 406.013395 89.510108 
L 406.013395 97.002136 
L 394.585555 97.002136 
z
" clip-path="url(#p029b277b7b)" style="fill: #e1812c"/>
   </g>
   <g id="matplotlib.axis_1"/>
   <g id="matplotlib.axis_2">
    <g id="ytick_1">
     <g id="line2d_1">
      <defs>
       <path id="m0080dd618d" d="M 0 0 
L -3.5 0 
" style="stroke: #000000; stroke-width: 0.8"/>
      </defs>
      <g>
       <use xlink:href="#m0080dd618d" x="50.321875" y="89.510108" style="stroke: #000000; stroke-width: 0.8"/>
      </g>
     </g>
     <g id="text_1">
      <!--    0 -->
      <g transform="translate(7.2 95.24878) scale(0.15 -0.15)">
       <defs>
        <path id="DejaVuSansMono-20" transform="scale(0.015625)"/>
        <path id="DejaVuSansMono-30" d="M 1509 2344 
Q 1509 2516 1629 2641 
Q 1750 2766 1919 2766 
Q 2094 2766 2219 2641 
Q 2344 2516 2344 2344 
Q 2344 2169 2220 2047 
Q 2097 1925 1919 1925 
Q 1744 1925 1626 2044 
Q 1509 2163 1509 2344 
z
M 1925 4250 
Q 1484 4250 1267 3775 
Q 1050 3300 1050 2328 
Q 1050 1359 1267 884 
Q 1484 409 1925 409 
Q 2369 409 2586 884 
Q 2803 1359 2803 2328 
Q 2803 3300 2586 3775 
Q 2369 4250 1925 4250 
z
M 1925 4750 
Q 2672 4750 3055 4137 
Q 3438 3525 3438 2328 
Q 3438 1134 3055 521 
Q 2672 -91 1925 -91 
Q 1178 -91 797 521 
Q 416 1134 416 2328 
Q 416 3525 797 4137 
Q 1178 4750 1925 4750 
z
" transform="scale(0.015625)"/>
       </defs>
       <use xlink:href="#DejaVuSansMono-20"/>
       <use xlink:href="#DejaVuSansMono-20" x="60.205078"/>
       <use xlink:href="#DejaVuSansMono-20" x="120.410156"/>
       <use xlink:href="#DejaVuSansMono-30" x="180.615234"/>
      </g>
     </g>
    </g>
    <g id="ytick_2">
     <g id="line2d_2">
      <g>
       <use xlink:href="#m0080dd618d" x="50.321875" y="134.462276" style="stroke: #000000; stroke-width: 0.8"/>
      </g>
     </g>
     <g id="text_2">
      <!--   -6 -->
      <g transform="translate(7.2 140.200947) scale(0.15 -0.15)">
       <defs>
        <path id="DejaVuSansMono-2d" d="M 1113 2009 
L 2741 2009 
L 2741 1497 
L 1113 1497 
L 1113 2009 
z
" transform="scale(0.015625)"/>
        <path id="DejaVuSansMono-36" d="M 3097 4563 
L 3097 3981 
Q 2900 4097 2678 4158 
Q 2456 4219 2216 4219 
Q 1616 4219 1306 3767 
Q 997 3316 997 2438 
Q 1147 2750 1412 2917 
Q 1678 3084 2022 3084 
Q 2697 3084 3067 2670 
Q 3438 2256 3438 1497 
Q 3438 741 3056 325 
Q 2675 -91 1984 -91 
Q 1172 -91 794 492 
Q 416 1075 416 2328 
Q 416 3509 870 4129 
Q 1325 4750 2188 4750 
Q 2419 4750 2650 4701 
Q 2881 4653 3097 4563 
z
M 1972 2591 
Q 1569 2591 1337 2300 
Q 1106 2009 1106 1497 
Q 1106 984 1337 693 
Q 1569 403 1972 403 
Q 2391 403 2603 679 
Q 2816 956 2816 1497 
Q 2816 2041 2603 2316 
Q 2391 2591 1972 2591 
z
" transform="scale(0.015625)"/>
       </defs>
       <use xlink:href="#DejaVuSansMono-20"/>
       <use xlink:href="#DejaVuSansMono-20" x="60.205078"/>
       <use xlink:href="#DejaVuSansMono-2d" x="120.410156"/>
       <use xlink:href="#DejaVuSansMono-36" x="180.615234"/>
      </g>
     </g>
    </g>
    <g id="ytick_3">
     <g id="line2d_3">
      <g>
       <use xlink:href="#m0080dd618d" x="50.321875" y="37.065912" style="stroke: #000000; stroke-width: 0.8"/>
      </g>
     </g>
     <g id="text_3">
      <!--    7 -->
      <g transform="translate(7.2 42.804584) scale(0.15 -0.15)">
       <defs>
        <path id="DejaVuSansMono-37" d="M 434 4666 
L 3372 4666 
L 3372 4397 
L 1703 0 
L 1044 0 
L 2669 4134 
L 434 4134 
L 434 4666 
z
" transform="scale(0.015625)"/>
       </defs>
       <use xlink:href="#DejaVuSansMono-20"/>
       <use xlink:href="#DejaVuSansMono-20" x="60.205078"/>
       <use xlink:href="#DejaVuSansMono-20" x="120.410156"/>
       <use xlink:href="#DejaVuSansMono-37" x="180.615234"/>
      </g>
     </g>
    </g>
   </g>
   <g id="line2d_4">
    <path clip-path="url(#p029b277b7b)" style="fill: none; stroke: #424242; stroke-width: 2.7; stroke-linecap: square"/>
   </g>
   <g id="line2d_5">
    <path clip-path="url(#p029b277b7b)" style="fill: none; stroke: #424242; stroke-width: 2.7; stroke-linecap: square"/>
   </g>
   <g id="line2d_6">
    <path clip-path="url(#p029b277b7b)" style="fill: none; stroke: #424242; stroke-width: 2.7; stroke-linecap: square"/>
   </g>
   <g id="line2d_7">
    <path clip-path="url(#p029b277b7b)" style="fill: none; stroke: #424242; stroke-width: 2.7; stroke-linecap: square"/>
   </g>
   <g id="line2d_8">
    <path clip-path="url(#p029b277b7b)" style="fill: none; stroke: #424242; stroke-width: 2.7; stroke-linecap: square"/>
   </g>
   <g id="line2d_9">
    <path clip-path="url(#p029b277b7b)" style="fill: none; stroke: #424242; stroke-width: 2.7; stroke-linecap: square"/>
   </g>
   <g id="line2d_10">
    <path clip-path="url(#p029b277b7b)" style="fill: none; stroke: #424242; stroke-width: 2.7; stroke-linecap: square"/>
   </g>
   <g id="line2d_11">
    <path clip-path="url(#p029b277b7b)" style="fill: none; stroke: #424242; stroke-width: 2.7; stroke-linecap: square"/>
   </g>
   <g id="line2d_12">
    <path clip-path="url(#p029b277b7b)" style="fill: none; stroke: #424242; stroke-width: 2.7; stroke-linecap: square"/>
   </g>
   <g id="line2d_13">
    <path clip-path="url(#p029b277b7b)" style="fill: none; stroke: #424242; stroke-width: 2.7; stroke-linecap: square"/>
   </g>
   <g id="line2d_14">
    <path clip-path="url(#p029b277b7b)" style="fill: none; stroke: #424242; stroke-width: 2.7; stroke-linecap: square"/>
   </g>
   <g id="line2d_15">
    <path clip-path="url(#p029b277b7b)" style="fill: none; stroke: #424242; stroke-width: 2.7; stroke-linecap: square"/>
   </g>
   <g id="line2d_16">
    <path clip-path="url(#p029b277b7b)" style="fill: none; stroke: #424242; stroke-width: 2.7; stroke-linecap: square"/>
   </g>
   <g id="line2d_17">
    <path clip-path="url(#p029b277b7b)" style="fill: none; stroke: #424242; stroke-width: 2.7; stroke-linecap: square"/>
   </g>
   <g id="line2d_18">
    <path clip-path="url(#p029b277b7b)" style="fill: none; stroke: #424242; stroke-width: 2.7; stroke-linecap: square"/>
   </g>
   <g id="line2d_19">
    <path clip-path="url(#p029b277b7b)" style="fill: none; stroke: #424242; stroke-width: 2.7; stroke-linecap: square"/>
   </g>
   <g id="line2d_20">
    <path clip-path="url(#p029b277b7b)" style="fill: none; stroke: #424242; stroke-width: 2.7; stroke-linecap: square"/>
   </g>
   <g id="line2d_21">
    <path clip-path="url(#p029b277b7b)" style="fill: none; stroke: #424242; stroke-width: 2.7; stroke-linecap: square"/>
   </g>
   <g id="line2d_22">
    <path clip-path="url(#p029b277b7b)" style="fill: none; stroke: #424242; stroke-width: 2.7; stroke-linecap: square"/>
   </g>
   <g id="line2d_23">
    <path clip-path="url(#p029b277b7b)" style="fill: none; stroke: #424242; stroke-width: 2.7; stroke-linecap: square"/>
   </g>
   <g id="line2d_24">
    <path clip-path="url(#p029b277b7b)" style="fill: none; stroke: #424242; stroke-width: 2.7; stroke-linecap: square"/>
   </g>
   <g id="line2d_25">
    <path clip-path="url(#p029b277b7b)" style="fill: none; stroke: #424242; stroke-width: 2.7; stroke-linecap: square"/>
   </g>
   <g id="line2d_26">
    <path clip-path="url(#p029b277b7b)" style="fill: none; stroke: #424242; stroke-width: 2.7; stroke-linecap: square"/>
   </g>
   <g id="line2d_27">
    <path clip-path="url(#p029b277b7b)" style="fill: none; stroke: #424242; stroke-width: 2.7; stroke-linecap: square"/>
   </g>
   <g id="line2d_28">
    <path clip-path="url(#p029b277b7b)" style="fill: none; stroke: #424242; stroke-width: 2.7; stroke-linecap: square"/>
   </g>
   <g id="line2d_29">
    <path clip-path="url(#p029b277b7b)" style="fill: none; stroke: #424242; stroke-width: 2.7; stroke-linecap: square"/>
   </g>
   <g id="line2d_30">
    <path clip-path="url(#p029b277b7b)" style="fill: none; stroke: #424242; stroke-width: 2.7; stroke-linecap: square"/>
   </g>
   <g id="line2d_31">
    <path clip-path="url(#p029b277b7b)" style="fill: none; stroke: #424242; stroke-width: 2.7; stroke-linecap: square"/>
   </g>
   <g id="line2d_32">
    <path clip-path="url(#p029b277b7b)" style="fill: none; stroke: #424242; stroke-width: 2.7; stroke-linecap: square"/>
   </g>
   <g id="line2d_33">
    <path clip-path="url(#p029b277b7b)" style="fill: none; stroke: #424242; stroke-width: 2.7; stroke-linecap: square"/>
   </g>
   <g id="line2d_34">
    <path clip-path="url(#p029b277b7b)" style="fill: none; stroke: #424242; stroke-width: 2.7; stroke-linecap: square"/>
   </g>
   <g id="line2d_35">
    <path clip-path="url(#p029b277b7b)" style="fill: none; stroke: #424242; stroke-width: 2.7; stroke-linecap: square"/>
   </g>
   <g id="line2d_36">
    <path clip-path="url(#p029b277b7b)" style="fill: none; stroke: #424242; stroke-width: 2.7; stroke-linecap: square"/>
   </g>
   <g id="line2d_37">
    <path clip-path="url(#p029b277b7b)" style="fill: none; stroke: #424242; stroke-width: 2.7; stroke-linecap: square"/>
   </g>
   <g id="line2d_38">
    <path clip-path="url(#p029b277b7b)" style="fill: none; stroke: #424242; stroke-width: 2.7; stroke-linecap: square"/>
   </g>
   <g id="line2d_39">
    <path clip-path="url(#p029b277b7b)" style="fill: none; stroke: #424242; stroke-width: 2.7; stroke-linecap: square"/>
   </g>
   <g id="line2d_40">
    <path clip-path="url(#p029b277b7b)" style="fill: none; stroke: #424242; stroke-width: 2.7; stroke-linecap: square"/>
   </g>
   <g id="line2d_41">
    <path clip-path="url(#p029b277b7b)" style="fill: none; stroke: #424242; stroke-width: 2.7; stroke-linecap: square"/>
   </g>
   <g id="line2d_42">
    <path clip-path="url(#p029b277b7b)" style="fill: none; stroke: #424242; stroke-width: 2.7; stroke-linecap: square"/>
   </g>
   <g id="line2d_43">
    <path clip-path="url(#p029b277b7b)" style="fill: none; stroke: #424242; stroke-width: 2.7; stroke-linecap: square"/>
   </g>
   <g id="line2d_44">
    <path clip-path="url(#p029b277b7b)" style="fill: none; stroke: #424242; stroke-width: 2.7; stroke-linecap: square"/>
   </g>
   <g id="line2d_45">
    <path clip-path="url(#p029b277b7b)" style="fill: none; stroke: #424242; stroke-width: 2.7; stroke-linecap: square"/>
   </g>
   <g id="line2d_46">
    <path clip-path="url(#p029b277b7b)" style="fill: none; stroke: #424242; stroke-width: 2.7; stroke-linecap: square"/>
   </g>
   <g id="line2d_47">
    <path clip-path="url(#p029b277b7b)" style="fill: none; stroke: #424242; stroke-width: 2.7; stroke-linecap: square"/>
   </g>
   <g id="line2d_48">
    <path clip-path="url(#p029b277b7b)" style="fill: none; stroke: #424242; stroke-width: 2.7; stroke-linecap: square"/>
   </g>
   <g id="line2d_49">
    <path clip-path="url(#p029b277b7b)" style="fill: none; stroke: #424242; stroke-width: 2.7; stroke-linecap: square"/>
   </g>
   <g id="line2d_50">
    <path clip-path="url(#p029b277b7b)" style="fill: none; stroke: #424242; stroke-width: 2.7; stroke-linecap: square"/>
   </g>
   <g id="line2d_51">
    <path clip-path="url(#p029b277b7b)" style="fill: none; stroke: #424242; stroke-width: 2.7; stroke-linecap: square"/>
   </g>
   <g id="line2d_52">
    <path clip-path="url(#p029b277b7b)" style="fill: none; stroke: #424242; stroke-width: 2.7; stroke-linecap: square"/>
   </g>
   <g id="line2d_53">
    <path clip-path="url(#p029b277b7b)" style="fill: none; stroke: #424242; stroke-width: 2.7; stroke-linecap: square"/>
   </g>
   <g id="patch_53">
    <path d="M 50.321875 139.332094 
L 50.321875 32.196094 
" style="fill: none; stroke: #000000; stroke-width: 0.8; stroke-linejoin: miter; stroke-linecap: square"/>
   </g>
   <g id="patch_54">
    <path d="M 407.441875 139.332094 
L 407.441875 32.196094 
" style="fill: none; stroke: #000000; stroke-width: 0.8; stroke-linejoin: miter; stroke-linecap: square"/>
   </g>
   <g id="patch_55">
    <path d="M 50.321875 139.332094 
L 407.441875 139.332094 
" style="fill: none; stroke: #000000; stroke-width: 0.8; stroke-linejoin: miter; stroke-linecap: square"/>
   </g>
   <g id="patch_56">
    <path d="M 50.321875 32.196094 
L 407.441875 32.196094 
" style="fill: none; stroke: #000000; stroke-width: 0.8; stroke-linejoin: miter; stroke-linecap: square"/>
   </g>
   <g id="text_4">
    <!-- grep -->
    <g transform="translate(200.461953 26.196094) scale(0.25 -0.25)">
     <defs>
      <path id="DejaVuSans-67" d="M 2906 1791 
Q 2906 2416 2648 2759 
Q 2391 3103 1925 3103 
Q 1463 3103 1205 2759 
Q 947 2416 947 1791 
Q 947 1169 1205 825 
Q 1463 481 1925 481 
Q 2391 481 2648 825 
Q 2906 1169 2906 1791 
z
M 3481 434 
Q 3481 -459 3084 -895 
Q 2688 -1331 1869 -1331 
Q 1566 -1331 1297 -1286 
Q 1028 -1241 775 -1147 
L 775 -588 
Q 1028 -725 1275 -790 
Q 1522 -856 1778 -856 
Q 2344 -856 2625 -561 
Q 2906 -266 2906 331 
L 2906 616 
Q 2728 306 2450 153 
Q 2172 0 1784 0 
Q 1141 0 747 490 
Q 353 981 353 1791 
Q 353 2603 747 3093 
Q 1141 3584 1784 3584 
Q 2172 3584 2450 3431 
Q 2728 3278 2906 2969 
L 2906 3500 
L 3481 3500 
L 3481 434 
z
" transform="scale(0.015625)"/>
      <path id="DejaVuSans-72" d="M 2631 2963 
Q 2534 3019 2420 3045 
Q 2306 3072 2169 3072 
Q 1681 3072 1420 2755 
Q 1159 2438 1159 1844 
L 1159 0 
L 581 0 
L 581 3500 
L 1159 3500 
L 1159 2956 
Q 1341 3275 1631 3429 
Q 1922 3584 2338 3584 
Q 2397 3584 2469 3576 
Q 2541 3569 2628 3553 
L 2631 2963 
z
" transform="scale(0.015625)"/>
      <path id="DejaVuSans-65" d="M 3597 1894 
L 3597 1613 
L 953 1613 
Q 991 1019 1311 708 
Q 1631 397 2203 397 
Q 2534 397 2845 478 
Q 3156 559 3463 722 
L 3463 178 
Q 3153 47 2828 -22 
Q 2503 -91 2169 -91 
Q 1331 -91 842 396 
Q 353 884 353 1716 
Q 353 2575 817 3079 
Q 1281 3584 2069 3584 
Q 2775 3584 3186 3129 
Q 3597 2675 3597 1894 
z
M 3022 2063 
Q 3016 2534 2758 2815 
Q 2500 3097 2075 3097 
Q 1594 3097 1305 2825 
Q 1016 2553 972 2059 
L 3022 2063 
z
" transform="scale(0.015625)"/>
      <path id="DejaVuSans-70" d="M 1159 525 
L 1159 -1331 
L 581 -1331 
L 581 3500 
L 1159 3500 
L 1159 2969 
Q 1341 3281 1617 3432 
Q 1894 3584 2278 3584 
Q 2916 3584 3314 3078 
Q 3713 2572 3713 1747 
Q 3713 922 3314 415 
Q 2916 -91 2278 -91 
Q 1894 -91 1617 61 
Q 1341 213 1159 525 
z
M 3116 1747 
Q 3116 2381 2855 2742 
Q 2594 3103 2138 3103 
Q 1681 3103 1420 2742 
Q 1159 2381 1159 1747 
Q 1159 1113 1420 752 
Q 1681 391 2138 391 
Q 2594 391 2855 752 
Q 3116 1113 3116 1747 
z
" transform="scale(0.015625)"/>
     </defs>
     <use xlink:href="#DejaVuSans-67"/>
     <use xlink:href="#DejaVuSans-72" x="63.476562"/>
     <use xlink:href="#DejaVuSans-65" x="102.339844"/>
     <use xlink:href="#DejaVuSans-70" x="163.863281"/>
    </g>
   </g>
  </g>
 </g>
 <defs>
  <clipPath id="p029b277b7b">
   <rect x="50.321875" y="32.196094" width="357.12" height="107.136"/>
  </clipPath>
 </defs>
</svg>
