<?xml version="1.0" encoding="utf-8" standalone="no"?>
<!DOCTYPE svg PUBLIC "-//W3C//DTD SVG 1.1//EN"
  "http://www.w3.org/Graphics/SVG/1.1/DTD/svg11.dtd">
<svg xmlns:xlink="http://www.w3.org/1999/xlink" width="440.47375pt" height="438.513437pt" viewBox="0 0 440.47375 438.513437" xmlns="http://www.w3.org/2000/svg" version="1.1">
 <metadata>
  <rdf:RDF xmlns:dc="http://purl.org/dc/elements/1.1/" xmlns:cc="http://creativecommons.org/ns#" xmlns:rdf="http://www.w3.org/1999/02/22-rdf-syntax-ns#">
   <cc:Work>
    <dc:type rdf:resource="http://purl.org/dc/dcmitype/StillImage"/>
    <dc:date>2022-02-23T14:18:51.959936</dc:date>
    <dc:format>image/svg+xml</dc:format>
    <dc:creator>
     <cc:Agent>
      <dc:title>Matplotlib v3.5.1, https://matplotlib.org/</dc:title>
     </cc:Agent>
    </dc:creator>
   </cc:Work>
  </rdf:RDF>
 </metadata>
 <defs>
  <style type="text/css">*{stroke-linejoin: round; stroke-linecap: butt}</style>
 </defs>
 <g id="figure_1">
  <g id="patch_1">
   <path d="M 0 438.513437 
L 440.47375 438.513437 
L 440.47375 0 
L 0 0 
z
" style="fill: #ffffff"/>
  </g>
  <g id="axes_1">
   <g id="patch_2">
    <path d="M 56.64375 386.44 
L 368.708607 386.44 
L 368.708607 72.212571 
L 56.64375 72.212571 
z
" style="fill: #ffffff"/>
   </g>
   <g id="PathCollection_1">
    <defs>
     <path id="m6ba15f8ae3" d="M 0 4.330127 
C 1.148363 4.330127 2.249847 3.873878 3.061862 3.061862 
C 3.873878 2.249847 4.330127 1.148363 4.330127 0 
C 4.330127 -1.148363 3.873878 -2.249847 3.061862 -3.061862 
C 2.249847 -3.873878 1.148363 -4.330127 0 -4.330127 
C -1.148363 -4.330127 -2.249847 -3.873878 -3.061862 -3.061862 
C -3.873878 -2.249847 -4.330127 -1.148363 -4.330127 0 
C -4.330127 1.148363 -3.873878 2.249847 -3.061862 3.061862 
C -2.249847 3.873878 -1.148363 4.330127 0 4.330127 
z
" style="stroke: #ffffff; stroke-opacity: 0.5; stroke-width: 0.69282"/>
    </defs>
    <g clip-path="url(#p072095a689)">
     <use xlink:href="#m6ba15f8ae3" x="96.158456" y="278.667783" style="fill: #1f77b4; fill-opacity: 0.5; stroke: #ffffff; stroke-opacity: 0.5; stroke-width: 0.69282"/>
     <use xlink:href="#m6ba15f8ae3" x="282.333513" y="237.117048" style="fill: #1f77b4; fill-opacity: 0.5; stroke: #ffffff; stroke-opacity: 0.5; stroke-width: 0.69282"/>
     <use xlink:href="#m6ba15f8ae3" x="113.889414" y="242.31089" style="fill: #1f77b4; fill-opacity: 0.5; stroke: #ffffff; stroke-opacity: 0.5; stroke-width: 0.69282"/>
     <use xlink:href="#m6ba15f8ae3" x="130.353875" y="351.381568" style="fill: #1f77b4; fill-opacity: 0.5; stroke: #ffffff; stroke-opacity: 0.5; stroke-width: 0.69282"/>
     <use xlink:href="#m6ba15f8ae3" x="93.625462" y="320.218517" style="fill: #1f77b4; fill-opacity: 0.5; stroke: #ffffff; stroke-opacity: 0.5; stroke-width: 0.69282"/>
     <use xlink:href="#m6ba15f8ae3" x="156.950311" y="289.055466" style="fill: #1f77b4; fill-opacity: 0.5; stroke: #ffffff; stroke-opacity: 0.5; stroke-width: 0.69282"/>
     <use xlink:href="#m6ba15f8ae3" x="238.006118" y="315.024675" style="fill: #1f77b4; fill-opacity: 0.5; stroke: #ffffff; stroke-opacity: 0.5; stroke-width: 0.69282"/>
     <use xlink:href="#m6ba15f8ae3" x="89.825971" y="315.024675" style="fill: #1f77b4; fill-opacity: 0.5; stroke: #ffffff; stroke-opacity: 0.5; stroke-width: 0.69282"/>
     <use xlink:href="#m6ba15f8ae3" x="126.554384" y="205.953998" style="fill: #1f77b4; fill-opacity: 0.5; stroke: #ffffff; stroke-opacity: 0.5; stroke-width: 0.69282"/>
     <use xlink:href="#m6ba15f8ae3" x="111.35642" y="346.187726" style="fill: #1f77b4; fill-opacity: 0.5; stroke: #ffffff; stroke-opacity: 0.5; stroke-width: 0.69282"/>
     <use xlink:href="#m6ba15f8ae3" x="99.957947" y="320.218517" style="fill: #1f77b4; fill-opacity: 0.5; stroke: #ffffff; stroke-opacity: 0.5; stroke-width: 0.69282"/>
     <use xlink:href="#m6ba15f8ae3" x="98.69145" y="148.821738" style="fill: #1f77b4; fill-opacity: 0.5; stroke: #ffffff; stroke-opacity: 0.5; stroke-width: 0.69282"/>
     <use xlink:href="#m6ba15f8ae3" x="327.927404" y="190.372472" style="fill: #1f77b4; fill-opacity: 0.5; stroke: #ffffff; stroke-opacity: 0.5; stroke-width: 0.69282"/>
     <use xlink:href="#m6ba15f8ae3" x="78.427498" y="315.024675" style="fill: #1f77b4; fill-opacity: 0.5; stroke: #ffffff; stroke-opacity: 0.5; stroke-width: 0.69282"/>
     <use xlink:href="#m6ba15f8ae3" x="96.158456" y="231.923207" style="fill: #1f77b4; fill-opacity: 0.5; stroke: #ffffff; stroke-opacity: 0.5; stroke-width: 0.69282"/>
     <use xlink:href="#m6ba15f8ae3" x="87.292977" y="356.57541" style="fill: #1f77b4; fill-opacity: 0.5; stroke: #ffffff; stroke-opacity: 0.5; stroke-width: 0.69282"/>
     <use xlink:href="#m6ba15f8ae3" x="92.358965" y="351.381568" style="fill: #1f77b4; fill-opacity: 0.5; stroke: #ffffff; stroke-opacity: 0.5; stroke-width: 0.69282"/>
     <use xlink:href="#m6ba15f8ae3" x="143.018844" y="315.024675" style="fill: #1f77b4; fill-opacity: 0.5; stroke: #ffffff; stroke-opacity: 0.5; stroke-width: 0.69282"/>
     <use xlink:href="#m6ba15f8ae3" x="92.358965" y="299.44315" style="fill: #1f77b4; fill-opacity: 0.5; stroke: #ffffff; stroke-opacity: 0.5; stroke-width: 0.69282"/>
     <use xlink:href="#m6ba15f8ae3" x="306.396955" y="86.495636" style="fill: #1f77b4; fill-opacity: 0.5; stroke: #ffffff; stroke-opacity: 0.5; stroke-width: 0.69282"/>
     <use xlink:href="#m6ba15f8ae3" x="79.693995" y="247.504732" style="fill: #1f77b4; fill-opacity: 0.5; stroke: #ffffff; stroke-opacity: 0.5; stroke-width: 0.69282"/>
     <use xlink:href="#m6ba15f8ae3" x="159.483305" y="340.993884" style="fill: #1f77b4; fill-opacity: 0.5; stroke: #ffffff; stroke-opacity: 0.5; stroke-width: 0.69282"/>
     <use xlink:href="#m6ba15f8ae3" x="77.161001" y="340.993884" style="fill: #1f77b4; fill-opacity: 0.5; stroke: #ffffff; stroke-opacity: 0.5; stroke-width: 0.69282"/>
     <use xlink:href="#m6ba15f8ae3" x="89.825971" y="330.606201" style="fill: #1f77b4; fill-opacity: 0.5; stroke: #ffffff; stroke-opacity: 0.5; stroke-width: 0.69282"/>
     <use xlink:href="#m6ba15f8ae3" x="127.820881" y="242.31089" style="fill: #1f77b4; fill-opacity: 0.5; stroke: #ffffff; stroke-opacity: 0.5; stroke-width: 0.69282"/>
     <use xlink:href="#m6ba15f8ae3" x="75.894504" y="351.381568" style="fill: #1f77b4; fill-opacity: 0.5; stroke: #ffffff; stroke-opacity: 0.5; stroke-width: 0.69282"/>
     <use xlink:href="#m6ba15f8ae3" x="80.960492" y="361.769251" style="fill: #1f77b4; fill-opacity: 0.5; stroke: #ffffff; stroke-opacity: 0.5; stroke-width: 0.69282"/>
     <use xlink:href="#m6ba15f8ae3" x="84.759983" y="366.963093" style="fill: #1f77b4; fill-opacity: 0.5; stroke: #ffffff; stroke-opacity: 0.5; stroke-width: 0.69282"/>
     <use xlink:href="#m6ba15f8ae3" x="70.828516" y="294.249308" style="fill: #1f77b4; fill-opacity: 0.5; stroke: #ffffff; stroke-opacity: 0.5; stroke-width: 0.69282"/>
     <use xlink:href="#m6ba15f8ae3" x="96.158456" y="190.372472" style="fill: #1f77b4; fill-opacity: 0.5; stroke: #ffffff; stroke-opacity: 0.5; stroke-width: 0.69282"/>
     <use xlink:href="#m6ba15f8ae3" x="72.095013" y="309.830834" style="fill: #1f77b4; fill-opacity: 0.5; stroke: #ffffff; stroke-opacity: 0.5; stroke-width: 0.69282"/>
     <use xlink:href="#m6ba15f8ae3" x="73.36151" y="304.636992" style="fill: #1f77b4; fill-opacity: 0.5; stroke: #ffffff; stroke-opacity: 0.5; stroke-width: 0.69282"/>
     <use xlink:href="#m6ba15f8ae3" x="168.348784" y="320.218517" style="fill: #1f77b4; fill-opacity: 0.5; stroke: #ffffff; stroke-opacity: 0.5; stroke-width: 0.69282"/>
     <use xlink:href="#m6ba15f8ae3" x="88.559474" y="325.412359" style="fill: #1f77b4; fill-opacity: 0.5; stroke: #ffffff; stroke-opacity: 0.5; stroke-width: 0.69282"/>
     <use xlink:href="#m6ba15f8ae3" x="74.628007" y="335.800043" style="fill: #1f77b4; fill-opacity: 0.5; stroke: #ffffff; stroke-opacity: 0.5; stroke-width: 0.69282"/>
     <use xlink:href="#m6ba15f8ae3" x="96.158456" y="185.17863" style="fill: #1f77b4; fill-opacity: 0.5; stroke: #ffffff; stroke-opacity: 0.5; stroke-width: 0.69282"/>
     <use xlink:href="#m6ba15f8ae3" x="74.628007" y="346.187726" style="fill: #1f77b4; fill-opacity: 0.5; stroke: #ffffff; stroke-opacity: 0.5; stroke-width: 0.69282"/>
     <use xlink:href="#m6ba15f8ae3" x="77.161001" y="356.57541" style="fill: #1f77b4; fill-opacity: 0.5; stroke: #ffffff; stroke-opacity: 0.5; stroke-width: 0.69282"/>
     <use xlink:href="#m6ba15f8ae3" x="313.995937" y="320.218517" style="fill: #1f77b4; fill-opacity: 0.5; stroke: #ffffff; stroke-opacity: 0.5; stroke-width: 0.69282"/>
     <use xlink:href="#m6ba15f8ae3" x="72.095013" y="200.760156" style="fill: #1f77b4; fill-opacity: 0.5; stroke: #ffffff; stroke-opacity: 0.5; stroke-width: 0.69282"/>
     <use xlink:href="#m6ba15f8ae3" x="70.828516" y="361.769251" style="fill: #1f77b4; fill-opacity: 0.5; stroke: #ffffff; stroke-opacity: 0.5; stroke-width: 0.69282"/>
     <use xlink:href="#m6ba15f8ae3" x="158.216808" y="154.01558" style="fill: #1f77b4; fill-opacity: 0.5; stroke: #ffffff; stroke-opacity: 0.5; stroke-width: 0.69282"/>
     <use xlink:href="#m6ba15f8ae3" x="101.224444" y="325.412359" style="fill: #1f77b4; fill-opacity: 0.5; stroke: #ffffff; stroke-opacity: 0.5; stroke-width: 0.69282"/>
     <use xlink:href="#m6ba15f8ae3" x="97.424953" y="356.57541" style="fill: #1f77b4; fill-opacity: 0.5; stroke: #ffffff; stroke-opacity: 0.5; stroke-width: 0.69282"/>
     <use xlink:href="#m6ba15f8ae3" x="110.089923" y="366.963093" style="fill: #1f77b4; fill-opacity: 0.5; stroke: #ffffff; stroke-opacity: 0.5; stroke-width: 0.69282"/>
     <use xlink:href="#m6ba15f8ae3" x="191.14573" y="294.249308" style="fill: #1f77b4; fill-opacity: 0.5; stroke: #ffffff; stroke-opacity: 0.5; stroke-width: 0.69282"/>
     <use xlink:href="#m6ba15f8ae3" x="187.346239" y="351.381568" style="fill: #1f77b4; fill-opacity: 0.5; stroke: #ffffff; stroke-opacity: 0.5; stroke-width: 0.69282"/>
     <use xlink:href="#m6ba15f8ae3" x="82.226989" y="320.218517" style="fill: #1f77b4; fill-opacity: 0.5; stroke: #ffffff; stroke-opacity: 0.5; stroke-width: 0.69282"/>
     <use xlink:href="#m6ba15f8ae3" x="77.161001" y="268.280099" style="fill: #1f77b4; fill-opacity: 0.5; stroke: #ffffff; stroke-opacity: 0.5; stroke-width: 0.69282"/>
     <use xlink:href="#m6ba15f8ae3" x="82.226989" y="320.218517" style="fill: #1f77b4; fill-opacity: 0.5; stroke: #ffffff; stroke-opacity: 0.5; stroke-width: 0.69282"/>
     <use xlink:href="#m6ba15f8ae3" x="175.947766" y="361.769251" style="fill: #1f77b4; fill-opacity: 0.5; stroke: #ffffff; stroke-opacity: 0.5; stroke-width: 0.69282"/>
     <use xlink:href="#m6ba15f8ae3" x="99.957947" y="252.698574" style="fill: #1f77b4; fill-opacity: 0.5; stroke: #ffffff; stroke-opacity: 0.5; stroke-width: 0.69282"/>
     <use xlink:href="#m6ba15f8ae3" x="72.095013" y="372.156935" style="fill: #1f77b4; fill-opacity: 0.5; stroke: #ffffff; stroke-opacity: 0.5; stroke-width: 0.69282"/>
     <use xlink:href="#m6ba15f8ae3" x="354.523841" y="335.800043" style="fill: #1f77b4; fill-opacity: 0.5; stroke: #ffffff; stroke-opacity: 0.5; stroke-width: 0.69282"/>
     <use xlink:href="#m6ba15f8ae3" x="125.287887" y="294.249308" style="fill: #1f77b4; fill-opacity: 0.5; stroke: #ffffff; stroke-opacity: 0.5; stroke-width: 0.69282"/>
     <use xlink:href="#m6ba15f8ae3" x="89.825971" y="361.769251" style="fill: #1f77b4; fill-opacity: 0.5; stroke: #ffffff; stroke-opacity: 0.5; stroke-width: 0.69282"/>
     <use xlink:href="#m6ba15f8ae3" x="74.628007" y="356.57541" style="fill: #1f77b4; fill-opacity: 0.5; stroke: #ffffff; stroke-opacity: 0.5; stroke-width: 0.69282"/>
     <use xlink:href="#m6ba15f8ae3" x="88.559474" y="361.769251" style="fill: #1f77b4; fill-opacity: 0.5; stroke: #ffffff; stroke-opacity: 0.5; stroke-width: 0.69282"/>
     <use xlink:href="#m6ba15f8ae3" x="97.424953" y="221.535523" style="fill: #1f77b4; fill-opacity: 0.5; stroke: #ffffff; stroke-opacity: 0.5; stroke-width: 0.69282"/>
     <use xlink:href="#m6ba15f8ae3" x="187.346239" y="247.504732" style="fill: #1f77b4; fill-opacity: 0.5; stroke: #ffffff; stroke-opacity: 0.5; stroke-width: 0.69282"/>
     <use xlink:href="#m6ba15f8ae3" x="107.556929" y="330.606201" style="fill: #1f77b4; fill-opacity: 0.5; stroke: #ffffff; stroke-opacity: 0.5; stroke-width: 0.69282"/>
     <use xlink:href="#m6ba15f8ae3" x="79.693995" y="346.187726" style="fill: #1f77b4; fill-opacity: 0.5; stroke: #ffffff; stroke-opacity: 0.5; stroke-width: 0.69282"/>
     <use xlink:href="#m6ba15f8ae3" x="102.490941" y="325.412359" style="fill: #1f77b4; fill-opacity: 0.5; stroke: #ffffff; stroke-opacity: 0.5; stroke-width: 0.69282"/>
     <use xlink:href="#m6ba15f8ae3" x="272.201537" y="361.769251" style="fill: #1f77b4; fill-opacity: 0.5; stroke: #ffffff; stroke-opacity: 0.5; stroke-width: 0.69282"/>
     <use xlink:href="#m6ba15f8ae3" x="97.424953" y="366.963093" style="fill: #1f77b4; fill-opacity: 0.5; stroke: #ffffff; stroke-opacity: 0.5; stroke-width: 0.69282"/>
     <use xlink:href="#m6ba15f8ae3" x="82.226989" y="289.055466" style="fill: #1f77b4; fill-opacity: 0.5; stroke: #ffffff; stroke-opacity: 0.5; stroke-width: 0.69282"/>
     <use xlink:href="#m6ba15f8ae3" x="227.874142" y="237.117048" style="fill: #1f77b4; fill-opacity: 0.5; stroke: #ffffff; stroke-opacity: 0.5; stroke-width: 0.69282"/>
     <use xlink:href="#m6ba15f8ae3" x="191.14573" y="294.249308" style="fill: #1f77b4; fill-opacity: 0.5; stroke: #ffffff; stroke-opacity: 0.5; stroke-width: 0.69282"/>
     <use xlink:href="#m6ba15f8ae3" x="139.219353" y="299.44315" style="fill: #1f77b4; fill-opacity: 0.5; stroke: #ffffff; stroke-opacity: 0.5; stroke-width: 0.69282"/>
     <use xlink:href="#m6ba15f8ae3" x="111.35642" y="330.606201" style="fill: #1f77b4; fill-opacity: 0.5; stroke: #ffffff; stroke-opacity: 0.5; stroke-width: 0.69282"/>
     <use xlink:href="#m6ba15f8ae3" x="113.889414" y="289.055466" style="fill: #1f77b4; fill-opacity: 0.5; stroke: #ffffff; stroke-opacity: 0.5; stroke-width: 0.69282"/>
     <use xlink:href="#m6ba15f8ae3" x="96.158456" y="325.412359" style="fill: #1f77b4; fill-opacity: 0.5; stroke: #ffffff; stroke-opacity: 0.5; stroke-width: 0.69282"/>
     <use xlink:href="#m6ba15f8ae3" x="311.462943" y="268.280099" style="fill: #1f77b4; fill-opacity: 0.5; stroke: #ffffff; stroke-opacity: 0.5; stroke-width: 0.69282"/>
     <use xlink:href="#m6ba15f8ae3" x="96.158456" y="294.249308" style="fill: #1f77b4; fill-opacity: 0.5; stroke: #ffffff; stroke-opacity: 0.5; stroke-width: 0.69282"/>
     <use xlink:href="#m6ba15f8ae3" x="93.625462" y="356.57541" style="fill: #1f77b4; fill-opacity: 0.5; stroke: #ffffff; stroke-opacity: 0.5; stroke-width: 0.69282"/>
     <use xlink:href="#m6ba15f8ae3" x="125.287887" y="263.086257" style="fill: #1f77b4; fill-opacity: 0.5; stroke: #ffffff; stroke-opacity: 0.5; stroke-width: 0.69282"/>
     <use xlink:href="#m6ba15f8ae3" x="151.884323" y="216.341681" style="fill: #1f77b4; fill-opacity: 0.5; stroke: #ffffff; stroke-opacity: 0.5; stroke-width: 0.69282"/>
     <use xlink:href="#m6ba15f8ae3" x="97.424953" y="366.963093" style="fill: #1f77b4; fill-opacity: 0.5; stroke: #ffffff; stroke-opacity: 0.5; stroke-width: 0.69282"/>
     <use xlink:href="#m6ba15f8ae3" x="84.759983" y="226.729365" style="fill: #1f77b4; fill-opacity: 0.5; stroke: #ffffff; stroke-opacity: 0.5; stroke-width: 0.69282"/>
     <use xlink:href="#m6ba15f8ae3" x="94.891959" y="346.187726" style="fill: #1f77b4; fill-opacity: 0.5; stroke: #ffffff; stroke-opacity: 0.5; stroke-width: 0.69282"/>
     <use xlink:href="#m6ba15f8ae3" x="72.095013" y="356.57541" style="fill: #1f77b4; fill-opacity: 0.5; stroke: #ffffff; stroke-opacity: 0.5; stroke-width: 0.69282"/>
     <use xlink:href="#m6ba15f8ae3" x="92.358965" y="96.88332" style="fill: #1f77b4; fill-opacity: 0.5; stroke: #ffffff; stroke-opacity: 0.5; stroke-width: 0.69282"/>
     <use xlink:href="#m6ba15f8ae3" x="80.960492" y="304.636992" style="fill: #1f77b4; fill-opacity: 0.5; stroke: #ffffff; stroke-opacity: 0.5; stroke-width: 0.69282"/>
     <use xlink:href="#m6ba15f8ae3" x="86.02648" y="263.086257" style="fill: #1f77b4; fill-opacity: 0.5; stroke: #ffffff; stroke-opacity: 0.5; stroke-width: 0.69282"/>
     <use xlink:href="#m6ba15f8ae3" x="117.688905" y="309.830834" style="fill: #1f77b4; fill-opacity: 0.5; stroke: #ffffff; stroke-opacity: 0.5; stroke-width: 0.69282"/>
     <use xlink:href="#m6ba15f8ae3" x="264.602555" y="200.760156" style="fill: #1f77b4; fill-opacity: 0.5; stroke: #ffffff; stroke-opacity: 0.5; stroke-width: 0.69282"/>
     <use xlink:href="#m6ba15f8ae3" x="74.628007" y="304.636992" style="fill: #1f77b4; fill-opacity: 0.5; stroke: #ffffff; stroke-opacity: 0.5; stroke-width: 0.69282"/>
     <use xlink:href="#m6ba15f8ae3" x="96.158456" y="237.117048" style="fill: #1f77b4; fill-opacity: 0.5; stroke: #ffffff; stroke-opacity: 0.5; stroke-width: 0.69282"/>
     <use xlink:href="#m6ba15f8ae3" x="141.752347" y="340.993884" style="fill: #1f77b4; fill-opacity: 0.5; stroke: #ffffff; stroke-opacity: 0.5; stroke-width: 0.69282"/>
     <use xlink:href="#m6ba15f8ae3" x="97.424953" y="315.024675" style="fill: #1f77b4; fill-opacity: 0.5; stroke: #ffffff; stroke-opacity: 0.5; stroke-width: 0.69282"/>
     <use xlink:href="#m6ba15f8ae3" x="73.36151" y="330.606201" style="fill: #1f77b4; fill-opacity: 0.5; stroke: #ffffff; stroke-opacity: 0.5; stroke-width: 0.69282"/>
     <use xlink:href="#m6ba15f8ae3" x="70.828516" y="174.790947" style="fill: #1f77b4; fill-opacity: 0.5; stroke: #ffffff; stroke-opacity: 0.5; stroke-width: 0.69282"/>
     <use xlink:href="#m6ba15f8ae3" x="97.424953" y="299.44315" style="fill: #1f77b4; fill-opacity: 0.5; stroke: #ffffff; stroke-opacity: 0.5; stroke-width: 0.69282"/>
     <use xlink:href="#m6ba15f8ae3" x="267.135549" y="340.993884" style="fill: #1f77b4; fill-opacity: 0.5; stroke: #ffffff; stroke-opacity: 0.5; stroke-width: 0.69282"/>
     <use xlink:href="#m6ba15f8ae3" x="77.161001" y="356.57541" style="fill: #1f77b4; fill-opacity: 0.5; stroke: #ffffff; stroke-opacity: 0.5; stroke-width: 0.69282"/>
     <use xlink:href="#m6ba15f8ae3" x="80.960492" y="299.44315" style="fill: #1f77b4; fill-opacity: 0.5; stroke: #ffffff; stroke-opacity: 0.5; stroke-width: 0.69282"/>
     <use xlink:href="#m6ba15f8ae3" x="118.955402" y="351.381568" style="fill: #1f77b4; fill-opacity: 0.5; stroke: #ffffff; stroke-opacity: 0.5; stroke-width: 0.69282"/>
     <use xlink:href="#m6ba15f8ae3" x="89.825971" y="278.667783" style="fill: #1f77b4; fill-opacity: 0.5; stroke: #ffffff; stroke-opacity: 0.5; stroke-width: 0.69282"/>
     <use xlink:href="#m6ba15f8ae3" x="231.673633" y="263.086257" style="fill: #1f77b4; fill-opacity: 0.5; stroke: #ffffff; stroke-opacity: 0.5; stroke-width: 0.69282"/>
     <use xlink:href="#m6ba15f8ae3" x="111.35642" y="325.412359" style="fill: #1f77b4; fill-opacity: 0.5; stroke: #ffffff; stroke-opacity: 0.5; stroke-width: 0.69282"/>
     <use xlink:href="#m6ba15f8ae3" x="82.226989" y="309.830834" style="fill: #1f77b4; fill-opacity: 0.5; stroke: #ffffff; stroke-opacity: 0.5; stroke-width: 0.69282"/>
     <use xlink:href="#m6ba15f8ae3" x="186.079742" y="159.209421" style="fill: #1f77b4; fill-opacity: 0.5; stroke: #ffffff; stroke-opacity: 0.5; stroke-width: 0.69282"/>
     <use xlink:href="#m6ba15f8ae3" x="84.759983" y="283.861625" style="fill: #1f77b4; fill-opacity: 0.5; stroke: #ffffff; stroke-opacity: 0.5; stroke-width: 0.69282"/>
     <use xlink:href="#m6ba15f8ae3" x="83.493486" y="179.984789" style="fill: #1f77b4; fill-opacity: 0.5; stroke: #ffffff; stroke-opacity: 0.5; stroke-width: 0.69282"/>
     <use xlink:href="#m6ba15f8ae3" x="72.095013" y="299.44315" style="fill: #1f77b4; fill-opacity: 0.5; stroke: #ffffff; stroke-opacity: 0.5; stroke-width: 0.69282"/>
     <use xlink:href="#m6ba15f8ae3" x="84.759983" y="361.769251" style="fill: #1f77b4; fill-opacity: 0.5; stroke: #ffffff; stroke-opacity: 0.5; stroke-width: 0.69282"/>
     <use xlink:href="#m6ba15f8ae3" x="77.161001" y="340.993884" style="fill: #1f77b4; fill-opacity: 0.5; stroke: #ffffff; stroke-opacity: 0.5; stroke-width: 0.69282"/>
     <use xlink:href="#m6ba15f8ae3" x="73.36151" y="346.187726" style="fill: #1f77b4; fill-opacity: 0.5; stroke: #ffffff; stroke-opacity: 0.5; stroke-width: 0.69282"/>
     <use xlink:href="#m6ba15f8ae3" x="74.628007" y="346.187726" style="fill: #1f77b4; fill-opacity: 0.5; stroke: #ffffff; stroke-opacity: 0.5; stroke-width: 0.69282"/>
     <use xlink:href="#m6ba15f8ae3" x="116.422408" y="278.667783" style="fill: #1f77b4; fill-opacity: 0.5; stroke: #ffffff; stroke-opacity: 0.5; stroke-width: 0.69282"/>
     <use xlink:href="#m6ba15f8ae3" x="106.290432" y="325.412359" style="fill: #1f77b4; fill-opacity: 0.5; stroke: #ffffff; stroke-opacity: 0.5; stroke-width: 0.69282"/>
     <use xlink:href="#m6ba15f8ae3" x="70.828516" y="356.57541" style="fill: #1f77b4; fill-opacity: 0.5; stroke: #ffffff; stroke-opacity: 0.5; stroke-width: 0.69282"/>
     <use xlink:href="#m6ba15f8ae3" x="120.221899" y="299.44315" style="fill: #1f77b4; fill-opacity: 0.5; stroke: #ffffff; stroke-opacity: 0.5; stroke-width: 0.69282"/>
     <use xlink:href="#m6ba15f8ae3" x="96.158456" y="252.698574" style="fill: #1f77b4; fill-opacity: 0.5; stroke: #ffffff; stroke-opacity: 0.5; stroke-width: 0.69282"/>
     <use xlink:href="#m6ba15f8ae3" x="101.224444" y="289.055466" style="fill: #1f77b4; fill-opacity: 0.5; stroke: #ffffff; stroke-opacity: 0.5; stroke-width: 0.69282"/>
     <use xlink:href="#m6ba15f8ae3" x="148.084832" y="351.381568" style="fill: #1f77b4; fill-opacity: 0.5; stroke: #ffffff; stroke-opacity: 0.5; stroke-width: 0.69282"/>
     <use xlink:href="#m6ba15f8ae3" x="311.462943" y="195.566314" style="fill: #1f77b4; fill-opacity: 0.5; stroke: #ffffff; stroke-opacity: 0.5; stroke-width: 0.69282"/>
     <use xlink:href="#m6ba15f8ae3" x="293.731986" y="273.473941" style="fill: #1f77b4; fill-opacity: 0.5; stroke: #ffffff; stroke-opacity: 0.5; stroke-width: 0.69282"/>
     <use xlink:href="#m6ba15f8ae3" x="73.36151" y="366.963093" style="fill: #1f77b4; fill-opacity: 0.5; stroke: #ffffff; stroke-opacity: 0.5; stroke-width: 0.69282"/>
     <use xlink:href="#m6ba15f8ae3" x="182.280251" y="185.17863" style="fill: #1f77b4; fill-opacity: 0.5; stroke: #ffffff; stroke-opacity: 0.5; stroke-width: 0.69282"/>
     <use xlink:href="#m6ba15f8ae3" x="148.084832" y="325.412359" style="fill: #1f77b4; fill-opacity: 0.5; stroke: #ffffff; stroke-opacity: 0.5; stroke-width: 0.69282"/>
     <use xlink:href="#m6ba15f8ae3" x="101.224444" y="309.830834" style="fill: #1f77b4; fill-opacity: 0.5; stroke: #ffffff; stroke-opacity: 0.5; stroke-width: 0.69282"/>
     <use xlink:href="#m6ba15f8ae3" x="136.686359" y="325.412359" style="fill: #1f77b4; fill-opacity: 0.5; stroke: #ffffff; stroke-opacity: 0.5; stroke-width: 0.69282"/>
     <use xlink:href="#m6ba15f8ae3" x="78.427498" y="340.993884" style="fill: #1f77b4; fill-opacity: 0.5; stroke: #ffffff; stroke-opacity: 0.5; stroke-width: 0.69282"/>
     <use xlink:href="#m6ba15f8ae3" x="70.828516" y="361.769251" style="fill: #1f77b4; fill-opacity: 0.5; stroke: #ffffff; stroke-opacity: 0.5; stroke-width: 0.69282"/>
     <use xlink:href="#m6ba15f8ae3" x="96.158456" y="294.249308" style="fill: #1f77b4; fill-opacity: 0.5; stroke: #ffffff; stroke-opacity: 0.5; stroke-width: 0.69282"/>
    </g>
   </g>
   <g id="matplotlib.axis_1">
    <g id="xtick_1">
     <g id="line2d_1">
      <defs>
       <path id="m4897084a34" d="M 0 0 
L 0 3.5 
" style="stroke: #000000; stroke-width: 0.8"/>
      </defs>
      <g>
       <use xlink:href="#m4897084a34" x="69.562019" y="386.44" style="stroke: #000000; stroke-width: 0.8"/>
      </g>
     </g>
     <g id="text_1">
      <!-- 0 -->
      <g transform="translate(64.790144 404.837656)scale(0.15 -0.15)">
       <defs>
        <path id="DejaVuSans-30" d="M 2034 4250 
Q 1547 4250 1301 3770 
Q 1056 3291 1056 2328 
Q 1056 1369 1301 889 
Q 1547 409 2034 409 
Q 2525 409 2770 889 
Q 3016 1369 3016 2328 
Q 3016 3291 2770 3770 
Q 2525 4250 2034 4250 
z
M 2034 4750 
Q 2819 4750 3233 4129 
Q 3647 3509 3647 2328 
Q 3647 1150 3233 529 
Q 2819 -91 2034 -91 
Q 1250 -91 836 529 
Q 422 1150 422 2328 
Q 422 3509 836 4129 
Q 1250 4750 2034 4750 
z
" transform="scale(0.015625)"/>
       </defs>
       <use xlink:href="#DejaVuSans-30"/>
      </g>
     </g>
    </g>
    <g id="xtick_2">
     <g id="line2d_2">
      <g>
       <use xlink:href="#m4897084a34" x="132.886869" y="386.44" style="stroke: #000000; stroke-width: 0.8"/>
      </g>
     </g>
     <g id="text_2">
      <!-- 50 -->
      <g transform="translate(123.343119 404.837656)scale(0.15 -0.15)">
       <defs>
        <path id="DejaVuSans-35" d="M 691 4666 
L 3169 4666 
L 3169 4134 
L 1269 4134 
L 1269 2991 
Q 1406 3038 1543 3061 
Q 1681 3084 1819 3084 
Q 2600 3084 3056 2656 
Q 3513 2228 3513 1497 
Q 3513 744 3044 326 
Q 2575 -91 1722 -91 
Q 1428 -91 1123 -41 
Q 819 9 494 109 
L 494 744 
Q 775 591 1075 516 
Q 1375 441 1709 441 
Q 2250 441 2565 725 
Q 2881 1009 2881 1497 
Q 2881 1984 2565 2268 
Q 2250 2553 1709 2553 
Q 1456 2553 1204 2497 
Q 953 2441 691 2322 
L 691 4666 
z
" transform="scale(0.015625)"/>
       </defs>
       <use xlink:href="#DejaVuSans-35"/>
       <use xlink:href="#DejaVuSans-30" x="63.623047"/>
      </g>
     </g>
    </g>
    <g id="xtick_3">
     <g id="line2d_3">
      <g>
       <use xlink:href="#m4897084a34" x="196.211718" y="386.44" style="stroke: #000000; stroke-width: 0.8"/>
      </g>
     </g>
     <g id="text_3">
      <!-- 100 -->
      <g transform="translate(181.896093 404.837656)scale(0.15 -0.15)">
       <defs>
        <path id="DejaVuSans-31" d="M 794 531 
L 1825 531 
L 1825 4091 
L 703 3866 
L 703 4441 
L 1819 4666 
L 2450 4666 
L 2450 531 
L 3481 531 
L 3481 0 
L 794 0 
L 794 531 
z
" transform="scale(0.015625)"/>
       </defs>
       <use xlink:href="#DejaVuSans-31"/>
       <use xlink:href="#DejaVuSans-30" x="63.623047"/>
       <use xlink:href="#DejaVuSans-30" x="127.246094"/>
      </g>
     </g>
    </g>
    <g id="xtick_4">
     <g id="line2d_4">
      <g>
       <use xlink:href="#m4897084a34" x="259.536567" y="386.44" style="stroke: #000000; stroke-width: 0.8"/>
      </g>
     </g>
     <g id="text_4">
      <!-- 150 -->
      <g transform="translate(245.220942 404.837656)scale(0.15 -0.15)">
       <use xlink:href="#DejaVuSans-31"/>
       <use xlink:href="#DejaVuSans-35" x="63.623047"/>
       <use xlink:href="#DejaVuSans-30" x="127.246094"/>
      </g>
     </g>
    </g>
    <g id="xtick_5">
     <g id="line2d_5">
      <g>
       <use xlink:href="#m4897084a34" x="322.861416" y="386.44" style="stroke: #000000; stroke-width: 0.8"/>
      </g>
     </g>
     <g id="text_5">
      <!-- 200 -->
      <g transform="translate(308.545791 404.837656)scale(0.15 -0.15)">
       <defs>
        <path id="DejaVuSans-32" d="M 1228 531 
L 3431 531 
L 3431 0 
L 469 0 
L 469 531 
Q 828 903 1448 1529 
Q 2069 2156 2228 2338 
Q 2531 2678 2651 2914 
Q 2772 3150 2772 3378 
Q 2772 3750 2511 3984 
Q 2250 4219 1831 4219 
Q 1534 4219 1204 4116 
Q 875 4013 500 3803 
L 500 4441 
Q 881 4594 1212 4672 
Q 1544 4750 1819 4750 
Q 2544 4750 2975 4387 
Q 3406 4025 3406 3419 
Q 3406 3131 3298 2873 
Q 3191 2616 2906 2266 
Q 2828 2175 2409 1742 
Q 1991 1309 1228 531 
z
" transform="scale(0.015625)"/>
       </defs>
       <use xlink:href="#DejaVuSans-32"/>
       <use xlink:href="#DejaVuSans-30" x="63.623047"/>
       <use xlink:href="#DejaVuSans-30" x="127.246094"/>
      </g>
     </g>
    </g>
    <g id="text_6">
     <!-- Commit Size -->
     <g transform="translate(149.688679 427.154062)scale(0.2 -0.2)">
      <defs>
       <path id="DejaVuSans-43" d="M 4122 4306 
L 4122 3641 
Q 3803 3938 3442 4084 
Q 3081 4231 2675 4231 
Q 1875 4231 1450 3742 
Q 1025 3253 1025 2328 
Q 1025 1406 1450 917 
Q 1875 428 2675 428 
Q 3081 428 3442 575 
Q 3803 722 4122 1019 
L 4122 359 
Q 3791 134 3420 21 
Q 3050 -91 2638 -91 
Q 1578 -91 968 557 
Q 359 1206 359 2328 
Q 359 3453 968 4101 
Q 1578 4750 2638 4750 
Q 3056 4750 3426 4639 
Q 3797 4528 4122 4306 
z
" transform="scale(0.015625)"/>
       <path id="DejaVuSans-6f" d="M 1959 3097 
Q 1497 3097 1228 2736 
Q 959 2375 959 1747 
Q 959 1119 1226 758 
Q 1494 397 1959 397 
Q 2419 397 2687 759 
Q 2956 1122 2956 1747 
Q 2956 2369 2687 2733 
Q 2419 3097 1959 3097 
z
M 1959 3584 
Q 2709 3584 3137 3096 
Q 3566 2609 3566 1747 
Q 3566 888 3137 398 
Q 2709 -91 1959 -91 
Q 1206 -91 779 398 
Q 353 888 353 1747 
Q 353 2609 779 3096 
Q 1206 3584 1959 3584 
z
" transform="scale(0.015625)"/>
       <path id="DejaVuSans-6d" d="M 3328 2828 
Q 3544 3216 3844 3400 
Q 4144 3584 4550 3584 
Q 5097 3584 5394 3201 
Q 5691 2819 5691 2113 
L 5691 0 
L 5113 0 
L 5113 2094 
Q 5113 2597 4934 2840 
Q 4756 3084 4391 3084 
Q 3944 3084 3684 2787 
Q 3425 2491 3425 1978 
L 3425 0 
L 2847 0 
L 2847 2094 
Q 2847 2600 2669 2842 
Q 2491 3084 2119 3084 
Q 1678 3084 1418 2786 
Q 1159 2488 1159 1978 
L 1159 0 
L 581 0 
L 581 3500 
L 1159 3500 
L 1159 2956 
Q 1356 3278 1631 3431 
Q 1906 3584 2284 3584 
Q 2666 3584 2933 3390 
Q 3200 3197 3328 2828 
z
" transform="scale(0.015625)"/>
       <path id="DejaVuSans-69" d="M 603 3500 
L 1178 3500 
L 1178 0 
L 603 0 
L 603 3500 
z
M 603 4863 
L 1178 4863 
L 1178 4134 
L 603 4134 
L 603 4863 
z
" transform="scale(0.015625)"/>
       <path id="DejaVuSans-74" d="M 1172 4494 
L 1172 3500 
L 2356 3500 
L 2356 3053 
L 1172 3053 
L 1172 1153 
Q 1172 725 1289 603 
Q 1406 481 1766 481 
L 2356 481 
L 2356 0 
L 1766 0 
Q 1100 0 847 248 
Q 594 497 594 1153 
L 594 3053 
L 172 3053 
L 172 3500 
L 594 3500 
L 594 4494 
L 1172 4494 
z
" transform="scale(0.015625)"/>
       <path id="DejaVuSans-20" transform="scale(0.015625)"/>
       <path id="DejaVuSans-53" d="M 3425 4513 
L 3425 3897 
Q 3066 4069 2747 4153 
Q 2428 4238 2131 4238 
Q 1616 4238 1336 4038 
Q 1056 3838 1056 3469 
Q 1056 3159 1242 3001 
Q 1428 2844 1947 2747 
L 2328 2669 
Q 3034 2534 3370 2195 
Q 3706 1856 3706 1288 
Q 3706 609 3251 259 
Q 2797 -91 1919 -91 
Q 1588 -91 1214 -16 
Q 841 59 441 206 
L 441 856 
Q 825 641 1194 531 
Q 1563 422 1919 422 
Q 2459 422 2753 634 
Q 3047 847 3047 1241 
Q 3047 1584 2836 1778 
Q 2625 1972 2144 2069 
L 1759 2144 
Q 1053 2284 737 2584 
Q 422 2884 422 3419 
Q 422 4038 858 4394 
Q 1294 4750 2059 4750 
Q 2388 4750 2728 4690 
Q 3069 4631 3425 4513 
z
" transform="scale(0.015625)"/>
       <path id="DejaVuSans-7a" d="M 353 3500 
L 3084 3500 
L 3084 2975 
L 922 459 
L 3084 459 
L 3084 0 
L 275 0 
L 275 525 
L 2438 3041 
L 353 3041 
L 353 3500 
z
" transform="scale(0.015625)"/>
       <path id="DejaVuSans-65" d="M 3597 1894 
L 3597 1613 
L 953 1613 
Q 991 1019 1311 708 
Q 1631 397 2203 397 
Q 2534 397 2845 478 
Q 3156 559 3463 722 
L 3463 178 
Q 3153 47 2828 -22 
Q 2503 -91 2169 -91 
Q 1331 -91 842 396 
Q 353 884 353 1716 
Q 353 2575 817 3079 
Q 1281 3584 2069 3584 
Q 2775 3584 3186 3129 
Q 3597 2675 3597 1894 
z
M 3022 2063 
Q 3016 2534 2758 2815 
Q 2500 3097 2075 3097 
Q 1594 3097 1305 2825 
Q 1016 2553 972 2059 
L 3022 2063 
z
" transform="scale(0.015625)"/>
      </defs>
      <use xlink:href="#DejaVuSans-43"/>
      <use xlink:href="#DejaVuSans-6f" x="69.824219"/>
      <use xlink:href="#DejaVuSans-6d" x="131.005859"/>
      <use xlink:href="#DejaVuSans-6d" x="228.417969"/>
      <use xlink:href="#DejaVuSans-69" x="325.830078"/>
      <use xlink:href="#DejaVuSans-74" x="353.613281"/>
      <use xlink:href="#DejaVuSans-20" x="392.822266"/>
      <use xlink:href="#DejaVuSans-53" x="424.609375"/>
      <use xlink:href="#DejaVuSans-69" x="488.085938"/>
      <use xlink:href="#DejaVuSans-7a" x="515.869141"/>
      <use xlink:href="#DejaVuSans-65" x="568.359375"/>
     </g>
    </g>
   </g>
   <g id="matplotlib.axis_2">
    <g id="ytick_1">
     <g id="line2d_6">
      <defs>
       <path id="m9eb6be270c" d="M 0 0 
L -3.5 0 
" style="stroke: #000000; stroke-width: 0.8"/>
      </defs>
      <g>
       <use xlink:href="#m9eb6be270c" x="56.64375" y="377.350777" style="stroke: #000000; stroke-width: 0.8"/>
      </g>
     </g>
     <g id="text_7">
      <!-- 0 -->
      <g transform="translate(40.1 383.049605)scale(0.15 -0.15)">
       <use xlink:href="#DejaVuSans-30"/>
      </g>
     </g>
    </g>
    <g id="ytick_2">
     <g id="line2d_7">
      <g>
       <use xlink:href="#m9eb6be270c" x="56.64375" y="325.412359" style="stroke: #000000; stroke-width: 0.8"/>
      </g>
     </g>
     <g id="text_8">
      <!-- 10 -->
      <g transform="translate(30.55625 331.111187)scale(0.15 -0.15)">
       <use xlink:href="#DejaVuSans-31"/>
       <use xlink:href="#DejaVuSans-30" x="63.623047"/>
      </g>
     </g>
    </g>
    <g id="ytick_3">
     <g id="line2d_8">
      <g>
       <use xlink:href="#m9eb6be270c" x="56.64375" y="273.473941" style="stroke: #000000; stroke-width: 0.8"/>
      </g>
     </g>
     <g id="text_9">
      <!-- 20 -->
      <g transform="translate(30.55625 279.172769)scale(0.15 -0.15)">
       <use xlink:href="#DejaVuSans-32"/>
       <use xlink:href="#DejaVuSans-30" x="63.623047"/>
      </g>
     </g>
    </g>
    <g id="ytick_4">
     <g id="line2d_9">
      <g>
       <use xlink:href="#m9eb6be270c" x="56.64375" y="221.535523" style="stroke: #000000; stroke-width: 0.8"/>
      </g>
     </g>
     <g id="text_10">
      <!-- 30 -->
      <g transform="translate(30.55625 227.234351)scale(0.15 -0.15)">
       <defs>
        <path id="DejaVuSans-33" d="M 2597 2516 
Q 3050 2419 3304 2112 
Q 3559 1806 3559 1356 
Q 3559 666 3084 287 
Q 2609 -91 1734 -91 
Q 1441 -91 1130 -33 
Q 819 25 488 141 
L 488 750 
Q 750 597 1062 519 
Q 1375 441 1716 441 
Q 2309 441 2620 675 
Q 2931 909 2931 1356 
Q 2931 1769 2642 2001 
Q 2353 2234 1838 2234 
L 1294 2234 
L 1294 2753 
L 1863 2753 
Q 2328 2753 2575 2939 
Q 2822 3125 2822 3475 
Q 2822 3834 2567 4026 
Q 2313 4219 1838 4219 
Q 1578 4219 1281 4162 
Q 984 4106 628 3988 
L 628 4550 
Q 988 4650 1302 4700 
Q 1616 4750 1894 4750 
Q 2613 4750 3031 4423 
Q 3450 4097 3450 3541 
Q 3450 3153 3228 2886 
Q 3006 2619 2597 2516 
z
" transform="scale(0.015625)"/>
       </defs>
       <use xlink:href="#DejaVuSans-33"/>
       <use xlink:href="#DejaVuSans-30" x="63.623047"/>
      </g>
     </g>
    </g>
    <g id="ytick_5">
     <g id="line2d_10">
      <g>
       <use xlink:href="#m9eb6be270c" x="56.64375" y="169.597105" style="stroke: #000000; stroke-width: 0.8"/>
      </g>
     </g>
     <g id="text_11">
      <!-- 40 -->
      <g transform="translate(30.55625 175.295933)scale(0.15 -0.15)">
       <defs>
        <path id="DejaVuSans-34" d="M 2419 4116 
L 825 1625 
L 2419 1625 
L 2419 4116 
z
M 2253 4666 
L 3047 4666 
L 3047 1625 
L 3713 1625 
L 3713 1100 
L 3047 1100 
L 3047 0 
L 2419 0 
L 2419 1100 
L 313 1100 
L 313 1709 
L 2253 4666 
z
" transform="scale(0.015625)"/>
       </defs>
       <use xlink:href="#DejaVuSans-34"/>
       <use xlink:href="#DejaVuSans-30" x="63.623047"/>
      </g>
     </g>
    </g>
    <g id="ytick_6">
     <g id="line2d_11">
      <g>
       <use xlink:href="#m9eb6be270c" x="56.64375" y="117.658687" style="stroke: #000000; stroke-width: 0.8"/>
      </g>
     </g>
     <g id="text_12">
      <!-- 50 -->
      <g transform="translate(30.55625 123.357515)scale(0.15 -0.15)">
       <use xlink:href="#DejaVuSans-35"/>
       <use xlink:href="#DejaVuSans-30" x="63.623047"/>
      </g>
     </g>
    </g>
    <g id="text_13">
     <!-- Node Degree -->
     <g transform="translate(22.396875 294.999723)rotate(-90)scale(0.2 -0.2)">
      <defs>
       <path id="DejaVuSans-4e" d="M 628 4666 
L 1478 4666 
L 3547 763 
L 3547 4666 
L 4159 4666 
L 4159 0 
L 3309 0 
L 1241 3903 
L 1241 0 
L 628 0 
L 628 4666 
z
" transform="scale(0.015625)"/>
       <path id="DejaVuSans-64" d="M 2906 2969 
L 2906 4863 
L 3481 4863 
L 3481 0 
L 2906 0 
L 2906 525 
Q 2725 213 2448 61 
Q 2172 -91 1784 -91 
Q 1150 -91 751 415 
Q 353 922 353 1747 
Q 353 2572 751 3078 
Q 1150 3584 1784 3584 
Q 2172 3584 2448 3432 
Q 2725 3281 2906 2969 
z
M 947 1747 
Q 947 1113 1208 752 
Q 1469 391 1925 391 
Q 2381 391 2643 752 
Q 2906 1113 2906 1747 
Q 2906 2381 2643 2742 
Q 2381 3103 1925 3103 
Q 1469 3103 1208 2742 
Q 947 2381 947 1747 
z
" transform="scale(0.015625)"/>
       <path id="DejaVuSans-44" d="M 1259 4147 
L 1259 519 
L 2022 519 
Q 2988 519 3436 956 
Q 3884 1394 3884 2338 
Q 3884 3275 3436 3711 
Q 2988 4147 2022 4147 
L 1259 4147 
z
M 628 4666 
L 1925 4666 
Q 3281 4666 3915 4102 
Q 4550 3538 4550 2338 
Q 4550 1131 3912 565 
Q 3275 0 1925 0 
L 628 0 
L 628 4666 
z
" transform="scale(0.015625)"/>
       <path id="DejaVuSans-67" d="M 2906 1791 
Q 2906 2416 2648 2759 
Q 2391 3103 1925 3103 
Q 1463 3103 1205 2759 
Q 947 2416 947 1791 
Q 947 1169 1205 825 
Q 1463 481 1925 481 
Q 2391 481 2648 825 
Q 2906 1169 2906 1791 
z
M 3481 434 
Q 3481 -459 3084 -895 
Q 2688 -1331 1869 -1331 
Q 1566 -1331 1297 -1286 
Q 1028 -1241 775 -1147 
L 775 -588 
Q 1028 -725 1275 -790 
Q 1522 -856 1778 -856 
Q 2344 -856 2625 -561 
Q 2906 -266 2906 331 
L 2906 616 
Q 2728 306 2450 153 
Q 2172 0 1784 0 
Q 1141 0 747 490 
Q 353 981 353 1791 
Q 353 2603 747 3093 
Q 1141 3584 1784 3584 
Q 2172 3584 2450 3431 
Q 2728 3278 2906 2969 
L 2906 3500 
L 3481 3500 
L 3481 434 
z
" transform="scale(0.015625)"/>
       <path id="DejaVuSans-72" d="M 2631 2963 
Q 2534 3019 2420 3045 
Q 2306 3072 2169 3072 
Q 1681 3072 1420 2755 
Q 1159 2438 1159 1844 
L 1159 0 
L 581 0 
L 581 3500 
L 1159 3500 
L 1159 2956 
Q 1341 3275 1631 3429 
Q 1922 3584 2338 3584 
Q 2397 3584 2469 3576 
Q 2541 3569 2628 3553 
L 2631 2963 
z
" transform="scale(0.015625)"/>
      </defs>
      <use xlink:href="#DejaVuSans-4e"/>
      <use xlink:href="#DejaVuSans-6f" x="74.804688"/>
      <use xlink:href="#DejaVuSans-64" x="135.986328"/>
      <use xlink:href="#DejaVuSans-65" x="199.462891"/>
      <use xlink:href="#DejaVuSans-20" x="260.986328"/>
      <use xlink:href="#DejaVuSans-44" x="292.773438"/>
      <use xlink:href="#DejaVuSans-65" x="369.775391"/>
      <use xlink:href="#DejaVuSans-67" x="431.298828"/>
      <use xlink:href="#DejaVuSans-72" x="494.775391"/>
      <use xlink:href="#DejaVuSans-65" x="533.638672"/>
      <use xlink:href="#DejaVuSans-65" x="595.162109"/>
     </g>
    </g>
   </g>
   <g id="line2d_12">
    <path d="M 78.427498 386.44 
L 78.427498 72.212571 
" clip-path="url(#p072095a689)" style="fill: none; stroke: #777777; stroke-width: 3; stroke-linecap: square"/>
   </g>
   <g id="line2d_13">
    <path d="M 56.64375 247.504732 
L 368.708607 247.504732 
" clip-path="url(#p072095a689)" style="fill: none; stroke: #777777; stroke-width: 3; stroke-linecap: square"/>
   </g>
   <g id="patch_3">
    <path d="M 56.64375 386.44 
L 56.64375 72.212571 
" style="fill: none; stroke: #000000; stroke-width: 0.8; stroke-linejoin: miter; stroke-linecap: square"/>
   </g>
   <g id="patch_4">
    <path d="M 56.64375 386.44 
L 368.708607 386.44 
" style="fill: none; stroke: #000000; stroke-width: 0.8; stroke-linejoin: miter; stroke-linecap: square"/>
   </g>
  </g>
  <g id="axes_2">
   <g id="patch_5">
    <path d="M 56.64375 61.377143 
L 368.708607 61.377143 
L 368.708607 7.2 
L 56.64375 7.2 
z
" style="fill: #ffffff"/>
   </g>
   <g id="PolyCollection_1">
    <defs>
     <path id="m74a2c39f0c" d="M -4.496973 -377.305544 
L -4.496973 -377.136295 
L -2.314328 -377.136295 
L -0.131684 -377.136295 
L 2.050961 -377.136295 
L 4.233606 -377.136295 
L 6.416251 -377.136295 
L 8.598895 -377.136295 
L 10.78154 -377.136295 
L 12.964185 -377.136295 
L 15.146829 -377.136295 
L 17.329474 -377.136295 
L 19.512119 -377.136295 
L 21.694764 -377.136295 
L 23.877408 -377.136295 
L 26.060053 -377.136295 
L 28.242698 -377.136295 
L 30.425343 -377.136295 
L 32.607987 -377.136295 
L 34.790632 -377.136295 
L 36.973277 -377.136295 
L 39.155922 -377.136295 
L 41.338566 -377.136295 
L 43.521211 -377.136295 
L 45.703856 -377.136295 
L 47.886501 -377.136295 
L 50.069145 -377.136295 
L 52.25179 -377.136295 
L 54.434435 -377.136295 
L 56.61708 -377.136295 
L 58.799724 -377.136295 
L 60.982369 -377.136295 
L 63.165014 -377.136295 
L 65.347659 -377.136295 
L 67.530303 -377.136295 
L 69.712948 -377.136295 
L 71.895593 -377.136295 
L 74.078238 -377.136295 
L 76.260882 -377.136295 
L 78.443527 -377.136295 
L 80.626172 -377.136295 
L 82.808816 -377.136295 
L 84.991461 -377.136295 
L 87.174106 -377.136295 
L 89.356751 -377.136295 
L 91.539395 -377.136295 
L 93.72204 -377.136295 
L 95.904685 -377.136295 
L 98.08733 -377.136295 
L 100.269974 -377.136295 
L 102.452619 -377.136295 
L 104.635264 -377.136295 
L 106.817909 -377.136295 
L 109.000553 -377.136295 
L 111.183198 -377.136295 
L 113.365843 -377.136295 
L 115.548488 -377.136295 
L 117.731132 -377.136295 
L 119.913777 -377.136295 
L 122.096422 -377.136295 
L 124.279067 -377.136295 
L 126.461711 -377.136295 
L 128.644356 -377.136295 
L 130.827001 -377.136295 
L 133.009646 -377.136295 
L 135.19229 -377.136295 
L 137.374935 -377.136295 
L 139.55758 -377.136295 
L 141.740224 -377.136295 
L 143.922869 -377.136295 
L 146.105514 -377.136295 
L 148.288159 -377.136295 
L 150.470803 -377.136295 
L 152.653448 -377.136295 
L 154.836093 -377.136295 
L 157.018738 -377.136295 
L 159.201382 -377.136295 
L 161.384027 -377.136295 
L 163.566672 -377.136295 
L 165.749317 -377.136295 
L 167.931961 -377.136295 
L 170.114606 -377.136295 
L 172.297251 -377.136295 
L 174.479896 -377.136295 
L 176.66254 -377.136295 
L 178.845185 -377.136295 
L 181.02783 -377.136295 
L 183.210475 -377.136295 
L 185.393119 -377.136295 
L 187.575764 -377.136295 
L 189.758409 -377.136295 
L 191.941054 -377.136295 
L 194.123698 -377.136295 
L 196.306343 -377.136295 
L 198.488988 -377.136295 
L 200.671632 -377.136295 
L 202.854277 -377.136295 
L 205.036922 -377.136295 
L 207.219567 -377.136295 
L 209.402211 -377.136295 
L 211.584856 -377.136295 
L 213.767501 -377.136295 
L 215.950146 -377.136295 
L 218.13279 -377.136295 
L 220.315435 -377.136295 
L 222.49808 -377.136295 
L 224.680725 -377.136295 
L 226.863369 -377.136295 
L 229.046014 -377.136295 
L 231.228659 -377.136295 
L 233.411304 -377.136295 
L 235.593948 -377.136295 
L 237.776593 -377.136295 
L 239.959238 -377.136295 
L 242.141883 -377.136295 
L 244.324527 -377.136295 
L 246.507172 -377.136295 
L 248.689817 -377.136295 
L 250.872462 -377.136295 
L 253.055106 -377.136295 
L 255.237751 -377.136295 
L 257.420396 -377.136295 
L 259.603041 -377.136295 
L 261.785685 -377.136295 
L 263.96833 -377.136295 
L 266.150975 -377.136295 
L 268.333619 -377.136295 
L 270.516264 -377.136295 
L 272.698909 -377.136295 
L 274.881554 -377.136295 
L 277.064198 -377.136295 
L 279.246843 -377.136295 
L 281.429488 -377.136295 
L 283.612133 -377.136295 
L 285.794777 -377.136295 
L 287.977422 -377.136295 
L 290.160067 -377.136295 
L 292.342712 -377.136295 
L 294.525356 -377.136295 
L 296.708001 -377.136295 
L 298.890646 -377.136295 
L 301.073291 -377.136295 
L 303.255935 -377.136295 
L 305.43858 -377.136295 
L 307.621225 -377.136295 
L 309.80387 -377.136295 
L 311.986514 -377.136295 
L 314.169159 -377.136295 
L 316.351804 -377.136295 
L 318.534449 -377.136295 
L 320.717093 -377.136295 
L 322.899738 -377.136295 
L 325.082383 -377.136295 
L 327.265027 -377.136295 
L 329.447672 -377.136295 
L 331.630317 -377.136295 
L 333.812962 -377.136295 
L 335.995606 -377.136295 
L 338.178251 -377.136295 
L 340.360896 -377.136295 
L 342.543541 -377.136295 
L 344.726185 -377.136295 
L 346.90883 -377.136295 
L 349.091475 -377.136295 
L 351.27412 -377.136295 
L 353.456764 -377.136295 
L 355.639409 -377.136295 
L 357.822054 -377.136295 
L 360.004699 -377.136295 
L 362.187343 -377.136295 
L 364.369988 -377.136295 
L 366.552633 -377.136295 
L 368.735278 -377.136295 
L 370.917922 -377.136295 
L 373.100567 -377.136295 
L 375.283212 -377.136295 
L 377.465857 -377.136295 
L 379.648501 -377.136295 
L 381.831146 -377.136295 
L 384.013791 -377.136295 
L 386.196436 -377.136295 
L 388.37908 -377.136295 
L 390.561725 -377.136295 
L 392.74437 -377.136295 
L 394.927014 -377.136295 
L 397.109659 -377.136295 
L 399.292304 -377.136295 
L 401.474949 -377.136295 
L 403.657593 -377.136295 
L 405.840238 -377.136295 
L 408.022883 -377.136295 
L 410.205528 -377.136295 
L 412.388172 -377.136295 
L 414.570817 -377.136295 
L 416.753462 -377.136295 
L 418.936107 -377.136295 
L 421.118751 -377.136295 
L 423.301396 -377.136295 
L 425.484041 -377.136295 
L 427.666686 -377.136295 
L 429.84933 -377.136295 
L 429.84933 -377.143629 
L 429.84933 -377.143629 
L 427.666686 -377.145807 
L 425.484041 -377.148544 
L 423.301396 -377.151955 
L 421.118751 -377.156173 
L 418.936107 -377.16135 
L 416.753462 -377.167652 
L 414.570817 -377.175268 
L 412.388172 -377.184399 
L 410.205528 -377.195265 
L 408.022883 -377.208098 
L 405.840238 -377.223142 
L 403.657593 -377.24065 
L 401.474949 -377.26088 
L 399.292304 -377.284091 
L 397.109659 -377.310539 
L 394.927014 -377.340478 
L 392.74437 -377.374148 
L 390.561725 -377.411782 
L 388.37908 -377.453598 
L 386.196436 -377.499799 
L 384.013791 -377.550577 
L 381.831146 -377.606108 
L 379.648501 -377.66656 
L 377.465857 -377.732092 
L 375.283212 -377.802859 
L 373.100567 -377.879011 
L 370.917922 -377.960699 
L 368.735278 -378.048076 
L 366.552633 -378.14129 
L 364.369988 -378.240487 
L 362.187343 -378.345799 
L 360.004699 -378.457341 
L 357.822054 -378.575189 
L 355.639409 -378.699375 
L 353.456764 -378.829861 
L 351.27412 -378.966528 
L 349.091475 -379.10915 
L 346.90883 -379.257381 
L 344.726185 -379.410738 
L 342.543541 -379.568587 
L 340.360896 -379.730142 
L 338.178251 -379.89446 
L 335.995606 -380.060449 
L 333.812962 -380.226881 
L 331.630317 -380.392419 
L 329.447672 -380.555637 
L 327.265027 -380.715062 
L 325.082383 -380.869209 
L 322.899738 -381.016624 
L 320.717093 -381.155922 
L 318.534449 -381.285835 
L 316.351804 -381.405241 
L 314.169159 -381.5132 
L 311.986514 -381.608974 
L 309.80387 -381.692045 
L 307.621225 -381.762122 
L 305.43858 -381.819135 
L 303.255935 -381.863226 
L 301.073291 -381.89473 
L 298.890646 -381.914153 
L 296.708001 -381.922139 
L 294.525356 -381.919444 
L 292.342712 -381.906902 
L 290.160067 -381.885397 
L 287.977422 -381.855837 
L 285.794777 -381.819131 
L 283.612133 -381.776172 
L 281.429488 -381.727826 
L 279.246843 -381.674925 
L 277.064198 -381.618261 
L 274.881554 -381.558591 
L 272.698909 -381.496638 
L 270.516264 -381.433098 
L 268.333619 -381.368645 
L 266.150975 -381.303942 
L 263.96833 -381.23964 
L 261.785685 -381.176392 
L 259.603041 -381.114856 
L 257.420396 -381.055698 
L 255.237751 -380.999602 
L 253.055106 -380.947275 
L 250.872462 -380.89945 
L 248.689817 -380.856897 
L 246.507172 -380.820425 
L 244.324527 -380.79089 
L 242.141883 -380.769198 
L 239.959238 -380.756304 
L 237.776593 -380.753213 
L 235.593948 -380.760969 
L 233.411304 -380.780645 
L 231.228659 -380.81332 
L 229.046014 -380.860058 
L 226.863369 -380.921872 
L 224.680725 -380.999692 
L 222.49808 -381.094329 
L 220.315435 -381.20643 
L 218.13279 -381.33645 
L 215.950146 -381.484615 
L 213.767501 -381.650899 
L 211.584856 -381.835018 
L 209.402211 -382.036419 
L 207.219567 -382.254301 
L 205.036922 -382.487642 
L 202.854277 -382.735235 
L 200.671632 -382.995748 
L 198.488988 -383.267786 
L 196.306343 -383.549966 
L 194.123698 -383.84099 
L 191.941054 -384.139729 
L 189.758409 -384.445298 
L 187.575764 -384.757125 
L 185.393119 -385.075017 
L 183.210475 -385.399211 
L 181.02783 -385.730414 
L 178.845185 -386.069835 
L 176.66254 -386.419198 
L 174.479896 -386.780748 
L 172.297251 -387.157246 
L 170.114606 -387.551949 
L 167.931961 -387.968592 
L 165.749317 -388.41135 
L 163.566672 -388.8848 
L 161.384027 -389.393876 
L 159.201382 -389.943809 
L 157.018738 -390.540066 
L 154.836093 -391.188264 
L 152.653448 -391.894085 
L 150.470803 -392.663159 
L 148.288159 -393.500938 
L 146.105514 -394.412544 
L 143.922869 -395.402599 
L 141.740224 -396.475031 
L 139.55758 -397.632867 
L 137.374935 -398.878003 
L 135.19229 -400.210974 
L 133.009646 -401.63072 
L 130.827001 -403.134355 
L 128.644356 -404.716963 
L 126.461711 -406.371413 
L 124.279067 -408.088227 
L 122.096422 -409.855492 
L 119.913777 -411.658838 
L 117.731132 -413.481492 
L 115.548488 -415.304407 
L 113.365843 -417.106484 
L 111.183198 -418.864872 
L 109.000553 -420.555357 
L 106.817909 -422.152828 
L 104.635264 -423.63181 
L 102.452619 -424.967058 
L 100.269974 -426.134175 
L 98.08733 -427.110265 
L 95.904685 -427.874564 
L 93.72204 -428.409056 
L 91.539395 -428.699032 
L 89.356751 -428.733574 
L 87.174106 -428.505948 
L 84.991461 -428.013883 
L 82.808816 -427.259721 
L 80.626172 -426.250441 
L 78.443527 -424.997533 
L 76.260882 -423.516746 
L 74.078238 -421.827709 
L 71.895593 -419.953427 
L 69.712948 -417.919691 
L 67.530303 -415.754411 
L 65.347659 -413.486901 
L 63.165014 -411.147135 
L 60.982369 -408.765019 
L 58.799724 -406.369684 
L 56.61708 -403.988839 
L 54.434435 -401.6482 
L 52.25179 -399.371007 
L 50.069145 -397.177651 
L 47.886501 -395.085409 
L 45.703856 -393.108289 
L 43.521211 -391.256993 
L 41.338566 -389.538975 
L 39.155922 -387.958588 
L 36.973277 -386.517319 
L 34.790632 -385.214071 
L 32.607987 -384.0455 
L 30.425343 -383.00637 
L 28.242698 -382.08993 
L 26.060053 -381.28827 
L 23.877408 -380.592683 
L 21.694764 -379.993979 
L 19.512119 -379.482778 
L 17.329474 -379.049758 
L 15.146829 -378.685863 
L 12.964185 -378.382468 
L 10.78154 -378.131501 
L 8.598895 -377.925525 
L 6.416251 -377.757795 
L 4.233606 -377.622273 
L 2.050961 -377.513625 
L -0.131684 -377.427197 
L -2.314328 -377.358976 
L -4.496973 -377.305544 
z
" style="stroke: #1f77b4"/>
    </defs>
    <g clip-path="url(#p6403cee906)">
     <use xlink:href="#m74a2c39f0c" x="0" y="438.513437" style="fill: #1f77b4; fill-opacity: 0.25; stroke: #1f77b4"/>
    </g>
   </g>
   <g id="matplotlib.axis_3">
    <g id="xtick_6">
     <g id="line2d_14">
      <g>
       <use xlink:href="#m4897084a34" x="69.562019" y="61.377143" style="stroke: #000000; stroke-width: 0.8"/>
      </g>
     </g>
    </g>
    <g id="xtick_7">
     <g id="line2d_15">
      <g>
       <use xlink:href="#m4897084a34" x="132.886869" y="61.377143" style="stroke: #000000; stroke-width: 0.8"/>
      </g>
     </g>
    </g>
    <g id="xtick_8">
     <g id="line2d_16">
      <g>
       <use xlink:href="#m4897084a34" x="196.211718" y="61.377143" style="stroke: #000000; stroke-width: 0.8"/>
      </g>
     </g>
    </g>
    <g id="xtick_9">
     <g id="line2d_17">
      <g>
       <use xlink:href="#m4897084a34" x="259.536567" y="61.377143" style="stroke: #000000; stroke-width: 0.8"/>
      </g>
     </g>
    </g>
    <g id="xtick_10">
     <g id="line2d_18">
      <g>
       <use xlink:href="#m4897084a34" x="322.861416" y="61.377143" style="stroke: #000000; stroke-width: 0.8"/>
      </g>
     </g>
    </g>
   </g>
   <g id="matplotlib.axis_4">
    <g id="ytick_7"/>
    <g id="ytick_8"/>
   </g>
   <g id="patch_6">
    <path d="M 56.64375 61.377143 
L 368.708607 61.377143 
" style="fill: none; stroke: #000000; stroke-width: 0.8; stroke-linejoin: miter; stroke-linecap: square"/>
   </g>
  </g>
  <g id="axes_3">
   <g id="patch_7">
    <path d="M 379.469464 386.44 
L 433.27375 386.44 
L 433.27375 72.212571 
L 379.469464 72.212571 
z
" style="fill: #ffffff"/>
   </g>
   <g id="PolyCollection_2">
    <defs>
     <path id="m1e30ad1980" d="M 379.536801 3.487073 
L 379.469464 3.487073 
L 379.469464 1.349644 
L 379.469464 -0.787786 
L 379.469464 -2.925215 
L 379.469464 -5.062644 
L 379.469464 -7.200074 
L 379.469464 -9.337503 
L 379.469464 -11.474933 
L 379.469464 -13.612362 
L 379.469464 -15.749791 
L 379.469464 -17.887221 
L 379.469464 -20.02465 
L 379.469464 -22.162079 
L 379.469464 -24.299509 
L 379.469464 -26.436938 
L 379.469464 -28.574368 
L 379.469464 -30.711797 
L 379.469464 -32.849226 
L 379.469464 -34.986656 
L 379.469464 -37.124085 
L 379.469464 -39.261515 
L 379.469464 -41.398944 
L 379.469464 -43.536373 
L 379.469464 -45.673803 
L 379.469464 -47.811232 
L 379.469464 -49.948662 
L 379.469464 -52.086091 
L 379.469464 -54.22352 
L 379.469464 -56.36095 
L 379.469464 -58.498379 
L 379.469464 -60.635809 
L 379.469464 -62.773238 
L 379.469464 -64.910667 
L 379.469464 -67.048097 
L 379.469464 -69.185526 
L 379.469464 -71.322956 
L 379.469464 -73.460385 
L 379.469464 -75.597814 
L 379.469464 -77.735244 
L 379.469464 -79.872673 
L 379.469464 -82.010103 
L 379.469464 -84.147532 
L 379.469464 -86.284961 
L 379.469464 -88.422391 
L 379.469464 -90.55982 
L 379.469464 -92.69725 
L 379.469464 -94.834679 
L 379.469464 -96.972108 
L 379.469464 -99.109538 
L 379.469464 -101.246967 
L 379.469464 -103.384397 
L 379.469464 -105.521826 
L 379.469464 -107.659255 
L 379.469464 -109.796685 
L 379.469464 -111.934114 
L 379.469464 -114.071544 
L 379.469464 -116.208973 
L 379.469464 -118.346402 
L 379.469464 -120.483832 
L 379.469464 -122.621261 
L 379.469464 -124.758691 
L 379.469464 -126.89612 
L 379.469464 -129.033549 
L 379.469464 -131.170979 
L 379.469464 -133.308408 
L 379.469464 -135.445838 
L 379.469464 -137.583267 
L 379.469464 -139.720696 
L 379.469464 -141.858126 
L 379.469464 -143.995555 
L 379.469464 -146.132985 
L 379.469464 -148.270414 
L 379.469464 -150.407843 
L 379.469464 -152.545273 
L 379.469464 -154.682702 
L 379.469464 -156.820132 
L 379.469464 -158.957561 
L 379.469464 -161.09499 
L 379.469464 -163.23242 
L 379.469464 -165.369849 
L 379.469464 -167.507279 
L 379.469464 -169.644708 
L 379.469464 -171.782137 
L 379.469464 -173.919567 
L 379.469464 -176.056996 
L 379.469464 -178.194426 
L 379.469464 -180.331855 
L 379.469464 -182.469284 
L 379.469464 -184.606714 
L 379.469464 -186.744143 
L 379.469464 -188.881573 
L 379.469464 -191.019002 
L 379.469464 -193.156431 
L 379.469464 -195.293861 
L 379.469464 -197.43129 
L 379.469464 -199.568719 
L 379.469464 -201.706149 
L 379.469464 -203.843578 
L 379.469464 -205.981008 
L 379.469464 -208.118437 
L 379.469464 -210.255866 
L 379.469464 -212.393296 
L 379.469464 -214.530725 
L 379.469464 -216.668155 
L 379.469464 -218.805584 
L 379.469464 -220.943013 
L 379.469464 -223.080443 
L 379.469464 -225.217872 
L 379.469464 -227.355302 
L 379.469464 -229.492731 
L 379.469464 -231.63016 
L 379.469464 -233.76759 
L 379.469464 -235.905019 
L 379.469464 -238.042449 
L 379.469464 -240.179878 
L 379.469464 -242.317307 
L 379.469464 -244.454737 
L 379.469464 -246.592166 
L 379.469464 -248.729596 
L 379.469464 -250.867025 
L 379.469464 -253.004454 
L 379.469464 -255.141884 
L 379.469464 -257.279313 
L 379.469464 -259.416743 
L 379.469464 -261.554172 
L 379.469464 -263.691601 
L 379.469464 -265.829031 
L 379.469464 -267.96646 
L 379.469464 -270.10389 
L 379.469464 -272.241319 
L 379.469464 -274.378748 
L 379.469464 -276.516178 
L 379.469464 -278.653607 
L 379.469464 -280.791037 
L 379.469464 -282.928466 
L 379.469464 -285.065895 
L 379.469464 -287.203325 
L 379.469464 -289.340754 
L 379.469464 -291.478184 
L 379.469464 -293.615613 
L 379.469464 -295.753042 
L 379.469464 -297.890472 
L 379.469464 -300.027901 
L 379.469464 -302.165331 
L 379.469464 -304.30276 
L 379.469464 -306.440189 
L 379.469464 -308.577619 
L 379.469464 -310.715048 
L 379.469464 -312.852478 
L 379.469464 -314.989907 
L 379.469464 -317.127336 
L 379.469464 -319.264766 
L 379.469464 -321.402195 
L 379.469464 -323.539625 
L 379.469464 -325.677054 
L 379.469464 -327.814483 
L 379.469464 -329.951913 
L 379.469464 -332.089342 
L 379.469464 -334.226772 
L 379.469464 -336.364201 
L 379.469464 -338.50163 
L 379.469464 -340.63906 
L 379.469464 -342.776489 
L 379.469464 -344.913919 
L 379.469464 -347.051348 
L 379.469464 -349.188777 
L 379.469464 -351.326207 
L 379.469464 -353.463636 
L 379.469464 -355.601066 
L 379.469464 -357.738495 
L 379.469464 -359.875924 
L 379.469464 -362.013354 
L 379.469464 -364.150783 
L 379.469464 -366.288213 
L 379.469464 -368.425642 
L 379.469464 -370.563071 
L 379.469464 -372.700501 
L 379.469464 -374.83793 
L 379.469464 -376.975359 
L 379.469464 -379.112789 
L 379.469464 -381.250218 
L 379.469464 -383.387648 
L 379.469464 -385.525077 
L 379.469464 -387.662506 
L 379.469464 -389.799936 
L 379.469464 -391.937365 
L 379.469464 -394.074795 
L 379.469464 -396.212224 
L 379.469464 -398.349653 
L 379.469464 -400.487083 
L 379.469464 -402.624512 
L 379.469464 -404.761942 
L 379.469464 -406.899371 
L 379.469464 -409.0368 
L 379.469464 -411.17423 
L 379.469464 -413.311659 
L 379.469464 -415.449089 
L 379.469464 -417.586518 
L 379.469464 -419.723947 
L 379.469464 -421.861377 
L 379.481896 -421.861377 
L 379.481896 -421.861377 
L 379.485899 -419.723947 
L 379.491016 -417.586518 
L 379.497497 -415.449089 
L 379.50563 -413.311659 
L 379.515744 -411.17423 
L 379.528207 -409.0368 
L 379.543423 -406.899371 
L 379.561828 -404.761942 
L 379.58388 -402.624512 
L 379.610054 -400.487083 
L 379.640822 -398.349653 
L 379.676641 -396.212224 
L 379.717931 -394.074795 
L 379.765056 -391.937365 
L 379.818294 -389.799936 
L 379.877821 -387.662506 
L 379.943678 -385.525077 
L 380.015753 -383.387648 
L 380.093762 -381.250218 
L 380.17723 -379.112789 
L 380.265485 -376.975359 
L 380.357659 -374.83793 
L 380.452689 -372.700501 
L 380.549343 -370.563071 
L 380.64624 -368.425642 
L 380.741895 -366.288213 
L 380.834757 -364.150783 
L 380.923272 -362.013354 
L 381.005938 -359.875924 
L 381.081372 -357.738495 
L 381.148371 -355.601066 
L 381.205979 -353.463636 
L 381.253538 -351.326207 
L 381.290742 -349.188777 
L 381.317668 -347.051348 
L 381.334804 -344.913919 
L 381.343054 -342.776489 
L 381.34373 -340.63906 
L 381.338526 -338.50163 
L 381.329482 -336.364201 
L 381.318924 -334.226772 
L 381.309401 -332.089342 
L 381.303607 -329.951913 
L 381.304302 -327.814483 
L 381.314227 -325.677054 
L 381.336024 -323.539625 
L 381.372156 -321.402195 
L 381.424845 -319.264766 
L 381.496008 -317.127336 
L 381.587219 -314.989907 
L 381.699677 -312.852478 
L 381.834196 -310.715048 
L 381.991203 -308.577619 
L 382.170755 -306.440189 
L 382.372566 -304.30276 
L 382.596039 -302.165331 
L 382.840311 -300.027901 
L 383.104295 -297.890472 
L 383.386719 -295.753042 
L 383.686168 -293.615613 
L 384.001114 -291.478184 
L 384.329937 -289.340754 
L 384.67094 -287.203325 
L 385.022357 -285.065895 
L 385.382343 -282.928466 
L 385.748976 -280.791037 
L 386.120239 -278.653607 
L 386.49402 -276.516178 
L 386.868106 -274.378748 
L 387.240189 -272.241319 
L 387.607894 -270.10389 
L 387.968804 -267.96646 
L 388.320519 -265.829031 
L 388.660714 -263.691601 
L 388.987222 -261.554172 
L 389.298113 -259.416743 
L 389.591792 -257.279313 
L 389.867082 -255.141884 
L 390.123302 -253.004454 
L 390.360337 -250.867025 
L 390.578674 -248.729596 
L 390.779423 -246.592166 
L 390.964308 -244.454737 
L 391.135617 -242.317307 
L 391.296137 -240.179878 
L 391.449051 -238.042449 
L 391.597818 -235.905019 
L 391.746037 -233.76759 
L 391.8973 -231.63016 
L 392.055051 -229.492731 
L 392.222458 -227.355302 
L 392.402292 -225.217872 
L 392.596848 -223.080443 
L 392.807886 -220.943013 
L 393.036618 -218.805584 
L 393.283724 -216.668155 
L 393.549413 -214.530725 
L 393.833511 -212.393296 
L 394.135581 -210.255866 
L 394.455057 -208.118437 
L 394.791399 -205.981008 
L 395.144233 -203.843578 
L 395.513499 -201.706149 
L 395.899569 -199.568719 
L 396.303338 -197.43129 
L 396.726284 -195.293861 
L 397.170489 -193.156431 
L 397.638611 -191.019002 
L 398.133823 -188.881573 
L 398.659702 -186.744143 
L 399.22009 -184.606714 
L 399.81892 -182.469284 
L 400.46003 -180.331855 
L 401.146957 -178.194426 
L 401.882736 -176.056996 
L 402.669713 -173.919567 
L 403.509364 -171.782137 
L 404.402166 -169.644708 
L 405.347481 -167.507279 
L 406.343502 -165.369849 
L 407.387233 -163.23242 
L 408.474523 -161.09499 
L 409.600141 -158.957561 
L 410.757894 -156.820132 
L 411.940786 -154.682702 
L 413.141198 -152.545273 
L 414.35109 -150.407843 
L 415.562218 -148.270414 
L 416.766339 -146.132985 
L 417.955414 -143.995555 
L 419.121783 -141.858126 
L 420.258317 -139.720696 
L 421.358524 -137.583267 
L 422.416624 -135.445838 
L 423.427562 -133.308408 
L 424.386994 -131.170979 
L 425.291206 -129.033549 
L 426.13701 -126.89612 
L 426.921591 -124.758691 
L 427.642329 -122.621261 
L 428.296606 -120.483832 
L 428.881608 -118.346402 
L 429.394126 -116.208973 
L 429.830391 -114.071544 
L 430.185933 -111.934114 
L 430.455497 -109.796685 
L 430.633013 -107.659255 
L 430.711641 -105.521826 
L 430.683884 -103.384397 
L 430.541783 -101.246967 
L 430.277184 -99.109538 
L 429.882069 -96.972108 
L 429.348941 -94.834679 
L 428.671239 -92.69725 
L 427.843774 -90.55982 
L 426.86315 -88.422391 
L 425.728151 -86.284961 
L 424.440071 -84.147532 
L 423.002958 -82.010103 
L 421.423761 -79.872673 
L 419.712365 -77.735244 
L 417.881502 -75.597814 
L 415.946542 -73.460385 
L 413.925166 -71.322956 
L 411.836949 -69.185526 
L 409.702845 -67.048097 
L 407.544625 -64.910667 
L 405.38428 -62.773238 
L 403.243421 -60.635809 
L 401.142705 -58.498379 
L 399.101304 -56.36095 
L 397.13646 -54.22352 
L 395.263111 -52.086091 
L 393.493636 -49.948662 
L 391.837689 -47.811232 
L 390.302152 -45.673803 
L 388.891178 -43.536373 
L 387.606331 -41.398944 
L 386.446794 -39.261515 
L 385.40964 -37.124085 
L 384.490146 -34.986656 
L 383.682125 -32.849226 
L 382.978273 -30.711797 
L 382.370496 -28.574368 
L 381.85023 -26.436938 
L 381.40872 -24.299509 
L 381.03727 -22.162079 
L 380.727443 -20.02465 
L 380.471226 -17.887221 
L 380.26115 -15.749791 
L 380.090371 -13.612362 
L 379.952716 -11.474933 
L 379.8427 -9.337503 
L 379.755518 -7.200074 
L 379.687012 -5.062644 
L 379.633635 -2.925215 
L 379.592396 -0.787786 
L 379.560802 1.349644 
L 379.536801 3.487073 
z
" style="stroke: #1f77b4"/>
    </defs>
    <g clip-path="url(#p66776fe686)">
     <use xlink:href="#m1e30ad1980" x="0" y="438.513437" style="fill: #1f77b4; fill-opacity: 0.25; stroke: #1f77b4"/>
    </g>
   </g>
   <g id="matplotlib.axis_5">
    <g id="xtick_11"/>
    <g id="xtick_12"/>
   </g>
   <g id="matplotlib.axis_6">
    <g id="ytick_9">
     <g id="line2d_19">
      <g>
       <use xlink:href="#m9eb6be270c" x="379.469464" y="377.350777" style="stroke: #000000; stroke-width: 0.8"/>
      </g>
     </g>
    </g>
    <g id="ytick_10">
     <g id="line2d_20">
      <g>
       <use xlink:href="#m9eb6be270c" x="379.469464" y="325.412359" style="stroke: #000000; stroke-width: 0.8"/>
      </g>
     </g>
    </g>
    <g id="ytick_11">
     <g id="line2d_21">
      <g>
       <use xlink:href="#m9eb6be270c" x="379.469464" y="273.473941" style="stroke: #000000; stroke-width: 0.8"/>
      </g>
     </g>
    </g>
    <g id="ytick_12">
     <g id="line2d_22">
      <g>
       <use xlink:href="#m9eb6be270c" x="379.469464" y="221.535523" style="stroke: #000000; stroke-width: 0.8"/>
      </g>
     </g>
    </g>
    <g id="ytick_13">
     <g id="line2d_23">
      <g>
       <use xlink:href="#m9eb6be270c" x="379.469464" y="169.597105" style="stroke: #000000; stroke-width: 0.8"/>
      </g>
     </g>
    </g>
    <g id="ytick_14">
     <g id="line2d_24">
      <g>
       <use xlink:href="#m9eb6be270c" x="379.469464" y="117.658687" style="stroke: #000000; stroke-width: 0.8"/>
      </g>
     </g>
    </g>
   </g>
   <g id="patch_8">
    <path d="M 379.469464 386.44 
L 379.469464 72.212571 
" style="fill: none; stroke: #000000; stroke-width: 0.8; stroke-linejoin: miter; stroke-linecap: square"/>
   </g>
  </g>
 </g>
 <defs>
  <clipPath id="p072095a689">
   <rect x="56.64375" y="72.212571" width="312.064857" height="314.227429"/>
  </clipPath>
  <clipPath id="p6403cee906">
   <rect x="56.64375" y="7.2" width="312.064857" height="54.177143"/>
  </clipPath>
  <clipPath id="p66776fe686">
   <rect x="379.469464" y="72.212571" width="53.804286" height="314.227429"/>
  </clipPath>
 </defs>
</svg>
