<?xml version="1.0" encoding="utf-8" standalone="no"?>
<!DOCTYPE svg PUBLIC "-//W3C//DTD SVG 1.1//EN"
  "http://www.w3.org/Graphics/SVG/1.1/DTD/svg11.dtd">
<svg xmlns:xlink="http://www.w3.org/1999/xlink" width="414.641875pt" height="150.520479pt" viewBox="0 0 414.641875 150.520479" xmlns="http://www.w3.org/2000/svg" version="1.1">
 <metadata>
  <rdf:RDF xmlns:dc="http://purl.org/dc/elements/1.1/" xmlns:cc="http://creativecommons.org/ns#" xmlns:rdf="http://www.w3.org/1999/02/22-rdf-syntax-ns#">
   <cc:Work>
    <dc:type rdf:resource="http://purl.org/dc/dcmitype/StillImage"/>
    <dc:date>2022-12-10T11:11:14.884227</dc:date>
    <dc:format>image/svg+xml</dc:format>
    <dc:creator>
     <cc:Agent>
      <dc:title>Matplotlib v3.6.2, https://matplotlib.org/</dc:title>
     </cc:Agent>
    </dc:creator>
   </cc:Work>
  </rdf:RDF>
 </metadata>
 <defs>
  <style type="text/css">*{stroke-linejoin: round; stroke-linecap: butt}</style>
 </defs>
 <g id="figure_1">
  <g id="patch_1">
   <path d="M 0 150.520479 
L 414.641875 150.520479 
L 414.641875 0 
L 0 0 
z
" style="fill: #ffffff"/>
  </g>
  <g id="axes_1">
   <g id="patch_2">
    <path d="M 50.321875 139.332094 
L 407.441875 139.332094 
L 407.441875 32.196094 
L 50.321875 32.196094 
z
" style="fill: #ffffff"/>
   </g>
   <g id="patch_3">
    <path d="M 52.422581 95.50373 
L 69.228228 95.50373 
L 69.228228 95.50373 
L 52.422581 95.50373 
z
" clip-path="url(#pa3f3669920)" style="fill: #3274a1"/>
   </g>
   <g id="patch_4">
    <path d="M 73.42964 95.50373 
L 90.235287 95.50373 
L 90.235287 95.50373 
L 73.42964 95.50373 
z
" clip-path="url(#pa3f3669920)" style="fill: #3274a1"/>
   </g>
   <g id="patch_5">
    <path d="M 94.436699 95.50373 
L 111.242346 95.50373 
L 111.242346 37.065912 
L 94.436699 37.065912 
z
" clip-path="url(#pa3f3669920)" style="fill: #3274a1"/>
   </g>
   <g id="patch_6">
    <path d="M 115.443757 95.50373 
L 132.249404 95.50373 
L 132.249404 85.764094 
L 115.443757 85.764094 
z
" clip-path="url(#pa3f3669920)" style="fill: #3274a1"/>
   </g>
   <g id="patch_7">
    <path d="M 136.450816 95.50373 
L 153.256463 95.50373 
L 153.256463 76.024457 
L 136.450816 76.024457 
z
" clip-path="url(#pa3f3669920)" style="fill: #3274a1"/>
   </g>
   <g id="patch_8">
    <path d="M 157.457875 95.50373 
L 174.263522 95.50373 
L 174.263522 95.50373 
L 157.457875 95.50373 
z
" clip-path="url(#pa3f3669920)" style="fill: #3274a1"/>
   </g>
   <g id="patch_9">
    <path d="M 178.464934 95.50373 
L 195.270581 95.50373 
L 195.270581 46.805548 
L 178.464934 46.805548 
z
" clip-path="url(#pa3f3669920)" style="fill: #3274a1"/>
   </g>
   <g id="patch_10">
    <path d="M 199.471993 95.50373 
L 216.27764 95.50373 
L 216.27764 76.024457 
L 199.471993 76.024457 
z
" clip-path="url(#pa3f3669920)" style="fill: #3274a1"/>
   </g>
   <g id="patch_11">
    <path d="M 220.479051 95.50373 
L 237.284699 95.50373 
L 237.284699 95.50373 
L 220.479051 95.50373 
z
" clip-path="url(#pa3f3669920)" style="fill: #3274a1"/>
   </g>
   <g id="patch_12">
    <path d="M 241.48611 95.50373 
L 258.291757 95.50373 
L 258.291757 76.024457 
L 241.48611 76.024457 
z
" clip-path="url(#pa3f3669920)" style="fill: #3274a1"/>
   </g>
   <g id="patch_13">
    <path d="M 262.493169 95.50373 
L 279.298816 95.50373 
L 279.298816 76.024457 
L 262.493169 76.024457 
z
" clip-path="url(#pa3f3669920)" style="fill: #3274a1"/>
   </g>
   <g id="patch_14">
    <path d="M 283.500228 95.50373 
L 300.305875 95.50373 
L 300.305875 76.024457 
L 283.500228 76.024457 
z
" clip-path="url(#pa3f3669920)" style="fill: #3274a1"/>
   </g>
   <g id="patch_15">
    <path d="M 304.507287 95.50373 
L 321.312934 95.50373 
L 321.312934 85.764094 
L 304.507287 85.764094 
z
" clip-path="url(#pa3f3669920)" style="fill: #3274a1"/>
   </g>
   <g id="patch_16">
    <path d="M 325.514346 95.50373 
L 342.319993 95.50373 
L 342.319993 85.764094 
L 325.514346 85.764094 
z
" clip-path="url(#pa3f3669920)" style="fill: #3274a1"/>
   </g>
   <g id="patch_17">
    <path d="M 346.521404 95.50373 
L 363.327051 95.50373 
L 363.327051 95.50373 
L 346.521404 95.50373 
z
" clip-path="url(#pa3f3669920)" style="fill: #3274a1"/>
   </g>
   <g id="patch_18">
    <path d="M 367.528463 95.50373 
L 384.33411 95.50373 
L 384.33411 95.50373 
L 367.528463 95.50373 
z
" clip-path="url(#pa3f3669920)" style="fill: #3274a1"/>
   </g>
   <g id="patch_19">
    <path d="M 388.535522 95.50373 
L 405.341169 95.50373 
L 405.341169 95.50373 
L 388.535522 95.50373 
z
" clip-path="url(#pa3f3669920)" style="fill: #3274a1"/>
   </g>
   <g id="patch_20">
    <path d="M 52.422581 95.50373 
L 69.228228 95.50373 
L 69.228228 124.722639 
L 52.422581 124.722639 
z
" clip-path="url(#pa3f3669920)" style="fill: #e1812c"/>
   </g>
   <g id="patch_21">
    <path d="M 73.42964 95.50373 
L 90.235287 95.50373 
L 90.235287 124.722639 
L 73.42964 124.722639 
z
" clip-path="url(#pa3f3669920)" style="fill: #e1812c"/>
   </g>
   <g id="patch_22">
    <path d="M 94.436699 95.50373 
L 111.242346 95.50373 
L 111.242346 95.50373 
L 94.436699 95.50373 
z
" clip-path="url(#pa3f3669920)" style="fill: #e1812c"/>
   </g>
   <g id="patch_23">
    <path d="M 115.443757 95.50373 
L 132.249404 95.50373 
L 132.249404 95.50373 
L 115.443757 95.50373 
z
" clip-path="url(#pa3f3669920)" style="fill: #e1812c"/>
   </g>
   <g id="patch_24">
    <path d="M 136.450816 95.50373 
L 153.256463 95.50373 
L 153.256463 114.983003 
L 136.450816 114.983003 
z
" clip-path="url(#pa3f3669920)" style="fill: #e1812c"/>
   </g>
   <g id="patch_25">
    <path d="M 157.457875 95.50373 
L 174.263522 95.50373 
L 174.263522 124.722639 
L 157.457875 124.722639 
z
" clip-path="url(#pa3f3669920)" style="fill: #e1812c"/>
   </g>
   <g id="patch_26">
    <path d="M 178.464934 95.50373 
L 195.270581 95.50373 
L 195.270581 95.50373 
L 178.464934 95.50373 
z
" clip-path="url(#pa3f3669920)" style="fill: #e1812c"/>
   </g>
   <g id="patch_27">
    <path d="M 199.471993 95.50373 
L 216.27764 95.50373 
L 216.27764 134.462276 
L 199.471993 134.462276 
z
" clip-path="url(#pa3f3669920)" style="fill: #e1812c"/>
   </g>
   <g id="patch_28">
    <path d="M 220.479051 95.50373 
L 237.284699 95.50373 
L 237.284699 105.243366 
L 220.479051 105.243366 
z
" clip-path="url(#pa3f3669920)" style="fill: #e1812c"/>
   </g>
   <g id="patch_29">
    <path d="M 241.48611 95.50373 
L 258.291757 95.50373 
L 258.291757 105.243366 
L 241.48611 105.243366 
z
" clip-path="url(#pa3f3669920)" style="fill: #e1812c"/>
   </g>
   <g id="patch_30">
    <path d="M 262.493169 95.50373 
L 279.298816 95.50373 
L 279.298816 95.50373 
L 262.493169 95.50373 
z
" clip-path="url(#pa3f3669920)" style="fill: #e1812c"/>
   </g>
   <g id="patch_31">
    <path d="M 283.500228 95.50373 
L 300.305875 95.50373 
L 300.305875 95.50373 
L 283.500228 95.50373 
z
" clip-path="url(#pa3f3669920)" style="fill: #e1812c"/>
   </g>
   <g id="patch_32">
    <path d="M 304.507287 95.50373 
L 321.312934 95.50373 
L 321.312934 114.983003 
L 304.507287 114.983003 
z
" clip-path="url(#pa3f3669920)" style="fill: #e1812c"/>
   </g>
   <g id="patch_33">
    <path d="M 325.514346 95.50373 
L 342.319993 95.50373 
L 342.319993 124.722639 
L 325.514346 124.722639 
z
" clip-path="url(#pa3f3669920)" style="fill: #e1812c"/>
   </g>
   <g id="patch_34">
    <path d="M 346.521404 95.50373 
L 363.327051 95.50373 
L 363.327051 134.462276 
L 346.521404 134.462276 
z
" clip-path="url(#pa3f3669920)" style="fill: #e1812c"/>
   </g>
   <g id="patch_35">
    <path d="M 367.528463 95.50373 
L 384.33411 95.50373 
L 384.33411 105.243366 
L 367.528463 105.243366 
z
" clip-path="url(#pa3f3669920)" style="fill: #e1812c"/>
   </g>
   <g id="patch_36">
    <path d="M 388.535522 95.50373 
L 405.341169 95.50373 
L 405.341169 105.243366 
L 388.535522 105.243366 
z
" clip-path="url(#pa3f3669920)" style="fill: #e1812c"/>
   </g>
   <g id="matplotlib.axis_1"/>
   <g id="matplotlib.axis_2">
    <g id="ytick_1">
     <g id="line2d_1">
      <defs>
       <path id="mb4411ff55b" d="M 0 0 
L -3.5 0 
" style="stroke: #000000; stroke-width: 0.8"/>
      </defs>
      <g>
       <use xlink:href="#mb4411ff55b" x="50.321875" y="95.50373" style="stroke: #000000; stroke-width: 0.8"/>
      </g>
     </g>
     <g id="text_1">
      <!--    0 -->
      <g transform="translate(7.2 101.242402) scale(0.15 -0.15)">
       <defs>
        <path id="DejaVuSansMono-20" transform="scale(0.015625)"/>
        <path id="DejaVuSansMono-30" d="M 1509 2344 
Q 1509 2516 1629 2641 
Q 1750 2766 1919 2766 
Q 2094 2766 2219 2641 
Q 2344 2516 2344 2344 
Q 2344 2169 2220 2047 
Q 2097 1925 1919 1925 
Q 1744 1925 1626 2044 
Q 1509 2163 1509 2344 
z
M 1925 4250 
Q 1484 4250 1267 3775 
Q 1050 3300 1050 2328 
Q 1050 1359 1267 884 
Q 1484 409 1925 409 
Q 2369 409 2586 884 
Q 2803 1359 2803 2328 
Q 2803 3300 2586 3775 
Q 2369 4250 1925 4250 
z
M 1925 4750 
Q 2672 4750 3055 4137 
Q 3438 3525 3438 2328 
Q 3438 1134 3055 521 
Q 2672 -91 1925 -91 
Q 1178 -91 797 521 
Q 416 1134 416 2328 
Q 416 3525 797 4137 
Q 1178 4750 1925 4750 
z
" transform="scale(0.015625)"/>
       </defs>
       <use xlink:href="#DejaVuSansMono-20"/>
       <use xlink:href="#DejaVuSansMono-20" x="60.205078"/>
       <use xlink:href="#DejaVuSansMono-20" x="120.410156"/>
       <use xlink:href="#DejaVuSansMono-30" x="180.615234"/>
      </g>
     </g>
    </g>
    <g id="ytick_2">
     <g id="line2d_2">
      <g>
       <use xlink:href="#mb4411ff55b" x="50.321875" y="134.462276" style="stroke: #000000; stroke-width: 0.8"/>
      </g>
     </g>
     <g id="text_2">
      <!--   -4 -->
      <g transform="translate(7.2 140.200947) scale(0.15 -0.15)">
       <defs>
        <path id="DejaVuSansMono-2d" d="M 1113 2009 
L 2741 2009 
L 2741 1497 
L 1113 1497 
L 1113 2009 
z
" transform="scale(0.015625)"/>
        <path id="DejaVuSansMono-34" d="M 2297 4091 
L 825 1625 
L 2297 1625 
L 2297 4091 
z
M 2194 4666 
L 2925 4666 
L 2925 1625 
L 3547 1625 
L 3547 1113 
L 2925 1113 
L 2925 0 
L 2297 0 
L 2297 1113 
L 319 1113 
L 319 1709 
L 2194 4666 
z
" transform="scale(0.015625)"/>
       </defs>
       <use xlink:href="#DejaVuSansMono-20"/>
       <use xlink:href="#DejaVuSansMono-20" x="60.205078"/>
       <use xlink:href="#DejaVuSansMono-2d" x="120.410156"/>
       <use xlink:href="#DejaVuSansMono-34" x="180.615234"/>
      </g>
     </g>
    </g>
    <g id="ytick_3">
     <g id="line2d_3">
      <g>
       <use xlink:href="#mb4411ff55b" x="50.321875" y="37.065912" style="stroke: #000000; stroke-width: 0.8"/>
      </g>
     </g>
     <g id="text_3">
      <!--    6 -->
      <g transform="translate(7.2 42.804584) scale(0.15 -0.15)">
       <defs>
        <path id="DejaVuSansMono-36" d="M 3097 4563 
L 3097 3981 
Q 2900 4097 2678 4158 
Q 2456 4219 2216 4219 
Q 1616 4219 1306 3767 
Q 997 3316 997 2438 
Q 1147 2750 1412 2917 
Q 1678 3084 2022 3084 
Q 2697 3084 3067 2670 
Q 3438 2256 3438 1497 
Q 3438 741 3056 325 
Q 2675 -91 1984 -91 
Q 1172 -91 794 492 
Q 416 1075 416 2328 
Q 416 3509 870 4129 
Q 1325 4750 2188 4750 
Q 2419 4750 2650 4701 
Q 2881 4653 3097 4563 
z
M 1972 2591 
Q 1569 2591 1337 2300 
Q 1106 2009 1106 1497 
Q 1106 984 1337 693 
Q 1569 403 1972 403 
Q 2391 403 2603 679 
Q 2816 956 2816 1497 
Q 2816 2041 2603 2316 
Q 2391 2591 1972 2591 
z
" transform="scale(0.015625)"/>
       </defs>
       <use xlink:href="#DejaVuSansMono-20"/>
       <use xlink:href="#DejaVuSansMono-20" x="60.205078"/>
       <use xlink:href="#DejaVuSansMono-20" x="120.410156"/>
       <use xlink:href="#DejaVuSansMono-36" x="180.615234"/>
      </g>
     </g>
    </g>
   </g>
   <g id="line2d_4">
    <path clip-path="url(#pa3f3669920)" style="fill: none; stroke: #424242; stroke-width: 2.7; stroke-linecap: square"/>
   </g>
   <g id="line2d_5">
    <path clip-path="url(#pa3f3669920)" style="fill: none; stroke: #424242; stroke-width: 2.7; stroke-linecap: square"/>
   </g>
   <g id="line2d_6">
    <path clip-path="url(#pa3f3669920)" style="fill: none; stroke: #424242; stroke-width: 2.7; stroke-linecap: square"/>
   </g>
   <g id="line2d_7">
    <path clip-path="url(#pa3f3669920)" style="fill: none; stroke: #424242; stroke-width: 2.7; stroke-linecap: square"/>
   </g>
   <g id="line2d_8">
    <path clip-path="url(#pa3f3669920)" style="fill: none; stroke: #424242; stroke-width: 2.7; stroke-linecap: square"/>
   </g>
   <g id="line2d_9">
    <path clip-path="url(#pa3f3669920)" style="fill: none; stroke: #424242; stroke-width: 2.7; stroke-linecap: square"/>
   </g>
   <g id="line2d_10">
    <path clip-path="url(#pa3f3669920)" style="fill: none; stroke: #424242; stroke-width: 2.7; stroke-linecap: square"/>
   </g>
   <g id="line2d_11">
    <path clip-path="url(#pa3f3669920)" style="fill: none; stroke: #424242; stroke-width: 2.7; stroke-linecap: square"/>
   </g>
   <g id="line2d_12">
    <path clip-path="url(#pa3f3669920)" style="fill: none; stroke: #424242; stroke-width: 2.7; stroke-linecap: square"/>
   </g>
   <g id="line2d_13">
    <path clip-path="url(#pa3f3669920)" style="fill: none; stroke: #424242; stroke-width: 2.7; stroke-linecap: square"/>
   </g>
   <g id="line2d_14">
    <path clip-path="url(#pa3f3669920)" style="fill: none; stroke: #424242; stroke-width: 2.7; stroke-linecap: square"/>
   </g>
   <g id="line2d_15">
    <path clip-path="url(#pa3f3669920)" style="fill: none; stroke: #424242; stroke-width: 2.7; stroke-linecap: square"/>
   </g>
   <g id="line2d_16">
    <path clip-path="url(#pa3f3669920)" style="fill: none; stroke: #424242; stroke-width: 2.7; stroke-linecap: square"/>
   </g>
   <g id="line2d_17">
    <path clip-path="url(#pa3f3669920)" style="fill: none; stroke: #424242; stroke-width: 2.7; stroke-linecap: square"/>
   </g>
   <g id="line2d_18">
    <path clip-path="url(#pa3f3669920)" style="fill: none; stroke: #424242; stroke-width: 2.7; stroke-linecap: square"/>
   </g>
   <g id="line2d_19">
    <path clip-path="url(#pa3f3669920)" style="fill: none; stroke: #424242; stroke-width: 2.7; stroke-linecap: square"/>
   </g>
   <g id="line2d_20">
    <path clip-path="url(#pa3f3669920)" style="fill: none; stroke: #424242; stroke-width: 2.7; stroke-linecap: square"/>
   </g>
   <g id="line2d_21">
    <path clip-path="url(#pa3f3669920)" style="fill: none; stroke: #424242; stroke-width: 2.7; stroke-linecap: square"/>
   </g>
   <g id="line2d_22">
    <path clip-path="url(#pa3f3669920)" style="fill: none; stroke: #424242; stroke-width: 2.7; stroke-linecap: square"/>
   </g>
   <g id="line2d_23">
    <path clip-path="url(#pa3f3669920)" style="fill: none; stroke: #424242; stroke-width: 2.7; stroke-linecap: square"/>
   </g>
   <g id="line2d_24">
    <path clip-path="url(#pa3f3669920)" style="fill: none; stroke: #424242; stroke-width: 2.7; stroke-linecap: square"/>
   </g>
   <g id="line2d_25">
    <path clip-path="url(#pa3f3669920)" style="fill: none; stroke: #424242; stroke-width: 2.7; stroke-linecap: square"/>
   </g>
   <g id="line2d_26">
    <path clip-path="url(#pa3f3669920)" style="fill: none; stroke: #424242; stroke-width: 2.7; stroke-linecap: square"/>
   </g>
   <g id="line2d_27">
    <path clip-path="url(#pa3f3669920)" style="fill: none; stroke: #424242; stroke-width: 2.7; stroke-linecap: square"/>
   </g>
   <g id="line2d_28">
    <path clip-path="url(#pa3f3669920)" style="fill: none; stroke: #424242; stroke-width: 2.7; stroke-linecap: square"/>
   </g>
   <g id="line2d_29">
    <path clip-path="url(#pa3f3669920)" style="fill: none; stroke: #424242; stroke-width: 2.7; stroke-linecap: square"/>
   </g>
   <g id="line2d_30">
    <path clip-path="url(#pa3f3669920)" style="fill: none; stroke: #424242; stroke-width: 2.7; stroke-linecap: square"/>
   </g>
   <g id="line2d_31">
    <path clip-path="url(#pa3f3669920)" style="fill: none; stroke: #424242; stroke-width: 2.7; stroke-linecap: square"/>
   </g>
   <g id="line2d_32">
    <path clip-path="url(#pa3f3669920)" style="fill: none; stroke: #424242; stroke-width: 2.7; stroke-linecap: square"/>
   </g>
   <g id="line2d_33">
    <path clip-path="url(#pa3f3669920)" style="fill: none; stroke: #424242; stroke-width: 2.7; stroke-linecap: square"/>
   </g>
   <g id="line2d_34">
    <path clip-path="url(#pa3f3669920)" style="fill: none; stroke: #424242; stroke-width: 2.7; stroke-linecap: square"/>
   </g>
   <g id="line2d_35">
    <path clip-path="url(#pa3f3669920)" style="fill: none; stroke: #424242; stroke-width: 2.7; stroke-linecap: square"/>
   </g>
   <g id="line2d_36">
    <path clip-path="url(#pa3f3669920)" style="fill: none; stroke: #424242; stroke-width: 2.7; stroke-linecap: square"/>
   </g>
   <g id="line2d_37">
    <path clip-path="url(#pa3f3669920)" style="fill: none; stroke: #424242; stroke-width: 2.7; stroke-linecap: square"/>
   </g>
   <g id="patch_37">
    <path d="M 50.321875 139.332094 
L 50.321875 32.196094 
" style="fill: none; stroke: #000000; stroke-width: 0.8; stroke-linejoin: miter; stroke-linecap: square"/>
   </g>
   <g id="patch_38">
    <path d="M 407.441875 139.332094 
L 407.441875 32.196094 
" style="fill: none; stroke: #000000; stroke-width: 0.8; stroke-linejoin: miter; stroke-linecap: square"/>
   </g>
   <g id="patch_39">
    <path d="M 50.321875 139.332094 
L 407.441875 139.332094 
" style="fill: none; stroke: #000000; stroke-width: 0.8; stroke-linejoin: miter; stroke-linecap: square"/>
   </g>
   <g id="patch_40">
    <path d="M 50.321875 32.196094 
L 407.441875 32.196094 
" style="fill: none; stroke: #000000; stroke-width: 0.8; stroke-linejoin: miter; stroke-linecap: square"/>
   </g>
   <g id="text_4">
    <!-- gzip -->
    <g transform="translate(202.977578 26.196094) scale(0.25 -0.25)">
     <defs>
      <path id="DejaVuSans-67" d="M 2906 1791 
Q 2906 2416 2648 2759 
Q 2391 3103 1925 3103 
Q 1463 3103 1205 2759 
Q 947 2416 947 1791 
Q 947 1169 1205 825 
Q 1463 481 1925 481 
Q 2391 481 2648 825 
Q 2906 1169 2906 1791 
z
M 3481 434 
Q 3481 -459 3084 -895 
Q 2688 -1331 1869 -1331 
Q 1566 -1331 1297 -1286 
Q 1028 -1241 775 -1147 
L 775 -588 
Q 1028 -725 1275 -790 
Q 1522 -856 1778 -856 
Q 2344 -856 2625 -561 
Q 2906 -266 2906 331 
L 2906 616 
Q 2728 306 2450 153 
Q 2172 0 1784 0 
Q 1141 0 747 490 
Q 353 981 353 1791 
Q 353 2603 747 3093 
Q 1141 3584 1784 3584 
Q 2172 3584 2450 3431 
Q 2728 3278 2906 2969 
L 2906 3500 
L 3481 3500 
L 3481 434 
z
" transform="scale(0.015625)"/>
      <path id="DejaVuSans-7a" d="M 353 3500 
L 3084 3500 
L 3084 2975 
L 922 459 
L 3084 459 
L 3084 0 
L 275 0 
L 275 525 
L 2438 3041 
L 353 3041 
L 353 3500 
z
" transform="scale(0.015625)"/>
      <path id="DejaVuSans-69" d="M 603 3500 
L 1178 3500 
L 1178 0 
L 603 0 
L 603 3500 
z
M 603 4863 
L 1178 4863 
L 1178 4134 
L 603 4134 
L 603 4863 
z
" transform="scale(0.015625)"/>
      <path id="DejaVuSans-70" d="M 1159 525 
L 1159 -1331 
L 581 -1331 
L 581 3500 
L 1159 3500 
L 1159 2969 
Q 1341 3281 1617 3432 
Q 1894 3584 2278 3584 
Q 2916 3584 3314 3078 
Q 3713 2572 3713 1747 
Q 3713 922 3314 415 
Q 2916 -91 2278 -91 
Q 1894 -91 1617 61 
Q 1341 213 1159 525 
z
M 3116 1747 
Q 3116 2381 2855 2742 
Q 2594 3103 2138 3103 
Q 1681 3103 1420 2742 
Q 1159 2381 1159 1747 
Q 1159 1113 1420 752 
Q 1681 391 2138 391 
Q 2594 391 2855 752 
Q 3116 1113 3116 1747 
z
" transform="scale(0.015625)"/>
     </defs>
     <use xlink:href="#DejaVuSans-67"/>
     <use xlink:href="#DejaVuSans-7a" x="63.476562"/>
     <use xlink:href="#DejaVuSans-69" x="115.966797"/>
     <use xlink:href="#DejaVuSans-70" x="143.75"/>
    </g>
   </g>
  </g>
 </g>
 <defs>
  <clipPath id="pa3f3669920">
   <rect x="50.321875" y="32.196094" width="357.12" height="107.136"/>
  </clipPath>
 </defs>
</svg>
