<?xml version="1.0" encoding="utf-8" standalone="no"?>
<!DOCTYPE svg PUBLIC "-//W3C//DTD SVG 1.1//EN"
  "http://www.w3.org/Graphics/SVG/1.1/DTD/svg11.dtd">
<svg xmlns:xlink="http://www.w3.org/1999/xlink" width="445.312812pt" height="443.3525pt" viewBox="0 0 445.312812 443.3525" xmlns="http://www.w3.org/2000/svg" version="1.1">
 <metadata>
  <rdf:RDF xmlns:dc="http://purl.org/dc/elements/1.1/" xmlns:cc="http://creativecommons.org/ns#" xmlns:rdf="http://www.w3.org/1999/02/22-rdf-syntax-ns#">
   <cc:Work>
    <dc:type rdf:resource="http://purl.org/dc/dcmitype/StillImage"/>
    <dc:date>2022-12-09T16:25:48.581004</dc:date>
    <dc:format>image/svg+xml</dc:format>
    <dc:creator>
     <cc:Agent>
      <dc:title>Matplotlib v3.6.2, https://matplotlib.org/</dc:title>
     </cc:Agent>
    </dc:creator>
   </cc:Work>
  </rdf:RDF>
 </metadata>
 <defs>
  <style type="text/css">*{stroke-linejoin: round; stroke-linecap: butt}</style>
 </defs>
 <g id="figure_1">
  <g id="patch_1">
   <path d="M 0 443.3525 
L 445.312812 443.3525 
L 445.312812 0 
L 0 0 
z
" style="fill: #ffffff"/>
  </g>
  <g id="axes_1">
   <g id="patch_2">
    <path d="M 61.482813 386.44 
L 373.54767 386.44 
L 373.54767 72.212571 
L 61.482813 72.212571 
z
" style="fill: #ffffff"/>
   </g>
   <g id="PathCollection_1">
    <defs>
     <path id="mfc97944d6d" d="M 0 5 
C 1.326016 5 2.597899 4.473168 3.535534 3.535534 
C 4.473168 2.597899 5 1.326016 5 0 
C 5 -1.326016 4.473168 -2.597899 3.535534 -3.535534 
C 2.597899 -4.473168 1.326016 -5 0 -5 
C -1.326016 -5 -2.597899 -4.473168 -3.535534 -3.535534 
C -4.473168 -2.597899 -5 -1.326016 -5 0 
C -5 1.326016 -4.473168 2.597899 -3.535534 3.535534 
C -2.597899 4.473168 -1.326016 5 0 5 
z
" style="stroke: #ffffff; stroke-opacity: 0.5; stroke-width: 0.8"/>
    </defs>
    <g clip-path="url(#p52a177119d)">
     <use xlink:href="#mfc97944d6d" x="85.402222" y="282.37767" style="fill: #1f77b4; fill-opacity: 0.5; stroke: #ffffff; stroke-opacity: 0.5; stroke-width: 0.8"/>
     <use xlink:href="#mfc97944d6d" x="75.667579" y="363.995184" style="fill: #1f77b4; fill-opacity: 0.5; stroke: #ffffff; stroke-opacity: 0.5; stroke-width: 0.8"/>
     <use xlink:href="#mfc97944d6d" x="82.620896" y="359.914308" style="fill: #1f77b4; fill-opacity: 0.5; stroke: #ffffff; stroke-opacity: 0.5; stroke-width: 0.8"/>
     <use xlink:href="#mfc97944d6d" x="252.281825" y="282.37767" style="fill: #1f77b4; fill-opacity: 0.5; stroke: #ffffff; stroke-opacity: 0.5; stroke-width: 0.8"/>
     <use xlink:href="#mfc97944d6d" x="120.168806" y="327.267302" style="fill: #1f77b4; fill-opacity: 0.5; stroke: #ffffff; stroke-opacity: 0.5; stroke-width: 0.8"/>
     <use xlink:href="#mfc97944d6d" x="88.183549" y="245.649788" style="fill: #1f77b4; fill-opacity: 0.5; stroke: #ffffff; stroke-opacity: 0.5; stroke-width: 0.8"/>
     <use xlink:href="#mfc97944d6d" x="88.183549" y="327.267302" style="fill: #1f77b4; fill-opacity: 0.5; stroke: #ffffff; stroke-opacity: 0.5; stroke-width: 0.8"/>
     <use xlink:href="#mfc97944d6d" x="103.480846" y="164.032275" style="fill: #1f77b4; fill-opacity: 0.5; stroke: #ffffff; stroke-opacity: 0.5; stroke-width: 0.8"/>
     <use xlink:href="#mfc97944d6d" x="342.674943" y="331.348178" style="fill: #1f77b4; fill-opacity: 0.5; stroke: #ffffff; stroke-opacity: 0.5; stroke-width: 0.8"/>
     <use xlink:href="#mfc97944d6d" x="103.480846" y="298.701173" style="fill: #1f77b4; fill-opacity: 0.5; stroke: #ffffff; stroke-opacity: 0.5; stroke-width: 0.8"/>
     <use xlink:href="#mfc97944d6d" x="120.168806" y="343.590805" style="fill: #1f77b4; fill-opacity: 0.5; stroke: #ffffff; stroke-opacity: 0.5; stroke-width: 0.8"/>
     <use xlink:href="#mfc97944d6d" x="118.778143" y="368.076059" style="fill: #1f77b4; fill-opacity: 0.5; stroke: #ffffff; stroke-opacity: 0.5; stroke-width: 0.8"/>
     <use xlink:href="#mfc97944d6d" x="75.667579" y="315.024675" style="fill: #1f77b4; fill-opacity: 0.5; stroke: #ffffff; stroke-opacity: 0.5; stroke-width: 0.8"/>
     <use xlink:href="#mfc97944d6d" x="117.387479" y="363.995184" style="fill: #1f77b4; fill-opacity: 0.5; stroke: #ffffff; stroke-opacity: 0.5; stroke-width: 0.8"/>
     <use xlink:href="#mfc97944d6d" x="339.893616" y="310.9438" style="fill: #1f77b4; fill-opacity: 0.5; stroke: #ffffff; stroke-opacity: 0.5; stroke-width: 0.8"/>
     <use xlink:href="#mfc97944d6d" x="89.574212" y="172.194026" style="fill: #1f77b4; fill-opacity: 0.5; stroke: #ffffff; stroke-opacity: 0.5; stroke-width: 0.8"/>
     <use xlink:href="#mfc97944d6d" x="78.448905" y="355.833432" style="fill: #1f77b4; fill-opacity: 0.5; stroke: #ffffff; stroke-opacity: 0.5; stroke-width: 0.8"/>
     <use xlink:href="#mfc97944d6d" x="106.262173" y="127.304393" style="fill: #1f77b4; fill-opacity: 0.5; stroke: #ffffff; stroke-opacity: 0.5; stroke-width: 0.8"/>
     <use xlink:href="#mfc97944d6d" x="182.748657" y="335.429054" style="fill: #1f77b4; fill-opacity: 0.5; stroke: #ffffff; stroke-opacity: 0.5; stroke-width: 0.8"/>
     <use xlink:href="#mfc97944d6d" x="84.011559" y="335.429054" style="fill: #1f77b4; fill-opacity: 0.5; stroke: #ffffff; stroke-opacity: 0.5; stroke-width: 0.8"/>
     <use xlink:href="#mfc97944d6d" x="84.011559" y="278.296794" style="fill: #1f77b4; fill-opacity: 0.5; stroke: #ffffff; stroke-opacity: 0.5; stroke-width: 0.8"/>
     <use xlink:href="#mfc97944d6d" x="75.667579" y="363.995184" style="fill: #1f77b4; fill-opacity: 0.5; stroke: #ffffff; stroke-opacity: 0.5; stroke-width: 0.8"/>
     <use xlink:href="#mfc97944d6d" x="117.387479" y="188.517529" style="fill: #1f77b4; fill-opacity: 0.5; stroke: #ffffff; stroke-opacity: 0.5; stroke-width: 0.8"/>
     <use xlink:href="#mfc97944d6d" x="79.839569" y="310.9438" style="fill: #1f77b4; fill-opacity: 0.5; stroke: #ffffff; stroke-opacity: 0.5; stroke-width: 0.8"/>
     <use xlink:href="#mfc97944d6d" x="173.014014" y="359.914308" style="fill: #1f77b4; fill-opacity: 0.5; stroke: #ffffff; stroke-opacity: 0.5; stroke-width: 0.8"/>
     <use xlink:href="#mfc97944d6d" x="79.839569" y="363.995184" style="fill: #1f77b4; fill-opacity: 0.5; stroke: #ffffff; stroke-opacity: 0.5; stroke-width: 0.8"/>
     <use xlink:href="#mfc97944d6d" x="198.045954" y="241.568913" style="fill: #1f77b4; fill-opacity: 0.5; stroke: #ffffff; stroke-opacity: 0.5; stroke-width: 0.8"/>
     <use xlink:href="#mfc97944d6d" x="95.136866" y="327.267302" style="fill: #1f77b4; fill-opacity: 0.5; stroke: #ffffff; stroke-opacity: 0.5; stroke-width: 0.8"/>
     <use xlink:href="#mfc97944d6d" x="88.183549" y="331.348178" style="fill: #1f77b4; fill-opacity: 0.5; stroke: #ffffff; stroke-opacity: 0.5; stroke-width: 0.8"/>
     <use xlink:href="#mfc97944d6d" x="154.93539" y="335.429054" style="fill: #1f77b4; fill-opacity: 0.5; stroke: #ffffff; stroke-opacity: 0.5; stroke-width: 0.8"/>
     <use xlink:href="#mfc97944d6d" x="147.982073" y="343.590805" style="fill: #1f77b4; fill-opacity: 0.5; stroke: #ffffff; stroke-opacity: 0.5; stroke-width: 0.8"/>
     <use xlink:href="#mfc97944d6d" x="103.480846" y="274.215918" style="fill: #1f77b4; fill-opacity: 0.5; stroke: #ffffff; stroke-opacity: 0.5; stroke-width: 0.8"/>
     <use xlink:href="#mfc97944d6d" x="79.839569" y="347.671681" style="fill: #1f77b4; fill-opacity: 0.5; stroke: #ffffff; stroke-opacity: 0.5; stroke-width: 0.8"/>
     <use xlink:href="#mfc97944d6d" x="307.908359" y="298.701173" style="fill: #1f77b4; fill-opacity: 0.5; stroke: #ffffff; stroke-opacity: 0.5; stroke-width: 0.8"/>
     <use xlink:href="#mfc97944d6d" x="170.232687" y="315.024675" style="fill: #1f77b4; fill-opacity: 0.5; stroke: #ffffff; stroke-opacity: 0.5; stroke-width: 0.8"/>
     <use xlink:href="#mfc97944d6d" x="79.839569" y="363.995184" style="fill: #1f77b4; fill-opacity: 0.5; stroke: #ffffff; stroke-opacity: 0.5; stroke-width: 0.8"/>
     <use xlink:href="#mfc97944d6d" x="357.97224" y="233.407161" style="fill: #1f77b4; fill-opacity: 0.5; stroke: #ffffff; stroke-opacity: 0.5; stroke-width: 0.8"/>
     <use xlink:href="#mfc97944d6d" x="153.544727" y="335.429054" style="fill: #1f77b4; fill-opacity: 0.5; stroke: #ffffff; stroke-opacity: 0.5; stroke-width: 0.8"/>
     <use xlink:href="#mfc97944d6d" x="79.839569" y="335.429054" style="fill: #1f77b4; fill-opacity: 0.5; stroke: #ffffff; stroke-opacity: 0.5; stroke-width: 0.8"/>
     <use xlink:href="#mfc97944d6d" x="77.058242" y="339.509929" style="fill: #1f77b4; fill-opacity: 0.5; stroke: #ffffff; stroke-opacity: 0.5; stroke-width: 0.8"/>
     <use xlink:href="#mfc97944d6d" x="104.871509" y="339.509929" style="fill: #1f77b4; fill-opacity: 0.5; stroke: #ffffff; stroke-opacity: 0.5; stroke-width: 0.8"/>
     <use xlink:href="#mfc97944d6d" x="202.217944" y="233.407161" style="fill: #1f77b4; fill-opacity: 0.5; stroke: #ffffff; stroke-opacity: 0.5; stroke-width: 0.8"/>
     <use xlink:href="#mfc97944d6d" x="104.871509" y="319.105551" style="fill: #1f77b4; fill-opacity: 0.5; stroke: #ffffff; stroke-opacity: 0.5; stroke-width: 0.8"/>
     <use xlink:href="#mfc97944d6d" x="95.136866" y="363.995184" style="fill: #1f77b4; fill-opacity: 0.5; stroke: #ffffff; stroke-opacity: 0.5; stroke-width: 0.8"/>
     <use xlink:href="#mfc97944d6d" x="135.466103" y="298.701173" style="fill: #1f77b4; fill-opacity: 0.5; stroke: #ffffff; stroke-opacity: 0.5; stroke-width: 0.8"/>
     <use xlink:href="#mfc97944d6d" x="103.480846" y="274.215918" style="fill: #1f77b4; fill-opacity: 0.5; stroke: #ffffff; stroke-opacity: 0.5; stroke-width: 0.8"/>
     <use xlink:href="#mfc97944d6d" x="288.439072" y="257.892416" style="fill: #1f77b4; fill-opacity: 0.5; stroke: #ffffff; stroke-opacity: 0.5; stroke-width: 0.8"/>
     <use xlink:href="#mfc97944d6d" x="96.527529" y="237.488037" style="fill: #1f77b4; fill-opacity: 0.5; stroke: #ffffff; stroke-opacity: 0.5; stroke-width: 0.8"/>
     <use xlink:href="#mfc97944d6d" x="77.058242" y="372.156935" style="fill: #1f77b4; fill-opacity: 0.5; stroke: #ffffff; stroke-opacity: 0.5; stroke-width: 0.8"/>
     <use xlink:href="#mfc97944d6d" x="160.498043" y="253.81154" style="fill: #1f77b4; fill-opacity: 0.5; stroke: #ffffff; stroke-opacity: 0.5; stroke-width: 0.8"/>
     <use xlink:href="#mfc97944d6d" x="82.620896" y="266.054167" style="fill: #1f77b4; fill-opacity: 0.5; stroke: #ffffff; stroke-opacity: 0.5; stroke-width: 0.8"/>
     <use xlink:href="#mfc97944d6d" x="103.480846" y="253.81154" style="fill: #1f77b4; fill-opacity: 0.5; stroke: #ffffff; stroke-opacity: 0.5; stroke-width: 0.8"/>
     <use xlink:href="#mfc97944d6d" x="90.964876" y="363.995184" style="fill: #1f77b4; fill-opacity: 0.5; stroke: #ffffff; stroke-opacity: 0.5; stroke-width: 0.8"/>
     <use xlink:href="#mfc97944d6d" x="96.527529" y="368.076059" style="fill: #1f77b4; fill-opacity: 0.5; stroke: #ffffff; stroke-opacity: 0.5; stroke-width: 0.8"/>
     <use xlink:href="#mfc97944d6d" x="191.092637" y="363.995184" style="fill: #1f77b4; fill-opacity: 0.5; stroke: #ffffff; stroke-opacity: 0.5; stroke-width: 0.8"/>
     <use xlink:href="#mfc97944d6d" x="359.362903" y="274.215918" style="fill: #1f77b4; fill-opacity: 0.5; stroke: #ffffff; stroke-opacity: 0.5; stroke-width: 0.8"/>
     <use xlink:href="#mfc97944d6d" x="171.62335" y="86.495636" style="fill: #1f77b4; fill-opacity: 0.5; stroke: #ffffff; stroke-opacity: 0.5; stroke-width: 0.8"/>
     <use xlink:href="#mfc97944d6d" x="320.424329" y="237.488037" style="fill: #1f77b4; fill-opacity: 0.5; stroke: #ffffff; stroke-opacity: 0.5; stroke-width: 0.8"/>
     <use xlink:href="#mfc97944d6d" x="103.480846" y="310.9438" style="fill: #1f77b4; fill-opacity: 0.5; stroke: #ffffff; stroke-opacity: 0.5; stroke-width: 0.8"/>
     <use xlink:href="#mfc97944d6d" x="128.512786" y="368.076059" style="fill: #1f77b4; fill-opacity: 0.5; stroke: #ffffff; stroke-opacity: 0.5; stroke-width: 0.8"/>
     <use xlink:href="#mfc97944d6d" x="135.466103" y="323.186427" style="fill: #1f77b4; fill-opacity: 0.5; stroke: #ffffff; stroke-opacity: 0.5; stroke-width: 0.8"/>
     <use xlink:href="#mfc97944d6d" x="77.058242" y="139.54702" style="fill: #1f77b4; fill-opacity: 0.5; stroke: #ffffff; stroke-opacity: 0.5; stroke-width: 0.8"/>
     <use xlink:href="#mfc97944d6d" x="81.230232" y="347.671681" style="fill: #1f77b4; fill-opacity: 0.5; stroke: #ffffff; stroke-opacity: 0.5; stroke-width: 0.8"/>
     <use xlink:href="#mfc97944d6d" x="77.058242" y="282.37767" style="fill: #1f77b4; fill-opacity: 0.5; stroke: #ffffff; stroke-opacity: 0.5; stroke-width: 0.8"/>
     <use xlink:href="#mfc97944d6d" x="164.670034" y="290.539421" style="fill: #1f77b4; fill-opacity: 0.5; stroke: #ffffff; stroke-opacity: 0.5; stroke-width: 0.8"/>
     <use xlink:href="#mfc97944d6d" x="122.950133" y="298.701173" style="fill: #1f77b4; fill-opacity: 0.5; stroke: #ffffff; stroke-opacity: 0.5; stroke-width: 0.8"/>
     <use xlink:href="#mfc97944d6d" x="77.058242" y="261.973291" style="fill: #1f77b4; fill-opacity: 0.5; stroke: #ffffff; stroke-opacity: 0.5; stroke-width: 0.8"/>
     <use xlink:href="#mfc97944d6d" x="86.792886" y="331.348178" style="fill: #1f77b4; fill-opacity: 0.5; stroke: #ffffff; stroke-opacity: 0.5; stroke-width: 0.8"/>
     <use xlink:href="#mfc97944d6d" x="109.043499" y="331.348178" style="fill: #1f77b4; fill-opacity: 0.5; stroke: #ffffff; stroke-opacity: 0.5; stroke-width: 0.8"/>
     <use xlink:href="#mfc97944d6d" x="78.448905" y="347.671681" style="fill: #1f77b4; fill-opacity: 0.5; stroke: #ffffff; stroke-opacity: 0.5; stroke-width: 0.8"/>
     <use xlink:href="#mfc97944d6d" x="168.842024" y="302.782048" style="fill: #1f77b4; fill-opacity: 0.5; stroke: #ffffff; stroke-opacity: 0.5; stroke-width: 0.8"/>
     <use xlink:href="#mfc97944d6d" x="259.235142" y="315.024675" style="fill: #1f77b4; fill-opacity: 0.5; stroke: #ffffff; stroke-opacity: 0.5; stroke-width: 0.8"/>
     <use xlink:href="#mfc97944d6d" x="90.964876" y="339.509929" style="fill: #1f77b4; fill-opacity: 0.5; stroke: #ffffff; stroke-opacity: 0.5; stroke-width: 0.8"/>
     <use xlink:href="#mfc97944d6d" x="334.330963" y="315.024675" style="fill: #1f77b4; fill-opacity: 0.5; stroke: #ffffff; stroke-opacity: 0.5; stroke-width: 0.8"/>
     <use xlink:href="#mfc97944d6d" x="85.402222" y="249.730664" style="fill: #1f77b4; fill-opacity: 0.5; stroke: #ffffff; stroke-opacity: 0.5; stroke-width: 0.8"/>
     <use xlink:href="#mfc97944d6d" x="102.090183" y="290.539421" style="fill: #1f77b4; fill-opacity: 0.5; stroke: #ffffff; stroke-opacity: 0.5; stroke-width: 0.8"/>
     <use xlink:href="#mfc97944d6d" x="75.667579" y="363.995184" style="fill: #1f77b4; fill-opacity: 0.5; stroke: #ffffff; stroke-opacity: 0.5; stroke-width: 0.8"/>
     <use xlink:href="#mfc97944d6d" x="207.780598" y="298.701173" style="fill: #1f77b4; fill-opacity: 0.5; stroke: #ffffff; stroke-opacity: 0.5; stroke-width: 0.8"/>
     <use xlink:href="#mfc97944d6d" x="100.699519" y="351.752557" style="fill: #1f77b4; fill-opacity: 0.5; stroke: #ffffff; stroke-opacity: 0.5; stroke-width: 0.8"/>
     <use xlink:href="#mfc97944d6d" x="141.028756" y="368.076059" style="fill: #1f77b4; fill-opacity: 0.5; stroke: #ffffff; stroke-opacity: 0.5; stroke-width: 0.8"/>
     <use xlink:href="#mfc97944d6d" x="160.498043" y="351.752557" style="fill: #1f77b4; fill-opacity: 0.5; stroke: #ffffff; stroke-opacity: 0.5; stroke-width: 0.8"/>
     <use xlink:href="#mfc97944d6d" x="90.964876" y="368.076059" style="fill: #1f77b4; fill-opacity: 0.5; stroke: #ffffff; stroke-opacity: 0.5; stroke-width: 0.8"/>
     <use xlink:href="#mfc97944d6d" x="86.792886" y="315.024675" style="fill: #1f77b4; fill-opacity: 0.5; stroke: #ffffff; stroke-opacity: 0.5; stroke-width: 0.8"/>
     <use xlink:href="#mfc97944d6d" x="104.871509" y="315.024675" style="fill: #1f77b4; fill-opacity: 0.5; stroke: #ffffff; stroke-opacity: 0.5; stroke-width: 0.8"/>
     <use xlink:href="#mfc97944d6d" x="129.90345" y="335.429054" style="fill: #1f77b4; fill-opacity: 0.5; stroke: #ffffff; stroke-opacity: 0.5; stroke-width: 0.8"/>
     <use xlink:href="#mfc97944d6d" x="109.043499" y="359.914308" style="fill: #1f77b4; fill-opacity: 0.5; stroke: #ffffff; stroke-opacity: 0.5; stroke-width: 0.8"/>
     <use xlink:href="#mfc97944d6d" x="198.045954" y="368.076059" style="fill: #1f77b4; fill-opacity: 0.5; stroke: #ffffff; stroke-opacity: 0.5; stroke-width: 0.8"/>
     <use xlink:href="#mfc97944d6d" x="93.746202" y="351.752557" style="fill: #1f77b4; fill-opacity: 0.5; stroke: #ffffff; stroke-opacity: 0.5; stroke-width: 0.8"/>
     <use xlink:href="#mfc97944d6d" x="100.699519" y="335.429054" style="fill: #1f77b4; fill-opacity: 0.5; stroke: #ffffff; stroke-opacity: 0.5; stroke-width: 0.8"/>
     <use xlink:href="#mfc97944d6d" x="99.308856" y="261.973291" style="fill: #1f77b4; fill-opacity: 0.5; stroke: #ffffff; stroke-opacity: 0.5; stroke-width: 0.8"/>
     <use xlink:href="#mfc97944d6d" x="114.606153" y="331.348178" style="fill: #1f77b4; fill-opacity: 0.5; stroke: #ffffff; stroke-opacity: 0.5; stroke-width: 0.8"/>
     <use xlink:href="#mfc97944d6d" x="103.480846" y="282.37767" style="fill: #1f77b4; fill-opacity: 0.5; stroke: #ffffff; stroke-opacity: 0.5; stroke-width: 0.8"/>
     <use xlink:href="#mfc97944d6d" x="86.792886" y="372.156935" style="fill: #1f77b4; fill-opacity: 0.5; stroke: #ffffff; stroke-opacity: 0.5; stroke-width: 0.8"/>
     <use xlink:href="#mfc97944d6d" x="75.667579" y="172.194026" style="fill: #1f77b4; fill-opacity: 0.5; stroke: #ffffff; stroke-opacity: 0.5; stroke-width: 0.8"/>
     <use xlink:href="#mfc97944d6d" x="78.448905" y="359.914308" style="fill: #1f77b4; fill-opacity: 0.5; stroke: #ffffff; stroke-opacity: 0.5; stroke-width: 0.8"/>
     <use xlink:href="#mfc97944d6d" x="90.964876" y="372.156935" style="fill: #1f77b4; fill-opacity: 0.5; stroke: #ffffff; stroke-opacity: 0.5; stroke-width: 0.8"/>
     <use xlink:href="#mfc97944d6d" x="107.652836" y="343.590805" style="fill: #1f77b4; fill-opacity: 0.5; stroke: #ffffff; stroke-opacity: 0.5; stroke-width: 0.8"/>
     <use xlink:href="#mfc97944d6d" x="339.893616" y="261.973291" style="fill: #1f77b4; fill-opacity: 0.5; stroke: #ffffff; stroke-opacity: 0.5; stroke-width: 0.8"/>
     <use xlink:href="#mfc97944d6d" x="203.608608" y="204.841032" style="fill: #1f77b4; fill-opacity: 0.5; stroke: #ffffff; stroke-opacity: 0.5; stroke-width: 0.8"/>
     <use xlink:href="#mfc97944d6d" x="99.308856" y="274.215918" style="fill: #1f77b4; fill-opacity: 0.5; stroke: #ffffff; stroke-opacity: 0.5; stroke-width: 0.8"/>
     <use xlink:href="#mfc97944d6d" x="104.871509" y="351.752557" style="fill: #1f77b4; fill-opacity: 0.5; stroke: #ffffff; stroke-opacity: 0.5; stroke-width: 0.8"/>
     <use xlink:href="#mfc97944d6d" x="82.620896" y="302.782048" style="fill: #1f77b4; fill-opacity: 0.5; stroke: #ffffff; stroke-opacity: 0.5; stroke-width: 0.8"/>
     <use xlink:href="#mfc97944d6d" x="207.780598" y="290.539421" style="fill: #1f77b4; fill-opacity: 0.5; stroke: #ffffff; stroke-opacity: 0.5; stroke-width: 0.8"/>
     <use xlink:href="#mfc97944d6d" x="96.527529" y="343.590805" style="fill: #1f77b4; fill-opacity: 0.5; stroke: #ffffff; stroke-opacity: 0.5; stroke-width: 0.8"/>
     <use xlink:href="#mfc97944d6d" x="136.856766" y="139.54702" style="fill: #1f77b4; fill-opacity: 0.5; stroke: #ffffff; stroke-opacity: 0.5; stroke-width: 0.8"/>
     <use xlink:href="#mfc97944d6d" x="82.620896" y="359.914308" style="fill: #1f77b4; fill-opacity: 0.5; stroke: #ffffff; stroke-opacity: 0.5; stroke-width: 0.8"/>
     <use xlink:href="#mfc97944d6d" x="248.109835" y="261.973291" style="fill: #1f77b4; fill-opacity: 0.5; stroke: #ffffff; stroke-opacity: 0.5; stroke-width: 0.8"/>
     <use xlink:href="#mfc97944d6d" x="77.058242" y="359.914308" style="fill: #1f77b4; fill-opacity: 0.5; stroke: #ffffff; stroke-opacity: 0.5; stroke-width: 0.8"/>
     <use xlink:href="#mfc97944d6d" x="291.220399" y="335.429054" style="fill: #1f77b4; fill-opacity: 0.5; stroke: #ffffff; stroke-opacity: 0.5; stroke-width: 0.8"/>
     <use xlink:href="#mfc97944d6d" x="296.783052" y="363.995184" style="fill: #1f77b4; fill-opacity: 0.5; stroke: #ffffff; stroke-opacity: 0.5; stroke-width: 0.8"/>
     <use xlink:href="#mfc97944d6d" x="104.871509" y="310.9438" style="fill: #1f77b4; fill-opacity: 0.5; stroke: #ffffff; stroke-opacity: 0.5; stroke-width: 0.8"/>
     <use xlink:href="#mfc97944d6d" x="99.308856" y="359.914308" style="fill: #1f77b4; fill-opacity: 0.5; stroke: #ffffff; stroke-opacity: 0.5; stroke-width: 0.8"/>
     <use xlink:href="#mfc97944d6d" x="203.608608" y="343.590805" style="fill: #1f77b4; fill-opacity: 0.5; stroke: #ffffff; stroke-opacity: 0.5; stroke-width: 0.8"/>
     <use xlink:href="#mfc97944d6d" x="104.871509" y="192.598404" style="fill: #1f77b4; fill-opacity: 0.5; stroke: #ffffff; stroke-opacity: 0.5; stroke-width: 0.8"/>
     <use xlink:href="#mfc97944d6d" x="82.620896" y="347.671681" style="fill: #1f77b4; fill-opacity: 0.5; stroke: #ffffff; stroke-opacity: 0.5; stroke-width: 0.8"/>
     <use xlink:href="#mfc97944d6d" x="78.448905" y="306.862924" style="fill: #1f77b4; fill-opacity: 0.5; stroke: #ffffff; stroke-opacity: 0.5; stroke-width: 0.8"/>
     <use xlink:href="#mfc97944d6d" x="138.24743" y="302.782048" style="fill: #1f77b4; fill-opacity: 0.5; stroke: #ffffff; stroke-opacity: 0.5; stroke-width: 0.8"/>
     <use xlink:href="#mfc97944d6d" x="110.434163" y="343.590805" style="fill: #1f77b4; fill-opacity: 0.5; stroke: #ffffff; stroke-opacity: 0.5; stroke-width: 0.8"/>
     <use xlink:href="#mfc97944d6d" x="88.183549" y="339.509929" style="fill: #1f77b4; fill-opacity: 0.5; stroke: #ffffff; stroke-opacity: 0.5; stroke-width: 0.8"/>
     <use xlink:href="#mfc97944d6d" x="99.308856" y="310.9438" style="fill: #1f77b4; fill-opacity: 0.5; stroke: #ffffff; stroke-opacity: 0.5; stroke-width: 0.8"/>
     <use xlink:href="#mfc97944d6d" x="92.355539" y="302.782048" style="fill: #1f77b4; fill-opacity: 0.5; stroke: #ffffff; stroke-opacity: 0.5; stroke-width: 0.8"/>
     <use xlink:href="#mfc97944d6d" x="104.871509" y="368.076059" style="fill: #1f77b4; fill-opacity: 0.5; stroke: #ffffff; stroke-opacity: 0.5; stroke-width: 0.8"/>
     <use xlink:href="#mfc97944d6d" x="90.964876" y="372.156935" style="fill: #1f77b4; fill-opacity: 0.5; stroke: #ffffff; stroke-opacity: 0.5; stroke-width: 0.8"/>
     <use xlink:href="#mfc97944d6d" x="120.168806" y="343.590805" style="fill: #1f77b4; fill-opacity: 0.5; stroke: #ffffff; stroke-opacity: 0.5; stroke-width: 0.8"/>
     <use xlink:href="#mfc97944d6d" x="127.122123" y="347.671681" style="fill: #1f77b4; fill-opacity: 0.5; stroke: #ffffff; stroke-opacity: 0.5; stroke-width: 0.8"/>
     <use xlink:href="#mfc97944d6d" x="78.448905" y="331.348178" style="fill: #1f77b4; fill-opacity: 0.5; stroke: #ffffff; stroke-opacity: 0.5; stroke-width: 0.8"/>
     <use xlink:href="#mfc97944d6d" x="103.480846" y="343.590805" style="fill: #1f77b4; fill-opacity: 0.5; stroke: #ffffff; stroke-opacity: 0.5; stroke-width: 0.8"/>
     <use xlink:href="#mfc97944d6d" x="150.7634" y="339.509929" style="fill: #1f77b4; fill-opacity: 0.5; stroke: #ffffff; stroke-opacity: 0.5; stroke-width: 0.8"/>
     <use xlink:href="#mfc97944d6d" x="109.043499" y="335.429054" style="fill: #1f77b4; fill-opacity: 0.5; stroke: #ffffff; stroke-opacity: 0.5; stroke-width: 0.8"/>
     <use xlink:href="#mfc97944d6d" x="79.839569" y="351.752557" style="fill: #1f77b4; fill-opacity: 0.5; stroke: #ffffff; stroke-opacity: 0.5; stroke-width: 0.8"/>
    </g>
   </g>
   <g id="matplotlib.axis_1">
    <g id="xtick_1">
     <g id="line2d_1">
      <defs>
       <path id="m28dc334df8" d="M 0 0 
L 0 3.5 
" style="stroke: #000000; stroke-width: 0.8"/>
      </defs>
      <g>
       <use xlink:href="#m28dc334df8" x="74.276915" y="386.44" style="stroke: #000000; stroke-width: 0.8"/>
      </g>
     </g>
     <g id="text_1">
      <!-- 0 -->
      <g transform="translate(69.50504 404.837656) scale(0.15 -0.15)">
       <defs>
        <path id="DejaVuSans-30" d="M 2034 4250 
Q 1547 4250 1301 3770 
Q 1056 3291 1056 2328 
Q 1056 1369 1301 889 
Q 1547 409 2034 409 
Q 2525 409 2770 889 
Q 3016 1369 3016 2328 
Q 3016 3291 2770 3770 
Q 2525 4250 2034 4250 
z
M 2034 4750 
Q 2819 4750 3233 4129 
Q 3647 3509 3647 2328 
Q 3647 1150 3233 529 
Q 2819 -91 2034 -91 
Q 1250 -91 836 529 
Q 422 1150 422 2328 
Q 422 3509 836 4129 
Q 1250 4750 2034 4750 
z
" transform="scale(0.015625)"/>
       </defs>
       <use xlink:href="#DejaVuSans-30"/>
      </g>
     </g>
    </g>
    <g id="xtick_2">
     <g id="line2d_2">
      <g>
       <use xlink:href="#m28dc334df8" x="143.810083" y="386.44" style="stroke: #000000; stroke-width: 0.8"/>
      </g>
     </g>
     <g id="text_2">
      <!-- 50 -->
      <g transform="translate(134.266333 404.837656) scale(0.15 -0.15)">
       <defs>
        <path id="DejaVuSans-35" d="M 691 4666 
L 3169 4666 
L 3169 4134 
L 1269 4134 
L 1269 2991 
Q 1406 3038 1543 3061 
Q 1681 3084 1819 3084 
Q 2600 3084 3056 2656 
Q 3513 2228 3513 1497 
Q 3513 744 3044 326 
Q 2575 -91 1722 -91 
Q 1428 -91 1123 -41 
Q 819 9 494 109 
L 494 744 
Q 775 591 1075 516 
Q 1375 441 1709 441 
Q 2250 441 2565 725 
Q 2881 1009 2881 1497 
Q 2881 1984 2565 2268 
Q 2250 2553 1709 2553 
Q 1456 2553 1204 2497 
Q 953 2441 691 2322 
L 691 4666 
z
" transform="scale(0.015625)"/>
       </defs>
       <use xlink:href="#DejaVuSans-35"/>
       <use xlink:href="#DejaVuSans-30" x="63.623047"/>
      </g>
     </g>
    </g>
    <g id="xtick_3">
     <g id="line2d_3">
      <g>
       <use xlink:href="#m28dc334df8" x="213.343251" y="386.44" style="stroke: #000000; stroke-width: 0.8"/>
      </g>
     </g>
     <g id="text_3">
      <!-- 100 -->
      <g transform="translate(199.027626 404.837656) scale(0.15 -0.15)">
       <defs>
        <path id="DejaVuSans-31" d="M 794 531 
L 1825 531 
L 1825 4091 
L 703 3866 
L 703 4441 
L 1819 4666 
L 2450 4666 
L 2450 531 
L 3481 531 
L 3481 0 
L 794 0 
L 794 531 
z
" transform="scale(0.015625)"/>
       </defs>
       <use xlink:href="#DejaVuSans-31"/>
       <use xlink:href="#DejaVuSans-30" x="63.623047"/>
       <use xlink:href="#DejaVuSans-30" x="127.246094"/>
      </g>
     </g>
    </g>
    <g id="xtick_4">
     <g id="line2d_4">
      <g>
       <use xlink:href="#m28dc334df8" x="282.876419" y="386.44" style="stroke: #000000; stroke-width: 0.8"/>
      </g>
     </g>
     <g id="text_4">
      <!-- 150 -->
      <g transform="translate(268.560794 404.837656) scale(0.15 -0.15)">
       <use xlink:href="#DejaVuSans-31"/>
       <use xlink:href="#DejaVuSans-35" x="63.623047"/>
       <use xlink:href="#DejaVuSans-30" x="127.246094"/>
      </g>
     </g>
    </g>
    <g id="xtick_5">
     <g id="line2d_5">
      <g>
       <use xlink:href="#m28dc334df8" x="352.409587" y="386.44" style="stroke: #000000; stroke-width: 0.8"/>
      </g>
     </g>
     <g id="text_5">
      <!-- 200 -->
      <g transform="translate(338.093962 404.837656) scale(0.15 -0.15)">
       <defs>
        <path id="DejaVuSans-32" d="M 1228 531 
L 3431 531 
L 3431 0 
L 469 0 
L 469 531 
Q 828 903 1448 1529 
Q 2069 2156 2228 2338 
Q 2531 2678 2651 2914 
Q 2772 3150 2772 3378 
Q 2772 3750 2511 3984 
Q 2250 4219 1831 4219 
Q 1534 4219 1204 4116 
Q 875 4013 500 3803 
L 500 4441 
Q 881 4594 1212 4672 
Q 1544 4750 1819 4750 
Q 2544 4750 2975 4387 
Q 3406 4025 3406 3419 
Q 3406 3131 3298 2873 
Q 3191 2616 2906 2266 
Q 2828 2175 2409 1742 
Q 1991 1309 1228 531 
z
" transform="scale(0.015625)"/>
       </defs>
       <use xlink:href="#DejaVuSans-32"/>
       <use xlink:href="#DejaVuSans-30" x="63.623047"/>
       <use xlink:href="#DejaVuSans-30" x="127.246094"/>
      </g>
     </g>
    </g>
    <g id="text_6">
     <!-- Commit Size -->
     <g transform="translate(138.780866 430.953281) scale(0.25 -0.25)">
      <defs>
       <path id="DejaVuSans-43" d="M 4122 4306 
L 4122 3641 
Q 3803 3938 3442 4084 
Q 3081 4231 2675 4231 
Q 1875 4231 1450 3742 
Q 1025 3253 1025 2328 
Q 1025 1406 1450 917 
Q 1875 428 2675 428 
Q 3081 428 3442 575 
Q 3803 722 4122 1019 
L 4122 359 
Q 3791 134 3420 21 
Q 3050 -91 2638 -91 
Q 1578 -91 968 557 
Q 359 1206 359 2328 
Q 359 3453 968 4101 
Q 1578 4750 2638 4750 
Q 3056 4750 3426 4639 
Q 3797 4528 4122 4306 
z
" transform="scale(0.015625)"/>
       <path id="DejaVuSans-6f" d="M 1959 3097 
Q 1497 3097 1228 2736 
Q 959 2375 959 1747 
Q 959 1119 1226 758 
Q 1494 397 1959 397 
Q 2419 397 2687 759 
Q 2956 1122 2956 1747 
Q 2956 2369 2687 2733 
Q 2419 3097 1959 3097 
z
M 1959 3584 
Q 2709 3584 3137 3096 
Q 3566 2609 3566 1747 
Q 3566 888 3137 398 
Q 2709 -91 1959 -91 
Q 1206 -91 779 398 
Q 353 888 353 1747 
Q 353 2609 779 3096 
Q 1206 3584 1959 3584 
z
" transform="scale(0.015625)"/>
       <path id="DejaVuSans-6d" d="M 3328 2828 
Q 3544 3216 3844 3400 
Q 4144 3584 4550 3584 
Q 5097 3584 5394 3201 
Q 5691 2819 5691 2113 
L 5691 0 
L 5113 0 
L 5113 2094 
Q 5113 2597 4934 2840 
Q 4756 3084 4391 3084 
Q 3944 3084 3684 2787 
Q 3425 2491 3425 1978 
L 3425 0 
L 2847 0 
L 2847 2094 
Q 2847 2600 2669 2842 
Q 2491 3084 2119 3084 
Q 1678 3084 1418 2786 
Q 1159 2488 1159 1978 
L 1159 0 
L 581 0 
L 581 3500 
L 1159 3500 
L 1159 2956 
Q 1356 3278 1631 3431 
Q 1906 3584 2284 3584 
Q 2666 3584 2933 3390 
Q 3200 3197 3328 2828 
z
" transform="scale(0.015625)"/>
       <path id="DejaVuSans-69" d="M 603 3500 
L 1178 3500 
L 1178 0 
L 603 0 
L 603 3500 
z
M 603 4863 
L 1178 4863 
L 1178 4134 
L 603 4134 
L 603 4863 
z
" transform="scale(0.015625)"/>
       <path id="DejaVuSans-74" d="M 1172 4494 
L 1172 3500 
L 2356 3500 
L 2356 3053 
L 1172 3053 
L 1172 1153 
Q 1172 725 1289 603 
Q 1406 481 1766 481 
L 2356 481 
L 2356 0 
L 1766 0 
Q 1100 0 847 248 
Q 594 497 594 1153 
L 594 3053 
L 172 3053 
L 172 3500 
L 594 3500 
L 594 4494 
L 1172 4494 
z
" transform="scale(0.015625)"/>
       <path id="DejaVuSans-20" transform="scale(0.015625)"/>
       <path id="DejaVuSans-53" d="M 3425 4513 
L 3425 3897 
Q 3066 4069 2747 4153 
Q 2428 4238 2131 4238 
Q 1616 4238 1336 4038 
Q 1056 3838 1056 3469 
Q 1056 3159 1242 3001 
Q 1428 2844 1947 2747 
L 2328 2669 
Q 3034 2534 3370 2195 
Q 3706 1856 3706 1288 
Q 3706 609 3251 259 
Q 2797 -91 1919 -91 
Q 1588 -91 1214 -16 
Q 841 59 441 206 
L 441 856 
Q 825 641 1194 531 
Q 1563 422 1919 422 
Q 2459 422 2753 634 
Q 3047 847 3047 1241 
Q 3047 1584 2836 1778 
Q 2625 1972 2144 2069 
L 1759 2144 
Q 1053 2284 737 2584 
Q 422 2884 422 3419 
Q 422 4038 858 4394 
Q 1294 4750 2059 4750 
Q 2388 4750 2728 4690 
Q 3069 4631 3425 4513 
z
" transform="scale(0.015625)"/>
       <path id="DejaVuSans-7a" d="M 353 3500 
L 3084 3500 
L 3084 2975 
L 922 459 
L 3084 459 
L 3084 0 
L 275 0 
L 275 525 
L 2438 3041 
L 353 3041 
L 353 3500 
z
" transform="scale(0.015625)"/>
       <path id="DejaVuSans-65" d="M 3597 1894 
L 3597 1613 
L 953 1613 
Q 991 1019 1311 708 
Q 1631 397 2203 397 
Q 2534 397 2845 478 
Q 3156 559 3463 722 
L 3463 178 
Q 3153 47 2828 -22 
Q 2503 -91 2169 -91 
Q 1331 -91 842 396 
Q 353 884 353 1716 
Q 353 2575 817 3079 
Q 1281 3584 2069 3584 
Q 2775 3584 3186 3129 
Q 3597 2675 3597 1894 
z
M 3022 2063 
Q 3016 2534 2758 2815 
Q 2500 3097 2075 3097 
Q 1594 3097 1305 2825 
Q 1016 2553 972 2059 
L 3022 2063 
z
" transform="scale(0.015625)"/>
      </defs>
      <use xlink:href="#DejaVuSans-43"/>
      <use xlink:href="#DejaVuSans-6f" x="69.824219"/>
      <use xlink:href="#DejaVuSans-6d" x="131.005859"/>
      <use xlink:href="#DejaVuSans-6d" x="228.417969"/>
      <use xlink:href="#DejaVuSans-69" x="325.830078"/>
      <use xlink:href="#DejaVuSans-74" x="353.613281"/>
      <use xlink:href="#DejaVuSans-20" x="392.822266"/>
      <use xlink:href="#DejaVuSans-53" x="424.609375"/>
      <use xlink:href="#DejaVuSans-69" x="488.085938"/>
      <use xlink:href="#DejaVuSans-7a" x="515.869141"/>
      <use xlink:href="#DejaVuSans-65" x="568.359375"/>
     </g>
    </g>
   </g>
   <g id="matplotlib.axis_2">
    <g id="ytick_1">
     <g id="line2d_6">
      <defs>
       <path id="m053cc11101" d="M 0 0 
L -3.5 0 
" style="stroke: #000000; stroke-width: 0.8"/>
      </defs>
      <g>
       <use xlink:href="#m053cc11101" x="61.482813" y="376.237811" style="stroke: #000000; stroke-width: 0.8"/>
      </g>
     </g>
     <g id="text_7">
      <!-- 0 -->
      <g transform="translate(44.939063 381.936639) scale(0.15 -0.15)">
       <use xlink:href="#DejaVuSans-30"/>
      </g>
     </g>
    </g>
    <g id="ytick_2">
     <g id="line2d_7">
      <g>
       <use xlink:href="#m053cc11101" x="61.482813" y="335.429054" style="stroke: #000000; stroke-width: 0.8"/>
      </g>
     </g>
     <g id="text_8">
      <!-- 10 -->
      <g transform="translate(35.395313 341.127882) scale(0.15 -0.15)">
       <use xlink:href="#DejaVuSans-31"/>
       <use xlink:href="#DejaVuSans-30" x="63.623047"/>
      </g>
     </g>
    </g>
    <g id="ytick_3">
     <g id="line2d_8">
      <g>
       <use xlink:href="#m053cc11101" x="61.482813" y="294.620297" style="stroke: #000000; stroke-width: 0.8"/>
      </g>
     </g>
     <g id="text_9">
      <!-- 20 -->
      <g transform="translate(35.395313 300.319125) scale(0.15 -0.15)">
       <use xlink:href="#DejaVuSans-32"/>
       <use xlink:href="#DejaVuSans-30" x="63.623047"/>
      </g>
     </g>
    </g>
    <g id="ytick_4">
     <g id="line2d_9">
      <g>
       <use xlink:href="#m053cc11101" x="61.482813" y="253.81154" style="stroke: #000000; stroke-width: 0.8"/>
      </g>
     </g>
     <g id="text_10">
      <!-- 30 -->
      <g transform="translate(35.395313 259.510368) scale(0.15 -0.15)">
       <defs>
        <path id="DejaVuSans-33" d="M 2597 2516 
Q 3050 2419 3304 2112 
Q 3559 1806 3559 1356 
Q 3559 666 3084 287 
Q 2609 -91 1734 -91 
Q 1441 -91 1130 -33 
Q 819 25 488 141 
L 488 750 
Q 750 597 1062 519 
Q 1375 441 1716 441 
Q 2309 441 2620 675 
Q 2931 909 2931 1356 
Q 2931 1769 2642 2001 
Q 2353 2234 1838 2234 
L 1294 2234 
L 1294 2753 
L 1863 2753 
Q 2328 2753 2575 2939 
Q 2822 3125 2822 3475 
Q 2822 3834 2567 4026 
Q 2313 4219 1838 4219 
Q 1578 4219 1281 4162 
Q 984 4106 628 3988 
L 628 4550 
Q 988 4650 1302 4700 
Q 1616 4750 1894 4750 
Q 2613 4750 3031 4423 
Q 3450 4097 3450 3541 
Q 3450 3153 3228 2886 
Q 3006 2619 2597 2516 
z
" transform="scale(0.015625)"/>
       </defs>
       <use xlink:href="#DejaVuSans-33"/>
       <use xlink:href="#DejaVuSans-30" x="63.623047"/>
      </g>
     </g>
    </g>
    <g id="ytick_5">
     <g id="line2d_10">
      <g>
       <use xlink:href="#m053cc11101" x="61.482813" y="213.002783" style="stroke: #000000; stroke-width: 0.8"/>
      </g>
     </g>
     <g id="text_11">
      <!-- 40 -->
      <g transform="translate(35.395313 218.701611) scale(0.15 -0.15)">
       <defs>
        <path id="DejaVuSans-34" d="M 2419 4116 
L 825 1625 
L 2419 1625 
L 2419 4116 
z
M 2253 4666 
L 3047 4666 
L 3047 1625 
L 3713 1625 
L 3713 1100 
L 3047 1100 
L 3047 0 
L 2419 0 
L 2419 1100 
L 313 1100 
L 313 1709 
L 2253 4666 
z
" transform="scale(0.015625)"/>
       </defs>
       <use xlink:href="#DejaVuSans-34"/>
       <use xlink:href="#DejaVuSans-30" x="63.623047"/>
      </g>
     </g>
    </g>
    <g id="ytick_6">
     <g id="line2d_11">
      <g>
       <use xlink:href="#m053cc11101" x="61.482813" y="172.194026" style="stroke: #000000; stroke-width: 0.8"/>
      </g>
     </g>
     <g id="text_12">
      <!-- 50 -->
      <g transform="translate(35.395313 177.892854) scale(0.15 -0.15)">
       <use xlink:href="#DejaVuSans-35"/>
       <use xlink:href="#DejaVuSans-30" x="63.623047"/>
      </g>
     </g>
    </g>
    <g id="ytick_7">
     <g id="line2d_12">
      <g>
       <use xlink:href="#m053cc11101" x="61.482813" y="131.385269" style="stroke: #000000; stroke-width: 0.8"/>
      </g>
     </g>
     <g id="text_13">
      <!-- 60 -->
      <g transform="translate(35.395313 137.084097) scale(0.15 -0.15)">
       <defs>
        <path id="DejaVuSans-36" d="M 2113 2584 
Q 1688 2584 1439 2293 
Q 1191 2003 1191 1497 
Q 1191 994 1439 701 
Q 1688 409 2113 409 
Q 2538 409 2786 701 
Q 3034 994 3034 1497 
Q 3034 2003 2786 2293 
Q 2538 2584 2113 2584 
z
M 3366 4563 
L 3366 3988 
Q 3128 4100 2886 4159 
Q 2644 4219 2406 4219 
Q 1781 4219 1451 3797 
Q 1122 3375 1075 2522 
Q 1259 2794 1537 2939 
Q 1816 3084 2150 3084 
Q 2853 3084 3261 2657 
Q 3669 2231 3669 1497 
Q 3669 778 3244 343 
Q 2819 -91 2113 -91 
Q 1303 -91 875 529 
Q 447 1150 447 2328 
Q 447 3434 972 4092 
Q 1497 4750 2381 4750 
Q 2619 4750 2861 4703 
Q 3103 4656 3366 4563 
z
" transform="scale(0.015625)"/>
       </defs>
       <use xlink:href="#DejaVuSans-36"/>
       <use xlink:href="#DejaVuSans-30" x="63.623047"/>
      </g>
     </g>
    </g>
    <g id="ytick_8">
     <g id="line2d_13">
      <g>
       <use xlink:href="#m053cc11101" x="61.482813" y="90.576512" style="stroke: #000000; stroke-width: 0.8"/>
      </g>
     </g>
     <g id="text_14">
      <!-- 70 -->
      <g transform="translate(35.395313 96.27534) scale(0.15 -0.15)">
       <defs>
        <path id="DejaVuSans-37" d="M 525 4666 
L 3525 4666 
L 3525 4397 
L 1831 0 
L 1172 0 
L 2766 4134 
L 525 4134 
L 525 4666 
z
" transform="scale(0.015625)"/>
       </defs>
       <use xlink:href="#DejaVuSans-37"/>
       <use xlink:href="#DejaVuSans-30" x="63.623047"/>
      </g>
     </g>
    </g>
    <g id="text_15">
     <!-- Node Degree -->
     <g transform="translate(26.196094 311.418083) rotate(-90) scale(0.25 -0.25)">
      <defs>
       <path id="DejaVuSans-4e" d="M 628 4666 
L 1478 4666 
L 3547 763 
L 3547 4666 
L 4159 4666 
L 4159 0 
L 3309 0 
L 1241 3903 
L 1241 0 
L 628 0 
L 628 4666 
z
" transform="scale(0.015625)"/>
       <path id="DejaVuSans-64" d="M 2906 2969 
L 2906 4863 
L 3481 4863 
L 3481 0 
L 2906 0 
L 2906 525 
Q 2725 213 2448 61 
Q 2172 -91 1784 -91 
Q 1150 -91 751 415 
Q 353 922 353 1747 
Q 353 2572 751 3078 
Q 1150 3584 1784 3584 
Q 2172 3584 2448 3432 
Q 2725 3281 2906 2969 
z
M 947 1747 
Q 947 1113 1208 752 
Q 1469 391 1925 391 
Q 2381 391 2643 752 
Q 2906 1113 2906 1747 
Q 2906 2381 2643 2742 
Q 2381 3103 1925 3103 
Q 1469 3103 1208 2742 
Q 947 2381 947 1747 
z
" transform="scale(0.015625)"/>
       <path id="DejaVuSans-44" d="M 1259 4147 
L 1259 519 
L 2022 519 
Q 2988 519 3436 956 
Q 3884 1394 3884 2338 
Q 3884 3275 3436 3711 
Q 2988 4147 2022 4147 
L 1259 4147 
z
M 628 4666 
L 1925 4666 
Q 3281 4666 3915 4102 
Q 4550 3538 4550 2338 
Q 4550 1131 3912 565 
Q 3275 0 1925 0 
L 628 0 
L 628 4666 
z
" transform="scale(0.015625)"/>
       <path id="DejaVuSans-67" d="M 2906 1791 
Q 2906 2416 2648 2759 
Q 2391 3103 1925 3103 
Q 1463 3103 1205 2759 
Q 947 2416 947 1791 
Q 947 1169 1205 825 
Q 1463 481 1925 481 
Q 2391 481 2648 825 
Q 2906 1169 2906 1791 
z
M 3481 434 
Q 3481 -459 3084 -895 
Q 2688 -1331 1869 -1331 
Q 1566 -1331 1297 -1286 
Q 1028 -1241 775 -1147 
L 775 -588 
Q 1028 -725 1275 -790 
Q 1522 -856 1778 -856 
Q 2344 -856 2625 -561 
Q 2906 -266 2906 331 
L 2906 616 
Q 2728 306 2450 153 
Q 2172 0 1784 0 
Q 1141 0 747 490 
Q 353 981 353 1791 
Q 353 2603 747 3093 
Q 1141 3584 1784 3584 
Q 2172 3584 2450 3431 
Q 2728 3278 2906 2969 
L 2906 3500 
L 3481 3500 
L 3481 434 
z
" transform="scale(0.015625)"/>
       <path id="DejaVuSans-72" d="M 2631 2963 
Q 2534 3019 2420 3045 
Q 2306 3072 2169 3072 
Q 1681 3072 1420 2755 
Q 1159 2438 1159 1844 
L 1159 0 
L 581 0 
L 581 3500 
L 1159 3500 
L 1159 2956 
Q 1341 3275 1631 3429 
Q 1922 3584 2338 3584 
Q 2397 3584 2469 3576 
Q 2541 3569 2628 3553 
L 2631 2963 
z
" transform="scale(0.015625)"/>
      </defs>
      <use xlink:href="#DejaVuSans-4e"/>
      <use xlink:href="#DejaVuSans-6f" x="74.804688"/>
      <use xlink:href="#DejaVuSans-64" x="135.986328"/>
      <use xlink:href="#DejaVuSans-65" x="199.462891"/>
      <use xlink:href="#DejaVuSans-20" x="260.986328"/>
      <use xlink:href="#DejaVuSans-44" x="292.773438"/>
      <use xlink:href="#DejaVuSans-65" x="369.775391"/>
      <use xlink:href="#DejaVuSans-67" x="431.298828"/>
      <use xlink:href="#DejaVuSans-72" x="494.775391"/>
      <use xlink:href="#DejaVuSans-65" x="533.638672"/>
      <use xlink:href="#DejaVuSans-65" x="595.162109"/>
     </g>
    </g>
   </g>
   <g id="line2d_14">
    <path d="M 82.620896 386.44 
L 82.620896 72.212571 
" clip-path="url(#p52a177119d)" style="fill: none; stroke: #777777; stroke-width: 3; stroke-linecap: square"/>
   </g>
   <g id="line2d_15">
    <path d="M 61.482813 274.215918 
L 373.54767 274.215918 
" clip-path="url(#p52a177119d)" style="fill: none; stroke: #777777; stroke-width: 3; stroke-linecap: square"/>
   </g>
   <g id="patch_3">
    <path d="M 61.482813 386.44 
L 61.482813 72.212571 
" style="fill: none; stroke: #000000; stroke-width: 0.8; stroke-linejoin: miter; stroke-linecap: square"/>
   </g>
   <g id="patch_4">
    <path d="M 61.482812 386.44 
L 373.54767 386.44 
" style="fill: none; stroke: #000000; stroke-width: 0.8; stroke-linejoin: miter; stroke-linecap: square"/>
   </g>
   <g id="PathCollection_2"/>
  </g>
  <g id="axes_2">
   <g id="patch_5">
    <path d="M 61.482813 61.377143 
L 373.54767 61.377143 
L 373.54767 7.2 
L 61.482813 7.2 
z
" style="fill: #ffffff"/>
   </g>
   <g id="PolyCollection_1">
    <path d="M -5.362295 61.197121 
L -5.362295 61.377143 
L -3.12232 61.377143 
L -0.882345 61.377143 
L 1.35763 61.377143 
L 3.597606 61.377143 
L 5.837581 61.377143 
L 8.077556 61.377143 
L 10.317531 61.377143 
L 12.557507 61.377143 
L 14.797482 61.377143 
L 17.037457 61.377143 
L 19.277432 61.377143 
L 21.517408 61.377143 
L 23.757383 61.377143 
L 25.997358 61.377143 
L 28.237333 61.377143 
L 30.477309 61.377143 
L 32.717284 61.377143 
L 34.957259 61.377143 
L 37.197234 61.377143 
L 39.437209 61.377143 
L 41.677185 61.377143 
L 43.91716 61.377143 
L 46.157135 61.377143 
L 48.39711 61.377143 
L 50.637086 61.377143 
L 52.877061 61.377143 
L 55.117036 61.377143 
L 57.357011 61.377143 
L 59.596987 61.377143 
L 61.836962 61.377143 
L 64.076937 61.377143 
L 66.316912 61.377143 
L 68.556888 61.377143 
L 70.796863 61.377143 
L 73.036838 61.377143 
L 75.276813 61.377143 
L 77.516789 61.377143 
L 79.756764 61.377143 
L 81.996739 61.377143 
L 84.236714 61.377143 
L 86.47669 61.377143 
L 88.716665 61.377143 
L 90.95664 61.377143 
L 93.196615 61.377143 
L 95.43659 61.377143 
L 97.676566 61.377143 
L 99.916541 61.377143 
L 102.156516 61.377143 
L 104.396491 61.377143 
L 106.636467 61.377143 
L 108.876442 61.377143 
L 111.116417 61.377143 
L 113.356392 61.377143 
L 115.596368 61.377143 
L 117.836343 61.377143 
L 120.076318 61.377143 
L 122.316293 61.377143 
L 124.556269 61.377143 
L 126.796244 61.377143 
L 129.036219 61.377143 
L 131.276194 61.377143 
L 133.51617 61.377143 
L 135.756145 61.377143 
L 137.99612 61.377143 
L 140.236095 61.377143 
L 142.476071 61.377143 
L 144.716046 61.377143 
L 146.956021 61.377143 
L 149.195996 61.377143 
L 151.435971 61.377143 
L 153.675947 61.377143 
L 155.915922 61.377143 
L 158.155897 61.377143 
L 160.395872 61.377143 
L 162.635848 61.377143 
L 164.875823 61.377143 
L 167.115798 61.377143 
L 169.355773 61.377143 
L 171.595749 61.377143 
L 173.835724 61.377143 
L 176.075699 61.377143 
L 178.315674 61.377143 
L 180.55565 61.377143 
L 182.795625 61.377143 
L 185.0356 61.377143 
L 187.275575 61.377143 
L 189.515551 61.377143 
L 191.755526 61.377143 
L 193.995501 61.377143 
L 196.235476 61.377143 
L 198.475452 61.377143 
L 200.715427 61.377143 
L 202.955402 61.377143 
L 205.195377 61.377143 
L 207.435352 61.377143 
L 209.675328 61.377143 
L 211.915303 61.377143 
L 214.155278 61.377143 
L 216.395253 61.377143 
L 218.635229 61.377143 
L 220.875204 61.377143 
L 223.115179 61.377143 
L 225.355154 61.377143 
L 227.59513 61.377143 
L 229.835105 61.377143 
L 232.07508 61.377143 
L 234.315055 61.377143 
L 236.555031 61.377143 
L 238.795006 61.377143 
L 241.034981 61.377143 
L 243.274956 61.377143 
L 245.514932 61.377143 
L 247.754907 61.377143 
L 249.994882 61.377143 
L 252.234857 61.377143 
L 254.474833 61.377143 
L 256.714808 61.377143 
L 258.954783 61.377143 
L 261.194758 61.377143 
L 263.434733 61.377143 
L 265.674709 61.377143 
L 267.914684 61.377143 
L 270.154659 61.377143 
L 272.394634 61.377143 
L 274.63461 61.377143 
L 276.874585 61.377143 
L 279.11456 61.377143 
L 281.354535 61.377143 
L 283.594511 61.377143 
L 285.834486 61.377143 
L 288.074461 61.377143 
L 290.314436 61.377143 
L 292.554412 61.377143 
L 294.794387 61.377143 
L 297.034362 61.377143 
L 299.274337 61.377143 
L 301.514313 61.377143 
L 303.754288 61.377143 
L 305.994263 61.377143 
L 308.234238 61.377143 
L 310.474214 61.377143 
L 312.714189 61.377143 
L 314.954164 61.377143 
L 317.194139 61.377143 
L 319.434115 61.377143 
L 321.67409 61.377143 
L 323.914065 61.377143 
L 326.15404 61.377143 
L 328.394015 61.377143 
L 330.633991 61.377143 
L 332.873966 61.377143 
L 335.113941 61.377143 
L 337.353916 61.377143 
L 339.593892 61.377143 
L 341.833867 61.377143 
L 344.073842 61.377143 
L 346.313817 61.377143 
L 348.553793 61.377143 
L 350.793768 61.377143 
L 353.033743 61.377143 
L 355.273718 61.377143 
L 357.513694 61.377143 
L 359.753669 61.377143 
L 361.993644 61.377143 
L 364.233619 61.377143 
L 366.473595 61.377143 
L 368.71357 61.377143 
L 370.953545 61.377143 
L 373.19352 61.377143 
L 375.433496 61.377143 
L 377.673471 61.377143 
L 379.913446 61.377143 
L 382.153421 61.377143 
L 384.393396 61.377143 
L 386.633372 61.377143 
L 388.873347 61.377143 
L 391.113322 61.377143 
L 393.353297 61.377143 
L 395.593273 61.377143 
L 397.833248 61.377143 
L 400.073223 61.377143 
L 402.313198 61.377143 
L 404.553174 61.377143 
L 406.793149 61.377143 
L 409.033124 61.377143 
L 411.273099 61.377143 
L 413.513075 61.377143 
L 415.75305 61.377143 
L 417.993025 61.377143 
L 420.233 61.377143 
L 422.472976 61.377143 
L 424.712951 61.377143 
L 426.952926 61.377143 
L 429.192901 61.377143 
L 431.432877 61.377143 
L 433.672852 61.377143 
L 435.912827 61.377143 
L 438.152802 61.377143 
L 440.392777 61.377143 
L 440.392777 61.361697 
L 440.392777 61.361697 
L 438.152802 61.357176 
L 435.912827 61.351495 
L 433.672852 61.344407 
L 431.432877 61.335624 
L 429.192901 61.324817 
L 426.952926 61.31161 
L 424.712951 61.295582 
L 422.472976 61.276266 
L 420.233 61.253148 
L 417.993025 61.225672 
L 415.75305 61.193243 
L 413.513075 61.155236 
L 411.273099 61.111001 
L 409.033124 61.059879 
L 406.793149 61.001211 
L 404.553174 60.934359 
L 402.313198 60.858721 
L 400.073223 60.77375 
L 397.833248 60.678978 
L 395.593273 60.574035 
L 393.353297 60.458674 
L 391.113322 60.332787 
L 388.873347 60.19643 
L 386.633372 60.049834 
L 384.393396 59.893422 
L 382.153421 59.727816 
L 379.913446 59.553838 
L 377.673471 59.372513 
L 375.433496 59.185056 
L 373.19352 58.99286 
L 370.953545 58.797469 
L 368.71357 58.600559 
L 366.473595 58.403899 
L 364.233619 58.209314 
L 361.993644 58.018649 
L 359.753669 57.833721 
L 357.513694 57.65628 
L 355.273718 57.487964 
L 353.033743 57.330262 
L 350.793768 57.184479 
L 348.553793 57.051707 
L 346.313817 56.932802 
L 344.073842 56.828371 
L 341.833867 56.738767 
L 339.593892 56.664087 
L 337.353916 56.604188 
L 335.113941 56.558704 
L 332.873966 56.527066 
L 330.633991 56.508538 
L 328.394015 56.502246 
L 326.15404 56.507214 
L 323.914065 56.5224 
L 321.67409 56.546729 
L 319.434115 56.579124 
L 317.194139 56.618534 
L 314.954164 56.663953 
L 312.714189 56.714439 
L 310.474214 56.76912 
L 308.234238 56.827206 
L 305.994263 56.88798 
L 303.754288 56.9508 
L 301.514313 57.015087 
L 299.274337 57.080319 
L 297.034362 57.146013 
L 294.794387 57.211719 
L 292.554412 57.277005 
L 290.314436 57.341448 
L 288.074461 57.404621 
L 285.834486 57.466091 
L 283.594511 57.525407 
L 281.354535 57.582097 
L 279.11456 57.635659 
L 276.874585 57.685562 
L 274.63461 57.731236 
L 272.394634 57.772069 
L 270.154659 57.8074 
L 267.914684 57.836516 
L 265.674709 57.858649 
L 263.434733 57.872967 
L 261.194758 57.87858 
L 258.954783 57.87454 
L 256.714808 57.859847 
L 254.474833 57.833461 
L 252.234857 57.794322 
L 249.994882 57.741371 
L 247.754907 57.673575 
L 245.514932 57.589965 
L 243.274956 57.489671 
L 241.034981 57.371955 
L 238.795006 57.236257 
L 236.555031 57.082221 
L 234.315055 56.90973 
L 232.07508 56.71893 
L 229.835105 56.510241 
L 227.59513 56.28436 
L 225.355154 56.042253 
L 223.115179 55.785137 
L 220.875204 55.51444 
L 218.635229 55.231763 
L 216.395253 54.938824 
L 214.155278 54.637394 
L 211.915303 54.329236 
L 209.675328 54.016033 
L 207.435352 53.699318 
L 205.195377 53.380413 
L 202.955402 53.060368 
L 200.715427 52.739906 
L 198.475452 52.419385 
L 196.235476 52.098756 
L 193.995501 51.777543 
L 191.755526 51.454826 
L 189.515551 51.129232 
L 187.275575 50.798934 
L 185.0356 50.461656 
L 182.795625 50.114684 
L 180.55565 49.754879 
L 178.315674 49.378694 
L 176.075699 48.982196 
L 173.835724 48.561089 
L 171.595749 48.110749 
L 169.355773 47.626258 
L 167.115798 47.102455 
L 164.875823 46.533994 
L 162.635848 45.915419 
L 160.395872 45.241252 
L 158.155897 44.506106 
L 155.915922 43.704811 
L 153.675947 42.832565 
L 151.435971 41.885095 
L 149.195996 40.858848 
L 146.956021 39.751184 
L 144.716046 38.56058 
L 142.476071 37.286839 
L 140.236095 35.931294 
L 137.99612 34.496993 
L 135.756145 32.988868 
L 133.51617 31.413873 
L 131.276194 29.781078 
L 129.036219 28.101715 
L 126.796244 26.389177 
L 124.556269 24.658942 
L 122.316293 22.928439 
L 120.076318 21.216847 
L 117.836343 19.544817 
L 115.596368 17.93414 
L 113.356392 16.407349 
L 111.116417 14.987268 
L 108.876442 13.696524 
L 106.636467 12.557033 
L 104.396491 11.58947 
L 102.156516 10.812741 
L 99.916541 10.243486 
L 97.676566 9.895607 
L 95.43659 9.779864 
L 93.196615 9.903535 
L 90.95664 10.270163 
L 88.716665 10.879394 
L 86.47669 11.726929 
L 84.236714 12.804566 
L 81.996739 14.100367 
L 79.756764 15.598912 
L 77.516789 17.281659 
L 75.276813 19.127382 
L 73.036838 21.112673 
L 70.796863 23.212509 
L 68.556888 25.400831 
L 66.316912 27.651156 
L 64.076937 29.93716 
L 61.836962 32.233249 
L 59.596987 34.515077 
L 57.357011 36.760008 
L 55.117036 38.947498 
L 52.877061 41.059407 
L 50.637086 43.080215 
L 48.39711 44.997151 
L 46.157135 46.800247 
L 43.91716 48.482295 
L 41.677185 50.038745 
L 39.437209 51.467533 
L 37.197234 52.76886 
L 34.957259 53.944935 
L 32.717284 54.999691 
L 30.477309 55.938483 
L 28.237333 56.767791 
L 25.997358 57.494931 
L 23.757383 58.127775 
L 21.517408 58.674504 
L 19.277432 59.143385 
L 17.037457 59.542575 
L 14.797482 59.879973 
L 12.557507 60.163086 
L 10.317531 60.398939 
L 8.077556 60.594014 
L 5.837581 60.754208 
L 3.597606 60.884819 
L 1.35763 60.990553 
L -0.882345 61.075542 
L -3.12232 61.14337 
L -5.362295 61.197121 
z
" clip-path="url(#p3d9b6d4a81)" style="fill: #1f77b4; fill-opacity: 0.25; stroke: #1f77b4"/>
   </g>
   <g id="matplotlib.axis_3">
    <g id="xtick_6">
     <g id="line2d_16">
      <g>
       <use xlink:href="#m28dc334df8" x="74.276915" y="61.377143" style="stroke: #000000; stroke-width: 0.8"/>
      </g>
     </g>
    </g>
    <g id="xtick_7">
     <g id="line2d_17">
      <g>
       <use xlink:href="#m28dc334df8" x="143.810083" y="61.377143" style="stroke: #000000; stroke-width: 0.8"/>
      </g>
     </g>
    </g>
    <g id="xtick_8">
     <g id="line2d_18">
      <g>
       <use xlink:href="#m28dc334df8" x="213.343251" y="61.377143" style="stroke: #000000; stroke-width: 0.8"/>
      </g>
     </g>
    </g>
    <g id="xtick_9">
     <g id="line2d_19">
      <g>
       <use xlink:href="#m28dc334df8" x="282.876419" y="61.377143" style="stroke: #000000; stroke-width: 0.8"/>
      </g>
     </g>
    </g>
    <g id="xtick_10">
     <g id="line2d_20">
      <g>
       <use xlink:href="#m28dc334df8" x="352.409587" y="61.377143" style="stroke: #000000; stroke-width: 0.8"/>
      </g>
     </g>
    </g>
   </g>
   <g id="matplotlib.axis_4">
    <g id="ytick_9"/>
    <g id="ytick_10"/>
   </g>
   <g id="patch_6">
    <path d="M 61.482812 61.377143 
L 373.54767 61.377143 
" style="fill: none; stroke: #000000; stroke-width: 0.8; stroke-linejoin: miter; stroke-linecap: square"/>
   </g>
  </g>
  <g id="axes_3">
   <g id="patch_7">
    <path d="M 384.308527 386.44 
L 438.112812 386.44 
L 438.112812 72.212571 
L 384.308527 72.212571 
z
" style="fill: #ffffff"/>
   </g>
   <g id="PolyCollection_2">
    <defs>
     <path id="mdada2fe061" d="M 384.421085 -5.523559 
L 384.308527 -5.523559 
L 384.308527 -7.619063 
L 384.308527 -9.714567 
L 384.308527 -11.810072 
L 384.308527 -13.905576 
L 384.308527 -16.00108 
L 384.308527 -18.096584 
L 384.308527 -20.192088 
L 384.308527 -22.287592 
L 384.308527 -24.383096 
L 384.308527 -26.4786 
L 384.308527 -28.574104 
L 384.308527 -30.669608 
L 384.308527 -32.765112 
L 384.308527 -34.860616 
L 384.308527 -36.95612 
L 384.308527 -39.051624 
L 384.308527 -41.147129 
L 384.308527 -43.242633 
L 384.308527 -45.338137 
L 384.308527 -47.433641 
L 384.308527 -49.529145 
L 384.308527 -51.624649 
L 384.308527 -53.720153 
L 384.308527 -55.815657 
L 384.308527 -57.911161 
L 384.308527 -60.006665 
L 384.308527 -62.102169 
L 384.308527 -64.197673 
L 384.308527 -66.293177 
L 384.308527 -68.388681 
L 384.308527 -70.484185 
L 384.308527 -72.57969 
L 384.308527 -74.675194 
L 384.308527 -76.770698 
L 384.308527 -78.866202 
L 384.308527 -80.961706 
L 384.308527 -83.05721 
L 384.308527 -85.152714 
L 384.308527 -87.248218 
L 384.308527 -89.343722 
L 384.308527 -91.439226 
L 384.308527 -93.53473 
L 384.308527 -95.630234 
L 384.308527 -97.725738 
L 384.308527 -99.821242 
L 384.308527 -101.916747 
L 384.308527 -104.012251 
L 384.308527 -106.107755 
L 384.308527 -108.203259 
L 384.308527 -110.298763 
L 384.308527 -112.394267 
L 384.308527 -114.489771 
L 384.308527 -116.585275 
L 384.308527 -118.680779 
L 384.308527 -120.776283 
L 384.308527 -122.871787 
L 384.308527 -124.967291 
L 384.308527 -127.062795 
L 384.308527 -129.158299 
L 384.308527 -131.253804 
L 384.308527 -133.349308 
L 384.308527 -135.444812 
L 384.308527 -137.540316 
L 384.308527 -139.63582 
L 384.308527 -141.731324 
L 384.308527 -143.826828 
L 384.308527 -145.922332 
L 384.308527 -148.017836 
L 384.308527 -150.11334 
L 384.308527 -152.208844 
L 384.308527 -154.304348 
L 384.308527 -156.399852 
L 384.308527 -158.495356 
L 384.308527 -160.590861 
L 384.308527 -162.686365 
L 384.308527 -164.781869 
L 384.308527 -166.877373 
L 384.308527 -168.972877 
L 384.308527 -171.068381 
L 384.308527 -173.163885 
L 384.308527 -175.259389 
L 384.308527 -177.354893 
L 384.308527 -179.450397 
L 384.308527 -181.545901 
L 384.308527 -183.641405 
L 384.308527 -185.736909 
L 384.308527 -187.832413 
L 384.308527 -189.927917 
L 384.308527 -192.023422 
L 384.308527 -194.118926 
L 384.308527 -196.21443 
L 384.308527 -198.309934 
L 384.308527 -200.405438 
L 384.308527 -202.500942 
L 384.308527 -204.596446 
L 384.308527 -206.69195 
L 384.308527 -208.787454 
L 384.308527 -210.882958 
L 384.308527 -212.978462 
L 384.308527 -215.073966 
L 384.308527 -217.16947 
L 384.308527 -219.264974 
L 384.308527 -221.360479 
L 384.308527 -223.455983 
L 384.308527 -225.551487 
L 384.308527 -227.646991 
L 384.308527 -229.742495 
L 384.308527 -231.837999 
L 384.308527 -233.933503 
L 384.308527 -236.029007 
L 384.308527 -238.124511 
L 384.308527 -240.220015 
L 384.308527 -242.315519 
L 384.308527 -244.411023 
L 384.308527 -246.506527 
L 384.308527 -248.602031 
L 384.308527 -250.697536 
L 384.308527 -252.79304 
L 384.308527 -254.888544 
L 384.308527 -256.984048 
L 384.308527 -259.079552 
L 384.308527 -261.175056 
L 384.308527 -263.27056 
L 384.308527 -265.366064 
L 384.308527 -267.461568 
L 384.308527 -269.557072 
L 384.308527 -271.652576 
L 384.308527 -273.74808 
L 384.308527 -275.843584 
L 384.308527 -277.939088 
L 384.308527 -280.034592 
L 384.308527 -282.130097 
L 384.308527 -284.225601 
L 384.308527 -286.321105 
L 384.308527 -288.416609 
L 384.308527 -290.512113 
L 384.308527 -292.607617 
L 384.308527 -294.703121 
L 384.308527 -296.798625 
L 384.308527 -298.894129 
L 384.308527 -300.989633 
L 384.308527 -303.085137 
L 384.308527 -305.180641 
L 384.308527 -307.276145 
L 384.308527 -309.371649 
L 384.308527 -311.467154 
L 384.308527 -313.562658 
L 384.308527 -315.658162 
L 384.308527 -317.753666 
L 384.308527 -319.84917 
L 384.308527 -321.944674 
L 384.308527 -324.040178 
L 384.308527 -326.135682 
L 384.308527 -328.231186 
L 384.308527 -330.32669 
L 384.308527 -332.422194 
L 384.308527 -334.517698 
L 384.308527 -336.613202 
L 384.308527 -338.708706 
L 384.308527 -340.804211 
L 384.308527 -342.899715 
L 384.308527 -344.995219 
L 384.308527 -347.090723 
L 384.308527 -349.186227 
L 384.308527 -351.281731 
L 384.308527 -353.377235 
L 384.308527 -355.472739 
L 384.308527 -357.568243 
L 384.308527 -359.663747 
L 384.308527 -361.759251 
L 384.308527 -363.854755 
L 384.308527 -365.950259 
L 384.308527 -368.045763 
L 384.308527 -370.141268 
L 384.308527 -372.236772 
L 384.308527 -374.332276 
L 384.308527 -376.42778 
L 384.308527 -378.523284 
L 384.308527 -380.618788 
L 384.308527 -382.714292 
L 384.308527 -384.809796 
L 384.308527 -386.9053 
L 384.308527 -389.000804 
L 384.308527 -391.096308 
L 384.308527 -393.191812 
L 384.308527 -395.287316 
L 384.308527 -397.38282 
L 384.308527 -399.478324 
L 384.308527 -401.573829 
L 384.308527 -403.669333 
L 384.308527 -405.764837 
L 384.308527 -407.860341 
L 384.308527 -409.955845 
L 384.308527 -412.051349 
L 384.308527 -414.146853 
L 384.308527 -416.242357 
L 384.308527 -418.337861 
L 384.308527 -420.433365 
L 384.308527 -422.528869 
L 384.317483 -422.528869 
L 384.317483 -422.528869 
L 384.320409 -420.433365 
L 384.324149 -418.337861 
L 384.328879 -416.242357 
L 384.3348 -414.146853 
L 384.342136 -412.051349 
L 384.35113 -409.955845 
L 384.362044 -407.860341 
L 384.375146 -405.764837 
L 384.390709 -403.669333 
L 384.408997 -401.573829 
L 384.430253 -399.478324 
L 384.45469 -397.38282 
L 384.482474 -395.287316 
L 384.513711 -393.191812 
L 384.548433 -391.096308 
L 384.586591 -389.000804 
L 384.628042 -386.9053 
L 384.67255 -384.809796 
L 384.719782 -382.714292 
L 384.769323 -380.618788 
L 384.820681 -378.523284 
L 384.873315 -376.42778 
L 384.926656 -374.332276 
L 384.980138 -372.236772 
L 385.033237 -370.141268 
L 385.085502 -368.045763 
L 385.136598 -365.950259 
L 385.186328 -363.854755 
L 385.234669 -361.759251 
L 385.281788 -359.663747 
L 385.328047 -357.568243 
L 385.374004 -355.472739 
L 385.420392 -353.377235 
L 385.468096 -351.281731 
L 385.518107 -349.186227 
L 385.571472 -347.090723 
L 385.629243 -344.995219 
L 385.692405 -342.899715 
L 385.761825 -340.804211 
L 385.83819 -338.708706 
L 385.921957 -336.613202 
L 386.013321 -334.517698 
L 386.11219 -332.422194 
L 386.218179 -330.32669 
L 386.330623 -328.231186 
L 386.448608 -326.135682 
L 386.571009 -324.040178 
L 386.696552 -321.944674 
L 386.823879 -319.84917 
L 386.951611 -317.753666 
L 387.078425 -315.658162 
L 387.203109 -313.562658 
L 387.324616 -311.467154 
L 387.442106 -309.371649 
L 387.554963 -307.276145 
L 387.662803 -305.180641 
L 387.765458 -303.085137 
L 387.862949 -300.989633 
L 387.955444 -298.894129 
L 388.043205 -296.798625 
L 388.126531 -294.703121 
L 388.205706 -292.607617 
L 388.280945 -290.512113 
L 388.352352 -288.416609 
L 388.419896 -286.321105 
L 388.483391 -284.225601 
L 388.542508 -282.130097 
L 388.596789 -280.034592 
L 388.645692 -277.939088 
L 388.688635 -275.843584 
L 388.725063 -273.74808 
L 388.754515 -271.652576 
L 388.776698 -269.557072 
L 388.79156 -267.461568 
L 388.799355 -265.366064 
L 388.800705 -263.27056 
L 388.796646 -261.175056 
L 388.788662 -259.079552 
L 388.778698 -256.984048 
L 388.769164 -254.888544 
L 388.762906 -252.79304 
L 388.763168 -250.697536 
L 388.773532 -248.602031 
L 388.797834 -246.506527 
L 388.840072 -244.411023 
L 388.904291 -242.315519 
L 388.994469 -240.220015 
L 389.114384 -238.124511 
L 389.267494 -236.029007 
L 389.456809 -233.933503 
L 389.684786 -231.837999 
L 389.953224 -229.742495 
L 390.263199 -227.646991 
L 390.615007 -225.551487 
L 391.008143 -223.455983 
L 391.441311 -221.360479 
L 391.912461 -219.264974 
L 392.418853 -217.16947 
L 392.957151 -215.073966 
L 393.523537 -212.978462 
L 394.11384 -210.882958 
L 394.723678 -208.787454 
L 395.348603 -206.69195 
L 395.984244 -204.596446 
L 396.626447 -202.500942 
L 397.271399 -200.405438 
L 397.915734 -198.309934 
L 398.55663 -196.21443 
L 399.191871 -194.118926 
L 399.8199 -192.023422 
L 400.43984 -189.927917 
L 401.051499 -187.832413 
L 401.655352 -185.736909 
L 402.252506 -183.641405 
L 402.844645 -181.545901 
L 403.433968 -179.450397 
L 404.023106 -177.354893 
L 404.615038 -175.259389 
L 405.212998 -173.163885 
L 405.820385 -171.068381 
L 406.440665 -168.972877 
L 407.077288 -166.877373 
L 407.733609 -164.781869 
L 408.412816 -162.686365 
L 409.117869 -160.590861 
L 409.851461 -158.495356 
L 410.615974 -156.399852 
L 411.413455 -154.304348 
L 412.245594 -152.208844 
L 413.113701 -150.11334 
L 414.018682 -148.017836 
L 414.961003 -145.922332 
L 415.940644 -143.826828 
L 416.957036 -141.731324 
L 418.008974 -139.63582 
L 419.09452 -137.540316 
L 420.21089 -135.444812 
L 421.354324 -133.349308 
L 422.519967 -131.253804 
L 423.701744 -129.158299 
L 424.892266 -127.062795 
L 426.082756 -124.967291 
L 427.263016 -122.871787 
L 428.421444 -120.776283 
L 429.545101 -118.680779 
L 430.619837 -116.585275 
L 431.630476 -114.489771 
L 432.561051 -112.394267 
L 433.395098 -110.298763 
L 434.115986 -108.203259 
L 434.707286 -106.107755 
L 435.153163 -104.012251 
L 435.438779 -101.916747 
L 435.550704 -99.821242 
L 435.477312 -97.725738 
L 435.209164 -95.630234 
L 434.739354 -93.53473 
L 434.063817 -91.439226 
L 433.181577 -89.343722 
L 432.094942 -87.248218 
L 430.809611 -85.152714 
L 429.334706 -83.05721 
L 427.682698 -80.961706 
L 425.869254 -78.866202 
L 423.912962 -76.770698 
L 421.834973 -74.675194 
L 419.658543 -72.57969 
L 417.408502 -70.484185 
L 415.110655 -68.388681 
L 412.791151 -66.293177 
L 410.475825 -64.197673 
L 408.189564 -62.102169 
L 405.9557 -60.006665 
L 403.795477 -57.911161 
L 401.727592 -55.815657 
L 399.767851 -53.720153 
L 397.928933 -51.624649 
L 396.220273 -49.529145 
L 394.648069 -47.433641 
L 393.215396 -45.338137 
L 391.92242 -43.242633 
L 390.766688 -41.147129 
L 389.743488 -39.051624 
L 388.846237 -36.95612 
L 388.066895 -34.860616 
L 387.396375 -32.765112 
L 386.824929 -30.669608 
L 386.34251 -28.574104 
L 385.939081 -26.4786 
L 385.604877 -24.383096 
L 385.330617 -22.287592 
L 385.107657 -20.192088 
L 384.928098 -18.096584 
L 384.784841 -16.00108 
L 384.671614 -13.905576 
L 384.582956 -11.810072 
L 384.514181 -9.714567 
L 384.461327 -7.619063 
L 384.421085 -5.523559 
z
" style="stroke: #1f77b4"/>
    </defs>
    <g clip-path="url(#p9cf57abb01)">
     <use xlink:href="#mdada2fe061" x="0" y="443.3525" style="fill: #1f77b4; fill-opacity: 0.25; stroke: #1f77b4"/>
    </g>
   </g>
   <g id="matplotlib.axis_5">
    <g id="xtick_11"/>
    <g id="xtick_12"/>
   </g>
   <g id="matplotlib.axis_6">
    <g id="ytick_11">
     <g id="line2d_21">
      <g>
       <use xlink:href="#m053cc11101" x="384.308527" y="376.237811" style="stroke: #000000; stroke-width: 0.8"/>
      </g>
     </g>
    </g>
    <g id="ytick_12">
     <g id="line2d_22">
      <g>
       <use xlink:href="#m053cc11101" x="384.308527" y="335.429054" style="stroke: #000000; stroke-width: 0.8"/>
      </g>
     </g>
    </g>
    <g id="ytick_13">
     <g id="line2d_23">
      <g>
       <use xlink:href="#m053cc11101" x="384.308527" y="294.620297" style="stroke: #000000; stroke-width: 0.8"/>
      </g>
     </g>
    </g>
    <g id="ytick_14">
     <g id="line2d_24">
      <g>
       <use xlink:href="#m053cc11101" x="384.308527" y="253.81154" style="stroke: #000000; stroke-width: 0.8"/>
      </g>
     </g>
    </g>
    <g id="ytick_15">
     <g id="line2d_25">
      <g>
       <use xlink:href="#m053cc11101" x="384.308527" y="213.002783" style="stroke: #000000; stroke-width: 0.8"/>
      </g>
     </g>
    </g>
    <g id="ytick_16">
     <g id="line2d_26">
      <g>
       <use xlink:href="#m053cc11101" x="384.308527" y="172.194026" style="stroke: #000000; stroke-width: 0.8"/>
      </g>
     </g>
    </g>
    <g id="ytick_17">
     <g id="line2d_27">
      <g>
       <use xlink:href="#m053cc11101" x="384.308527" y="131.385269" style="stroke: #000000; stroke-width: 0.8"/>
      </g>
     </g>
    </g>
    <g id="ytick_18">
     <g id="line2d_28">
      <g>
       <use xlink:href="#m053cc11101" x="384.308527" y="90.576512" style="stroke: #000000; stroke-width: 0.8"/>
      </g>
     </g>
    </g>
   </g>
   <g id="patch_8">
    <path d="M 384.308527 386.44 
L 384.308527 72.212571 
" style="fill: none; stroke: #000000; stroke-width: 0.8; stroke-linejoin: miter; stroke-linecap: square"/>
   </g>
  </g>
 </g>
 <defs>
  <clipPath id="p52a177119d">
   <rect x="61.482813" y="72.212571" width="312.064857" height="314.227429"/>
  </clipPath>
  <clipPath id="p3d9b6d4a81">
   <rect x="61.482813" y="7.2" width="312.064857" height="54.177143"/>
  </clipPath>
  <clipPath id="p9cf57abb01">
   <rect x="384.308527" y="72.212571" width="53.804286" height="314.227429"/>
  </clipPath>
 </defs>
</svg>
