<?xml version="1.0" encoding="utf-8" standalone="no"?>
<!DOCTYPE svg PUBLIC "-//W3C//DTD SVG 1.1//EN"
  "http://www.w3.org/Graphics/SVG/1.1/DTD/svg11.dtd">
<svg xmlns:xlink="http://www.w3.org/1999/xlink" width="440.47375pt" height="438.513437pt" viewBox="0 0 440.47375 438.513437" xmlns="http://www.w3.org/2000/svg" version="1.1">
 <metadata>
  <rdf:RDF xmlns:dc="http://purl.org/dc/elements/1.1/" xmlns:cc="http://creativecommons.org/ns#" xmlns:rdf="http://www.w3.org/1999/02/22-rdf-syntax-ns#">
   <cc:Work>
    <dc:type rdf:resource="http://purl.org/dc/dcmitype/StillImage"/>
    <dc:date>2022-02-23T14:19:57.387007</dc:date>
    <dc:format>image/svg+xml</dc:format>
    <dc:creator>
     <cc:Agent>
      <dc:title>Matplotlib v3.5.1, https://matplotlib.org/</dc:title>
     </cc:Agent>
    </dc:creator>
   </cc:Work>
  </rdf:RDF>
 </metadata>
 <defs>
  <style type="text/css">*{stroke-linejoin: round; stroke-linecap: butt}</style>
 </defs>
 <g id="figure_1">
  <g id="patch_1">
   <path d="M 0 438.513437 
L 440.47375 438.513437 
L 440.47375 0 
L 0 0 
z
" style="fill: #ffffff"/>
  </g>
  <g id="axes_1">
   <g id="patch_2">
    <path d="M 56.64375 386.44 
L 368.708607 386.44 
L 368.708607 72.212571 
L 56.64375 72.212571 
z
" style="fill: #ffffff"/>
   </g>
   <g id="PathCollection_1">
    <defs>
     <path id="m869eee20dd" d="M 0 4.330127 
C 1.148363 4.330127 2.249847 3.873878 3.061862 3.061862 
C 3.873878 2.249847 4.330127 1.148363 4.330127 0 
C 4.330127 -1.148363 3.873878 -2.249847 3.061862 -3.061862 
C 2.249847 -3.873878 1.148363 -4.330127 0 -4.330127 
C -1.148363 -4.330127 -2.249847 -3.873878 -3.061862 -3.061862 
C -3.873878 -2.249847 -4.330127 -1.148363 -4.330127 0 
C -4.330127 1.148363 -3.873878 2.249847 -3.061862 3.061862 
C -2.249847 3.873878 -1.148363 4.330127 0 4.330127 
z
" style="stroke: #ffffff; stroke-opacity: 0.5; stroke-width: 0.69282"/>
    </defs>
    <g clip-path="url(#p71850ae240)">
     <use xlink:href="#m869eee20dd" x="158.440308" y="193.618623" style="fill: #1f77b4; fill-opacity: 0.5; stroke: #ffffff; stroke-opacity: 0.5; stroke-width: 0.69282"/>
     <use xlink:href="#m869eee20dd" x="70.828516" y="265.033948" style="fill: #1f77b4; fill-opacity: 0.5; stroke: #ffffff; stroke-opacity: 0.5; stroke-width: 0.69282"/>
     <use xlink:href="#m869eee20dd" x="70.828516" y="336.449273" style="fill: #1f77b4; fill-opacity: 0.5; stroke: #ffffff; stroke-opacity: 0.5; stroke-width: 0.69282"/>
     <use xlink:href="#m869eee20dd" x="83.344486" y="134.105853" style="fill: #1f77b4; fill-opacity: 0.5; stroke: #ffffff; stroke-opacity: 0.5; stroke-width: 0.69282"/>
     <use xlink:href="#m869eee20dd" x="70.828516" y="253.131394" style="fill: #1f77b4; fill-opacity: 0.5; stroke: #ffffff; stroke-opacity: 0.5; stroke-width: 0.69282"/>
     <use xlink:href="#m869eee20dd" x="70.828516" y="312.644165" style="fill: #1f77b4; fill-opacity: 0.5; stroke: #ffffff; stroke-opacity: 0.5; stroke-width: 0.69282"/>
     <use xlink:href="#m869eee20dd" x="75.000506" y="265.033948" style="fill: #1f77b4; fill-opacity: 0.5; stroke: #ffffff; stroke-opacity: 0.5; stroke-width: 0.69282"/>
     <use xlink:href="#m869eee20dd" x="158.440308" y="205.521177" style="fill: #1f77b4; fill-opacity: 0.5; stroke: #ffffff; stroke-opacity: 0.5; stroke-width: 0.69282"/>
     <use xlink:href="#m869eee20dd" x="75.000506" y="324.546719" style="fill: #1f77b4; fill-opacity: 0.5; stroke: #ffffff; stroke-opacity: 0.5; stroke-width: 0.69282"/>
     <use xlink:href="#m869eee20dd" x="70.828516" y="288.839056" style="fill: #1f77b4; fill-opacity: 0.5; stroke: #ffffff; stroke-opacity: 0.5; stroke-width: 0.69282"/>
     <use xlink:href="#m869eee20dd" x="70.828516" y="324.546719" style="fill: #1f77b4; fill-opacity: 0.5; stroke: #ffffff; stroke-opacity: 0.5; stroke-width: 0.69282"/>
     <use xlink:href="#m869eee20dd" x="70.828516" y="312.644165" style="fill: #1f77b4; fill-opacity: 0.5; stroke: #ffffff; stroke-opacity: 0.5; stroke-width: 0.69282"/>
     <use xlink:href="#m869eee20dd" x="354.523841" y="86.495636" style="fill: #1f77b4; fill-opacity: 0.5; stroke: #ffffff; stroke-opacity: 0.5; stroke-width: 0.69282"/>
     <use xlink:href="#m869eee20dd" x="100.032447" y="229.326286" style="fill: #1f77b4; fill-opacity: 0.5; stroke: #ffffff; stroke-opacity: 0.5; stroke-width: 0.69282"/>
     <use xlink:href="#m869eee20dd" x="70.828516" y="372.156935" style="fill: #1f77b4; fill-opacity: 0.5; stroke: #ffffff; stroke-opacity: 0.5; stroke-width: 0.69282"/>
    </g>
   </g>
   <g id="matplotlib.axis_1">
    <g id="xtick_1">
     <g id="line2d_1">
      <defs>
       <path id="m2e9373bd35" d="M 0 0 
L 0 3.5 
" style="stroke: #000000; stroke-width: 0.8"/>
      </defs>
      <g>
       <use xlink:href="#m2e9373bd35" x="66.656526" y="386.44" style="stroke: #000000; stroke-width: 0.8"/>
      </g>
     </g>
     <g id="text_1">
      <!-- 0 -->
      <g transform="translate(61.884651 404.837656)scale(0.15 -0.15)">
       <defs>
        <path id="DejaVuSans-30" d="M 2034 4250 
Q 1547 4250 1301 3770 
Q 1056 3291 1056 2328 
Q 1056 1369 1301 889 
Q 1547 409 2034 409 
Q 2525 409 2770 889 
Q 3016 1369 3016 2328 
Q 3016 3291 2770 3770 
Q 2525 4250 2034 4250 
z
M 2034 4750 
Q 2819 4750 3233 4129 
Q 3647 3509 3647 2328 
Q 3647 1150 3233 529 
Q 2819 -91 2034 -91 
Q 1250 -91 836 529 
Q 422 1150 422 2328 
Q 422 3509 836 4129 
Q 1250 4750 2034 4750 
z
" transform="scale(0.015625)"/>
       </defs>
       <use xlink:href="#DejaVuSans-30"/>
      </g>
     </g>
    </g>
    <g id="xtick_2">
     <g id="line2d_2">
      <g>
       <use xlink:href="#m2e9373bd35" x="150.096328" y="386.44" style="stroke: #000000; stroke-width: 0.8"/>
      </g>
     </g>
     <g id="text_2">
      <!-- 20 -->
      <g transform="translate(140.552578 404.837656)scale(0.15 -0.15)">
       <defs>
        <path id="DejaVuSans-32" d="M 1228 531 
L 3431 531 
L 3431 0 
L 469 0 
L 469 531 
Q 828 903 1448 1529 
Q 2069 2156 2228 2338 
Q 2531 2678 2651 2914 
Q 2772 3150 2772 3378 
Q 2772 3750 2511 3984 
Q 2250 4219 1831 4219 
Q 1534 4219 1204 4116 
Q 875 4013 500 3803 
L 500 4441 
Q 881 4594 1212 4672 
Q 1544 4750 1819 4750 
Q 2544 4750 2975 4387 
Q 3406 4025 3406 3419 
Q 3406 3131 3298 2873 
Q 3191 2616 2906 2266 
Q 2828 2175 2409 1742 
Q 1991 1309 1228 531 
z
" transform="scale(0.015625)"/>
       </defs>
       <use xlink:href="#DejaVuSans-32"/>
       <use xlink:href="#DejaVuSans-30" x="63.623047"/>
      </g>
     </g>
    </g>
    <g id="xtick_3">
     <g id="line2d_3">
      <g>
       <use xlink:href="#m2e9373bd35" x="233.536129" y="386.44" style="stroke: #000000; stroke-width: 0.8"/>
      </g>
     </g>
     <g id="text_3">
      <!-- 40 -->
      <g transform="translate(223.992379 404.837656)scale(0.15 -0.15)">
       <defs>
        <path id="DejaVuSans-34" d="M 2419 4116 
L 825 1625 
L 2419 1625 
L 2419 4116 
z
M 2253 4666 
L 3047 4666 
L 3047 1625 
L 3713 1625 
L 3713 1100 
L 3047 1100 
L 3047 0 
L 2419 0 
L 2419 1100 
L 313 1100 
L 313 1709 
L 2253 4666 
z
" transform="scale(0.015625)"/>
       </defs>
       <use xlink:href="#DejaVuSans-34"/>
       <use xlink:href="#DejaVuSans-30" x="63.623047"/>
      </g>
     </g>
    </g>
    <g id="xtick_4">
     <g id="line2d_4">
      <g>
       <use xlink:href="#m2e9373bd35" x="316.97593" y="386.44" style="stroke: #000000; stroke-width: 0.8"/>
      </g>
     </g>
     <g id="text_4">
      <!-- 60 -->
      <g transform="translate(307.43218 404.837656)scale(0.15 -0.15)">
       <defs>
        <path id="DejaVuSans-36" d="M 2113 2584 
Q 1688 2584 1439 2293 
Q 1191 2003 1191 1497 
Q 1191 994 1439 701 
Q 1688 409 2113 409 
Q 2538 409 2786 701 
Q 3034 994 3034 1497 
Q 3034 2003 2786 2293 
Q 2538 2584 2113 2584 
z
M 3366 4563 
L 3366 3988 
Q 3128 4100 2886 4159 
Q 2644 4219 2406 4219 
Q 1781 4219 1451 3797 
Q 1122 3375 1075 2522 
Q 1259 2794 1537 2939 
Q 1816 3084 2150 3084 
Q 2853 3084 3261 2657 
Q 3669 2231 3669 1497 
Q 3669 778 3244 343 
Q 2819 -91 2113 -91 
Q 1303 -91 875 529 
Q 447 1150 447 2328 
Q 447 3434 972 4092 
Q 1497 4750 2381 4750 
Q 2619 4750 2861 4703 
Q 3103 4656 3366 4563 
z
" transform="scale(0.015625)"/>
       </defs>
       <use xlink:href="#DejaVuSans-36"/>
       <use xlink:href="#DejaVuSans-30" x="63.623047"/>
      </g>
     </g>
    </g>
    <g id="text_5">
     <!-- # Commits -->
     <g transform="translate(156.627741 427.154062)scale(0.2 -0.2)">
      <defs>
       <path id="DejaVuSans-23" d="M 3272 2816 
L 2363 2816 
L 2100 1772 
L 3016 1772 
L 3272 2816 
z
M 2803 4594 
L 2478 3297 
L 3391 3297 
L 3719 4594 
L 4219 4594 
L 3897 3297 
L 4872 3297 
L 4872 2816 
L 3775 2816 
L 3519 1772 
L 4513 1772 
L 4513 1294 
L 3397 1294 
L 3072 0 
L 2572 0 
L 2894 1294 
L 1978 1294 
L 1656 0 
L 1153 0 
L 1478 1294 
L 494 1294 
L 494 1772 
L 1594 1772 
L 1856 2816 
L 850 2816 
L 850 3297 
L 1978 3297 
L 2297 4594 
L 2803 4594 
z
" transform="scale(0.015625)"/>
       <path id="DejaVuSans-20" transform="scale(0.015625)"/>
       <path id="DejaVuSans-43" d="M 4122 4306 
L 4122 3641 
Q 3803 3938 3442 4084 
Q 3081 4231 2675 4231 
Q 1875 4231 1450 3742 
Q 1025 3253 1025 2328 
Q 1025 1406 1450 917 
Q 1875 428 2675 428 
Q 3081 428 3442 575 
Q 3803 722 4122 1019 
L 4122 359 
Q 3791 134 3420 21 
Q 3050 -91 2638 -91 
Q 1578 -91 968 557 
Q 359 1206 359 2328 
Q 359 3453 968 4101 
Q 1578 4750 2638 4750 
Q 3056 4750 3426 4639 
Q 3797 4528 4122 4306 
z
" transform="scale(0.015625)"/>
       <path id="DejaVuSans-6f" d="M 1959 3097 
Q 1497 3097 1228 2736 
Q 959 2375 959 1747 
Q 959 1119 1226 758 
Q 1494 397 1959 397 
Q 2419 397 2687 759 
Q 2956 1122 2956 1747 
Q 2956 2369 2687 2733 
Q 2419 3097 1959 3097 
z
M 1959 3584 
Q 2709 3584 3137 3096 
Q 3566 2609 3566 1747 
Q 3566 888 3137 398 
Q 2709 -91 1959 -91 
Q 1206 -91 779 398 
Q 353 888 353 1747 
Q 353 2609 779 3096 
Q 1206 3584 1959 3584 
z
" transform="scale(0.015625)"/>
       <path id="DejaVuSans-6d" d="M 3328 2828 
Q 3544 3216 3844 3400 
Q 4144 3584 4550 3584 
Q 5097 3584 5394 3201 
Q 5691 2819 5691 2113 
L 5691 0 
L 5113 0 
L 5113 2094 
Q 5113 2597 4934 2840 
Q 4756 3084 4391 3084 
Q 3944 3084 3684 2787 
Q 3425 2491 3425 1978 
L 3425 0 
L 2847 0 
L 2847 2094 
Q 2847 2600 2669 2842 
Q 2491 3084 2119 3084 
Q 1678 3084 1418 2786 
Q 1159 2488 1159 1978 
L 1159 0 
L 581 0 
L 581 3500 
L 1159 3500 
L 1159 2956 
Q 1356 3278 1631 3431 
Q 1906 3584 2284 3584 
Q 2666 3584 2933 3390 
Q 3200 3197 3328 2828 
z
" transform="scale(0.015625)"/>
       <path id="DejaVuSans-69" d="M 603 3500 
L 1178 3500 
L 1178 0 
L 603 0 
L 603 3500 
z
M 603 4863 
L 1178 4863 
L 1178 4134 
L 603 4134 
L 603 4863 
z
" transform="scale(0.015625)"/>
       <path id="DejaVuSans-74" d="M 1172 4494 
L 1172 3500 
L 2356 3500 
L 2356 3053 
L 1172 3053 
L 1172 1153 
Q 1172 725 1289 603 
Q 1406 481 1766 481 
L 2356 481 
L 2356 0 
L 1766 0 
Q 1100 0 847 248 
Q 594 497 594 1153 
L 594 3053 
L 172 3053 
L 172 3500 
L 594 3500 
L 594 4494 
L 1172 4494 
z
" transform="scale(0.015625)"/>
       <path id="DejaVuSans-73" d="M 2834 3397 
L 2834 2853 
Q 2591 2978 2328 3040 
Q 2066 3103 1784 3103 
Q 1356 3103 1142 2972 
Q 928 2841 928 2578 
Q 928 2378 1081 2264 
Q 1234 2150 1697 2047 
L 1894 2003 
Q 2506 1872 2764 1633 
Q 3022 1394 3022 966 
Q 3022 478 2636 193 
Q 2250 -91 1575 -91 
Q 1294 -91 989 -36 
Q 684 19 347 128 
L 347 722 
Q 666 556 975 473 
Q 1284 391 1588 391 
Q 1994 391 2212 530 
Q 2431 669 2431 922 
Q 2431 1156 2273 1281 
Q 2116 1406 1581 1522 
L 1381 1569 
Q 847 1681 609 1914 
Q 372 2147 372 2553 
Q 372 3047 722 3315 
Q 1072 3584 1716 3584 
Q 2034 3584 2315 3537 
Q 2597 3491 2834 3397 
z
" transform="scale(0.015625)"/>
      </defs>
      <use xlink:href="#DejaVuSans-23"/>
      <use xlink:href="#DejaVuSans-20" x="83.789062"/>
      <use xlink:href="#DejaVuSans-43" x="115.576172"/>
      <use xlink:href="#DejaVuSans-6f" x="185.400391"/>
      <use xlink:href="#DejaVuSans-6d" x="246.582031"/>
      <use xlink:href="#DejaVuSans-6d" x="343.994141"/>
      <use xlink:href="#DejaVuSans-69" x="441.40625"/>
      <use xlink:href="#DejaVuSans-74" x="469.189453"/>
      <use xlink:href="#DejaVuSans-73" x="508.398438"/>
     </g>
    </g>
   </g>
   <g id="matplotlib.axis_2">
    <g id="ytick_1">
     <g id="line2d_5">
      <defs>
       <path id="me2dd3d3535" d="M 0 0 
L -3.5 0 
" style="stroke: #000000; stroke-width: 0.8"/>
      </defs>
      <g>
       <use xlink:href="#me2dd3d3535" x="56.64375" y="384.059489" style="stroke: #000000; stroke-width: 0.8"/>
      </g>
     </g>
     <g id="text_6">
      <!-- 0 -->
      <g transform="translate(40.1 389.758317)scale(0.15 -0.15)">
       <use xlink:href="#DejaVuSans-30"/>
      </g>
     </g>
    </g>
    <g id="ytick_2">
     <g id="line2d_6">
      <g>
       <use xlink:href="#me2dd3d3535" x="56.64375" y="324.546719" style="stroke: #000000; stroke-width: 0.8"/>
      </g>
     </g>
     <g id="text_7">
      <!-- 5 -->
      <g transform="translate(40.1 330.245547)scale(0.15 -0.15)">
       <defs>
        <path id="DejaVuSans-35" d="M 691 4666 
L 3169 4666 
L 3169 4134 
L 1269 4134 
L 1269 2991 
Q 1406 3038 1543 3061 
Q 1681 3084 1819 3084 
Q 2600 3084 3056 2656 
Q 3513 2228 3513 1497 
Q 3513 744 3044 326 
Q 2575 -91 1722 -91 
Q 1428 -91 1123 -41 
Q 819 9 494 109 
L 494 744 
Q 775 591 1075 516 
Q 1375 441 1709 441 
Q 2250 441 2565 725 
Q 2881 1009 2881 1497 
Q 2881 1984 2565 2268 
Q 2250 2553 1709 2553 
Q 1456 2553 1204 2497 
Q 953 2441 691 2322 
L 691 4666 
z
" transform="scale(0.015625)"/>
       </defs>
       <use xlink:href="#DejaVuSans-35"/>
      </g>
     </g>
    </g>
    <g id="ytick_3">
     <g id="line2d_7">
      <g>
       <use xlink:href="#me2dd3d3535" x="56.64375" y="265.033948" style="stroke: #000000; stroke-width: 0.8"/>
      </g>
     </g>
     <g id="text_8">
      <!-- 10 -->
      <g transform="translate(30.55625 270.732776)scale(0.15 -0.15)">
       <defs>
        <path id="DejaVuSans-31" d="M 794 531 
L 1825 531 
L 1825 4091 
L 703 3866 
L 703 4441 
L 1819 4666 
L 2450 4666 
L 2450 531 
L 3481 531 
L 3481 0 
L 794 0 
L 794 531 
z
" transform="scale(0.015625)"/>
       </defs>
       <use xlink:href="#DejaVuSans-31"/>
       <use xlink:href="#DejaVuSans-30" x="63.623047"/>
      </g>
     </g>
    </g>
    <g id="ytick_4">
     <g id="line2d_8">
      <g>
       <use xlink:href="#me2dd3d3535" x="56.64375" y="205.521177" style="stroke: #000000; stroke-width: 0.8"/>
      </g>
     </g>
     <g id="text_9">
      <!-- 15 -->
      <g transform="translate(30.55625 211.220006)scale(0.15 -0.15)">
       <use xlink:href="#DejaVuSans-31"/>
       <use xlink:href="#DejaVuSans-35" x="63.623047"/>
      </g>
     </g>
    </g>
    <g id="ytick_5">
     <g id="line2d_9">
      <g>
       <use xlink:href="#me2dd3d3535" x="56.64375" y="146.008407" style="stroke: #000000; stroke-width: 0.8"/>
      </g>
     </g>
     <g id="text_10">
      <!-- 20 -->
      <g transform="translate(30.55625 151.707235)scale(0.15 -0.15)">
       <use xlink:href="#DejaVuSans-32"/>
       <use xlink:href="#DejaVuSans-30" x="63.623047"/>
      </g>
     </g>
    </g>
    <g id="ytick_6">
     <g id="line2d_10">
      <g>
       <use xlink:href="#me2dd3d3535" x="56.64375" y="86.495636" style="stroke: #000000; stroke-width: 0.8"/>
      </g>
     </g>
     <g id="text_11">
      <!-- 25 -->
      <g transform="translate(30.55625 92.194464)scale(0.15 -0.15)">
       <use xlink:href="#DejaVuSans-32"/>
       <use xlink:href="#DejaVuSans-35" x="63.623047"/>
      </g>
     </g>
    </g>
    <g id="text_12">
     <!-- # Interacting authors -->
     <g transform="translate(22.396875 336.707536)rotate(-90)scale(0.2 -0.2)">
      <defs>
       <path id="DejaVuSans-49" d="M 628 4666 
L 1259 4666 
L 1259 0 
L 628 0 
L 628 4666 
z
" transform="scale(0.015625)"/>
       <path id="DejaVuSans-6e" d="M 3513 2113 
L 3513 0 
L 2938 0 
L 2938 2094 
Q 2938 2591 2744 2837 
Q 2550 3084 2163 3084 
Q 1697 3084 1428 2787 
Q 1159 2491 1159 1978 
L 1159 0 
L 581 0 
L 581 3500 
L 1159 3500 
L 1159 2956 
Q 1366 3272 1645 3428 
Q 1925 3584 2291 3584 
Q 2894 3584 3203 3211 
Q 3513 2838 3513 2113 
z
" transform="scale(0.015625)"/>
       <path id="DejaVuSans-65" d="M 3597 1894 
L 3597 1613 
L 953 1613 
Q 991 1019 1311 708 
Q 1631 397 2203 397 
Q 2534 397 2845 478 
Q 3156 559 3463 722 
L 3463 178 
Q 3153 47 2828 -22 
Q 2503 -91 2169 -91 
Q 1331 -91 842 396 
Q 353 884 353 1716 
Q 353 2575 817 3079 
Q 1281 3584 2069 3584 
Q 2775 3584 3186 3129 
Q 3597 2675 3597 1894 
z
M 3022 2063 
Q 3016 2534 2758 2815 
Q 2500 3097 2075 3097 
Q 1594 3097 1305 2825 
Q 1016 2553 972 2059 
L 3022 2063 
z
" transform="scale(0.015625)"/>
       <path id="DejaVuSans-72" d="M 2631 2963 
Q 2534 3019 2420 3045 
Q 2306 3072 2169 3072 
Q 1681 3072 1420 2755 
Q 1159 2438 1159 1844 
L 1159 0 
L 581 0 
L 581 3500 
L 1159 3500 
L 1159 2956 
Q 1341 3275 1631 3429 
Q 1922 3584 2338 3584 
Q 2397 3584 2469 3576 
Q 2541 3569 2628 3553 
L 2631 2963 
z
" transform="scale(0.015625)"/>
       <path id="DejaVuSans-61" d="M 2194 1759 
Q 1497 1759 1228 1600 
Q 959 1441 959 1056 
Q 959 750 1161 570 
Q 1363 391 1709 391 
Q 2188 391 2477 730 
Q 2766 1069 2766 1631 
L 2766 1759 
L 2194 1759 
z
M 3341 1997 
L 3341 0 
L 2766 0 
L 2766 531 
Q 2569 213 2275 61 
Q 1981 -91 1556 -91 
Q 1019 -91 701 211 
Q 384 513 384 1019 
Q 384 1609 779 1909 
Q 1175 2209 1959 2209 
L 2766 2209 
L 2766 2266 
Q 2766 2663 2505 2880 
Q 2244 3097 1772 3097 
Q 1472 3097 1187 3025 
Q 903 2953 641 2809 
L 641 3341 
Q 956 3463 1253 3523 
Q 1550 3584 1831 3584 
Q 2591 3584 2966 3190 
Q 3341 2797 3341 1997 
z
" transform="scale(0.015625)"/>
       <path id="DejaVuSans-63" d="M 3122 3366 
L 3122 2828 
Q 2878 2963 2633 3030 
Q 2388 3097 2138 3097 
Q 1578 3097 1268 2742 
Q 959 2388 959 1747 
Q 959 1106 1268 751 
Q 1578 397 2138 397 
Q 2388 397 2633 464 
Q 2878 531 3122 666 
L 3122 134 
Q 2881 22 2623 -34 
Q 2366 -91 2075 -91 
Q 1284 -91 818 406 
Q 353 903 353 1747 
Q 353 2603 823 3093 
Q 1294 3584 2113 3584 
Q 2378 3584 2631 3529 
Q 2884 3475 3122 3366 
z
" transform="scale(0.015625)"/>
       <path id="DejaVuSans-67" d="M 2906 1791 
Q 2906 2416 2648 2759 
Q 2391 3103 1925 3103 
Q 1463 3103 1205 2759 
Q 947 2416 947 1791 
Q 947 1169 1205 825 
Q 1463 481 1925 481 
Q 2391 481 2648 825 
Q 2906 1169 2906 1791 
z
M 3481 434 
Q 3481 -459 3084 -895 
Q 2688 -1331 1869 -1331 
Q 1566 -1331 1297 -1286 
Q 1028 -1241 775 -1147 
L 775 -588 
Q 1028 -725 1275 -790 
Q 1522 -856 1778 -856 
Q 2344 -856 2625 -561 
Q 2906 -266 2906 331 
L 2906 616 
Q 2728 306 2450 153 
Q 2172 0 1784 0 
Q 1141 0 747 490 
Q 353 981 353 1791 
Q 353 2603 747 3093 
Q 1141 3584 1784 3584 
Q 2172 3584 2450 3431 
Q 2728 3278 2906 2969 
L 2906 3500 
L 3481 3500 
L 3481 434 
z
" transform="scale(0.015625)"/>
       <path id="DejaVuSans-75" d="M 544 1381 
L 544 3500 
L 1119 3500 
L 1119 1403 
Q 1119 906 1312 657 
Q 1506 409 1894 409 
Q 2359 409 2629 706 
Q 2900 1003 2900 1516 
L 2900 3500 
L 3475 3500 
L 3475 0 
L 2900 0 
L 2900 538 
Q 2691 219 2414 64 
Q 2138 -91 1772 -91 
Q 1169 -91 856 284 
Q 544 659 544 1381 
z
M 1991 3584 
L 1991 3584 
z
" transform="scale(0.015625)"/>
       <path id="DejaVuSans-68" d="M 3513 2113 
L 3513 0 
L 2938 0 
L 2938 2094 
Q 2938 2591 2744 2837 
Q 2550 3084 2163 3084 
Q 1697 3084 1428 2787 
Q 1159 2491 1159 1978 
L 1159 0 
L 581 0 
L 581 4863 
L 1159 4863 
L 1159 2956 
Q 1366 3272 1645 3428 
Q 1925 3584 2291 3584 
Q 2894 3584 3203 3211 
Q 3513 2838 3513 2113 
z
" transform="scale(0.015625)"/>
      </defs>
      <use xlink:href="#DejaVuSans-23"/>
      <use xlink:href="#DejaVuSans-20" x="83.789062"/>
      <use xlink:href="#DejaVuSans-49" x="115.576172"/>
      <use xlink:href="#DejaVuSans-6e" x="145.068359"/>
      <use xlink:href="#DejaVuSans-74" x="208.447266"/>
      <use xlink:href="#DejaVuSans-65" x="247.65625"/>
      <use xlink:href="#DejaVuSans-72" x="309.179688"/>
      <use xlink:href="#DejaVuSans-61" x="350.292969"/>
      <use xlink:href="#DejaVuSans-63" x="411.572266"/>
      <use xlink:href="#DejaVuSans-74" x="466.552734"/>
      <use xlink:href="#DejaVuSans-69" x="505.761719"/>
      <use xlink:href="#DejaVuSans-6e" x="533.544922"/>
      <use xlink:href="#DejaVuSans-67" x="596.923828"/>
      <use xlink:href="#DejaVuSans-20" x="660.400391"/>
      <use xlink:href="#DejaVuSans-61" x="692.1875"/>
      <use xlink:href="#DejaVuSans-75" x="753.466797"/>
      <use xlink:href="#DejaVuSans-74" x="816.845703"/>
      <use xlink:href="#DejaVuSans-68" x="856.054688"/>
      <use xlink:href="#DejaVuSans-6f" x="919.433594"/>
      <use xlink:href="#DejaVuSans-72" x="980.615234"/>
      <use xlink:href="#DejaVuSans-73" x="1021.728516"/>
     </g>
    </g>
   </g>
   <g id="patch_3">
    <path d="M 56.64375 386.44 
L 56.64375 72.212571 
" style="fill: none; stroke: #000000; stroke-width: 0.8; stroke-linejoin: miter; stroke-linecap: square"/>
   </g>
   <g id="patch_4">
    <path d="M 56.64375 386.44 
L 368.708607 386.44 
" style="fill: none; stroke: #000000; stroke-width: 0.8; stroke-linejoin: miter; stroke-linecap: square"/>
   </g>
  </g>
  <g id="axes_2">
   <g id="patch_5">
    <path d="M 56.64375 61.377143 
L 368.708607 61.377143 
L 368.708607 7.2 
L 56.64375 7.2 
z
" style="fill: #ffffff"/>
   </g>
   <g id="PolyCollection_1">
    <path d="M -60.790206 60.904171 
L -60.790206 61.377143 
L -58.0418 61.377143 
L -55.293394 61.377143 
L -52.544989 61.377143 
L -49.796583 61.377143 
L -47.048177 61.377143 
L -44.299771 61.377143 
L -41.551365 61.377143 
L -38.802959 61.377143 
L -36.054553 61.377143 
L -33.306147 61.377143 
L -30.557742 61.377143 
L -27.809336 61.377143 
L -25.06093 61.377143 
L -22.312524 61.377143 
L -19.564118 61.377143 
L -16.815712 61.377143 
L -14.067306 61.377143 
L -11.3189 61.377143 
L -8.570495 61.377143 
L -5.822089 61.377143 
L -3.073683 61.377143 
L -0.325277 61.377143 
L 2.423129 61.377143 
L 5.171535 61.377143 
L 7.919941 61.377143 
L 10.668347 61.377143 
L 13.416752 61.377143 
L 16.165158 61.377143 
L 18.913564 61.377143 
L 21.66197 61.377143 
L 24.410376 61.377143 
L 27.158782 61.377143 
L 29.907188 61.377143 
L 32.655594 61.377143 
L 35.403999 61.377143 
L 38.152405 61.377143 
L 40.900811 61.377143 
L 43.649217 61.377143 
L 46.397623 61.377143 
L 49.146029 61.377143 
L 51.894435 61.377143 
L 54.642841 61.377143 
L 57.391247 61.377143 
L 60.139652 61.377143 
L 62.888058 61.377143 
L 65.636464 61.377143 
L 68.38487 61.377143 
L 71.133276 61.377143 
L 73.881682 61.377143 
L 76.630088 61.377143 
L 79.378494 61.377143 
L 82.126899 61.377143 
L 84.875305 61.377143 
L 87.623711 61.377143 
L 90.372117 61.377143 
L 93.120523 61.377143 
L 95.868929 61.377143 
L 98.617335 61.377143 
L 101.365741 61.377143 
L 104.114146 61.377143 
L 106.862552 61.377143 
L 109.610958 61.377143 
L 112.359364 61.377143 
L 115.10777 61.377143 
L 117.856176 61.377143 
L 120.604582 61.377143 
L 123.352988 61.377143 
L 126.101393 61.377143 
L 128.849799 61.377143 
L 131.598205 61.377143 
L 134.346611 61.377143 
L 137.095017 61.377143 
L 139.843423 61.377143 
L 142.591829 61.377143 
L 145.340235 61.377143 
L 148.08864 61.377143 
L 150.837046 61.377143 
L 153.585452 61.377143 
L 156.333858 61.377143 
L 159.082264 61.377143 
L 161.83067 61.377143 
L 164.579076 61.377143 
L 167.327482 61.377143 
L 170.075887 61.377143 
L 172.824293 61.377143 
L 175.572699 61.377143 
L 178.321105 61.377143 
L 181.069511 61.377143 
L 183.817917 61.377143 
L 186.566323 61.377143 
L 189.314729 61.377143 
L 192.063134 61.377143 
L 194.81154 61.377143 
L 197.559946 61.377143 
L 200.308352 61.377143 
L 203.056758 61.377143 
L 205.805164 61.377143 
L 208.55357 61.377143 
L 211.301976 61.377143 
L 214.050382 61.377143 
L 216.798787 61.377143 
L 219.547193 61.377143 
L 222.295599 61.377143 
L 225.044005 61.377143 
L 227.792411 61.377143 
L 230.540817 61.377143 
L 233.289223 61.377143 
L 236.037629 61.377143 
L 238.786034 61.377143 
L 241.53444 61.377143 
L 244.282846 61.377143 
L 247.031252 61.377143 
L 249.779658 61.377143 
L 252.528064 61.377143 
L 255.27647 61.377143 
L 258.024876 61.377143 
L 260.773281 61.377143 
L 263.521687 61.377143 
L 266.270093 61.377143 
L 269.018499 61.377143 
L 271.766905 61.377143 
L 274.515311 61.377143 
L 277.263717 61.377143 
L 280.012123 61.377143 
L 282.760528 61.377143 
L 285.508934 61.377143 
L 288.25734 61.377143 
L 291.005746 61.377143 
L 293.754152 61.377143 
L 296.502558 61.377143 
L 299.250964 61.377143 
L 301.99937 61.377143 
L 304.747775 61.377143 
L 307.496181 61.377143 
L 310.244587 61.377143 
L 312.992993 61.377143 
L 315.741399 61.377143 
L 318.489805 61.377143 
L 321.238211 61.377143 
L 323.986617 61.377143 
L 326.735022 61.377143 
L 329.483428 61.377143 
L 332.231834 61.377143 
L 334.98024 61.377143 
L 337.728646 61.377143 
L 340.477052 61.377143 
L 343.225458 61.377143 
L 345.973864 61.377143 
L 348.722269 61.377143 
L 351.470675 61.377143 
L 354.219081 61.377143 
L 356.967487 61.377143 
L 359.715893 61.377143 
L 362.464299 61.377143 
L 365.212705 61.377143 
L 367.961111 61.377143 
L 370.709517 61.377143 
L 373.457922 61.377143 
L 376.206328 61.377143 
L 378.954734 61.377143 
L 381.70314 61.377143 
L 384.451546 61.377143 
L 387.199952 61.377143 
L 389.948358 61.377143 
L 392.696764 61.377143 
L 395.445169 61.377143 
L 398.193575 61.377143 
L 400.941981 61.377143 
L 403.690387 61.377143 
L 406.438793 61.377143 
L 409.187199 61.377143 
L 411.935605 61.377143 
L 414.684011 61.377143 
L 417.432416 61.377143 
L 420.180822 61.377143 
L 422.929228 61.377143 
L 425.677634 61.377143 
L 428.42604 61.377143 
L 431.174446 61.377143 
L 433.922852 61.377143 
L 436.671258 61.377143 
L 439.419663 61.377143 
L 442.168069 61.377143 
L 444.916475 61.377143 
L 447.664881 61.377143 
L 450.413287 61.377143 
L 453.161693 61.377143 
L 455.910099 61.377143 
L 458.658505 61.377143 
L 461.40691 61.377143 
L 464.155316 61.377143 
L 466.903722 61.377143 
L 469.652128 61.377143 
L 472.400534 61.377143 
L 475.14894 61.377143 
L 477.897346 61.377143 
L 480.645752 61.377143 
L 483.394157 61.377143 
L 486.142563 61.377143 
L 486.142563 61.329913 
L 486.142563 61.329913 
L 483.394157 61.32026 
L 480.645752 61.308902 
L 477.897346 61.295597 
L 475.14894 61.280079 
L 472.400534 61.262061 
L 469.652128 61.241233 
L 466.903722 61.217264 
L 464.155316 61.189804 
L 461.40691 61.158488 
L 458.658505 61.122936 
L 455.910099 61.082761 
L 453.161693 61.037572 
L 450.413287 60.986981 
L 447.664881 60.930609 
L 444.916475 60.868092 
L 442.168069 60.799097 
L 439.419663 60.72332 
L 436.671258 60.640507 
L 433.922852 60.550455 
L 431.174446 60.453028 
L 428.42604 60.348165 
L 425.677634 60.23589 
L 422.929228 60.116323 
L 420.180822 59.989684 
L 417.432416 59.856305 
L 414.684011 59.716633 
L 411.935605 59.571236 
L 409.187199 59.420799 
L 406.438793 59.266131 
L 403.690387 59.108157 
L 400.941981 58.947913 
L 398.193575 58.786538 
L 395.445169 58.625263 
L 392.696764 58.465397 
L 389.948358 58.30831 
L 387.199952 58.155417 
L 384.451546 58.008152 
L 381.70314 57.867952 
L 378.954734 57.736233 
L 376.206328 57.614363 
L 373.457922 57.503642 
L 370.709517 57.405276 
L 367.961111 57.320358 
L 365.212705 57.249845 
L 362.464299 57.194543 
L 359.715893 57.155088 
L 356.967487 57.131935 
L 354.219081 57.125349 
L 351.470675 57.1354 
L 348.722269 57.161959 
L 345.973864 57.204703 
L 343.225458 57.263119 
L 340.477052 57.336513 
L 337.728646 57.42402 
L 334.98024 57.524625 
L 332.231834 57.637175 
L 329.483428 57.760404 
L 326.735022 57.892947 
L 323.986617 58.033368 
L 321.238211 58.180178 
L 318.489805 58.331859 
L 315.741399 58.486884 
L 312.992993 58.643736 
L 310.244587 58.800926 
L 307.496181 58.957007 
L 304.747775 59.110591 
L 301.99937 59.260352 
L 299.250964 59.405042 
L 296.502558 59.54349 
L 293.754152 59.674606 
L 291.005746 59.797381 
L 288.25734 59.910883 
L 285.508934 60.014253 
L 282.760528 60.106698 
L 280.012123 60.187486 
L 277.263717 60.255932 
L 274.515311 60.311395 
L 271.766905 60.353264 
L 269.018499 60.380954 
L 266.270093 60.393895 
L 263.521687 60.391525 
L 260.773281 60.373287 
L 258.024876 60.338627 
L 255.27647 60.286984 
L 252.528064 60.217802 
L 249.779658 60.13052 
L 247.031252 60.024585 
L 244.282846 59.899449 
L 241.53444 59.754581 
L 238.786034 59.589471 
L 236.037629 59.40364 
L 233.289223 59.196641 
L 230.540817 58.968073 
L 227.792411 58.71758 
L 225.044005 58.44486 
L 222.295599 58.14966 
L 219.547193 57.831779 
L 216.798787 57.491059 
L 214.050382 57.12738 
L 211.301976 56.740645 
L 208.55357 56.330765 
L 205.805164 55.897639 
L 203.056758 55.441131 
L 200.308352 54.961046 
L 197.559946 54.4571 
L 194.81154 53.928895 
L 192.063134 53.37589 
L 189.314729 52.797377 
L 186.566323 52.192453 
L 183.817917 51.560013 
L 181.069511 50.898726 
L 178.321105 50.207044 
L 175.572699 49.483199 
L 172.824293 48.725226 
L 170.075887 47.930993 
L 167.327482 47.098236 
L 164.579076 46.224625 
L 161.83067 45.307822 
L 159.082264 44.345571 
L 156.333858 43.335784 
L 153.585452 42.276647 
L 150.837046 41.166729 
L 148.08864 40.005101 
L 145.340235 38.79145 
L 142.591829 37.5262 
L 139.843423 36.210622 
L 137.095017 34.846939 
L 134.346611 33.438416 
L 131.598205 31.989434 
L 128.849799 30.505544 
L 126.101393 28.993499 
L 123.352988 27.46125 
L 120.604582 25.91793 
L 117.856176 24.37379 
L 115.10777 22.840115 
L 112.359364 21.329102 
L 109.610958 19.853715 
L 106.862552 18.427509 
L 104.114146 17.064426 
L 101.365741 15.778575 
L 98.617335 14.583999 
L 95.868929 13.494419 
L 93.120523 12.522989 
L 90.372117 11.682046 
L 87.623711 10.98286 
L 84.875305 10.435416 
L 82.126899 10.0482 
L 79.378494 9.828022 
L 76.630088 9.779864 
L 73.881682 9.906765 
L 71.133276 10.209748 
L 68.38487 10.687779 
L 65.636464 11.337778 
L 62.888058 12.154661 
L 60.139652 13.131429 
L 57.391247 14.259294 
L 54.642841 15.527834 
L 51.894435 16.925183 
L 49.146029 18.438242 
L 46.397623 20.052914 
L 43.649217 21.754346 
L 40.900811 23.527182 
L 38.152405 25.355817 
L 35.403999 27.224644 
L 32.655594 29.118294 
L 29.907188 31.021853 
L 27.158782 32.921069 
L 24.410376 34.802531 
L 21.66197 36.653817 
L 18.913564 38.463626 
L 16.165158 40.221864 
L 13.416752 41.919722 
L 10.668347 43.549702 
L 7.919941 45.105637 
L 5.171535 46.582669 
L 2.423129 47.977214 
L -0.325277 49.286901 
L -3.073683 50.510499 
L -5.822089 51.647825 
L -8.570495 52.699646 
L -11.3189 53.667566 
L -14.067306 54.553924 
L -16.815712 55.36167 
L -19.564118 56.094261 
L -22.312524 56.75555 
L -25.06093 57.349682 
L -27.809336 57.881001 
L -30.557742 58.353964 
L -33.306147 58.773058 
L -36.054553 59.142736 
L -38.802959 59.467359 
L -41.551365 59.751141 
L -44.299771 59.99812 
L -47.048177 60.212118 
L -49.796583 60.396724 
L -52.544989 60.555278 
L -55.293394 60.690863 
L -58.0418 60.806305 
L -60.790206 60.904171 
z
" clip-path="url(#p6cb260b21f)" style="fill: #1f77b4; fill-opacity: 0.25; stroke: #1f77b4"/>
   </g>
   <g id="matplotlib.axis_3">
    <g id="xtick_5">
     <g id="line2d_11">
      <g>
       <use xlink:href="#m2e9373bd35" x="66.656526" y="61.377143" style="stroke: #000000; stroke-width: 0.8"/>
      </g>
     </g>
    </g>
    <g id="xtick_6">
     <g id="line2d_12">
      <g>
       <use xlink:href="#m2e9373bd35" x="150.096328" y="61.377143" style="stroke: #000000; stroke-width: 0.8"/>
      </g>
     </g>
    </g>
    <g id="xtick_7">
     <g id="line2d_13">
      <g>
       <use xlink:href="#m2e9373bd35" x="233.536129" y="61.377143" style="stroke: #000000; stroke-width: 0.8"/>
      </g>
     </g>
    </g>
    <g id="xtick_8">
     <g id="line2d_14">
      <g>
       <use xlink:href="#m2e9373bd35" x="316.97593" y="61.377143" style="stroke: #000000; stroke-width: 0.8"/>
      </g>
     </g>
    </g>
   </g>
   <g id="matplotlib.axis_4">
    <g id="ytick_7"/>
    <g id="ytick_8"/>
   </g>
   <g id="patch_6">
    <path d="M 56.64375 61.377143 
L 368.708607 61.377143 
" style="fill: none; stroke: #000000; stroke-width: 0.8; stroke-linejoin: miter; stroke-linecap: square"/>
   </g>
  </g>
  <g id="axes_3">
   <g id="patch_7">
    <path d="M 379.469464 386.44 
L 433.27375 386.44 
L 433.27375 72.212571 
L 379.469464 72.212571 
z
" style="fill: #ffffff"/>
   </g>
   <g id="PolyCollection_2">
    <path d="M 379.548192 510.142226 
L 379.469464 510.142226 
L 379.469464 507.319955 
L 379.469464 504.497684 
L 379.469464 501.675414 
L 379.469464 498.853143 
L 379.469464 496.030872 
L 379.469464 493.208601 
L 379.469464 490.386331 
L 379.469464 487.56406 
L 379.469464 484.741789 
L 379.469464 481.919518 
L 379.469464 479.097248 
L 379.469464 476.274977 
L 379.469464 473.452706 
L 379.469464 470.630435 
L 379.469464 467.808165 
L 379.469464 464.985894 
L 379.469464 462.163623 
L 379.469464 459.341352 
L 379.469464 456.519082 
L 379.469464 453.696811 
L 379.469464 450.87454 
L 379.469464 448.052269 
L 379.469464 445.229999 
L 379.469464 442.407728 
L 379.469464 439.585457 
L 379.469464 436.763186 
L 379.469464 433.940916 
L 379.469464 431.118645 
L 379.469464 428.296374 
L 379.469464 425.474103 
L 379.469464 422.651832 
L 379.469464 419.829562 
L 379.469464 417.007291 
L 379.469464 414.18502 
L 379.469464 411.362749 
L 379.469464 408.540479 
L 379.469464 405.718208 
L 379.469464 402.895937 
L 379.469464 400.073666 
L 379.469464 397.251396 
L 379.469464 394.429125 
L 379.469464 391.606854 
L 379.469464 388.784583 
L 379.469464 385.962313 
L 379.469464 383.140042 
L 379.469464 380.317771 
L 379.469464 377.4955 
L 379.469464 374.67323 
L 379.469464 371.850959 
L 379.469464 369.028688 
L 379.469464 366.206417 
L 379.469464 363.384147 
L 379.469464 360.561876 
L 379.469464 357.739605 
L 379.469464 354.917334 
L 379.469464 352.095064 
L 379.469464 349.272793 
L 379.469464 346.450522 
L 379.469464 343.628251 
L 379.469464 340.805981 
L 379.469464 337.98371 
L 379.469464 335.161439 
L 379.469464 332.339168 
L 379.469464 329.516898 
L 379.469464 326.694627 
L 379.469464 323.872356 
L 379.469464 321.050085 
L 379.469464 318.227815 
L 379.469464 315.405544 
L 379.469464 312.583273 
L 379.469464 309.761002 
L 379.469464 306.938731 
L 379.469464 304.116461 
L 379.469464 301.29419 
L 379.469464 298.471919 
L 379.469464 295.649648 
L 379.469464 292.827378 
L 379.469464 290.005107 
L 379.469464 287.182836 
L 379.469464 284.360565 
L 379.469464 281.538295 
L 379.469464 278.716024 
L 379.469464 275.893753 
L 379.469464 273.071482 
L 379.469464 270.249212 
L 379.469464 267.426941 
L 379.469464 264.60467 
L 379.469464 261.782399 
L 379.469464 258.960129 
L 379.469464 256.137858 
L 379.469464 253.315587 
L 379.469464 250.493316 
L 379.469464 247.671046 
L 379.469464 244.848775 
L 379.469464 242.026504 
L 379.469464 239.204233 
L 379.469464 236.381963 
L 379.469464 233.559692 
L 379.469464 230.737421 
L 379.469464 227.91515 
L 379.469464 225.09288 
L 379.469464 222.270609 
L 379.469464 219.448338 
L 379.469464 216.626067 
L 379.469464 213.803797 
L 379.469464 210.981526 
L 379.469464 208.159255 
L 379.469464 205.336984 
L 379.469464 202.514714 
L 379.469464 199.692443 
L 379.469464 196.870172 
L 379.469464 194.047901 
L 379.469464 191.225631 
L 379.469464 188.40336 
L 379.469464 185.581089 
L 379.469464 182.758818 
L 379.469464 179.936547 
L 379.469464 177.114277 
L 379.469464 174.292006 
L 379.469464 171.469735 
L 379.469464 168.647464 
L 379.469464 165.825194 
L 379.469464 163.002923 
L 379.469464 160.180652 
L 379.469464 157.358381 
L 379.469464 154.536111 
L 379.469464 151.71384 
L 379.469464 148.891569 
L 379.469464 146.069298 
L 379.469464 143.247028 
L 379.469464 140.424757 
L 379.469464 137.602486 
L 379.469464 134.780215 
L 379.469464 131.957945 
L 379.469464 129.135674 
L 379.469464 126.313403 
L 379.469464 123.491132 
L 379.469464 120.668862 
L 379.469464 117.846591 
L 379.469464 115.02432 
L 379.469464 112.202049 
L 379.469464 109.379779 
L 379.469464 106.557508 
L 379.469464 103.735237 
L 379.469464 100.912966 
L 379.469464 98.090696 
L 379.469464 95.268425 
L 379.469464 92.446154 
L 379.469464 89.623883 
L 379.469464 86.801613 
L 379.469464 83.979342 
L 379.469464 81.157071 
L 379.469464 78.3348 
L 379.469464 75.51253 
L 379.469464 72.690259 
L 379.469464 69.867988 
L 379.469464 67.045717 
L 379.469464 64.223447 
L 379.469464 61.401176 
L 379.469464 58.578905 
L 379.469464 55.756634 
L 379.469464 52.934363 
L 379.469464 50.112093 
L 379.469464 47.289822 
L 379.469464 44.467551 
L 379.469464 41.64528 
L 379.469464 38.82301 
L 379.469464 36.000739 
L 379.469464 33.178468 
L 379.469464 30.356197 
L 379.469464 27.533927 
L 379.469464 24.711656 
L 379.469464 21.889385 
L 379.469464 19.067114 
L 379.469464 16.244844 
L 379.469464 13.422573 
L 379.469464 10.600302 
L 379.469464 7.778031 
L 379.469464 4.955761 
L 379.469464 2.13349 
L 379.469464 -0.688781 
L 379.469464 -3.511052 
L 379.469464 -6.333322 
L 379.469464 -9.155593 
L 379.469464 -11.977864 
L 379.469464 -14.800135 
L 379.469464 -17.622405 
L 379.469464 -20.444676 
L 379.469464 -23.266947 
L 379.469464 -26.089218 
L 379.469464 -28.911488 
L 379.469464 -31.733759 
L 379.469464 -34.55603 
L 379.469464 -37.378301 
L 379.469464 -40.200571 
L 379.469464 -43.022842 
L 379.469464 -45.845113 
L 379.469464 -48.667384 
L 379.469464 -51.489654 
L 379.540133 -51.489654 
L 379.540133 -51.489654 
L 379.5544 -48.667384 
L 379.571174 -45.845113 
L 379.590817 -43.022842 
L 379.613727 -40.200571 
L 379.64034 -37.378301 
L 379.671129 -34.55603 
L 379.706608 -31.733759 
L 379.747323 -28.911488 
L 379.79386 -26.089218 
L 379.846834 -23.266947 
L 379.906891 -20.444676 
L 379.974702 -17.622405 
L 380.050955 -14.800135 
L 380.136352 -11.977864 
L 380.231597 -9.155593 
L 380.337394 -6.333322 
L 380.454427 -3.511052 
L 380.583359 -0.688781 
L 380.724816 2.13349 
L 380.879375 4.955761 
L 381.047553 7.778031 
L 381.229792 10.600302 
L 381.426451 13.422573 
L 381.63779 16.244844 
L 381.863961 19.067114 
L 382.104999 21.889385 
L 382.360811 24.711656 
L 382.631169 27.533927 
L 382.915706 30.356197 
L 383.213916 33.178468 
L 383.525148 36.000739 
L 383.848613 38.82301 
L 384.183388 41.64528 
L 384.528422 44.467551 
L 384.882552 47.289822 
L 385.244509 50.112093 
L 385.612944 52.934363 
L 385.986437 55.756634 
L 386.363527 58.578905 
L 386.742727 61.401176 
L 387.122556 64.223447 
L 387.501559 67.045717 
L 387.878335 69.867988 
L 388.251564 72.690259 
L 388.620031 75.51253 
L 388.982654 78.3348 
L 389.338502 81.157071 
L 389.686824 83.979342 
L 390.027062 86.801613 
L 390.358867 89.623883 
L 390.682117 92.446154 
L 390.996922 95.268425 
L 391.303632 98.090696 
L 391.602837 100.912966 
L 391.895364 103.735237 
L 392.182273 106.557508 
L 392.464842 109.379779 
L 392.744556 112.202049 
L 393.023084 115.02432 
L 393.30226 117.846591 
L 393.584055 120.668862 
L 393.87055 123.491132 
L 394.163903 126.313403 
L 394.466318 129.135674 
L 394.780013 131.957945 
L 395.107178 134.780215 
L 395.44995 137.602486 
L 395.810374 140.424757 
L 396.190371 143.247028 
L 396.591708 146.069298 
L 397.015973 148.891569 
L 397.464545 151.71384 
L 397.938581 154.536111 
L 398.438991 157.358381 
L 398.966434 160.180652 
L 399.521303 163.002923 
L 400.103727 165.825194 
L 400.713569 168.647464 
L 401.350436 171.469735 
L 402.013684 174.292006 
L 402.702438 177.114277 
L 403.415605 179.936547 
L 404.151896 182.758818 
L 404.909849 185.581089 
L 405.687849 188.40336 
L 406.48416 191.225631 
L 407.296944 194.047901 
L 408.124287 196.870172 
L 408.964224 199.692443 
L 409.814759 202.514714 
L 410.673883 205.336984 
L 411.539594 208.159255 
L 412.409907 210.981526 
L 413.282867 213.803797 
L 414.156554 216.626067 
L 415.029083 219.448338 
L 415.898609 222.270609 
L 416.76332 225.09288 
L 417.621428 227.91515 
L 418.47116 230.737421 
L 419.310746 233.559692 
L 420.138403 236.381963 
L 420.952318 239.204233 
L 421.750631 242.026504 
L 422.531416 244.848775 
L 423.292665 247.671046 
L 424.032269 250.493316 
L 424.748003 253.315587 
L 425.437515 256.137858 
L 426.098312 258.960129 
L 426.727759 261.782399 
L 427.323072 264.60467 
L 427.881324 267.426941 
L 428.399452 270.249212 
L 428.874269 273.071482 
L 429.302487 275.893753 
L 429.680739 278.716024 
L 430.005611 281.538295 
L 430.273682 284.360565 
L 430.481562 287.182836 
L 430.625939 290.005107 
L 430.703631 292.827378 
L 430.711641 295.649648 
L 430.647207 298.471919 
L 430.507863 301.29419 
L 430.291488 304.116461 
L 429.996364 306.938731 
L 429.621224 309.761002 
L 429.165295 312.583273 
L 428.628335 315.405544 
L 428.01067 318.227815 
L 427.31321 321.050085 
L 426.537468 323.872356 
L 425.685561 326.694627 
L 424.760204 329.516898 
L 423.7647 332.339168 
L 422.702904 335.161439 
L 421.579199 337.98371 
L 420.398443 340.805981 
L 419.165923 343.628251 
L 417.887293 346.450522 
L 416.568512 349.272793 
L 415.215774 352.095064 
L 413.835441 354.917334 
L 412.433964 357.739605 
L 411.017816 360.561876 
L 409.593422 363.384147 
L 408.167087 366.206417 
L 406.744938 369.028688 
L 405.332862 371.850959 
L 403.936452 374.67323 
L 402.560969 377.4955 
L 401.211292 380.317771 
L 399.891895 383.140042 
L 398.60682 385.962313 
L 397.359659 388.784583 
L 396.153545 391.606854 
L 394.99115 394.429125 
L 393.874687 397.251396 
L 392.805918 400.073666 
L 391.786169 402.895937 
L 390.816349 405.718208 
L 389.896969 408.540479 
L 389.028171 411.362749 
L 388.209751 414.18502 
L 387.441192 417.007291 
L 386.721691 419.829562 
L 386.050191 422.651832 
L 385.425411 425.474103 
L 384.84588 428.296374 
L 384.309962 431.118645 
L 383.815887 433.940916 
L 383.361779 436.763186 
L 382.945682 439.585457 
L 382.565583 442.407728 
L 382.219436 445.229999 
L 381.905182 448.052269 
L 381.620767 450.87454 
L 381.364162 453.696811 
L 381.133374 456.519082 
L 380.926461 459.341352 
L 380.741542 462.163623 
L 380.57681 464.985894 
L 380.430533 467.808165 
L 380.301066 470.630435 
L 380.186851 473.452706 
L 380.086423 476.274977 
L 379.998413 479.097248 
L 379.921541 481.919518 
L 379.854624 484.741789 
L 379.796571 487.56406 
L 379.746379 490.386331 
L 379.703133 493.208601 
L 379.666001 496.030872 
L 379.634229 498.853143 
L 379.607138 501.675414 
L 379.58412 504.497684 
L 379.564633 507.319955 
L 379.548192 510.142226 
z
" clip-path="url(#p5210986494)" style="fill: #1f77b4; fill-opacity: 0.25; stroke: #1f77b4"/>
   </g>
   <g id="matplotlib.axis_5">
    <g id="xtick_9"/>
    <g id="xtick_10"/>
   </g>
   <g id="matplotlib.axis_6">
    <g id="ytick_9">
     <g id="line2d_15">
      <g>
       <use xlink:href="#me2dd3d3535" x="379.469464" y="384.059489" style="stroke: #000000; stroke-width: 0.8"/>
      </g>
     </g>
    </g>
    <g id="ytick_10">
     <g id="line2d_16">
      <g>
       <use xlink:href="#me2dd3d3535" x="379.469464" y="324.546719" style="stroke: #000000; stroke-width: 0.8"/>
      </g>
     </g>
    </g>
    <g id="ytick_11">
     <g id="line2d_17">
      <g>
       <use xlink:href="#me2dd3d3535" x="379.469464" y="265.033948" style="stroke: #000000; stroke-width: 0.8"/>
      </g>
     </g>
    </g>
    <g id="ytick_12">
     <g id="line2d_18">
      <g>
       <use xlink:href="#me2dd3d3535" x="379.469464" y="205.521177" style="stroke: #000000; stroke-width: 0.8"/>
      </g>
     </g>
    </g>
    <g id="ytick_13">
     <g id="line2d_19">
      <g>
       <use xlink:href="#me2dd3d3535" x="379.469464" y="146.008407" style="stroke: #000000; stroke-width: 0.8"/>
      </g>
     </g>
    </g>
    <g id="ytick_14">
     <g id="line2d_20">
      <g>
       <use xlink:href="#me2dd3d3535" x="379.469464" y="86.495636" style="stroke: #000000; stroke-width: 0.8"/>
      </g>
     </g>
    </g>
   </g>
   <g id="patch_8">
    <path d="M 379.469464 386.44 
L 379.469464 72.212571 
" style="fill: none; stroke: #000000; stroke-width: 0.8; stroke-linejoin: miter; stroke-linecap: square"/>
   </g>
  </g>
 </g>
 <defs>
  <clipPath id="p71850ae240">
   <rect x="56.64375" y="72.212571" width="312.064857" height="314.227429"/>
  </clipPath>
  <clipPath id="p6cb260b21f">
   <rect x="56.64375" y="7.2" width="312.064857" height="54.177143"/>
  </clipPath>
  <clipPath id="p5210986494">
   <rect x="379.469464" y="72.212571" width="53.804286" height="314.227429"/>
  </clipPath>
 </defs>
</svg>
