<?xml version="1.0" encoding="utf-8" standalone="no"?>
<!DOCTYPE svg PUBLIC "-//W3C//DTD SVG 1.1//EN"
  "http://www.w3.org/Graphics/SVG/1.1/DTD/svg11.dtd">
<svg xmlns:xlink="http://www.w3.org/1999/xlink" width="445.312812pt" height="443.3525pt" viewBox="0 0 445.312812 443.3525" xmlns="http://www.w3.org/2000/svg" version="1.1">
 <metadata>
  <rdf:RDF xmlns:dc="http://purl.org/dc/elements/1.1/" xmlns:cc="http://creativecommons.org/ns#" xmlns:rdf="http://www.w3.org/1999/02/22-rdf-syntax-ns#">
   <cc:Work>
    <dc:type rdf:resource="http://purl.org/dc/dcmitype/StillImage"/>
    <dc:date>2022-12-09T16:27:26.182873</dc:date>
    <dc:format>image/svg+xml</dc:format>
    <dc:creator>
     <cc:Agent>
      <dc:title>Matplotlib v3.6.2, https://matplotlib.org/</dc:title>
     </cc:Agent>
    </dc:creator>
   </cc:Work>
  </rdf:RDF>
 </metadata>
 <defs>
  <style type="text/css">*{stroke-linejoin: round; stroke-linecap: butt}</style>
 </defs>
 <g id="figure_1">
  <g id="patch_1">
   <path d="M 0 443.3525 
L 445.312812 443.3525 
L 445.312812 0 
L 0 0 
z
" style="fill: #ffffff"/>
  </g>
  <g id="axes_1">
   <g id="patch_2">
    <path d="M 61.482813 386.44 
L 373.54767 386.44 
L 373.54767 72.212571 
L 61.482813 72.212571 
z
" style="fill: #ffffff"/>
   </g>
   <g id="PathCollection_1">
    <defs>
     <path id="m7e109d8400" d="M 0 5 
C 1.326016 5 2.597899 4.473168 3.535534 3.535534 
C 4.473168 2.597899 5 1.326016 5 0 
C 5 -1.326016 4.473168 -2.597899 3.535534 -3.535534 
C 2.597899 -4.473168 1.326016 -5 0 -5 
C -1.326016 -5 -2.597899 -4.473168 -3.535534 -3.535534 
C -4.473168 -2.597899 -5 -1.326016 -5 0 
C -5 1.326016 -4.473168 2.597899 -3.535534 3.535534 
C -2.597899 4.473168 -1.326016 5 0 5 
z
" style="stroke: #ffffff; stroke-opacity: 0.5; stroke-width: 0.8"/>
    </defs>
    <g clip-path="url(#p02a4902f8c)">
     <use xlink:href="#m7e109d8400" x="75.667579" y="303.598223" style="fill: #1f77b4; fill-opacity: 0.5; stroke: #ffffff; stroke-opacity: 0.5; stroke-width: 0.8"/>
     <use xlink:href="#m7e109d8400" x="75.667579" y="292.171771" style="fill: #1f77b4; fill-opacity: 0.5; stroke: #ffffff; stroke-opacity: 0.5; stroke-width: 0.8"/>
     <use xlink:href="#m7e109d8400" x="75.667579" y="303.598223" style="fill: #1f77b4; fill-opacity: 0.5; stroke: #ffffff; stroke-opacity: 0.5; stroke-width: 0.8"/>
     <use xlink:href="#m7e109d8400" x="107.633249" y="257.892416" style="fill: #1f77b4; fill-opacity: 0.5; stroke: #ffffff; stroke-opacity: 0.5; stroke-width: 0.8"/>
     <use xlink:href="#m7e109d8400" x="75.667579" y="372.156935" style="fill: #1f77b4; fill-opacity: 0.5; stroke: #ffffff; stroke-opacity: 0.5; stroke-width: 0.8"/>
     <use xlink:href="#m7e109d8400" x="159.577463" y="235.039512" style="fill: #1f77b4; fill-opacity: 0.5; stroke: #ffffff; stroke-opacity: 0.5; stroke-width: 0.8"/>
     <use xlink:href="#m7e109d8400" x="359.362903" y="86.495636" style="fill: #1f77b4; fill-opacity: 0.5; stroke: #ffffff; stroke-opacity: 0.5; stroke-width: 0.8"/>
     <use xlink:href="#m7e109d8400" x="95.646123" y="97.922088" style="fill: #1f77b4; fill-opacity: 0.5; stroke: #ffffff; stroke-opacity: 0.5; stroke-width: 0.8"/>
     <use xlink:href="#m7e109d8400" x="75.667579" y="303.598223" style="fill: #1f77b4; fill-opacity: 0.5; stroke: #ffffff; stroke-opacity: 0.5; stroke-width: 0.8"/>
     <use xlink:href="#m7e109d8400" x="75.667579" y="292.171771" style="fill: #1f77b4; fill-opacity: 0.5; stroke: #ffffff; stroke-opacity: 0.5; stroke-width: 0.8"/>
     <use xlink:href="#m7e109d8400" x="75.667579" y="303.598223" style="fill: #1f77b4; fill-opacity: 0.5; stroke: #ffffff; stroke-opacity: 0.5; stroke-width: 0.8"/>
     <use xlink:href="#m7e109d8400" x="79.663288" y="235.039512" style="fill: #1f77b4; fill-opacity: 0.5; stroke: #ffffff; stroke-opacity: 0.5; stroke-width: 0.8"/>
     <use xlink:href="#m7e109d8400" x="163.573172" y="143.627896" style="fill: #1f77b4; fill-opacity: 0.5; stroke: #ffffff; stroke-opacity: 0.5; stroke-width: 0.8"/>
     <use xlink:href="#m7e109d8400" x="75.667579" y="235.039512" style="fill: #1f77b4; fill-opacity: 0.5; stroke: #ffffff; stroke-opacity: 0.5; stroke-width: 0.8"/>
     <use xlink:href="#m7e109d8400" x="75.667579" y="360.730483" style="fill: #1f77b4; fill-opacity: 0.5; stroke: #ffffff; stroke-opacity: 0.5; stroke-width: 0.8"/>
     <use xlink:href="#m7e109d8400" x="75.667579" y="326.451127" style="fill: #1f77b4; fill-opacity: 0.5; stroke: #ffffff; stroke-opacity: 0.5; stroke-width: 0.8"/>
    </g>
   </g>
   <g id="matplotlib.axis_1">
    <g id="xtick_1">
     <g id="line2d_1">
      <defs>
       <path id="m68abf661ab" d="M 0 0 
L 0 3.5 
" style="stroke: #000000; stroke-width: 0.8"/>
      </defs>
      <g>
       <use xlink:href="#m68abf661ab" x="71.67187" y="386.44" style="stroke: #000000; stroke-width: 0.8"/>
      </g>
     </g>
     <g id="text_1">
      <!-- 0 -->
      <g transform="translate(66.899995 404.837656) scale(0.15 -0.15)">
       <defs>
        <path id="DejaVuSans-30" d="M 2034 4250 
Q 1547 4250 1301 3770 
Q 1056 3291 1056 2328 
Q 1056 1369 1301 889 
Q 1547 409 2034 409 
Q 2525 409 2770 889 
Q 3016 1369 3016 2328 
Q 3016 3291 2770 3770 
Q 2525 4250 2034 4250 
z
M 2034 4750 
Q 2819 4750 3233 4129 
Q 3647 3509 3647 2328 
Q 3647 1150 3233 529 
Q 2819 -91 2034 -91 
Q 1250 -91 836 529 
Q 422 1150 422 2328 
Q 422 3509 836 4129 
Q 1250 4750 2034 4750 
z
" transform="scale(0.015625)"/>
       </defs>
       <use xlink:href="#DejaVuSans-30"/>
      </g>
     </g>
    </g>
    <g id="xtick_2">
     <g id="line2d_2">
      <g>
       <use xlink:href="#m68abf661ab" x="151.586046" y="386.44" style="stroke: #000000; stroke-width: 0.8"/>
      </g>
     </g>
     <g id="text_2">
      <!-- 20 -->
      <g transform="translate(142.042296 404.837656) scale(0.15 -0.15)">
       <defs>
        <path id="DejaVuSans-32" d="M 1228 531 
L 3431 531 
L 3431 0 
L 469 0 
L 469 531 
Q 828 903 1448 1529 
Q 2069 2156 2228 2338 
Q 2531 2678 2651 2914 
Q 2772 3150 2772 3378 
Q 2772 3750 2511 3984 
Q 2250 4219 1831 4219 
Q 1534 4219 1204 4116 
Q 875 4013 500 3803 
L 500 4441 
Q 881 4594 1212 4672 
Q 1544 4750 1819 4750 
Q 2544 4750 2975 4387 
Q 3406 4025 3406 3419 
Q 3406 3131 3298 2873 
Q 3191 2616 2906 2266 
Q 2828 2175 2409 1742 
Q 1991 1309 1228 531 
z
" transform="scale(0.015625)"/>
       </defs>
       <use xlink:href="#DejaVuSans-32"/>
       <use xlink:href="#DejaVuSans-30" x="63.623047"/>
      </g>
     </g>
    </g>
    <g id="xtick_3">
     <g id="line2d_3">
      <g>
       <use xlink:href="#m68abf661ab" x="231.500222" y="386.44" style="stroke: #000000; stroke-width: 0.8"/>
      </g>
     </g>
     <g id="text_3">
      <!-- 40 -->
      <g transform="translate(221.956472 404.837656) scale(0.15 -0.15)">
       <defs>
        <path id="DejaVuSans-34" d="M 2419 4116 
L 825 1625 
L 2419 1625 
L 2419 4116 
z
M 2253 4666 
L 3047 4666 
L 3047 1625 
L 3713 1625 
L 3713 1100 
L 3047 1100 
L 3047 0 
L 2419 0 
L 2419 1100 
L 313 1100 
L 313 1709 
L 2253 4666 
z
" transform="scale(0.015625)"/>
       </defs>
       <use xlink:href="#DejaVuSans-34"/>
       <use xlink:href="#DejaVuSans-30" x="63.623047"/>
      </g>
     </g>
    </g>
    <g id="xtick_4">
     <g id="line2d_4">
      <g>
       <use xlink:href="#m68abf661ab" x="311.414398" y="386.44" style="stroke: #000000; stroke-width: 0.8"/>
      </g>
     </g>
     <g id="text_4">
      <!-- 60 -->
      <g transform="translate(301.870648 404.837656) scale(0.15 -0.15)">
       <defs>
        <path id="DejaVuSans-36" d="M 2113 2584 
Q 1688 2584 1439 2293 
Q 1191 2003 1191 1497 
Q 1191 994 1439 701 
Q 1688 409 2113 409 
Q 2538 409 2786 701 
Q 3034 994 3034 1497 
Q 3034 2003 2786 2293 
Q 2538 2584 2113 2584 
z
M 3366 4563 
L 3366 3988 
Q 3128 4100 2886 4159 
Q 2644 4219 2406 4219 
Q 1781 4219 1451 3797 
Q 1122 3375 1075 2522 
Q 1259 2794 1537 2939 
Q 1816 3084 2150 3084 
Q 2853 3084 3261 2657 
Q 3669 2231 3669 1497 
Q 3669 778 3244 343 
Q 2819 -91 2113 -91 
Q 1303 -91 875 529 
Q 447 1150 447 2328 
Q 447 3434 972 4092 
Q 1497 4750 2381 4750 
Q 2619 4750 2861 4703 
Q 3103 4656 3366 4563 
z
" transform="scale(0.015625)"/>
       </defs>
       <use xlink:href="#DejaVuSans-36"/>
       <use xlink:href="#DejaVuSans-30" x="63.623047"/>
      </g>
     </g>
    </g>
    <g id="text_5">
     <!-- # Commits -->
     <g transform="translate(147.454694 430.953281) scale(0.25 -0.25)">
      <defs>
       <path id="DejaVuSans-23" d="M 3272 2816 
L 2363 2816 
L 2100 1772 
L 3016 1772 
L 3272 2816 
z
M 2803 4594 
L 2478 3297 
L 3391 3297 
L 3719 4594 
L 4219 4594 
L 3897 3297 
L 4872 3297 
L 4872 2816 
L 3775 2816 
L 3519 1772 
L 4513 1772 
L 4513 1294 
L 3397 1294 
L 3072 0 
L 2572 0 
L 2894 1294 
L 1978 1294 
L 1656 0 
L 1153 0 
L 1478 1294 
L 494 1294 
L 494 1772 
L 1594 1772 
L 1856 2816 
L 850 2816 
L 850 3297 
L 1978 3297 
L 2297 4594 
L 2803 4594 
z
" transform="scale(0.015625)"/>
       <path id="DejaVuSans-20" transform="scale(0.015625)"/>
       <path id="DejaVuSans-43" d="M 4122 4306 
L 4122 3641 
Q 3803 3938 3442 4084 
Q 3081 4231 2675 4231 
Q 1875 4231 1450 3742 
Q 1025 3253 1025 2328 
Q 1025 1406 1450 917 
Q 1875 428 2675 428 
Q 3081 428 3442 575 
Q 3803 722 4122 1019 
L 4122 359 
Q 3791 134 3420 21 
Q 3050 -91 2638 -91 
Q 1578 -91 968 557 
Q 359 1206 359 2328 
Q 359 3453 968 4101 
Q 1578 4750 2638 4750 
Q 3056 4750 3426 4639 
Q 3797 4528 4122 4306 
z
" transform="scale(0.015625)"/>
       <path id="DejaVuSans-6f" d="M 1959 3097 
Q 1497 3097 1228 2736 
Q 959 2375 959 1747 
Q 959 1119 1226 758 
Q 1494 397 1959 397 
Q 2419 397 2687 759 
Q 2956 1122 2956 1747 
Q 2956 2369 2687 2733 
Q 2419 3097 1959 3097 
z
M 1959 3584 
Q 2709 3584 3137 3096 
Q 3566 2609 3566 1747 
Q 3566 888 3137 398 
Q 2709 -91 1959 -91 
Q 1206 -91 779 398 
Q 353 888 353 1747 
Q 353 2609 779 3096 
Q 1206 3584 1959 3584 
z
" transform="scale(0.015625)"/>
       <path id="DejaVuSans-6d" d="M 3328 2828 
Q 3544 3216 3844 3400 
Q 4144 3584 4550 3584 
Q 5097 3584 5394 3201 
Q 5691 2819 5691 2113 
L 5691 0 
L 5113 0 
L 5113 2094 
Q 5113 2597 4934 2840 
Q 4756 3084 4391 3084 
Q 3944 3084 3684 2787 
Q 3425 2491 3425 1978 
L 3425 0 
L 2847 0 
L 2847 2094 
Q 2847 2600 2669 2842 
Q 2491 3084 2119 3084 
Q 1678 3084 1418 2786 
Q 1159 2488 1159 1978 
L 1159 0 
L 581 0 
L 581 3500 
L 1159 3500 
L 1159 2956 
Q 1356 3278 1631 3431 
Q 1906 3584 2284 3584 
Q 2666 3584 2933 3390 
Q 3200 3197 3328 2828 
z
" transform="scale(0.015625)"/>
       <path id="DejaVuSans-69" d="M 603 3500 
L 1178 3500 
L 1178 0 
L 603 0 
L 603 3500 
z
M 603 4863 
L 1178 4863 
L 1178 4134 
L 603 4134 
L 603 4863 
z
" transform="scale(0.015625)"/>
       <path id="DejaVuSans-74" d="M 1172 4494 
L 1172 3500 
L 2356 3500 
L 2356 3053 
L 1172 3053 
L 1172 1153 
Q 1172 725 1289 603 
Q 1406 481 1766 481 
L 2356 481 
L 2356 0 
L 1766 0 
Q 1100 0 847 248 
Q 594 497 594 1153 
L 594 3053 
L 172 3053 
L 172 3500 
L 594 3500 
L 594 4494 
L 1172 4494 
z
" transform="scale(0.015625)"/>
       <path id="DejaVuSans-73" d="M 2834 3397 
L 2834 2853 
Q 2591 2978 2328 3040 
Q 2066 3103 1784 3103 
Q 1356 3103 1142 2972 
Q 928 2841 928 2578 
Q 928 2378 1081 2264 
Q 1234 2150 1697 2047 
L 1894 2003 
Q 2506 1872 2764 1633 
Q 3022 1394 3022 966 
Q 3022 478 2636 193 
Q 2250 -91 1575 -91 
Q 1294 -91 989 -36 
Q 684 19 347 128 
L 347 722 
Q 666 556 975 473 
Q 1284 391 1588 391 
Q 1994 391 2212 530 
Q 2431 669 2431 922 
Q 2431 1156 2273 1281 
Q 2116 1406 1581 1522 
L 1381 1569 
Q 847 1681 609 1914 
Q 372 2147 372 2553 
Q 372 3047 722 3315 
Q 1072 3584 1716 3584 
Q 2034 3584 2315 3537 
Q 2597 3491 2834 3397 
z
" transform="scale(0.015625)"/>
      </defs>
      <use xlink:href="#DejaVuSans-23"/>
      <use xlink:href="#DejaVuSans-20" x="83.789062"/>
      <use xlink:href="#DejaVuSans-43" x="115.576172"/>
      <use xlink:href="#DejaVuSans-6f" x="185.400391"/>
      <use xlink:href="#DejaVuSans-6d" x="246.582031"/>
      <use xlink:href="#DejaVuSans-6d" x="343.994141"/>
      <use xlink:href="#DejaVuSans-69" x="441.40625"/>
      <use xlink:href="#DejaVuSans-74" x="469.189453"/>
      <use xlink:href="#DejaVuSans-73" x="508.398438"/>
     </g>
    </g>
   </g>
   <g id="matplotlib.axis_2">
    <g id="ytick_1">
     <g id="line2d_5">
      <defs>
       <path id="m64f55f7092" d="M 0 0 
L -3.5 0 
" style="stroke: #000000; stroke-width: 0.8"/>
      </defs>
      <g>
       <use xlink:href="#m64f55f7092" x="61.482813" y="383.583387" style="stroke: #000000; stroke-width: 0.8"/>
      </g>
     </g>
     <g id="text_6">
      <!-- 0 -->
      <g transform="translate(44.939063 389.282215) scale(0.15 -0.15)">
       <use xlink:href="#DejaVuSans-30"/>
      </g>
     </g>
    </g>
    <g id="ytick_2">
     <g id="line2d_6">
      <g>
       <use xlink:href="#m64f55f7092" x="61.482813" y="326.451127" style="stroke: #000000; stroke-width: 0.8"/>
      </g>
     </g>
     <g id="text_7">
      <!-- 5 -->
      <g transform="translate(44.939063 332.149955) scale(0.15 -0.15)">
       <defs>
        <path id="DejaVuSans-35" d="M 691 4666 
L 3169 4666 
L 3169 4134 
L 1269 4134 
L 1269 2991 
Q 1406 3038 1543 3061 
Q 1681 3084 1819 3084 
Q 2600 3084 3056 2656 
Q 3513 2228 3513 1497 
Q 3513 744 3044 326 
Q 2575 -91 1722 -91 
Q 1428 -91 1123 -41 
Q 819 9 494 109 
L 494 744 
Q 775 591 1075 516 
Q 1375 441 1709 441 
Q 2250 441 2565 725 
Q 2881 1009 2881 1497 
Q 2881 1984 2565 2268 
Q 2250 2553 1709 2553 
Q 1456 2553 1204 2497 
Q 953 2441 691 2322 
L 691 4666 
z
" transform="scale(0.015625)"/>
       </defs>
       <use xlink:href="#DejaVuSans-35"/>
      </g>
     </g>
    </g>
    <g id="ytick_3">
     <g id="line2d_7">
      <g>
       <use xlink:href="#m64f55f7092" x="61.482813" y="269.318868" style="stroke: #000000; stroke-width: 0.8"/>
      </g>
     </g>
     <g id="text_8">
      <!-- 10 -->
      <g transform="translate(35.395313 275.017696) scale(0.15 -0.15)">
       <defs>
        <path id="DejaVuSans-31" d="M 794 531 
L 1825 531 
L 1825 4091 
L 703 3866 
L 703 4441 
L 1819 4666 
L 2450 4666 
L 2450 531 
L 3481 531 
L 3481 0 
L 794 0 
L 794 531 
z
" transform="scale(0.015625)"/>
       </defs>
       <use xlink:href="#DejaVuSans-31"/>
       <use xlink:href="#DejaVuSans-30" x="63.623047"/>
      </g>
     </g>
    </g>
    <g id="ytick_4">
     <g id="line2d_8">
      <g>
       <use xlink:href="#m64f55f7092" x="61.482813" y="212.186608" style="stroke: #000000; stroke-width: 0.8"/>
      </g>
     </g>
     <g id="text_9">
      <!-- 15 -->
      <g transform="translate(35.395313 217.885436) scale(0.15 -0.15)">
       <use xlink:href="#DejaVuSans-31"/>
       <use xlink:href="#DejaVuSans-35" x="63.623047"/>
      </g>
     </g>
    </g>
    <g id="ytick_5">
     <g id="line2d_9">
      <g>
       <use xlink:href="#m64f55f7092" x="61.482813" y="155.054348" style="stroke: #000000; stroke-width: 0.8"/>
      </g>
     </g>
     <g id="text_10">
      <!-- 20 -->
      <g transform="translate(35.395313 160.753176) scale(0.15 -0.15)">
       <use xlink:href="#DejaVuSans-32"/>
       <use xlink:href="#DejaVuSans-30" x="63.623047"/>
      </g>
     </g>
    </g>
    <g id="ytick_6">
     <g id="line2d_10">
      <g>
       <use xlink:href="#m64f55f7092" x="61.482813" y="97.922088" style="stroke: #000000; stroke-width: 0.8"/>
      </g>
     </g>
     <g id="text_11">
      <!-- 25 -->
      <g transform="translate(35.395313 103.620916) scale(0.15 -0.15)">
       <use xlink:href="#DejaVuSans-32"/>
       <use xlink:href="#DejaVuSans-35" x="63.623047"/>
      </g>
     </g>
    </g>
    <g id="text_12">
     <!-- # Interacting authors -->
     <g transform="translate(26.196094 363.552848) rotate(-90) scale(0.25 -0.25)">
      <defs>
       <path id="DejaVuSans-49" d="M 628 4666 
L 1259 4666 
L 1259 0 
L 628 0 
L 628 4666 
z
" transform="scale(0.015625)"/>
       <path id="DejaVuSans-6e" d="M 3513 2113 
L 3513 0 
L 2938 0 
L 2938 2094 
Q 2938 2591 2744 2837 
Q 2550 3084 2163 3084 
Q 1697 3084 1428 2787 
Q 1159 2491 1159 1978 
L 1159 0 
L 581 0 
L 581 3500 
L 1159 3500 
L 1159 2956 
Q 1366 3272 1645 3428 
Q 1925 3584 2291 3584 
Q 2894 3584 3203 3211 
Q 3513 2838 3513 2113 
z
" transform="scale(0.015625)"/>
       <path id="DejaVuSans-65" d="M 3597 1894 
L 3597 1613 
L 953 1613 
Q 991 1019 1311 708 
Q 1631 397 2203 397 
Q 2534 397 2845 478 
Q 3156 559 3463 722 
L 3463 178 
Q 3153 47 2828 -22 
Q 2503 -91 2169 -91 
Q 1331 -91 842 396 
Q 353 884 353 1716 
Q 353 2575 817 3079 
Q 1281 3584 2069 3584 
Q 2775 3584 3186 3129 
Q 3597 2675 3597 1894 
z
M 3022 2063 
Q 3016 2534 2758 2815 
Q 2500 3097 2075 3097 
Q 1594 3097 1305 2825 
Q 1016 2553 972 2059 
L 3022 2063 
z
" transform="scale(0.015625)"/>
       <path id="DejaVuSans-72" d="M 2631 2963 
Q 2534 3019 2420 3045 
Q 2306 3072 2169 3072 
Q 1681 3072 1420 2755 
Q 1159 2438 1159 1844 
L 1159 0 
L 581 0 
L 581 3500 
L 1159 3500 
L 1159 2956 
Q 1341 3275 1631 3429 
Q 1922 3584 2338 3584 
Q 2397 3584 2469 3576 
Q 2541 3569 2628 3553 
L 2631 2963 
z
" transform="scale(0.015625)"/>
       <path id="DejaVuSans-61" d="M 2194 1759 
Q 1497 1759 1228 1600 
Q 959 1441 959 1056 
Q 959 750 1161 570 
Q 1363 391 1709 391 
Q 2188 391 2477 730 
Q 2766 1069 2766 1631 
L 2766 1759 
L 2194 1759 
z
M 3341 1997 
L 3341 0 
L 2766 0 
L 2766 531 
Q 2569 213 2275 61 
Q 1981 -91 1556 -91 
Q 1019 -91 701 211 
Q 384 513 384 1019 
Q 384 1609 779 1909 
Q 1175 2209 1959 2209 
L 2766 2209 
L 2766 2266 
Q 2766 2663 2505 2880 
Q 2244 3097 1772 3097 
Q 1472 3097 1187 3025 
Q 903 2953 641 2809 
L 641 3341 
Q 956 3463 1253 3523 
Q 1550 3584 1831 3584 
Q 2591 3584 2966 3190 
Q 3341 2797 3341 1997 
z
" transform="scale(0.015625)"/>
       <path id="DejaVuSans-63" d="M 3122 3366 
L 3122 2828 
Q 2878 2963 2633 3030 
Q 2388 3097 2138 3097 
Q 1578 3097 1268 2742 
Q 959 2388 959 1747 
Q 959 1106 1268 751 
Q 1578 397 2138 397 
Q 2388 397 2633 464 
Q 2878 531 3122 666 
L 3122 134 
Q 2881 22 2623 -34 
Q 2366 -91 2075 -91 
Q 1284 -91 818 406 
Q 353 903 353 1747 
Q 353 2603 823 3093 
Q 1294 3584 2113 3584 
Q 2378 3584 2631 3529 
Q 2884 3475 3122 3366 
z
" transform="scale(0.015625)"/>
       <path id="DejaVuSans-67" d="M 2906 1791 
Q 2906 2416 2648 2759 
Q 2391 3103 1925 3103 
Q 1463 3103 1205 2759 
Q 947 2416 947 1791 
Q 947 1169 1205 825 
Q 1463 481 1925 481 
Q 2391 481 2648 825 
Q 2906 1169 2906 1791 
z
M 3481 434 
Q 3481 -459 3084 -895 
Q 2688 -1331 1869 -1331 
Q 1566 -1331 1297 -1286 
Q 1028 -1241 775 -1147 
L 775 -588 
Q 1028 -725 1275 -790 
Q 1522 -856 1778 -856 
Q 2344 -856 2625 -561 
Q 2906 -266 2906 331 
L 2906 616 
Q 2728 306 2450 153 
Q 2172 0 1784 0 
Q 1141 0 747 490 
Q 353 981 353 1791 
Q 353 2603 747 3093 
Q 1141 3584 1784 3584 
Q 2172 3584 2450 3431 
Q 2728 3278 2906 2969 
L 2906 3500 
L 3481 3500 
L 3481 434 
z
" transform="scale(0.015625)"/>
       <path id="DejaVuSans-75" d="M 544 1381 
L 544 3500 
L 1119 3500 
L 1119 1403 
Q 1119 906 1312 657 
Q 1506 409 1894 409 
Q 2359 409 2629 706 
Q 2900 1003 2900 1516 
L 2900 3500 
L 3475 3500 
L 3475 0 
L 2900 0 
L 2900 538 
Q 2691 219 2414 64 
Q 2138 -91 1772 -91 
Q 1169 -91 856 284 
Q 544 659 544 1381 
z
M 1991 3584 
L 1991 3584 
z
" transform="scale(0.015625)"/>
       <path id="DejaVuSans-68" d="M 3513 2113 
L 3513 0 
L 2938 0 
L 2938 2094 
Q 2938 2591 2744 2837 
Q 2550 3084 2163 3084 
Q 1697 3084 1428 2787 
Q 1159 2491 1159 1978 
L 1159 0 
L 581 0 
L 581 4863 
L 1159 4863 
L 1159 2956 
Q 1366 3272 1645 3428 
Q 1925 3584 2291 3584 
Q 2894 3584 3203 3211 
Q 3513 2838 3513 2113 
z
" transform="scale(0.015625)"/>
      </defs>
      <use xlink:href="#DejaVuSans-23"/>
      <use xlink:href="#DejaVuSans-20" x="83.789062"/>
      <use xlink:href="#DejaVuSans-49" x="115.576172"/>
      <use xlink:href="#DejaVuSans-6e" x="145.068359"/>
      <use xlink:href="#DejaVuSans-74" x="208.447266"/>
      <use xlink:href="#DejaVuSans-65" x="247.65625"/>
      <use xlink:href="#DejaVuSans-72" x="309.179688"/>
      <use xlink:href="#DejaVuSans-61" x="350.292969"/>
      <use xlink:href="#DejaVuSans-63" x="411.572266"/>
      <use xlink:href="#DejaVuSans-74" x="466.552734"/>
      <use xlink:href="#DejaVuSans-69" x="505.761719"/>
      <use xlink:href="#DejaVuSans-6e" x="533.544922"/>
      <use xlink:href="#DejaVuSans-67" x="596.923828"/>
      <use xlink:href="#DejaVuSans-20" x="660.400391"/>
      <use xlink:href="#DejaVuSans-61" x="692.1875"/>
      <use xlink:href="#DejaVuSans-75" x="753.466797"/>
      <use xlink:href="#DejaVuSans-74" x="816.845703"/>
      <use xlink:href="#DejaVuSans-68" x="856.054688"/>
      <use xlink:href="#DejaVuSans-6f" x="919.433594"/>
      <use xlink:href="#DejaVuSans-72" x="980.615234"/>
      <use xlink:href="#DejaVuSans-73" x="1021.728516"/>
     </g>
    </g>
   </g>
   <g id="patch_3">
    <path d="M 61.482813 386.44 
L 61.482813 72.212571 
" style="fill: none; stroke: #000000; stroke-width: 0.8; stroke-linejoin: miter; stroke-linecap: square"/>
   </g>
   <g id="patch_4">
    <path d="M 61.482813 386.44 
L 373.54767 386.44 
" style="fill: none; stroke: #000000; stroke-width: 0.8; stroke-linejoin: miter; stroke-linecap: square"/>
   </g>
  </g>
  <g id="axes_2">
   <g id="patch_5">
    <path d="M 61.482813 61.377143 
L 373.54767 61.377143 
L 373.54767 7.2 
L 61.482813 7.2 
z
" style="fill: #ffffff"/>
   </g>
   <g id="PolyCollection_1">
    <path d="M -50.432621 60.890333 
L -50.432621 61.377143 
L -47.739678 61.377143 
L -45.046734 61.377143 
L -42.353791 61.377143 
L -39.660848 61.377143 
L -36.967904 61.377143 
L -34.274961 61.377143 
L -31.582018 61.377143 
L -28.889074 61.377143 
L -26.196131 61.377143 
L -23.503188 61.377143 
L -20.810244 61.377143 
L -18.117301 61.377143 
L -15.424358 61.377143 
L -12.731414 61.377143 
L -10.038471 61.377143 
L -7.345528 61.377143 
L -4.652584 61.377143 
L -1.959641 61.377143 
L 0.733302 61.377143 
L 3.426246 61.377143 
L 6.119189 61.377143 
L 8.812132 61.377143 
L 11.505076 61.377143 
L 14.198019 61.377143 
L 16.890962 61.377143 
L 19.583906 61.377143 
L 22.276849 61.377143 
L 24.969792 61.377143 
L 27.662736 61.377143 
L 30.355679 61.377143 
L 33.048622 61.377143 
L 35.741566 61.377143 
L 38.434509 61.377143 
L 41.127452 61.377143 
L 43.820396 61.377143 
L 46.513339 61.377143 
L 49.206282 61.377143 
L 51.899226 61.377143 
L 54.592169 61.377143 
L 57.285112 61.377143 
L 59.978056 61.377143 
L 62.670999 61.377143 
L 65.363942 61.377143 
L 68.056886 61.377143 
L 70.749829 61.377143 
L 73.442772 61.377143 
L 76.135716 61.377143 
L 78.828659 61.377143 
L 81.521602 61.377143 
L 84.214546 61.377143 
L 86.907489 61.377143 
L 89.600432 61.377143 
L 92.293376 61.377143 
L 94.986319 61.377143 
L 97.679263 61.377143 
L 100.372206 61.377143 
L 103.065149 61.377143 
L 105.758093 61.377143 
L 108.451036 61.377143 
L 111.143979 61.377143 
L 113.836923 61.377143 
L 116.529866 61.377143 
L 119.222809 61.377143 
L 121.915753 61.377143 
L 124.608696 61.377143 
L 127.301639 61.377143 
L 129.994583 61.377143 
L 132.687526 61.377143 
L 135.380469 61.377143 
L 138.073413 61.377143 
L 140.766356 61.377143 
L 143.459299 61.377143 
L 146.152243 61.377143 
L 148.845186 61.377143 
L 151.538129 61.377143 
L 154.231073 61.377143 
L 156.924016 61.377143 
L 159.616959 61.377143 
L 162.309903 61.377143 
L 165.002846 61.377143 
L 167.695789 61.377143 
L 170.388733 61.377143 
L 173.081676 61.377143 
L 175.774619 61.377143 
L 178.467563 61.377143 
L 181.160506 61.377143 
L 183.853449 61.377143 
L 186.546393 61.377143 
L 189.239336 61.377143 
L 191.932279 61.377143 
L 194.625223 61.377143 
L 197.318166 61.377143 
L 200.011109 61.377143 
L 202.704053 61.377143 
L 205.396996 61.377143 
L 208.089939 61.377143 
L 210.782883 61.377143 
L 213.475826 61.377143 
L 216.168769 61.377143 
L 218.861713 61.377143 
L 221.554656 61.377143 
L 224.247599 61.377143 
L 226.940543 61.377143 
L 229.633486 61.377143 
L 232.326429 61.377143 
L 235.019373 61.377143 
L 237.712316 61.377143 
L 240.405259 61.377143 
L 243.098203 61.377143 
L 245.791146 61.377143 
L 248.484089 61.377143 
L 251.177033 61.377143 
L 253.869976 61.377143 
L 256.562919 61.377143 
L 259.255863 61.377143 
L 261.948806 61.377143 
L 264.641749 61.377143 
L 267.334693 61.377143 
L 270.027636 61.377143 
L 272.72058 61.377143 
L 275.413523 61.377143 
L 278.106466 61.377143 
L 280.79941 61.377143 
L 283.492353 61.377143 
L 286.185296 61.377143 
L 288.87824 61.377143 
L 291.571183 61.377143 
L 294.264126 61.377143 
L 296.95707 61.377143 
L 299.650013 61.377143 
L 302.342956 61.377143 
L 305.0359 61.377143 
L 307.728843 61.377143 
L 310.421786 61.377143 
L 313.11473 61.377143 
L 315.807673 61.377143 
L 318.500616 61.377143 
L 321.19356 61.377143 
L 323.886503 61.377143 
L 326.579446 61.377143 
L 329.27239 61.377143 
L 331.965333 61.377143 
L 334.658276 61.377143 
L 337.35122 61.377143 
L 340.044163 61.377143 
L 342.737106 61.377143 
L 345.43005 61.377143 
L 348.122993 61.377143 
L 350.815936 61.377143 
L 353.50888 61.377143 
L 356.201823 61.377143 
L 358.894766 61.377143 
L 361.58771 61.377143 
L 364.280653 61.377143 
L 366.973596 61.377143 
L 369.66654 61.377143 
L 372.359483 61.377143 
L 375.052426 61.377143 
L 377.74537 61.377143 
L 380.438313 61.377143 
L 383.131256 61.377143 
L 385.8242 61.377143 
L 388.517143 61.377143 
L 391.210086 61.377143 
L 393.90303 61.377143 
L 396.595973 61.377143 
L 399.288916 61.377143 
L 401.98186 61.377143 
L 404.674803 61.377143 
L 407.367746 61.377143 
L 410.06069 61.377143 
L 412.753633 61.377143 
L 415.446576 61.377143 
L 418.13952 61.377143 
L 420.832463 61.377143 
L 423.525406 61.377143 
L 426.21835 61.377143 
L 428.911293 61.377143 
L 431.604236 61.377143 
L 434.29718 61.377143 
L 436.990123 61.377143 
L 439.683066 61.377143 
L 442.37601 61.377143 
L 445.068953 61.377143 
L 447.761897 61.377143 
L 450.45484 61.377143 
L 453.147783 61.377143 
L 455.840727 61.377143 
L 458.53367 61.377143 
L 461.226613 61.377143 
L 463.919557 61.377143 
L 466.6125 61.377143 
L 469.305443 61.377143 
L 471.998387 61.377143 
L 474.69133 61.377143 
L 477.384273 61.377143 
L 480.077217 61.377143 
L 482.77016 61.377143 
L 485.463103 61.377143 
L 485.463103 61.333048 
L 485.463103 61.333048 
L 482.77016 61.323814 
L 480.077217 61.312909 
L 477.384273 61.300092 
L 474.69133 61.285096 
L 471.998387 61.267632 
L 469.305443 61.247387 
L 466.6125 61.22403 
L 463.919557 61.197209 
L 461.226613 61.166555 
L 458.53367 61.131689 
L 455.840727 61.092222 
L 453.147783 61.047764 
L 450.45484 60.997928 
L 447.761897 60.942341 
L 445.068953 60.880647 
L 442.37601 60.812521 
L 439.683066 60.737679 
L 436.990123 60.655882 
L 434.29718 60.566954 
L 431.604236 60.47079 
L 428.911293 60.367364 
L 426.21835 60.256746 
L 423.525406 60.139101 
L 420.832463 60.014706 
L 418.13952 59.883955 
L 415.446576 59.747358 
L 412.753633 59.605553 
L 410.06069 59.459297 
L 407.367746 59.309471 
L 404.674803 59.157071 
L 401.98186 59.003203 
L 399.288916 58.849068 
L 396.595973 58.695953 
L 393.90303 58.545212 
L 391.210086 58.398248 
L 388.517143 58.256493 
L 385.8242 58.121382 
L 383.131256 57.994334 
L 380.438313 57.876725 
L 377.74537 57.769863 
L 375.052426 57.674965 
L 372.359483 57.593131 
L 369.66654 57.525328 
L 366.973596 57.472368 
L 364.280653 57.434888 
L 361.58771 57.413345 
L 358.894766 57.408 
L 356.201823 57.418916 
L 353.50888 57.445955 
L 350.815936 57.48878 
L 348.122993 57.546863 
L 345.43005 57.619495 
L 342.737106 57.705799 
L 340.044163 57.804747 
L 337.35122 57.91518 
L 334.658276 58.035828 
L 331.965333 58.165332 
L 329.27239 58.302273 
L 326.579446 58.445187 
L 323.886503 58.592594 
L 321.19356 58.74302 
L 318.500616 58.895013 
L 315.807673 59.047167 
L 313.11473 59.198134 
L 310.421786 59.346636 
L 307.728843 59.491482 
L 305.0359 59.631566 
L 302.342956 59.765878 
L 299.650013 59.893501 
L 296.95707 60.013612 
L 294.264126 60.125475 
L 291.571183 60.228435 
L 288.87824 60.32191 
L 286.185296 60.40538 
L 283.492353 60.478377 
L 280.79941 60.540471 
L 278.106466 60.59126 
L 275.413523 60.630356 
L 272.72058 60.657375 
L 270.027636 60.671927 
L 267.334693 60.673607 
L 264.641749 60.661988 
L 261.948806 60.636614 
L 259.255863 60.597002 
L 256.562919 60.542635 
L 253.869976 60.472969 
L 251.177033 60.387432 
L 248.484089 60.285433 
L 245.791146 60.166367 
L 243.098203 60.029624 
L 240.405259 59.8746 
L 237.712316 59.700706 
L 235.019373 59.507378 
L 232.326429 59.294086 
L 229.633486 59.060345 
L 226.940543 58.805717 
L 224.247599 58.529818 
L 221.554656 58.232318 
L 218.861713 57.912938 
L 216.168769 57.571446 
L 213.475826 57.20764 
L 210.782883 56.821341 
L 208.089939 56.412369 
L 205.396996 55.980519 
L 202.704053 55.52554 
L 200.011109 55.047101 
L 197.318166 54.544764 
L 194.625223 54.017951 
L 191.932279 53.465916 
L 189.239336 52.887719 
L 186.546393 52.2822 
L 183.853449 51.647966 
L 181.160506 50.98338 
L 178.467563 50.286564 
L 175.774619 49.555413 
L 173.081676 48.787614 
L 170.388733 47.980693 
L 167.695789 47.132062 
L 165.002846 46.239091 
L 162.309903 45.299185 
L 159.616959 44.309885 
L 156.924016 43.268972 
L 154.231073 42.174586 
L 151.538129 41.02535 
L 148.845186 39.820497 
L 146.152243 38.560003 
L 143.459299 37.244713 
L 140.766356 35.876455 
L 138.073413 34.458149 
L 135.380469 32.993896 
L 132.687526 31.489045 
L 129.994583 29.950238 
L 127.301639 28.385424 
L 124.608696 26.803843 
L 121.915753 25.215976 
L 119.222809 23.63346 
L 116.529866 22.068971 
L 113.836923 20.536074 
L 111.143979 19.049033 
L 108.451036 17.622605 
L 105.758093 16.271801 
L 103.065149 15.011629 
L 100.372206 13.856827 
L 97.679263 12.82159 
L 94.986319 11.919285 
L 92.293376 11.162195 
L 89.600432 10.561255 
L 86.907489 10.125825 
L 84.214546 9.863485 
L 81.521602 9.779864 
L 78.828659 9.878506 
L 76.135716 10.160783 
L 73.442772 10.625849 
L 70.749829 11.270639 
L 68.056886 12.08992 
L 65.363942 13.07638 
L 62.670999 14.220763 
L 59.978056 15.512043 
L 57.285112 16.937628 
L 54.592169 18.483593 
L 51.899226 20.134939 
L 49.206282 21.875859 
L 46.513339 23.690021 
L 43.820396 25.560838 
L 41.127452 27.47175 
L 38.434509 29.406478 
L 35.741566 31.34927 
L 33.048622 33.285118 
L 30.355679 35.199953 
L 27.662736 37.080808 
L 24.969792 38.915949 
L 22.276849 40.694975 
L 19.583906 42.408881 
L 16.890962 44.050096 
L 14.198019 45.612482 
L 11.505076 47.091314 
L 8.812132 48.483227 
L 6.119189 49.786145 
L 3.426246 50.999194 
L 0.733302 52.122595 
L -1.959641 53.157551 
L -4.652584 54.106127 
L -7.345528 54.971122 
L -10.038471 55.755948 
L -12.731414 56.464505 
L -15.424358 57.101067 
L -18.117301 57.670169 
L -20.810244 58.176509 
L -23.503188 58.624855 
L -26.196131 59.019966 
L -28.889074 59.366523 
L -31.582018 59.66907 
L -34.274961 59.931968 
L -36.967904 60.159354 
L -39.660848 60.355123 
L -42.353791 60.522898 
L -45.046734 60.666026 
L -47.739678 60.787576 
L -50.432621 60.890333 
z
" clip-path="url(#p22b3a062e3)" style="fill: #1f77b4; fill-opacity: 0.25; stroke: #1f77b4"/>
   </g>
   <g id="matplotlib.axis_3">
    <g id="xtick_5">
     <g id="line2d_11">
      <g>
       <use xlink:href="#m68abf661ab" x="71.67187" y="61.377143" style="stroke: #000000; stroke-width: 0.8"/>
      </g>
     </g>
    </g>
    <g id="xtick_6">
     <g id="line2d_12">
      <g>
       <use xlink:href="#m68abf661ab" x="151.586046" y="61.377143" style="stroke: #000000; stroke-width: 0.8"/>
      </g>
     </g>
    </g>
    <g id="xtick_7">
     <g id="line2d_13">
      <g>
       <use xlink:href="#m68abf661ab" x="231.500222" y="61.377143" style="stroke: #000000; stroke-width: 0.8"/>
      </g>
     </g>
    </g>
    <g id="xtick_8">
     <g id="line2d_14">
      <g>
       <use xlink:href="#m68abf661ab" x="311.414398" y="61.377143" style="stroke: #000000; stroke-width: 0.8"/>
      </g>
     </g>
    </g>
   </g>
   <g id="matplotlib.axis_4">
    <g id="ytick_7"/>
    <g id="ytick_8"/>
   </g>
   <g id="patch_6">
    <path d="M 61.482813 61.377143 
L 373.54767 61.377143 
" style="fill: none; stroke: #000000; stroke-width: 0.8; stroke-linejoin: miter; stroke-linecap: square"/>
   </g>
  </g>
  <g id="axes_3">
   <g id="patch_7">
    <path d="M 384.308527 386.44 
L 438.112812 386.44 
L 438.112812 72.212571 
L 384.308527 72.212571 
z
" style="fill: #ffffff"/>
   </g>
   <g id="PolyCollection_2">
    <path d="M 384.400144 518.76553 
L 384.308527 518.76553 
L 384.308527 515.856593 
L 384.308527 512.947656 
L 384.308527 510.038718 
L 384.308527 507.129781 
L 384.308527 504.220844 
L 384.308527 501.311907 
L 384.308527 498.40297 
L 384.308527 495.494033 
L 384.308527 492.585096 
L 384.308527 489.676159 
L 384.308527 486.767221 
L 384.308527 483.858284 
L 384.308527 480.949347 
L 384.308527 478.04041 
L 384.308527 475.131473 
L 384.308527 472.222536 
L 384.308527 469.313599 
L 384.308527 466.404662 
L 384.308527 463.495724 
L 384.308527 460.586787 
L 384.308527 457.67785 
L 384.308527 454.768913 
L 384.308527 451.859976 
L 384.308527 448.951039 
L 384.308527 446.042102 
L 384.308527 443.133165 
L 384.308527 440.224227 
L 384.308527 437.31529 
L 384.308527 434.406353 
L 384.308527 431.497416 
L 384.308527 428.588479 
L 384.308527 425.679542 
L 384.308527 422.770605 
L 384.308527 419.861668 
L 384.308527 416.95273 
L 384.308527 414.043793 
L 384.308527 411.134856 
L 384.308527 408.225919 
L 384.308527 405.316982 
L 384.308527 402.408045 
L 384.308527 399.499108 
L 384.308527 396.59017 
L 384.308527 393.681233 
L 384.308527 390.772296 
L 384.308527 387.863359 
L 384.308527 384.954422 
L 384.308527 382.045485 
L 384.308527 379.136548 
L 384.308527 376.227611 
L 384.308527 373.318673 
L 384.308527 370.409736 
L 384.308527 367.500799 
L 384.308527 364.591862 
L 384.308527 361.682925 
L 384.308527 358.773988 
L 384.308527 355.865051 
L 384.308527 352.956114 
L 384.308527 350.047176 
L 384.308527 347.138239 
L 384.308527 344.229302 
L 384.308527 341.320365 
L 384.308527 338.411428 
L 384.308527 335.502491 
L 384.308527 332.593554 
L 384.308527 329.684617 
L 384.308527 326.775679 
L 384.308527 323.866742 
L 384.308527 320.957805 
L 384.308527 318.048868 
L 384.308527 315.139931 
L 384.308527 312.230994 
L 384.308527 309.322057 
L 384.308527 306.41312 
L 384.308527 303.504182 
L 384.308527 300.595245 
L 384.308527 297.686308 
L 384.308527 294.777371 
L 384.308527 291.868434 
L 384.308527 288.959497 
L 384.308527 286.05056 
L 384.308527 283.141623 
L 384.308527 280.232685 
L 384.308527 277.323748 
L 384.308527 274.414811 
L 384.308527 271.505874 
L 384.308527 268.596937 
L 384.308527 265.688 
L 384.308527 262.779063 
L 384.308527 259.870126 
L 384.308527 256.961188 
L 384.308527 254.052251 
L 384.308527 251.143314 
L 384.308527 248.234377 
L 384.308527 245.32544 
L 384.308527 242.416503 
L 384.308527 239.507566 
L 384.308527 236.598629 
L 384.308527 233.689691 
L 384.308527 230.780754 
L 384.308527 227.871817 
L 384.308527 224.96288 
L 384.308527 222.053943 
L 384.308527 219.145006 
L 384.308527 216.236069 
L 384.308527 213.327132 
L 384.308527 210.418194 
L 384.308527 207.509257 
L 384.308527 204.60032 
L 384.308527 201.691383 
L 384.308527 198.782446 
L 384.308527 195.873509 
L 384.308527 192.964572 
L 384.308527 190.055635 
L 384.308527 187.146697 
L 384.308527 184.23776 
L 384.308527 181.328823 
L 384.308527 178.419886 
L 384.308527 175.510949 
L 384.308527 172.602012 
L 384.308527 169.693075 
L 384.308527 166.784137 
L 384.308527 163.8752 
L 384.308527 160.966263 
L 384.308527 158.057326 
L 384.308527 155.148389 
L 384.308527 152.239452 
L 384.308527 149.330515 
L 384.308527 146.421578 
L 384.308527 143.51264 
L 384.308527 140.603703 
L 384.308527 137.694766 
L 384.308527 134.785829 
L 384.308527 131.876892 
L 384.308527 128.967955 
L 384.308527 126.059018 
L 384.308527 123.150081 
L 384.308527 120.241143 
L 384.308527 117.332206 
L 384.308527 114.423269 
L 384.308527 111.514332 
L 384.308527 108.605395 
L 384.308527 105.696458 
L 384.308527 102.787521 
L 384.308527 99.878584 
L 384.308527 96.969646 
L 384.308527 94.060709 
L 384.308527 91.151772 
L 384.308527 88.242835 
L 384.308527 85.333898 
L 384.308527 82.424961 
L 384.308527 79.516024 
L 384.308527 76.607087 
L 384.308527 73.698149 
L 384.308527 70.789212 
L 384.308527 67.880275 
L 384.308527 64.971338 
L 384.308527 62.062401 
L 384.308527 59.153464 
L 384.308527 56.244527 
L 384.308527 53.33559 
L 384.308527 50.426652 
L 384.308527 47.517715 
L 384.308527 44.608778 
L 384.308527 41.699841 
L 384.308527 38.790904 
L 384.308527 35.881967 
L 384.308527 32.97303 
L 384.308527 30.064093 
L 384.308527 27.155155 
L 384.308527 24.246218 
L 384.308527 21.337281 
L 384.308527 18.428344 
L 384.308527 15.519407 
L 384.308527 12.61047 
L 384.308527 9.701533 
L 384.308527 6.792596 
L 384.308527 3.883658 
L 384.308527 0.974721 
L 384.308527 -1.934216 
L 384.308527 -4.843153 
L 384.308527 -7.75209 
L 384.308527 -10.661027 
L 384.308527 -13.569964 
L 384.308527 -16.478901 
L 384.308527 -19.387839 
L 384.308527 -22.296776 
L 384.308527 -25.205713 
L 384.308527 -28.11465 
L 384.308527 -31.023587 
L 384.308527 -33.932524 
L 384.308527 -36.841461 
L 384.308527 -39.750399 
L 384.308527 -42.659336 
L 384.308527 -45.568273 
L 384.308527 -48.47721 
L 384.308527 -51.386147 
L 384.308527 -54.295084 
L 384.308527 -57.204021 
L 384.308527 -60.112958 
L 384.39718 -60.112958 
L 384.39718 -60.112958 
L 384.41488 -57.204021 
L 384.435674 -54.295084 
L 384.460009 -51.386147 
L 384.488381 -48.47721 
L 384.521331 -45.568273 
L 384.559453 -42.659336 
L 384.603389 -39.750399 
L 384.65383 -36.841461 
L 384.711514 -33.932524 
L 384.777227 -31.023587 
L 384.851794 -28.11465 
L 384.936076 -25.205713 
L 385.030967 -22.296776 
L 385.137379 -19.387839 
L 385.256238 -16.478901 
L 385.388473 -13.569964 
L 385.534999 -10.661027 
L 385.696709 -7.75209 
L 385.874453 -4.843153 
L 386.069026 -1.934216 
L 386.281147 0.974721 
L 386.511445 3.883658 
L 386.760437 6.792596 
L 387.028511 9.701533 
L 387.315908 12.61047 
L 387.622704 15.519407 
L 387.948793 18.428344 
L 388.293875 21.337281 
L 388.657442 24.246218 
L 389.038767 27.155155 
L 389.4369 30.064093 
L 389.850661 32.97303 
L 390.278644 35.881967 
L 390.719216 38.790904 
L 391.170532 41.699841 
L 391.630542 44.608778 
L 392.09701 47.517715 
L 392.567535 50.426652 
L 393.039575 53.33559 
L 393.510479 56.244527 
L 393.977516 59.153464 
L 394.437912 62.062401 
L 394.888885 64.971338 
L 395.327691 67.880275 
L 395.751658 70.789212 
L 396.15823 73.698149 
L 396.545009 76.607087 
L 396.909794 79.516024 
L 397.25062 82.424961 
L 397.565794 85.333898 
L 397.853928 88.242835 
L 398.113972 91.151772 
L 398.345233 94.060709 
L 398.547403 96.969646 
L 398.720573 99.878584 
L 398.865243 102.787521 
L 398.982328 105.696458 
L 399.073162 108.605395 
L 399.139488 111.514332 
L 399.183449 114.423269 
L 399.207574 117.332206 
L 399.214754 120.241143 
L 399.208219 123.150081 
L 399.191503 126.059018 
L 399.168413 128.967955 
L 399.142988 131.876892 
L 399.119456 134.785829 
L 399.102191 137.694766 
L 399.095663 140.603703 
L 399.104391 143.51264 
L 399.132888 146.421578 
L 399.185615 149.330515 
L 399.266925 152.239452 
L 399.381014 155.148389 
L 399.531871 158.057326 
L 399.72323 160.966263 
L 399.958529 163.8752 
L 400.240862 166.784137 
L 400.572944 169.693075 
L 400.957081 172.602012 
L 401.395134 175.510949 
L 401.888504 178.419886 
L 402.438108 181.328823 
L 403.044368 184.23776 
L 403.707206 187.146697 
L 404.426043 190.055635 
L 405.199803 192.964572 
L 406.026925 195.873509 
L 406.905374 198.782446 
L 407.832665 201.691383 
L 408.805882 204.60032 
L 409.821709 207.509257 
L 410.876451 210.418194 
L 411.966074 213.327132 
L 413.08623 216.236069 
L 414.232288 219.145006 
L 415.399373 222.053943 
L 416.582392 224.96288 
L 417.776064 227.871817 
L 418.974955 230.780754 
L 420.173501 233.689691 
L 421.36604 236.598629 
L 422.546835 239.507566 
L 423.710102 242.416503 
L 424.850038 245.32544 
L 425.960842 248.234377 
L 427.036745 251.143314 
L 428.07204 254.052251 
L 429.061105 256.961188 
L 429.998441 259.870126 
L 430.878699 262.779063 
L 431.696721 265.688 
L 432.447573 268.596937 
L 433.126588 271.505874 
L 433.729403 274.414811 
L 434.252002 277.323748 
L 434.69076 280.232685 
L 435.04248 283.141623 
L 435.304436 286.05056 
L 435.474405 288.959497 
L 435.550704 291.868434 
L 435.532216 294.777371 
L 435.418413 297.686308 
L 435.20937 300.595245 
L 434.905773 303.504182 
L 434.508921 306.41312 
L 434.020717 309.322057 
L 433.44365 312.230994 
L 432.780771 315.139931 
L 432.035662 318.048868 
L 431.212393 320.957805 
L 430.31548 323.866742 
L 429.349825 326.775679 
L 428.32067 329.684617 
L 427.233527 332.593554 
L 426.094125 335.502491 
L 424.908343 338.411428 
L 423.682148 341.320365 
L 422.421538 344.229302 
L 421.132483 347.138239 
L 419.820872 350.047176 
L 418.492465 352.956114 
L 417.152852 355.865051 
L 415.807409 358.773988 
L 414.461273 361.682925 
L 413.119311 364.591862 
L 411.786104 367.500799 
L 410.465929 370.409736 
L 409.162749 373.318673 
L 407.880211 376.227611 
L 406.621644 379.136548 
L 405.39006 382.045485 
L 404.188159 384.954422 
L 403.01834 387.863359 
L 401.882705 390.772296 
L 400.783074 393.681233 
L 399.720995 396.59017 
L 398.697753 399.499108 
L 397.714385 402.408045 
L 396.771689 405.316982 
L 395.870237 408.225919 
L 395.010388 411.134856 
L 394.192292 414.043793 
L 393.415909 416.95273 
L 392.681014 419.861668 
L 391.987209 422.770605 
L 391.333936 425.679542 
L 390.720483 428.588479 
L 390.145998 431.497416 
L 389.609504 434.406353 
L 389.109901 437.31529 
L 388.645988 440.224227 
L 388.216472 443.133165 
L 387.819979 446.042102 
L 387.455068 448.951039 
L 387.120248 451.859976 
L 386.813984 454.768913 
L 386.534719 457.67785 
L 386.280876 460.586787 
L 386.050881 463.495724 
L 385.843168 466.404662 
L 385.656191 469.313599 
L 385.488436 472.222536 
L 385.338427 475.131473 
L 385.204738 478.04041 
L 385.085995 480.949347 
L 384.980887 483.858284 
L 384.888167 486.767221 
L 384.806656 489.676159 
L 384.735249 492.585096 
L 384.67291 495.494033 
L 384.618679 498.40297 
L 384.571666 501.311907 
L 384.531055 504.220844 
L 384.496097 507.129781 
L 384.466114 510.038718 
L 384.440487 512.947656 
L 384.418663 515.856593 
L 384.400144 518.76553 
z
" clip-path="url(#p4a3e2eae04)" style="fill: #1f77b4; fill-opacity: 0.25; stroke: #1f77b4"/>
   </g>
   <g id="matplotlib.axis_5">
    <g id="xtick_9"/>
    <g id="xtick_10"/>
   </g>
   <g id="matplotlib.axis_6">
    <g id="ytick_9">
     <g id="line2d_15">
      <g>
       <use xlink:href="#m64f55f7092" x="384.308527" y="383.583387" style="stroke: #000000; stroke-width: 0.8"/>
      </g>
     </g>
    </g>
    <g id="ytick_10">
     <g id="line2d_16">
      <g>
       <use xlink:href="#m64f55f7092" x="384.308527" y="326.451127" style="stroke: #000000; stroke-width: 0.8"/>
      </g>
     </g>
    </g>
    <g id="ytick_11">
     <g id="line2d_17">
      <g>
       <use xlink:href="#m64f55f7092" x="384.308527" y="269.318868" style="stroke: #000000; stroke-width: 0.8"/>
      </g>
     </g>
    </g>
    <g id="ytick_12">
     <g id="line2d_18">
      <g>
       <use xlink:href="#m64f55f7092" x="384.308527" y="212.186608" style="stroke: #000000; stroke-width: 0.8"/>
      </g>
     </g>
    </g>
    <g id="ytick_13">
     <g id="line2d_19">
      <g>
       <use xlink:href="#m64f55f7092" x="384.308527" y="155.054348" style="stroke: #000000; stroke-width: 0.8"/>
      </g>
     </g>
    </g>
    <g id="ytick_14">
     <g id="line2d_20">
      <g>
       <use xlink:href="#m64f55f7092" x="384.308527" y="97.922088" style="stroke: #000000; stroke-width: 0.8"/>
      </g>
     </g>
    </g>
   </g>
   <g id="patch_8">
    <path d="M 384.308527 386.44 
L 384.308527 72.212571 
" style="fill: none; stroke: #000000; stroke-width: 0.8; stroke-linejoin: miter; stroke-linecap: square"/>
   </g>
  </g>
 </g>
 <defs>
  <clipPath id="p02a4902f8c">
   <rect x="61.482813" y="72.212571" width="312.064857" height="314.227429"/>
  </clipPath>
  <clipPath id="p22b3a062e3">
   <rect x="61.482813" y="7.2" width="312.064857" height="54.177143"/>
  </clipPath>
  <clipPath id="p4a3e2eae04">
   <rect x="384.308527" y="72.212571" width="53.804286" height="314.227429"/>
  </clipPath>
 </defs>
</svg>
