<?xml version="1.0" encoding="utf-8" standalone="no"?>
<!DOCTYPE svg PUBLIC "-//W3C//DTD SVG 1.1//EN"
  "http://www.w3.org/Graphics/SVG/1.1/DTD/svg11.dtd">
<svg xmlns:xlink="http://www.w3.org/1999/xlink" width="414.641875pt" height="150.520479pt" viewBox="0 0 414.641875 150.520479" xmlns="http://www.w3.org/2000/svg" version="1.1">
 <metadata>
  <rdf:RDF xmlns:dc="http://purl.org/dc/elements/1.1/" xmlns:cc="http://creativecommons.org/ns#" xmlns:rdf="http://www.w3.org/1999/02/22-rdf-syntax-ns#">
   <cc:Work>
    <dc:type rdf:resource="http://purl.org/dc/dcmitype/StillImage"/>
    <dc:date>2022-12-10T11:11:50.555032</dc:date>
    <dc:format>image/svg+xml</dc:format>
    <dc:creator>
     <cc:Agent>
      <dc:title>Matplotlib v3.6.2, https://matplotlib.org/</dc:title>
     </cc:Agent>
    </dc:creator>
   </cc:Work>
  </rdf:RDF>
 </metadata>
 <defs>
  <style type="text/css">*{stroke-linejoin: round; stroke-linecap: butt}</style>
 </defs>
 <g id="figure_1">
  <g id="patch_1">
   <path d="M 0 150.520479 
L 414.641875 150.520479 
L 414.641875 0 
L 0 0 
z
" style="fill: #ffffff"/>
  </g>
  <g id="axes_1">
   <g id="patch_2">
    <path d="M 50.321875 139.332094 
L 407.441875 139.332094 
L 407.441875 32.196094 
L 50.321875 32.196094 
z
" style="fill: #ffffff"/>
   </g>
   <g id="patch_3">
    <path d="M 50.971184 107.281895 
L 56.165657 107.281895 
L 56.165657 52.921134 
L 50.971184 52.921134 
z
" clip-path="url(#p6624c35eec)" style="fill: #3274a1"/>
   </g>
   <g id="patch_4">
    <path d="M 57.464275 107.281895 
L 62.658748 107.281895 
L 62.658748 59.716229 
L 57.464275 59.716229 
z
" clip-path="url(#p6624c35eec)" style="fill: #3274a1"/>
   </g>
   <g id="patch_5">
    <path d="M 63.957366 107.281895 
L 69.151839 107.281895 
L 69.151839 107.281895 
L 63.957366 107.281895 
z
" clip-path="url(#p6624c35eec)" style="fill: #3274a1"/>
   </g>
   <g id="patch_6">
    <path d="M 70.450457 107.281895 
L 75.64493 107.281895 
L 75.64493 59.716229 
L 70.450457 59.716229 
z
" clip-path="url(#p6624c35eec)" style="fill: #3274a1"/>
   </g>
   <g id="patch_7">
    <path d="M 76.943548 107.281895 
L 82.13802 107.281895 
L 82.13802 64.246292 
L 76.943548 64.246292 
z
" clip-path="url(#p6624c35eec)" style="fill: #3274a1"/>
   </g>
   <g id="patch_8">
    <path d="M 83.436639 107.281895 
L 88.631111 107.281895 
L 88.631111 105.016863 
L 83.436639 105.016863 
z
" clip-path="url(#p6624c35eec)" style="fill: #3274a1"/>
   </g>
   <g id="patch_9">
    <path d="M 89.92973 107.281895 
L 95.124202 107.281895 
L 95.124202 73.306419 
L 89.92973 73.306419 
z
" clip-path="url(#p6624c35eec)" style="fill: #3274a1"/>
   </g>
   <g id="patch_10">
    <path d="M 96.42282 107.281895 
L 101.617293 107.281895 
L 101.617293 39.330944 
L 96.42282 39.330944 
z
" clip-path="url(#p6624c35eec)" style="fill: #3274a1"/>
   </g>
   <g id="patch_11">
    <path d="M 102.915911 107.281895 
L 108.110384 107.281895 
L 108.110384 107.281895 
L 102.915911 107.281895 
z
" clip-path="url(#p6624c35eec)" style="fill: #3274a1"/>
   </g>
   <g id="patch_12">
    <path d="M 109.409002 107.281895 
L 114.603475 107.281895 
L 114.603475 105.016863 
L 109.409002 105.016863 
z
" clip-path="url(#p6624c35eec)" style="fill: #3274a1"/>
   </g>
   <g id="patch_13">
    <path d="M 115.902093 107.281895 
L 121.096566 107.281895 
L 121.096566 107.281895 
L 115.902093 107.281895 
z
" clip-path="url(#p6624c35eec)" style="fill: #3274a1"/>
   </g>
   <g id="patch_14">
    <path d="M 122.395184 107.281895 
L 127.589657 107.281895 
L 127.589657 66.511324 
L 122.395184 66.511324 
z
" clip-path="url(#p6624c35eec)" style="fill: #3274a1"/>
   </g>
   <g id="patch_15">
    <path d="M 128.888275 107.281895 
L 134.082748 107.281895 
L 134.082748 52.921134 
L 128.888275 52.921134 
z
" clip-path="url(#p6624c35eec)" style="fill: #3274a1"/>
   </g>
   <g id="patch_16">
    <path d="M 135.381366 107.281895 
L 140.575839 107.281895 
L 140.575839 43.861007 
L 135.381366 43.861007 
z
" clip-path="url(#p6624c35eec)" style="fill: #3274a1"/>
   </g>
   <g id="patch_17">
    <path d="M 141.874457 107.281895 
L 147.06893 107.281895 
L 147.06893 107.281895 
L 141.874457 107.281895 
z
" clip-path="url(#p6624c35eec)" style="fill: #3274a1"/>
   </g>
   <g id="patch_18">
    <path d="M 148.367548 107.281895 
L 153.56202 107.281895 
L 153.56202 59.716229 
L 148.367548 59.716229 
z
" clip-path="url(#p6624c35eec)" style="fill: #3274a1"/>
   </g>
   <g id="patch_19">
    <path d="M 154.860639 107.281895 
L 160.055111 107.281895 
L 160.055111 82.366546 
L 154.860639 82.366546 
z
" clip-path="url(#p6624c35eec)" style="fill: #3274a1"/>
   </g>
   <g id="patch_20">
    <path d="M 161.35373 107.281895 
L 166.548202 107.281895 
L 166.548202 105.016863 
L 161.35373 105.016863 
z
" clip-path="url(#p6624c35eec)" style="fill: #3274a1"/>
   </g>
   <g id="patch_21">
    <path d="M 167.84682 107.281895 
L 173.041293 107.281895 
L 173.041293 41.595975 
L 167.84682 41.595975 
z
" clip-path="url(#p6624c35eec)" style="fill: #3274a1"/>
   </g>
   <g id="patch_22">
    <path d="M 174.339911 107.281895 
L 179.534384 107.281895 
L 179.534384 100.4868 
L 174.339911 100.4868 
z
" clip-path="url(#p6624c35eec)" style="fill: #3274a1"/>
   </g>
   <g id="patch_23">
    <path d="M 180.833002 107.281895 
L 186.027475 107.281895 
L 186.027475 100.4868 
L 180.833002 100.4868 
z
" clip-path="url(#p6624c35eec)" style="fill: #3274a1"/>
   </g>
   <g id="patch_24">
    <path d="M 187.326093 107.281895 
L 192.520566 107.281895 
L 192.520566 105.016863 
L 187.326093 105.016863 
z
" clip-path="url(#p6624c35eec)" style="fill: #3274a1"/>
   </g>
   <g id="patch_25">
    <path d="M 193.819184 107.281895 
L 199.013657 107.281895 
L 199.013657 41.595975 
L 193.819184 41.595975 
z
" clip-path="url(#p6624c35eec)" style="fill: #3274a1"/>
   </g>
   <g id="patch_26">
    <path d="M 200.312275 107.281895 
L 205.506748 107.281895 
L 205.506748 107.281895 
L 200.312275 107.281895 
z
" clip-path="url(#p6624c35eec)" style="fill: #3274a1"/>
   </g>
   <g id="patch_27">
    <path d="M 206.805366 107.281895 
L 211.999839 107.281895 
L 211.999839 71.041388 
L 206.805366 71.041388 
z
" clip-path="url(#p6624c35eec)" style="fill: #3274a1"/>
   </g>
   <g id="patch_28">
    <path d="M 213.298457 107.281895 
L 218.49293 107.281895 
L 218.49293 100.4868 
L 213.298457 100.4868 
z
" clip-path="url(#p6624c35eec)" style="fill: #3274a1"/>
   </g>
   <g id="patch_29">
    <path d="M 219.791548 107.281895 
L 224.98602 107.281895 
L 224.98602 57.451197 
L 219.791548 57.451197 
z
" clip-path="url(#p6624c35eec)" style="fill: #3274a1"/>
   </g>
   <g id="patch_30">
    <path d="M 226.284639 107.281895 
L 231.479111 107.281895 
L 231.479111 82.366546 
L 226.284639 82.366546 
z
" clip-path="url(#p6624c35eec)" style="fill: #3274a1"/>
   </g>
   <g id="patch_31">
    <path d="M 232.77773 107.281895 
L 237.972202 107.281895 
L 237.972202 107.281895 
L 232.77773 107.281895 
z
" clip-path="url(#p6624c35eec)" style="fill: #3274a1"/>
   </g>
   <g id="patch_32">
    <path d="M 239.27082 107.281895 
L 244.465293 107.281895 
L 244.465293 105.016863 
L 239.27082 105.016863 
z
" clip-path="url(#p6624c35eec)" style="fill: #3274a1"/>
   </g>
   <g id="patch_33">
    <path d="M 245.763911 107.281895 
L 250.958384 107.281895 
L 250.958384 57.451197 
L 245.763911 57.451197 
z
" clip-path="url(#p6624c35eec)" style="fill: #3274a1"/>
   </g>
   <g id="patch_34">
    <path d="M 252.257002 107.281895 
L 257.451475 107.281895 
L 257.451475 80.101514 
L 252.257002 80.101514 
z
" clip-path="url(#p6624c35eec)" style="fill: #3274a1"/>
   </g>
   <g id="patch_35">
    <path d="M 258.750093 107.281895 
L 263.944566 107.281895 
L 263.944566 48.39107 
L 258.750093 48.39107 
z
" clip-path="url(#p6624c35eec)" style="fill: #3274a1"/>
   </g>
   <g id="patch_36">
    <path d="M 265.243184 107.281895 
L 270.437657 107.281895 
L 270.437657 55.186166 
L 265.243184 55.186166 
z
" clip-path="url(#p6624c35eec)" style="fill: #3274a1"/>
   </g>
   <g id="patch_37">
    <path d="M 271.736275 107.281895 
L 276.930748 107.281895 
L 276.930748 57.451197 
L 271.736275 57.451197 
z
" clip-path="url(#p6624c35eec)" style="fill: #3274a1"/>
   </g>
   <g id="patch_38">
    <path d="M 278.229366 107.281895 
L 283.423839 107.281895 
L 283.423839 91.426673 
L 278.229366 91.426673 
z
" clip-path="url(#p6624c35eec)" style="fill: #3274a1"/>
   </g>
   <g id="patch_39">
    <path d="M 284.722457 107.281895 
L 289.91693 107.281895 
L 289.91693 107.281895 
L 284.722457 107.281895 
z
" clip-path="url(#p6624c35eec)" style="fill: #3274a1"/>
   </g>
   <g id="patch_40">
    <path d="M 291.215548 107.281895 
L 296.41002 107.281895 
L 296.41002 55.186166 
L 291.215548 55.186166 
z
" clip-path="url(#p6624c35eec)" style="fill: #3274a1"/>
   </g>
   <g id="patch_41">
    <path d="M 297.708639 107.281895 
L 302.903111 107.281895 
L 302.903111 59.716229 
L 297.708639 59.716229 
z
" clip-path="url(#p6624c35eec)" style="fill: #3274a1"/>
   </g>
   <g id="patch_42">
    <path d="M 304.20173 107.281895 
L 309.396202 107.281895 
L 309.396202 48.39107 
L 304.20173 48.39107 
z
" clip-path="url(#p6624c35eec)" style="fill: #3274a1"/>
   </g>
   <g id="patch_43">
    <path d="M 310.69482 107.281895 
L 315.889293 107.281895 
L 315.889293 107.281895 
L 310.69482 107.281895 
z
" clip-path="url(#p6624c35eec)" style="fill: #3274a1"/>
   </g>
   <g id="patch_44">
    <path d="M 317.187911 107.281895 
L 322.382384 107.281895 
L 322.382384 71.041388 
L 317.187911 71.041388 
z
" clip-path="url(#p6624c35eec)" style="fill: #3274a1"/>
   </g>
   <g id="patch_45">
    <path d="M 323.681002 107.281895 
L 328.875475 107.281895 
L 328.875475 61.981261 
L 323.681002 61.981261 
z
" clip-path="url(#p6624c35eec)" style="fill: #3274a1"/>
   </g>
   <g id="patch_46">
    <path d="M 330.174093 107.281895 
L 335.368566 107.281895 
L 335.368566 57.451197 
L 330.174093 57.451197 
z
" clip-path="url(#p6624c35eec)" style="fill: #3274a1"/>
   </g>
   <g id="patch_47">
    <path d="M 336.667184 107.281895 
L 341.861657 107.281895 
L 341.861657 100.4868 
L 336.667184 100.4868 
z
" clip-path="url(#p6624c35eec)" style="fill: #3274a1"/>
   </g>
   <g id="patch_48">
    <path d="M 343.160275 107.281895 
L 348.354748 107.281895 
L 348.354748 80.101514 
L 343.160275 80.101514 
z
" clip-path="url(#p6624c35eec)" style="fill: #3274a1"/>
   </g>
   <g id="patch_49">
    <path d="M 349.653366 107.281895 
L 354.847839 107.281895 
L 354.847839 107.281895 
L 349.653366 107.281895 
z
" clip-path="url(#p6624c35eec)" style="fill: #3274a1"/>
   </g>
   <g id="patch_50">
    <path d="M 356.146457 107.281895 
L 361.34093 107.281895 
L 361.34093 39.330944 
L 356.146457 39.330944 
z
" clip-path="url(#p6624c35eec)" style="fill: #3274a1"/>
   </g>
   <g id="patch_51">
    <path d="M 362.639548 107.281895 
L 367.83402 107.281895 
L 367.83402 107.281895 
L 362.639548 107.281895 
z
" clip-path="url(#p6624c35eec)" style="fill: #3274a1"/>
   </g>
   <g id="patch_52">
    <path d="M 369.132639 107.281895 
L 374.327111 107.281895 
L 374.327111 37.065912 
L 369.132639 37.065912 
z
" clip-path="url(#p6624c35eec)" style="fill: #3274a1"/>
   </g>
   <g id="patch_53">
    <path d="M 375.62573 107.281895 
L 380.820202 107.281895 
L 380.820202 59.716229 
L 375.62573 59.716229 
z
" clip-path="url(#p6624c35eec)" style="fill: #3274a1"/>
   </g>
   <g id="patch_54">
    <path d="M 382.11882 107.281895 
L 387.313293 107.281895 
L 387.313293 105.016863 
L 382.11882 105.016863 
z
" clip-path="url(#p6624c35eec)" style="fill: #3274a1"/>
   </g>
   <g id="patch_55">
    <path d="M 388.611911 107.281895 
L 393.806384 107.281895 
L 393.806384 107.281895 
L 388.611911 107.281895 
z
" clip-path="url(#p6624c35eec)" style="fill: #3274a1"/>
   </g>
   <g id="patch_56">
    <path d="M 395.105002 107.281895 
L 400.299475 107.281895 
L 400.299475 64.246292 
L 395.105002 64.246292 
z
" clip-path="url(#p6624c35eec)" style="fill: #3274a1"/>
   </g>
   <g id="patch_57">
    <path d="M 401.598093 107.281895 
L 406.792566 107.281895 
L 406.792566 52.921134 
L 401.598093 52.921134 
z
" clip-path="url(#p6624c35eec)" style="fill: #3274a1"/>
   </g>
   <g id="patch_58">
    <path d="M 50.971184 107.281895 
L 56.165657 107.281895 
L 56.165657 109.546927 
L 50.971184 109.546927 
z
" clip-path="url(#p6624c35eec)" style="fill: #e1812c"/>
   </g>
   <g id="patch_59">
    <path d="M 57.464275 107.281895 
L 62.658748 107.281895 
L 62.658748 111.811958 
L 57.464275 111.811958 
z
" clip-path="url(#p6624c35eec)" style="fill: #e1812c"/>
   </g>
   <g id="patch_60">
    <path d="M 63.957366 107.281895 
L 69.151839 107.281895 
L 69.151839 114.07699 
L 63.957366 114.07699 
z
" clip-path="url(#p6624c35eec)" style="fill: #e1812c"/>
   </g>
   <g id="patch_61">
    <path d="M 70.450457 107.281895 
L 75.64493 107.281895 
L 75.64493 118.607054 
L 70.450457 118.607054 
z
" clip-path="url(#p6624c35eec)" style="fill: #e1812c"/>
   </g>
   <g id="patch_62">
    <path d="M 76.943548 107.281895 
L 82.13802 107.281895 
L 82.13802 109.546927 
L 76.943548 109.546927 
z
" clip-path="url(#p6624c35eec)" style="fill: #e1812c"/>
   </g>
   <g id="patch_63">
    <path d="M 83.436639 107.281895 
L 88.631111 107.281895 
L 88.631111 118.607054 
L 83.436639 118.607054 
z
" clip-path="url(#p6624c35eec)" style="fill: #e1812c"/>
   </g>
   <g id="patch_64">
    <path d="M 89.92973 107.281895 
L 95.124202 107.281895 
L 95.124202 109.546927 
L 89.92973 109.546927 
z
" clip-path="url(#p6624c35eec)" style="fill: #e1812c"/>
   </g>
   <g id="patch_65">
    <path d="M 96.42282 107.281895 
L 101.617293 107.281895 
L 101.617293 109.546927 
L 96.42282 109.546927 
z
" clip-path="url(#p6624c35eec)" style="fill: #e1812c"/>
   </g>
   <g id="patch_66">
    <path d="M 102.915911 107.281895 
L 108.110384 107.281895 
L 108.110384 109.546927 
L 102.915911 109.546927 
z
" clip-path="url(#p6624c35eec)" style="fill: #e1812c"/>
   </g>
   <g id="patch_67">
    <path d="M 109.409002 107.281895 
L 114.603475 107.281895 
L 114.603475 111.811958 
L 109.409002 111.811958 
z
" clip-path="url(#p6624c35eec)" style="fill: #e1812c"/>
   </g>
   <g id="patch_68">
    <path d="M 115.902093 107.281895 
L 121.096566 107.281895 
L 121.096566 134.462276 
L 115.902093 134.462276 
z
" clip-path="url(#p6624c35eec)" style="fill: #e1812c"/>
   </g>
   <g id="patch_69">
    <path d="M 122.395184 107.281895 
L 127.589657 107.281895 
L 127.589657 109.546927 
L 122.395184 109.546927 
z
" clip-path="url(#p6624c35eec)" style="fill: #e1812c"/>
   </g>
   <g id="patch_70">
    <path d="M 128.888275 107.281895 
L 134.082748 107.281895 
L 134.082748 116.342022 
L 128.888275 116.342022 
z
" clip-path="url(#p6624c35eec)" style="fill: #e1812c"/>
   </g>
   <g id="patch_71">
    <path d="M 135.381366 107.281895 
L 140.575839 107.281895 
L 140.575839 107.281895 
L 135.381366 107.281895 
z
" clip-path="url(#p6624c35eec)" style="fill: #e1812c"/>
   </g>
   <g id="patch_72">
    <path d="M 141.874457 107.281895 
L 147.06893 107.281895 
L 147.06893 118.607054 
L 141.874457 118.607054 
z
" clip-path="url(#p6624c35eec)" style="fill: #e1812c"/>
   </g>
   <g id="patch_73">
    <path d="M 148.367548 107.281895 
L 153.56202 107.281895 
L 153.56202 116.342022 
L 148.367548 116.342022 
z
" clip-path="url(#p6624c35eec)" style="fill: #e1812c"/>
   </g>
   <g id="patch_74">
    <path d="M 154.860639 107.281895 
L 160.055111 107.281895 
L 160.055111 120.872085 
L 154.860639 120.872085 
z
" clip-path="url(#p6624c35eec)" style="fill: #e1812c"/>
   </g>
   <g id="patch_75">
    <path d="M 161.35373 107.281895 
L 166.548202 107.281895 
L 166.548202 125.402149 
L 161.35373 125.402149 
z
" clip-path="url(#p6624c35eec)" style="fill: #e1812c"/>
   </g>
   <g id="patch_76">
    <path d="M 167.84682 107.281895 
L 173.041293 107.281895 
L 173.041293 107.281895 
L 167.84682 107.281895 
z
" clip-path="url(#p6624c35eec)" style="fill: #e1812c"/>
   </g>
   <g id="patch_77">
    <path d="M 174.339911 107.281895 
L 179.534384 107.281895 
L 179.534384 116.342022 
L 174.339911 116.342022 
z
" clip-path="url(#p6624c35eec)" style="fill: #e1812c"/>
   </g>
   <g id="patch_78">
    <path d="M 180.833002 107.281895 
L 186.027475 107.281895 
L 186.027475 111.811958 
L 180.833002 111.811958 
z
" clip-path="url(#p6624c35eec)" style="fill: #e1812c"/>
   </g>
   <g id="patch_79">
    <path d="M 187.326093 107.281895 
L 192.520566 107.281895 
L 192.520566 116.342022 
L 187.326093 116.342022 
z
" clip-path="url(#p6624c35eec)" style="fill: #e1812c"/>
   </g>
   <g id="patch_80">
    <path d="M 193.819184 107.281895 
L 199.013657 107.281895 
L 199.013657 107.281895 
L 193.819184 107.281895 
z
" clip-path="url(#p6624c35eec)" style="fill: #e1812c"/>
   </g>
   <g id="patch_81">
    <path d="M 200.312275 107.281895 
L 205.506748 107.281895 
L 205.506748 125.402149 
L 200.312275 125.402149 
z
" clip-path="url(#p6624c35eec)" style="fill: #e1812c"/>
   </g>
   <g id="patch_82">
    <path d="M 206.805366 107.281895 
L 211.999839 107.281895 
L 211.999839 120.872085 
L 206.805366 120.872085 
z
" clip-path="url(#p6624c35eec)" style="fill: #e1812c"/>
   </g>
   <g id="patch_83">
    <path d="M 213.298457 107.281895 
L 218.49293 107.281895 
L 218.49293 111.811958 
L 213.298457 111.811958 
z
" clip-path="url(#p6624c35eec)" style="fill: #e1812c"/>
   </g>
   <g id="patch_84">
    <path d="M 219.791548 107.281895 
L 224.98602 107.281895 
L 224.98602 109.546927 
L 219.791548 109.546927 
z
" clip-path="url(#p6624c35eec)" style="fill: #e1812c"/>
   </g>
   <g id="patch_85">
    <path d="M 226.284639 107.281895 
L 231.479111 107.281895 
L 231.479111 116.342022 
L 226.284639 116.342022 
z
" clip-path="url(#p6624c35eec)" style="fill: #e1812c"/>
   </g>
   <g id="patch_86">
    <path d="M 232.77773 107.281895 
L 237.972202 107.281895 
L 237.972202 120.872085 
L 232.77773 120.872085 
z
" clip-path="url(#p6624c35eec)" style="fill: #e1812c"/>
   </g>
   <g id="patch_87">
    <path d="M 239.27082 107.281895 
L 244.465293 107.281895 
L 244.465293 109.546927 
L 239.27082 109.546927 
z
" clip-path="url(#p6624c35eec)" style="fill: #e1812c"/>
   </g>
   <g id="patch_88">
    <path d="M 245.763911 107.281895 
L 250.958384 107.281895 
L 250.958384 120.872085 
L 245.763911 120.872085 
z
" clip-path="url(#p6624c35eec)" style="fill: #e1812c"/>
   </g>
   <g id="patch_89">
    <path d="M 252.257002 107.281895 
L 257.451475 107.281895 
L 257.451475 127.66718 
L 252.257002 127.66718 
z
" clip-path="url(#p6624c35eec)" style="fill: #e1812c"/>
   </g>
   <g id="patch_90">
    <path d="M 258.750093 107.281895 
L 263.944566 107.281895 
L 263.944566 109.546927 
L 258.750093 109.546927 
z
" clip-path="url(#p6624c35eec)" style="fill: #e1812c"/>
   </g>
   <g id="patch_91">
    <path d="M 265.243184 107.281895 
L 270.437657 107.281895 
L 270.437657 109.546927 
L 265.243184 109.546927 
z
" clip-path="url(#p6624c35eec)" style="fill: #e1812c"/>
   </g>
   <g id="patch_92">
    <path d="M 271.736275 107.281895 
L 276.930748 107.281895 
L 276.930748 109.546927 
L 271.736275 109.546927 
z
" clip-path="url(#p6624c35eec)" style="fill: #e1812c"/>
   </g>
   <g id="patch_93">
    <path d="M 278.229366 107.281895 
L 283.423839 107.281895 
L 283.423839 116.342022 
L 278.229366 116.342022 
z
" clip-path="url(#p6624c35eec)" style="fill: #e1812c"/>
   </g>
   <g id="patch_94">
    <path d="M 284.722457 107.281895 
L 289.91693 107.281895 
L 289.91693 116.342022 
L 284.722457 116.342022 
z
" clip-path="url(#p6624c35eec)" style="fill: #e1812c"/>
   </g>
   <g id="patch_95">
    <path d="M 291.215548 107.281895 
L 296.41002 107.281895 
L 296.41002 109.546927 
L 291.215548 109.546927 
z
" clip-path="url(#p6624c35eec)" style="fill: #e1812c"/>
   </g>
   <g id="patch_96">
    <path d="M 297.708639 107.281895 
L 302.903111 107.281895 
L 302.903111 116.342022 
L 297.708639 116.342022 
z
" clip-path="url(#p6624c35eec)" style="fill: #e1812c"/>
   </g>
   <g id="patch_97">
    <path d="M 304.20173 107.281895 
L 309.396202 107.281895 
L 309.396202 107.281895 
L 304.20173 107.281895 
z
" clip-path="url(#p6624c35eec)" style="fill: #e1812c"/>
   </g>
   <g id="patch_98">
    <path d="M 310.69482 107.281895 
L 315.889293 107.281895 
L 315.889293 129.932212 
L 310.69482 129.932212 
z
" clip-path="url(#p6624c35eec)" style="fill: #e1812c"/>
   </g>
   <g id="patch_99">
    <path d="M 317.187911 107.281895 
L 322.382384 107.281895 
L 322.382384 125.402149 
L 317.187911 125.402149 
z
" clip-path="url(#p6624c35eec)" style="fill: #e1812c"/>
   </g>
   <g id="patch_100">
    <path d="M 323.681002 107.281895 
L 328.875475 107.281895 
L 328.875475 118.607054 
L 323.681002 118.607054 
z
" clip-path="url(#p6624c35eec)" style="fill: #e1812c"/>
   </g>
   <g id="patch_101">
    <path d="M 330.174093 107.281895 
L 335.368566 107.281895 
L 335.368566 107.281895 
L 330.174093 107.281895 
z
" clip-path="url(#p6624c35eec)" style="fill: #e1812c"/>
   </g>
   <g id="patch_102">
    <path d="M 336.667184 107.281895 
L 341.861657 107.281895 
L 341.861657 118.607054 
L 336.667184 118.607054 
z
" clip-path="url(#p6624c35eec)" style="fill: #e1812c"/>
   </g>
   <g id="patch_103">
    <path d="M 343.160275 107.281895 
L 348.354748 107.281895 
L 348.354748 132.197244 
L 343.160275 132.197244 
z
" clip-path="url(#p6624c35eec)" style="fill: #e1812c"/>
   </g>
   <g id="patch_104">
    <path d="M 349.653366 107.281895 
L 354.847839 107.281895 
L 354.847839 134.462276 
L 349.653366 134.462276 
z
" clip-path="url(#p6624c35eec)" style="fill: #e1812c"/>
   </g>
   <g id="patch_105">
    <path d="M 356.146457 107.281895 
L 361.34093 107.281895 
L 361.34093 107.281895 
L 356.146457 107.281895 
z
" clip-path="url(#p6624c35eec)" style="fill: #e1812c"/>
   </g>
   <g id="patch_106">
    <path d="M 362.639548 107.281895 
L 367.83402 107.281895 
L 367.83402 129.932212 
L 362.639548 129.932212 
z
" clip-path="url(#p6624c35eec)" style="fill: #e1812c"/>
   </g>
   <g id="patch_107">
    <path d="M 369.132639 107.281895 
L 374.327111 107.281895 
L 374.327111 109.546927 
L 369.132639 109.546927 
z
" clip-path="url(#p6624c35eec)" style="fill: #e1812c"/>
   </g>
   <g id="patch_108">
    <path d="M 375.62573 107.281895 
L 380.820202 107.281895 
L 380.820202 111.811958 
L 375.62573 111.811958 
z
" clip-path="url(#p6624c35eec)" style="fill: #e1812c"/>
   </g>
   <g id="patch_109">
    <path d="M 382.11882 107.281895 
L 387.313293 107.281895 
L 387.313293 125.402149 
L 382.11882 125.402149 
z
" clip-path="url(#p6624c35eec)" style="fill: #e1812c"/>
   </g>
   <g id="patch_110">
    <path d="M 388.611911 107.281895 
L 393.806384 107.281895 
L 393.806384 111.811958 
L 388.611911 111.811958 
z
" clip-path="url(#p6624c35eec)" style="fill: #e1812c"/>
   </g>
   <g id="patch_111">
    <path d="M 395.105002 107.281895 
L 400.299475 107.281895 
L 400.299475 107.281895 
L 395.105002 107.281895 
z
" clip-path="url(#p6624c35eec)" style="fill: #e1812c"/>
   </g>
   <g id="patch_112">
    <path d="M 401.598093 107.281895 
L 406.792566 107.281895 
L 406.792566 109.546927 
L 401.598093 109.546927 
z
" clip-path="url(#p6624c35eec)" style="fill: #e1812c"/>
   </g>
   <g id="matplotlib.axis_1"/>
   <g id="matplotlib.axis_2">
    <g id="ytick_1">
     <g id="line2d_1">
      <defs>
       <path id="m7d37a181de" d="M 0 0 
L -3.5 0 
" style="stroke: #000000; stroke-width: 0.8"/>
      </defs>
      <g>
       <use xlink:href="#m7d37a181de" x="50.321875" y="107.281895" style="stroke: #000000; stroke-width: 0.8"/>
      </g>
     </g>
     <g id="text_1">
      <!--    0 -->
      <g transform="translate(7.2 113.020567) scale(0.15 -0.15)">
       <defs>
        <path id="DejaVuSansMono-20" transform="scale(0.015625)"/>
        <path id="DejaVuSansMono-30" d="M 1509 2344 
Q 1509 2516 1629 2641 
Q 1750 2766 1919 2766 
Q 2094 2766 2219 2641 
Q 2344 2516 2344 2344 
Q 2344 2169 2220 2047 
Q 2097 1925 1919 1925 
Q 1744 1925 1626 2044 
Q 1509 2163 1509 2344 
z
M 1925 4250 
Q 1484 4250 1267 3775 
Q 1050 3300 1050 2328 
Q 1050 1359 1267 884 
Q 1484 409 1925 409 
Q 2369 409 2586 884 
Q 2803 1359 2803 2328 
Q 2803 3300 2586 3775 
Q 2369 4250 1925 4250 
z
M 1925 4750 
Q 2672 4750 3055 4137 
Q 3438 3525 3438 2328 
Q 3438 1134 3055 521 
Q 2672 -91 1925 -91 
Q 1178 -91 797 521 
Q 416 1134 416 2328 
Q 416 3525 797 4137 
Q 1178 4750 1925 4750 
z
" transform="scale(0.015625)"/>
       </defs>
       <use xlink:href="#DejaVuSansMono-20"/>
       <use xlink:href="#DejaVuSansMono-20" x="60.205078"/>
       <use xlink:href="#DejaVuSansMono-20" x="120.410156"/>
       <use xlink:href="#DejaVuSansMono-30" x="180.615234"/>
      </g>
     </g>
    </g>
    <g id="ytick_2">
     <g id="line2d_2">
      <g>
       <use xlink:href="#m7d37a181de" x="50.321875" y="134.462276" style="stroke: #000000; stroke-width: 0.8"/>
      </g>
     </g>
     <g id="text_2">
      <!--  -12 -->
      <g transform="translate(7.2 140.200947) scale(0.15 -0.15)">
       <defs>
        <path id="DejaVuSansMono-2d" d="M 1113 2009 
L 2741 2009 
L 2741 1497 
L 1113 1497 
L 1113 2009 
z
" transform="scale(0.015625)"/>
        <path id="DejaVuSansMono-31" d="M 844 531 
L 1825 531 
L 1825 4097 
L 769 3859 
L 769 4434 
L 1819 4666 
L 2450 4666 
L 2450 531 
L 3419 531 
L 3419 0 
L 844 0 
L 844 531 
z
" transform="scale(0.015625)"/>
        <path id="DejaVuSansMono-32" d="M 1166 531 
L 3309 531 
L 3309 0 
L 475 0 
L 475 531 
Q 1059 1147 1496 1619 
Q 1934 2091 2100 2284 
Q 2413 2666 2522 2902 
Q 2631 3138 2631 3384 
Q 2631 3775 2401 3997 
Q 2172 4219 1772 4219 
Q 1488 4219 1175 4116 
Q 863 4013 513 3803 
L 513 4441 
Q 834 4594 1145 4672 
Q 1456 4750 1759 4750 
Q 2444 4750 2861 4386 
Q 3278 4022 3278 3431 
Q 3278 3131 3139 2831 
Q 3000 2531 2688 2169 
Q 2513 1966 2180 1606 
Q 1847 1247 1166 531 
z
" transform="scale(0.015625)"/>
       </defs>
       <use xlink:href="#DejaVuSansMono-20"/>
       <use xlink:href="#DejaVuSansMono-2d" x="60.205078"/>
       <use xlink:href="#DejaVuSansMono-31" x="120.410156"/>
       <use xlink:href="#DejaVuSansMono-32" x="180.615234"/>
      </g>
     </g>
    </g>
    <g id="ytick_3">
     <g id="line2d_3">
      <g>
       <use xlink:href="#m7d37a181de" x="50.321875" y="37.065912" style="stroke: #000000; stroke-width: 0.8"/>
      </g>
     </g>
     <g id="text_3">
      <!--   31 -->
      <g transform="translate(7.2 42.804584) scale(0.15 -0.15)">
       <defs>
        <path id="DejaVuSansMono-33" d="M 2425 2497 
Q 2884 2375 3128 2064 
Q 3372 1753 3372 1288 
Q 3372 644 2939 276 
Q 2506 -91 1741 -91 
Q 1419 -91 1084 -31 
Q 750 28 428 141 
L 428 769 
Q 747 603 1056 522 
Q 1366 441 1672 441 
Q 2191 441 2469 675 
Q 2747 909 2747 1350 
Q 2747 1756 2469 1995 
Q 2191 2234 1716 2234 
L 1234 2234 
L 1234 2753 
L 1716 2753 
Q 2150 2753 2394 2943 
Q 2638 3134 2638 3475 
Q 2638 3834 2411 4026 
Q 2184 4219 1766 4219 
Q 1488 4219 1191 4156 
Q 894 4094 569 3969 
L 569 4550 
Q 947 4650 1242 4700 
Q 1538 4750 1766 4750 
Q 2447 4750 2855 4408 
Q 3263 4066 3263 3500 
Q 3263 3116 3048 2859 
Q 2834 2603 2425 2497 
z
" transform="scale(0.015625)"/>
       </defs>
       <use xlink:href="#DejaVuSansMono-20"/>
       <use xlink:href="#DejaVuSansMono-20" x="60.205078"/>
       <use xlink:href="#DejaVuSansMono-33" x="120.410156"/>
       <use xlink:href="#DejaVuSansMono-31" x="180.615234"/>
      </g>
     </g>
    </g>
   </g>
   <g id="line2d_4">
    <path clip-path="url(#p6624c35eec)" style="fill: none; stroke: #424242; stroke-width: 2.7; stroke-linecap: square"/>
   </g>
   <g id="line2d_5">
    <path clip-path="url(#p6624c35eec)" style="fill: none; stroke: #424242; stroke-width: 2.7; stroke-linecap: square"/>
   </g>
   <g id="line2d_6">
    <path clip-path="url(#p6624c35eec)" style="fill: none; stroke: #424242; stroke-width: 2.7; stroke-linecap: square"/>
   </g>
   <g id="line2d_7">
    <path clip-path="url(#p6624c35eec)" style="fill: none; stroke: #424242; stroke-width: 2.7; stroke-linecap: square"/>
   </g>
   <g id="line2d_8">
    <path clip-path="url(#p6624c35eec)" style="fill: none; stroke: #424242; stroke-width: 2.7; stroke-linecap: square"/>
   </g>
   <g id="line2d_9">
    <path clip-path="url(#p6624c35eec)" style="fill: none; stroke: #424242; stroke-width: 2.7; stroke-linecap: square"/>
   </g>
   <g id="line2d_10">
    <path clip-path="url(#p6624c35eec)" style="fill: none; stroke: #424242; stroke-width: 2.7; stroke-linecap: square"/>
   </g>
   <g id="line2d_11">
    <path clip-path="url(#p6624c35eec)" style="fill: none; stroke: #424242; stroke-width: 2.7; stroke-linecap: square"/>
   </g>
   <g id="line2d_12">
    <path clip-path="url(#p6624c35eec)" style="fill: none; stroke: #424242; stroke-width: 2.7; stroke-linecap: square"/>
   </g>
   <g id="line2d_13">
    <path clip-path="url(#p6624c35eec)" style="fill: none; stroke: #424242; stroke-width: 2.7; stroke-linecap: square"/>
   </g>
   <g id="line2d_14">
    <path clip-path="url(#p6624c35eec)" style="fill: none; stroke: #424242; stroke-width: 2.7; stroke-linecap: square"/>
   </g>
   <g id="line2d_15">
    <path clip-path="url(#p6624c35eec)" style="fill: none; stroke: #424242; stroke-width: 2.7; stroke-linecap: square"/>
   </g>
   <g id="line2d_16">
    <path clip-path="url(#p6624c35eec)" style="fill: none; stroke: #424242; stroke-width: 2.7; stroke-linecap: square"/>
   </g>
   <g id="line2d_17">
    <path clip-path="url(#p6624c35eec)" style="fill: none; stroke: #424242; stroke-width: 2.7; stroke-linecap: square"/>
   </g>
   <g id="line2d_18">
    <path clip-path="url(#p6624c35eec)" style="fill: none; stroke: #424242; stroke-width: 2.7; stroke-linecap: square"/>
   </g>
   <g id="line2d_19">
    <path clip-path="url(#p6624c35eec)" style="fill: none; stroke: #424242; stroke-width: 2.7; stroke-linecap: square"/>
   </g>
   <g id="line2d_20">
    <path clip-path="url(#p6624c35eec)" style="fill: none; stroke: #424242; stroke-width: 2.7; stroke-linecap: square"/>
   </g>
   <g id="line2d_21">
    <path clip-path="url(#p6624c35eec)" style="fill: none; stroke: #424242; stroke-width: 2.7; stroke-linecap: square"/>
   </g>
   <g id="line2d_22">
    <path clip-path="url(#p6624c35eec)" style="fill: none; stroke: #424242; stroke-width: 2.7; stroke-linecap: square"/>
   </g>
   <g id="line2d_23">
    <path clip-path="url(#p6624c35eec)" style="fill: none; stroke: #424242; stroke-width: 2.7; stroke-linecap: square"/>
   </g>
   <g id="line2d_24">
    <path clip-path="url(#p6624c35eec)" style="fill: none; stroke: #424242; stroke-width: 2.7; stroke-linecap: square"/>
   </g>
   <g id="line2d_25">
    <path clip-path="url(#p6624c35eec)" style="fill: none; stroke: #424242; stroke-width: 2.7; stroke-linecap: square"/>
   </g>
   <g id="line2d_26">
    <path clip-path="url(#p6624c35eec)" style="fill: none; stroke: #424242; stroke-width: 2.7; stroke-linecap: square"/>
   </g>
   <g id="line2d_27">
    <path clip-path="url(#p6624c35eec)" style="fill: none; stroke: #424242; stroke-width: 2.7; stroke-linecap: square"/>
   </g>
   <g id="line2d_28">
    <path clip-path="url(#p6624c35eec)" style="fill: none; stroke: #424242; stroke-width: 2.7; stroke-linecap: square"/>
   </g>
   <g id="line2d_29">
    <path clip-path="url(#p6624c35eec)" style="fill: none; stroke: #424242; stroke-width: 2.7; stroke-linecap: square"/>
   </g>
   <g id="line2d_30">
    <path clip-path="url(#p6624c35eec)" style="fill: none; stroke: #424242; stroke-width: 2.7; stroke-linecap: square"/>
   </g>
   <g id="line2d_31">
    <path clip-path="url(#p6624c35eec)" style="fill: none; stroke: #424242; stroke-width: 2.7; stroke-linecap: square"/>
   </g>
   <g id="line2d_32">
    <path clip-path="url(#p6624c35eec)" style="fill: none; stroke: #424242; stroke-width: 2.7; stroke-linecap: square"/>
   </g>
   <g id="line2d_33">
    <path clip-path="url(#p6624c35eec)" style="fill: none; stroke: #424242; stroke-width: 2.7; stroke-linecap: square"/>
   </g>
   <g id="line2d_34">
    <path clip-path="url(#p6624c35eec)" style="fill: none; stroke: #424242; stroke-width: 2.7; stroke-linecap: square"/>
   </g>
   <g id="line2d_35">
    <path clip-path="url(#p6624c35eec)" style="fill: none; stroke: #424242; stroke-width: 2.7; stroke-linecap: square"/>
   </g>
   <g id="line2d_36">
    <path clip-path="url(#p6624c35eec)" style="fill: none; stroke: #424242; stroke-width: 2.7; stroke-linecap: square"/>
   </g>
   <g id="line2d_37">
    <path clip-path="url(#p6624c35eec)" style="fill: none; stroke: #424242; stroke-width: 2.7; stroke-linecap: square"/>
   </g>
   <g id="line2d_38">
    <path clip-path="url(#p6624c35eec)" style="fill: none; stroke: #424242; stroke-width: 2.7; stroke-linecap: square"/>
   </g>
   <g id="line2d_39">
    <path clip-path="url(#p6624c35eec)" style="fill: none; stroke: #424242; stroke-width: 2.7; stroke-linecap: square"/>
   </g>
   <g id="line2d_40">
    <path clip-path="url(#p6624c35eec)" style="fill: none; stroke: #424242; stroke-width: 2.7; stroke-linecap: square"/>
   </g>
   <g id="line2d_41">
    <path clip-path="url(#p6624c35eec)" style="fill: none; stroke: #424242; stroke-width: 2.7; stroke-linecap: square"/>
   </g>
   <g id="line2d_42">
    <path clip-path="url(#p6624c35eec)" style="fill: none; stroke: #424242; stroke-width: 2.7; stroke-linecap: square"/>
   </g>
   <g id="line2d_43">
    <path clip-path="url(#p6624c35eec)" style="fill: none; stroke: #424242; stroke-width: 2.7; stroke-linecap: square"/>
   </g>
   <g id="line2d_44">
    <path clip-path="url(#p6624c35eec)" style="fill: none; stroke: #424242; stroke-width: 2.7; stroke-linecap: square"/>
   </g>
   <g id="line2d_45">
    <path clip-path="url(#p6624c35eec)" style="fill: none; stroke: #424242; stroke-width: 2.7; stroke-linecap: square"/>
   </g>
   <g id="line2d_46">
    <path clip-path="url(#p6624c35eec)" style="fill: none; stroke: #424242; stroke-width: 2.7; stroke-linecap: square"/>
   </g>
   <g id="line2d_47">
    <path clip-path="url(#p6624c35eec)" style="fill: none; stroke: #424242; stroke-width: 2.7; stroke-linecap: square"/>
   </g>
   <g id="line2d_48">
    <path clip-path="url(#p6624c35eec)" style="fill: none; stroke: #424242; stroke-width: 2.7; stroke-linecap: square"/>
   </g>
   <g id="line2d_49">
    <path clip-path="url(#p6624c35eec)" style="fill: none; stroke: #424242; stroke-width: 2.7; stroke-linecap: square"/>
   </g>
   <g id="line2d_50">
    <path clip-path="url(#p6624c35eec)" style="fill: none; stroke: #424242; stroke-width: 2.7; stroke-linecap: square"/>
   </g>
   <g id="line2d_51">
    <path clip-path="url(#p6624c35eec)" style="fill: none; stroke: #424242; stroke-width: 2.7; stroke-linecap: square"/>
   </g>
   <g id="line2d_52">
    <path clip-path="url(#p6624c35eec)" style="fill: none; stroke: #424242; stroke-width: 2.7; stroke-linecap: square"/>
   </g>
   <g id="line2d_53">
    <path clip-path="url(#p6624c35eec)" style="fill: none; stroke: #424242; stroke-width: 2.7; stroke-linecap: square"/>
   </g>
   <g id="line2d_54">
    <path clip-path="url(#p6624c35eec)" style="fill: none; stroke: #424242; stroke-width: 2.7; stroke-linecap: square"/>
   </g>
   <g id="line2d_55">
    <path clip-path="url(#p6624c35eec)" style="fill: none; stroke: #424242; stroke-width: 2.7; stroke-linecap: square"/>
   </g>
   <g id="line2d_56">
    <path clip-path="url(#p6624c35eec)" style="fill: none; stroke: #424242; stroke-width: 2.7; stroke-linecap: square"/>
   </g>
   <g id="line2d_57">
    <path clip-path="url(#p6624c35eec)" style="fill: none; stroke: #424242; stroke-width: 2.7; stroke-linecap: square"/>
   </g>
   <g id="line2d_58">
    <path clip-path="url(#p6624c35eec)" style="fill: none; stroke: #424242; stroke-width: 2.7; stroke-linecap: square"/>
   </g>
   <g id="line2d_59">
    <path clip-path="url(#p6624c35eec)" style="fill: none; stroke: #424242; stroke-width: 2.7; stroke-linecap: square"/>
   </g>
   <g id="line2d_60">
    <path clip-path="url(#p6624c35eec)" style="fill: none; stroke: #424242; stroke-width: 2.7; stroke-linecap: square"/>
   </g>
   <g id="line2d_61">
    <path clip-path="url(#p6624c35eec)" style="fill: none; stroke: #424242; stroke-width: 2.7; stroke-linecap: square"/>
   </g>
   <g id="line2d_62">
    <path clip-path="url(#p6624c35eec)" style="fill: none; stroke: #424242; stroke-width: 2.7; stroke-linecap: square"/>
   </g>
   <g id="line2d_63">
    <path clip-path="url(#p6624c35eec)" style="fill: none; stroke: #424242; stroke-width: 2.7; stroke-linecap: square"/>
   </g>
   <g id="line2d_64">
    <path clip-path="url(#p6624c35eec)" style="fill: none; stroke: #424242; stroke-width: 2.7; stroke-linecap: square"/>
   </g>
   <g id="line2d_65">
    <path clip-path="url(#p6624c35eec)" style="fill: none; stroke: #424242; stroke-width: 2.7; stroke-linecap: square"/>
   </g>
   <g id="line2d_66">
    <path clip-path="url(#p6624c35eec)" style="fill: none; stroke: #424242; stroke-width: 2.7; stroke-linecap: square"/>
   </g>
   <g id="line2d_67">
    <path clip-path="url(#p6624c35eec)" style="fill: none; stroke: #424242; stroke-width: 2.7; stroke-linecap: square"/>
   </g>
   <g id="line2d_68">
    <path clip-path="url(#p6624c35eec)" style="fill: none; stroke: #424242; stroke-width: 2.7; stroke-linecap: square"/>
   </g>
   <g id="line2d_69">
    <path clip-path="url(#p6624c35eec)" style="fill: none; stroke: #424242; stroke-width: 2.7; stroke-linecap: square"/>
   </g>
   <g id="line2d_70">
    <path clip-path="url(#p6624c35eec)" style="fill: none; stroke: #424242; stroke-width: 2.7; stroke-linecap: square"/>
   </g>
   <g id="line2d_71">
    <path clip-path="url(#p6624c35eec)" style="fill: none; stroke: #424242; stroke-width: 2.7; stroke-linecap: square"/>
   </g>
   <g id="line2d_72">
    <path clip-path="url(#p6624c35eec)" style="fill: none; stroke: #424242; stroke-width: 2.7; stroke-linecap: square"/>
   </g>
   <g id="line2d_73">
    <path clip-path="url(#p6624c35eec)" style="fill: none; stroke: #424242; stroke-width: 2.7; stroke-linecap: square"/>
   </g>
   <g id="line2d_74">
    <path clip-path="url(#p6624c35eec)" style="fill: none; stroke: #424242; stroke-width: 2.7; stroke-linecap: square"/>
   </g>
   <g id="line2d_75">
    <path clip-path="url(#p6624c35eec)" style="fill: none; stroke: #424242; stroke-width: 2.7; stroke-linecap: square"/>
   </g>
   <g id="line2d_76">
    <path clip-path="url(#p6624c35eec)" style="fill: none; stroke: #424242; stroke-width: 2.7; stroke-linecap: square"/>
   </g>
   <g id="line2d_77">
    <path clip-path="url(#p6624c35eec)" style="fill: none; stroke: #424242; stroke-width: 2.7; stroke-linecap: square"/>
   </g>
   <g id="line2d_78">
    <path clip-path="url(#p6624c35eec)" style="fill: none; stroke: #424242; stroke-width: 2.7; stroke-linecap: square"/>
   </g>
   <g id="line2d_79">
    <path clip-path="url(#p6624c35eec)" style="fill: none; stroke: #424242; stroke-width: 2.7; stroke-linecap: square"/>
   </g>
   <g id="line2d_80">
    <path clip-path="url(#p6624c35eec)" style="fill: none; stroke: #424242; stroke-width: 2.7; stroke-linecap: square"/>
   </g>
   <g id="line2d_81">
    <path clip-path="url(#p6624c35eec)" style="fill: none; stroke: #424242; stroke-width: 2.7; stroke-linecap: square"/>
   </g>
   <g id="line2d_82">
    <path clip-path="url(#p6624c35eec)" style="fill: none; stroke: #424242; stroke-width: 2.7; stroke-linecap: square"/>
   </g>
   <g id="line2d_83">
    <path clip-path="url(#p6624c35eec)" style="fill: none; stroke: #424242; stroke-width: 2.7; stroke-linecap: square"/>
   </g>
   <g id="line2d_84">
    <path clip-path="url(#p6624c35eec)" style="fill: none; stroke: #424242; stroke-width: 2.7; stroke-linecap: square"/>
   </g>
   <g id="line2d_85">
    <path clip-path="url(#p6624c35eec)" style="fill: none; stroke: #424242; stroke-width: 2.7; stroke-linecap: square"/>
   </g>
   <g id="line2d_86">
    <path clip-path="url(#p6624c35eec)" style="fill: none; stroke: #424242; stroke-width: 2.7; stroke-linecap: square"/>
   </g>
   <g id="line2d_87">
    <path clip-path="url(#p6624c35eec)" style="fill: none; stroke: #424242; stroke-width: 2.7; stroke-linecap: square"/>
   </g>
   <g id="line2d_88">
    <path clip-path="url(#p6624c35eec)" style="fill: none; stroke: #424242; stroke-width: 2.7; stroke-linecap: square"/>
   </g>
   <g id="line2d_89">
    <path clip-path="url(#p6624c35eec)" style="fill: none; stroke: #424242; stroke-width: 2.7; stroke-linecap: square"/>
   </g>
   <g id="line2d_90">
    <path clip-path="url(#p6624c35eec)" style="fill: none; stroke: #424242; stroke-width: 2.7; stroke-linecap: square"/>
   </g>
   <g id="line2d_91">
    <path clip-path="url(#p6624c35eec)" style="fill: none; stroke: #424242; stroke-width: 2.7; stroke-linecap: square"/>
   </g>
   <g id="line2d_92">
    <path clip-path="url(#p6624c35eec)" style="fill: none; stroke: #424242; stroke-width: 2.7; stroke-linecap: square"/>
   </g>
   <g id="line2d_93">
    <path clip-path="url(#p6624c35eec)" style="fill: none; stroke: #424242; stroke-width: 2.7; stroke-linecap: square"/>
   </g>
   <g id="line2d_94">
    <path clip-path="url(#p6624c35eec)" style="fill: none; stroke: #424242; stroke-width: 2.7; stroke-linecap: square"/>
   </g>
   <g id="line2d_95">
    <path clip-path="url(#p6624c35eec)" style="fill: none; stroke: #424242; stroke-width: 2.7; stroke-linecap: square"/>
   </g>
   <g id="line2d_96">
    <path clip-path="url(#p6624c35eec)" style="fill: none; stroke: #424242; stroke-width: 2.7; stroke-linecap: square"/>
   </g>
   <g id="line2d_97">
    <path clip-path="url(#p6624c35eec)" style="fill: none; stroke: #424242; stroke-width: 2.7; stroke-linecap: square"/>
   </g>
   <g id="line2d_98">
    <path clip-path="url(#p6624c35eec)" style="fill: none; stroke: #424242; stroke-width: 2.7; stroke-linecap: square"/>
   </g>
   <g id="line2d_99">
    <path clip-path="url(#p6624c35eec)" style="fill: none; stroke: #424242; stroke-width: 2.7; stroke-linecap: square"/>
   </g>
   <g id="line2d_100">
    <path clip-path="url(#p6624c35eec)" style="fill: none; stroke: #424242; stroke-width: 2.7; stroke-linecap: square"/>
   </g>
   <g id="line2d_101">
    <path clip-path="url(#p6624c35eec)" style="fill: none; stroke: #424242; stroke-width: 2.7; stroke-linecap: square"/>
   </g>
   <g id="line2d_102">
    <path clip-path="url(#p6624c35eec)" style="fill: none; stroke: #424242; stroke-width: 2.7; stroke-linecap: square"/>
   </g>
   <g id="line2d_103">
    <path clip-path="url(#p6624c35eec)" style="fill: none; stroke: #424242; stroke-width: 2.7; stroke-linecap: square"/>
   </g>
   <g id="line2d_104">
    <path clip-path="url(#p6624c35eec)" style="fill: none; stroke: #424242; stroke-width: 2.7; stroke-linecap: square"/>
   </g>
   <g id="line2d_105">
    <path clip-path="url(#p6624c35eec)" style="fill: none; stroke: #424242; stroke-width: 2.7; stroke-linecap: square"/>
   </g>
   <g id="line2d_106">
    <path clip-path="url(#p6624c35eec)" style="fill: none; stroke: #424242; stroke-width: 2.7; stroke-linecap: square"/>
   </g>
   <g id="line2d_107">
    <path clip-path="url(#p6624c35eec)" style="fill: none; stroke: #424242; stroke-width: 2.7; stroke-linecap: square"/>
   </g>
   <g id="line2d_108">
    <path clip-path="url(#p6624c35eec)" style="fill: none; stroke: #424242; stroke-width: 2.7; stroke-linecap: square"/>
   </g>
   <g id="line2d_109">
    <path clip-path="url(#p6624c35eec)" style="fill: none; stroke: #424242; stroke-width: 2.7; stroke-linecap: square"/>
   </g>
   <g id="line2d_110">
    <path clip-path="url(#p6624c35eec)" style="fill: none; stroke: #424242; stroke-width: 2.7; stroke-linecap: square"/>
   </g>
   <g id="line2d_111">
    <path clip-path="url(#p6624c35eec)" style="fill: none; stroke: #424242; stroke-width: 2.7; stroke-linecap: square"/>
   </g>
   <g id="line2d_112">
    <path clip-path="url(#p6624c35eec)" style="fill: none; stroke: #424242; stroke-width: 2.7; stroke-linecap: square"/>
   </g>
   <g id="line2d_113">
    <path clip-path="url(#p6624c35eec)" style="fill: none; stroke: #424242; stroke-width: 2.7; stroke-linecap: square"/>
   </g>
   <g id="patch_113">
    <path d="M 50.321875 139.332094 
L 50.321875 32.196094 
" style="fill: none; stroke: #000000; stroke-width: 0.8; stroke-linejoin: miter; stroke-linecap: square"/>
   </g>
   <g id="patch_114">
    <path d="M 407.441875 139.332094 
L 407.441875 32.196094 
" style="fill: none; stroke: #000000; stroke-width: 0.8; stroke-linejoin: miter; stroke-linecap: square"/>
   </g>
   <g id="patch_115">
    <path d="M 50.321875 139.332094 
L 407.441875 139.332094 
" style="fill: none; stroke: #000000; stroke-width: 0.8; stroke-linejoin: miter; stroke-linecap: square"/>
   </g>
   <g id="patch_116">
    <path d="M 50.321875 32.196094 
L 407.441875 32.196094 
" style="fill: none; stroke: #000000; stroke-width: 0.8; stroke-linejoin: miter; stroke-linecap: square"/>
   </g>
   <g id="text_4">
    <!-- htop -->
    <g transform="translate(200.475625 26.196094) scale(0.25 -0.25)">
     <defs>
      <path id="DejaVuSans-68" d="M 3513 2113 
L 3513 0 
L 2938 0 
L 2938 2094 
Q 2938 2591 2744 2837 
Q 2550 3084 2163 3084 
Q 1697 3084 1428 2787 
Q 1159 2491 1159 1978 
L 1159 0 
L 581 0 
L 581 4863 
L 1159 4863 
L 1159 2956 
Q 1366 3272 1645 3428 
Q 1925 3584 2291 3584 
Q 2894 3584 3203 3211 
Q 3513 2838 3513 2113 
z
" transform="scale(0.015625)"/>
      <path id="DejaVuSans-74" d="M 1172 4494 
L 1172 3500 
L 2356 3500 
L 2356 3053 
L 1172 3053 
L 1172 1153 
Q 1172 725 1289 603 
Q 1406 481 1766 481 
L 2356 481 
L 2356 0 
L 1766 0 
Q 1100 0 847 248 
Q 594 497 594 1153 
L 594 3053 
L 172 3053 
L 172 3500 
L 594 3500 
L 594 4494 
L 1172 4494 
z
" transform="scale(0.015625)"/>
      <path id="DejaVuSans-6f" d="M 1959 3097 
Q 1497 3097 1228 2736 
Q 959 2375 959 1747 
Q 959 1119 1226 758 
Q 1494 397 1959 397 
Q 2419 397 2687 759 
Q 2956 1122 2956 1747 
Q 2956 2369 2687 2733 
Q 2419 3097 1959 3097 
z
M 1959 3584 
Q 2709 3584 3137 3096 
Q 3566 2609 3566 1747 
Q 3566 888 3137 398 
Q 2709 -91 1959 -91 
Q 1206 -91 779 398 
Q 353 888 353 1747 
Q 353 2609 779 3096 
Q 1206 3584 1959 3584 
z
" transform="scale(0.015625)"/>
      <path id="DejaVuSans-70" d="M 1159 525 
L 1159 -1331 
L 581 -1331 
L 581 3500 
L 1159 3500 
L 1159 2969 
Q 1341 3281 1617 3432 
Q 1894 3584 2278 3584 
Q 2916 3584 3314 3078 
Q 3713 2572 3713 1747 
Q 3713 922 3314 415 
Q 2916 -91 2278 -91 
Q 1894 -91 1617 61 
Q 1341 213 1159 525 
z
M 3116 1747 
Q 3116 2381 2855 2742 
Q 2594 3103 2138 3103 
Q 1681 3103 1420 2742 
Q 1159 2381 1159 1747 
Q 1159 1113 1420 752 
Q 1681 391 2138 391 
Q 2594 391 2855 752 
Q 3116 1113 3116 1747 
z
" transform="scale(0.015625)"/>
     </defs>
     <use xlink:href="#DejaVuSans-68"/>
     <use xlink:href="#DejaVuSans-74" x="63.378906"/>
     <use xlink:href="#DejaVuSans-6f" x="102.587891"/>
     <use xlink:href="#DejaVuSans-70" x="163.769531"/>
    </g>
   </g>
  </g>
 </g>
 <defs>
  <clipPath id="p6624c35eec">
   <rect x="50.321875" y="32.196094" width="357.12" height="107.136"/>
  </clipPath>
 </defs>
</svg>
