<?xml version="1.0" encoding="utf-8" standalone="no"?>
<!DOCTYPE svg PUBLIC "-//W3C//DTD SVG 1.1//EN"
  "http://www.w3.org/Graphics/SVG/1.1/DTD/svg11.dtd">
<svg xmlns:xlink="http://www.w3.org/1999/xlink" width="440.47375pt" height="438.513437pt" viewBox="0 0 440.47375 438.513437" xmlns="http://www.w3.org/2000/svg" version="1.1">
 <metadata>
  <rdf:RDF xmlns:dc="http://purl.org/dc/elements/1.1/" xmlns:cc="http://creativecommons.org/ns#" xmlns:rdf="http://www.w3.org/1999/02/22-rdf-syntax-ns#">
   <cc:Work>
    <dc:type rdf:resource="http://purl.org/dc/dcmitype/StillImage"/>
    <dc:date>2022-02-23T14:20:10.647652</dc:date>
    <dc:format>image/svg+xml</dc:format>
    <dc:creator>
     <cc:Agent>
      <dc:title>Matplotlib v3.5.1, https://matplotlib.org/</dc:title>
     </cc:Agent>
    </dc:creator>
   </cc:Work>
  </rdf:RDF>
 </metadata>
 <defs>
  <style type="text/css">*{stroke-linejoin: round; stroke-linecap: butt}</style>
 </defs>
 <g id="figure_1">
  <g id="patch_1">
   <path d="M 0 438.513437 
L 440.47375 438.513437 
L 440.47375 0 
L 0 0 
z
" style="fill: #ffffff"/>
  </g>
  <g id="axes_1">
   <g id="patch_2">
    <path d="M 56.64375 386.44 
L 368.708607 386.44 
L 368.708607 72.212571 
L 56.64375 72.212571 
z
" style="fill: #ffffff"/>
   </g>
   <g id="PathCollection_1">
    <defs>
     <path id="m5736b4b70a" d="M 0 4.330127 
C 1.148363 4.330127 2.249847 3.873878 3.061862 3.061862 
C 3.873878 2.249847 4.330127 1.148363 4.330127 0 
C 4.330127 -1.148363 3.873878 -2.249847 3.061862 -3.061862 
C 2.249847 -3.873878 1.148363 -4.330127 0 -4.330127 
C -1.148363 -4.330127 -2.249847 -3.873878 -3.061862 -3.061862 
C -3.873878 -2.249847 -4.330127 -1.148363 -4.330127 0 
C -4.330127 1.148363 -3.873878 2.249847 -3.061862 3.061862 
C -2.249847 3.873878 -1.148363 4.330127 0 4.330127 
z
" style="stroke: #ffffff; stroke-opacity: 0.5; stroke-width: 0.69282"/>
    </defs>
    <g clip-path="url(#p66d72c0be1)">
     <use xlink:href="#m5736b4b70a" x="70.828516" y="349.172693" style="fill: #1f77b4; fill-opacity: 0.5; stroke: #ffffff; stroke-opacity: 0.5; stroke-width: 0.69282"/>
     <use xlink:href="#m5736b4b70a" x="72.106423" y="339.322303" style="fill: #1f77b4; fill-opacity: 0.5; stroke: #ffffff; stroke-opacity: 0.5; stroke-width: 0.69282"/>
     <use xlink:href="#m5736b4b70a" x="70.828516" y="319.621524" style="fill: #1f77b4; fill-opacity: 0.5; stroke: #ffffff; stroke-opacity: 0.5; stroke-width: 0.69282"/>
     <use xlink:href="#m5736b4b70a" x="156.448276" y="112.763342" style="fill: #1f77b4; fill-opacity: 0.5; stroke: #ffffff; stroke-opacity: 0.5; stroke-width: 0.69282"/>
     <use xlink:href="#m5736b4b70a" x="70.828516" y="316.338061" style="fill: #1f77b4; fill-opacity: 0.5; stroke: #ffffff; stroke-opacity: 0.5; stroke-width: 0.69282"/>
     <use xlink:href="#m5736b4b70a" x="70.828516" y="257.235723" style="fill: #1f77b4; fill-opacity: 0.5; stroke: #ffffff; stroke-opacity: 0.5; stroke-width: 0.69282"/>
     <use xlink:href="#m5736b4b70a" x="72.106423" y="270.369576" style="fill: #1f77b4; fill-opacity: 0.5; stroke: #ffffff; stroke-opacity: 0.5; stroke-width: 0.69282"/>
     <use xlink:href="#m5736b4b70a" x="70.828516" y="368.873472" style="fill: #1f77b4; fill-opacity: 0.5; stroke: #ffffff; stroke-opacity: 0.5; stroke-width: 0.69282"/>
     <use xlink:href="#m5736b4b70a" x="98.942467" y="135.747584" style="fill: #1f77b4; fill-opacity: 0.5; stroke: #ffffff; stroke-opacity: 0.5; stroke-width: 0.69282"/>
     <use xlink:href="#m5736b4b70a" x="70.828516" y="283.503429" style="fill: #1f77b4; fill-opacity: 0.5; stroke: #ffffff; stroke-opacity: 0.5; stroke-width: 0.69282"/>
     <use xlink:href="#m5736b4b70a" x="70.828516" y="178.432606" style="fill: #1f77b4; fill-opacity: 0.5; stroke: #ffffff; stroke-opacity: 0.5; stroke-width: 0.69282"/>
     <use xlink:href="#m5736b4b70a" x="72.106423" y="244.10187" style="fill: #1f77b4; fill-opacity: 0.5; stroke: #ffffff; stroke-opacity: 0.5; stroke-width: 0.69282"/>
     <use xlink:href="#m5736b4b70a" x="77.218051" y="178.432606" style="fill: #1f77b4; fill-opacity: 0.5; stroke: #ffffff; stroke-opacity: 0.5; stroke-width: 0.69282"/>
     <use xlink:href="#m5736b4b70a" x="70.828516" y="276.936502" style="fill: #1f77b4; fill-opacity: 0.5; stroke: #ffffff; stroke-opacity: 0.5; stroke-width: 0.69282"/>
     <use xlink:href="#m5736b4b70a" x="70.828516" y="355.739619" style="fill: #1f77b4; fill-opacity: 0.5; stroke: #ffffff; stroke-opacity: 0.5; stroke-width: 0.69282"/>
     <use xlink:href="#m5736b4b70a" x="70.828516" y="355.739619" style="fill: #1f77b4; fill-opacity: 0.5; stroke: #ffffff; stroke-opacity: 0.5; stroke-width: 0.69282"/>
     <use xlink:href="#m5736b4b70a" x="70.828516" y="175.149143" style="fill: #1f77b4; fill-opacity: 0.5; stroke: #ffffff; stroke-opacity: 0.5; stroke-width: 0.69282"/>
     <use xlink:href="#m5736b4b70a" x="73.38433" y="181.716069" style="fill: #1f77b4; fill-opacity: 0.5; stroke: #ffffff; stroke-opacity: 0.5; stroke-width: 0.69282"/>
     <use xlink:href="#m5736b4b70a" x="74.662237" y="263.802649" style="fill: #1f77b4; fill-opacity: 0.5; stroke: #ffffff; stroke-opacity: 0.5; stroke-width: 0.69282"/>
     <use xlink:href="#m5736b4b70a" x="72.106423" y="230.968017" style="fill: #1f77b4; fill-opacity: 0.5; stroke: #ffffff; stroke-opacity: 0.5; stroke-width: 0.69282"/>
     <use xlink:href="#m5736b4b70a" x="72.106423" y="276.936502" style="fill: #1f77b4; fill-opacity: 0.5; stroke: #ffffff; stroke-opacity: 0.5; stroke-width: 0.69282"/>
     <use xlink:href="#m5736b4b70a" x="74.662237" y="267.086113" style="fill: #1f77b4; fill-opacity: 0.5; stroke: #ffffff; stroke-opacity: 0.5; stroke-width: 0.69282"/>
     <use xlink:href="#m5736b4b70a" x="70.828516" y="244.10187" style="fill: #1f77b4; fill-opacity: 0.5; stroke: #ffffff; stroke-opacity: 0.5; stroke-width: 0.69282"/>
     <use xlink:href="#m5736b4b70a" x="73.38433" y="171.86568" style="fill: #1f77b4; fill-opacity: 0.5; stroke: #ffffff; stroke-opacity: 0.5; stroke-width: 0.69282"/>
     <use xlink:href="#m5736b4b70a" x="73.38433" y="181.716069" style="fill: #1f77b4; fill-opacity: 0.5; stroke: #ffffff; stroke-opacity: 0.5; stroke-width: 0.69282"/>
     <use xlink:href="#m5736b4b70a" x="74.662237" y="181.716069" style="fill: #1f77b4; fill-opacity: 0.5; stroke: #ffffff; stroke-opacity: 0.5; stroke-width: 0.69282"/>
     <use xlink:href="#m5736b4b70a" x="70.828516" y="349.172693" style="fill: #1f77b4; fill-opacity: 0.5; stroke: #ffffff; stroke-opacity: 0.5; stroke-width: 0.69282"/>
     <use xlink:href="#m5736b4b70a" x="74.662237" y="178.432606" style="fill: #1f77b4; fill-opacity: 0.5; stroke: #ffffff; stroke-opacity: 0.5; stroke-width: 0.69282"/>
     <use xlink:href="#m5736b4b70a" x="70.828516" y="171.86568" style="fill: #1f77b4; fill-opacity: 0.5; stroke: #ffffff; stroke-opacity: 0.5; stroke-width: 0.69282"/>
     <use xlink:href="#m5736b4b70a" x="92.552933" y="165.298753" style="fill: #1f77b4; fill-opacity: 0.5; stroke: #ffffff; stroke-opacity: 0.5; stroke-width: 0.69282"/>
     <use xlink:href="#m5736b4b70a" x="70.828516" y="368.873472" style="fill: #1f77b4; fill-opacity: 0.5; stroke: #ffffff; stroke-opacity: 0.5; stroke-width: 0.69282"/>
     <use xlink:href="#m5736b4b70a" x="70.828516" y="283.503429" style="fill: #1f77b4; fill-opacity: 0.5; stroke: #ffffff; stroke-opacity: 0.5; stroke-width: 0.69282"/>
     <use xlink:href="#m5736b4b70a" x="70.828516" y="283.503429" style="fill: #1f77b4; fill-opacity: 0.5; stroke: #ffffff; stroke-opacity: 0.5; stroke-width: 0.69282"/>
     <use xlink:href="#m5736b4b70a" x="70.828516" y="280.219965" style="fill: #1f77b4; fill-opacity: 0.5; stroke: #ffffff; stroke-opacity: 0.5; stroke-width: 0.69282"/>
     <use xlink:href="#m5736b4b70a" x="70.828516" y="230.968017" style="fill: #1f77b4; fill-opacity: 0.5; stroke: #ffffff; stroke-opacity: 0.5; stroke-width: 0.69282"/>
     <use xlink:href="#m5736b4b70a" x="72.106423" y="181.716069" style="fill: #1f77b4; fill-opacity: 0.5; stroke: #ffffff; stroke-opacity: 0.5; stroke-width: 0.69282"/>
     <use xlink:href="#m5736b4b70a" x="72.106423" y="171.86568" style="fill: #1f77b4; fill-opacity: 0.5; stroke: #ffffff; stroke-opacity: 0.5; stroke-width: 0.69282"/>
     <use xlink:href="#m5736b4b70a" x="72.106423" y="181.716069" style="fill: #1f77b4; fill-opacity: 0.5; stroke: #ffffff; stroke-opacity: 0.5; stroke-width: 0.69282"/>
     <use xlink:href="#m5736b4b70a" x="106.609909" y="112.763342" style="fill: #1f77b4; fill-opacity: 0.5; stroke: #ffffff; stroke-opacity: 0.5; stroke-width: 0.69282"/>
     <use xlink:href="#m5736b4b70a" x="70.828516" y="362.306545" style="fill: #1f77b4; fill-opacity: 0.5; stroke: #ffffff; stroke-opacity: 0.5; stroke-width: 0.69282"/>
     <use xlink:href="#m5736b4b70a" x="70.828516" y="283.503429" style="fill: #1f77b4; fill-opacity: 0.5; stroke: #ffffff; stroke-opacity: 0.5; stroke-width: 0.69282"/>
     <use xlink:href="#m5736b4b70a" x="354.523841" y="96.346026" style="fill: #1f77b4; fill-opacity: 0.5; stroke: #ffffff; stroke-opacity: 0.5; stroke-width: 0.69282"/>
     <use xlink:href="#m5736b4b70a" x="74.662237" y="171.86568" style="fill: #1f77b4; fill-opacity: 0.5; stroke: #ffffff; stroke-opacity: 0.5; stroke-width: 0.69282"/>
     <use xlink:href="#m5736b4b70a" x="78.495957" y="267.086113" style="fill: #1f77b4; fill-opacity: 0.5; stroke: #ffffff; stroke-opacity: 0.5; stroke-width: 0.69282"/>
     <use xlink:href="#m5736b4b70a" x="70.828516" y="342.605766" style="fill: #1f77b4; fill-opacity: 0.5; stroke: #ffffff; stroke-opacity: 0.5; stroke-width: 0.69282"/>
     <use xlink:href="#m5736b4b70a" x="72.106423" y="171.86568" style="fill: #1f77b4; fill-opacity: 0.5; stroke: #ffffff; stroke-opacity: 0.5; stroke-width: 0.69282"/>
     <use xlink:href="#m5736b4b70a" x="70.828516" y="362.306545" style="fill: #1f77b4; fill-opacity: 0.5; stroke: #ffffff; stroke-opacity: 0.5; stroke-width: 0.69282"/>
     <use xlink:href="#m5736b4b70a" x="70.828516" y="372.156935" style="fill: #1f77b4; fill-opacity: 0.5; stroke: #ffffff; stroke-opacity: 0.5; stroke-width: 0.69282"/>
     <use xlink:href="#m5736b4b70a" x="70.828516" y="244.10187" style="fill: #1f77b4; fill-opacity: 0.5; stroke: #ffffff; stroke-opacity: 0.5; stroke-width: 0.69282"/>
     <use xlink:href="#m5736b4b70a" x="70.828516" y="181.716069" style="fill: #1f77b4; fill-opacity: 0.5; stroke: #ffffff; stroke-opacity: 0.5; stroke-width: 0.69282"/>
     <use xlink:href="#m5736b4b70a" x="256.125012" y="86.495636" style="fill: #1f77b4; fill-opacity: 0.5; stroke: #ffffff; stroke-opacity: 0.5; stroke-width: 0.69282"/>
     <use xlink:href="#m5736b4b70a" x="72.106423" y="181.716069" style="fill: #1f77b4; fill-opacity: 0.5; stroke: #ffffff; stroke-opacity: 0.5; stroke-width: 0.69282"/>
    </g>
   </g>
   <g id="matplotlib.axis_1">
    <g id="xtick_1">
     <g id="line2d_1">
      <defs>
       <path id="m767fce824c" d="M 0 0 
L 0 3.5 
" style="stroke: #000000; stroke-width: 0.8"/>
      </defs>
      <g>
       <use xlink:href="#m767fce824c" x="69.550609" y="386.44" style="stroke: #000000; stroke-width: 0.8"/>
      </g>
     </g>
     <g id="text_1">
      <!-- 0 -->
      <g transform="translate(64.778734 404.837656)scale(0.15 -0.15)">
       <defs>
        <path id="DejaVuSans-30" d="M 2034 4250 
Q 1547 4250 1301 3770 
Q 1056 3291 1056 2328 
Q 1056 1369 1301 889 
Q 1547 409 2034 409 
Q 2525 409 2770 889 
Q 3016 1369 3016 2328 
Q 3016 3291 2770 3770 
Q 2525 4250 2034 4250 
z
M 2034 4750 
Q 2819 4750 3233 4129 
Q 3647 3509 3647 2328 
Q 3647 1150 3233 529 
Q 2819 -91 2034 -91 
Q 1250 -91 836 529 
Q 422 1150 422 2328 
Q 422 3509 836 4129 
Q 1250 4750 2034 4750 
z
" transform="scale(0.015625)"/>
       </defs>
       <use xlink:href="#DejaVuSans-30"/>
      </g>
     </g>
    </g>
    <g id="xtick_2">
     <g id="line2d_2">
      <g>
       <use xlink:href="#m767fce824c" x="133.445953" y="386.44" style="stroke: #000000; stroke-width: 0.8"/>
      </g>
     </g>
     <g id="text_2">
      <!-- 50 -->
      <g transform="translate(123.902203 404.837656)scale(0.15 -0.15)">
       <defs>
        <path id="DejaVuSans-35" d="M 691 4666 
L 3169 4666 
L 3169 4134 
L 1269 4134 
L 1269 2991 
Q 1406 3038 1543 3061 
Q 1681 3084 1819 3084 
Q 2600 3084 3056 2656 
Q 3513 2228 3513 1497 
Q 3513 744 3044 326 
Q 2575 -91 1722 -91 
Q 1428 -91 1123 -41 
Q 819 9 494 109 
L 494 744 
Q 775 591 1075 516 
Q 1375 441 1709 441 
Q 2250 441 2565 725 
Q 2881 1009 2881 1497 
Q 2881 1984 2565 2268 
Q 2250 2553 1709 2553 
Q 1456 2553 1204 2497 
Q 953 2441 691 2322 
L 691 4666 
z
" transform="scale(0.015625)"/>
       </defs>
       <use xlink:href="#DejaVuSans-35"/>
       <use xlink:href="#DejaVuSans-30" x="63.623047"/>
      </g>
     </g>
    </g>
    <g id="xtick_3">
     <g id="line2d_3">
      <g>
       <use xlink:href="#m767fce824c" x="197.341296" y="386.44" style="stroke: #000000; stroke-width: 0.8"/>
      </g>
     </g>
     <g id="text_3">
      <!-- 100 -->
      <g transform="translate(183.025671 404.837656)scale(0.15 -0.15)">
       <defs>
        <path id="DejaVuSans-31" d="M 794 531 
L 1825 531 
L 1825 4091 
L 703 3866 
L 703 4441 
L 1819 4666 
L 2450 4666 
L 2450 531 
L 3481 531 
L 3481 0 
L 794 0 
L 794 531 
z
" transform="scale(0.015625)"/>
       </defs>
       <use xlink:href="#DejaVuSans-31"/>
       <use xlink:href="#DejaVuSans-30" x="63.623047"/>
       <use xlink:href="#DejaVuSans-30" x="127.246094"/>
      </g>
     </g>
    </g>
    <g id="xtick_4">
     <g id="line2d_4">
      <g>
       <use xlink:href="#m767fce824c" x="261.23664" y="386.44" style="stroke: #000000; stroke-width: 0.8"/>
      </g>
     </g>
     <g id="text_4">
      <!-- 150 -->
      <g transform="translate(246.921015 404.837656)scale(0.15 -0.15)">
       <use xlink:href="#DejaVuSans-31"/>
       <use xlink:href="#DejaVuSans-35" x="63.623047"/>
       <use xlink:href="#DejaVuSans-30" x="127.246094"/>
      </g>
     </g>
    </g>
    <g id="xtick_5">
     <g id="line2d_5">
      <g>
       <use xlink:href="#m767fce824c" x="325.131983" y="386.44" style="stroke: #000000; stroke-width: 0.8"/>
      </g>
     </g>
     <g id="text_5">
      <!-- 200 -->
      <g transform="translate(310.816358 404.837656)scale(0.15 -0.15)">
       <defs>
        <path id="DejaVuSans-32" d="M 1228 531 
L 3431 531 
L 3431 0 
L 469 0 
L 469 531 
Q 828 903 1448 1529 
Q 2069 2156 2228 2338 
Q 2531 2678 2651 2914 
Q 2772 3150 2772 3378 
Q 2772 3750 2511 3984 
Q 2250 4219 1831 4219 
Q 1534 4219 1204 4116 
Q 875 4013 500 3803 
L 500 4441 
Q 881 4594 1212 4672 
Q 1544 4750 1819 4750 
Q 2544 4750 2975 4387 
Q 3406 4025 3406 3419 
Q 3406 3131 3298 2873 
Q 3191 2616 2906 2266 
Q 2828 2175 2409 1742 
Q 1991 1309 1228 531 
z
" transform="scale(0.015625)"/>
       </defs>
       <use xlink:href="#DejaVuSans-32"/>
       <use xlink:href="#DejaVuSans-30" x="63.623047"/>
       <use xlink:href="#DejaVuSans-30" x="127.246094"/>
      </g>
     </g>
    </g>
    <g id="text_6">
     <!-- # Commits -->
     <g transform="translate(156.627741 427.154062)scale(0.2 -0.2)">
      <defs>
       <path id="DejaVuSans-23" d="M 3272 2816 
L 2363 2816 
L 2100 1772 
L 3016 1772 
L 3272 2816 
z
M 2803 4594 
L 2478 3297 
L 3391 3297 
L 3719 4594 
L 4219 4594 
L 3897 3297 
L 4872 3297 
L 4872 2816 
L 3775 2816 
L 3519 1772 
L 4513 1772 
L 4513 1294 
L 3397 1294 
L 3072 0 
L 2572 0 
L 2894 1294 
L 1978 1294 
L 1656 0 
L 1153 0 
L 1478 1294 
L 494 1294 
L 494 1772 
L 1594 1772 
L 1856 2816 
L 850 2816 
L 850 3297 
L 1978 3297 
L 2297 4594 
L 2803 4594 
z
" transform="scale(0.015625)"/>
       <path id="DejaVuSans-20" transform="scale(0.015625)"/>
       <path id="DejaVuSans-43" d="M 4122 4306 
L 4122 3641 
Q 3803 3938 3442 4084 
Q 3081 4231 2675 4231 
Q 1875 4231 1450 3742 
Q 1025 3253 1025 2328 
Q 1025 1406 1450 917 
Q 1875 428 2675 428 
Q 3081 428 3442 575 
Q 3803 722 4122 1019 
L 4122 359 
Q 3791 134 3420 21 
Q 3050 -91 2638 -91 
Q 1578 -91 968 557 
Q 359 1206 359 2328 
Q 359 3453 968 4101 
Q 1578 4750 2638 4750 
Q 3056 4750 3426 4639 
Q 3797 4528 4122 4306 
z
" transform="scale(0.015625)"/>
       <path id="DejaVuSans-6f" d="M 1959 3097 
Q 1497 3097 1228 2736 
Q 959 2375 959 1747 
Q 959 1119 1226 758 
Q 1494 397 1959 397 
Q 2419 397 2687 759 
Q 2956 1122 2956 1747 
Q 2956 2369 2687 2733 
Q 2419 3097 1959 3097 
z
M 1959 3584 
Q 2709 3584 3137 3096 
Q 3566 2609 3566 1747 
Q 3566 888 3137 398 
Q 2709 -91 1959 -91 
Q 1206 -91 779 398 
Q 353 888 353 1747 
Q 353 2609 779 3096 
Q 1206 3584 1959 3584 
z
" transform="scale(0.015625)"/>
       <path id="DejaVuSans-6d" d="M 3328 2828 
Q 3544 3216 3844 3400 
Q 4144 3584 4550 3584 
Q 5097 3584 5394 3201 
Q 5691 2819 5691 2113 
L 5691 0 
L 5113 0 
L 5113 2094 
Q 5113 2597 4934 2840 
Q 4756 3084 4391 3084 
Q 3944 3084 3684 2787 
Q 3425 2491 3425 1978 
L 3425 0 
L 2847 0 
L 2847 2094 
Q 2847 2600 2669 2842 
Q 2491 3084 2119 3084 
Q 1678 3084 1418 2786 
Q 1159 2488 1159 1978 
L 1159 0 
L 581 0 
L 581 3500 
L 1159 3500 
L 1159 2956 
Q 1356 3278 1631 3431 
Q 1906 3584 2284 3584 
Q 2666 3584 2933 3390 
Q 3200 3197 3328 2828 
z
" transform="scale(0.015625)"/>
       <path id="DejaVuSans-69" d="M 603 3500 
L 1178 3500 
L 1178 0 
L 603 0 
L 603 3500 
z
M 603 4863 
L 1178 4863 
L 1178 4134 
L 603 4134 
L 603 4863 
z
" transform="scale(0.015625)"/>
       <path id="DejaVuSans-74" d="M 1172 4494 
L 1172 3500 
L 2356 3500 
L 2356 3053 
L 1172 3053 
L 1172 1153 
Q 1172 725 1289 603 
Q 1406 481 1766 481 
L 2356 481 
L 2356 0 
L 1766 0 
Q 1100 0 847 248 
Q 594 497 594 1153 
L 594 3053 
L 172 3053 
L 172 3500 
L 594 3500 
L 594 4494 
L 1172 4494 
z
" transform="scale(0.015625)"/>
       <path id="DejaVuSans-73" d="M 2834 3397 
L 2834 2853 
Q 2591 2978 2328 3040 
Q 2066 3103 1784 3103 
Q 1356 3103 1142 2972 
Q 928 2841 928 2578 
Q 928 2378 1081 2264 
Q 1234 2150 1697 2047 
L 1894 2003 
Q 2506 1872 2764 1633 
Q 3022 1394 3022 966 
Q 3022 478 2636 193 
Q 2250 -91 1575 -91 
Q 1294 -91 989 -36 
Q 684 19 347 128 
L 347 722 
Q 666 556 975 473 
Q 1284 391 1588 391 
Q 1994 391 2212 530 
Q 2431 669 2431 922 
Q 2431 1156 2273 1281 
Q 2116 1406 1581 1522 
L 1381 1569 
Q 847 1681 609 1914 
Q 372 2147 372 2553 
Q 372 3047 722 3315 
Q 1072 3584 1716 3584 
Q 2034 3584 2315 3537 
Q 2597 3491 2834 3397 
z
" transform="scale(0.015625)"/>
      </defs>
      <use xlink:href="#DejaVuSans-23"/>
      <use xlink:href="#DejaVuSans-20" x="83.789062"/>
      <use xlink:href="#DejaVuSans-43" x="115.576172"/>
      <use xlink:href="#DejaVuSans-6f" x="185.400391"/>
      <use xlink:href="#DejaVuSans-6d" x="246.582031"/>
      <use xlink:href="#DejaVuSans-6d" x="343.994141"/>
      <use xlink:href="#DejaVuSans-69" x="441.40625"/>
      <use xlink:href="#DejaVuSans-74" x="469.189453"/>
      <use xlink:href="#DejaVuSans-73" x="508.398438"/>
     </g>
    </g>
   </g>
   <g id="matplotlib.axis_2">
    <g id="ytick_1">
     <g id="line2d_6">
      <defs>
       <path id="m1fc65768c7" d="M 0 0 
L -3.5 0 
" style="stroke: #000000; stroke-width: 0.8"/>
      </defs>
      <g>
       <use xlink:href="#m1fc65768c7" x="56.64375" y="375.440398" style="stroke: #000000; stroke-width: 0.8"/>
      </g>
     </g>
     <g id="text_7">
      <!-- 0 -->
      <g transform="translate(40.1 381.139226)scale(0.15 -0.15)">
       <use xlink:href="#DejaVuSans-30"/>
      </g>
     </g>
    </g>
    <g id="ytick_2">
     <g id="line2d_7">
      <g>
       <use xlink:href="#m1fc65768c7" x="56.64375" y="309.771134" style="stroke: #000000; stroke-width: 0.8"/>
      </g>
     </g>
     <g id="text_8">
      <!-- 20 -->
      <g transform="translate(30.55625 315.469962)scale(0.15 -0.15)">
       <use xlink:href="#DejaVuSans-32"/>
       <use xlink:href="#DejaVuSans-30" x="63.623047"/>
      </g>
     </g>
    </g>
    <g id="ytick_3">
     <g id="line2d_8">
      <g>
       <use xlink:href="#m1fc65768c7" x="56.64375" y="244.10187" style="stroke: #000000; stroke-width: 0.8"/>
      </g>
     </g>
     <g id="text_9">
      <!-- 40 -->
      <g transform="translate(30.55625 249.800698)scale(0.15 -0.15)">
       <defs>
        <path id="DejaVuSans-34" d="M 2419 4116 
L 825 1625 
L 2419 1625 
L 2419 4116 
z
M 2253 4666 
L 3047 4666 
L 3047 1625 
L 3713 1625 
L 3713 1100 
L 3047 1100 
L 3047 0 
L 2419 0 
L 2419 1100 
L 313 1100 
L 313 1709 
L 2253 4666 
z
" transform="scale(0.015625)"/>
       </defs>
       <use xlink:href="#DejaVuSans-34"/>
       <use xlink:href="#DejaVuSans-30" x="63.623047"/>
      </g>
     </g>
    </g>
    <g id="ytick_4">
     <g id="line2d_9">
      <g>
       <use xlink:href="#m1fc65768c7" x="56.64375" y="178.432606" style="stroke: #000000; stroke-width: 0.8"/>
      </g>
     </g>
     <g id="text_10">
      <!-- 60 -->
      <g transform="translate(30.55625 184.131434)scale(0.15 -0.15)">
       <defs>
        <path id="DejaVuSans-36" d="M 2113 2584 
Q 1688 2584 1439 2293 
Q 1191 2003 1191 1497 
Q 1191 994 1439 701 
Q 1688 409 2113 409 
Q 2538 409 2786 701 
Q 3034 994 3034 1497 
Q 3034 2003 2786 2293 
Q 2538 2584 2113 2584 
z
M 3366 4563 
L 3366 3988 
Q 3128 4100 2886 4159 
Q 2644 4219 2406 4219 
Q 1781 4219 1451 3797 
Q 1122 3375 1075 2522 
Q 1259 2794 1537 2939 
Q 1816 3084 2150 3084 
Q 2853 3084 3261 2657 
Q 3669 2231 3669 1497 
Q 3669 778 3244 343 
Q 2819 -91 2113 -91 
Q 1303 -91 875 529 
Q 447 1150 447 2328 
Q 447 3434 972 4092 
Q 1497 4750 2381 4750 
Q 2619 4750 2861 4703 
Q 3103 4656 3366 4563 
z
" transform="scale(0.015625)"/>
       </defs>
       <use xlink:href="#DejaVuSans-36"/>
       <use xlink:href="#DejaVuSans-30" x="63.623047"/>
      </g>
     </g>
    </g>
    <g id="ytick_5">
     <g id="line2d_10">
      <g>
       <use xlink:href="#m1fc65768c7" x="56.64375" y="112.763342" style="stroke: #000000; stroke-width: 0.8"/>
      </g>
     </g>
     <g id="text_11">
      <!-- 80 -->
      <g transform="translate(30.55625 118.46217)scale(0.15 -0.15)">
       <defs>
        <path id="DejaVuSans-38" d="M 2034 2216 
Q 1584 2216 1326 1975 
Q 1069 1734 1069 1313 
Q 1069 891 1326 650 
Q 1584 409 2034 409 
Q 2484 409 2743 651 
Q 3003 894 3003 1313 
Q 3003 1734 2745 1975 
Q 2488 2216 2034 2216 
z
M 1403 2484 
Q 997 2584 770 2862 
Q 544 3141 544 3541 
Q 544 4100 942 4425 
Q 1341 4750 2034 4750 
Q 2731 4750 3128 4425 
Q 3525 4100 3525 3541 
Q 3525 3141 3298 2862 
Q 3072 2584 2669 2484 
Q 3125 2378 3379 2068 
Q 3634 1759 3634 1313 
Q 3634 634 3220 271 
Q 2806 -91 2034 -91 
Q 1263 -91 848 271 
Q 434 634 434 1313 
Q 434 1759 690 2068 
Q 947 2378 1403 2484 
z
M 1172 3481 
Q 1172 3119 1398 2916 
Q 1625 2713 2034 2713 
Q 2441 2713 2670 2916 
Q 2900 3119 2900 3481 
Q 2900 3844 2670 4047 
Q 2441 4250 2034 4250 
Q 1625 4250 1398 4047 
Q 1172 3844 1172 3481 
z
" transform="scale(0.015625)"/>
       </defs>
       <use xlink:href="#DejaVuSans-38"/>
       <use xlink:href="#DejaVuSans-30" x="63.623047"/>
      </g>
     </g>
    </g>
    <g id="text_12">
     <!-- # Interacting authors -->
     <g transform="translate(22.396875 336.707536)rotate(-90)scale(0.2 -0.2)">
      <defs>
       <path id="DejaVuSans-49" d="M 628 4666 
L 1259 4666 
L 1259 0 
L 628 0 
L 628 4666 
z
" transform="scale(0.015625)"/>
       <path id="DejaVuSans-6e" d="M 3513 2113 
L 3513 0 
L 2938 0 
L 2938 2094 
Q 2938 2591 2744 2837 
Q 2550 3084 2163 3084 
Q 1697 3084 1428 2787 
Q 1159 2491 1159 1978 
L 1159 0 
L 581 0 
L 581 3500 
L 1159 3500 
L 1159 2956 
Q 1366 3272 1645 3428 
Q 1925 3584 2291 3584 
Q 2894 3584 3203 3211 
Q 3513 2838 3513 2113 
z
" transform="scale(0.015625)"/>
       <path id="DejaVuSans-65" d="M 3597 1894 
L 3597 1613 
L 953 1613 
Q 991 1019 1311 708 
Q 1631 397 2203 397 
Q 2534 397 2845 478 
Q 3156 559 3463 722 
L 3463 178 
Q 3153 47 2828 -22 
Q 2503 -91 2169 -91 
Q 1331 -91 842 396 
Q 353 884 353 1716 
Q 353 2575 817 3079 
Q 1281 3584 2069 3584 
Q 2775 3584 3186 3129 
Q 3597 2675 3597 1894 
z
M 3022 2063 
Q 3016 2534 2758 2815 
Q 2500 3097 2075 3097 
Q 1594 3097 1305 2825 
Q 1016 2553 972 2059 
L 3022 2063 
z
" transform="scale(0.015625)"/>
       <path id="DejaVuSans-72" d="M 2631 2963 
Q 2534 3019 2420 3045 
Q 2306 3072 2169 3072 
Q 1681 3072 1420 2755 
Q 1159 2438 1159 1844 
L 1159 0 
L 581 0 
L 581 3500 
L 1159 3500 
L 1159 2956 
Q 1341 3275 1631 3429 
Q 1922 3584 2338 3584 
Q 2397 3584 2469 3576 
Q 2541 3569 2628 3553 
L 2631 2963 
z
" transform="scale(0.015625)"/>
       <path id="DejaVuSans-61" d="M 2194 1759 
Q 1497 1759 1228 1600 
Q 959 1441 959 1056 
Q 959 750 1161 570 
Q 1363 391 1709 391 
Q 2188 391 2477 730 
Q 2766 1069 2766 1631 
L 2766 1759 
L 2194 1759 
z
M 3341 1997 
L 3341 0 
L 2766 0 
L 2766 531 
Q 2569 213 2275 61 
Q 1981 -91 1556 -91 
Q 1019 -91 701 211 
Q 384 513 384 1019 
Q 384 1609 779 1909 
Q 1175 2209 1959 2209 
L 2766 2209 
L 2766 2266 
Q 2766 2663 2505 2880 
Q 2244 3097 1772 3097 
Q 1472 3097 1187 3025 
Q 903 2953 641 2809 
L 641 3341 
Q 956 3463 1253 3523 
Q 1550 3584 1831 3584 
Q 2591 3584 2966 3190 
Q 3341 2797 3341 1997 
z
" transform="scale(0.015625)"/>
       <path id="DejaVuSans-63" d="M 3122 3366 
L 3122 2828 
Q 2878 2963 2633 3030 
Q 2388 3097 2138 3097 
Q 1578 3097 1268 2742 
Q 959 2388 959 1747 
Q 959 1106 1268 751 
Q 1578 397 2138 397 
Q 2388 397 2633 464 
Q 2878 531 3122 666 
L 3122 134 
Q 2881 22 2623 -34 
Q 2366 -91 2075 -91 
Q 1284 -91 818 406 
Q 353 903 353 1747 
Q 353 2603 823 3093 
Q 1294 3584 2113 3584 
Q 2378 3584 2631 3529 
Q 2884 3475 3122 3366 
z
" transform="scale(0.015625)"/>
       <path id="DejaVuSans-67" d="M 2906 1791 
Q 2906 2416 2648 2759 
Q 2391 3103 1925 3103 
Q 1463 3103 1205 2759 
Q 947 2416 947 1791 
Q 947 1169 1205 825 
Q 1463 481 1925 481 
Q 2391 481 2648 825 
Q 2906 1169 2906 1791 
z
M 3481 434 
Q 3481 -459 3084 -895 
Q 2688 -1331 1869 -1331 
Q 1566 -1331 1297 -1286 
Q 1028 -1241 775 -1147 
L 775 -588 
Q 1028 -725 1275 -790 
Q 1522 -856 1778 -856 
Q 2344 -856 2625 -561 
Q 2906 -266 2906 331 
L 2906 616 
Q 2728 306 2450 153 
Q 2172 0 1784 0 
Q 1141 0 747 490 
Q 353 981 353 1791 
Q 353 2603 747 3093 
Q 1141 3584 1784 3584 
Q 2172 3584 2450 3431 
Q 2728 3278 2906 2969 
L 2906 3500 
L 3481 3500 
L 3481 434 
z
" transform="scale(0.015625)"/>
       <path id="DejaVuSans-75" d="M 544 1381 
L 544 3500 
L 1119 3500 
L 1119 1403 
Q 1119 906 1312 657 
Q 1506 409 1894 409 
Q 2359 409 2629 706 
Q 2900 1003 2900 1516 
L 2900 3500 
L 3475 3500 
L 3475 0 
L 2900 0 
L 2900 538 
Q 2691 219 2414 64 
Q 2138 -91 1772 -91 
Q 1169 -91 856 284 
Q 544 659 544 1381 
z
M 1991 3584 
L 1991 3584 
z
" transform="scale(0.015625)"/>
       <path id="DejaVuSans-68" d="M 3513 2113 
L 3513 0 
L 2938 0 
L 2938 2094 
Q 2938 2591 2744 2837 
Q 2550 3084 2163 3084 
Q 1697 3084 1428 2787 
Q 1159 2491 1159 1978 
L 1159 0 
L 581 0 
L 581 4863 
L 1159 4863 
L 1159 2956 
Q 1366 3272 1645 3428 
Q 1925 3584 2291 3584 
Q 2894 3584 3203 3211 
Q 3513 2838 3513 2113 
z
" transform="scale(0.015625)"/>
      </defs>
      <use xlink:href="#DejaVuSans-23"/>
      <use xlink:href="#DejaVuSans-20" x="83.789062"/>
      <use xlink:href="#DejaVuSans-49" x="115.576172"/>
      <use xlink:href="#DejaVuSans-6e" x="145.068359"/>
      <use xlink:href="#DejaVuSans-74" x="208.447266"/>
      <use xlink:href="#DejaVuSans-65" x="247.65625"/>
      <use xlink:href="#DejaVuSans-72" x="309.179688"/>
      <use xlink:href="#DejaVuSans-61" x="350.292969"/>
      <use xlink:href="#DejaVuSans-63" x="411.572266"/>
      <use xlink:href="#DejaVuSans-74" x="466.552734"/>
      <use xlink:href="#DejaVuSans-69" x="505.761719"/>
      <use xlink:href="#DejaVuSans-6e" x="533.544922"/>
      <use xlink:href="#DejaVuSans-67" x="596.923828"/>
      <use xlink:href="#DejaVuSans-20" x="660.400391"/>
      <use xlink:href="#DejaVuSans-61" x="692.1875"/>
      <use xlink:href="#DejaVuSans-75" x="753.466797"/>
      <use xlink:href="#DejaVuSans-74" x="816.845703"/>
      <use xlink:href="#DejaVuSans-68" x="856.054688"/>
      <use xlink:href="#DejaVuSans-6f" x="919.433594"/>
      <use xlink:href="#DejaVuSans-72" x="980.615234"/>
      <use xlink:href="#DejaVuSans-73" x="1021.728516"/>
     </g>
    </g>
   </g>
   <g id="patch_3">
    <path d="M 56.64375 386.44 
L 56.64375 72.212571 
" style="fill: none; stroke: #000000; stroke-width: 0.8; stroke-linejoin: miter; stroke-linecap: square"/>
   </g>
   <g id="patch_4">
    <path d="M 56.64375 386.44 
L 368.708607 386.44 
" style="fill: none; stroke: #000000; stroke-width: 0.8; stroke-linejoin: miter; stroke-linecap: square"/>
   </g>
  </g>
  <g id="axes_2">
   <g id="patch_5">
    <path d="M 56.64375 61.377143 
L 368.708607 61.377143 
L 368.708607 7.2 
L 56.64375 7.2 
z
" style="fill: #ffffff"/>
   </g>
   <g id="PolyCollection_1">
    <defs>
     <path id="m74da7db9d2" d="M 6.011256 -377.622793 
L 6.011256 -377.136295 
L 8.088291 -377.136295 
L 10.165325 -377.136295 
L 12.242359 -377.136295 
L 14.319394 -377.136295 
L 16.396428 -377.136295 
L 18.473463 -377.136295 
L 20.550497 -377.136295 
L 22.627531 -377.136295 
L 24.704566 -377.136295 
L 26.7816 -377.136295 
L 28.858635 -377.136295 
L 30.935669 -377.136295 
L 33.012703 -377.136295 
L 35.089738 -377.136295 
L 37.166772 -377.136295 
L 39.243807 -377.136295 
L 41.320841 -377.136295 
L 43.397875 -377.136295 
L 45.47491 -377.136295 
L 47.551944 -377.136295 
L 49.628979 -377.136295 
L 51.706013 -377.136295 
L 53.783047 -377.136295 
L 55.860082 -377.136295 
L 57.937116 -377.136295 
L 60.014151 -377.136295 
L 62.091185 -377.136295 
L 64.168219 -377.136295 
L 66.245254 -377.136295 
L 68.322288 -377.136295 
L 70.399322 -377.136295 
L 72.476357 -377.136295 
L 74.553391 -377.136295 
L 76.630426 -377.136295 
L 78.70746 -377.136295 
L 80.784494 -377.136295 
L 82.861529 -377.136295 
L 84.938563 -377.136295 
L 87.015598 -377.136295 
L 89.092632 -377.136295 
L 91.169666 -377.136295 
L 93.246701 -377.136295 
L 95.323735 -377.136295 
L 97.40077 -377.136295 
L 99.477804 -377.136295 
L 101.554838 -377.136295 
L 103.631873 -377.136295 
L 105.708907 -377.136295 
L 107.785942 -377.136295 
L 109.862976 -377.136295 
L 111.94001 -377.136295 
L 114.017045 -377.136295 
L 116.094079 -377.136295 
L 118.171114 -377.136295 
L 120.248148 -377.136295 
L 122.325182 -377.136295 
L 124.402217 -377.136295 
L 126.479251 -377.136295 
L 128.556286 -377.136295 
L 130.63332 -377.136295 
L 132.710354 -377.136295 
L 134.787389 -377.136295 
L 136.864423 -377.136295 
L 138.941458 -377.136295 
L 141.018492 -377.136295 
L 143.095526 -377.136295 
L 145.172561 -377.136295 
L 147.249595 -377.136295 
L 149.32663 -377.136295 
L 151.403664 -377.136295 
L 153.480698 -377.136295 
L 155.557733 -377.136295 
L 157.634767 -377.136295 
L 159.711801 -377.136295 
L 161.788836 -377.136295 
L 163.86587 -377.136295 
L 165.942905 -377.136295 
L 168.019939 -377.136295 
L 170.096973 -377.136295 
L 172.174008 -377.136295 
L 174.251042 -377.136295 
L 176.328077 -377.136295 
L 178.405111 -377.136295 
L 180.482145 -377.136295 
L 182.55918 -377.136295 
L 184.636214 -377.136295 
L 186.713249 -377.136295 
L 188.790283 -377.136295 
L 190.867317 -377.136295 
L 192.944352 -377.136295 
L 195.021386 -377.136295 
L 197.098421 -377.136295 
L 199.175455 -377.136295 
L 201.252489 -377.136295 
L 203.329524 -377.136295 
L 205.406558 -377.136295 
L 207.483593 -377.136295 
L 209.560627 -377.136295 
L 211.637661 -377.136295 
L 213.714696 -377.136295 
L 215.79173 -377.136295 
L 217.868765 -377.136295 
L 219.945799 -377.136295 
L 222.022833 -377.136295 
L 224.099868 -377.136295 
L 226.176902 -377.136295 
L 228.253937 -377.136295 
L 230.330971 -377.136295 
L 232.408005 -377.136295 
L 234.48504 -377.136295 
L 236.562074 -377.136295 
L 238.639109 -377.136295 
L 240.716143 -377.136295 
L 242.793177 -377.136295 
L 244.870212 -377.136295 
L 246.947246 -377.136295 
L 249.02428 -377.136295 
L 251.101315 -377.136295 
L 253.178349 -377.136295 
L 255.255384 -377.136295 
L 257.332418 -377.136295 
L 259.409452 -377.136295 
L 261.486487 -377.136295 
L 263.563521 -377.136295 
L 265.640556 -377.136295 
L 267.71759 -377.136295 
L 269.794624 -377.136295 
L 271.871659 -377.136295 
L 273.948693 -377.136295 
L 276.025728 -377.136295 
L 278.102762 -377.136295 
L 280.179796 -377.136295 
L 282.256831 -377.136295 
L 284.333865 -377.136295 
L 286.4109 -377.136295 
L 288.487934 -377.136295 
L 290.564968 -377.136295 
L 292.642003 -377.136295 
L 294.719037 -377.136295 
L 296.796072 -377.136295 
L 298.873106 -377.136295 
L 300.95014 -377.136295 
L 303.027175 -377.136295 
L 305.104209 -377.136295 
L 307.181244 -377.136295 
L 309.258278 -377.136295 
L 311.335312 -377.136295 
L 313.412347 -377.136295 
L 315.489381 -377.136295 
L 317.566416 -377.136295 
L 319.64345 -377.136295 
L 321.720484 -377.136295 
L 323.797519 -377.136295 
L 325.874553 -377.136295 
L 327.951588 -377.136295 
L 330.028622 -377.136295 
L 332.105656 -377.136295 
L 334.182691 -377.136295 
L 336.259725 -377.136295 
L 338.336759 -377.136295 
L 340.413794 -377.136295 
L 342.490828 -377.136295 
L 344.567863 -377.136295 
L 346.644897 -377.136295 
L 348.721931 -377.136295 
L 350.798966 -377.136295 
L 352.876 -377.136295 
L 354.953035 -377.136295 
L 357.030069 -377.136295 
L 359.107103 -377.136295 
L 361.184138 -377.136295 
L 363.261172 -377.136295 
L 365.338207 -377.136295 
L 367.415241 -377.136295 
L 369.492275 -377.136295 
L 371.56931 -377.136295 
L 373.646344 -377.136295 
L 375.723379 -377.136295 
L 377.800413 -377.136295 
L 379.877447 -377.136295 
L 381.954482 -377.136295 
L 384.031516 -377.136295 
L 386.108551 -377.136295 
L 388.185585 -377.136295 
L 390.262619 -377.136295 
L 392.339654 -377.136295 
L 394.416688 -377.136295 
L 396.493723 -377.136295 
L 398.570757 -377.136295 
L 400.647791 -377.136295 
L 402.724826 -377.136295 
L 404.80186 -377.136295 
L 406.878895 -377.136295 
L 408.955929 -377.136295 
L 411.032963 -377.136295 
L 413.109998 -377.136295 
L 415.187032 -377.136295 
L 417.264067 -377.136295 
L 419.341101 -377.136295 
L 419.341101 -377.148428 
L 419.341101 -377.148428 
L 417.264067 -377.152409 
L 415.187032 -377.1575 
L 413.109998 -377.163943 
L 411.032963 -377.172011 
L 408.955929 -377.182009 
L 406.878895 -377.194268 
L 404.80186 -377.209138 
L 402.724826 -377.226981 
L 400.647791 -377.248155 
L 398.570757 -377.273004 
L 396.493723 -377.301836 
L 394.416688 -377.334904 
L 392.339654 -377.372386 
L 390.262619 -377.414361 
L 388.185585 -377.460785 
L 386.108551 -377.511476 
L 384.031516 -377.566096 
L 381.954482 -377.624138 
L 379.877447 -377.684925 
L 377.800413 -377.747611 
L 375.723379 -377.811192 
L 373.646344 -377.874532 
L 371.56931 -377.936389 
L 369.492275 -377.995452 
L 367.415241 -378.050388 
L 365.338207 -378.099891 
L 363.261172 -378.142732 
L 361.184138 -378.177808 
L 359.107103 -378.204193 
L 357.030069 -378.221177 
L 354.953035 -378.228296 
L 352.876 -378.225356 
L 350.798966 -378.212443 
L 348.721931 -378.189914 
L 346.644897 -378.158389 
L 344.567863 -378.118718 
L 342.490828 -378.071946 
L 340.413794 -378.019272 
L 338.336759 -377.961996 
L 336.259725 -377.901474 
L 334.182691 -377.839067 
L 332.105656 -377.776094 
L 330.028622 -377.7138 
L 327.951588 -377.653321 
L 325.874553 -377.595663 
L 323.797519 -377.541689 
L 321.720484 -377.492116 
L 319.64345 -377.447519 
L 317.566416 -377.408341 
L 315.489381 -377.374912 
L 313.412347 -377.34746 
L 311.335312 -377.326142 
L 309.258278 -377.311054 
L 307.181244 -377.302251 
L 305.104209 -377.299761 
L 303.027175 -377.303591 
L 300.95014 -377.31373 
L 298.873106 -377.330145 
L 296.796072 -377.352773 
L 294.719037 -377.381507 
L 292.642003 -377.416178 
L 290.564968 -377.456536 
L 288.487934 -377.50223 
L 286.4109 -377.552789 
L 284.333865 -377.607609 
L 282.256831 -377.665942 
L 280.179796 -377.726895 
L 278.102762 -377.789431 
L 276.025728 -377.852391 
L 273.948693 -377.914512 
L 271.871659 -377.97446 
L 269.794624 -378.030872 
L 267.71759 -378.082401 
L 265.640556 -378.127764 
L 263.563521 -378.165791 
L 261.486487 -378.195476 
L 259.409452 -378.216013 
L 257.332418 -378.22684 
L 255.255384 -378.227655 
L 253.178349 -378.218436 
L 251.101315 -378.199437 
L 249.02428 -378.17118 
L 246.947246 -378.134431 
L 244.870212 -378.090163 
L 242.793177 -378.039522 
L 240.716143 -377.983771 
L 238.639109 -377.924248 
L 236.562074 -377.862311 
L 234.48504 -377.799295 
L 232.408005 -377.736468 
L 230.330971 -377.675001 
L 228.253937 -377.615939 
L 226.176902 -377.560187 
L 224.099868 -377.508501 
L 222.022833 -377.461492 
L 219.945799 -377.419632 
L 217.868765 -377.383272 
L 215.79173 -377.352657 
L 213.714696 -377.327949 
L 211.637661 -377.309247 
L 209.560627 -377.296605 
L 207.483593 -377.290053 
L 205.406558 -377.289602 
L 203.329524 -377.295255 
L 201.252489 -377.307008 
L 199.175455 -377.324843 
L 197.098421 -377.348717 
L 195.021386 -377.378551 
L 192.944352 -377.41421 
L 190.867317 -377.455485 
L 188.790283 -377.502073 
L 186.713249 -377.553563 
L 184.636214 -377.609421 
L 182.55918 -377.668988 
L 180.482145 -377.731482 
L 178.405111 -377.796007 
L 176.328077 -377.861582 
L 174.251042 -377.927171 
L 172.174008 -377.99173 
L 170.096973 -378.054261 
L 168.019939 -378.113874 
L 165.942905 -378.169856 
L 163.86587 -378.221751 
L 161.788836 -378.269425 
L 159.711801 -378.313152 
L 157.634767 -378.353676 
L 155.557733 -378.39229 
L 153.480698 -378.43089 
L 151.403664 -378.472038 
L 149.32663 -378.519013 
L 147.249595 -378.57586 
L 145.172561 -378.647436 
L 143.095526 -378.739451 
L 141.018492 -378.858509 
L 138.941458 -379.012146 
L 136.864423 -379.208858 
L 134.787389 -379.458125 
L 132.710354 -379.77041 
L 130.63332 -380.15713 
L 128.556286 -380.630591 
L 126.479251 -381.203868 
L 124.402217 -381.890605 
L 122.325182 -382.704747 
L 120.248148 -383.660159 
L 118.171114 -384.770151 
L 116.094079 -386.046889 
L 114.017045 -387.500707 
L 111.94001 -389.139325 
L 109.862976 -390.967019 
L 107.785942 -392.983753 
L 105.708907 -395.184347 
L 103.631873 -397.557716 
L 101.554838 -400.086265 
L 99.477804 -402.745477 
L 97.40077 -405.503777 
L 95.323735 -408.322714 
L 93.246701 -411.157498 
L 91.169666 -413.957908 
L 89.092632 -416.669572 
L 87.015598 -419.235579 
L 84.938563 -421.598372 
L 82.861529 -423.701832 
L 80.784494 -425.493456 
L 78.70746 -426.926509 
L 76.630426 -427.962033 
L 74.553391 -428.570579 
L 72.476357 -428.733574 
L 70.399322 -428.444216 
L 68.322288 -427.707854 
L 66.245254 -426.541815 
L 64.168219 -424.974684 
L 62.091185 -423.0451 
L 60.014151 -420.800113 
L 57.937116 -418.293218 
L 55.860082 -415.582187 
L 53.783047 -412.726811 
L 51.706013 -409.786676 
L 49.628979 -406.819105 
L 47.551944 -403.877346 
L 45.47491 -401.009084 
L 43.397875 -398.255336 
L 41.320841 -395.649738 
L 39.243807 -393.218228 
L 37.166772 -390.979091 
L 35.089738 -388.943328 
L 33.012703 -387.115277 
L 30.935669 -385.493435 
L 28.858635 -384.071396 
L 26.7816 -382.83885 
L 24.704566 -381.78258 
L 22.627531 -380.887408 
L 20.550497 -380.137052 
L 18.473463 -379.514869 
L 16.396428 -379.004464 
L 14.319394 -378.590173 
L 12.242359 -378.257414 
L 10.165325 -377.99291 
L 8.088291 -377.784824 
L 6.011256 -377.622793 
z
" style="stroke: #1f77b4"/>
    </defs>
    <g clip-path="url(#pf3f597e5d0)">
     <use xlink:href="#m74da7db9d2" x="0" y="438.513437" style="fill: #1f77b4; fill-opacity: 0.25; stroke: #1f77b4"/>
    </g>
   </g>
   <g id="matplotlib.axis_3">
    <g id="xtick_6">
     <g id="line2d_11">
      <g>
       <use xlink:href="#m767fce824c" x="69.550609" y="61.377143" style="stroke: #000000; stroke-width: 0.8"/>
      </g>
     </g>
    </g>
    <g id="xtick_7">
     <g id="line2d_12">
      <g>
       <use xlink:href="#m767fce824c" x="133.445953" y="61.377143" style="stroke: #000000; stroke-width: 0.8"/>
      </g>
     </g>
    </g>
    <g id="xtick_8">
     <g id="line2d_13">
      <g>
       <use xlink:href="#m767fce824c" x="197.341296" y="61.377143" style="stroke: #000000; stroke-width: 0.8"/>
      </g>
     </g>
    </g>
    <g id="xtick_9">
     <g id="line2d_14">
      <g>
       <use xlink:href="#m767fce824c" x="261.23664" y="61.377143" style="stroke: #000000; stroke-width: 0.8"/>
      </g>
     </g>
    </g>
    <g id="xtick_10">
     <g id="line2d_15">
      <g>
       <use xlink:href="#m767fce824c" x="325.131983" y="61.377143" style="stroke: #000000; stroke-width: 0.8"/>
      </g>
     </g>
    </g>
   </g>
   <g id="matplotlib.axis_4">
    <g id="ytick_6"/>
    <g id="ytick_7"/>
   </g>
   <g id="patch_6">
    <path d="M 56.64375 61.377143 
L 368.708607 61.377143 
" style="fill: none; stroke: #000000; stroke-width: 0.8; stroke-linejoin: miter; stroke-linecap: square"/>
   </g>
  </g>
  <g id="axes_3">
   <g id="patch_7">
    <path d="M 379.469464 386.44 
L 433.27375 386.44 
L 433.27375 72.212571 
L 379.469464 72.212571 
z
" style="fill: #ffffff"/>
   </g>
   <g id="PolyCollection_2">
    <path d="M 379.591704 482.392824 
L 379.469464 482.392824 
L 379.469464 479.849442 
L 379.469464 477.306059 
L 379.469464 474.762677 
L 379.469464 472.219295 
L 379.469464 469.675912 
L 379.469464 467.13253 
L 379.469464 464.589148 
L 379.469464 462.045766 
L 379.469464 459.502383 
L 379.469464 456.959001 
L 379.469464 454.415619 
L 379.469464 451.872236 
L 379.469464 449.328854 
L 379.469464 446.785472 
L 379.469464 444.24209 
L 379.469464 441.698707 
L 379.469464 439.155325 
L 379.469464 436.611943 
L 379.469464 434.06856 
L 379.469464 431.525178 
L 379.469464 428.981796 
L 379.469464 426.438413 
L 379.469464 423.895031 
L 379.469464 421.351649 
L 379.469464 418.808267 
L 379.469464 416.264884 
L 379.469464 413.721502 
L 379.469464 411.17812 
L 379.469464 408.634737 
L 379.469464 406.091355 
L 379.469464 403.547973 
L 379.469464 401.004591 
L 379.469464 398.461208 
L 379.469464 395.917826 
L 379.469464 393.374444 
L 379.469464 390.831061 
L 379.469464 388.287679 
L 379.469464 385.744297 
L 379.469464 383.200914 
L 379.469464 380.657532 
L 379.469464 378.11415 
L 379.469464 375.570768 
L 379.469464 373.027385 
L 379.469464 370.484003 
L 379.469464 367.940621 
L 379.469464 365.397238 
L 379.469464 362.853856 
L 379.469464 360.310474 
L 379.469464 357.767092 
L 379.469464 355.223709 
L 379.469464 352.680327 
L 379.469464 350.136945 
L 379.469464 347.593562 
L 379.469464 345.05018 
L 379.469464 342.506798 
L 379.469464 339.963415 
L 379.469464 337.420033 
L 379.469464 334.876651 
L 379.469464 332.333269 
L 379.469464 329.789886 
L 379.469464 327.246504 
L 379.469464 324.703122 
L 379.469464 322.159739 
L 379.469464 319.616357 
L 379.469464 317.072975 
L 379.469464 314.529593 
L 379.469464 311.98621 
L 379.469464 309.442828 
L 379.469464 306.899446 
L 379.469464 304.356063 
L 379.469464 301.812681 
L 379.469464 299.269299 
L 379.469464 296.725916 
L 379.469464 294.182534 
L 379.469464 291.639152 
L 379.469464 289.09577 
L 379.469464 286.552387 
L 379.469464 284.009005 
L 379.469464 281.465623 
L 379.469464 278.92224 
L 379.469464 276.378858 
L 379.469464 273.835476 
L 379.469464 271.292094 
L 379.469464 268.748711 
L 379.469464 266.205329 
L 379.469464 263.661947 
L 379.469464 261.118564 
L 379.469464 258.575182 
L 379.469464 256.0318 
L 379.469464 253.488418 
L 379.469464 250.945035 
L 379.469464 248.401653 
L 379.469464 245.858271 
L 379.469464 243.314888 
L 379.469464 240.771506 
L 379.469464 238.228124 
L 379.469464 235.684741 
L 379.469464 233.141359 
L 379.469464 230.597977 
L 379.469464 228.054595 
L 379.469464 225.511212 
L 379.469464 222.96783 
L 379.469464 220.424448 
L 379.469464 217.881065 
L 379.469464 215.337683 
L 379.469464 212.794301 
L 379.469464 210.250919 
L 379.469464 207.707536 
L 379.469464 205.164154 
L 379.469464 202.620772 
L 379.469464 200.077389 
L 379.469464 197.534007 
L 379.469464 194.990625 
L 379.469464 192.447242 
L 379.469464 189.90386 
L 379.469464 187.360478 
L 379.469464 184.817096 
L 379.469464 182.273713 
L 379.469464 179.730331 
L 379.469464 177.186949 
L 379.469464 174.643566 
L 379.469464 172.100184 
L 379.469464 169.556802 
L 379.469464 167.01342 
L 379.469464 164.470037 
L 379.469464 161.926655 
L 379.469464 159.383273 
L 379.469464 156.83989 
L 379.469464 154.296508 
L 379.469464 151.753126 
L 379.469464 149.209743 
L 379.469464 146.666361 
L 379.469464 144.122979 
L 379.469464 141.579597 
L 379.469464 139.036214 
L 379.469464 136.492832 
L 379.469464 133.94945 
L 379.469464 131.406067 
L 379.469464 128.862685 
L 379.469464 126.319303 
L 379.469464 123.775921 
L 379.469464 121.232538 
L 379.469464 118.689156 
L 379.469464 116.145774 
L 379.469464 113.602391 
L 379.469464 111.059009 
L 379.469464 108.515627 
L 379.469464 105.972244 
L 379.469464 103.428862 
L 379.469464 100.88548 
L 379.469464 98.342098 
L 379.469464 95.798715 
L 379.469464 93.255333 
L 379.469464 90.711951 
L 379.469464 88.168568 
L 379.469464 85.625186 
L 379.469464 83.081804 
L 379.469464 80.538422 
L 379.469464 77.995039 
L 379.469464 75.451657 
L 379.469464 72.908275 
L 379.469464 70.364892 
L 379.469464 67.82151 
L 379.469464 65.278128 
L 379.469464 62.734745 
L 379.469464 60.191363 
L 379.469464 57.647981 
L 379.469464 55.104599 
L 379.469464 52.561216 
L 379.469464 50.017834 
L 379.469464 47.474452 
L 379.469464 44.931069 
L 379.469464 42.387687 
L 379.469464 39.844305 
L 379.469464 37.300923 
L 379.469464 34.75754 
L 379.469464 32.214158 
L 379.469464 29.670776 
L 379.469464 27.127393 
L 379.469464 24.584011 
L 379.469464 22.040629 
L 379.469464 19.497246 
L 379.469464 16.953864 
L 379.469464 14.410482 
L 379.469464 11.8671 
L 379.469464 9.323717 
L 379.469464 6.780335 
L 379.469464 4.236953 
L 379.469464 1.69357 
L 379.469464 -0.849812 
L 379.469464 -3.393194 
L 379.469464 -5.936576 
L 379.469464 -8.479959 
L 379.469464 -11.023341 
L 379.469464 -13.566723 
L 379.469464 -16.110106 
L 379.469464 -18.653488 
L 379.469464 -21.19687 
L 379.469464 -23.740253 
L 379.51629 -23.740253 
L 379.51629 -23.740253 
L 379.527602 -21.19687 
L 379.541323 -18.653488 
L 379.557885 -16.110106 
L 379.57778 -13.566723 
L 379.601562 -11.023341 
L 379.629851 -8.479959 
L 379.663339 -5.936576 
L 379.702786 -3.393194 
L 379.749026 -0.849812 
L 379.802964 1.69357 
L 379.865575 4.236953 
L 379.937896 6.780335 
L 380.021026 9.323717 
L 380.116113 11.8671 
L 380.224344 14.410482 
L 380.346934 16.953864 
L 380.485111 19.497246 
L 380.640096 22.040629 
L 380.813091 24.584011 
L 381.005251 27.127393 
L 381.217668 29.670776 
L 381.451351 32.214158 
L 381.707203 34.75754 
L 381.986001 37.300923 
L 382.288384 39.844305 
L 382.614831 42.387687 
L 382.965659 44.931069 
L 383.341014 47.474452 
L 383.740869 50.017834 
L 384.165036 52.561216 
L 384.613177 55.104599 
L 385.084823 57.647981 
L 385.579406 60.191363 
L 386.096292 62.734745 
L 386.634821 65.278128 
L 387.194359 67.82151 
L 387.774344 70.364892 
L 388.374342 72.908275 
L 388.994102 75.451657 
L 389.633607 77.995039 
L 390.293124 80.538422 
L 390.973244 83.081804 
L 391.674913 85.625186 
L 392.399451 88.168568 
L 393.148558 90.711951 
L 393.924294 93.255333 
L 394.729056 95.798715 
L 395.565514 98.342098 
L 396.436544 100.88548 
L 397.345131 103.428862 
L 398.29425 105.972244 
L 399.28674 108.515627 
L 400.325154 111.059009 
L 401.411598 113.602391 
L 402.547575 116.145774 
L 403.733814 118.689156 
L 404.970116 121.232538 
L 406.25521 123.775921 
L 407.586622 126.319303 
L 408.960582 128.862685 
L 410.37195 131.406067 
L 411.814188 133.94945 
L 413.27937 136.492832 
L 414.758242 139.036214 
L 416.240322 141.579597 
L 417.714054 144.122979 
L 419.167 146.666361 
L 420.586083 149.209743 
L 421.957859 151.753126 
L 423.268821 154.296508 
L 424.505724 156.83989 
L 425.655923 159.383273 
L 426.707705 161.926655 
L 427.650621 164.470037 
L 428.475783 167.01342 
L 429.17614 169.556802 
L 429.746703 172.100184 
L 430.184725 174.643566 
L 430.489811 177.186949 
L 430.663979 179.730331 
L 430.711641 182.273713 
L 430.639523 184.817096 
L 430.456514 187.360478 
L 430.173459 189.90386 
L 429.80289 192.447242 
L 429.358709 194.990625 
L 428.855838 197.534007 
L 428.309836 200.077389 
L 427.736506 202.620772 
L 427.151492 205.164154 
L 426.569889 207.707536 
L 426.00588 210.250919 
L 425.472389 212.794301 
L 424.980791 215.337683 
L 424.540665 217.881065 
L 424.159596 220.424448 
L 423.843053 222.96783 
L 423.594308 225.511212 
L 423.41444 228.054595 
L 423.302383 230.597977 
L 423.25504 233.141359 
L 423.267447 235.684741 
L 423.332989 238.228124 
L 423.443646 240.771506 
L 423.590279 243.314888 
L 423.762933 245.858271 
L 423.951153 248.401653 
L 424.144307 250.945035 
L 424.331901 253.488418 
L 424.503878 256.0318 
L 424.650899 258.575182 
L 424.76459 261.118564 
L 424.83776 263.661947 
L 424.864569 266.205329 
L 424.840659 268.748711 
L 424.763234 271.292094 
L 424.631091 273.835476 
L 424.444606 276.378858 
L 424.205666 278.92224 
L 423.917566 281.465623 
L 423.584853 284.009005 
L 423.213147 286.552387 
L 422.808922 289.09577 
L 422.379272 291.639152 
L 421.931655 294.182534 
L 421.47363 296.725916 
L 421.012601 299.269299 
L 420.555561 301.812681 
L 420.108855 304.356063 
L 419.677966 306.899446 
L 419.267328 309.442828 
L 418.880181 311.98621 
L 418.518452 314.529593 
L 418.182694 317.072975 
L 417.872056 319.616357 
L 417.584303 322.159739 
L 417.315882 324.703122 
L 417.062026 327.246504 
L 416.816891 329.789886 
L 416.573738 332.333269 
L 416.32513 334.876651 
L 416.063158 337.420033 
L 415.779675 339.963415 
L 415.466537 342.506798 
L 415.115847 345.05018 
L 414.720187 347.593562 
L 414.272831 350.136945 
L 413.767943 352.680327 
L 413.200742 355.223709 
L 412.567641 357.767092 
L 411.866341 360.310474 
L 411.095902 362.853856 
L 410.256759 365.397238 
L 409.350719 367.940621 
L 408.380904 370.484003 
L 407.351671 373.027385 
L 406.268501 375.570768 
L 405.137859 378.11415 
L 403.967035 380.657532 
L 402.76397 383.200914 
L 401.537073 385.744297 
L 400.295034 388.287679 
L 399.046635 390.831061 
L 397.800576 393.374444 
L 396.565303 395.917826 
L 395.348855 398.461208 
L 394.158736 401.004591 
L 393.001794 403.547973 
L 391.88414 406.091355 
L 390.81107 408.634737 
L 389.787033 411.17812 
L 388.815602 413.721502 
L 387.899479 416.264884 
L 387.040515 418.808267 
L 386.239745 421.351649 
L 385.497442 423.895031 
L 384.813182 426.438413 
L 384.185914 428.981796 
L 383.614042 431.525178 
L 383.095505 434.06856 
L 382.627861 436.611943 
L 382.208369 439.155325 
L 381.83407 441.698707 
L 381.501855 444.24209 
L 381.208538 446.785472 
L 380.950914 449.328854 
L 380.725812 451.872236 
L 380.530142 454.415619 
L 380.360929 456.959001 
L 380.215343 459.502383 
L 380.090723 462.045766 
L 379.984591 464.589148 
L 379.894661 467.13253 
L 379.818844 469.675912 
L 379.755245 472.219295 
L 379.702164 474.762677 
L 379.658081 477.306059 
L 379.621654 479.849442 
L 379.591704 482.392824 
z
" clip-path="url(#p75bee7be3d)" style="fill: #1f77b4; fill-opacity: 0.25; stroke: #1f77b4"/>
   </g>
   <g id="matplotlib.axis_5">
    <g id="xtick_11"/>
    <g id="xtick_12"/>
   </g>
   <g id="matplotlib.axis_6">
    <g id="ytick_8">
     <g id="line2d_16">
      <g>
       <use xlink:href="#m1fc65768c7" x="379.469464" y="375.440398" style="stroke: #000000; stroke-width: 0.8"/>
      </g>
     </g>
    </g>
    <g id="ytick_9">
     <g id="line2d_17">
      <g>
       <use xlink:href="#m1fc65768c7" x="379.469464" y="309.771134" style="stroke: #000000; stroke-width: 0.8"/>
      </g>
     </g>
    </g>
    <g id="ytick_10">
     <g id="line2d_18">
      <g>
       <use xlink:href="#m1fc65768c7" x="379.469464" y="244.10187" style="stroke: #000000; stroke-width: 0.8"/>
      </g>
     </g>
    </g>
    <g id="ytick_11">
     <g id="line2d_19">
      <g>
       <use xlink:href="#m1fc65768c7" x="379.469464" y="178.432606" style="stroke: #000000; stroke-width: 0.8"/>
      </g>
     </g>
    </g>
    <g id="ytick_12">
     <g id="line2d_20">
      <g>
       <use xlink:href="#m1fc65768c7" x="379.469464" y="112.763342" style="stroke: #000000; stroke-width: 0.8"/>
      </g>
     </g>
    </g>
   </g>
   <g id="patch_8">
    <path d="M 379.469464 386.44 
L 379.469464 72.212571 
" style="fill: none; stroke: #000000; stroke-width: 0.8; stroke-linejoin: miter; stroke-linecap: square"/>
   </g>
  </g>
 </g>
 <defs>
  <clipPath id="p66d72c0be1">
   <rect x="56.64375" y="72.212571" width="312.064857" height="314.227429"/>
  </clipPath>
  <clipPath id="pf3f597e5d0">
   <rect x="56.64375" y="7.2" width="312.064857" height="54.177143"/>
  </clipPath>
  <clipPath id="p75bee7be3d">
   <rect x="379.469464" y="72.212571" width="53.804286" height="314.227429"/>
  </clipPath>
 </defs>
</svg>
