<?xml version="1.0" encoding="utf-8" standalone="no"?>
<!DOCTYPE svg PUBLIC "-//W3C//DTD SVG 1.1//EN"
  "http://www.w3.org/Graphics/SVG/1.1/DTD/svg11.dtd">
<svg xmlns:xlink="http://www.w3.org/1999/xlink" width="414.641875pt" height="150.520479pt" viewBox="0 0 414.641875 150.520479" xmlns="http://www.w3.org/2000/svg" version="1.1">
 <metadata>
  <rdf:RDF xmlns:dc="http://purl.org/dc/elements/1.1/" xmlns:cc="http://creativecommons.org/ns#" xmlns:rdf="http://www.w3.org/1999/02/22-rdf-syntax-ns#">
   <cc:Work>
    <dc:type rdf:resource="http://purl.org/dc/dcmitype/StillImage"/>
    <dc:date>2022-12-10T11:00:46.029190</dc:date>
    <dc:format>image/svg+xml</dc:format>
    <dc:creator>
     <cc:Agent>
      <dc:title>Matplotlib v3.6.2, https://matplotlib.org/</dc:title>
     </cc:Agent>
    </dc:creator>
   </cc:Work>
  </rdf:RDF>
 </metadata>
 <defs>
  <style type="text/css">*{stroke-linejoin: round; stroke-linecap: butt}</style>
 </defs>
 <g id="figure_1">
  <g id="patch_1">
   <path d="M 0 150.520479 
L 414.641875 150.520479 
L 414.641875 0 
L 0 0 
z
" style="fill: #ffffff"/>
  </g>
  <g id="axes_1">
   <g id="patch_2">
    <path d="M 50.321875 139.332094 
L 407.441875 139.332094 
L 407.441875 32.196094 
L 50.321875 32.196094 
z
" style="fill: #ffffff"/>
   </g>
   <g id="patch_3">
    <path d="M 51.437875 52.64933 
L 60.365875 52.64933 
L 60.365875 52.64933 
L 51.437875 52.64933 
z
" clip-path="url(#p4c6b8bf067)" style="fill: #3274a1"/>
   </g>
   <g id="patch_4">
    <path d="M 62.597875 52.64933 
L 71.525875 52.64933 
L 71.525875 37.065912 
L 62.597875 37.065912 
z
" clip-path="url(#p4c6b8bf067)" style="fill: #3274a1"/>
   </g>
   <g id="patch_5">
    <path d="M 73.757875 52.64933 
L 82.685875 52.64933 
L 82.685875 40.961766 
L 73.757875 40.961766 
z
" clip-path="url(#p4c6b8bf067)" style="fill: #3274a1"/>
   </g>
   <g id="patch_6">
    <path d="M 84.917875 52.64933 
L 93.845875 52.64933 
L 93.845875 52.64933 
L 84.917875 52.64933 
z
" clip-path="url(#p4c6b8bf067)" style="fill: #3274a1"/>
   </g>
   <g id="patch_7">
    <path d="M 96.077875 52.64933 
L 105.005875 52.64933 
L 105.005875 52.64933 
L 96.077875 52.64933 
z
" clip-path="url(#p4c6b8bf067)" style="fill: #3274a1"/>
   </g>
   <g id="patch_8">
    <path d="M 107.237875 52.64933 
L 116.165875 52.64933 
L 116.165875 40.961766 
L 107.237875 40.961766 
z
" clip-path="url(#p4c6b8bf067)" style="fill: #3274a1"/>
   </g>
   <g id="patch_9">
    <path d="M 118.397875 52.64933 
L 127.325875 52.64933 
L 127.325875 37.065912 
L 118.397875 37.065912 
z
" clip-path="url(#p4c6b8bf067)" style="fill: #3274a1"/>
   </g>
   <g id="patch_10">
    <path d="M 129.557875 52.64933 
L 138.485875 52.64933 
L 138.485875 48.753476 
L 129.557875 48.753476 
z
" clip-path="url(#p4c6b8bf067)" style="fill: #3274a1"/>
   </g>
   <g id="patch_11">
    <path d="M 140.717875 52.64933 
L 149.645875 52.64933 
L 149.645875 52.64933 
L 140.717875 52.64933 
z
" clip-path="url(#p4c6b8bf067)" style="fill: #3274a1"/>
   </g>
   <g id="patch_12">
    <path d="M 151.877875 52.64933 
L 160.805875 52.64933 
L 160.805875 52.64933 
L 151.877875 52.64933 
z
" clip-path="url(#p4c6b8bf067)" style="fill: #3274a1"/>
   </g>
   <g id="patch_13">
    <path d="M 163.037875 52.64933 
L 171.965875 52.64933 
L 171.965875 52.64933 
L 163.037875 52.64933 
z
" clip-path="url(#p4c6b8bf067)" style="fill: #3274a1"/>
   </g>
   <g id="patch_14">
    <path d="M 174.197875 52.64933 
L 183.125875 52.64933 
L 183.125875 52.64933 
L 174.197875 52.64933 
z
" clip-path="url(#p4c6b8bf067)" style="fill: #3274a1"/>
   </g>
   <g id="patch_15">
    <path d="M 185.357875 52.64933 
L 194.285875 52.64933 
L 194.285875 52.64933 
L 185.357875 52.64933 
z
" clip-path="url(#p4c6b8bf067)" style="fill: #3274a1"/>
   </g>
   <g id="patch_16">
    <path d="M 196.517875 52.64933 
L 205.445875 52.64933 
L 205.445875 52.64933 
L 196.517875 52.64933 
z
" clip-path="url(#p4c6b8bf067)" style="fill: #3274a1"/>
   </g>
   <g id="patch_17">
    <path d="M 207.677875 52.64933 
L 216.605875 52.64933 
L 216.605875 52.64933 
L 207.677875 52.64933 
z
" clip-path="url(#p4c6b8bf067)" style="fill: #3274a1"/>
   </g>
   <g id="patch_18">
    <path d="M 218.837875 52.64933 
L 227.765875 52.64933 
L 227.765875 44.857621 
L 218.837875 44.857621 
z
" clip-path="url(#p4c6b8bf067)" style="fill: #3274a1"/>
   </g>
   <g id="patch_19">
    <path d="M 229.997875 52.64933 
L 238.925875 52.64933 
L 238.925875 48.753476 
L 229.997875 48.753476 
z
" clip-path="url(#p4c6b8bf067)" style="fill: #3274a1"/>
   </g>
   <g id="patch_20">
    <path d="M 241.157875 52.64933 
L 250.085875 52.64933 
L 250.085875 52.64933 
L 241.157875 52.64933 
z
" clip-path="url(#p4c6b8bf067)" style="fill: #3274a1"/>
   </g>
   <g id="patch_21">
    <path d="M 252.317875 52.64933 
L 261.245875 52.64933 
L 261.245875 52.64933 
L 252.317875 52.64933 
z
" clip-path="url(#p4c6b8bf067)" style="fill: #3274a1"/>
   </g>
   <g id="patch_22">
    <path d="M 263.477875 52.64933 
L 272.405875 52.64933 
L 272.405875 40.961766 
L 263.477875 40.961766 
z
" clip-path="url(#p4c6b8bf067)" style="fill: #3274a1"/>
   </g>
   <g id="patch_23">
    <path d="M 274.637875 52.64933 
L 283.565875 52.64933 
L 283.565875 52.64933 
L 274.637875 52.64933 
z
" clip-path="url(#p4c6b8bf067)" style="fill: #3274a1"/>
   </g>
   <g id="patch_24">
    <path d="M 285.797875 52.64933 
L 294.725875 52.64933 
L 294.725875 48.753476 
L 285.797875 48.753476 
z
" clip-path="url(#p4c6b8bf067)" style="fill: #3274a1"/>
   </g>
   <g id="patch_25">
    <path d="M 296.957875 52.64933 
L 305.885875 52.64933 
L 305.885875 52.64933 
L 296.957875 52.64933 
z
" clip-path="url(#p4c6b8bf067)" style="fill: #3274a1"/>
   </g>
   <g id="patch_26">
    <path d="M 308.117875 52.64933 
L 317.045875 52.64933 
L 317.045875 48.753476 
L 308.117875 48.753476 
z
" clip-path="url(#p4c6b8bf067)" style="fill: #3274a1"/>
   </g>
   <g id="patch_27">
    <path d="M 319.277875 52.64933 
L 328.205875 52.64933 
L 328.205875 52.64933 
L 319.277875 52.64933 
z
" clip-path="url(#p4c6b8bf067)" style="fill: #3274a1"/>
   </g>
   <g id="patch_28">
    <path d="M 330.437875 52.64933 
L 339.365875 52.64933 
L 339.365875 48.753476 
L 330.437875 48.753476 
z
" clip-path="url(#p4c6b8bf067)" style="fill: #3274a1"/>
   </g>
   <g id="patch_29">
    <path d="M 341.597875 52.64933 
L 350.525875 52.64933 
L 350.525875 52.64933 
L 341.597875 52.64933 
z
" clip-path="url(#p4c6b8bf067)" style="fill: #3274a1"/>
   </g>
   <g id="patch_30">
    <path d="M 352.757875 52.64933 
L 361.685875 52.64933 
L 361.685875 52.64933 
L 352.757875 52.64933 
z
" clip-path="url(#p4c6b8bf067)" style="fill: #3274a1"/>
   </g>
   <g id="patch_31">
    <path d="M 363.917875 52.64933 
L 372.845875 52.64933 
L 372.845875 48.753476 
L 363.917875 48.753476 
z
" clip-path="url(#p4c6b8bf067)" style="fill: #3274a1"/>
   </g>
   <g id="patch_32">
    <path d="M 375.077875 52.64933 
L 384.005875 52.64933 
L 384.005875 37.065912 
L 375.077875 37.065912 
z
" clip-path="url(#p4c6b8bf067)" style="fill: #3274a1"/>
   </g>
   <g id="patch_33">
    <path d="M 386.237875 52.64933 
L 395.165875 52.64933 
L 395.165875 52.64933 
L 386.237875 52.64933 
z
" clip-path="url(#p4c6b8bf067)" style="fill: #3274a1"/>
   </g>
   <g id="patch_34">
    <path d="M 397.397875 52.64933 
L 406.325875 52.64933 
L 406.325875 52.64933 
L 397.397875 52.64933 
z
" clip-path="url(#p4c6b8bf067)" style="fill: #3274a1"/>
   </g>
   <g id="patch_35">
    <path d="M 51.437875 52.64933 
L 60.365875 52.64933 
L 60.365875 83.816166 
L 51.437875 83.816166 
z
" clip-path="url(#p4c6b8bf067)" style="fill: #e1812c"/>
   </g>
   <g id="patch_36">
    <path d="M 62.597875 52.64933 
L 71.525875 52.64933 
L 71.525875 52.64933 
L 62.597875 52.64933 
z
" clip-path="url(#p4c6b8bf067)" style="fill: #e1812c"/>
   </g>
   <g id="patch_37">
    <path d="M 73.757875 52.64933 
L 82.685875 52.64933 
L 82.685875 99.399585 
L 73.757875 99.399585 
z
" clip-path="url(#p4c6b8bf067)" style="fill: #e1812c"/>
   </g>
   <g id="patch_38">
    <path d="M 84.917875 52.64933 
L 93.845875 52.64933 
L 93.845875 134.462276 
L 84.917875 134.462276 
z
" clip-path="url(#p4c6b8bf067)" style="fill: #e1812c"/>
   </g>
   <g id="patch_39">
    <path d="M 96.077875 52.64933 
L 105.005875 52.64933 
L 105.005875 122.774712 
L 96.077875 122.774712 
z
" clip-path="url(#p4c6b8bf067)" style="fill: #e1812c"/>
   </g>
   <g id="patch_40">
    <path d="M 107.237875 52.64933 
L 116.165875 52.64933 
L 116.165875 91.607876 
L 107.237875 91.607876 
z
" clip-path="url(#p4c6b8bf067)" style="fill: #e1812c"/>
   </g>
   <g id="patch_41">
    <path d="M 118.397875 52.64933 
L 127.325875 52.64933 
L 127.325875 76.024457 
L 118.397875 76.024457 
z
" clip-path="url(#p4c6b8bf067)" style="fill: #e1812c"/>
   </g>
   <g id="patch_42">
    <path d="M 129.557875 52.64933 
L 138.485875 52.64933 
L 138.485875 64.336894 
L 129.557875 64.336894 
z
" clip-path="url(#p4c6b8bf067)" style="fill: #e1812c"/>
   </g>
   <g id="patch_43">
    <path d="M 140.717875 52.64933 
L 149.645875 52.64933 
L 149.645875 56.545185 
L 140.717875 56.545185 
z
" clip-path="url(#p4c6b8bf067)" style="fill: #e1812c"/>
   </g>
   <g id="patch_44">
    <path d="M 151.877875 52.64933 
L 160.805875 52.64933 
L 160.805875 83.816166 
L 151.877875 83.816166 
z
" clip-path="url(#p4c6b8bf067)" style="fill: #e1812c"/>
   </g>
   <g id="patch_45">
    <path d="M 163.037875 52.64933 
L 171.965875 52.64933 
L 171.965875 68.232748 
L 163.037875 68.232748 
z
" clip-path="url(#p4c6b8bf067)" style="fill: #e1812c"/>
   </g>
   <g id="patch_46">
    <path d="M 174.197875 52.64933 
L 183.125875 52.64933 
L 183.125875 60.441039 
L 174.197875 60.441039 
z
" clip-path="url(#p4c6b8bf067)" style="fill: #e1812c"/>
   </g>
   <g id="patch_47">
    <path d="M 185.357875 52.64933 
L 194.285875 52.64933 
L 194.285875 95.50373 
L 185.357875 95.50373 
z
" clip-path="url(#p4c6b8bf067)" style="fill: #e1812c"/>
   </g>
   <g id="patch_48">
    <path d="M 196.517875 52.64933 
L 205.445875 52.64933 
L 205.445875 95.50373 
L 196.517875 95.50373 
z
" clip-path="url(#p4c6b8bf067)" style="fill: #e1812c"/>
   </g>
   <g id="patch_49">
    <path d="M 207.677875 52.64933 
L 216.605875 52.64933 
L 216.605875 114.983003 
L 207.677875 114.983003 
z
" clip-path="url(#p4c6b8bf067)" style="fill: #e1812c"/>
   </g>
   <g id="patch_50">
    <path d="M 218.837875 52.64933 
L 227.765875 52.64933 
L 227.765875 72.128603 
L 218.837875 72.128603 
z
" clip-path="url(#p4c6b8bf067)" style="fill: #e1812c"/>
   </g>
   <g id="patch_51">
    <path d="M 229.997875 52.64933 
L 238.925875 52.64933 
L 238.925875 99.399585 
L 229.997875 99.399585 
z
" clip-path="url(#p4c6b8bf067)" style="fill: #e1812c"/>
   </g>
   <g id="patch_52">
    <path d="M 241.157875 52.64933 
L 250.085875 52.64933 
L 250.085875 72.128603 
L 241.157875 72.128603 
z
" clip-path="url(#p4c6b8bf067)" style="fill: #e1812c"/>
   </g>
   <g id="patch_53">
    <path d="M 252.317875 52.64933 
L 261.245875 52.64933 
L 261.245875 68.232748 
L 252.317875 68.232748 
z
" clip-path="url(#p4c6b8bf067)" style="fill: #e1812c"/>
   </g>
   <g id="patch_54">
    <path d="M 263.477875 52.64933 
L 272.405875 52.64933 
L 272.405875 91.607876 
L 263.477875 91.607876 
z
" clip-path="url(#p4c6b8bf067)" style="fill: #e1812c"/>
   </g>
   <g id="patch_55">
    <path d="M 274.637875 52.64933 
L 283.565875 52.64933 
L 283.565875 68.232748 
L 274.637875 68.232748 
z
" clip-path="url(#p4c6b8bf067)" style="fill: #e1812c"/>
   </g>
   <g id="patch_56">
    <path d="M 285.797875 52.64933 
L 294.725875 52.64933 
L 294.725875 103.295439 
L 285.797875 103.295439 
z
" clip-path="url(#p4c6b8bf067)" style="fill: #e1812c"/>
   </g>
   <g id="patch_57">
    <path d="M 296.957875 52.64933 
L 305.885875 52.64933 
L 305.885875 111.087148 
L 296.957875 111.087148 
z
" clip-path="url(#p4c6b8bf067)" style="fill: #e1812c"/>
   </g>
   <g id="patch_58">
    <path d="M 308.117875 52.64933 
L 317.045875 52.64933 
L 317.045875 87.712021 
L 308.117875 87.712021 
z
" clip-path="url(#p4c6b8bf067)" style="fill: #e1812c"/>
   </g>
   <g id="patch_59">
    <path d="M 319.277875 52.64933 
L 328.205875 52.64933 
L 328.205875 95.50373 
L 319.277875 95.50373 
z
" clip-path="url(#p4c6b8bf067)" style="fill: #e1812c"/>
   </g>
   <g id="patch_60">
    <path d="M 330.437875 52.64933 
L 339.365875 52.64933 
L 339.365875 83.816166 
L 330.437875 83.816166 
z
" clip-path="url(#p4c6b8bf067)" style="fill: #e1812c"/>
   </g>
   <g id="patch_61">
    <path d="M 341.597875 52.64933 
L 350.525875 52.64933 
L 350.525875 83.816166 
L 341.597875 83.816166 
z
" clip-path="url(#p4c6b8bf067)" style="fill: #e1812c"/>
   </g>
   <g id="patch_62">
    <path d="M 352.757875 52.64933 
L 361.685875 52.64933 
L 361.685875 60.441039 
L 352.757875 60.441039 
z
" clip-path="url(#p4c6b8bf067)" style="fill: #e1812c"/>
   </g>
   <g id="patch_63">
    <path d="M 363.917875 52.64933 
L 372.845875 52.64933 
L 372.845875 118.878857 
L 363.917875 118.878857 
z
" clip-path="url(#p4c6b8bf067)" style="fill: #e1812c"/>
   </g>
   <g id="patch_64">
    <path d="M 375.077875 52.64933 
L 384.005875 52.64933 
L 384.005875 52.64933 
L 375.077875 52.64933 
z
" clip-path="url(#p4c6b8bf067)" style="fill: #e1812c"/>
   </g>
   <g id="patch_65">
    <path d="M 386.237875 52.64933 
L 395.165875 52.64933 
L 395.165875 60.441039 
L 386.237875 60.441039 
z
" clip-path="url(#p4c6b8bf067)" style="fill: #e1812c"/>
   </g>
   <g id="patch_66">
    <path d="M 397.397875 52.64933 
L 406.325875 52.64933 
L 406.325875 76.024457 
L 397.397875 76.024457 
z
" clip-path="url(#p4c6b8bf067)" style="fill: #e1812c"/>
   </g>
   <g id="matplotlib.axis_1"/>
   <g id="matplotlib.axis_2">
    <g id="ytick_1">
     <g id="line2d_1">
      <defs>
       <path id="m5fd801db05" d="M 0 0 
L -3.5 0 
" style="stroke: #000000; stroke-width: 0.8"/>
      </defs>
      <g>
       <use xlink:href="#m5fd801db05" x="50.321875" y="52.64933" style="stroke: #000000; stroke-width: 0.8"/>
      </g>
     </g>
     <g id="text_1">
      <!--    0 -->
      <g transform="translate(7.2 58.388002) scale(0.15 -0.15)">
       <defs>
        <path id="DejaVuSansMono-20" transform="scale(0.015625)"/>
        <path id="DejaVuSansMono-30" d="M 1509 2344 
Q 1509 2516 1629 2641 
Q 1750 2766 1919 2766 
Q 2094 2766 2219 2641 
Q 2344 2516 2344 2344 
Q 2344 2169 2220 2047 
Q 2097 1925 1919 1925 
Q 1744 1925 1626 2044 
Q 1509 2163 1509 2344 
z
M 1925 4250 
Q 1484 4250 1267 3775 
Q 1050 3300 1050 2328 
Q 1050 1359 1267 884 
Q 1484 409 1925 409 
Q 2369 409 2586 884 
Q 2803 1359 2803 2328 
Q 2803 3300 2586 3775 
Q 2369 4250 1925 4250 
z
M 1925 4750 
Q 2672 4750 3055 4137 
Q 3438 3525 3438 2328 
Q 3438 1134 3055 521 
Q 2672 -91 1925 -91 
Q 1178 -91 797 521 
Q 416 1134 416 2328 
Q 416 3525 797 4137 
Q 1178 4750 1925 4750 
z
" transform="scale(0.015625)"/>
       </defs>
       <use xlink:href="#DejaVuSansMono-20"/>
       <use xlink:href="#DejaVuSansMono-20" x="60.205078"/>
       <use xlink:href="#DejaVuSansMono-20" x="120.410156"/>
       <use xlink:href="#DejaVuSansMono-30" x="180.615234"/>
      </g>
     </g>
    </g>
    <g id="ytick_2">
     <g id="line2d_2">
      <g>
       <use xlink:href="#m5fd801db05" x="50.321875" y="134.462276" style="stroke: #000000; stroke-width: 0.8"/>
      </g>
     </g>
     <g id="text_2">
      <!--  -21 -->
      <g transform="translate(7.2 140.200947) scale(0.15 -0.15)">
       <defs>
        <path id="DejaVuSansMono-2d" d="M 1113 2009 
L 2741 2009 
L 2741 1497 
L 1113 1497 
L 1113 2009 
z
" transform="scale(0.015625)"/>
        <path id="DejaVuSansMono-32" d="M 1166 531 
L 3309 531 
L 3309 0 
L 475 0 
L 475 531 
Q 1059 1147 1496 1619 
Q 1934 2091 2100 2284 
Q 2413 2666 2522 2902 
Q 2631 3138 2631 3384 
Q 2631 3775 2401 3997 
Q 2172 4219 1772 4219 
Q 1488 4219 1175 4116 
Q 863 4013 513 3803 
L 513 4441 
Q 834 4594 1145 4672 
Q 1456 4750 1759 4750 
Q 2444 4750 2861 4386 
Q 3278 4022 3278 3431 
Q 3278 3131 3139 2831 
Q 3000 2531 2688 2169 
Q 2513 1966 2180 1606 
Q 1847 1247 1166 531 
z
" transform="scale(0.015625)"/>
        <path id="DejaVuSansMono-31" d="M 844 531 
L 1825 531 
L 1825 4097 
L 769 3859 
L 769 4434 
L 1819 4666 
L 2450 4666 
L 2450 531 
L 3419 531 
L 3419 0 
L 844 0 
L 844 531 
z
" transform="scale(0.015625)"/>
       </defs>
       <use xlink:href="#DejaVuSansMono-20"/>
       <use xlink:href="#DejaVuSansMono-2d" x="60.205078"/>
       <use xlink:href="#DejaVuSansMono-32" x="120.410156"/>
       <use xlink:href="#DejaVuSansMono-31" x="180.615234"/>
      </g>
     </g>
    </g>
    <g id="ytick_3">
     <g id="line2d_3">
      <g>
       <use xlink:href="#m5fd801db05" x="50.321875" y="37.065912" style="stroke: #000000; stroke-width: 0.8"/>
      </g>
     </g>
     <g id="text_3">
      <!--    4 -->
      <g transform="translate(7.2 42.804584) scale(0.15 -0.15)">
       <defs>
        <path id="DejaVuSansMono-34" d="M 2297 4091 
L 825 1625 
L 2297 1625 
L 2297 4091 
z
M 2194 4666 
L 2925 4666 
L 2925 1625 
L 3547 1625 
L 3547 1113 
L 2925 1113 
L 2925 0 
L 2297 0 
L 2297 1113 
L 319 1113 
L 319 1709 
L 2194 4666 
z
" transform="scale(0.015625)"/>
       </defs>
       <use xlink:href="#DejaVuSansMono-20"/>
       <use xlink:href="#DejaVuSansMono-20" x="60.205078"/>
       <use xlink:href="#DejaVuSansMono-20" x="120.410156"/>
       <use xlink:href="#DejaVuSansMono-34" x="180.615234"/>
      </g>
     </g>
    </g>
   </g>
   <g id="line2d_4">
    <path clip-path="url(#p4c6b8bf067)" style="fill: none; stroke: #424242; stroke-width: 2.7; stroke-linecap: square"/>
   </g>
   <g id="line2d_5">
    <path clip-path="url(#p4c6b8bf067)" style="fill: none; stroke: #424242; stroke-width: 2.7; stroke-linecap: square"/>
   </g>
   <g id="line2d_6">
    <path clip-path="url(#p4c6b8bf067)" style="fill: none; stroke: #424242; stroke-width: 2.7; stroke-linecap: square"/>
   </g>
   <g id="line2d_7">
    <path clip-path="url(#p4c6b8bf067)" style="fill: none; stroke: #424242; stroke-width: 2.7; stroke-linecap: square"/>
   </g>
   <g id="line2d_8">
    <path clip-path="url(#p4c6b8bf067)" style="fill: none; stroke: #424242; stroke-width: 2.7; stroke-linecap: square"/>
   </g>
   <g id="line2d_9">
    <path clip-path="url(#p4c6b8bf067)" style="fill: none; stroke: #424242; stroke-width: 2.7; stroke-linecap: square"/>
   </g>
   <g id="line2d_10">
    <path clip-path="url(#p4c6b8bf067)" style="fill: none; stroke: #424242; stroke-width: 2.7; stroke-linecap: square"/>
   </g>
   <g id="line2d_11">
    <path clip-path="url(#p4c6b8bf067)" style="fill: none; stroke: #424242; stroke-width: 2.7; stroke-linecap: square"/>
   </g>
   <g id="line2d_12">
    <path clip-path="url(#p4c6b8bf067)" style="fill: none; stroke: #424242; stroke-width: 2.7; stroke-linecap: square"/>
   </g>
   <g id="line2d_13">
    <path clip-path="url(#p4c6b8bf067)" style="fill: none; stroke: #424242; stroke-width: 2.7; stroke-linecap: square"/>
   </g>
   <g id="line2d_14">
    <path clip-path="url(#p4c6b8bf067)" style="fill: none; stroke: #424242; stroke-width: 2.7; stroke-linecap: square"/>
   </g>
   <g id="line2d_15">
    <path clip-path="url(#p4c6b8bf067)" style="fill: none; stroke: #424242; stroke-width: 2.7; stroke-linecap: square"/>
   </g>
   <g id="line2d_16">
    <path clip-path="url(#p4c6b8bf067)" style="fill: none; stroke: #424242; stroke-width: 2.7; stroke-linecap: square"/>
   </g>
   <g id="line2d_17">
    <path clip-path="url(#p4c6b8bf067)" style="fill: none; stroke: #424242; stroke-width: 2.7; stroke-linecap: square"/>
   </g>
   <g id="line2d_18">
    <path clip-path="url(#p4c6b8bf067)" style="fill: none; stroke: #424242; stroke-width: 2.7; stroke-linecap: square"/>
   </g>
   <g id="line2d_19">
    <path clip-path="url(#p4c6b8bf067)" style="fill: none; stroke: #424242; stroke-width: 2.7; stroke-linecap: square"/>
   </g>
   <g id="line2d_20">
    <path clip-path="url(#p4c6b8bf067)" style="fill: none; stroke: #424242; stroke-width: 2.7; stroke-linecap: square"/>
   </g>
   <g id="line2d_21">
    <path clip-path="url(#p4c6b8bf067)" style="fill: none; stroke: #424242; stroke-width: 2.7; stroke-linecap: square"/>
   </g>
   <g id="line2d_22">
    <path clip-path="url(#p4c6b8bf067)" style="fill: none; stroke: #424242; stroke-width: 2.7; stroke-linecap: square"/>
   </g>
   <g id="line2d_23">
    <path clip-path="url(#p4c6b8bf067)" style="fill: none; stroke: #424242; stroke-width: 2.7; stroke-linecap: square"/>
   </g>
   <g id="line2d_24">
    <path clip-path="url(#p4c6b8bf067)" style="fill: none; stroke: #424242; stroke-width: 2.7; stroke-linecap: square"/>
   </g>
   <g id="line2d_25">
    <path clip-path="url(#p4c6b8bf067)" style="fill: none; stroke: #424242; stroke-width: 2.7; stroke-linecap: square"/>
   </g>
   <g id="line2d_26">
    <path clip-path="url(#p4c6b8bf067)" style="fill: none; stroke: #424242; stroke-width: 2.7; stroke-linecap: square"/>
   </g>
   <g id="line2d_27">
    <path clip-path="url(#p4c6b8bf067)" style="fill: none; stroke: #424242; stroke-width: 2.7; stroke-linecap: square"/>
   </g>
   <g id="line2d_28">
    <path clip-path="url(#p4c6b8bf067)" style="fill: none; stroke: #424242; stroke-width: 2.7; stroke-linecap: square"/>
   </g>
   <g id="line2d_29">
    <path clip-path="url(#p4c6b8bf067)" style="fill: none; stroke: #424242; stroke-width: 2.7; stroke-linecap: square"/>
   </g>
   <g id="line2d_30">
    <path clip-path="url(#p4c6b8bf067)" style="fill: none; stroke: #424242; stroke-width: 2.7; stroke-linecap: square"/>
   </g>
   <g id="line2d_31">
    <path clip-path="url(#p4c6b8bf067)" style="fill: none; stroke: #424242; stroke-width: 2.7; stroke-linecap: square"/>
   </g>
   <g id="line2d_32">
    <path clip-path="url(#p4c6b8bf067)" style="fill: none; stroke: #424242; stroke-width: 2.7; stroke-linecap: square"/>
   </g>
   <g id="line2d_33">
    <path clip-path="url(#p4c6b8bf067)" style="fill: none; stroke: #424242; stroke-width: 2.7; stroke-linecap: square"/>
   </g>
   <g id="line2d_34">
    <path clip-path="url(#p4c6b8bf067)" style="fill: none; stroke: #424242; stroke-width: 2.7; stroke-linecap: square"/>
   </g>
   <g id="line2d_35">
    <path clip-path="url(#p4c6b8bf067)" style="fill: none; stroke: #424242; stroke-width: 2.7; stroke-linecap: square"/>
   </g>
   <g id="line2d_36">
    <path clip-path="url(#p4c6b8bf067)" style="fill: none; stroke: #424242; stroke-width: 2.7; stroke-linecap: square"/>
   </g>
   <g id="line2d_37">
    <path clip-path="url(#p4c6b8bf067)" style="fill: none; stroke: #424242; stroke-width: 2.7; stroke-linecap: square"/>
   </g>
   <g id="line2d_38">
    <path clip-path="url(#p4c6b8bf067)" style="fill: none; stroke: #424242; stroke-width: 2.7; stroke-linecap: square"/>
   </g>
   <g id="line2d_39">
    <path clip-path="url(#p4c6b8bf067)" style="fill: none; stroke: #424242; stroke-width: 2.7; stroke-linecap: square"/>
   </g>
   <g id="line2d_40">
    <path clip-path="url(#p4c6b8bf067)" style="fill: none; stroke: #424242; stroke-width: 2.7; stroke-linecap: square"/>
   </g>
   <g id="line2d_41">
    <path clip-path="url(#p4c6b8bf067)" style="fill: none; stroke: #424242; stroke-width: 2.7; stroke-linecap: square"/>
   </g>
   <g id="line2d_42">
    <path clip-path="url(#p4c6b8bf067)" style="fill: none; stroke: #424242; stroke-width: 2.7; stroke-linecap: square"/>
   </g>
   <g id="line2d_43">
    <path clip-path="url(#p4c6b8bf067)" style="fill: none; stroke: #424242; stroke-width: 2.7; stroke-linecap: square"/>
   </g>
   <g id="line2d_44">
    <path clip-path="url(#p4c6b8bf067)" style="fill: none; stroke: #424242; stroke-width: 2.7; stroke-linecap: square"/>
   </g>
   <g id="line2d_45">
    <path clip-path="url(#p4c6b8bf067)" style="fill: none; stroke: #424242; stroke-width: 2.7; stroke-linecap: square"/>
   </g>
   <g id="line2d_46">
    <path clip-path="url(#p4c6b8bf067)" style="fill: none; stroke: #424242; stroke-width: 2.7; stroke-linecap: square"/>
   </g>
   <g id="line2d_47">
    <path clip-path="url(#p4c6b8bf067)" style="fill: none; stroke: #424242; stroke-width: 2.7; stroke-linecap: square"/>
   </g>
   <g id="line2d_48">
    <path clip-path="url(#p4c6b8bf067)" style="fill: none; stroke: #424242; stroke-width: 2.7; stroke-linecap: square"/>
   </g>
   <g id="line2d_49">
    <path clip-path="url(#p4c6b8bf067)" style="fill: none; stroke: #424242; stroke-width: 2.7; stroke-linecap: square"/>
   </g>
   <g id="line2d_50">
    <path clip-path="url(#p4c6b8bf067)" style="fill: none; stroke: #424242; stroke-width: 2.7; stroke-linecap: square"/>
   </g>
   <g id="line2d_51">
    <path clip-path="url(#p4c6b8bf067)" style="fill: none; stroke: #424242; stroke-width: 2.7; stroke-linecap: square"/>
   </g>
   <g id="line2d_52">
    <path clip-path="url(#p4c6b8bf067)" style="fill: none; stroke: #424242; stroke-width: 2.7; stroke-linecap: square"/>
   </g>
   <g id="line2d_53">
    <path clip-path="url(#p4c6b8bf067)" style="fill: none; stroke: #424242; stroke-width: 2.7; stroke-linecap: square"/>
   </g>
   <g id="line2d_54">
    <path clip-path="url(#p4c6b8bf067)" style="fill: none; stroke: #424242; stroke-width: 2.7; stroke-linecap: square"/>
   </g>
   <g id="line2d_55">
    <path clip-path="url(#p4c6b8bf067)" style="fill: none; stroke: #424242; stroke-width: 2.7; stroke-linecap: square"/>
   </g>
   <g id="line2d_56">
    <path clip-path="url(#p4c6b8bf067)" style="fill: none; stroke: #424242; stroke-width: 2.7; stroke-linecap: square"/>
   </g>
   <g id="line2d_57">
    <path clip-path="url(#p4c6b8bf067)" style="fill: none; stroke: #424242; stroke-width: 2.7; stroke-linecap: square"/>
   </g>
   <g id="line2d_58">
    <path clip-path="url(#p4c6b8bf067)" style="fill: none; stroke: #424242; stroke-width: 2.7; stroke-linecap: square"/>
   </g>
   <g id="line2d_59">
    <path clip-path="url(#p4c6b8bf067)" style="fill: none; stroke: #424242; stroke-width: 2.7; stroke-linecap: square"/>
   </g>
   <g id="line2d_60">
    <path clip-path="url(#p4c6b8bf067)" style="fill: none; stroke: #424242; stroke-width: 2.7; stroke-linecap: square"/>
   </g>
   <g id="line2d_61">
    <path clip-path="url(#p4c6b8bf067)" style="fill: none; stroke: #424242; stroke-width: 2.7; stroke-linecap: square"/>
   </g>
   <g id="line2d_62">
    <path clip-path="url(#p4c6b8bf067)" style="fill: none; stroke: #424242; stroke-width: 2.7; stroke-linecap: square"/>
   </g>
   <g id="line2d_63">
    <path clip-path="url(#p4c6b8bf067)" style="fill: none; stroke: #424242; stroke-width: 2.7; stroke-linecap: square"/>
   </g>
   <g id="line2d_64">
    <path clip-path="url(#p4c6b8bf067)" style="fill: none; stroke: #424242; stroke-width: 2.7; stroke-linecap: square"/>
   </g>
   <g id="line2d_65">
    <path clip-path="url(#p4c6b8bf067)" style="fill: none; stroke: #424242; stroke-width: 2.7; stroke-linecap: square"/>
   </g>
   <g id="line2d_66">
    <path clip-path="url(#p4c6b8bf067)" style="fill: none; stroke: #424242; stroke-width: 2.7; stroke-linecap: square"/>
   </g>
   <g id="line2d_67">
    <path clip-path="url(#p4c6b8bf067)" style="fill: none; stroke: #424242; stroke-width: 2.7; stroke-linecap: square"/>
   </g>
   <g id="patch_67">
    <path d="M 50.321875 139.332094 
L 50.321875 32.196094 
" style="fill: none; stroke: #000000; stroke-width: 0.8; stroke-linejoin: miter; stroke-linecap: square"/>
   </g>
   <g id="patch_68">
    <path d="M 407.441875 139.332094 
L 407.441875 32.196094 
" style="fill: none; stroke: #000000; stroke-width: 0.8; stroke-linejoin: miter; stroke-linecap: square"/>
   </g>
   <g id="patch_69">
    <path d="M 50.321875 139.332094 
L 407.441875 139.332094 
" style="fill: none; stroke: #000000; stroke-width: 0.8; stroke-linejoin: miter; stroke-linecap: square"/>
   </g>
   <g id="patch_70">
    <path d="M 50.321875 32.196094 
L 407.441875 32.196094 
" style="fill: none; stroke: #000000; stroke-width: 0.8; stroke-linejoin: miter; stroke-linecap: square"/>
   </g>
   <g id="text_4">
    <!-- libpng -->
    <g transform="translate(190.208047 26.196094) scale(0.25 -0.25)">
     <defs>
      <path id="DejaVuSans-6c" d="M 603 4863 
L 1178 4863 
L 1178 0 
L 603 0 
L 603 4863 
z
" transform="scale(0.015625)"/>
      <path id="DejaVuSans-69" d="M 603 3500 
L 1178 3500 
L 1178 0 
L 603 0 
L 603 3500 
z
M 603 4863 
L 1178 4863 
L 1178 4134 
L 603 4134 
L 603 4863 
z
" transform="scale(0.015625)"/>
      <path id="DejaVuSans-62" d="M 3116 1747 
Q 3116 2381 2855 2742 
Q 2594 3103 2138 3103 
Q 1681 3103 1420 2742 
Q 1159 2381 1159 1747 
Q 1159 1113 1420 752 
Q 1681 391 2138 391 
Q 2594 391 2855 752 
Q 3116 1113 3116 1747 
z
M 1159 2969 
Q 1341 3281 1617 3432 
Q 1894 3584 2278 3584 
Q 2916 3584 3314 3078 
Q 3713 2572 3713 1747 
Q 3713 922 3314 415 
Q 2916 -91 2278 -91 
Q 1894 -91 1617 61 
Q 1341 213 1159 525 
L 1159 0 
L 581 0 
L 581 4863 
L 1159 4863 
L 1159 2969 
z
" transform="scale(0.015625)"/>
      <path id="DejaVuSans-70" d="M 1159 525 
L 1159 -1331 
L 581 -1331 
L 581 3500 
L 1159 3500 
L 1159 2969 
Q 1341 3281 1617 3432 
Q 1894 3584 2278 3584 
Q 2916 3584 3314 3078 
Q 3713 2572 3713 1747 
Q 3713 922 3314 415 
Q 2916 -91 2278 -91 
Q 1894 -91 1617 61 
Q 1341 213 1159 525 
z
M 3116 1747 
Q 3116 2381 2855 2742 
Q 2594 3103 2138 3103 
Q 1681 3103 1420 2742 
Q 1159 2381 1159 1747 
Q 1159 1113 1420 752 
Q 1681 391 2138 391 
Q 2594 391 2855 752 
Q 3116 1113 3116 1747 
z
" transform="scale(0.015625)"/>
      <path id="DejaVuSans-6e" d="M 3513 2113 
L 3513 0 
L 2938 0 
L 2938 2094 
Q 2938 2591 2744 2837 
Q 2550 3084 2163 3084 
Q 1697 3084 1428 2787 
Q 1159 2491 1159 1978 
L 1159 0 
L 581 0 
L 581 3500 
L 1159 3500 
L 1159 2956 
Q 1366 3272 1645 3428 
Q 1925 3584 2291 3584 
Q 2894 3584 3203 3211 
Q 3513 2838 3513 2113 
z
" transform="scale(0.015625)"/>
      <path id="DejaVuSans-67" d="M 2906 1791 
Q 2906 2416 2648 2759 
Q 2391 3103 1925 3103 
Q 1463 3103 1205 2759 
Q 947 2416 947 1791 
Q 947 1169 1205 825 
Q 1463 481 1925 481 
Q 2391 481 2648 825 
Q 2906 1169 2906 1791 
z
M 3481 434 
Q 3481 -459 3084 -895 
Q 2688 -1331 1869 -1331 
Q 1566 -1331 1297 -1286 
Q 1028 -1241 775 -1147 
L 775 -588 
Q 1028 -725 1275 -790 
Q 1522 -856 1778 -856 
Q 2344 -856 2625 -561 
Q 2906 -266 2906 331 
L 2906 616 
Q 2728 306 2450 153 
Q 2172 0 1784 0 
Q 1141 0 747 490 
Q 353 981 353 1791 
Q 353 2603 747 3093 
Q 1141 3584 1784 3584 
Q 2172 3584 2450 3431 
Q 2728 3278 2906 2969 
L 2906 3500 
L 3481 3500 
L 3481 434 
z
" transform="scale(0.015625)"/>
     </defs>
     <use xlink:href="#DejaVuSans-6c"/>
     <use xlink:href="#DejaVuSans-69" x="27.783203"/>
     <use xlink:href="#DejaVuSans-62" x="55.566406"/>
     <use xlink:href="#DejaVuSans-70" x="119.042969"/>
     <use xlink:href="#DejaVuSans-6e" x="182.519531"/>
     <use xlink:href="#DejaVuSans-67" x="245.898438"/>
    </g>
   </g>
  </g>
 </g>
 <defs>
  <clipPath id="p4c6b8bf067">
   <rect x="50.321875" y="32.196094" width="357.12" height="107.136"/>
  </clipPath>
 </defs>
</svg>
