<?xml version="1.0" encoding="utf-8" standalone="no"?>
<!DOCTYPE svg PUBLIC "-//W3C//DTD SVG 1.1//EN"
  "http://www.w3.org/Graphics/SVG/1.1/DTD/svg11.dtd">
<svg xmlns:xlink="http://www.w3.org/1999/xlink" width="445.312812pt" height="443.3525pt" viewBox="0 0 445.312812 443.3525" xmlns="http://www.w3.org/2000/svg" version="1.1">
 <metadata>
  <rdf:RDF xmlns:dc="http://purl.org/dc/elements/1.1/" xmlns:cc="http://creativecommons.org/ns#" xmlns:rdf="http://www.w3.org/1999/02/22-rdf-syntax-ns#">
   <cc:Work>
    <dc:type rdf:resource="http://purl.org/dc/dcmitype/StillImage"/>
    <dc:date>2022-12-09T16:27:13.089655</dc:date>
    <dc:format>image/svg+xml</dc:format>
    <dc:creator>
     <cc:Agent>
      <dc:title>Matplotlib v3.6.2, https://matplotlib.org/</dc:title>
     </cc:Agent>
    </dc:creator>
   </cc:Work>
  </rdf:RDF>
 </metadata>
 <defs>
  <style type="text/css">*{stroke-linejoin: round; stroke-linecap: butt}</style>
 </defs>
 <g id="figure_1">
  <g id="patch_1">
   <path d="M 0 443.3525 
L 445.312812 443.3525 
L 445.312812 0 
L 0 0 
z
" style="fill: #ffffff"/>
  </g>
  <g id="axes_1">
   <g id="patch_2">
    <path d="M 61.482813 386.44 
L 373.54767 386.44 
L 373.54767 72.212571 
L 61.482813 72.212571 
z
" style="fill: #ffffff"/>
   </g>
   <g id="PathCollection_1">
    <defs>
     <path id="m30e8222505" d="M 0 5 
C 1.326016 5 2.597899 4.473168 3.535534 3.535534 
C 4.473168 2.597899 5 1.326016 5 0 
C 5 -1.326016 4.473168 -2.597899 3.535534 -3.535534 
C 2.597899 -4.473168 1.326016 -5 0 -5 
C -1.326016 -5 -2.597899 -4.473168 -3.535534 -3.535534 
C -4.473168 -2.597899 -5 -1.326016 -5 0 
C -5 1.326016 -4.473168 2.597899 -3.535534 3.535534 
C -2.597899 4.473168 -1.326016 5 0 5 
z
" style="stroke: #ffffff; stroke-opacity: 0.5; stroke-width: 0.8"/>
    </defs>
    <g clip-path="url(#p36a13ca182)">
     <use xlink:href="#m30e8222505" x="77.552598" y="289.22301" style="fill: #1f77b4; fill-opacity: 0.5; stroke: #ffffff; stroke-opacity: 0.5; stroke-width: 0.8"/>
     <use xlink:href="#m30e8222505" x="156.723386" y="104.925398" style="fill: #1f77b4; fill-opacity: 0.5; stroke: #ffffff; stroke-opacity: 0.5; stroke-width: 0.8"/>
     <use xlink:href="#m30e8222505" x="75.667579" y="362.942054" style="fill: #1f77b4; fill-opacity: 0.5; stroke: #ffffff; stroke-opacity: 0.5; stroke-width: 0.8"/>
     <use xlink:href="#m30e8222505" x="75.667579" y="289.22301" style="fill: #1f77b4; fill-opacity: 0.5; stroke: #ffffff; stroke-opacity: 0.5; stroke-width: 0.8"/>
     <use xlink:href="#m30e8222505" x="75.667579" y="289.22301" style="fill: #1f77b4; fill-opacity: 0.5; stroke: #ffffff; stroke-opacity: 0.5; stroke-width: 0.8"/>
     <use xlink:href="#m30e8222505" x="75.667579" y="307.652771" style="fill: #1f77b4; fill-opacity: 0.5; stroke: #ffffff; stroke-opacity: 0.5; stroke-width: 0.8"/>
     <use xlink:href="#m30e8222505" x="75.667579" y="280.008129" style="fill: #1f77b4; fill-opacity: 0.5; stroke: #ffffff; stroke-opacity: 0.5; stroke-width: 0.8"/>
     <use xlink:href="#m30e8222505" x="81.322635" y="169.429562" style="fill: #1f77b4; fill-opacity: 0.5; stroke: #ffffff; stroke-opacity: 0.5; stroke-width: 0.8"/>
     <use xlink:href="#m30e8222505" x="76.610088" y="141.78492" style="fill: #1f77b4; fill-opacity: 0.5; stroke: #ffffff; stroke-opacity: 0.5; stroke-width: 0.8"/>
     <use xlink:href="#m30e8222505" x="76.610088" y="187.859323" style="fill: #1f77b4; fill-opacity: 0.5; stroke: #ffffff; stroke-opacity: 0.5; stroke-width: 0.8"/>
     <use xlink:href="#m30e8222505" x="75.667579" y="372.156935" style="fill: #1f77b4; fill-opacity: 0.5; stroke: #ffffff; stroke-opacity: 0.5; stroke-width: 0.8"/>
     <use xlink:href="#m30e8222505" x="82.265144" y="150.999801" style="fill: #1f77b4; fill-opacity: 0.5; stroke: #ffffff; stroke-opacity: 0.5; stroke-width: 0.8"/>
     <use xlink:href="#m30e8222505" x="75.667579" y="289.22301" style="fill: #1f77b4; fill-opacity: 0.5; stroke: #ffffff; stroke-opacity: 0.5; stroke-width: 0.8"/>
     <use xlink:href="#m30e8222505" x="75.667579" y="298.43789" style="fill: #1f77b4; fill-opacity: 0.5; stroke: #ffffff; stroke-opacity: 0.5; stroke-width: 0.8"/>
     <use xlink:href="#m30e8222505" x="75.667579" y="243.148607" style="fill: #1f77b4; fill-opacity: 0.5; stroke: #ffffff; stroke-opacity: 0.5; stroke-width: 0.8"/>
     <use xlink:href="#m30e8222505" x="75.667579" y="372.156935" style="fill: #1f77b4; fill-opacity: 0.5; stroke: #ffffff; stroke-opacity: 0.5; stroke-width: 0.8"/>
     <use xlink:href="#m30e8222505" x="359.362903" y="86.495636" style="fill: #1f77b4; fill-opacity: 0.5; stroke: #ffffff; stroke-opacity: 0.5; stroke-width: 0.8"/>
     <use xlink:href="#m30e8222505" x="77.552598" y="243.148607" style="fill: #1f77b4; fill-opacity: 0.5; stroke: #ffffff; stroke-opacity: 0.5; stroke-width: 0.8"/>
     <use xlink:href="#m30e8222505" x="75.667579" y="289.22301" style="fill: #1f77b4; fill-opacity: 0.5; stroke: #ffffff; stroke-opacity: 0.5; stroke-width: 0.8"/>
    </g>
   </g>
   <g id="matplotlib.axis_1">
    <g id="xtick_1">
     <g id="line2d_1">
      <defs>
       <path id="m41db150b12" d="M 0 0 
L 0 3.5 
" style="stroke: #000000; stroke-width: 0.8"/>
      </defs>
      <g>
       <use xlink:href="#m41db150b12" x="74.725069" y="386.44" style="stroke: #000000; stroke-width: 0.8"/>
      </g>
     </g>
     <g id="text_1">
      <!-- 0 -->
      <g transform="translate(69.953194 404.837656) scale(0.15 -0.15)">
       <defs>
        <path id="DejaVuSans-30" d="M 2034 4250 
Q 1547 4250 1301 3770 
Q 1056 3291 1056 2328 
Q 1056 1369 1301 889 
Q 1547 409 2034 409 
Q 2525 409 2770 889 
Q 3016 1369 3016 2328 
Q 3016 3291 2770 3770 
Q 2525 4250 2034 4250 
z
M 2034 4750 
Q 2819 4750 3233 4129 
Q 3647 3509 3647 2328 
Q 3647 1150 3233 529 
Q 2819 -91 2034 -91 
Q 1250 -91 836 529 
Q 422 1150 422 2328 
Q 422 3509 836 4129 
Q 1250 4750 2034 4750 
z
" transform="scale(0.015625)"/>
       </defs>
       <use xlink:href="#DejaVuSans-30"/>
      </g>
     </g>
    </g>
    <g id="xtick_2">
     <g id="line2d_2">
      <g>
       <use xlink:href="#m41db150b12" x="168.976008" y="386.44" style="stroke: #000000; stroke-width: 0.8"/>
      </g>
     </g>
     <g id="text_2">
      <!-- 100 -->
      <g transform="translate(154.660383 404.837656) scale(0.15 -0.15)">
       <defs>
        <path id="DejaVuSans-31" d="M 794 531 
L 1825 531 
L 1825 4091 
L 703 3866 
L 703 4441 
L 1819 4666 
L 2450 4666 
L 2450 531 
L 3481 531 
L 3481 0 
L 794 0 
L 794 531 
z
" transform="scale(0.015625)"/>
       </defs>
       <use xlink:href="#DejaVuSans-31"/>
       <use xlink:href="#DejaVuSans-30" x="63.623047"/>
       <use xlink:href="#DejaVuSans-30" x="127.246094"/>
      </g>
     </g>
    </g>
    <g id="xtick_3">
     <g id="line2d_3">
      <g>
       <use xlink:href="#m41db150b12" x="263.226946" y="386.44" style="stroke: #000000; stroke-width: 0.8"/>
      </g>
     </g>
     <g id="text_3">
      <!-- 200 -->
      <g transform="translate(248.911321 404.837656) scale(0.15 -0.15)">
       <defs>
        <path id="DejaVuSans-32" d="M 1228 531 
L 3431 531 
L 3431 0 
L 469 0 
L 469 531 
Q 828 903 1448 1529 
Q 2069 2156 2228 2338 
Q 2531 2678 2651 2914 
Q 2772 3150 2772 3378 
Q 2772 3750 2511 3984 
Q 2250 4219 1831 4219 
Q 1534 4219 1204 4116 
Q 875 4013 500 3803 
L 500 4441 
Q 881 4594 1212 4672 
Q 1544 4750 1819 4750 
Q 2544 4750 2975 4387 
Q 3406 4025 3406 3419 
Q 3406 3131 3298 2873 
Q 3191 2616 2906 2266 
Q 2828 2175 2409 1742 
Q 1991 1309 1228 531 
z
" transform="scale(0.015625)"/>
       </defs>
       <use xlink:href="#DejaVuSans-32"/>
       <use xlink:href="#DejaVuSans-30" x="63.623047"/>
       <use xlink:href="#DejaVuSans-30" x="127.246094"/>
      </g>
     </g>
    </g>
    <g id="xtick_4">
     <g id="line2d_4">
      <g>
       <use xlink:href="#m41db150b12" x="357.477885" y="386.44" style="stroke: #000000; stroke-width: 0.8"/>
      </g>
     </g>
     <g id="text_4">
      <!-- 300 -->
      <g transform="translate(343.16226 404.837656) scale(0.15 -0.15)">
       <defs>
        <path id="DejaVuSans-33" d="M 2597 2516 
Q 3050 2419 3304 2112 
Q 3559 1806 3559 1356 
Q 3559 666 3084 287 
Q 2609 -91 1734 -91 
Q 1441 -91 1130 -33 
Q 819 25 488 141 
L 488 750 
Q 750 597 1062 519 
Q 1375 441 1716 441 
Q 2309 441 2620 675 
Q 2931 909 2931 1356 
Q 2931 1769 2642 2001 
Q 2353 2234 1838 2234 
L 1294 2234 
L 1294 2753 
L 1863 2753 
Q 2328 2753 2575 2939 
Q 2822 3125 2822 3475 
Q 2822 3834 2567 4026 
Q 2313 4219 1838 4219 
Q 1578 4219 1281 4162 
Q 984 4106 628 3988 
L 628 4550 
Q 988 4650 1302 4700 
Q 1616 4750 1894 4750 
Q 2613 4750 3031 4423 
Q 3450 4097 3450 3541 
Q 3450 3153 3228 2886 
Q 3006 2619 2597 2516 
z
" transform="scale(0.015625)"/>
       </defs>
       <use xlink:href="#DejaVuSans-33"/>
       <use xlink:href="#DejaVuSans-30" x="63.623047"/>
       <use xlink:href="#DejaVuSans-30" x="127.246094"/>
      </g>
     </g>
    </g>
    <g id="text_5">
     <!-- # Commits -->
     <g transform="translate(147.454694 430.953281) scale(0.25 -0.25)">
      <defs>
       <path id="DejaVuSans-23" d="M 3272 2816 
L 2363 2816 
L 2100 1772 
L 3016 1772 
L 3272 2816 
z
M 2803 4594 
L 2478 3297 
L 3391 3297 
L 3719 4594 
L 4219 4594 
L 3897 3297 
L 4872 3297 
L 4872 2816 
L 3775 2816 
L 3519 1772 
L 4513 1772 
L 4513 1294 
L 3397 1294 
L 3072 0 
L 2572 0 
L 2894 1294 
L 1978 1294 
L 1656 0 
L 1153 0 
L 1478 1294 
L 494 1294 
L 494 1772 
L 1594 1772 
L 1856 2816 
L 850 2816 
L 850 3297 
L 1978 3297 
L 2297 4594 
L 2803 4594 
z
" transform="scale(0.015625)"/>
       <path id="DejaVuSans-20" transform="scale(0.015625)"/>
       <path id="DejaVuSans-43" d="M 4122 4306 
L 4122 3641 
Q 3803 3938 3442 4084 
Q 3081 4231 2675 4231 
Q 1875 4231 1450 3742 
Q 1025 3253 1025 2328 
Q 1025 1406 1450 917 
Q 1875 428 2675 428 
Q 3081 428 3442 575 
Q 3803 722 4122 1019 
L 4122 359 
Q 3791 134 3420 21 
Q 3050 -91 2638 -91 
Q 1578 -91 968 557 
Q 359 1206 359 2328 
Q 359 3453 968 4101 
Q 1578 4750 2638 4750 
Q 3056 4750 3426 4639 
Q 3797 4528 4122 4306 
z
" transform="scale(0.015625)"/>
       <path id="DejaVuSans-6f" d="M 1959 3097 
Q 1497 3097 1228 2736 
Q 959 2375 959 1747 
Q 959 1119 1226 758 
Q 1494 397 1959 397 
Q 2419 397 2687 759 
Q 2956 1122 2956 1747 
Q 2956 2369 2687 2733 
Q 2419 3097 1959 3097 
z
M 1959 3584 
Q 2709 3584 3137 3096 
Q 3566 2609 3566 1747 
Q 3566 888 3137 398 
Q 2709 -91 1959 -91 
Q 1206 -91 779 398 
Q 353 888 353 1747 
Q 353 2609 779 3096 
Q 1206 3584 1959 3584 
z
" transform="scale(0.015625)"/>
       <path id="DejaVuSans-6d" d="M 3328 2828 
Q 3544 3216 3844 3400 
Q 4144 3584 4550 3584 
Q 5097 3584 5394 3201 
Q 5691 2819 5691 2113 
L 5691 0 
L 5113 0 
L 5113 2094 
Q 5113 2597 4934 2840 
Q 4756 3084 4391 3084 
Q 3944 3084 3684 2787 
Q 3425 2491 3425 1978 
L 3425 0 
L 2847 0 
L 2847 2094 
Q 2847 2600 2669 2842 
Q 2491 3084 2119 3084 
Q 1678 3084 1418 2786 
Q 1159 2488 1159 1978 
L 1159 0 
L 581 0 
L 581 3500 
L 1159 3500 
L 1159 2956 
Q 1356 3278 1631 3431 
Q 1906 3584 2284 3584 
Q 2666 3584 2933 3390 
Q 3200 3197 3328 2828 
z
" transform="scale(0.015625)"/>
       <path id="DejaVuSans-69" d="M 603 3500 
L 1178 3500 
L 1178 0 
L 603 0 
L 603 3500 
z
M 603 4863 
L 1178 4863 
L 1178 4134 
L 603 4134 
L 603 4863 
z
" transform="scale(0.015625)"/>
       <path id="DejaVuSans-74" d="M 1172 4494 
L 1172 3500 
L 2356 3500 
L 2356 3053 
L 1172 3053 
L 1172 1153 
Q 1172 725 1289 603 
Q 1406 481 1766 481 
L 2356 481 
L 2356 0 
L 1766 0 
Q 1100 0 847 248 
Q 594 497 594 1153 
L 594 3053 
L 172 3053 
L 172 3500 
L 594 3500 
L 594 4494 
L 1172 4494 
z
" transform="scale(0.015625)"/>
       <path id="DejaVuSans-73" d="M 2834 3397 
L 2834 2853 
Q 2591 2978 2328 3040 
Q 2066 3103 1784 3103 
Q 1356 3103 1142 2972 
Q 928 2841 928 2578 
Q 928 2378 1081 2264 
Q 1234 2150 1697 2047 
L 1894 2003 
Q 2506 1872 2764 1633 
Q 3022 1394 3022 966 
Q 3022 478 2636 193 
Q 2250 -91 1575 -91 
Q 1294 -91 989 -36 
Q 684 19 347 128 
L 347 722 
Q 666 556 975 473 
Q 1284 391 1588 391 
Q 1994 391 2212 530 
Q 2431 669 2431 922 
Q 2431 1156 2273 1281 
Q 2116 1406 1581 1522 
L 1381 1569 
Q 847 1681 609 1914 
Q 372 2147 372 2553 
Q 372 3047 722 3315 
Q 1072 3584 1716 3584 
Q 2034 3584 2315 3537 
Q 2597 3491 2834 3397 
z
" transform="scale(0.015625)"/>
      </defs>
      <use xlink:href="#DejaVuSans-23"/>
      <use xlink:href="#DejaVuSans-20" x="83.789062"/>
      <use xlink:href="#DejaVuSans-43" x="115.576172"/>
      <use xlink:href="#DejaVuSans-6f" x="185.400391"/>
      <use xlink:href="#DejaVuSans-6d" x="246.582031"/>
      <use xlink:href="#DejaVuSans-6d" x="343.994141"/>
      <use xlink:href="#DejaVuSans-69" x="441.40625"/>
      <use xlink:href="#DejaVuSans-74" x="469.189453"/>
      <use xlink:href="#DejaVuSans-73" x="508.398438"/>
     </g>
    </g>
   </g>
   <g id="matplotlib.axis_2">
    <g id="ytick_1">
     <g id="line2d_5">
      <defs>
       <path id="m8308afd40d" d="M 0 0 
L -3.5 0 
" style="stroke: #000000; stroke-width: 0.8"/>
      </defs>
      <g>
       <use xlink:href="#m8308afd40d" x="61.482813" y="344.512293" style="stroke: #000000; stroke-width: 0.8"/>
      </g>
     </g>
     <g id="text_6">
      <!-- 5 -->
      <g transform="translate(44.939063 350.211121) scale(0.15 -0.15)">
       <defs>
        <path id="DejaVuSans-35" d="M 691 4666 
L 3169 4666 
L 3169 4134 
L 1269 4134 
L 1269 2991 
Q 1406 3038 1543 3061 
Q 1681 3084 1819 3084 
Q 2600 3084 3056 2656 
Q 3513 2228 3513 1497 
Q 3513 744 3044 326 
Q 2575 -91 1722 -91 
Q 1428 -91 1123 -41 
Q 819 9 494 109 
L 494 744 
Q 775 591 1075 516 
Q 1375 441 1709 441 
Q 2250 441 2565 725 
Q 2881 1009 2881 1497 
Q 2881 1984 2565 2268 
Q 2250 2553 1709 2553 
Q 1456 2553 1204 2497 
Q 953 2441 691 2322 
L 691 4666 
z
" transform="scale(0.015625)"/>
       </defs>
       <use xlink:href="#DejaVuSans-35"/>
      </g>
     </g>
    </g>
    <g id="ytick_2">
     <g id="line2d_6">
      <g>
       <use xlink:href="#m8308afd40d" x="61.482813" y="298.43789" style="stroke: #000000; stroke-width: 0.8"/>
      </g>
     </g>
     <g id="text_7">
      <!-- 10 -->
      <g transform="translate(35.395313 304.136718) scale(0.15 -0.15)">
       <use xlink:href="#DejaVuSans-31"/>
       <use xlink:href="#DejaVuSans-30" x="63.623047"/>
      </g>
     </g>
    </g>
    <g id="ytick_3">
     <g id="line2d_7">
      <g>
       <use xlink:href="#m8308afd40d" x="61.482813" y="252.363487" style="stroke: #000000; stroke-width: 0.8"/>
      </g>
     </g>
     <g id="text_8">
      <!-- 15 -->
      <g transform="translate(35.395313 258.062315) scale(0.15 -0.15)">
       <use xlink:href="#DejaVuSans-31"/>
       <use xlink:href="#DejaVuSans-35" x="63.623047"/>
      </g>
     </g>
    </g>
    <g id="ytick_4">
     <g id="line2d_8">
      <g>
       <use xlink:href="#m8308afd40d" x="61.482813" y="206.289084" style="stroke: #000000; stroke-width: 0.8"/>
      </g>
     </g>
     <g id="text_9">
      <!-- 20 -->
      <g transform="translate(35.395313 211.987912) scale(0.15 -0.15)">
       <use xlink:href="#DejaVuSans-32"/>
       <use xlink:href="#DejaVuSans-30" x="63.623047"/>
      </g>
     </g>
    </g>
    <g id="ytick_5">
     <g id="line2d_9">
      <g>
       <use xlink:href="#m8308afd40d" x="61.482813" y="160.214681" style="stroke: #000000; stroke-width: 0.8"/>
      </g>
     </g>
     <g id="text_10">
      <!-- 25 -->
      <g transform="translate(35.395313 165.913509) scale(0.15 -0.15)">
       <use xlink:href="#DejaVuSans-32"/>
       <use xlink:href="#DejaVuSans-35" x="63.623047"/>
      </g>
     </g>
    </g>
    <g id="ytick_6">
     <g id="line2d_10">
      <g>
       <use xlink:href="#m8308afd40d" x="61.482813" y="114.140278" style="stroke: #000000; stroke-width: 0.8"/>
      </g>
     </g>
     <g id="text_11">
      <!-- 30 -->
      <g transform="translate(35.395313 119.839106) scale(0.15 -0.15)">
       <use xlink:href="#DejaVuSans-33"/>
       <use xlink:href="#DejaVuSans-30" x="63.623047"/>
      </g>
     </g>
    </g>
    <g id="text_12">
     <!-- # Interacting authors -->
     <g transform="translate(26.196094 363.552848) rotate(-90) scale(0.25 -0.25)">
      <defs>
       <path id="DejaVuSans-49" d="M 628 4666 
L 1259 4666 
L 1259 0 
L 628 0 
L 628 4666 
z
" transform="scale(0.015625)"/>
       <path id="DejaVuSans-6e" d="M 3513 2113 
L 3513 0 
L 2938 0 
L 2938 2094 
Q 2938 2591 2744 2837 
Q 2550 3084 2163 3084 
Q 1697 3084 1428 2787 
Q 1159 2491 1159 1978 
L 1159 0 
L 581 0 
L 581 3500 
L 1159 3500 
L 1159 2956 
Q 1366 3272 1645 3428 
Q 1925 3584 2291 3584 
Q 2894 3584 3203 3211 
Q 3513 2838 3513 2113 
z
" transform="scale(0.015625)"/>
       <path id="DejaVuSans-65" d="M 3597 1894 
L 3597 1613 
L 953 1613 
Q 991 1019 1311 708 
Q 1631 397 2203 397 
Q 2534 397 2845 478 
Q 3156 559 3463 722 
L 3463 178 
Q 3153 47 2828 -22 
Q 2503 -91 2169 -91 
Q 1331 -91 842 396 
Q 353 884 353 1716 
Q 353 2575 817 3079 
Q 1281 3584 2069 3584 
Q 2775 3584 3186 3129 
Q 3597 2675 3597 1894 
z
M 3022 2063 
Q 3016 2534 2758 2815 
Q 2500 3097 2075 3097 
Q 1594 3097 1305 2825 
Q 1016 2553 972 2059 
L 3022 2063 
z
" transform="scale(0.015625)"/>
       <path id="DejaVuSans-72" d="M 2631 2963 
Q 2534 3019 2420 3045 
Q 2306 3072 2169 3072 
Q 1681 3072 1420 2755 
Q 1159 2438 1159 1844 
L 1159 0 
L 581 0 
L 581 3500 
L 1159 3500 
L 1159 2956 
Q 1341 3275 1631 3429 
Q 1922 3584 2338 3584 
Q 2397 3584 2469 3576 
Q 2541 3569 2628 3553 
L 2631 2963 
z
" transform="scale(0.015625)"/>
       <path id="DejaVuSans-61" d="M 2194 1759 
Q 1497 1759 1228 1600 
Q 959 1441 959 1056 
Q 959 750 1161 570 
Q 1363 391 1709 391 
Q 2188 391 2477 730 
Q 2766 1069 2766 1631 
L 2766 1759 
L 2194 1759 
z
M 3341 1997 
L 3341 0 
L 2766 0 
L 2766 531 
Q 2569 213 2275 61 
Q 1981 -91 1556 -91 
Q 1019 -91 701 211 
Q 384 513 384 1019 
Q 384 1609 779 1909 
Q 1175 2209 1959 2209 
L 2766 2209 
L 2766 2266 
Q 2766 2663 2505 2880 
Q 2244 3097 1772 3097 
Q 1472 3097 1187 3025 
Q 903 2953 641 2809 
L 641 3341 
Q 956 3463 1253 3523 
Q 1550 3584 1831 3584 
Q 2591 3584 2966 3190 
Q 3341 2797 3341 1997 
z
" transform="scale(0.015625)"/>
       <path id="DejaVuSans-63" d="M 3122 3366 
L 3122 2828 
Q 2878 2963 2633 3030 
Q 2388 3097 2138 3097 
Q 1578 3097 1268 2742 
Q 959 2388 959 1747 
Q 959 1106 1268 751 
Q 1578 397 2138 397 
Q 2388 397 2633 464 
Q 2878 531 3122 666 
L 3122 134 
Q 2881 22 2623 -34 
Q 2366 -91 2075 -91 
Q 1284 -91 818 406 
Q 353 903 353 1747 
Q 353 2603 823 3093 
Q 1294 3584 2113 3584 
Q 2378 3584 2631 3529 
Q 2884 3475 3122 3366 
z
" transform="scale(0.015625)"/>
       <path id="DejaVuSans-67" d="M 2906 1791 
Q 2906 2416 2648 2759 
Q 2391 3103 1925 3103 
Q 1463 3103 1205 2759 
Q 947 2416 947 1791 
Q 947 1169 1205 825 
Q 1463 481 1925 481 
Q 2391 481 2648 825 
Q 2906 1169 2906 1791 
z
M 3481 434 
Q 3481 -459 3084 -895 
Q 2688 -1331 1869 -1331 
Q 1566 -1331 1297 -1286 
Q 1028 -1241 775 -1147 
L 775 -588 
Q 1028 -725 1275 -790 
Q 1522 -856 1778 -856 
Q 2344 -856 2625 -561 
Q 2906 -266 2906 331 
L 2906 616 
Q 2728 306 2450 153 
Q 2172 0 1784 0 
Q 1141 0 747 490 
Q 353 981 353 1791 
Q 353 2603 747 3093 
Q 1141 3584 1784 3584 
Q 2172 3584 2450 3431 
Q 2728 3278 2906 2969 
L 2906 3500 
L 3481 3500 
L 3481 434 
z
" transform="scale(0.015625)"/>
       <path id="DejaVuSans-75" d="M 544 1381 
L 544 3500 
L 1119 3500 
L 1119 1403 
Q 1119 906 1312 657 
Q 1506 409 1894 409 
Q 2359 409 2629 706 
Q 2900 1003 2900 1516 
L 2900 3500 
L 3475 3500 
L 3475 0 
L 2900 0 
L 2900 538 
Q 2691 219 2414 64 
Q 2138 -91 1772 -91 
Q 1169 -91 856 284 
Q 544 659 544 1381 
z
M 1991 3584 
L 1991 3584 
z
" transform="scale(0.015625)"/>
       <path id="DejaVuSans-68" d="M 3513 2113 
L 3513 0 
L 2938 0 
L 2938 2094 
Q 2938 2591 2744 2837 
Q 2550 3084 2163 3084 
Q 1697 3084 1428 2787 
Q 1159 2491 1159 1978 
L 1159 0 
L 581 0 
L 581 4863 
L 1159 4863 
L 1159 2956 
Q 1366 3272 1645 3428 
Q 1925 3584 2291 3584 
Q 2894 3584 3203 3211 
Q 3513 2838 3513 2113 
z
" transform="scale(0.015625)"/>
      </defs>
      <use xlink:href="#DejaVuSans-23"/>
      <use xlink:href="#DejaVuSans-20" x="83.789062"/>
      <use xlink:href="#DejaVuSans-49" x="115.576172"/>
      <use xlink:href="#DejaVuSans-6e" x="145.068359"/>
      <use xlink:href="#DejaVuSans-74" x="208.447266"/>
      <use xlink:href="#DejaVuSans-65" x="247.65625"/>
      <use xlink:href="#DejaVuSans-72" x="309.179688"/>
      <use xlink:href="#DejaVuSans-61" x="350.292969"/>
      <use xlink:href="#DejaVuSans-63" x="411.572266"/>
      <use xlink:href="#DejaVuSans-74" x="466.552734"/>
      <use xlink:href="#DejaVuSans-69" x="505.761719"/>
      <use xlink:href="#DejaVuSans-6e" x="533.544922"/>
      <use xlink:href="#DejaVuSans-67" x="596.923828"/>
      <use xlink:href="#DejaVuSans-20" x="660.400391"/>
      <use xlink:href="#DejaVuSans-61" x="692.1875"/>
      <use xlink:href="#DejaVuSans-75" x="753.466797"/>
      <use xlink:href="#DejaVuSans-74" x="816.845703"/>
      <use xlink:href="#DejaVuSans-68" x="856.054688"/>
      <use xlink:href="#DejaVuSans-6f" x="919.433594"/>
      <use xlink:href="#DejaVuSans-72" x="980.615234"/>
      <use xlink:href="#DejaVuSans-73" x="1021.728516"/>
     </g>
    </g>
   </g>
   <g id="patch_3">
    <path d="M 61.482813 386.44 
L 61.482813 72.212571 
" style="fill: none; stroke: #000000; stroke-width: 0.8; stroke-linejoin: miter; stroke-linecap: square"/>
   </g>
   <g id="patch_4">
    <path d="M 61.482813 386.44 
L 373.54767 386.44 
" style="fill: none; stroke: #000000; stroke-width: 0.8; stroke-linejoin: miter; stroke-linecap: square"/>
   </g>
  </g>
  <g id="axes_2">
   <g id="patch_5">
    <path d="M 61.482813 61.377143 
L 373.54767 61.377143 
L 373.54767 7.2 
L 61.482813 7.2 
z
" style="fill: #ffffff"/>
   </g>
   <g id="PolyCollection_1">
    <path d="M -34.925668 60.847821 
L -34.925668 61.377143 
L -32.388573 61.377143 
L -29.851478 61.377143 
L -27.314384 61.377143 
L -24.777289 61.377143 
L -22.240195 61.377143 
L -19.7031 61.377143 
L -17.166006 61.377143 
L -14.628911 61.377143 
L -12.091817 61.377143 
L -9.554722 61.377143 
L -7.017627 61.377143 
L -4.480533 61.377143 
L -1.943438 61.377143 
L 0.593656 61.377143 
L 3.130751 61.377143 
L 5.667845 61.377143 
L 8.20494 61.377143 
L 10.742034 61.377143 
L 13.279129 61.377143 
L 15.816224 61.377143 
L 18.353318 61.377143 
L 20.890413 61.377143 
L 23.427507 61.377143 
L 25.964602 61.377143 
L 28.501696 61.377143 
L 31.038791 61.377143 
L 33.575885 61.377143 
L 36.11298 61.377143 
L 38.650075 61.377143 
L 41.187169 61.377143 
L 43.724264 61.377143 
L 46.261358 61.377143 
L 48.798453 61.377143 
L 51.335547 61.377143 
L 53.872642 61.377143 
L 56.409737 61.377143 
L 58.946831 61.377143 
L 61.483926 61.377143 
L 64.02102 61.377143 
L 66.558115 61.377143 
L 69.095209 61.377143 
L 71.632304 61.377143 
L 74.169398 61.377143 
L 76.706493 61.377143 
L 79.243588 61.377143 
L 81.780682 61.377143 
L 84.317777 61.377143 
L 86.854871 61.377143 
L 89.391966 61.377143 
L 91.92906 61.377143 
L 94.466155 61.377143 
L 97.003249 61.377143 
L 99.540344 61.377143 
L 102.077439 61.377143 
L 104.614533 61.377143 
L 107.151628 61.377143 
L 109.688722 61.377143 
L 112.225817 61.377143 
L 114.762911 61.377143 
L 117.300006 61.377143 
L 119.837101 61.377143 
L 122.374195 61.377143 
L 124.91129 61.377143 
L 127.448384 61.377143 
L 129.985479 61.377143 
L 132.522573 61.377143 
L 135.059668 61.377143 
L 137.596762 61.377143 
L 140.133857 61.377143 
L 142.670952 61.377143 
L 145.208046 61.377143 
L 147.745141 61.377143 
L 150.282235 61.377143 
L 152.81933 61.377143 
L 155.356424 61.377143 
L 157.893519 61.377143 
L 160.430613 61.377143 
L 162.967708 61.377143 
L 165.504803 61.377143 
L 168.041897 61.377143 
L 170.578992 61.377143 
L 173.116086 61.377143 
L 175.653181 61.377143 
L 178.190275 61.377143 
L 180.72737 61.377143 
L 183.264465 61.377143 
L 185.801559 61.377143 
L 188.338654 61.377143 
L 190.875748 61.377143 
L 193.412843 61.377143 
L 195.949937 61.377143 
L 198.487032 61.377143 
L 201.024126 61.377143 
L 203.561221 61.377143 
L 206.098316 61.377143 
L 208.63541 61.377143 
L 211.172505 61.377143 
L 213.709599 61.377143 
L 216.246694 61.377143 
L 218.783788 61.377143 
L 221.320883 61.377143 
L 223.857977 61.377143 
L 226.395072 61.377143 
L 228.932167 61.377143 
L 231.469261 61.377143 
L 234.006356 61.377143 
L 236.54345 61.377143 
L 239.080545 61.377143 
L 241.617639 61.377143 
L 244.154734 61.377143 
L 246.691829 61.377143 
L 249.228923 61.377143 
L 251.766018 61.377143 
L 254.303112 61.377143 
L 256.840207 61.377143 
L 259.377301 61.377143 
L 261.914396 61.377143 
L 264.45149 61.377143 
L 266.988585 61.377143 
L 269.52568 61.377143 
L 272.062774 61.377143 
L 274.599869 61.377143 
L 277.136963 61.377143 
L 279.674058 61.377143 
L 282.211152 61.377143 
L 284.748247 61.377143 
L 287.285341 61.377143 
L 289.822436 61.377143 
L 292.359531 61.377143 
L 294.896625 61.377143 
L 297.43372 61.377143 
L 299.970814 61.377143 
L 302.507909 61.377143 
L 305.045003 61.377143 
L 307.582098 61.377143 
L 310.119192 61.377143 
L 312.656287 61.377143 
L 315.193382 61.377143 
L 317.730476 61.377143 
L 320.267571 61.377143 
L 322.804665 61.377143 
L 325.34176 61.377143 
L 327.878854 61.377143 
L 330.415949 61.377143 
L 332.953044 61.377143 
L 335.490138 61.377143 
L 338.027233 61.377143 
L 340.564327 61.377143 
L 343.101422 61.377143 
L 345.638516 61.377143 
L 348.175611 61.377143 
L 350.712705 61.377143 
L 353.2498 61.377143 
L 355.786895 61.377143 
L 358.323989 61.377143 
L 360.861084 61.377143 
L 363.398178 61.377143 
L 365.935273 61.377143 
L 368.472367 61.377143 
L 371.009462 61.377143 
L 373.546556 61.377143 
L 376.083651 61.377143 
L 378.620746 61.377143 
L 381.15784 61.377143 
L 383.694935 61.377143 
L 386.232029 61.377143 
L 388.769124 61.377143 
L 391.306218 61.377143 
L 393.843313 61.377143 
L 396.380408 61.377143 
L 398.917502 61.377143 
L 401.454597 61.377143 
L 403.991691 61.377143 
L 406.528786 61.377143 
L 409.06588 61.377143 
L 411.602975 61.377143 
L 414.140069 61.377143 
L 416.677164 61.377143 
L 419.214259 61.377143 
L 421.751353 61.377143 
L 424.288448 61.377143 
L 426.825542 61.377143 
L 429.362637 61.377143 
L 431.899731 61.377143 
L 434.436826 61.377143 
L 436.97392 61.377143 
L 439.511015 61.377143 
L 442.04811 61.377143 
L 444.585204 61.377143 
L 447.122299 61.377143 
L 449.659393 61.377143 
L 452.196488 61.377143 
L 454.733582 61.377143 
L 457.270677 61.377143 
L 459.807772 61.377143 
L 462.344866 61.377143 
L 464.881961 61.377143 
L 467.419055 61.377143 
L 469.95615 61.377143 
L 469.95615 61.343565 
L 469.95615 61.343565 
L 467.419055 61.335963 
L 464.881961 61.326878 
L 462.344866 61.316078 
L 459.807772 61.303308 
L 457.270677 61.28829 
L 454.733582 61.270722 
L 452.196488 61.250284 
L 449.659393 61.226634 
L 447.122299 61.19942 
L 444.585204 61.168276 
L 442.04811 61.132834 
L 439.511015 61.092729 
L 436.97392 61.047606 
L 434.436826 60.997127 
L 431.899731 60.940986 
L 429.362637 60.878918 
L 426.825542 60.810706 
L 424.288448 60.736197 
L 421.751353 60.655316 
L 419.214259 60.568068 
L 416.677164 60.474561 
L 414.140069 60.375005 
L 411.602975 60.269725 
L 409.06588 60.159167 
L 406.528786 60.043902 
L 403.991691 59.924625 
L 401.454597 59.802154 
L 398.917502 59.677427 
L 396.380408 59.551491 
L 393.843313 59.425489 
L 391.306218 59.30065 
L 388.769124 59.178264 
L 386.232029 59.059669 
L 383.694935 58.946218 
L 381.15784 58.839263 
L 378.620746 58.740122 
L 376.083651 58.650056 
L 373.546556 58.57024 
L 371.009462 58.501739 
L 368.472367 58.445486 
L 365.935273 58.402256 
L 363.398178 58.372653 
L 360.861084 58.357094 
L 358.323989 58.355798 
L 355.786895 58.368785 
L 353.2498 58.39587 
L 350.712705 58.436672 
L 348.175611 58.49062 
L 345.638516 58.556966 
L 343.101422 58.634807 
L 340.564327 58.723098 
L 338.027233 58.820683 
L 335.490138 58.926313 
L 332.953044 59.038678 
L 330.415949 59.15643 
L 327.878854 59.278212 
L 325.34176 59.402681 
L 322.804665 59.528533 
L 320.267571 59.654527 
L 317.730476 59.779496 
L 315.193382 59.902372 
L 312.656287 60.022192 
L 310.119192 60.138106 
L 307.582098 60.249389 
L 305.045003 60.355436 
L 302.507909 60.455765 
L 299.970814 60.55001 
L 297.43372 60.637918 
L 294.896625 60.719338 
L 292.359531 60.794213 
L 289.822436 60.862564 
L 287.285341 60.924483 
L 284.748247 60.980118 
L 282.211152 61.029656 
L 279.674058 61.073317 
L 277.136963 61.111337 
L 274.599869 61.143956 
L 272.062774 61.17141 
L 269.52568 61.193918 
L 266.988585 61.211678 
L 264.45149 61.224853 
L 261.914396 61.233571 
L 259.377301 61.237916 
L 256.840207 61.237927 
L 254.303112 61.233595 
L 251.766018 61.224864 
L 249.228923 61.211626 
L 246.691829 61.19373 
L 244.154734 61.170978 
L 241.617639 61.143135 
L 239.080545 61.109927 
L 236.54345 61.071051 
L 234.006356 61.026178 
L 231.469261 60.974964 
L 228.932167 60.917046 
L 226.395072 60.852059 
L 223.857977 60.779633 
L 221.320883 60.699398 
L 218.783788 60.610988 
L 216.246694 60.514038 
L 213.709599 60.408182 
L 211.172505 60.293048 
L 208.63541 60.168241 
L 206.098316 60.033339 
L 203.561221 59.887865 
L 201.024126 59.731267 
L 198.487032 59.562892 
L 195.949937 59.381951 
L 193.412843 59.187484 
L 190.875748 58.97832 
L 188.338654 58.753036 
L 185.801559 58.509915 
L 183.264465 58.246908 
L 180.72737 57.961591 
L 178.190275 57.651135 
L 175.653181 57.31228 
L 173.116086 56.941322 
L 170.578992 56.534106 
L 168.041897 56.086044 
L 165.504803 55.592142 
L 162.967708 55.047051 
L 160.430613 54.44514 
L 157.893519 53.780589 
L 155.356424 53.047507 
L 152.81933 52.240073 
L 150.282235 51.352695 
L 147.745141 50.380194 
L 145.208046 49.317998 
L 142.670952 48.162354 
L 140.133857 46.910536 
L 137.596762 45.561069 
L 135.059668 44.11393 
L 132.522573 42.570746 
L 129.985479 40.934966 
L 127.448384 39.212001 
L 124.91129 37.409336 
L 122.374195 35.536583 
L 119.837101 33.605499 
L 117.300006 31.629939 
L 114.762911 29.625753 
L 112.225817 27.610625 
L 109.688722 25.60385 
L 107.151628 23.626055 
L 104.614533 21.698866 
L 102.077439 19.844532 
L 99.540344 18.085509 
L 97.003249 16.444021 
L 94.466155 14.941599 
L 91.92906 13.598627 
L 89.391966 12.433892 
L 86.854871 11.464161 
L 84.317777 10.703797 
L 81.780682 10.164423 
L 79.243588 9.85465 
L 76.706493 9.779864 
L 74.169398 9.942104 
L 71.632304 10.340007 
L 69.095209 10.968842 
L 66.558115 11.820617 
L 64.02102 12.884274 
L 61.483926 14.145939 
L 58.946831 15.589246 
L 56.409737 17.195707 
L 53.872642 18.945119 
L 51.335547 20.816003 
L 48.798453 22.786052 
L 46.261358 24.832584 
L 43.724264 26.932977 
L 41.187169 29.065085 
L 38.650075 31.20762 
L 36.11298 33.340489 
L 33.575885 35.445085 
L 31.038791 37.50452 
L 28.501696 39.503808 
L 25.964602 41.429985 
L 23.427507 43.272176 
L 20.890413 45.02161 
L 18.353318 46.671583 
L 15.816224 48.217381 
L 13.279129 49.656167 
L 10.742034 50.98683 
L 8.20494 52.209826 
L 5.667845 53.326982 
L 3.130751 54.341313 
L 0.593656 55.256818 
L -1.943438 56.078291 
L -4.480533 56.81113 
L -7.017627 57.461162 
L -9.554722 58.034487 
L -12.091817 58.537324 
L -14.628911 58.975893 
L -17.166006 59.356304 
L -19.7031 59.684468 
L -22.240195 59.966026 
L -24.777289 60.206297 
L -27.314384 60.410238 
L -29.851478 60.582421 
L -32.388573 60.727022 
L -34.925668 60.847821 
z
" clip-path="url(#p0d2bc12ce0)" style="fill: #1f77b4; fill-opacity: 0.25; stroke: #1f77b4"/>
   </g>
   <g id="matplotlib.axis_3">
    <g id="xtick_5">
     <g id="line2d_11">
      <g>
       <use xlink:href="#m41db150b12" x="74.725069" y="61.377143" style="stroke: #000000; stroke-width: 0.8"/>
      </g>
     </g>
    </g>
    <g id="xtick_6">
     <g id="line2d_12">
      <g>
       <use xlink:href="#m41db150b12" x="168.976008" y="61.377143" style="stroke: #000000; stroke-width: 0.8"/>
      </g>
     </g>
    </g>
    <g id="xtick_7">
     <g id="line2d_13">
      <g>
       <use xlink:href="#m41db150b12" x="263.226946" y="61.377143" style="stroke: #000000; stroke-width: 0.8"/>
      </g>
     </g>
    </g>
    <g id="xtick_8">
     <g id="line2d_14">
      <g>
       <use xlink:href="#m41db150b12" x="357.477885" y="61.377143" style="stroke: #000000; stroke-width: 0.8"/>
      </g>
     </g>
    </g>
   </g>
   <g id="matplotlib.axis_4">
    <g id="ytick_7"/>
    <g id="ytick_8"/>
   </g>
   <g id="patch_6">
    <path d="M 61.482813 61.377143 
L 373.54767 61.377143 
" style="fill: none; stroke: #000000; stroke-width: 0.8; stroke-linejoin: miter; stroke-linecap: square"/>
   </g>
  </g>
  <g id="axes_3">
   <g id="patch_7">
    <path d="M 384.308527 386.44 
L 438.112812 386.44 
L 438.112812 72.212571 
L 384.308527 72.212571 
z
" style="fill: #ffffff"/>
   </g>
   <g id="PolyCollection_2">
    <path d="M 384.453218 517.180334 
L 384.308527 517.180334 
L 384.308527 514.287329 
L 384.308527 511.394323 
L 384.308527 508.501318 
L 384.308527 505.608312 
L 384.308527 502.715306 
L 384.308527 499.822301 
L 384.308527 496.929295 
L 384.308527 494.03629 
L 384.308527 491.143284 
L 384.308527 488.250279 
L 384.308527 485.357273 
L 384.308527 482.464268 
L 384.308527 479.571262 
L 384.308527 476.678257 
L 384.308527 473.785251 
L 384.308527 470.892246 
L 384.308527 467.99924 
L 384.308527 465.106235 
L 384.308527 462.213229 
L 384.308527 459.320224 
L 384.308527 456.427218 
L 384.308527 453.534213 
L 384.308527 450.641207 
L 384.308527 447.748202 
L 384.308527 444.855196 
L 384.308527 441.962191 
L 384.308527 439.069185 
L 384.308527 436.17618 
L 384.308527 433.283174 
L 384.308527 430.390169 
L 384.308527 427.497163 
L 384.308527 424.604158 
L 384.308527 421.711152 
L 384.308527 418.818147 
L 384.308527 415.925141 
L 384.308527 413.032136 
L 384.308527 410.13913 
L 384.308527 407.246125 
L 384.308527 404.353119 
L 384.308527 401.460114 
L 384.308527 398.567108 
L 384.308527 395.674103 
L 384.308527 392.781097 
L 384.308527 389.888092 
L 384.308527 386.995086 
L 384.308527 384.102081 
L 384.308527 381.209075 
L 384.308527 378.31607 
L 384.308527 375.423064 
L 384.308527 372.530058 
L 384.308527 369.637053 
L 384.308527 366.744047 
L 384.308527 363.851042 
L 384.308527 360.958036 
L 384.308527 358.065031 
L 384.308527 355.172025 
L 384.308527 352.27902 
L 384.308527 349.386014 
L 384.308527 346.493009 
L 384.308527 343.600003 
L 384.308527 340.706998 
L 384.308527 337.813992 
L 384.308527 334.920987 
L 384.308527 332.027981 
L 384.308527 329.134976 
L 384.308527 326.24197 
L 384.308527 323.348965 
L 384.308527 320.455959 
L 384.308527 317.562954 
L 384.308527 314.669948 
L 384.308527 311.776943 
L 384.308527 308.883937 
L 384.308527 305.990932 
L 384.308527 303.097926 
L 384.308527 300.204921 
L 384.308527 297.311915 
L 384.308527 294.41891 
L 384.308527 291.525904 
L 384.308527 288.632899 
L 384.308527 285.739893 
L 384.308527 282.846888 
L 384.308527 279.953882 
L 384.308527 277.060877 
L 384.308527 274.167871 
L 384.308527 271.274866 
L 384.308527 268.38186 
L 384.308527 265.488855 
L 384.308527 262.595849 
L 384.308527 259.702844 
L 384.308527 256.809838 
L 384.308527 253.916833 
L 384.308527 251.023827 
L 384.308527 248.130822 
L 384.308527 245.237816 
L 384.308527 242.344811 
L 384.308527 239.451805 
L 384.308527 236.558799 
L 384.308527 233.665794 
L 384.308527 230.772788 
L 384.308527 227.879783 
L 384.308527 224.986777 
L 384.308527 222.093772 
L 384.308527 219.200766 
L 384.308527 216.307761 
L 384.308527 213.414755 
L 384.308527 210.52175 
L 384.308527 207.628744 
L 384.308527 204.735739 
L 384.308527 201.842733 
L 384.308527 198.949728 
L 384.308527 196.056722 
L 384.308527 193.163717 
L 384.308527 190.270711 
L 384.308527 187.377706 
L 384.308527 184.4847 
L 384.308527 181.591695 
L 384.308527 178.698689 
L 384.308527 175.805684 
L 384.308527 172.912678 
L 384.308527 170.019673 
L 384.308527 167.126667 
L 384.308527 164.233662 
L 384.308527 161.340656 
L 384.308527 158.447651 
L 384.308527 155.554645 
L 384.308527 152.66164 
L 384.308527 149.768634 
L 384.308527 146.875629 
L 384.308527 143.982623 
L 384.308527 141.089618 
L 384.308527 138.196612 
L 384.308527 135.303607 
L 384.308527 132.410601 
L 384.308527 129.517596 
L 384.308527 126.62459 
L 384.308527 123.731585 
L 384.308527 120.838579 
L 384.308527 117.945574 
L 384.308527 115.052568 
L 384.308527 112.159563 
L 384.308527 109.266557 
L 384.308527 106.373552 
L 384.308527 103.480546 
L 384.308527 100.58754 
L 384.308527 97.694535 
L 384.308527 94.801529 
L 384.308527 91.908524 
L 384.308527 89.015518 
L 384.308527 86.122513 
L 384.308527 83.229507 
L 384.308527 80.336502 
L 384.308527 77.443496 
L 384.308527 74.550491 
L 384.308527 71.657485 
L 384.308527 68.76448 
L 384.308527 65.871474 
L 384.308527 62.978469 
L 384.308527 60.085463 
L 384.308527 57.192458 
L 384.308527 54.299452 
L 384.308527 51.406447 
L 384.308527 48.513441 
L 384.308527 45.620436 
L 384.308527 42.72743 
L 384.308527 39.834425 
L 384.308527 36.941419 
L 384.308527 34.048414 
L 384.308527 31.155408 
L 384.308527 28.262403 
L 384.308527 25.369397 
L 384.308527 22.476392 
L 384.308527 19.583386 
L 384.308527 16.690381 
L 384.308527 13.797375 
L 384.308527 10.90437 
L 384.308527 8.011364 
L 384.308527 5.118359 
L 384.308527 2.225353 
L 384.308527 -0.667652 
L 384.308527 -3.560658 
L 384.308527 -6.453663 
L 384.308527 -9.346669 
L 384.308527 -12.239674 
L 384.308527 -15.13268 
L 384.308527 -18.025685 
L 384.308527 -20.918691 
L 384.308527 -23.811696 
L 384.308527 -26.704702 
L 384.308527 -29.597708 
L 384.308527 -32.490713 
L 384.308527 -35.383719 
L 384.308527 -38.276724 
L 384.308527 -41.16973 
L 384.308527 -44.062735 
L 384.308527 -46.955741 
L 384.308527 -49.848746 
L 384.308527 -52.741752 
L 384.308527 -55.634757 
L 384.308527 -58.527763 
L 384.382898 -58.527763 
L 384.382898 -58.527763 
L 384.397958 -55.634757 
L 384.415704 -52.741752 
L 384.436536 -49.848746 
L 384.460903 -46.955741 
L 384.489298 -44.062735 
L 384.522265 -41.16973 
L 384.560401 -38.276724 
L 384.604351 -35.383719 
L 384.654816 -32.490713 
L 384.712548 -29.597708 
L 384.77835 -26.704702 
L 384.853074 -23.811696 
L 384.937618 -20.918691 
L 385.032919 -18.025685 
L 385.139952 -15.13268 
L 385.259721 -12.239674 
L 385.393248 -9.346669 
L 385.541569 -6.453663 
L 385.70572 -3.560658 
L 385.886729 -0.667652 
L 386.085598 2.225353 
L 386.303297 5.118359 
L 386.540743 8.011364 
L 386.798791 10.90437 
L 387.078217 13.797375 
L 387.379704 16.690381 
L 387.703827 19.583386 
L 388.051044 22.476392 
L 388.421675 25.369397 
L 388.815901 28.262403 
L 389.233743 31.155408 
L 389.675064 34.048414 
L 390.139555 36.941419 
L 390.626735 39.834425 
L 391.135948 42.72743 
L 391.666361 45.620436 
L 392.216968 48.513441 
L 392.786594 51.406447 
L 393.373905 54.299452 
L 393.97741 57.192458 
L 394.595477 60.085463 
L 395.226344 62.978469 
L 395.868129 65.871474 
L 396.518853 68.76448 
L 397.176444 71.657485 
L 397.838764 74.550491 
L 398.503617 77.443496 
L 399.168772 80.336502 
L 399.831975 83.229507 
L 400.490969 86.122513 
L 401.143506 89.015518 
L 401.787367 91.908524 
L 402.420377 94.801529 
L 403.040416 97.694535 
L 403.645442 100.58754 
L 404.233501 103.480546 
L 404.802741 106.373552 
L 405.351436 109.266557 
L 405.877995 112.159563 
L 406.380981 115.052568 
L 406.85913 117.945574 
L 407.311372 120.838579 
L 407.736843 123.731585 
L 408.134911 126.62459 
L 408.505195 129.517596 
L 408.847583 132.410601 
L 409.162251 135.303607 
L 409.449685 138.196612 
L 409.710696 141.089618 
L 409.946434 143.982623 
L 410.158402 146.875629 
L 410.348463 149.768634 
L 410.518846 152.66164 
L 410.672144 155.554645 
L 410.811306 158.447651 
L 410.939627 161.340656 
L 411.06073 164.233662 
L 411.178533 167.126667 
L 411.297223 170.019673 
L 411.421207 172.912678 
L 411.55507 175.805684 
L 411.703514 178.698689 
L 411.871299 181.591695 
L 412.06317 184.4847 
L 412.283789 187.377706 
L 412.537653 190.270711 
L 412.829013 193.163717 
L 413.161795 196.056722 
L 413.539516 198.949728 
L 413.965201 201.842733 
L 414.441307 204.735739 
L 414.969652 207.628744 
L 415.551345 210.52175 
L 416.18673 213.414755 
L 416.875337 216.307761 
L 417.615846 219.200766 
L 418.406063 222.093772 
L 419.242906 224.986777 
L 420.122415 227.879783 
L 421.039766 230.772788 
L 421.989311 233.665794 
L 422.964626 236.558799 
L 423.958579 239.451805 
L 424.96341 242.344811 
L 425.970831 245.237816 
L 426.972126 248.130822 
L 427.958274 251.023827 
L 428.920078 253.916833 
L 429.848291 256.809838 
L 430.733761 259.702844 
L 431.567564 262.595849 
L 432.341143 265.488855 
L 433.046436 268.38186 
L 433.676006 271.274866 
L 434.223149 274.167871 
L 434.681998 277.060877 
L 435.047609 279.953882 
L 435.316028 282.846888 
L 435.48434 285.739893 
L 435.550704 288.632899 
L 435.514355 291.525904 
L 435.375599 294.41891 
L 435.135781 297.311915 
L 434.79723 300.204921 
L 434.363196 303.097926 
L 433.837763 305.990932 
L 433.225752 308.883937 
L 432.532616 311.776943 
L 431.764317 314.669948 
L 430.927209 317.562954 
L 430.027919 320.455959 
L 429.073216 323.348965 
L 428.069904 326.24197 
L 427.024706 329.134976 
L 425.944168 332.027981 
L 424.834565 334.920987 
L 423.701835 337.813992 
L 422.55151 340.706998 
L 421.388676 343.600003 
L 420.217943 346.493009 
L 419.043428 349.386014 
L 417.868759 352.27902 
L 416.697083 355.172025 
L 415.531099 358.065031 
L 414.373083 360.958036 
L 413.224939 363.851042 
L 412.088243 366.744047 
L 410.964299 369.637053 
L 409.854186 372.530058 
L 408.75882 375.423064 
L 407.678997 378.31607 
L 406.615445 381.209075 
L 405.56886 384.102081 
L 404.539946 386.995086 
L 403.52944 389.888092 
L 402.53813 392.781097 
L 401.566871 395.674103 
L 400.616586 398.567108 
L 399.688268 401.460114 
L 398.782965 404.353119 
L 397.901772 407.246125 
L 397.045809 410.13913 
L 396.216199 413.032136 
L 395.414046 415.925141 
L 394.640406 418.818147 
L 393.896265 421.711152 
L 393.182513 424.604158 
L 392.499923 427.497163 
L 391.849129 430.390169 
L 391.230613 433.283174 
L 390.644687 436.17618 
L 390.09149 439.069185 
L 389.570979 441.962191 
L 389.082932 444.855196 
L 388.626945 447.748202 
L 388.202448 450.641207 
L 387.808705 453.534213 
L 387.444835 456.427218 
L 387.109823 459.320224 
L 386.802534 462.213229 
L 386.52174 465.106235 
L 386.26613 467.99924 
L 386.034331 470.892246 
L 385.82493 473.785251 
L 385.636488 476.678257 
L 385.467561 479.571262 
L 385.316709 482.464268 
L 385.18252 485.357273 
L 385.063614 488.250279 
L 384.958656 491.143284 
L 384.86637 494.03629 
L 384.785537 496.929295 
L 384.715012 499.822301 
L 384.653715 502.715306 
L 384.600647 505.608312 
L 384.554878 508.501318 
L 384.515557 511.394323 
L 384.481906 514.287329 
L 384.453218 517.180334 
z
" clip-path="url(#p0338c92876)" style="fill: #1f77b4; fill-opacity: 0.25; stroke: #1f77b4"/>
   </g>
   <g id="matplotlib.axis_5">
    <g id="xtick_9"/>
    <g id="xtick_10"/>
   </g>
   <g id="matplotlib.axis_6">
    <g id="ytick_9">
     <g id="line2d_15">
      <g>
       <use xlink:href="#m8308afd40d" x="384.308527" y="344.512293" style="stroke: #000000; stroke-width: 0.8"/>
      </g>
     </g>
    </g>
    <g id="ytick_10">
     <g id="line2d_16">
      <g>
       <use xlink:href="#m8308afd40d" x="384.308527" y="298.43789" style="stroke: #000000; stroke-width: 0.8"/>
      </g>
     </g>
    </g>
    <g id="ytick_11">
     <g id="line2d_17">
      <g>
       <use xlink:href="#m8308afd40d" x="384.308527" y="252.363487" style="stroke: #000000; stroke-width: 0.8"/>
      </g>
     </g>
    </g>
    <g id="ytick_12">
     <g id="line2d_18">
      <g>
       <use xlink:href="#m8308afd40d" x="384.308527" y="206.289084" style="stroke: #000000; stroke-width: 0.8"/>
      </g>
     </g>
    </g>
    <g id="ytick_13">
     <g id="line2d_19">
      <g>
       <use xlink:href="#m8308afd40d" x="384.308527" y="160.214681" style="stroke: #000000; stroke-width: 0.8"/>
      </g>
     </g>
    </g>
    <g id="ytick_14">
     <g id="line2d_20">
      <g>
       <use xlink:href="#m8308afd40d" x="384.308527" y="114.140278" style="stroke: #000000; stroke-width: 0.8"/>
      </g>
     </g>
    </g>
   </g>
   <g id="patch_8">
    <path d="M 384.308527 386.44 
L 384.308527 72.212571 
" style="fill: none; stroke: #000000; stroke-width: 0.8; stroke-linejoin: miter; stroke-linecap: square"/>
   </g>
  </g>
 </g>
 <defs>
  <clipPath id="p36a13ca182">
   <rect x="61.482813" y="72.212571" width="312.064857" height="314.227429"/>
  </clipPath>
  <clipPath id="p0d2bc12ce0">
   <rect x="61.482813" y="7.2" width="312.064857" height="54.177143"/>
  </clipPath>
  <clipPath id="p0338c92876">
   <rect x="384.308527" y="72.212571" width="53.804286" height="314.227429"/>
  </clipPath>
 </defs>
</svg>
