<?xml version="1.0" encoding="utf-8" standalone="no"?>
<!DOCTYPE svg PUBLIC "-//W3C//DTD SVG 1.1//EN"
  "http://www.w3.org/Graphics/SVG/1.1/DTD/svg11.dtd">
<svg xmlns:xlink="http://www.w3.org/1999/xlink" width="414.641875pt" height="150.520479pt" viewBox="0 0 414.641875 150.520479" xmlns="http://www.w3.org/2000/svg" version="1.1">
 <metadata>
  <rdf:RDF xmlns:dc="http://purl.org/dc/elements/1.1/" xmlns:cc="http://creativecommons.org/ns#" xmlns:rdf="http://www.w3.org/1999/02/22-rdf-syntax-ns#">
   <cc:Work>
    <dc:type rdf:resource="http://purl.org/dc/dcmitype/StillImage"/>
    <dc:date>2022-12-10T11:00:13.508681</dc:date>
    <dc:format>image/svg+xml</dc:format>
    <dc:creator>
     <cc:Agent>
      <dc:title>Matplotlib v3.6.2, https://matplotlib.org/</dc:title>
     </cc:Agent>
    </dc:creator>
   </cc:Work>
  </rdf:RDF>
 </metadata>
 <defs>
  <style type="text/css">*{stroke-linejoin: round; stroke-linecap: butt}</style>
 </defs>
 <g id="figure_1">
  <g id="patch_1">
   <path d="M 0 150.520479 
L 414.641875 150.520479 
L 414.641875 0 
L 0 0 
z
" style="fill: #ffffff"/>
  </g>
  <g id="axes_1">
   <g id="patch_2">
    <path d="M 50.321875 139.332094 
L 407.441875 139.332094 
L 407.441875 32.196094 
L 50.321875 32.196094 
z
" style="fill: #ffffff"/>
   </g>
   <g id="patch_3">
    <path d="M 52.201454 106.634743 
L 67.238086 106.634743 
L 67.238086 92.720977 
L 52.201454 92.720977 
z
" clip-path="url(#p7ebdea084f)" style="fill: #3274a1"/>
   </g>
   <g id="patch_4">
    <path d="M 70.997243 106.634743 
L 86.033875 106.634743 
L 86.033875 78.807211 
L 70.997243 78.807211 
z
" clip-path="url(#p7ebdea084f)" style="fill: #3274a1"/>
   </g>
   <g id="patch_5">
    <path d="M 89.793033 106.634743 
L 104.829664 106.634743 
L 104.829664 78.807211 
L 89.793033 78.807211 
z
" clip-path="url(#p7ebdea084f)" style="fill: #3274a1"/>
   </g>
   <g id="patch_6">
    <path d="M 108.588822 106.634743 
L 123.625454 106.634743 
L 123.625454 78.807211 
L 108.588822 78.807211 
z
" clip-path="url(#p7ebdea084f)" style="fill: #3274a1"/>
   </g>
   <g id="patch_7">
    <path d="M 127.384612 106.634743 
L 142.421243 106.634743 
L 142.421243 92.720977 
L 127.384612 92.720977 
z
" clip-path="url(#p7ebdea084f)" style="fill: #3274a1"/>
   </g>
   <g id="patch_8">
    <path d="M 146.180401 106.634743 
L 161.217033 106.634743 
L 161.217033 50.979678 
L 146.180401 50.979678 
z
" clip-path="url(#p7ebdea084f)" style="fill: #3274a1"/>
   </g>
   <g id="patch_9">
    <path d="M 164.976191 106.634743 
L 180.012822 106.634743 
L 180.012822 78.807211 
L 164.976191 78.807211 
z
" clip-path="url(#p7ebdea084f)" style="fill: #3274a1"/>
   </g>
   <g id="patch_10">
    <path d="M 183.77198 106.634743 
L 198.808612 106.634743 
L 198.808612 92.720977 
L 183.77198 92.720977 
z
" clip-path="url(#p7ebdea084f)" style="fill: #3274a1"/>
   </g>
   <g id="patch_11">
    <path d="M 202.56777 106.634743 
L 217.604401 106.634743 
L 217.604401 50.979678 
L 202.56777 50.979678 
z
" clip-path="url(#p7ebdea084f)" style="fill: #3274a1"/>
   </g>
   <g id="patch_12">
    <path d="M 221.363559 106.634743 
L 236.400191 106.634743 
L 236.400191 37.065912 
L 221.363559 37.065912 
z
" clip-path="url(#p7ebdea084f)" style="fill: #3274a1"/>
   </g>
   <g id="patch_13">
    <path d="M 240.159349 106.634743 
L 255.19598 106.634743 
L 255.19598 92.720977 
L 240.159349 92.720977 
z
" clip-path="url(#p7ebdea084f)" style="fill: #3274a1"/>
   </g>
   <g id="patch_14">
    <path d="M 258.955138 106.634743 
L 273.99177 106.634743 
L 273.99177 92.720977 
L 258.955138 92.720977 
z
" clip-path="url(#p7ebdea084f)" style="fill: #3274a1"/>
   </g>
   <g id="patch_15">
    <path d="M 277.750928 106.634743 
L 292.787559 106.634743 
L 292.787559 78.807211 
L 277.750928 78.807211 
z
" clip-path="url(#p7ebdea084f)" style="fill: #3274a1"/>
   </g>
   <g id="patch_16">
    <path d="M 296.546717 106.634743 
L 311.583349 106.634743 
L 311.583349 106.634743 
L 296.546717 106.634743 
z
" clip-path="url(#p7ebdea084f)" style="fill: #3274a1"/>
   </g>
   <g id="patch_17">
    <path d="M 315.342507 106.634743 
L 330.379138 106.634743 
L 330.379138 78.807211 
L 315.342507 78.807211 
z
" clip-path="url(#p7ebdea084f)" style="fill: #3274a1"/>
   </g>
   <g id="patch_18">
    <path d="M 334.138296 106.634743 
L 349.174928 106.634743 
L 349.174928 50.979678 
L 334.138296 50.979678 
z
" clip-path="url(#p7ebdea084f)" style="fill: #3274a1"/>
   </g>
   <g id="patch_19">
    <path d="M 352.934086 106.634743 
L 367.970717 106.634743 
L 367.970717 106.634743 
L 352.934086 106.634743 
z
" clip-path="url(#p7ebdea084f)" style="fill: #3274a1"/>
   </g>
   <g id="patch_20">
    <path d="M 371.729875 106.634743 
L 386.766507 106.634743 
L 386.766507 78.807211 
L 371.729875 78.807211 
z
" clip-path="url(#p7ebdea084f)" style="fill: #3274a1"/>
   </g>
   <g id="patch_21">
    <path d="M 390.525664 106.634743 
L 405.562296 106.634743 
L 405.562296 78.807211 
L 390.525664 78.807211 
z
" clip-path="url(#p7ebdea084f)" style="fill: #3274a1"/>
   </g>
   <g id="patch_22">
    <path d="M 52.201454 106.634743 
L 67.238086 106.634743 
L 67.238086 134.462276 
L 52.201454 134.462276 
z
" clip-path="url(#p7ebdea084f)" style="fill: #e1812c"/>
   </g>
   <g id="patch_23">
    <path d="M 70.997243 106.634743 
L 86.033875 106.634743 
L 86.033875 106.634743 
L 70.997243 106.634743 
z
" clip-path="url(#p7ebdea084f)" style="fill: #e1812c"/>
   </g>
   <g id="patch_24">
    <path d="M 89.793033 106.634743 
L 104.829664 106.634743 
L 104.829664 106.634743 
L 89.793033 106.634743 
z
" clip-path="url(#p7ebdea084f)" style="fill: #e1812c"/>
   </g>
   <g id="patch_25">
    <path d="M 108.588822 106.634743 
L 123.625454 106.634743 
L 123.625454 106.634743 
L 108.588822 106.634743 
z
" clip-path="url(#p7ebdea084f)" style="fill: #e1812c"/>
   </g>
   <g id="patch_26">
    <path d="M 127.384612 106.634743 
L 142.421243 106.634743 
L 142.421243 106.634743 
L 127.384612 106.634743 
z
" clip-path="url(#p7ebdea084f)" style="fill: #e1812c"/>
   </g>
   <g id="patch_27">
    <path d="M 146.180401 106.634743 
L 161.217033 106.634743 
L 161.217033 106.634743 
L 146.180401 106.634743 
z
" clip-path="url(#p7ebdea084f)" style="fill: #e1812c"/>
   </g>
   <g id="patch_28">
    <path d="M 164.976191 106.634743 
L 180.012822 106.634743 
L 180.012822 106.634743 
L 164.976191 106.634743 
z
" clip-path="url(#p7ebdea084f)" style="fill: #e1812c"/>
   </g>
   <g id="patch_29">
    <path d="M 183.77198 106.634743 
L 198.808612 106.634743 
L 198.808612 120.548509 
L 183.77198 120.548509 
z
" clip-path="url(#p7ebdea084f)" style="fill: #e1812c"/>
   </g>
   <g id="patch_30">
    <path d="M 202.56777 106.634743 
L 217.604401 106.634743 
L 217.604401 106.634743 
L 202.56777 106.634743 
z
" clip-path="url(#p7ebdea084f)" style="fill: #e1812c"/>
   </g>
   <g id="patch_31">
    <path d="M 221.363559 106.634743 
L 236.400191 106.634743 
L 236.400191 106.634743 
L 221.363559 106.634743 
z
" clip-path="url(#p7ebdea084f)" style="fill: #e1812c"/>
   </g>
   <g id="patch_32">
    <path d="M 240.159349 106.634743 
L 255.19598 106.634743 
L 255.19598 120.548509 
L 240.159349 120.548509 
z
" clip-path="url(#p7ebdea084f)" style="fill: #e1812c"/>
   </g>
   <g id="patch_33">
    <path d="M 258.955138 106.634743 
L 273.99177 106.634743 
L 273.99177 134.462276 
L 258.955138 134.462276 
z
" clip-path="url(#p7ebdea084f)" style="fill: #e1812c"/>
   </g>
   <g id="patch_34">
    <path d="M 277.750928 106.634743 
L 292.787559 106.634743 
L 292.787559 106.634743 
L 277.750928 106.634743 
z
" clip-path="url(#p7ebdea084f)" style="fill: #e1812c"/>
   </g>
   <g id="patch_35">
    <path d="M 296.546717 106.634743 
L 311.583349 106.634743 
L 311.583349 120.548509 
L 296.546717 120.548509 
z
" clip-path="url(#p7ebdea084f)" style="fill: #e1812c"/>
   </g>
   <g id="patch_36">
    <path d="M 315.342507 106.634743 
L 330.379138 106.634743 
L 330.379138 134.462276 
L 315.342507 134.462276 
z
" clip-path="url(#p7ebdea084f)" style="fill: #e1812c"/>
   </g>
   <g id="patch_37">
    <path d="M 334.138296 106.634743 
L 349.174928 106.634743 
L 349.174928 106.634743 
L 334.138296 106.634743 
z
" clip-path="url(#p7ebdea084f)" style="fill: #e1812c"/>
   </g>
   <g id="patch_38">
    <path d="M 352.934086 106.634743 
L 367.970717 106.634743 
L 367.970717 106.634743 
L 352.934086 106.634743 
z
" clip-path="url(#p7ebdea084f)" style="fill: #e1812c"/>
   </g>
   <g id="patch_39">
    <path d="M 371.729875 106.634743 
L 386.766507 106.634743 
L 386.766507 120.548509 
L 371.729875 120.548509 
z
" clip-path="url(#p7ebdea084f)" style="fill: #e1812c"/>
   </g>
   <g id="patch_40">
    <path d="M 390.525664 106.634743 
L 405.562296 106.634743 
L 405.562296 106.634743 
L 390.525664 106.634743 
z
" clip-path="url(#p7ebdea084f)" style="fill: #e1812c"/>
   </g>
   <g id="matplotlib.axis_1"/>
   <g id="matplotlib.axis_2">
    <g id="ytick_1">
     <g id="line2d_1">
      <defs>
       <path id="mf52dbcd50a" d="M 0 0 
L -3.5 0 
" style="stroke: #000000; stroke-width: 0.8"/>
      </defs>
      <g>
       <use xlink:href="#mf52dbcd50a" x="50.321875" y="106.634743" style="stroke: #000000; stroke-width: 0.8"/>
      </g>
     </g>
     <g id="text_1">
      <!--    0 -->
      <g transform="translate(7.2 112.373415) scale(0.15 -0.15)">
       <defs>
        <path id="DejaVuSansMono-20" transform="scale(0.015625)"/>
        <path id="DejaVuSansMono-30" d="M 1509 2344 
Q 1509 2516 1629 2641 
Q 1750 2766 1919 2766 
Q 2094 2766 2219 2641 
Q 2344 2516 2344 2344 
Q 2344 2169 2220 2047 
Q 2097 1925 1919 1925 
Q 1744 1925 1626 2044 
Q 1509 2163 1509 2344 
z
M 1925 4250 
Q 1484 4250 1267 3775 
Q 1050 3300 1050 2328 
Q 1050 1359 1267 884 
Q 1484 409 1925 409 
Q 2369 409 2586 884 
Q 2803 1359 2803 2328 
Q 2803 3300 2586 3775 
Q 2369 4250 1925 4250 
z
M 1925 4750 
Q 2672 4750 3055 4137 
Q 3438 3525 3438 2328 
Q 3438 1134 3055 521 
Q 2672 -91 1925 -91 
Q 1178 -91 797 521 
Q 416 1134 416 2328 
Q 416 3525 797 4137 
Q 1178 4750 1925 4750 
z
" transform="scale(0.015625)"/>
       </defs>
       <use xlink:href="#DejaVuSansMono-20"/>
       <use xlink:href="#DejaVuSansMono-20" x="60.205078"/>
       <use xlink:href="#DejaVuSansMono-20" x="120.410156"/>
       <use xlink:href="#DejaVuSansMono-30" x="180.615234"/>
      </g>
     </g>
    </g>
    <g id="ytick_2">
     <g id="line2d_2">
      <g>
       <use xlink:href="#mf52dbcd50a" x="50.321875" y="37.065912" style="stroke: #000000; stroke-width: 0.8"/>
      </g>
     </g>
     <g id="text_2">
      <!--    5 -->
      <g transform="translate(7.2 42.804584) scale(0.15 -0.15)">
       <defs>
        <path id="DejaVuSansMono-35" d="M 647 4666 
L 3009 4666 
L 3009 4134 
L 1222 4134 
L 1222 2988 
Q 1356 3038 1492 3061 
Q 1628 3084 1766 3084 
Q 2491 3084 2916 2656 
Q 3341 2228 3341 1497 
Q 3341 759 2895 334 
Q 2450 -91 1678 -91 
Q 1306 -91 998 -41 
Q 691 9 447 109 
L 447 750 
Q 734 594 1025 517 
Q 1316 441 1619 441 
Q 2141 441 2423 716 
Q 2706 991 2706 1497 
Q 2706 1997 2414 2275 
Q 2122 2553 1600 2553 
Q 1347 2553 1106 2495 
Q 866 2438 647 2322 
L 647 4666 
z
" transform="scale(0.015625)"/>
       </defs>
       <use xlink:href="#DejaVuSansMono-20"/>
       <use xlink:href="#DejaVuSansMono-20" x="60.205078"/>
       <use xlink:href="#DejaVuSansMono-20" x="120.410156"/>
       <use xlink:href="#DejaVuSansMono-35" x="180.615234"/>
      </g>
     </g>
    </g>
    <g id="ytick_3">
     <g id="line2d_3">
      <g>
       <use xlink:href="#mf52dbcd50a" x="50.321875" y="134.462276" style="stroke: #000000; stroke-width: 0.8"/>
      </g>
     </g>
     <g id="text_3">
      <!--   -2 -->
      <g transform="translate(7.2 140.200947) scale(0.15 -0.15)">
       <defs>
        <path id="DejaVuSansMono-2d" d="M 1113 2009 
L 2741 2009 
L 2741 1497 
L 1113 1497 
L 1113 2009 
z
" transform="scale(0.015625)"/>
        <path id="DejaVuSansMono-32" d="M 1166 531 
L 3309 531 
L 3309 0 
L 475 0 
L 475 531 
Q 1059 1147 1496 1619 
Q 1934 2091 2100 2284 
Q 2413 2666 2522 2902 
Q 2631 3138 2631 3384 
Q 2631 3775 2401 3997 
Q 2172 4219 1772 4219 
Q 1488 4219 1175 4116 
Q 863 4013 513 3803 
L 513 4441 
Q 834 4594 1145 4672 
Q 1456 4750 1759 4750 
Q 2444 4750 2861 4386 
Q 3278 4022 3278 3431 
Q 3278 3131 3139 2831 
Q 3000 2531 2688 2169 
Q 2513 1966 2180 1606 
Q 1847 1247 1166 531 
z
" transform="scale(0.015625)"/>
       </defs>
       <use xlink:href="#DejaVuSansMono-20"/>
       <use xlink:href="#DejaVuSansMono-20" x="60.205078"/>
       <use xlink:href="#DejaVuSansMono-2d" x="120.410156"/>
       <use xlink:href="#DejaVuSansMono-32" x="180.615234"/>
      </g>
     </g>
    </g>
   </g>
   <g id="line2d_4">
    <path clip-path="url(#p7ebdea084f)" style="fill: none; stroke: #424242; stroke-width: 2.7; stroke-linecap: square"/>
   </g>
   <g id="line2d_5">
    <path clip-path="url(#p7ebdea084f)" style="fill: none; stroke: #424242; stroke-width: 2.7; stroke-linecap: square"/>
   </g>
   <g id="line2d_6">
    <path clip-path="url(#p7ebdea084f)" style="fill: none; stroke: #424242; stroke-width: 2.7; stroke-linecap: square"/>
   </g>
   <g id="line2d_7">
    <path clip-path="url(#p7ebdea084f)" style="fill: none; stroke: #424242; stroke-width: 2.7; stroke-linecap: square"/>
   </g>
   <g id="line2d_8">
    <path clip-path="url(#p7ebdea084f)" style="fill: none; stroke: #424242; stroke-width: 2.7; stroke-linecap: square"/>
   </g>
   <g id="line2d_9">
    <path clip-path="url(#p7ebdea084f)" style="fill: none; stroke: #424242; stroke-width: 2.7; stroke-linecap: square"/>
   </g>
   <g id="line2d_10">
    <path clip-path="url(#p7ebdea084f)" style="fill: none; stroke: #424242; stroke-width: 2.7; stroke-linecap: square"/>
   </g>
   <g id="line2d_11">
    <path clip-path="url(#p7ebdea084f)" style="fill: none; stroke: #424242; stroke-width: 2.7; stroke-linecap: square"/>
   </g>
   <g id="line2d_12">
    <path clip-path="url(#p7ebdea084f)" style="fill: none; stroke: #424242; stroke-width: 2.7; stroke-linecap: square"/>
   </g>
   <g id="line2d_13">
    <path clip-path="url(#p7ebdea084f)" style="fill: none; stroke: #424242; stroke-width: 2.7; stroke-linecap: square"/>
   </g>
   <g id="line2d_14">
    <path clip-path="url(#p7ebdea084f)" style="fill: none; stroke: #424242; stroke-width: 2.7; stroke-linecap: square"/>
   </g>
   <g id="line2d_15">
    <path clip-path="url(#p7ebdea084f)" style="fill: none; stroke: #424242; stroke-width: 2.7; stroke-linecap: square"/>
   </g>
   <g id="line2d_16">
    <path clip-path="url(#p7ebdea084f)" style="fill: none; stroke: #424242; stroke-width: 2.7; stroke-linecap: square"/>
   </g>
   <g id="line2d_17">
    <path clip-path="url(#p7ebdea084f)" style="fill: none; stroke: #424242; stroke-width: 2.7; stroke-linecap: square"/>
   </g>
   <g id="line2d_18">
    <path clip-path="url(#p7ebdea084f)" style="fill: none; stroke: #424242; stroke-width: 2.7; stroke-linecap: square"/>
   </g>
   <g id="line2d_19">
    <path clip-path="url(#p7ebdea084f)" style="fill: none; stroke: #424242; stroke-width: 2.7; stroke-linecap: square"/>
   </g>
   <g id="line2d_20">
    <path clip-path="url(#p7ebdea084f)" style="fill: none; stroke: #424242; stroke-width: 2.7; stroke-linecap: square"/>
   </g>
   <g id="line2d_21">
    <path clip-path="url(#p7ebdea084f)" style="fill: none; stroke: #424242; stroke-width: 2.7; stroke-linecap: square"/>
   </g>
   <g id="line2d_22">
    <path clip-path="url(#p7ebdea084f)" style="fill: none; stroke: #424242; stroke-width: 2.7; stroke-linecap: square"/>
   </g>
   <g id="line2d_23">
    <path clip-path="url(#p7ebdea084f)" style="fill: none; stroke: #424242; stroke-width: 2.7; stroke-linecap: square"/>
   </g>
   <g id="line2d_24">
    <path clip-path="url(#p7ebdea084f)" style="fill: none; stroke: #424242; stroke-width: 2.7; stroke-linecap: square"/>
   </g>
   <g id="line2d_25">
    <path clip-path="url(#p7ebdea084f)" style="fill: none; stroke: #424242; stroke-width: 2.7; stroke-linecap: square"/>
   </g>
   <g id="line2d_26">
    <path clip-path="url(#p7ebdea084f)" style="fill: none; stroke: #424242; stroke-width: 2.7; stroke-linecap: square"/>
   </g>
   <g id="line2d_27">
    <path clip-path="url(#p7ebdea084f)" style="fill: none; stroke: #424242; stroke-width: 2.7; stroke-linecap: square"/>
   </g>
   <g id="line2d_28">
    <path clip-path="url(#p7ebdea084f)" style="fill: none; stroke: #424242; stroke-width: 2.7; stroke-linecap: square"/>
   </g>
   <g id="line2d_29">
    <path clip-path="url(#p7ebdea084f)" style="fill: none; stroke: #424242; stroke-width: 2.7; stroke-linecap: square"/>
   </g>
   <g id="line2d_30">
    <path clip-path="url(#p7ebdea084f)" style="fill: none; stroke: #424242; stroke-width: 2.7; stroke-linecap: square"/>
   </g>
   <g id="line2d_31">
    <path clip-path="url(#p7ebdea084f)" style="fill: none; stroke: #424242; stroke-width: 2.7; stroke-linecap: square"/>
   </g>
   <g id="line2d_32">
    <path clip-path="url(#p7ebdea084f)" style="fill: none; stroke: #424242; stroke-width: 2.7; stroke-linecap: square"/>
   </g>
   <g id="line2d_33">
    <path clip-path="url(#p7ebdea084f)" style="fill: none; stroke: #424242; stroke-width: 2.7; stroke-linecap: square"/>
   </g>
   <g id="line2d_34">
    <path clip-path="url(#p7ebdea084f)" style="fill: none; stroke: #424242; stroke-width: 2.7; stroke-linecap: square"/>
   </g>
   <g id="line2d_35">
    <path clip-path="url(#p7ebdea084f)" style="fill: none; stroke: #424242; stroke-width: 2.7; stroke-linecap: square"/>
   </g>
   <g id="line2d_36">
    <path clip-path="url(#p7ebdea084f)" style="fill: none; stroke: #424242; stroke-width: 2.7; stroke-linecap: square"/>
   </g>
   <g id="line2d_37">
    <path clip-path="url(#p7ebdea084f)" style="fill: none; stroke: #424242; stroke-width: 2.7; stroke-linecap: square"/>
   </g>
   <g id="line2d_38">
    <path clip-path="url(#p7ebdea084f)" style="fill: none; stroke: #424242; stroke-width: 2.7; stroke-linecap: square"/>
   </g>
   <g id="line2d_39">
    <path clip-path="url(#p7ebdea084f)" style="fill: none; stroke: #424242; stroke-width: 2.7; stroke-linecap: square"/>
   </g>
   <g id="line2d_40">
    <path clip-path="url(#p7ebdea084f)" style="fill: none; stroke: #424242; stroke-width: 2.7; stroke-linecap: square"/>
   </g>
   <g id="line2d_41">
    <path clip-path="url(#p7ebdea084f)" style="fill: none; stroke: #424242; stroke-width: 2.7; stroke-linecap: square"/>
   </g>
   <g id="patch_41">
    <path d="M 50.321875 139.332094 
L 50.321875 32.196094 
" style="fill: none; stroke: #000000; stroke-width: 0.8; stroke-linejoin: miter; stroke-linecap: square"/>
   </g>
   <g id="patch_42">
    <path d="M 407.441875 139.332094 
L 407.441875 32.196094 
" style="fill: none; stroke: #000000; stroke-width: 0.8; stroke-linejoin: miter; stroke-linecap: square"/>
   </g>
   <g id="patch_43">
    <path d="M 50.321875 139.332094 
L 407.441875 139.332094 
" style="fill: none; stroke: #000000; stroke-width: 0.8; stroke-linejoin: miter; stroke-linecap: square"/>
   </g>
   <g id="patch_44">
    <path d="M 50.321875 32.196094 
L 407.441875 32.196094 
" style="fill: none; stroke: #000000; stroke-width: 0.8; stroke-linejoin: miter; stroke-linecap: square"/>
   </g>
   <g id="text_4">
    <!-- libpng -->
    <g transform="translate(190.208047 26.196094) scale(0.25 -0.25)">
     <defs>
      <path id="DejaVuSans-6c" d="M 603 4863 
L 1178 4863 
L 1178 0 
L 603 0 
L 603 4863 
z
" transform="scale(0.015625)"/>
      <path id="DejaVuSans-69" d="M 603 3500 
L 1178 3500 
L 1178 0 
L 603 0 
L 603 3500 
z
M 603 4863 
L 1178 4863 
L 1178 4134 
L 603 4134 
L 603 4863 
z
" transform="scale(0.015625)"/>
      <path id="DejaVuSans-62" d="M 3116 1747 
Q 3116 2381 2855 2742 
Q 2594 3103 2138 3103 
Q 1681 3103 1420 2742 
Q 1159 2381 1159 1747 
Q 1159 1113 1420 752 
Q 1681 391 2138 391 
Q 2594 391 2855 752 
Q 3116 1113 3116 1747 
z
M 1159 2969 
Q 1341 3281 1617 3432 
Q 1894 3584 2278 3584 
Q 2916 3584 3314 3078 
Q 3713 2572 3713 1747 
Q 3713 922 3314 415 
Q 2916 -91 2278 -91 
Q 1894 -91 1617 61 
Q 1341 213 1159 525 
L 1159 0 
L 581 0 
L 581 4863 
L 1159 4863 
L 1159 2969 
z
" transform="scale(0.015625)"/>
      <path id="DejaVuSans-70" d="M 1159 525 
L 1159 -1331 
L 581 -1331 
L 581 3500 
L 1159 3500 
L 1159 2969 
Q 1341 3281 1617 3432 
Q 1894 3584 2278 3584 
Q 2916 3584 3314 3078 
Q 3713 2572 3713 1747 
Q 3713 922 3314 415 
Q 2916 -91 2278 -91 
Q 1894 -91 1617 61 
Q 1341 213 1159 525 
z
M 3116 1747 
Q 3116 2381 2855 2742 
Q 2594 3103 2138 3103 
Q 1681 3103 1420 2742 
Q 1159 2381 1159 1747 
Q 1159 1113 1420 752 
Q 1681 391 2138 391 
Q 2594 391 2855 752 
Q 3116 1113 3116 1747 
z
" transform="scale(0.015625)"/>
      <path id="DejaVuSans-6e" d="M 3513 2113 
L 3513 0 
L 2938 0 
L 2938 2094 
Q 2938 2591 2744 2837 
Q 2550 3084 2163 3084 
Q 1697 3084 1428 2787 
Q 1159 2491 1159 1978 
L 1159 0 
L 581 0 
L 581 3500 
L 1159 3500 
L 1159 2956 
Q 1366 3272 1645 3428 
Q 1925 3584 2291 3584 
Q 2894 3584 3203 3211 
Q 3513 2838 3513 2113 
z
" transform="scale(0.015625)"/>
      <path id="DejaVuSans-67" d="M 2906 1791 
Q 2906 2416 2648 2759 
Q 2391 3103 1925 3103 
Q 1463 3103 1205 2759 
Q 947 2416 947 1791 
Q 947 1169 1205 825 
Q 1463 481 1925 481 
Q 2391 481 2648 825 
Q 2906 1169 2906 1791 
z
M 3481 434 
Q 3481 -459 3084 -895 
Q 2688 -1331 1869 -1331 
Q 1566 -1331 1297 -1286 
Q 1028 -1241 775 -1147 
L 775 -588 
Q 1028 -725 1275 -790 
Q 1522 -856 1778 -856 
Q 2344 -856 2625 -561 
Q 2906 -266 2906 331 
L 2906 616 
Q 2728 306 2450 153 
Q 2172 0 1784 0 
Q 1141 0 747 490 
Q 353 981 353 1791 
Q 353 2603 747 3093 
Q 1141 3584 1784 3584 
Q 2172 3584 2450 3431 
Q 2728 3278 2906 2969 
L 2906 3500 
L 3481 3500 
L 3481 434 
z
" transform="scale(0.015625)"/>
     </defs>
     <use xlink:href="#DejaVuSans-6c"/>
     <use xlink:href="#DejaVuSans-69" x="27.783203"/>
     <use xlink:href="#DejaVuSans-62" x="55.566406"/>
     <use xlink:href="#DejaVuSans-70" x="119.042969"/>
     <use xlink:href="#DejaVuSans-6e" x="182.519531"/>
     <use xlink:href="#DejaVuSans-67" x="245.898438"/>
    </g>
   </g>
  </g>
 </g>
 <defs>
  <clipPath id="p7ebdea084f">
   <rect x="50.321875" y="32.196094" width="357.12" height="107.136"/>
  </clipPath>
 </defs>
</svg>
