<?xml version="1.0" encoding="utf-8" standalone="no"?>
<!DOCTYPE svg PUBLIC "-//W3C//DTD SVG 1.1//EN"
  "http://www.w3.org/Graphics/SVG/1.1/DTD/svg11.dtd">
<svg xmlns:xlink="http://www.w3.org/1999/xlink" width="440.47375pt" height="438.513437pt" viewBox="0 0 440.47375 438.513437" xmlns="http://www.w3.org/2000/svg" version="1.1">
 <metadata>
  <rdf:RDF xmlns:dc="http://purl.org/dc/elements/1.1/" xmlns:cc="http://creativecommons.org/ns#" xmlns:rdf="http://www.w3.org/1999/02/22-rdf-syntax-ns#">
   <cc:Work>
    <dc:type rdf:resource="http://purl.org/dc/dcmitype/StillImage"/>
    <dc:date>2022-02-23T14:19:47.370211</dc:date>
    <dc:format>image/svg+xml</dc:format>
    <dc:creator>
     <cc:Agent>
      <dc:title>Matplotlib v3.5.1, https://matplotlib.org/</dc:title>
     </cc:Agent>
    </dc:creator>
   </cc:Work>
  </rdf:RDF>
 </metadata>
 <defs>
  <style type="text/css">*{stroke-linejoin: round; stroke-linecap: butt}</style>
 </defs>
 <g id="figure_1">
  <g id="patch_1">
   <path d="M 0 438.513437 
L 440.47375 438.513437 
L 440.47375 0 
L 0 0 
z
" style="fill: #ffffff"/>
  </g>
  <g id="axes_1">
   <g id="patch_2">
    <path d="M 56.64375 386.44 
L 368.708607 386.44 
L 368.708607 72.212571 
L 56.64375 72.212571 
z
" style="fill: #ffffff"/>
   </g>
   <g id="PathCollection_1">
    <defs>
     <path id="m434628e63c" d="M 0 4.330127 
C 1.148363 4.330127 2.249847 3.873878 3.061862 3.061862 
C 3.873878 2.249847 4.330127 1.148363 4.330127 0 
C 4.330127 -1.148363 3.873878 -2.249847 3.061862 -3.061862 
C 2.249847 -3.873878 1.148363 -4.330127 0 -4.330127 
C -1.148363 -4.330127 -2.249847 -3.873878 -3.061862 -3.061862 
C -3.873878 -2.249847 -4.330127 -1.148363 -4.330127 0 
C -4.330127 1.148363 -3.873878 2.249847 -3.061862 3.061862 
C -2.249847 3.873878 -1.148363 4.330127 0 4.330127 
z
" style="stroke: #ffffff; stroke-opacity: 0.5; stroke-width: 0.69282"/>
    </defs>
    <g clip-path="url(#p5fa8bbaedf)">
     <use xlink:href="#m434628e63c" x="70.828516" y="302.905711" style="fill: #1f77b4; fill-opacity: 0.5; stroke: #ffffff; stroke-opacity: 0.5; stroke-width: 0.69282"/>
     <use xlink:href="#m434628e63c" x="72.765003" y="285.592905" style="fill: #1f77b4; fill-opacity: 0.5; stroke: #ffffff; stroke-opacity: 0.5; stroke-width: 0.69282"/>
     <use xlink:href="#m434628e63c" x="70.828516" y="285.592905" style="fill: #1f77b4; fill-opacity: 0.5; stroke: #ffffff; stroke-opacity: 0.5; stroke-width: 0.69282"/>
     <use xlink:href="#m434628e63c" x="70.828516" y="372.156935" style="fill: #1f77b4; fill-opacity: 0.5; stroke: #ffffff; stroke-opacity: 0.5; stroke-width: 0.69282"/>
     <use xlink:href="#m434628e63c" x="354.523841" y="86.495636" style="fill: #1f77b4; fill-opacity: 0.5; stroke: #ffffff; stroke-opacity: 0.5; stroke-width: 0.69282"/>
     <use xlink:href="#m434628e63c" x="70.828516" y="285.592905" style="fill: #1f77b4; fill-opacity: 0.5; stroke: #ffffff; stroke-opacity: 0.5; stroke-width: 0.69282"/>
     <use xlink:href="#m434628e63c" x="70.828516" y="302.905711" style="fill: #1f77b4; fill-opacity: 0.5; stroke: #ffffff; stroke-opacity: 0.5; stroke-width: 0.69282"/>
     <use xlink:href="#m434628e63c" x="70.828516" y="242.31089" style="fill: #1f77b4; fill-opacity: 0.5; stroke: #ffffff; stroke-opacity: 0.5; stroke-width: 0.69282"/>
     <use xlink:href="#m434628e63c" x="153.129208" y="138.434054" style="fill: #1f77b4; fill-opacity: 0.5; stroke: #ffffff; stroke-opacity: 0.5; stroke-width: 0.69282"/>
     <use xlink:href="#m434628e63c" x="70.828516" y="285.592905" style="fill: #1f77b4; fill-opacity: 0.5; stroke: #ffffff; stroke-opacity: 0.5; stroke-width: 0.69282"/>
     <use xlink:href="#m434628e63c" x="70.828516" y="328.87492" style="fill: #1f77b4; fill-opacity: 0.5; stroke: #ffffff; stroke-opacity: 0.5; stroke-width: 0.69282"/>
     <use xlink:href="#m434628e63c" x="70.828516" y="285.592905" style="fill: #1f77b4; fill-opacity: 0.5; stroke: #ffffff; stroke-opacity: 0.5; stroke-width: 0.69282"/>
     <use xlink:href="#m434628e63c" x="71.79676" y="181.716069" style="fill: #1f77b4; fill-opacity: 0.5; stroke: #ffffff; stroke-opacity: 0.5; stroke-width: 0.69282"/>
     <use xlink:href="#m434628e63c" x="71.79676" y="138.434054" style="fill: #1f77b4; fill-opacity: 0.5; stroke: #ffffff; stroke-opacity: 0.5; stroke-width: 0.69282"/>
     <use xlink:href="#m434628e63c" x="70.828516" y="363.500532" style="fill: #1f77b4; fill-opacity: 0.5; stroke: #ffffff; stroke-opacity: 0.5; stroke-width: 0.69282"/>
     <use xlink:href="#m434628e63c" x="76.637977" y="190.372472" style="fill: #1f77b4; fill-opacity: 0.5; stroke: #ffffff; stroke-opacity: 0.5; stroke-width: 0.69282"/>
     <use xlink:href="#m434628e63c" x="76.637977" y="147.090457" style="fill: #1f77b4; fill-opacity: 0.5; stroke: #ffffff; stroke-opacity: 0.5; stroke-width: 0.69282"/>
     <use xlink:href="#m434628e63c" x="70.828516" y="268.280099" style="fill: #1f77b4; fill-opacity: 0.5; stroke: #ffffff; stroke-opacity: 0.5; stroke-width: 0.69282"/>
     <use xlink:href="#m434628e63c" x="72.765003" y="250.967293" style="fill: #1f77b4; fill-opacity: 0.5; stroke: #ffffff; stroke-opacity: 0.5; stroke-width: 0.69282"/>
    </g>
   </g>
   <g id="matplotlib.axis_1">
    <g id="xtick_1">
     <g id="line2d_1">
      <defs>
       <path id="m73f87d929d" d="M 0 0 
L 0 3.5 
" style="stroke: #000000; stroke-width: 0.8"/>
      </defs>
      <g>
       <use xlink:href="#m73f87d929d" x="69.860273" y="386.44" style="stroke: #000000; stroke-width: 0.8"/>
      </g>
     </g>
     <g id="text_1">
      <!-- 0 -->
      <g transform="translate(65.088398 404.837656)scale(0.15 -0.15)">
       <defs>
        <path id="DejaVuSans-30" d="M 2034 4250 
Q 1547 4250 1301 3770 
Q 1056 3291 1056 2328 
Q 1056 1369 1301 889 
Q 1547 409 2034 409 
Q 2525 409 2770 889 
Q 3016 1369 3016 2328 
Q 3016 3291 2770 3770 
Q 2525 4250 2034 4250 
z
M 2034 4750 
Q 2819 4750 3233 4129 
Q 3647 3509 3647 2328 
Q 3647 1150 3233 529 
Q 2819 -91 2034 -91 
Q 1250 -91 836 529 
Q 422 1150 422 2328 
Q 422 3509 836 4129 
Q 1250 4750 2034 4750 
z
" transform="scale(0.015625)"/>
       </defs>
       <use xlink:href="#DejaVuSans-30"/>
      </g>
     </g>
    </g>
    <g id="xtick_2">
     <g id="line2d_2">
      <g>
       <use xlink:href="#m73f87d929d" x="166.684616" y="386.44" style="stroke: #000000; stroke-width: 0.8"/>
      </g>
     </g>
     <g id="text_2">
      <!-- 100 -->
      <g transform="translate(152.368991 404.837656)scale(0.15 -0.15)">
       <defs>
        <path id="DejaVuSans-31" d="M 794 531 
L 1825 531 
L 1825 4091 
L 703 3866 
L 703 4441 
L 1819 4666 
L 2450 4666 
L 2450 531 
L 3481 531 
L 3481 0 
L 794 0 
L 794 531 
z
" transform="scale(0.015625)"/>
       </defs>
       <use xlink:href="#DejaVuSans-31"/>
       <use xlink:href="#DejaVuSans-30" x="63.623047"/>
       <use xlink:href="#DejaVuSans-30" x="127.246094"/>
      </g>
     </g>
    </g>
    <g id="xtick_3">
     <g id="line2d_3">
      <g>
       <use xlink:href="#m73f87d929d" x="263.508959" y="386.44" style="stroke: #000000; stroke-width: 0.8"/>
      </g>
     </g>
     <g id="text_3">
      <!-- 200 -->
      <g transform="translate(249.193334 404.837656)scale(0.15 -0.15)">
       <defs>
        <path id="DejaVuSans-32" d="M 1228 531 
L 3431 531 
L 3431 0 
L 469 0 
L 469 531 
Q 828 903 1448 1529 
Q 2069 2156 2228 2338 
Q 2531 2678 2651 2914 
Q 2772 3150 2772 3378 
Q 2772 3750 2511 3984 
Q 2250 4219 1831 4219 
Q 1534 4219 1204 4116 
Q 875 4013 500 3803 
L 500 4441 
Q 881 4594 1212 4672 
Q 1544 4750 1819 4750 
Q 2544 4750 2975 4387 
Q 3406 4025 3406 3419 
Q 3406 3131 3298 2873 
Q 3191 2616 2906 2266 
Q 2828 2175 2409 1742 
Q 1991 1309 1228 531 
z
" transform="scale(0.015625)"/>
       </defs>
       <use xlink:href="#DejaVuSans-32"/>
       <use xlink:href="#DejaVuSans-30" x="63.623047"/>
       <use xlink:href="#DejaVuSans-30" x="127.246094"/>
      </g>
     </g>
    </g>
    <g id="xtick_4">
     <g id="line2d_4">
      <g>
       <use xlink:href="#m73f87d929d" x="360.333301" y="386.44" style="stroke: #000000; stroke-width: 0.8"/>
      </g>
     </g>
     <g id="text_4">
      <!-- 300 -->
      <g transform="translate(346.017676 404.837656)scale(0.15 -0.15)">
       <defs>
        <path id="DejaVuSans-33" d="M 2597 2516 
Q 3050 2419 3304 2112 
Q 3559 1806 3559 1356 
Q 3559 666 3084 287 
Q 2609 -91 1734 -91 
Q 1441 -91 1130 -33 
Q 819 25 488 141 
L 488 750 
Q 750 597 1062 519 
Q 1375 441 1716 441 
Q 2309 441 2620 675 
Q 2931 909 2931 1356 
Q 2931 1769 2642 2001 
Q 2353 2234 1838 2234 
L 1294 2234 
L 1294 2753 
L 1863 2753 
Q 2328 2753 2575 2939 
Q 2822 3125 2822 3475 
Q 2822 3834 2567 4026 
Q 2313 4219 1838 4219 
Q 1578 4219 1281 4162 
Q 984 4106 628 3988 
L 628 4550 
Q 988 4650 1302 4700 
Q 1616 4750 1894 4750 
Q 2613 4750 3031 4423 
Q 3450 4097 3450 3541 
Q 3450 3153 3228 2886 
Q 3006 2619 2597 2516 
z
" transform="scale(0.015625)"/>
       </defs>
       <use xlink:href="#DejaVuSans-33"/>
       <use xlink:href="#DejaVuSans-30" x="63.623047"/>
       <use xlink:href="#DejaVuSans-30" x="127.246094"/>
      </g>
     </g>
    </g>
    <g id="text_5">
     <!-- # Commits -->
     <g transform="translate(156.627741 427.154062)scale(0.2 -0.2)">
      <defs>
       <path id="DejaVuSans-23" d="M 3272 2816 
L 2363 2816 
L 2100 1772 
L 3016 1772 
L 3272 2816 
z
M 2803 4594 
L 2478 3297 
L 3391 3297 
L 3719 4594 
L 4219 4594 
L 3897 3297 
L 4872 3297 
L 4872 2816 
L 3775 2816 
L 3519 1772 
L 4513 1772 
L 4513 1294 
L 3397 1294 
L 3072 0 
L 2572 0 
L 2894 1294 
L 1978 1294 
L 1656 0 
L 1153 0 
L 1478 1294 
L 494 1294 
L 494 1772 
L 1594 1772 
L 1856 2816 
L 850 2816 
L 850 3297 
L 1978 3297 
L 2297 4594 
L 2803 4594 
z
" transform="scale(0.015625)"/>
       <path id="DejaVuSans-20" transform="scale(0.015625)"/>
       <path id="DejaVuSans-43" d="M 4122 4306 
L 4122 3641 
Q 3803 3938 3442 4084 
Q 3081 4231 2675 4231 
Q 1875 4231 1450 3742 
Q 1025 3253 1025 2328 
Q 1025 1406 1450 917 
Q 1875 428 2675 428 
Q 3081 428 3442 575 
Q 3803 722 4122 1019 
L 4122 359 
Q 3791 134 3420 21 
Q 3050 -91 2638 -91 
Q 1578 -91 968 557 
Q 359 1206 359 2328 
Q 359 3453 968 4101 
Q 1578 4750 2638 4750 
Q 3056 4750 3426 4639 
Q 3797 4528 4122 4306 
z
" transform="scale(0.015625)"/>
       <path id="DejaVuSans-6f" d="M 1959 3097 
Q 1497 3097 1228 2736 
Q 959 2375 959 1747 
Q 959 1119 1226 758 
Q 1494 397 1959 397 
Q 2419 397 2687 759 
Q 2956 1122 2956 1747 
Q 2956 2369 2687 2733 
Q 2419 3097 1959 3097 
z
M 1959 3584 
Q 2709 3584 3137 3096 
Q 3566 2609 3566 1747 
Q 3566 888 3137 398 
Q 2709 -91 1959 -91 
Q 1206 -91 779 398 
Q 353 888 353 1747 
Q 353 2609 779 3096 
Q 1206 3584 1959 3584 
z
" transform="scale(0.015625)"/>
       <path id="DejaVuSans-6d" d="M 3328 2828 
Q 3544 3216 3844 3400 
Q 4144 3584 4550 3584 
Q 5097 3584 5394 3201 
Q 5691 2819 5691 2113 
L 5691 0 
L 5113 0 
L 5113 2094 
Q 5113 2597 4934 2840 
Q 4756 3084 4391 3084 
Q 3944 3084 3684 2787 
Q 3425 2491 3425 1978 
L 3425 0 
L 2847 0 
L 2847 2094 
Q 2847 2600 2669 2842 
Q 2491 3084 2119 3084 
Q 1678 3084 1418 2786 
Q 1159 2488 1159 1978 
L 1159 0 
L 581 0 
L 581 3500 
L 1159 3500 
L 1159 2956 
Q 1356 3278 1631 3431 
Q 1906 3584 2284 3584 
Q 2666 3584 2933 3390 
Q 3200 3197 3328 2828 
z
" transform="scale(0.015625)"/>
       <path id="DejaVuSans-69" d="M 603 3500 
L 1178 3500 
L 1178 0 
L 603 0 
L 603 3500 
z
M 603 4863 
L 1178 4863 
L 1178 4134 
L 603 4134 
L 603 4863 
z
" transform="scale(0.015625)"/>
       <path id="DejaVuSans-74" d="M 1172 4494 
L 1172 3500 
L 2356 3500 
L 2356 3053 
L 1172 3053 
L 1172 1153 
Q 1172 725 1289 603 
Q 1406 481 1766 481 
L 2356 481 
L 2356 0 
L 1766 0 
Q 1100 0 847 248 
Q 594 497 594 1153 
L 594 3053 
L 172 3053 
L 172 3500 
L 594 3500 
L 594 4494 
L 1172 4494 
z
" transform="scale(0.015625)"/>
       <path id="DejaVuSans-73" d="M 2834 3397 
L 2834 2853 
Q 2591 2978 2328 3040 
Q 2066 3103 1784 3103 
Q 1356 3103 1142 2972 
Q 928 2841 928 2578 
Q 928 2378 1081 2264 
Q 1234 2150 1697 2047 
L 1894 2003 
Q 2506 1872 2764 1633 
Q 3022 1394 3022 966 
Q 3022 478 2636 193 
Q 2250 -91 1575 -91 
Q 1294 -91 989 -36 
Q 684 19 347 128 
L 347 722 
Q 666 556 975 473 
Q 1284 391 1588 391 
Q 1994 391 2212 530 
Q 2431 669 2431 922 
Q 2431 1156 2273 1281 
Q 2116 1406 1581 1522 
L 1381 1569 
Q 847 1681 609 1914 
Q 372 2147 372 2553 
Q 372 3047 722 3315 
Q 1072 3584 1716 3584 
Q 2034 3584 2315 3537 
Q 2597 3491 2834 3397 
z
" transform="scale(0.015625)"/>
      </defs>
      <use xlink:href="#DejaVuSans-23"/>
      <use xlink:href="#DejaVuSans-20" x="83.789062"/>
      <use xlink:href="#DejaVuSans-43" x="115.576172"/>
      <use xlink:href="#DejaVuSans-6f" x="185.400391"/>
      <use xlink:href="#DejaVuSans-6d" x="246.582031"/>
      <use xlink:href="#DejaVuSans-6d" x="343.994141"/>
      <use xlink:href="#DejaVuSans-69" x="441.40625"/>
      <use xlink:href="#DejaVuSans-74" x="469.189453"/>
      <use xlink:href="#DejaVuSans-73" x="508.398438"/>
     </g>
    </g>
   </g>
   <g id="matplotlib.axis_2">
    <g id="ytick_1">
     <g id="line2d_5">
      <defs>
       <path id="me5c20e7564" d="M 0 0 
L -3.5 0 
" style="stroke: #000000; stroke-width: 0.8"/>
      </defs>
      <g>
       <use xlink:href="#me5c20e7564" x="56.64375" y="380.813338" style="stroke: #000000; stroke-width: 0.8"/>
      </g>
     </g>
     <g id="text_6">
      <!-- 0 -->
      <g transform="translate(40.1 386.512166)scale(0.15 -0.15)">
       <use xlink:href="#DejaVuSans-30"/>
      </g>
     </g>
    </g>
    <g id="ytick_2">
     <g id="line2d_6">
      <g>
       <use xlink:href="#me5c20e7564" x="56.64375" y="337.531323" style="stroke: #000000; stroke-width: 0.8"/>
      </g>
     </g>
     <g id="text_7">
      <!-- 5 -->
      <g transform="translate(40.1 343.230151)scale(0.15 -0.15)">
       <defs>
        <path id="DejaVuSans-35" d="M 691 4666 
L 3169 4666 
L 3169 4134 
L 1269 4134 
L 1269 2991 
Q 1406 3038 1543 3061 
Q 1681 3084 1819 3084 
Q 2600 3084 3056 2656 
Q 3513 2228 3513 1497 
Q 3513 744 3044 326 
Q 2575 -91 1722 -91 
Q 1428 -91 1123 -41 
Q 819 9 494 109 
L 494 744 
Q 775 591 1075 516 
Q 1375 441 1709 441 
Q 2250 441 2565 725 
Q 2881 1009 2881 1497 
Q 2881 1984 2565 2268 
Q 2250 2553 1709 2553 
Q 1456 2553 1204 2497 
Q 953 2441 691 2322 
L 691 4666 
z
" transform="scale(0.015625)"/>
       </defs>
       <use xlink:href="#DejaVuSans-35"/>
      </g>
     </g>
    </g>
    <g id="ytick_3">
     <g id="line2d_7">
      <g>
       <use xlink:href="#me5c20e7564" x="56.64375" y="294.249308" style="stroke: #000000; stroke-width: 0.8"/>
      </g>
     </g>
     <g id="text_8">
      <!-- 10 -->
      <g transform="translate(30.55625 299.948136)scale(0.15 -0.15)">
       <use xlink:href="#DejaVuSans-31"/>
       <use xlink:href="#DejaVuSans-30" x="63.623047"/>
      </g>
     </g>
    </g>
    <g id="ytick_4">
     <g id="line2d_8">
      <g>
       <use xlink:href="#me5c20e7564" x="56.64375" y="250.967293" style="stroke: #000000; stroke-width: 0.8"/>
      </g>
     </g>
     <g id="text_9">
      <!-- 15 -->
      <g transform="translate(30.55625 256.666121)scale(0.15 -0.15)">
       <use xlink:href="#DejaVuSans-31"/>
       <use xlink:href="#DejaVuSans-35" x="63.623047"/>
      </g>
     </g>
    </g>
    <g id="ytick_5">
     <g id="line2d_9">
      <g>
       <use xlink:href="#me5c20e7564" x="56.64375" y="207.685278" style="stroke: #000000; stroke-width: 0.8"/>
      </g>
     </g>
     <g id="text_10">
      <!-- 20 -->
      <g transform="translate(30.55625 213.384106)scale(0.15 -0.15)">
       <use xlink:href="#DejaVuSans-32"/>
       <use xlink:href="#DejaVuSans-30" x="63.623047"/>
      </g>
     </g>
    </g>
    <g id="ytick_6">
     <g id="line2d_10">
      <g>
       <use xlink:href="#me5c20e7564" x="56.64375" y="164.403263" style="stroke: #000000; stroke-width: 0.8"/>
      </g>
     </g>
     <g id="text_11">
      <!-- 25 -->
      <g transform="translate(30.55625 170.102091)scale(0.15 -0.15)">
       <use xlink:href="#DejaVuSans-32"/>
       <use xlink:href="#DejaVuSans-35" x="63.623047"/>
      </g>
     </g>
    </g>
    <g id="ytick_7">
     <g id="line2d_11">
      <g>
       <use xlink:href="#me5c20e7564" x="56.64375" y="121.121248" style="stroke: #000000; stroke-width: 0.8"/>
      </g>
     </g>
     <g id="text_12">
      <!-- 30 -->
      <g transform="translate(30.55625 126.820076)scale(0.15 -0.15)">
       <use xlink:href="#DejaVuSans-33"/>
       <use xlink:href="#DejaVuSans-30" x="63.623047"/>
      </g>
     </g>
    </g>
    <g id="ytick_8">
     <g id="line2d_12">
      <g>
       <use xlink:href="#me5c20e7564" x="56.64375" y="77.839233" style="stroke: #000000; stroke-width: 0.8"/>
      </g>
     </g>
     <g id="text_13">
      <!-- 35 -->
      <g transform="translate(30.55625 83.538061)scale(0.15 -0.15)">
       <use xlink:href="#DejaVuSans-33"/>
       <use xlink:href="#DejaVuSans-35" x="63.623047"/>
      </g>
     </g>
    </g>
    <g id="text_14">
     <!-- # Interacting authors -->
     <g transform="translate(22.396875 336.707536)rotate(-90)scale(0.2 -0.2)">
      <defs>
       <path id="DejaVuSans-49" d="M 628 4666 
L 1259 4666 
L 1259 0 
L 628 0 
L 628 4666 
z
" transform="scale(0.015625)"/>
       <path id="DejaVuSans-6e" d="M 3513 2113 
L 3513 0 
L 2938 0 
L 2938 2094 
Q 2938 2591 2744 2837 
Q 2550 3084 2163 3084 
Q 1697 3084 1428 2787 
Q 1159 2491 1159 1978 
L 1159 0 
L 581 0 
L 581 3500 
L 1159 3500 
L 1159 2956 
Q 1366 3272 1645 3428 
Q 1925 3584 2291 3584 
Q 2894 3584 3203 3211 
Q 3513 2838 3513 2113 
z
" transform="scale(0.015625)"/>
       <path id="DejaVuSans-65" d="M 3597 1894 
L 3597 1613 
L 953 1613 
Q 991 1019 1311 708 
Q 1631 397 2203 397 
Q 2534 397 2845 478 
Q 3156 559 3463 722 
L 3463 178 
Q 3153 47 2828 -22 
Q 2503 -91 2169 -91 
Q 1331 -91 842 396 
Q 353 884 353 1716 
Q 353 2575 817 3079 
Q 1281 3584 2069 3584 
Q 2775 3584 3186 3129 
Q 3597 2675 3597 1894 
z
M 3022 2063 
Q 3016 2534 2758 2815 
Q 2500 3097 2075 3097 
Q 1594 3097 1305 2825 
Q 1016 2553 972 2059 
L 3022 2063 
z
" transform="scale(0.015625)"/>
       <path id="DejaVuSans-72" d="M 2631 2963 
Q 2534 3019 2420 3045 
Q 2306 3072 2169 3072 
Q 1681 3072 1420 2755 
Q 1159 2438 1159 1844 
L 1159 0 
L 581 0 
L 581 3500 
L 1159 3500 
L 1159 2956 
Q 1341 3275 1631 3429 
Q 1922 3584 2338 3584 
Q 2397 3584 2469 3576 
Q 2541 3569 2628 3553 
L 2631 2963 
z
" transform="scale(0.015625)"/>
       <path id="DejaVuSans-61" d="M 2194 1759 
Q 1497 1759 1228 1600 
Q 959 1441 959 1056 
Q 959 750 1161 570 
Q 1363 391 1709 391 
Q 2188 391 2477 730 
Q 2766 1069 2766 1631 
L 2766 1759 
L 2194 1759 
z
M 3341 1997 
L 3341 0 
L 2766 0 
L 2766 531 
Q 2569 213 2275 61 
Q 1981 -91 1556 -91 
Q 1019 -91 701 211 
Q 384 513 384 1019 
Q 384 1609 779 1909 
Q 1175 2209 1959 2209 
L 2766 2209 
L 2766 2266 
Q 2766 2663 2505 2880 
Q 2244 3097 1772 3097 
Q 1472 3097 1187 3025 
Q 903 2953 641 2809 
L 641 3341 
Q 956 3463 1253 3523 
Q 1550 3584 1831 3584 
Q 2591 3584 2966 3190 
Q 3341 2797 3341 1997 
z
" transform="scale(0.015625)"/>
       <path id="DejaVuSans-63" d="M 3122 3366 
L 3122 2828 
Q 2878 2963 2633 3030 
Q 2388 3097 2138 3097 
Q 1578 3097 1268 2742 
Q 959 2388 959 1747 
Q 959 1106 1268 751 
Q 1578 397 2138 397 
Q 2388 397 2633 464 
Q 2878 531 3122 666 
L 3122 134 
Q 2881 22 2623 -34 
Q 2366 -91 2075 -91 
Q 1284 -91 818 406 
Q 353 903 353 1747 
Q 353 2603 823 3093 
Q 1294 3584 2113 3584 
Q 2378 3584 2631 3529 
Q 2884 3475 3122 3366 
z
" transform="scale(0.015625)"/>
       <path id="DejaVuSans-67" d="M 2906 1791 
Q 2906 2416 2648 2759 
Q 2391 3103 1925 3103 
Q 1463 3103 1205 2759 
Q 947 2416 947 1791 
Q 947 1169 1205 825 
Q 1463 481 1925 481 
Q 2391 481 2648 825 
Q 2906 1169 2906 1791 
z
M 3481 434 
Q 3481 -459 3084 -895 
Q 2688 -1331 1869 -1331 
Q 1566 -1331 1297 -1286 
Q 1028 -1241 775 -1147 
L 775 -588 
Q 1028 -725 1275 -790 
Q 1522 -856 1778 -856 
Q 2344 -856 2625 -561 
Q 2906 -266 2906 331 
L 2906 616 
Q 2728 306 2450 153 
Q 2172 0 1784 0 
Q 1141 0 747 490 
Q 353 981 353 1791 
Q 353 2603 747 3093 
Q 1141 3584 1784 3584 
Q 2172 3584 2450 3431 
Q 2728 3278 2906 2969 
L 2906 3500 
L 3481 3500 
L 3481 434 
z
" transform="scale(0.015625)"/>
       <path id="DejaVuSans-75" d="M 544 1381 
L 544 3500 
L 1119 3500 
L 1119 1403 
Q 1119 906 1312 657 
Q 1506 409 1894 409 
Q 2359 409 2629 706 
Q 2900 1003 2900 1516 
L 2900 3500 
L 3475 3500 
L 3475 0 
L 2900 0 
L 2900 538 
Q 2691 219 2414 64 
Q 2138 -91 1772 -91 
Q 1169 -91 856 284 
Q 544 659 544 1381 
z
M 1991 3584 
L 1991 3584 
z
" transform="scale(0.015625)"/>
       <path id="DejaVuSans-68" d="M 3513 2113 
L 3513 0 
L 2938 0 
L 2938 2094 
Q 2938 2591 2744 2837 
Q 2550 3084 2163 3084 
Q 1697 3084 1428 2787 
Q 1159 2491 1159 1978 
L 1159 0 
L 581 0 
L 581 4863 
L 1159 4863 
L 1159 2956 
Q 1366 3272 1645 3428 
Q 1925 3584 2291 3584 
Q 2894 3584 3203 3211 
Q 3513 2838 3513 2113 
z
" transform="scale(0.015625)"/>
      </defs>
      <use xlink:href="#DejaVuSans-23"/>
      <use xlink:href="#DejaVuSans-20" x="83.789062"/>
      <use xlink:href="#DejaVuSans-49" x="115.576172"/>
      <use xlink:href="#DejaVuSans-6e" x="145.068359"/>
      <use xlink:href="#DejaVuSans-74" x="208.447266"/>
      <use xlink:href="#DejaVuSans-65" x="247.65625"/>
      <use xlink:href="#DejaVuSans-72" x="309.179688"/>
      <use xlink:href="#DejaVuSans-61" x="350.292969"/>
      <use xlink:href="#DejaVuSans-63" x="411.572266"/>
      <use xlink:href="#DejaVuSans-74" x="466.552734"/>
      <use xlink:href="#DejaVuSans-69" x="505.761719"/>
      <use xlink:href="#DejaVuSans-6e" x="533.544922"/>
      <use xlink:href="#DejaVuSans-67" x="596.923828"/>
      <use xlink:href="#DejaVuSans-20" x="660.400391"/>
      <use xlink:href="#DejaVuSans-61" x="692.1875"/>
      <use xlink:href="#DejaVuSans-75" x="753.466797"/>
      <use xlink:href="#DejaVuSans-74" x="816.845703"/>
      <use xlink:href="#DejaVuSans-68" x="856.054688"/>
      <use xlink:href="#DejaVuSans-6f" x="919.433594"/>
      <use xlink:href="#DejaVuSans-72" x="980.615234"/>
      <use xlink:href="#DejaVuSans-73" x="1021.728516"/>
     </g>
    </g>
   </g>
   <g id="patch_3">
    <path d="M 56.64375 386.44 
L 56.64375 72.212571 
" style="fill: none; stroke: #000000; stroke-width: 0.8; stroke-linejoin: miter; stroke-linecap: square"/>
   </g>
   <g id="patch_4">
    <path d="M 56.64375 386.44 
L 368.708607 386.44 
" style="fill: none; stroke: #000000; stroke-width: 0.8; stroke-linejoin: miter; stroke-linecap: square"/>
   </g>
  </g>
  <g id="axes_2">
   <g id="patch_5">
    <path d="M 56.64375 61.377143 
L 368.708607 61.377143 
L 368.708607 7.2 
L 56.64375 7.2 
z
" style="fill: #ffffff"/>
   </g>
   <g id="PolyCollection_1">
    <path d="M -39.87952 60.846951 
L -39.87952 61.377143 
L -37.341272 61.377143 
L -34.803023 61.377143 
L -32.264775 61.377143 
L -29.726527 61.377143 
L -27.188279 61.377143 
L -24.650031 61.377143 
L -22.111782 61.377143 
L -19.573534 61.377143 
L -17.035286 61.377143 
L -14.497038 61.377143 
L -11.958789 61.377143 
L -9.420541 61.377143 
L -6.882293 61.377143 
L -4.344045 61.377143 
L -1.805797 61.377143 
L 0.732452 61.377143 
L 3.2707 61.377143 
L 5.808948 61.377143 
L 8.347196 61.377143 
L 10.885445 61.377143 
L 13.423693 61.377143 
L 15.961941 61.377143 
L 18.500189 61.377143 
L 21.038438 61.377143 
L 23.576686 61.377143 
L 26.114934 61.377143 
L 28.653182 61.377143 
L 31.19143 61.377143 
L 33.729679 61.377143 
L 36.267927 61.377143 
L 38.806175 61.377143 
L 41.344423 61.377143 
L 43.882672 61.377143 
L 46.42092 61.377143 
L 48.959168 61.377143 
L 51.497416 61.377143 
L 54.035664 61.377143 
L 56.573913 61.377143 
L 59.112161 61.377143 
L 61.650409 61.377143 
L 64.188657 61.377143 
L 66.726906 61.377143 
L 69.265154 61.377143 
L 71.803402 61.377143 
L 74.34165 61.377143 
L 76.879898 61.377143 
L 79.418147 61.377143 
L 81.956395 61.377143 
L 84.494643 61.377143 
L 87.032891 61.377143 
L 89.57114 61.377143 
L 92.109388 61.377143 
L 94.647636 61.377143 
L 97.185884 61.377143 
L 99.724133 61.377143 
L 102.262381 61.377143 
L 104.800629 61.377143 
L 107.338877 61.377143 
L 109.877125 61.377143 
L 112.415374 61.377143 
L 114.953622 61.377143 
L 117.49187 61.377143 
L 120.030118 61.377143 
L 122.568367 61.377143 
L 125.106615 61.377143 
L 127.644863 61.377143 
L 130.183111 61.377143 
L 132.721359 61.377143 
L 135.259608 61.377143 
L 137.797856 61.377143 
L 140.336104 61.377143 
L 142.874352 61.377143 
L 145.412601 61.377143 
L 147.950849 61.377143 
L 150.489097 61.377143 
L 153.027345 61.377143 
L 155.565593 61.377143 
L 158.103842 61.377143 
L 160.64209 61.377143 
L 163.180338 61.377143 
L 165.718586 61.377143 
L 168.256835 61.377143 
L 170.795083 61.377143 
L 173.333331 61.377143 
L 175.871579 61.377143 
L 178.409828 61.377143 
L 180.948076 61.377143 
L 183.486324 61.377143 
L 186.024572 61.377143 
L 188.56282 61.377143 
L 191.101069 61.377143 
L 193.639317 61.377143 
L 196.177565 61.377143 
L 198.715813 61.377143 
L 201.254062 61.377143 
L 203.79231 61.377143 
L 206.330558 61.377143 
L 208.868806 61.377143 
L 211.407054 61.377143 
L 213.945303 61.377143 
L 216.483551 61.377143 
L 219.021799 61.377143 
L 221.560047 61.377143 
L 224.098296 61.377143 
L 226.636544 61.377143 
L 229.174792 61.377143 
L 231.71304 61.377143 
L 234.251288 61.377143 
L 236.789537 61.377143 
L 239.327785 61.377143 
L 241.866033 61.377143 
L 244.404281 61.377143 
L 246.94253 61.377143 
L 249.480778 61.377143 
L 252.019026 61.377143 
L 254.557274 61.377143 
L 257.095523 61.377143 
L 259.633771 61.377143 
L 262.172019 61.377143 
L 264.710267 61.377143 
L 267.248515 61.377143 
L 269.786764 61.377143 
L 272.325012 61.377143 
L 274.86326 61.377143 
L 277.401508 61.377143 
L 279.939757 61.377143 
L 282.478005 61.377143 
L 285.016253 61.377143 
L 287.554501 61.377143 
L 290.092749 61.377143 
L 292.630998 61.377143 
L 295.169246 61.377143 
L 297.707494 61.377143 
L 300.245742 61.377143 
L 302.783991 61.377143 
L 305.322239 61.377143 
L 307.860487 61.377143 
L 310.398735 61.377143 
L 312.936983 61.377143 
L 315.475232 61.377143 
L 318.01348 61.377143 
L 320.551728 61.377143 
L 323.089976 61.377143 
L 325.628225 61.377143 
L 328.166473 61.377143 
L 330.704721 61.377143 
L 333.242969 61.377143 
L 335.781218 61.377143 
L 338.319466 61.377143 
L 340.857714 61.377143 
L 343.395962 61.377143 
L 345.93421 61.377143 
L 348.472459 61.377143 
L 351.010707 61.377143 
L 353.548955 61.377143 
L 356.087203 61.377143 
L 358.625452 61.377143 
L 361.1637 61.377143 
L 363.701948 61.377143 
L 366.240196 61.377143 
L 368.778444 61.377143 
L 371.316693 61.377143 
L 373.854941 61.377143 
L 376.393189 61.377143 
L 378.931437 61.377143 
L 381.469686 61.377143 
L 384.007934 61.377143 
L 386.546182 61.377143 
L 389.08443 61.377143 
L 391.622678 61.377143 
L 394.160927 61.377143 
L 396.699175 61.377143 
L 399.237423 61.377143 
L 401.775671 61.377143 
L 404.31392 61.377143 
L 406.852168 61.377143 
L 409.390416 61.377143 
L 411.928664 61.377143 
L 414.466913 61.377143 
L 417.005161 61.377143 
L 419.543409 61.377143 
L 422.081657 61.377143 
L 424.619905 61.377143 
L 427.158154 61.377143 
L 429.696402 61.377143 
L 432.23465 61.377143 
L 434.772898 61.377143 
L 437.311147 61.377143 
L 439.849395 61.377143 
L 442.387643 61.377143 
L 444.925891 61.377143 
L 447.464139 61.377143 
L 450.002388 61.377143 
L 452.540636 61.377143 
L 455.078884 61.377143 
L 457.617132 61.377143 
L 460.155381 61.377143 
L 462.693629 61.377143 
L 465.231877 61.377143 
L 465.231877 61.343557 
L 465.231877 61.343557 
L 462.693629 61.335957 
L 460.155381 61.326877 
L 457.617132 61.316083 
L 455.078884 61.303322 
L 452.540636 61.288315 
L 450.002388 61.270762 
L 447.464139 61.250342 
L 444.925891 61.226715 
L 442.387643 61.199528 
L 439.849395 61.168418 
L 437.311147 61.133015 
L 434.772898 61.092956 
L 432.23465 61.047885 
L 429.696402 60.997467 
L 427.158154 60.941394 
L 424.619905 60.879401 
L 422.081657 60.811271 
L 419.543409 60.736853 
L 417.005161 60.656067 
L 414.466913 60.568921 
L 411.928664 60.475518 
L 409.390416 60.376069 
L 406.852168 60.270897 
L 404.31392 60.160445 
L 401.775671 60.045281 
L 399.237423 59.926097 
L 396.699175 59.80371 
L 394.160927 59.679053 
L 391.622678 59.553169 
L 389.08443 59.427201 
L 386.546182 59.302371 
L 384.007934 59.17997 
L 381.469686 59.06133 
L 378.931437 58.947804 
L 376.393189 58.840741 
L 373.854941 58.741459 
L 371.316693 58.651217 
L 368.778444 58.571191 
L 366.240196 58.502449 
L 363.701948 58.445924 
L 361.1637 58.402393 
L 358.625452 58.372465 
L 356.087203 58.35656 
L 353.548955 58.354902 
L 351.010707 58.367516 
L 348.472459 58.394223 
L 345.93421 58.434646 
L 343.395962 58.48822 
L 340.857714 58.554206 
L 338.319466 58.631702 
L 335.781218 58.719673 
L 333.242969 58.816963 
L 330.704721 58.92233 
L 328.166473 59.034465 
L 325.628225 59.152026 
L 323.089976 59.273654 
L 320.551728 59.39801 
L 318.01348 59.523789 
L 315.475232 59.649747 
L 312.936983 59.774719 
L 310.398735 59.897632 
L 307.860487 60.017519 
L 305.322239 60.133528 
L 302.783991 60.244929 
L 300.245742 60.351111 
L 297.707494 60.451586 
L 295.169246 60.545983 
L 292.630998 60.634042 
L 290.092749 60.715605 
L 287.554501 60.790607 
L 285.016253 60.859064 
L 282.478005 60.921057 
L 279.939757 60.976727 
L 277.401508 61.026253 
L 274.86326 61.069845 
L 272.325012 61.107729 
L 269.786764 61.140136 
L 267.248515 61.167291 
L 264.710267 61.189403 
L 262.172019 61.206657 
L 259.633771 61.219206 
L 257.095523 61.227165 
L 254.557274 61.230608 
L 252.019026 61.229561 
L 249.480778 61.224005 
L 246.94253 61.213873 
L 244.404281 61.19905 
L 241.866033 61.179378 
L 239.327785 61.154655 
L 236.789537 61.124642 
L 234.251288 61.089069 
L 231.71304 61.047638 
L 229.174792 61.000032 
L 226.636544 60.945917 
L 224.098296 60.884954 
L 221.560047 60.816802 
L 219.021799 60.741121 
L 216.483551 60.657579 
L 213.945303 60.565851 
L 211.407054 60.46562 
L 208.868806 60.356569 
L 206.330558 60.23838 
L 203.79231 60.110717 
L 201.254062 59.973213 
L 198.715813 59.825451 
L 196.177565 59.666934 
L 193.639317 59.497062 
L 191.101069 59.315093 
L 188.56282 59.120108 
L 186.024572 58.910968 
L 183.486324 58.686273 
L 180.948076 58.44432 
L 178.409828 58.183057 
L 175.871579 57.900049 
L 173.333331 57.59244 
L 170.795083 57.256933 
L 168.256835 56.889772 
L 165.718586 56.486741 
L 163.180338 56.043179 
L 160.64209 55.554013 
L 158.103842 55.013806 
L 155.565593 54.416838 
L 153.027345 53.757196 
L 150.489097 53.028899 
L 147.950849 52.226039 
L 145.412601 51.342944 
L 142.874352 50.374364 
L 140.336104 49.315667 
L 137.797856 48.163052 
L 135.259608 46.91376 
L 132.721359 45.566296 
L 130.183111 44.120635 
L 127.644863 42.578415 
L 125.106615 40.943109 
L 122.568367 39.22017 
L 120.030118 37.417129 
L 117.49187 35.54366 
L 114.953622 33.611586 
L 112.415374 31.634833 
L 109.877125 29.629323 
L 107.338877 27.612813 
L 104.800629 25.604666 
L 102.262381 23.625573 
L 99.724133 21.697216 
L 97.185884 19.841892 
L 94.647636 18.082093 
L 92.109388 16.440069 
L 89.57114 14.937366 
L 87.032891 13.59437 
L 84.494643 12.429861 
L 81.956395 11.46059 
L 79.418147 10.700894 
L 76.879898 10.162364 
L 74.34165 9.853571 
L 71.803402 9.779864 
L 69.265154 9.943237 
L 66.726906 10.342286 
L 64.188657 10.972237 
L 61.650409 11.825065 
L 59.112161 12.889675 
L 56.573913 14.152169 
L 54.035664 15.596158 
L 51.497416 17.203139 
L 48.959168 18.952902 
L 46.42092 20.823965 
L 43.882672 22.794025 
L 41.344423 24.840409 
L 38.806175 26.940509 
L 36.267927 29.072196 
L 33.729679 31.214203 
L 31.19143 33.346457 
L 28.653182 35.450374 
L 26.114934 37.509088 
L 23.576686 39.507635 
L 21.038438 41.43307 
L 18.500189 43.274537 
L 15.961941 45.02328 
L 13.423693 46.672607 
L 10.885445 48.217815 
L 8.347196 49.656074 
L 5.808948 50.986279 
L 3.2707 52.208885 
L 0.732452 53.325722 
L -1.805797 54.3398 
L -4.344045 55.255118 
L -6.882293 56.076462 
L -9.420541 56.809226 
L -11.958789 57.45923 
L -14.497038 58.032566 
L -17.035286 58.535449 
L -19.573534 58.974091 
L -22.111782 59.354595 
L -24.650031 59.682868 
L -27.188279 59.964545 
L -29.726527 60.20494 
L -32.264775 60.409007 
L -34.803023 60.581315 
L -37.341272 60.726037 
L -39.87952 60.846951 
z
" clip-path="url(#pb0d02bbf3c)" style="fill: #1f77b4; fill-opacity: 0.25; stroke: #1f77b4"/>
   </g>
   <g id="matplotlib.axis_3">
    <g id="xtick_5">
     <g id="line2d_13">
      <g>
       <use xlink:href="#m73f87d929d" x="69.860273" y="61.377143" style="stroke: #000000; stroke-width: 0.8"/>
      </g>
     </g>
    </g>
    <g id="xtick_6">
     <g id="line2d_14">
      <g>
       <use xlink:href="#m73f87d929d" x="166.684616" y="61.377143" style="stroke: #000000; stroke-width: 0.8"/>
      </g>
     </g>
    </g>
    <g id="xtick_7">
     <g id="line2d_15">
      <g>
       <use xlink:href="#m73f87d929d" x="263.508959" y="61.377143" style="stroke: #000000; stroke-width: 0.8"/>
      </g>
     </g>
    </g>
    <g id="xtick_8">
     <g id="line2d_16">
      <g>
       <use xlink:href="#m73f87d929d" x="360.333301" y="61.377143" style="stroke: #000000; stroke-width: 0.8"/>
      </g>
     </g>
    </g>
   </g>
   <g id="matplotlib.axis_4">
    <g id="ytick_9"/>
    <g id="ytick_10"/>
   </g>
   <g id="patch_6">
    <path d="M 56.64375 61.377143 
L 368.708607 61.377143 
" style="fill: none; stroke: #000000; stroke-width: 0.8; stroke-linejoin: miter; stroke-linecap: square"/>
   </g>
  </g>
  <g id="axes_3">
   <g id="patch_7">
    <path d="M 379.469464 386.44 
L 433.27375 386.44 
L 433.27375 72.212571 
L 379.469464 72.212571 
z
" style="fill: #ffffff"/>
   </g>
   <g id="PolyCollection_2">
    <path d="M 379.557115 506.256948 
L 379.469464 506.256948 
L 379.469464 503.473725 
L 379.469464 500.690502 
L 379.469464 497.907279 
L 379.469464 495.124057 
L 379.469464 492.340834 
L 379.469464 489.557611 
L 379.469464 486.774388 
L 379.469464 483.991166 
L 379.469464 481.207943 
L 379.469464 478.42472 
L 379.469464 475.641497 
L 379.469464 472.858275 
L 379.469464 470.075052 
L 379.469464 467.291829 
L 379.469464 464.508607 
L 379.469464 461.725384 
L 379.469464 458.942161 
L 379.469464 456.158938 
L 379.469464 453.375716 
L 379.469464 450.592493 
L 379.469464 447.80927 
L 379.469464 445.026047 
L 379.469464 442.242825 
L 379.469464 439.459602 
L 379.469464 436.676379 
L 379.469464 433.893157 
L 379.469464 431.109934 
L 379.469464 428.326711 
L 379.469464 425.543488 
L 379.469464 422.760266 
L 379.469464 419.977043 
L 379.469464 417.19382 
L 379.469464 414.410597 
L 379.469464 411.627375 
L 379.469464 408.844152 
L 379.469464 406.060929 
L 379.469464 403.277706 
L 379.469464 400.494484 
L 379.469464 397.711261 
L 379.469464 394.928038 
L 379.469464 392.144816 
L 379.469464 389.361593 
L 379.469464 386.57837 
L 379.469464 383.795147 
L 379.469464 381.011925 
L 379.469464 378.228702 
L 379.469464 375.445479 
L 379.469464 372.662256 
L 379.469464 369.879034 
L 379.469464 367.095811 
L 379.469464 364.312588 
L 379.469464 361.529365 
L 379.469464 358.746143 
L 379.469464 355.96292 
L 379.469464 353.179697 
L 379.469464 350.396475 
L 379.469464 347.613252 
L 379.469464 344.830029 
L 379.469464 342.046806 
L 379.469464 339.263584 
L 379.469464 336.480361 
L 379.469464 333.697138 
L 379.469464 330.913915 
L 379.469464 328.130693 
L 379.469464 325.34747 
L 379.469464 322.564247 
L 379.469464 319.781025 
L 379.469464 316.997802 
L 379.469464 314.214579 
L 379.469464 311.431356 
L 379.469464 308.648134 
L 379.469464 305.864911 
L 379.469464 303.081688 
L 379.469464 300.298465 
L 379.469464 297.515243 
L 379.469464 294.73202 
L 379.469464 291.948797 
L 379.469464 289.165574 
L 379.469464 286.382352 
L 379.469464 283.599129 
L 379.469464 280.815906 
L 379.469464 278.032684 
L 379.469464 275.249461 
L 379.469464 272.466238 
L 379.469464 269.683015 
L 379.469464 266.899793 
L 379.469464 264.11657 
L 379.469464 261.333347 
L 379.469464 258.550124 
L 379.469464 255.766902 
L 379.469464 252.983679 
L 379.469464 250.200456 
L 379.469464 247.417233 
L 379.469464 244.634011 
L 379.469464 241.850788 
L 379.469464 239.067565 
L 379.469464 236.284343 
L 379.469464 233.50112 
L 379.469464 230.717897 
L 379.469464 227.934674 
L 379.469464 225.151452 
L 379.469464 222.368229 
L 379.469464 219.585006 
L 379.469464 216.801783 
L 379.469464 214.018561 
L 379.469464 211.235338 
L 379.469464 208.452115 
L 379.469464 205.668892 
L 379.469464 202.88567 
L 379.469464 200.102447 
L 379.469464 197.319224 
L 379.469464 194.536002 
L 379.469464 191.752779 
L 379.469464 188.969556 
L 379.469464 186.186333 
L 379.469464 183.403111 
L 379.469464 180.619888 
L 379.469464 177.836665 
L 379.469464 175.053442 
L 379.469464 172.27022 
L 379.469464 169.486997 
L 379.469464 166.703774 
L 379.469464 163.920552 
L 379.469464 161.137329 
L 379.469464 158.354106 
L 379.469464 155.570883 
L 379.469464 152.787661 
L 379.469464 150.004438 
L 379.469464 147.221215 
L 379.469464 144.437992 
L 379.469464 141.65477 
L 379.469464 138.871547 
L 379.469464 136.088324 
L 379.469464 133.305101 
L 379.469464 130.521879 
L 379.469464 127.738656 
L 379.469464 124.955433 
L 379.469464 122.172211 
L 379.469464 119.388988 
L 379.469464 116.605765 
L 379.469464 113.822542 
L 379.469464 111.03932 
L 379.469464 108.256097 
L 379.469464 105.472874 
L 379.469464 102.689651 
L 379.469464 99.906429 
L 379.469464 97.123206 
L 379.469464 94.339983 
L 379.469464 91.55676 
L 379.469464 88.773538 
L 379.469464 85.990315 
L 379.469464 83.207092 
L 379.469464 80.42387 
L 379.469464 77.640647 
L 379.469464 74.857424 
L 379.469464 72.074201 
L 379.469464 69.290979 
L 379.469464 66.507756 
L 379.469464 63.724533 
L 379.469464 60.94131 
L 379.469464 58.158088 
L 379.469464 55.374865 
L 379.469464 52.591642 
L 379.469464 49.80842 
L 379.469464 47.025197 
L 379.469464 44.241974 
L 379.469464 41.458751 
L 379.469464 38.675529 
L 379.469464 35.892306 
L 379.469464 33.109083 
L 379.469464 30.32586 
L 379.469464 27.542638 
L 379.469464 24.759415 
L 379.469464 21.976192 
L 379.469464 19.192969 
L 379.469464 16.409747 
L 379.469464 13.626524 
L 379.469464 10.843301 
L 379.469464 8.060079 
L 379.469464 5.276856 
L 379.469464 2.493633 
L 379.469464 -0.28959 
L 379.469464 -3.072812 
L 379.469464 -5.856035 
L 379.469464 -8.639258 
L 379.469464 -11.422481 
L 379.469464 -14.205703 
L 379.469464 -16.988926 
L 379.469464 -19.772149 
L 379.469464 -22.555372 
L 379.469464 -25.338594 
L 379.469464 -28.121817 
L 379.469464 -30.90504 
L 379.469464 -33.688262 
L 379.469464 -36.471485 
L 379.469464 -39.254708 
L 379.469464 -42.037931 
L 379.469464 -44.821153 
L 379.469464 -47.604376 
L 379.52665 -47.604376 
L 379.52665 -47.604376 
L 379.538459 -44.821153 
L 379.552401 -42.037931 
L 379.568799 -39.254708 
L 379.588007 -36.471485 
L 379.61042 -33.688262 
L 379.636469 -30.90504 
L 379.666627 -28.121817 
L 379.701406 -25.338594 
L 379.74136 -22.555372 
L 379.787081 -19.772149 
L 379.839203 -16.988926 
L 379.898396 -14.205703 
L 379.965367 -11.422481 
L 380.040853 -8.639258 
L 380.125623 -5.856035 
L 380.220469 -3.072812 
L 380.326201 -0.28959 
L 380.443647 2.493633 
L 380.573641 5.276856 
L 380.717016 8.060079 
L 380.874604 10.843301 
L 381.047221 13.626524 
L 381.235665 16.409747 
L 381.440705 19.192969 
L 381.663076 21.976192 
L 381.903472 24.759415 
L 382.162535 27.542638 
L 382.440854 30.32586 
L 382.738952 33.109083 
L 383.057287 35.892306 
L 383.396238 38.675529 
L 383.756105 41.458751 
L 384.137102 44.241974 
L 384.53935 47.025197 
L 384.962873 49.80842 
L 385.40759 52.591642 
L 385.873315 55.374865 
L 386.359742 58.158088 
L 386.866449 60.94131 
L 387.392883 63.724533 
L 387.93836 66.507756 
L 388.502055 69.290979 
L 389.082996 72.074201 
L 389.680058 74.857424 
L 390.291961 77.640647 
L 390.91726 80.42387 
L 391.554346 83.207092 
L 392.201443 85.990315 
L 392.85661 88.773538 
L 393.517744 91.55676 
L 394.182587 94.339983 
L 394.848737 97.123206 
L 395.513661 99.906429 
L 396.174712 102.689651 
L 396.829157 105.472874 
L 397.474196 108.256097 
L 398.106998 111.03932 
L 398.724737 113.822542 
L 399.324627 116.605765 
L 399.903966 119.388988 
L 400.460181 122.172211 
L 400.990875 124.955433 
L 401.493873 127.738656 
L 401.967271 130.521879 
L 402.409483 133.305101 
L 402.819285 136.088324 
L 403.195859 138.871547 
L 403.53883 141.65477 
L 403.848298 144.437992 
L 404.124867 147.221215 
L 404.369665 150.004438 
L 404.584357 152.787661 
L 404.771149 155.570883 
L 404.932782 158.354106 
L 405.072522 161.137329 
L 405.194133 163.920552 
L 405.301849 166.703774 
L 405.400328 169.486997 
L 405.494601 172.27022 
L 405.590015 175.053442 
L 405.69216 177.836665 
L 405.806797 180.619888 
L 405.939772 183.403111 
L 406.09693 186.186333 
L 406.284019 188.969556 
L 406.506595 191.752779 
L 406.769923 194.536002 
L 407.078878 197.319224 
L 407.437847 200.102447 
L 407.850636 202.88567 
L 408.320375 205.668892 
L 408.849439 208.452115 
L 409.439371 211.235338 
L 410.090813 214.018561 
L 410.803457 216.801783 
L 411.575999 219.585006 
L 412.406115 222.368229 
L 413.290451 225.151452 
L 414.224627 227.934674 
L 415.203259 230.717897 
L 416.220004 233.50112 
L 417.267619 236.284343 
L 418.338034 239.067565 
L 419.422445 241.850788 
L 420.51143 244.634011 
L 421.595064 247.417233 
L 422.663058 250.200456 
L 423.704906 252.983679 
L 424.710034 255.766902 
L 425.667959 258.550124 
L 426.56845 261.333347 
L 427.401679 264.11657 
L 428.15838 266.899793 
L 428.829988 269.683015 
L 429.408773 272.466238 
L 429.887958 275.249461 
L 430.261821 278.032684 
L 430.525775 280.815906 
L 430.676433 283.599129 
L 430.711641 286.382352 
L 430.630501 289.165574 
L 430.433359 291.948797 
L 430.121774 294.73202 
L 429.698468 297.515243 
L 429.167255 300.298465 
L 428.532945 303.081688 
L 427.801239 305.864911 
L 426.978611 308.648134 
L 426.072174 311.431356 
L 425.089547 314.214579 
L 424.038712 316.997802 
L 422.927875 319.781025 
L 421.765331 322.564247 
L 420.559332 325.34747 
L 419.317968 328.130693 
L 418.04906 330.913915 
L 416.760063 333.697138 
L 415.457984 336.480361 
L 414.149326 339.263584 
L 412.840033 342.046806 
L 411.535468 344.830029 
L 410.24039 347.613252 
L 408.958963 350.396475 
L 407.694768 353.179697 
L 406.450827 355.96292 
L 405.229644 358.746143 
L 404.033248 361.529365 
L 402.863244 364.312588 
L 401.720865 367.095811 
L 400.607034 369.879034 
L 399.52241 372.662256 
L 398.467451 375.445479 
L 397.442457 378.228702 
L 396.447615 381.011925 
L 395.48304 383.795147 
L 394.548806 386.57837 
L 393.644969 389.361593 
L 392.771587 392.144816 
L 391.928732 394.928038 
L 391.116491 397.711261 
L 390.33497 400.494484 
L 389.584289 403.277706 
L 388.864568 406.060929 
L 388.175918 408.844152 
L 387.518427 411.627375 
L 386.892145 414.410597 
L 386.297067 417.19382 
L 385.733122 419.977043 
L 385.200155 422.760266 
L 384.697923 425.543488 
L 384.226078 428.326711 
L 383.784169 431.109934 
L 383.371635 433.893157 
L 382.987804 436.676379 
L 382.6319 439.459602 
L 382.303044 442.242825 
L 382.000264 445.026047 
L 381.722504 447.80927 
L 381.468637 450.592493 
L 381.237474 453.375716 
L 381.027783 456.158938 
L 380.838295 458.942161 
L 380.667726 461.725384 
L 380.514783 464.508607 
L 380.378183 467.291829 
L 380.256659 470.075052 
L 380.148976 472.858275 
L 380.053937 475.641497 
L 379.970392 478.42472 
L 379.897245 481.207943 
L 379.833459 483.991166 
L 379.77806 486.774388 
L 379.73014 489.557611 
L 379.688855 492.340834 
L 379.653431 495.124057 
L 379.623159 497.907279 
L 379.597393 500.690502 
L 379.575553 503.473725 
L 379.557115 506.256948 
z
" clip-path="url(#p81652665c4)" style="fill: #1f77b4; fill-opacity: 0.25; stroke: #1f77b4"/>
   </g>
   <g id="matplotlib.axis_5">
    <g id="xtick_9"/>
    <g id="xtick_10"/>
   </g>
   <g id="matplotlib.axis_6">
    <g id="ytick_11">
     <g id="line2d_17">
      <g>
       <use xlink:href="#me5c20e7564" x="379.469464" y="380.813338" style="stroke: #000000; stroke-width: 0.8"/>
      </g>
     </g>
    </g>
    <g id="ytick_12">
     <g id="line2d_18">
      <g>
       <use xlink:href="#me5c20e7564" x="379.469464" y="337.531323" style="stroke: #000000; stroke-width: 0.8"/>
      </g>
     </g>
    </g>
    <g id="ytick_13">
     <g id="line2d_19">
      <g>
       <use xlink:href="#me5c20e7564" x="379.469464" y="294.249308" style="stroke: #000000; stroke-width: 0.8"/>
      </g>
     </g>
    </g>
    <g id="ytick_14">
     <g id="line2d_20">
      <g>
       <use xlink:href="#me5c20e7564" x="379.469464" y="250.967293" style="stroke: #000000; stroke-width: 0.8"/>
      </g>
     </g>
    </g>
    <g id="ytick_15">
     <g id="line2d_21">
      <g>
       <use xlink:href="#me5c20e7564" x="379.469464" y="207.685278" style="stroke: #000000; stroke-width: 0.8"/>
      </g>
     </g>
    </g>
    <g id="ytick_16">
     <g id="line2d_22">
      <g>
       <use xlink:href="#me5c20e7564" x="379.469464" y="164.403263" style="stroke: #000000; stroke-width: 0.8"/>
      </g>
     </g>
    </g>
    <g id="ytick_17">
     <g id="line2d_23">
      <g>
       <use xlink:href="#me5c20e7564" x="379.469464" y="121.121248" style="stroke: #000000; stroke-width: 0.8"/>
      </g>
     </g>
    </g>
    <g id="ytick_18">
     <g id="line2d_24">
      <g>
       <use xlink:href="#me5c20e7564" x="379.469464" y="77.839233" style="stroke: #000000; stroke-width: 0.8"/>
      </g>
     </g>
    </g>
   </g>
   <g id="patch_8">
    <path d="M 379.469464 386.44 
L 379.469464 72.212571 
" style="fill: none; stroke: #000000; stroke-width: 0.8; stroke-linejoin: miter; stroke-linecap: square"/>
   </g>
  </g>
 </g>
 <defs>
  <clipPath id="p5fa8bbaedf">
   <rect x="56.64375" y="72.212571" width="312.064857" height="314.227429"/>
  </clipPath>
  <clipPath id="pb0d02bbf3c">
   <rect x="56.64375" y="7.2" width="312.064857" height="54.177143"/>
  </clipPath>
  <clipPath id="p81652665c4">
   <rect x="379.469464" y="72.212571" width="53.804286" height="314.227429"/>
  </clipPath>
 </defs>
</svg>
