<?xml version="1.0" encoding="utf-8" standalone="no"?>
<!DOCTYPE svg PUBLIC "-//W3C//DTD SVG 1.1//EN"
  "http://www.w3.org/Graphics/SVG/1.1/DTD/svg11.dtd">
<svg xmlns:xlink="http://www.w3.org/1999/xlink" width="445.312812pt" height="443.3525pt" viewBox="0 0 445.312812 443.3525" xmlns="http://www.w3.org/2000/svg" version="1.1">
 <metadata>
  <rdf:RDF xmlns:dc="http://purl.org/dc/elements/1.1/" xmlns:cc="http://creativecommons.org/ns#" xmlns:rdf="http://www.w3.org/1999/02/22-rdf-syntax-ns#">
   <cc:Work>
    <dc:type rdf:resource="http://purl.org/dc/dcmitype/StillImage"/>
    <dc:date>2022-12-09T16:26:59.410980</dc:date>
    <dc:format>image/svg+xml</dc:format>
    <dc:creator>
     <cc:Agent>
      <dc:title>Matplotlib v3.6.2, https://matplotlib.org/</dc:title>
     </cc:Agent>
    </dc:creator>
   </cc:Work>
  </rdf:RDF>
 </metadata>
 <defs>
  <style type="text/css">*{stroke-linejoin: round; stroke-linecap: butt}</style>
 </defs>
 <g id="figure_1">
  <g id="patch_1">
   <path d="M 0 443.3525 
L 445.312812 443.3525 
L 445.312812 0 
L 0 0 
z
" style="fill: #ffffff"/>
  </g>
  <g id="axes_1">
   <g id="patch_2">
    <path d="M 61.482813 386.44 
L 373.54767 386.44 
L 373.54767 72.212571 
L 61.482813 72.212571 
z
" style="fill: #ffffff"/>
   </g>
   <g id="PathCollection_1">
    <defs>
     <path id="m807a16945a" d="M 0 5 
C 1.326016 5 2.597899 4.473168 3.535534 3.535534 
C 4.473168 2.597899 5 1.326016 5 0 
C 5 -1.326016 4.473168 -2.597899 3.535534 -3.535534 
C 2.597899 -4.473168 1.326016 -5 0 -5 
C -1.326016 -5 -2.597899 -4.473168 -3.535534 -3.535534 
C -4.473168 -2.597899 -5 -1.326016 -5 0 
C -5 1.326016 -4.473168 2.597899 -3.535534 3.535534 
C -2.597899 4.473168 -1.326016 5 0 5 
z
" style="stroke: #ffffff; stroke-opacity: 0.5; stroke-width: 0.8"/>
    </defs>
    <g clip-path="url(#p68369b1e86)">
     <use xlink:href="#m807a16945a" x="190.814505" y="104.349468" style="fill: #1f77b4; fill-opacity: 0.5; stroke: #ffffff; stroke-opacity: 0.5; stroke-width: 0.8"/>
     <use xlink:href="#m807a16945a" x="75.667579" y="140.05713" style="fill: #1f77b4; fill-opacity: 0.5; stroke: #ffffff; stroke-opacity: 0.5; stroke-width: 0.8"/>
     <use xlink:href="#m807a16945a" x="341.006147" y="86.495636" style="fill: #1f77b4; fill-opacity: 0.5; stroke: #ffffff; stroke-opacity: 0.5; stroke-width: 0.8"/>
     <use xlink:href="#m807a16945a" x="80.673967" y="104.349468" style="fill: #1f77b4; fill-opacity: 0.5; stroke: #ffffff; stroke-opacity: 0.5; stroke-width: 0.8"/>
     <use xlink:href="#m807a16945a" x="95.693131" y="104.349468" style="fill: #1f77b4; fill-opacity: 0.5; stroke: #ffffff; stroke-opacity: 0.5; stroke-width: 0.8"/>
     <use xlink:href="#m807a16945a" x="79.005171" y="131.130214" style="fill: #1f77b4; fill-opacity: 0.5; stroke: #ffffff; stroke-opacity: 0.5; stroke-width: 0.8"/>
     <use xlink:href="#m807a16945a" x="75.667579" y="166.837877" style="fill: #1f77b4; fill-opacity: 0.5; stroke: #ffffff; stroke-opacity: 0.5; stroke-width: 0.8"/>
     <use xlink:href="#m807a16945a" x="75.667579" y="372.156935" style="fill: #1f77b4; fill-opacity: 0.5; stroke: #ffffff; stroke-opacity: 0.5; stroke-width: 0.8"/>
     <use xlink:href="#m807a16945a" x="77.336375" y="104.349468" style="fill: #1f77b4; fill-opacity: 0.5; stroke: #ffffff; stroke-opacity: 0.5; stroke-width: 0.8"/>
     <use xlink:href="#m807a16945a" x="79.005171" y="104.349468" style="fill: #1f77b4; fill-opacity: 0.5; stroke: #ffffff; stroke-opacity: 0.5; stroke-width: 0.8"/>
     <use xlink:href="#m807a16945a" x="359.362903" y="104.349468" style="fill: #1f77b4; fill-opacity: 0.5; stroke: #ffffff; stroke-opacity: 0.5; stroke-width: 0.8"/>
     <use xlink:href="#m807a16945a" x="75.667579" y="140.05713" style="fill: #1f77b4; fill-opacity: 0.5; stroke: #ffffff; stroke-opacity: 0.5; stroke-width: 0.8"/>
     <use xlink:href="#m807a16945a" x="75.667579" y="104.349468" style="fill: #1f77b4; fill-opacity: 0.5; stroke: #ffffff; stroke-opacity: 0.5; stroke-width: 0.8"/>
     <use xlink:href="#m807a16945a" x="89.017947" y="104.349468" style="fill: #1f77b4; fill-opacity: 0.5; stroke: #ffffff; stroke-opacity: 0.5; stroke-width: 0.8"/>
     <use xlink:href="#m807a16945a" x="75.667579" y="175.764792" style="fill: #1f77b4; fill-opacity: 0.5; stroke: #ffffff; stroke-opacity: 0.5; stroke-width: 0.8"/>
     <use xlink:href="#m807a16945a" x="75.667579" y="247.180117" style="fill: #1f77b4; fill-opacity: 0.5; stroke: #ffffff; stroke-opacity: 0.5; stroke-width: 0.8"/>
     <use xlink:href="#m807a16945a" x="305.961431" y="104.349468" style="fill: #1f77b4; fill-opacity: 0.5; stroke: #ffffff; stroke-opacity: 0.5; stroke-width: 0.8"/>
     <use xlink:href="#m807a16945a" x="140.750624" y="104.349468" style="fill: #1f77b4; fill-opacity: 0.5; stroke: #ffffff; stroke-opacity: 0.5; stroke-width: 0.8"/>
     <use xlink:href="#m807a16945a" x="82.342763" y="95.422552" style="fill: #1f77b4; fill-opacity: 0.5; stroke: #ffffff; stroke-opacity: 0.5; stroke-width: 0.8"/>
    </g>
   </g>
   <g id="matplotlib.axis_1">
    <g id="xtick_1">
     <g id="line2d_1">
      <defs>
       <path id="m23bb3400ce" d="M 0 0 
L 0 3.5 
" style="stroke: #000000; stroke-width: 0.8"/>
      </defs>
      <g>
       <use xlink:href="#m23bb3400ce" x="73.998783" y="386.44" style="stroke: #000000; stroke-width: 0.8"/>
      </g>
     </g>
     <g id="text_1">
      <!-- 0 -->
      <g transform="translate(69.226908 404.837656) scale(0.15 -0.15)">
       <defs>
        <path id="DejaVuSans-30" d="M 2034 4250 
Q 1547 4250 1301 3770 
Q 1056 3291 1056 2328 
Q 1056 1369 1301 889 
Q 1547 409 2034 409 
Q 2525 409 2770 889 
Q 3016 1369 3016 2328 
Q 3016 3291 2770 3770 
Q 2525 4250 2034 4250 
z
M 2034 4750 
Q 2819 4750 3233 4129 
Q 3647 3509 3647 2328 
Q 3647 1150 3233 529 
Q 2819 -91 2034 -91 
Q 1250 -91 836 529 
Q 422 1150 422 2328 
Q 422 3509 836 4129 
Q 1250 4750 2034 4750 
z
" transform="scale(0.015625)"/>
       </defs>
       <use xlink:href="#DejaVuSans-30"/>
      </g>
     </g>
    </g>
    <g id="xtick_2">
     <g id="line2d_2">
      <g>
       <use xlink:href="#m23bb3400ce" x="157.438584" y="386.44" style="stroke: #000000; stroke-width: 0.8"/>
      </g>
     </g>
     <g id="text_2">
      <!-- 50 -->
      <g transform="translate(147.894834 404.837656) scale(0.15 -0.15)">
       <defs>
        <path id="DejaVuSans-35" d="M 691 4666 
L 3169 4666 
L 3169 4134 
L 1269 4134 
L 1269 2991 
Q 1406 3038 1543 3061 
Q 1681 3084 1819 3084 
Q 2600 3084 3056 2656 
Q 3513 2228 3513 1497 
Q 3513 744 3044 326 
Q 2575 -91 1722 -91 
Q 1428 -91 1123 -41 
Q 819 9 494 109 
L 494 744 
Q 775 591 1075 516 
Q 1375 441 1709 441 
Q 2250 441 2565 725 
Q 2881 1009 2881 1497 
Q 2881 1984 2565 2268 
Q 2250 2553 1709 2553 
Q 1456 2553 1204 2497 
Q 953 2441 691 2322 
L 691 4666 
z
" transform="scale(0.015625)"/>
       </defs>
       <use xlink:href="#DejaVuSans-35"/>
       <use xlink:href="#DejaVuSans-30" x="63.623047"/>
      </g>
     </g>
    </g>
    <g id="xtick_3">
     <g id="line2d_3">
      <g>
       <use xlink:href="#m23bb3400ce" x="240.878385" y="386.44" style="stroke: #000000; stroke-width: 0.8"/>
      </g>
     </g>
     <g id="text_3">
      <!-- 100 -->
      <g transform="translate(226.56276 404.837656) scale(0.15 -0.15)">
       <defs>
        <path id="DejaVuSans-31" d="M 794 531 
L 1825 531 
L 1825 4091 
L 703 3866 
L 703 4441 
L 1819 4666 
L 2450 4666 
L 2450 531 
L 3481 531 
L 3481 0 
L 794 0 
L 794 531 
z
" transform="scale(0.015625)"/>
       </defs>
       <use xlink:href="#DejaVuSans-31"/>
       <use xlink:href="#DejaVuSans-30" x="63.623047"/>
       <use xlink:href="#DejaVuSans-30" x="127.246094"/>
      </g>
     </g>
    </g>
    <g id="xtick_4">
     <g id="line2d_4">
      <g>
       <use xlink:href="#m23bb3400ce" x="324.318187" y="386.44" style="stroke: #000000; stroke-width: 0.8"/>
      </g>
     </g>
     <g id="text_4">
      <!-- 150 -->
      <g transform="translate(310.002562 404.837656) scale(0.15 -0.15)">
       <use xlink:href="#DejaVuSans-31"/>
       <use xlink:href="#DejaVuSans-35" x="63.623047"/>
       <use xlink:href="#DejaVuSans-30" x="127.246094"/>
      </g>
     </g>
    </g>
    <g id="text_5">
     <!-- # Commits -->
     <g transform="translate(147.454694 430.953281) scale(0.25 -0.25)">
      <defs>
       <path id="DejaVuSans-23" d="M 3272 2816 
L 2363 2816 
L 2100 1772 
L 3016 1772 
L 3272 2816 
z
M 2803 4594 
L 2478 3297 
L 3391 3297 
L 3719 4594 
L 4219 4594 
L 3897 3297 
L 4872 3297 
L 4872 2816 
L 3775 2816 
L 3519 1772 
L 4513 1772 
L 4513 1294 
L 3397 1294 
L 3072 0 
L 2572 0 
L 2894 1294 
L 1978 1294 
L 1656 0 
L 1153 0 
L 1478 1294 
L 494 1294 
L 494 1772 
L 1594 1772 
L 1856 2816 
L 850 2816 
L 850 3297 
L 1978 3297 
L 2297 4594 
L 2803 4594 
z
" transform="scale(0.015625)"/>
       <path id="DejaVuSans-20" transform="scale(0.015625)"/>
       <path id="DejaVuSans-43" d="M 4122 4306 
L 4122 3641 
Q 3803 3938 3442 4084 
Q 3081 4231 2675 4231 
Q 1875 4231 1450 3742 
Q 1025 3253 1025 2328 
Q 1025 1406 1450 917 
Q 1875 428 2675 428 
Q 3081 428 3442 575 
Q 3803 722 4122 1019 
L 4122 359 
Q 3791 134 3420 21 
Q 3050 -91 2638 -91 
Q 1578 -91 968 557 
Q 359 1206 359 2328 
Q 359 3453 968 4101 
Q 1578 4750 2638 4750 
Q 3056 4750 3426 4639 
Q 3797 4528 4122 4306 
z
" transform="scale(0.015625)"/>
       <path id="DejaVuSans-6f" d="M 1959 3097 
Q 1497 3097 1228 2736 
Q 959 2375 959 1747 
Q 959 1119 1226 758 
Q 1494 397 1959 397 
Q 2419 397 2687 759 
Q 2956 1122 2956 1747 
Q 2956 2369 2687 2733 
Q 2419 3097 1959 3097 
z
M 1959 3584 
Q 2709 3584 3137 3096 
Q 3566 2609 3566 1747 
Q 3566 888 3137 398 
Q 2709 -91 1959 -91 
Q 1206 -91 779 398 
Q 353 888 353 1747 
Q 353 2609 779 3096 
Q 1206 3584 1959 3584 
z
" transform="scale(0.015625)"/>
       <path id="DejaVuSans-6d" d="M 3328 2828 
Q 3544 3216 3844 3400 
Q 4144 3584 4550 3584 
Q 5097 3584 5394 3201 
Q 5691 2819 5691 2113 
L 5691 0 
L 5113 0 
L 5113 2094 
Q 5113 2597 4934 2840 
Q 4756 3084 4391 3084 
Q 3944 3084 3684 2787 
Q 3425 2491 3425 1978 
L 3425 0 
L 2847 0 
L 2847 2094 
Q 2847 2600 2669 2842 
Q 2491 3084 2119 3084 
Q 1678 3084 1418 2786 
Q 1159 2488 1159 1978 
L 1159 0 
L 581 0 
L 581 3500 
L 1159 3500 
L 1159 2956 
Q 1356 3278 1631 3431 
Q 1906 3584 2284 3584 
Q 2666 3584 2933 3390 
Q 3200 3197 3328 2828 
z
" transform="scale(0.015625)"/>
       <path id="DejaVuSans-69" d="M 603 3500 
L 1178 3500 
L 1178 0 
L 603 0 
L 603 3500 
z
M 603 4863 
L 1178 4863 
L 1178 4134 
L 603 4134 
L 603 4863 
z
" transform="scale(0.015625)"/>
       <path id="DejaVuSans-74" d="M 1172 4494 
L 1172 3500 
L 2356 3500 
L 2356 3053 
L 1172 3053 
L 1172 1153 
Q 1172 725 1289 603 
Q 1406 481 1766 481 
L 2356 481 
L 2356 0 
L 1766 0 
Q 1100 0 847 248 
Q 594 497 594 1153 
L 594 3053 
L 172 3053 
L 172 3500 
L 594 3500 
L 594 4494 
L 1172 4494 
z
" transform="scale(0.015625)"/>
       <path id="DejaVuSans-73" d="M 2834 3397 
L 2834 2853 
Q 2591 2978 2328 3040 
Q 2066 3103 1784 3103 
Q 1356 3103 1142 2972 
Q 928 2841 928 2578 
Q 928 2378 1081 2264 
Q 1234 2150 1697 2047 
L 1894 2003 
Q 2506 1872 2764 1633 
Q 3022 1394 3022 966 
Q 3022 478 2636 193 
Q 2250 -91 1575 -91 
Q 1294 -91 989 -36 
Q 684 19 347 128 
L 347 722 
Q 666 556 975 473 
Q 1284 391 1588 391 
Q 1994 391 2212 530 
Q 2431 669 2431 922 
Q 2431 1156 2273 1281 
Q 2116 1406 1581 1522 
L 1381 1569 
Q 847 1681 609 1914 
Q 372 2147 372 2553 
Q 372 3047 722 3315 
Q 1072 3584 1716 3584 
Q 2034 3584 2315 3537 
Q 2597 3491 2834 3397 
z
" transform="scale(0.015625)"/>
      </defs>
      <use xlink:href="#DejaVuSans-23"/>
      <use xlink:href="#DejaVuSans-20" x="83.789062"/>
      <use xlink:href="#DejaVuSans-43" x="115.576172"/>
      <use xlink:href="#DejaVuSans-6f" x="185.400391"/>
      <use xlink:href="#DejaVuSans-6d" x="246.582031"/>
      <use xlink:href="#DejaVuSans-6d" x="343.994141"/>
      <use xlink:href="#DejaVuSans-69" x="441.40625"/>
      <use xlink:href="#DejaVuSans-74" x="469.189453"/>
      <use xlink:href="#DejaVuSans-73" x="508.398438"/>
     </g>
    </g>
   </g>
   <g id="matplotlib.axis_2">
    <g id="ytick_1">
     <g id="line2d_5">
      <defs>
       <path id="meda969da3b" d="M 0 0 
L -3.5 0 
" style="stroke: #000000; stroke-width: 0.8"/>
      </defs>
      <g>
       <use xlink:href="#meda969da3b" x="61.482813" y="354.303104" style="stroke: #000000; stroke-width: 0.8"/>
      </g>
     </g>
     <g id="text_6">
      <!-- 5 -->
      <g transform="translate(44.939063 360.001932) scale(0.15 -0.15)">
       <use xlink:href="#DejaVuSans-35"/>
      </g>
     </g>
    </g>
    <g id="ytick_2">
     <g id="line2d_6">
      <g>
       <use xlink:href="#meda969da3b" x="61.482813" y="309.668526" style="stroke: #000000; stroke-width: 0.8"/>
      </g>
     </g>
     <g id="text_7">
      <!-- 10 -->
      <g transform="translate(35.395313 315.367354) scale(0.15 -0.15)">
       <use xlink:href="#DejaVuSans-31"/>
       <use xlink:href="#DejaVuSans-30" x="63.623047"/>
      </g>
     </g>
    </g>
    <g id="ytick_3">
     <g id="line2d_7">
      <g>
       <use xlink:href="#meda969da3b" x="61.482813" y="265.033948" style="stroke: #000000; stroke-width: 0.8"/>
      </g>
     </g>
     <g id="text_8">
      <!-- 15 -->
      <g transform="translate(35.395313 270.732776) scale(0.15 -0.15)">
       <use xlink:href="#DejaVuSans-31"/>
       <use xlink:href="#DejaVuSans-35" x="63.623047"/>
      </g>
     </g>
    </g>
    <g id="ytick_4">
     <g id="line2d_8">
      <g>
       <use xlink:href="#meda969da3b" x="61.482813" y="220.39937" style="stroke: #000000; stroke-width: 0.8"/>
      </g>
     </g>
     <g id="text_9">
      <!-- 20 -->
      <g transform="translate(35.395313 226.098198) scale(0.15 -0.15)">
       <defs>
        <path id="DejaVuSans-32" d="M 1228 531 
L 3431 531 
L 3431 0 
L 469 0 
L 469 531 
Q 828 903 1448 1529 
Q 2069 2156 2228 2338 
Q 2531 2678 2651 2914 
Q 2772 3150 2772 3378 
Q 2772 3750 2511 3984 
Q 2250 4219 1831 4219 
Q 1534 4219 1204 4116 
Q 875 4013 500 3803 
L 500 4441 
Q 881 4594 1212 4672 
Q 1544 4750 1819 4750 
Q 2544 4750 2975 4387 
Q 3406 4025 3406 3419 
Q 3406 3131 3298 2873 
Q 3191 2616 2906 2266 
Q 2828 2175 2409 1742 
Q 1991 1309 1228 531 
z
" transform="scale(0.015625)"/>
       </defs>
       <use xlink:href="#DejaVuSans-32"/>
       <use xlink:href="#DejaVuSans-30" x="63.623047"/>
      </g>
     </g>
    </g>
    <g id="ytick_5">
     <g id="line2d_9">
      <g>
       <use xlink:href="#meda969da3b" x="61.482813" y="175.764792" style="stroke: #000000; stroke-width: 0.8"/>
      </g>
     </g>
     <g id="text_10">
      <!-- 25 -->
      <g transform="translate(35.395313 181.46362) scale(0.15 -0.15)">
       <use xlink:href="#DejaVuSans-32"/>
       <use xlink:href="#DejaVuSans-35" x="63.623047"/>
      </g>
     </g>
    </g>
    <g id="ytick_6">
     <g id="line2d_10">
      <g>
       <use xlink:href="#meda969da3b" x="61.482813" y="131.130214" style="stroke: #000000; stroke-width: 0.8"/>
      </g>
     </g>
     <g id="text_11">
      <!-- 30 -->
      <g transform="translate(35.395313 136.829042) scale(0.15 -0.15)">
       <defs>
        <path id="DejaVuSans-33" d="M 2597 2516 
Q 3050 2419 3304 2112 
Q 3559 1806 3559 1356 
Q 3559 666 3084 287 
Q 2609 -91 1734 -91 
Q 1441 -91 1130 -33 
Q 819 25 488 141 
L 488 750 
Q 750 597 1062 519 
Q 1375 441 1716 441 
Q 2309 441 2620 675 
Q 2931 909 2931 1356 
Q 2931 1769 2642 2001 
Q 2353 2234 1838 2234 
L 1294 2234 
L 1294 2753 
L 1863 2753 
Q 2328 2753 2575 2939 
Q 2822 3125 2822 3475 
Q 2822 3834 2567 4026 
Q 2313 4219 1838 4219 
Q 1578 4219 1281 4162 
Q 984 4106 628 3988 
L 628 4550 
Q 988 4650 1302 4700 
Q 1616 4750 1894 4750 
Q 2613 4750 3031 4423 
Q 3450 4097 3450 3541 
Q 3450 3153 3228 2886 
Q 3006 2619 2597 2516 
z
" transform="scale(0.015625)"/>
       </defs>
       <use xlink:href="#DejaVuSans-33"/>
       <use xlink:href="#DejaVuSans-30" x="63.623047"/>
      </g>
     </g>
    </g>
    <g id="ytick_7">
     <g id="line2d_11">
      <g>
       <use xlink:href="#meda969da3b" x="61.482813" y="86.495636" style="stroke: #000000; stroke-width: 0.8"/>
      </g>
     </g>
     <g id="text_12">
      <!-- 35 -->
      <g transform="translate(35.395313 92.194464) scale(0.15 -0.15)">
       <use xlink:href="#DejaVuSans-33"/>
       <use xlink:href="#DejaVuSans-35" x="63.623047"/>
      </g>
     </g>
    </g>
    <g id="text_13">
     <!-- # Interacting authors -->
     <g transform="translate(26.196094 363.552848) rotate(-90) scale(0.25 -0.25)">
      <defs>
       <path id="DejaVuSans-49" d="M 628 4666 
L 1259 4666 
L 1259 0 
L 628 0 
L 628 4666 
z
" transform="scale(0.015625)"/>
       <path id="DejaVuSans-6e" d="M 3513 2113 
L 3513 0 
L 2938 0 
L 2938 2094 
Q 2938 2591 2744 2837 
Q 2550 3084 2163 3084 
Q 1697 3084 1428 2787 
Q 1159 2491 1159 1978 
L 1159 0 
L 581 0 
L 581 3500 
L 1159 3500 
L 1159 2956 
Q 1366 3272 1645 3428 
Q 1925 3584 2291 3584 
Q 2894 3584 3203 3211 
Q 3513 2838 3513 2113 
z
" transform="scale(0.015625)"/>
       <path id="DejaVuSans-65" d="M 3597 1894 
L 3597 1613 
L 953 1613 
Q 991 1019 1311 708 
Q 1631 397 2203 397 
Q 2534 397 2845 478 
Q 3156 559 3463 722 
L 3463 178 
Q 3153 47 2828 -22 
Q 2503 -91 2169 -91 
Q 1331 -91 842 396 
Q 353 884 353 1716 
Q 353 2575 817 3079 
Q 1281 3584 2069 3584 
Q 2775 3584 3186 3129 
Q 3597 2675 3597 1894 
z
M 3022 2063 
Q 3016 2534 2758 2815 
Q 2500 3097 2075 3097 
Q 1594 3097 1305 2825 
Q 1016 2553 972 2059 
L 3022 2063 
z
" transform="scale(0.015625)"/>
       <path id="DejaVuSans-72" d="M 2631 2963 
Q 2534 3019 2420 3045 
Q 2306 3072 2169 3072 
Q 1681 3072 1420 2755 
Q 1159 2438 1159 1844 
L 1159 0 
L 581 0 
L 581 3500 
L 1159 3500 
L 1159 2956 
Q 1341 3275 1631 3429 
Q 1922 3584 2338 3584 
Q 2397 3584 2469 3576 
Q 2541 3569 2628 3553 
L 2631 2963 
z
" transform="scale(0.015625)"/>
       <path id="DejaVuSans-61" d="M 2194 1759 
Q 1497 1759 1228 1600 
Q 959 1441 959 1056 
Q 959 750 1161 570 
Q 1363 391 1709 391 
Q 2188 391 2477 730 
Q 2766 1069 2766 1631 
L 2766 1759 
L 2194 1759 
z
M 3341 1997 
L 3341 0 
L 2766 0 
L 2766 531 
Q 2569 213 2275 61 
Q 1981 -91 1556 -91 
Q 1019 -91 701 211 
Q 384 513 384 1019 
Q 384 1609 779 1909 
Q 1175 2209 1959 2209 
L 2766 2209 
L 2766 2266 
Q 2766 2663 2505 2880 
Q 2244 3097 1772 3097 
Q 1472 3097 1187 3025 
Q 903 2953 641 2809 
L 641 3341 
Q 956 3463 1253 3523 
Q 1550 3584 1831 3584 
Q 2591 3584 2966 3190 
Q 3341 2797 3341 1997 
z
" transform="scale(0.015625)"/>
       <path id="DejaVuSans-63" d="M 3122 3366 
L 3122 2828 
Q 2878 2963 2633 3030 
Q 2388 3097 2138 3097 
Q 1578 3097 1268 2742 
Q 959 2388 959 1747 
Q 959 1106 1268 751 
Q 1578 397 2138 397 
Q 2388 397 2633 464 
Q 2878 531 3122 666 
L 3122 134 
Q 2881 22 2623 -34 
Q 2366 -91 2075 -91 
Q 1284 -91 818 406 
Q 353 903 353 1747 
Q 353 2603 823 3093 
Q 1294 3584 2113 3584 
Q 2378 3584 2631 3529 
Q 2884 3475 3122 3366 
z
" transform="scale(0.015625)"/>
       <path id="DejaVuSans-67" d="M 2906 1791 
Q 2906 2416 2648 2759 
Q 2391 3103 1925 3103 
Q 1463 3103 1205 2759 
Q 947 2416 947 1791 
Q 947 1169 1205 825 
Q 1463 481 1925 481 
Q 2391 481 2648 825 
Q 2906 1169 2906 1791 
z
M 3481 434 
Q 3481 -459 3084 -895 
Q 2688 -1331 1869 -1331 
Q 1566 -1331 1297 -1286 
Q 1028 -1241 775 -1147 
L 775 -588 
Q 1028 -725 1275 -790 
Q 1522 -856 1778 -856 
Q 2344 -856 2625 -561 
Q 2906 -266 2906 331 
L 2906 616 
Q 2728 306 2450 153 
Q 2172 0 1784 0 
Q 1141 0 747 490 
Q 353 981 353 1791 
Q 353 2603 747 3093 
Q 1141 3584 1784 3584 
Q 2172 3584 2450 3431 
Q 2728 3278 2906 2969 
L 2906 3500 
L 3481 3500 
L 3481 434 
z
" transform="scale(0.015625)"/>
       <path id="DejaVuSans-75" d="M 544 1381 
L 544 3500 
L 1119 3500 
L 1119 1403 
Q 1119 906 1312 657 
Q 1506 409 1894 409 
Q 2359 409 2629 706 
Q 2900 1003 2900 1516 
L 2900 3500 
L 3475 3500 
L 3475 0 
L 2900 0 
L 2900 538 
Q 2691 219 2414 64 
Q 2138 -91 1772 -91 
Q 1169 -91 856 284 
Q 544 659 544 1381 
z
M 1991 3584 
L 1991 3584 
z
" transform="scale(0.015625)"/>
       <path id="DejaVuSans-68" d="M 3513 2113 
L 3513 0 
L 2938 0 
L 2938 2094 
Q 2938 2591 2744 2837 
Q 2550 3084 2163 3084 
Q 1697 3084 1428 2787 
Q 1159 2491 1159 1978 
L 1159 0 
L 581 0 
L 581 4863 
L 1159 4863 
L 1159 2956 
Q 1366 3272 1645 3428 
Q 1925 3584 2291 3584 
Q 2894 3584 3203 3211 
Q 3513 2838 3513 2113 
z
" transform="scale(0.015625)"/>
      </defs>
      <use xlink:href="#DejaVuSans-23"/>
      <use xlink:href="#DejaVuSans-20" x="83.789062"/>
      <use xlink:href="#DejaVuSans-49" x="115.576172"/>
      <use xlink:href="#DejaVuSans-6e" x="145.068359"/>
      <use xlink:href="#DejaVuSans-74" x="208.447266"/>
      <use xlink:href="#DejaVuSans-65" x="247.65625"/>
      <use xlink:href="#DejaVuSans-72" x="309.179688"/>
      <use xlink:href="#DejaVuSans-61" x="350.292969"/>
      <use xlink:href="#DejaVuSans-63" x="411.572266"/>
      <use xlink:href="#DejaVuSans-74" x="466.552734"/>
      <use xlink:href="#DejaVuSans-69" x="505.761719"/>
      <use xlink:href="#DejaVuSans-6e" x="533.544922"/>
      <use xlink:href="#DejaVuSans-67" x="596.923828"/>
      <use xlink:href="#DejaVuSans-20" x="660.400391"/>
      <use xlink:href="#DejaVuSans-61" x="692.1875"/>
      <use xlink:href="#DejaVuSans-75" x="753.466797"/>
      <use xlink:href="#DejaVuSans-74" x="816.845703"/>
      <use xlink:href="#DejaVuSans-68" x="856.054688"/>
      <use xlink:href="#DejaVuSans-6f" x="919.433594"/>
      <use xlink:href="#DejaVuSans-72" x="980.615234"/>
      <use xlink:href="#DejaVuSans-73" x="1021.728516"/>
     </g>
    </g>
   </g>
   <g id="patch_3">
    <path d="M 61.482813 386.44 
L 61.482813 72.212571 
" style="fill: none; stroke: #000000; stroke-width: 0.8; stroke-linejoin: miter; stroke-linecap: square"/>
   </g>
   <g id="patch_4">
    <path d="M 61.482813 386.44 
L 373.54767 386.44 
" style="fill: none; stroke: #000000; stroke-width: 0.8; stroke-linejoin: miter; stroke-linecap: square"/>
   </g>
  </g>
  <g id="axes_2">
   <g id="patch_5">
    <path d="M 61.482813 61.377143 
L 373.54767 61.377143 
L 373.54767 7.2 
L 61.482813 7.2 
z
" style="fill: #ffffff"/>
   </g>
   <g id="PolyCollection_1">
    <path d="M -85.212093 60.914106 
L -85.212093 61.377143 
L -82.169608 61.377143 
L -79.127122 61.377143 
L -76.084636 61.377143 
L -73.04215 61.377143 
L -69.999665 61.377143 
L -66.957179 61.377143 
L -63.914693 61.377143 
L -60.872207 61.377143 
L -57.829721 61.377143 
L -54.787236 61.377143 
L -51.74475 61.377143 
L -48.702264 61.377143 
L -45.659778 61.377143 
L -42.617293 61.377143 
L -39.574807 61.377143 
L -36.532321 61.377143 
L -33.489835 61.377143 
L -30.447349 61.377143 
L -27.404864 61.377143 
L -24.362378 61.377143 
L -21.319892 61.377143 
L -18.277406 61.377143 
L -15.234921 61.377143 
L -12.192435 61.377143 
L -9.149949 61.377143 
L -6.107463 61.377143 
L -3.064978 61.377143 
L -0.022492 61.377143 
L 3.019994 61.377143 
L 6.06248 61.377143 
L 9.104966 61.377143 
L 12.147451 61.377143 
L 15.189937 61.377143 
L 18.232423 61.377143 
L 21.274909 61.377143 
L 24.317394 61.377143 
L 27.35988 61.377143 
L 30.402366 61.377143 
L 33.444852 61.377143 
L 36.487338 61.377143 
L 39.529823 61.377143 
L 42.572309 61.377143 
L 45.614795 61.377143 
L 48.657281 61.377143 
L 51.699766 61.377143 
L 54.742252 61.377143 
L 57.784738 61.377143 
L 60.827224 61.377143 
L 63.869709 61.377143 
L 66.912195 61.377143 
L 69.954681 61.377143 
L 72.997167 61.377143 
L 76.039653 61.377143 
L 79.082138 61.377143 
L 82.124624 61.377143 
L 85.16711 61.377143 
L 88.209596 61.377143 
L 91.252081 61.377143 
L 94.294567 61.377143 
L 97.337053 61.377143 
L 100.379539 61.377143 
L 103.422025 61.377143 
L 106.46451 61.377143 
L 109.506996 61.377143 
L 112.549482 61.377143 
L 115.591968 61.377143 
L 118.634453 61.377143 
L 121.676939 61.377143 
L 124.719425 61.377143 
L 127.761911 61.377143 
L 130.804397 61.377143 
L 133.846882 61.377143 
L 136.889368 61.377143 
L 139.931854 61.377143 
L 142.97434 61.377143 
L 146.016825 61.377143 
L 149.059311 61.377143 
L 152.101797 61.377143 
L 155.144283 61.377143 
L 158.186768 61.377143 
L 161.229254 61.377143 
L 164.27174 61.377143 
L 167.314226 61.377143 
L 170.356712 61.377143 
L 173.399197 61.377143 
L 176.441683 61.377143 
L 179.484169 61.377143 
L 182.526655 61.377143 
L 185.56914 61.377143 
L 188.611626 61.377143 
L 191.654112 61.377143 
L 194.696598 61.377143 
L 197.739084 61.377143 
L 200.781569 61.377143 
L 203.824055 61.377143 
L 206.866541 61.377143 
L 209.909027 61.377143 
L 212.951512 61.377143 
L 215.993998 61.377143 
L 219.036484 61.377143 
L 222.07897 61.377143 
L 225.121456 61.377143 
L 228.163941 61.377143 
L 231.206427 61.377143 
L 234.248913 61.377143 
L 237.291399 61.377143 
L 240.333884 61.377143 
L 243.37637 61.377143 
L 246.418856 61.377143 
L 249.461342 61.377143 
L 252.503827 61.377143 
L 255.546313 61.377143 
L 258.588799 61.377143 
L 261.631285 61.377143 
L 264.673771 61.377143 
L 267.716256 61.377143 
L 270.758742 61.377143 
L 273.801228 61.377143 
L 276.843714 61.377143 
L 279.886199 61.377143 
L 282.928685 61.377143 
L 285.971171 61.377143 
L 289.013657 61.377143 
L 292.056143 61.377143 
L 295.098628 61.377143 
L 298.141114 61.377143 
L 301.1836 61.377143 
L 304.226086 61.377143 
L 307.268571 61.377143 
L 310.311057 61.377143 
L 313.353543 61.377143 
L 316.396029 61.377143 
L 319.438514 61.377143 
L 322.481 61.377143 
L 325.523486 61.377143 
L 328.565972 61.377143 
L 331.608458 61.377143 
L 334.650943 61.377143 
L 337.693429 61.377143 
L 340.735915 61.377143 
L 343.778401 61.377143 
L 346.820886 61.377143 
L 349.863372 61.377143 
L 352.905858 61.377143 
L 355.948344 61.377143 
L 358.99083 61.377143 
L 362.033315 61.377143 
L 365.075801 61.377143 
L 368.118287 61.377143 
L 371.160773 61.377143 
L 374.203258 61.377143 
L 377.245744 61.377143 
L 380.28823 61.377143 
L 383.330716 61.377143 
L 386.373202 61.377143 
L 389.415687 61.377143 
L 392.458173 61.377143 
L 395.500659 61.377143 
L 398.543145 61.377143 
L 401.58563 61.377143 
L 404.628116 61.377143 
L 407.670602 61.377143 
L 410.713088 61.377143 
L 413.755573 61.377143 
L 416.798059 61.377143 
L 419.840545 61.377143 
L 422.883031 61.377143 
L 425.925517 61.377143 
L 428.968002 61.377143 
L 432.010488 61.377143 
L 435.052974 61.377143 
L 438.09546 61.377143 
L 441.137945 61.377143 
L 444.180431 61.377143 
L 447.222917 61.377143 
L 450.265403 61.377143 
L 453.307889 61.377143 
L 456.350374 61.377143 
L 459.39286 61.377143 
L 462.435346 61.377143 
L 465.477832 61.377143 
L 468.520317 61.377143 
L 471.562803 61.377143 
L 474.605289 61.377143 
L 477.647775 61.377143 
L 480.690261 61.377143 
L 483.732746 61.377143 
L 486.775232 61.377143 
L 489.817718 61.377143 
L 492.860204 61.377143 
L 495.902689 61.377143 
L 498.945175 61.377143 
L 501.987661 61.377143 
L 505.030147 61.377143 
L 508.072632 61.377143 
L 511.115118 61.377143 
L 514.157604 61.377143 
L 517.20009 61.377143 
L 520.242576 61.377143 
L 520.242576 61.323346 
L 520.242576 61.323346 
L 517.20009 61.313076 
L 514.157604 61.30108 
L 511.115118 61.287116 
L 508.072632 61.270916 
L 505.030147 61.252186 
L 501.987661 61.230604 
L 498.945175 61.205822 
L 495.902689 61.177462 
L 492.860204 61.145118 
L 489.817718 61.108357 
L 486.775232 61.066722 
L 483.732746 61.019728 
L 480.690261 60.96687 
L 477.647775 60.907623 
L 474.605289 60.841447 
L 471.562803 60.767792 
L 468.520317 60.686101 
L 465.477832 60.59582 
L 462.435346 60.496399 
L 459.39286 60.387307 
L 456.350374 60.268033 
L 453.307889 60.138101 
L 450.265403 59.997077 
L 447.222917 59.844575 
L 444.180431 59.680274 
L 441.137945 59.503926 
L 438.09546 59.315362 
L 435.052974 59.114507 
L 432.010488 58.901387 
L 428.968002 58.67614 
L 425.925517 58.439022 
L 422.883031 58.190412 
L 419.840545 57.930823 
L 416.798059 57.660901 
L 413.755573 57.381433 
L 410.713088 57.093338 
L 407.670602 56.797678 
L 404.628116 56.495644 
L 401.58563 56.188555 
L 398.543145 55.87785 
L 395.500659 55.565078 
L 392.458173 55.251885 
L 389.415687 54.939998 
L 386.373202 54.631213 
L 383.330716 54.327375 
L 380.28823 54.030358 
L 377.245744 53.742044 
L 374.203258 53.464305 
L 371.160773 53.198976 
L 368.118287 52.947837 
L 365.075801 52.712588 
L 362.033315 52.494829 
L 358.99083 52.296035 
L 355.948344 52.117542 
L 352.905858 51.960523 
L 349.863372 51.825974 
L 346.820886 51.7147 
L 343.778401 51.6273 
L 340.735915 51.564159 
L 337.693429 51.525439 
L 334.650943 51.511079 
L 331.608458 51.520786 
L 328.565972 51.554043 
L 325.523486 51.610108 
L 322.481 51.688026 
L 319.438514 51.786634 
L 316.396029 51.904572 
L 313.353543 52.040303 
L 310.311057 52.192124 
L 307.268571 52.358184 
L 304.226086 52.536505 
L 301.1836 52.725002 
L 298.141114 52.921502 
L 295.098628 53.123765 
L 292.056143 53.329509 
L 289.013657 53.536427 
L 285.971171 53.742205 
L 282.928685 53.944547 
L 279.886199 54.141186 
L 276.843714 54.329904 
L 273.801228 54.508543 
L 270.758742 54.675016 
L 267.716256 54.827316 
L 264.673771 54.963525 
L 261.631285 55.081811 
L 258.588799 55.180436 
L 255.546313 55.257747 
L 252.503827 55.312175 
L 249.461342 55.342227 
L 246.418856 55.346478 
L 243.37637 55.323554 
L 240.333884 55.272127 
L 237.291399 55.190892 
L 234.248913 55.078558 
L 231.206427 54.933833 
L 228.163941 54.755404 
L 225.121456 54.541929 
L 222.07897 54.292022 
L 219.036484 54.004245 
L 215.993998 53.677103 
L 212.951512 53.309038 
L 209.909027 52.898434 
L 206.866541 52.443624 
L 203.824055 51.942898 
L 200.781569 51.394529 
L 197.739084 50.796789 
L 194.696598 50.147984 
L 191.654112 49.446491 
L 188.611626 48.690797 
L 185.56914 47.87955 
L 182.526655 47.011611 
L 179.484169 46.086109 
L 176.441683 45.102506 
L 173.399197 44.060656 
L 170.356712 42.960867 
L 167.314226 41.803968 
L 164.27174 40.591366 
L 161.229254 39.325101 
L 158.186768 38.007901 
L 155.144283 36.643221 
L 152.101797 35.235277 
L 149.059311 33.789075 
L 146.016825 32.310413 
L 142.97434 30.805886 
L 139.931854 29.282864 
L 136.889368 27.749463 
L 133.846882 26.214494 
L 130.804397 24.6874 
L 127.761911 23.178176 
L 124.719425 21.697273 
L 121.676939 20.255489 
L 118.634453 18.863849 
L 115.591968 17.533469 
L 112.549482 16.275421 
L 109.506996 15.10058 
L 106.46451 14.019476 
L 103.422025 13.042142 
L 100.379539 12.177968 
L 97.337053 11.435555 
L 94.294567 10.82258 
L 91.252081 10.345677 
L 88.209596 10.010324 
L 85.16711 9.820749 
L 82.124624 9.779864 
L 79.082138 9.889202 
L 76.039653 10.148893 
L 72.997167 10.557648 
L 69.954681 11.112777 
L 66.912195 11.810224 
L 63.869709 12.644621 
L 60.827224 13.609369 
L 57.784738 14.696737 
L 54.742252 15.897967 
L 51.699766 17.203411 
L 48.657281 18.602664 
L 45.614795 20.084716 
L 42.572309 21.638104 
L 39.529823 23.251069 
L 36.487338 24.911709 
L 33.444852 26.608139 
L 30.402366 28.32863 
L 27.35988 30.061752 
L 24.317394 31.796498 
L 21.274909 33.522404 
L 18.232423 35.229643 
L 15.189937 36.909116 
L 12.147451 38.552516 
L 9.104966 40.152385 
L 6.06248 41.702151 
L 3.019994 43.196145 
L -0.022492 44.629608 
L -3.064978 45.998683 
L -6.107463 47.300393 
L -9.149949 48.532605 
L -12.192435 49.69399 
L -15.234921 50.783966 
L -18.277406 51.802644 
L -21.319892 52.75076 
L -24.362378 53.629609 
L -27.404864 54.440976 
L -30.447349 55.187063 
L -33.489835 55.870423 
L -36.532321 56.493892 
L -39.574807 57.060522 
L -42.617293 57.573524 
L -45.659778 58.036209 
L -48.702264 58.45194 
L -51.74475 58.824083 
L -54.787236 59.15597 
L -57.829721 59.450862 
L -60.872207 59.71192 
L -63.914693 59.942181 
L -66.957179 60.144539 
L -69.999665 60.321734 
L -73.04215 60.476334 
L -76.084636 60.610738 
L -79.127122 60.727167 
L -82.169608 60.827665 
L -85.212093 60.914106 
z
" clip-path="url(#p5c601665fc)" style="fill: #1f77b4; fill-opacity: 0.25; stroke: #1f77b4"/>
   </g>
   <g id="matplotlib.axis_3">
    <g id="xtick_5">
     <g id="line2d_12">
      <g>
       <use xlink:href="#m23bb3400ce" x="73.998783" y="61.377143" style="stroke: #000000; stroke-width: 0.8"/>
      </g>
     </g>
    </g>
    <g id="xtick_6">
     <g id="line2d_13">
      <g>
       <use xlink:href="#m23bb3400ce" x="157.438584" y="61.377143" style="stroke: #000000; stroke-width: 0.8"/>
      </g>
     </g>
    </g>
    <g id="xtick_7">
     <g id="line2d_14">
      <g>
       <use xlink:href="#m23bb3400ce" x="240.878385" y="61.377143" style="stroke: #000000; stroke-width: 0.8"/>
      </g>
     </g>
    </g>
    <g id="xtick_8">
     <g id="line2d_15">
      <g>
       <use xlink:href="#m23bb3400ce" x="324.318187" y="61.377143" style="stroke: #000000; stroke-width: 0.8"/>
      </g>
     </g>
    </g>
   </g>
   <g id="matplotlib.axis_4">
    <g id="ytick_8"/>
    <g id="ytick_9"/>
   </g>
   <g id="patch_6">
    <path d="M 61.482813 61.377143 
L 373.54767 61.377143 
" style="fill: none; stroke: #000000; stroke-width: 0.8; stroke-linejoin: miter; stroke-linecap: square"/>
   </g>
  </g>
  <g id="axes_3">
   <g id="patch_7">
    <path d="M 384.308527 386.44 
L 438.112812 386.44 
L 438.112812 72.212571 
L 384.308527 72.212571 
z
" style="fill: #ffffff"/>
   </g>
   <g id="PolyCollection_2">
    <path d="M 384.347728 486.442779 
L 384.308527 486.442779 
L 384.308527 483.858693 
L 384.308527 481.274608 
L 384.308527 478.690522 
L 384.308527 476.106437 
L 384.308527 473.522352 
L 384.308527 470.938266 
L 384.308527 468.354181 
L 384.308527 465.770096 
L 384.308527 463.18601 
L 384.308527 460.601925 
L 384.308527 458.01784 
L 384.308527 455.433754 
L 384.308527 452.849669 
L 384.308527 450.265584 
L 384.308527 447.681498 
L 384.308527 445.097413 
L 384.308527 442.513327 
L 384.308527 439.929242 
L 384.308527 437.345157 
L 384.308527 434.761071 
L 384.308527 432.176986 
L 384.308527 429.592901 
L 384.308527 427.008815 
L 384.308527 424.42473 
L 384.308527 421.840645 
L 384.308527 419.256559 
L 384.308527 416.672474 
L 384.308527 414.088389 
L 384.308527 411.504303 
L 384.308527 408.920218 
L 384.308527 406.336133 
L 384.308527 403.752047 
L 384.308527 401.167962 
L 384.308527 398.583876 
L 384.308527 395.999791 
L 384.308527 393.415706 
L 384.308527 390.83162 
L 384.308527 388.247535 
L 384.308527 385.66345 
L 384.308527 383.079364 
L 384.308527 380.495279 
L 384.308527 377.911194 
L 384.308527 375.327108 
L 384.308527 372.743023 
L 384.308527 370.158938 
L 384.308527 367.574852 
L 384.308527 364.990767 
L 384.308527 362.406681 
L 384.308527 359.822596 
L 384.308527 357.238511 
L 384.308527 354.654425 
L 384.308527 352.07034 
L 384.308527 349.486255 
L 384.308527 346.902169 
L 384.308527 344.318084 
L 384.308527 341.733999 
L 384.308527 339.149913 
L 384.308527 336.565828 
L 384.308527 333.981743 
L 384.308527 331.397657 
L 384.308527 328.813572 
L 384.308527 326.229487 
L 384.308527 323.645401 
L 384.308527 321.061316 
L 384.308527 318.47723 
L 384.308527 315.893145 
L 384.308527 313.30906 
L 384.308527 310.724974 
L 384.308527 308.140889 
L 384.308527 305.556804 
L 384.308527 302.972718 
L 384.308527 300.388633 
L 384.308527 297.804548 
L 384.308527 295.220462 
L 384.308527 292.636377 
L 384.308527 290.052292 
L 384.308527 287.468206 
L 384.308527 284.884121 
L 384.308527 282.300035 
L 384.308527 279.71595 
L 384.308527 277.131865 
L 384.308527 274.547779 
L 384.308527 271.963694 
L 384.308527 269.379609 
L 384.308527 266.795523 
L 384.308527 264.211438 
L 384.308527 261.627353 
L 384.308527 259.043267 
L 384.308527 256.459182 
L 384.308527 253.875097 
L 384.308527 251.291011 
L 384.308527 248.706926 
L 384.308527 246.122841 
L 384.308527 243.538755 
L 384.308527 240.95467 
L 384.308527 238.370584 
L 384.308527 235.786499 
L 384.308527 233.202414 
L 384.308527 230.618328 
L 384.308527 228.034243 
L 384.308527 225.450158 
L 384.308527 222.866072 
L 384.308527 220.281987 
L 384.308527 217.697902 
L 384.308527 215.113816 
L 384.308527 212.529731 
L 384.308527 209.945646 
L 384.308527 207.36156 
L 384.308527 204.777475 
L 384.308527 202.193389 
L 384.308527 199.609304 
L 384.308527 197.025219 
L 384.308527 194.441133 
L 384.308527 191.857048 
L 384.308527 189.272963 
L 384.308527 186.688877 
L 384.308527 184.104792 
L 384.308527 181.520707 
L 384.308527 178.936621 
L 384.308527 176.352536 
L 384.308527 173.768451 
L 384.308527 171.184365 
L 384.308527 168.60028 
L 384.308527 166.016195 
L 384.308527 163.432109 
L 384.308527 160.848024 
L 384.308527 158.263938 
L 384.308527 155.679853 
L 384.308527 153.095768 
L 384.308527 150.511682 
L 384.308527 147.927597 
L 384.308527 145.343512 
L 384.308527 142.759426 
L 384.308527 140.175341 
L 384.308527 137.591256 
L 384.308527 135.00717 
L 384.308527 132.423085 
L 384.308527 129.839 
L 384.308527 127.254914 
L 384.308527 124.670829 
L 384.308527 122.086743 
L 384.308527 119.502658 
L 384.308527 116.918573 
L 384.308527 114.334487 
L 384.308527 111.750402 
L 384.308527 109.166317 
L 384.308527 106.582231 
L 384.308527 103.998146 
L 384.308527 101.414061 
L 384.308527 98.829975 
L 384.308527 96.24589 
L 384.308527 93.661805 
L 384.308527 91.077719 
L 384.308527 88.493634 
L 384.308527 85.909549 
L 384.308527 83.325463 
L 384.308527 80.741378 
L 384.308527 78.157292 
L 384.308527 75.573207 
L 384.308527 72.989122 
L 384.308527 70.405036 
L 384.308527 67.820951 
L 384.308527 65.236866 
L 384.308527 62.65278 
L 384.308527 60.068695 
L 384.308527 57.48461 
L 384.308527 54.900524 
L 384.308527 52.316439 
L 384.308527 49.732354 
L 384.308527 47.148268 
L 384.308527 44.564183 
L 384.308527 41.980097 
L 384.308527 39.396012 
L 384.308527 36.811927 
L 384.308527 34.227841 
L 384.308527 31.643756 
L 384.308527 29.059671 
L 384.308527 26.475585 
L 384.308527 23.8915 
L 384.308527 21.307415 
L 384.308527 18.723329 
L 384.308527 16.139244 
L 384.308527 13.555159 
L 384.308527 10.971073 
L 384.308527 8.386988 
L 384.308527 5.802903 
L 384.308527 3.218817 
L 384.308527 0.634732 
L 384.308527 -1.949354 
L 384.308527 -4.533439 
L 384.308527 -7.117524 
L 384.308527 -9.70161 
L 384.308527 -12.285695 
L 384.308527 -14.86978 
L 384.308527 -17.453866 
L 384.308527 -20.037951 
L 384.308527 -22.622036 
L 384.308527 -25.206122 
L 384.308527 -27.790207 
L 384.453736 -27.790207 
L 384.453736 -27.790207 
L 384.489982 -25.206122 
L 384.534286 -22.622036 
L 384.588179 -20.037951 
L 384.653425 -17.453866 
L 384.732035 -14.86978 
L 384.82629 -12.285695 
L 384.938758 -9.70161 
L 385.072307 -7.117524 
L 385.230115 -4.533439 
L 385.415673 -1.949354 
L 385.63279 0.634732 
L 385.885574 3.218817 
L 386.178423 5.802903 
L 386.515987 8.386988 
L 386.903138 10.971073 
L 387.344911 13.555159 
L 387.846439 16.139244 
L 388.41288 18.723329 
L 389.049324 21.307415 
L 389.760686 23.8915 
L 390.551594 26.475585 
L 391.426262 29.059671 
L 392.388357 31.643756 
L 393.440859 34.227841 
L 394.585918 36.811927 
L 395.824716 39.396012 
L 397.157327 41.980097 
L 398.582598 44.564183 
L 400.09803 47.148268 
L 401.69969 49.732354 
L 403.382138 52.316439 
L 405.138387 54.900524 
L 406.95989 57.48461 
L 408.836562 60.068695 
L 410.756842 62.65278 
L 412.707787 65.236866 
L 414.675204 67.820951 
L 416.643825 70.405036 
L 418.597508 72.989122 
L 420.519471 75.573207 
L 422.392556 78.157292 
L 424.199507 80.741378 
L 425.923262 83.325463 
L 427.547258 85.909549 
L 429.055723 88.493634 
L 430.433965 91.077719 
L 431.668644 93.661805 
L 432.748013 96.24589 
L 433.662132 98.829975 
L 434.40304 101.414061 
L 434.964889 103.998146 
L 435.344026 106.582231 
L 435.53903 109.166317 
L 435.550704 111.750402 
L 435.382009 114.334487 
L 435.037966 116.918573 
L 434.525512 119.502658 
L 433.853314 122.086743 
L 433.031564 124.670829 
L 432.071746 127.254914 
L 430.986389 129.839 
L 429.788807 132.423085 
L 428.492847 135.00717 
L 427.112637 137.591256 
L 425.662346 140.175341 
L 424.155965 142.759426 
L 422.607105 145.343512 
L 421.02883 147.927597 
L 419.433505 150.511682 
L 417.832682 153.095768 
L 416.237015 155.679853 
L 414.656195 158.263938 
L 413.098921 160.848024 
L 411.572887 163.432109 
L 410.084796 166.016195 
L 408.640387 168.60028 
L 407.244477 171.184365 
L 405.901017 173.768451 
L 404.613144 176.352536 
L 403.383254 178.936621 
L 402.21306 181.520707 
L 401.103656 184.104792 
L 400.055579 186.688877 
L 399.068864 189.272963 
L 398.143095 191.857048 
L 397.277448 194.441133 
L 396.470735 197.025219 
L 395.721439 199.609304 
L 395.027743 202.193389 
L 394.387561 204.777475 
L 393.798568 207.36156 
L 393.258218 209.945646 
L 392.763781 212.529731 
L 392.312359 215.113816 
L 391.900925 217.697902 
L 391.526348 220.281987 
L 391.185427 222.866072 
L 390.874928 225.450158 
L 390.591619 228.034243 
L 390.33231 230.618328 
L 390.09389 233.202414 
L 389.873367 235.786499 
L 389.667903 238.370584 
L 389.474854 240.95467 
L 389.291796 243.538755 
L 389.116555 246.122841 
L 388.94723 248.706926 
L 388.782211 251.291011 
L 388.620189 253.875097 
L 388.460162 256.459182 
L 388.301434 259.043267 
L 388.143608 261.627353 
L 387.986569 264.211438 
L 387.830472 266.795523 
L 387.675715 269.379609 
L 387.52291 271.963694 
L 387.372854 274.547779 
L 387.226499 277.131865 
L 387.08491 279.71595 
L 386.949237 282.300035 
L 386.820675 284.884121 
L 386.700428 287.468206 
L 386.589683 290.052292 
L 386.489567 292.636377 
L 386.401127 295.220462 
L 386.325302 297.804548 
L 386.262892 300.388633 
L 386.214548 302.972718 
L 386.180747 305.556804 
L 386.161779 308.140889 
L 386.157742 310.724974 
L 386.168527 313.30906 
L 386.193819 315.893145 
L 386.233094 318.47723 
L 386.285626 321.061316 
L 386.350489 323.645401 
L 386.426568 326.229487 
L 386.512572 328.813572 
L 386.607054 331.397657 
L 386.708421 333.981743 
L 386.814968 336.565828 
L 386.924892 339.149913 
L 387.036325 341.733999 
L 387.147365 344.318084 
L 387.256097 346.902169 
L 387.360637 349.486255 
L 387.459152 352.07034 
L 387.5499 354.654425 
L 387.631253 357.238511 
L 387.701731 359.822596 
L 387.760026 362.406681 
L 387.805022 364.990767 
L 387.835817 367.574852 
L 387.851736 370.158938 
L 387.852342 372.743023 
L 387.837439 375.327108 
L 387.807072 377.911194 
L 387.761523 380.495279 
L 387.701299 383.079364 
L 387.627118 385.66345 
L 387.539888 388.247535 
L 387.440686 390.83162 
L 387.330731 393.415706 
L 387.211355 395.999791 
L 387.083976 398.583876 
L 386.950067 401.167962 
L 386.811125 403.752047 
L 386.668642 406.336133 
L 386.52408 408.920218 
L 386.378845 411.504303 
L 386.234264 414.088389 
L 386.091569 416.672474 
L 385.951876 419.256559 
L 385.816181 421.840645 
L 385.685345 424.42473 
L 385.560094 427.008815 
L 385.441017 429.592901 
L 385.328567 432.176986 
L 385.223066 434.761071 
L 385.124713 437.345157 
L 385.033595 439.929242 
L 384.949692 442.513327 
L 384.872896 445.097413 
L 384.803018 447.681498 
L 384.739803 450.265584 
L 384.682943 452.849669 
L 384.632087 455.433754 
L 384.586855 458.01784 
L 384.546847 460.601925 
L 384.511654 463.18601 
L 384.480863 465.770096 
L 384.454068 468.354181 
L 384.430875 470.938266 
L 384.410905 473.522352 
L 384.393802 476.106437 
L 384.37923 478.690522 
L 384.366879 481.274608 
L 384.356465 483.858693 
L 384.347728 486.442779 
z
" clip-path="url(#pcaf0910ad7)" style="fill: #1f77b4; fill-opacity: 0.25; stroke: #1f77b4"/>
   </g>
   <g id="matplotlib.axis_5">
    <g id="xtick_9"/>
    <g id="xtick_10"/>
   </g>
   <g id="matplotlib.axis_6">
    <g id="ytick_10">
     <g id="line2d_16">
      <g>
       <use xlink:href="#meda969da3b" x="384.308527" y="354.303104" style="stroke: #000000; stroke-width: 0.8"/>
      </g>
     </g>
    </g>
    <g id="ytick_11">
     <g id="line2d_17">
      <g>
       <use xlink:href="#meda969da3b" x="384.308527" y="309.668526" style="stroke: #000000; stroke-width: 0.8"/>
      </g>
     </g>
    </g>
    <g id="ytick_12">
     <g id="line2d_18">
      <g>
       <use xlink:href="#meda969da3b" x="384.308527" y="265.033948" style="stroke: #000000; stroke-width: 0.8"/>
      </g>
     </g>
    </g>
    <g id="ytick_13">
     <g id="line2d_19">
      <g>
       <use xlink:href="#meda969da3b" x="384.308527" y="220.39937" style="stroke: #000000; stroke-width: 0.8"/>
      </g>
     </g>
    </g>
    <g id="ytick_14">
     <g id="line2d_20">
      <g>
       <use xlink:href="#meda969da3b" x="384.308527" y="175.764792" style="stroke: #000000; stroke-width: 0.8"/>
      </g>
     </g>
    </g>
    <g id="ytick_15">
     <g id="line2d_21">
      <g>
       <use xlink:href="#meda969da3b" x="384.308527" y="131.130214" style="stroke: #000000; stroke-width: 0.8"/>
      </g>
     </g>
    </g>
    <g id="ytick_16">
     <g id="line2d_22">
      <g>
       <use xlink:href="#meda969da3b" x="384.308527" y="86.495636" style="stroke: #000000; stroke-width: 0.8"/>
      </g>
     </g>
    </g>
   </g>
   <g id="patch_8">
    <path d="M 384.308527 386.44 
L 384.308527 72.212571 
" style="fill: none; stroke: #000000; stroke-width: 0.8; stroke-linejoin: miter; stroke-linecap: square"/>
   </g>
  </g>
 </g>
 <defs>
  <clipPath id="p68369b1e86">
   <rect x="61.482813" y="72.212571" width="312.064857" height="314.227429"/>
  </clipPath>
  <clipPath id="p5c601665fc">
   <rect x="61.482813" y="7.2" width="312.064857" height="54.177143"/>
  </clipPath>
  <clipPath id="pcaf0910ad7">
   <rect x="384.308527" y="72.212571" width="53.804286" height="314.227429"/>
  </clipPath>
 </defs>
</svg>
