<?xml version="1.0" encoding="utf-8" standalone="no"?>
<!DOCTYPE svg PUBLIC "-//W3C//DTD SVG 1.1//EN"
  "http://www.w3.org/Graphics/SVG/1.1/DTD/svg11.dtd">
<svg xmlns:xlink="http://www.w3.org/1999/xlink" width="414.641875pt" height="150.520479pt" viewBox="0 0 414.641875 150.520479" xmlns="http://www.w3.org/2000/svg" version="1.1">
 <metadata>
  <rdf:RDF xmlns:dc="http://purl.org/dc/elements/1.1/" xmlns:cc="http://creativecommons.org/ns#" xmlns:rdf="http://www.w3.org/1999/02/22-rdf-syntax-ns#">
   <cc:Work>
    <dc:type rdf:resource="http://purl.org/dc/dcmitype/StillImage"/>
    <dc:date>2022-12-10T10:47:59.768395</dc:date>
    <dc:format>image/svg+xml</dc:format>
    <dc:creator>
     <cc:Agent>
      <dc:title>Matplotlib v3.6.2, https://matplotlib.org/</dc:title>
     </cc:Agent>
    </dc:creator>
   </cc:Work>
  </rdf:RDF>
 </metadata>
 <defs>
  <style type="text/css">*{stroke-linejoin: round; stroke-linecap: butt}</style>
 </defs>
 <g id="figure_1">
  <g id="patch_1">
   <path d="M 0 150.520479 
L 414.641875 150.520479 
L 414.641875 0 
L 0 0 
z
" style="fill: #ffffff"/>
  </g>
  <g id="axes_1">
   <g id="patch_2">
    <path d="M 50.321875 139.332094 
L 407.441875 139.332094 
L 407.441875 32.196094 
L 50.321875 32.196094 
z
" style="fill: #ffffff"/>
   </g>
   <g id="patch_3">
    <path d="M 51.214675 63.038276 
L 58.357075 63.038276 
L 58.357075 56.545185 
L 51.214675 56.545185 
z
" clip-path="url(#pdcebb3fe28)" style="fill: #3274a1"/>
   </g>
   <g id="patch_4">
    <path d="M 60.142675 63.038276 
L 67.285075 63.038276 
L 67.285075 63.038276 
L 60.142675 63.038276 
z
" clip-path="url(#pdcebb3fe28)" style="fill: #3274a1"/>
   </g>
   <g id="patch_5">
    <path d="M 69.070675 63.038276 
L 76.213075 63.038276 
L 76.213075 63.038276 
L 69.070675 63.038276 
z
" clip-path="url(#pdcebb3fe28)" style="fill: #3274a1"/>
   </g>
   <g id="patch_6">
    <path d="M 77.998675 63.038276 
L 85.141075 63.038276 
L 85.141075 63.038276 
L 77.998675 63.038276 
z
" clip-path="url(#pdcebb3fe28)" style="fill: #3274a1"/>
   </g>
   <g id="patch_7">
    <path d="M 86.926675 63.038276 
L 94.069075 63.038276 
L 94.069075 46.805548 
L 86.926675 46.805548 
z
" clip-path="url(#pdcebb3fe28)" style="fill: #3274a1"/>
   </g>
   <g id="patch_8">
    <path d="M 95.854675 63.038276 
L 102.997075 63.038276 
L 102.997075 56.545185 
L 95.854675 56.545185 
z
" clip-path="url(#pdcebb3fe28)" style="fill: #3274a1"/>
   </g>
   <g id="patch_9">
    <path d="M 104.782675 63.038276 
L 111.925075 63.038276 
L 111.925075 37.065912 
L 104.782675 37.065912 
z
" clip-path="url(#pdcebb3fe28)" style="fill: #3274a1"/>
   </g>
   <g id="patch_10">
    <path d="M 113.710675 63.038276 
L 120.853075 63.038276 
L 120.853075 63.038276 
L 113.710675 63.038276 
z
" clip-path="url(#pdcebb3fe28)" style="fill: #3274a1"/>
   </g>
   <g id="patch_11">
    <path d="M 122.638675 63.038276 
L 129.781075 63.038276 
L 129.781075 63.038276 
L 122.638675 63.038276 
z
" clip-path="url(#pdcebb3fe28)" style="fill: #3274a1"/>
   </g>
   <g id="patch_12">
    <path d="M 131.566675 63.038276 
L 138.709075 63.038276 
L 138.709075 63.038276 
L 131.566675 63.038276 
z
" clip-path="url(#pdcebb3fe28)" style="fill: #3274a1"/>
   </g>
   <g id="patch_13">
    <path d="M 140.494675 63.038276 
L 147.637075 63.038276 
L 147.637075 43.559003 
L 140.494675 43.559003 
z
" clip-path="url(#pdcebb3fe28)" style="fill: #3274a1"/>
   </g>
   <g id="patch_14">
    <path d="M 149.422675 63.038276 
L 156.565075 63.038276 
L 156.565075 63.038276 
L 149.422675 63.038276 
z
" clip-path="url(#pdcebb3fe28)" style="fill: #3274a1"/>
   </g>
   <g id="patch_15">
    <path d="M 158.350675 63.038276 
L 165.493075 63.038276 
L 165.493075 63.038276 
L 158.350675 63.038276 
z
" clip-path="url(#pdcebb3fe28)" style="fill: #3274a1"/>
   </g>
   <g id="patch_16">
    <path d="M 167.278675 63.038276 
L 174.421075 63.038276 
L 174.421075 63.038276 
L 167.278675 63.038276 
z
" clip-path="url(#pdcebb3fe28)" style="fill: #3274a1"/>
   </g>
   <g id="patch_17">
    <path d="M 176.206675 63.038276 
L 183.349075 63.038276 
L 183.349075 53.298639 
L 176.206675 53.298639 
z
" clip-path="url(#pdcebb3fe28)" style="fill: #3274a1"/>
   </g>
   <g id="patch_18">
    <path d="M 185.134675 63.038276 
L 192.277075 63.038276 
L 192.277075 63.038276 
L 185.134675 63.038276 
z
" clip-path="url(#pdcebb3fe28)" style="fill: #3274a1"/>
   </g>
   <g id="patch_19">
    <path d="M 194.062675 63.038276 
L 201.205075 63.038276 
L 201.205075 63.038276 
L 194.062675 63.038276 
z
" clip-path="url(#pdcebb3fe28)" style="fill: #3274a1"/>
   </g>
   <g id="patch_20">
    <path d="M 202.990675 63.038276 
L 210.133075 63.038276 
L 210.133075 53.298639 
L 202.990675 53.298639 
z
" clip-path="url(#pdcebb3fe28)" style="fill: #3274a1"/>
   </g>
   <g id="patch_21">
    <path d="M 211.918675 63.038276 
L 219.061075 63.038276 
L 219.061075 63.038276 
L 211.918675 63.038276 
z
" clip-path="url(#pdcebb3fe28)" style="fill: #3274a1"/>
   </g>
   <g id="patch_22">
    <path d="M 220.846675 63.038276 
L 227.989075 63.038276 
L 227.989075 63.038276 
L 220.846675 63.038276 
z
" clip-path="url(#pdcebb3fe28)" style="fill: #3274a1"/>
   </g>
   <g id="patch_23">
    <path d="M 229.774675 63.038276 
L 236.917075 63.038276 
L 236.917075 63.038276 
L 229.774675 63.038276 
z
" clip-path="url(#pdcebb3fe28)" style="fill: #3274a1"/>
   </g>
   <g id="patch_24">
    <path d="M 238.702675 63.038276 
L 245.845075 63.038276 
L 245.845075 63.038276 
L 238.702675 63.038276 
z
" clip-path="url(#pdcebb3fe28)" style="fill: #3274a1"/>
   </g>
   <g id="patch_25">
    <path d="M 247.630675 63.038276 
L 254.773075 63.038276 
L 254.773075 63.038276 
L 247.630675 63.038276 
z
" clip-path="url(#pdcebb3fe28)" style="fill: #3274a1"/>
   </g>
   <g id="patch_26">
    <path d="M 256.558675 63.038276 
L 263.701075 63.038276 
L 263.701075 63.038276 
L 256.558675 63.038276 
z
" clip-path="url(#pdcebb3fe28)" style="fill: #3274a1"/>
   </g>
   <g id="patch_27">
    <path d="M 265.486675 63.038276 
L 272.629075 63.038276 
L 272.629075 63.038276 
L 265.486675 63.038276 
z
" clip-path="url(#pdcebb3fe28)" style="fill: #3274a1"/>
   </g>
   <g id="patch_28">
    <path d="M 274.414675 63.038276 
L 281.557075 63.038276 
L 281.557075 63.038276 
L 274.414675 63.038276 
z
" clip-path="url(#pdcebb3fe28)" style="fill: #3274a1"/>
   </g>
   <g id="patch_29">
    <path d="M 283.342675 63.038276 
L 290.485075 63.038276 
L 290.485075 56.545185 
L 283.342675 56.545185 
z
" clip-path="url(#pdcebb3fe28)" style="fill: #3274a1"/>
   </g>
   <g id="patch_30">
    <path d="M 292.270675 63.038276 
L 299.413075 63.038276 
L 299.413075 63.038276 
L 292.270675 63.038276 
z
" clip-path="url(#pdcebb3fe28)" style="fill: #3274a1"/>
   </g>
   <g id="patch_31">
    <path d="M 301.198675 63.038276 
L 308.341075 63.038276 
L 308.341075 53.298639 
L 301.198675 53.298639 
z
" clip-path="url(#pdcebb3fe28)" style="fill: #3274a1"/>
   </g>
   <g id="patch_32">
    <path d="M 310.126675 63.038276 
L 317.269075 63.038276 
L 317.269075 63.038276 
L 310.126675 63.038276 
z
" clip-path="url(#pdcebb3fe28)" style="fill: #3274a1"/>
   </g>
   <g id="patch_33">
    <path d="M 319.054675 63.038276 
L 326.197075 63.038276 
L 326.197075 63.038276 
L 319.054675 63.038276 
z
" clip-path="url(#pdcebb3fe28)" style="fill: #3274a1"/>
   </g>
   <g id="patch_34">
    <path d="M 327.982675 63.038276 
L 335.125075 63.038276 
L 335.125075 50.052094 
L 327.982675 50.052094 
z
" clip-path="url(#pdcebb3fe28)" style="fill: #3274a1"/>
   </g>
   <g id="patch_35">
    <path d="M 336.910675 63.038276 
L 344.053075 63.038276 
L 344.053075 63.038276 
L 336.910675 63.038276 
z
" clip-path="url(#pdcebb3fe28)" style="fill: #3274a1"/>
   </g>
   <g id="patch_36">
    <path d="M 345.838675 63.038276 
L 352.981075 63.038276 
L 352.981075 63.038276 
L 345.838675 63.038276 
z
" clip-path="url(#pdcebb3fe28)" style="fill: #3274a1"/>
   </g>
   <g id="patch_37">
    <path d="M 354.766675 63.038276 
L 361.909075 63.038276 
L 361.909075 63.038276 
L 354.766675 63.038276 
z
" clip-path="url(#pdcebb3fe28)" style="fill: #3274a1"/>
   </g>
   <g id="patch_38">
    <path d="M 363.694675 63.038276 
L 370.837075 63.038276 
L 370.837075 50.052094 
L 363.694675 50.052094 
z
" clip-path="url(#pdcebb3fe28)" style="fill: #3274a1"/>
   </g>
   <g id="patch_39">
    <path d="M 372.622675 63.038276 
L 379.765075 63.038276 
L 379.765075 63.038276 
L 372.622675 63.038276 
z
" clip-path="url(#pdcebb3fe28)" style="fill: #3274a1"/>
   </g>
   <g id="patch_40">
    <path d="M 381.550675 63.038276 
L 388.693075 63.038276 
L 388.693075 63.038276 
L 381.550675 63.038276 
z
" clip-path="url(#pdcebb3fe28)" style="fill: #3274a1"/>
   </g>
   <g id="patch_41">
    <path d="M 390.478675 63.038276 
L 397.621075 63.038276 
L 397.621075 56.545185 
L 390.478675 56.545185 
z
" clip-path="url(#pdcebb3fe28)" style="fill: #3274a1"/>
   </g>
   <g id="patch_42">
    <path d="M 399.406675 63.038276 
L 406.549075 63.038276 
L 406.549075 63.038276 
L 399.406675 63.038276 
z
" clip-path="url(#pdcebb3fe28)" style="fill: #3274a1"/>
   </g>
   <g id="patch_43">
    <path d="M 51.214675 63.038276 
L 58.357075 63.038276 
L 58.357075 69.531366 
L 51.214675 69.531366 
z
" clip-path="url(#pdcebb3fe28)" style="fill: #e1812c"/>
   </g>
   <g id="patch_44">
    <path d="M 60.142675 63.038276 
L 67.285075 63.038276 
L 67.285075 95.50373 
L 60.142675 95.50373 
z
" clip-path="url(#pdcebb3fe28)" style="fill: #e1812c"/>
   </g>
   <g id="patch_45">
    <path d="M 69.070675 63.038276 
L 76.213075 63.038276 
L 76.213075 85.764094 
L 69.070675 85.764094 
z
" clip-path="url(#pdcebb3fe28)" style="fill: #e1812c"/>
   </g>
   <g id="patch_46">
    <path d="M 77.998675 63.038276 
L 85.141075 63.038276 
L 85.141075 95.50373 
L 77.998675 95.50373 
z
" clip-path="url(#pdcebb3fe28)" style="fill: #e1812c"/>
   </g>
   <g id="patch_47">
    <path d="M 86.926675 63.038276 
L 94.069075 63.038276 
L 94.069075 72.777912 
L 86.926675 72.777912 
z
" clip-path="url(#pdcebb3fe28)" style="fill: #e1812c"/>
   </g>
   <g id="patch_48">
    <path d="M 95.854675 63.038276 
L 102.997075 63.038276 
L 102.997075 105.243366 
L 95.854675 105.243366 
z
" clip-path="url(#pdcebb3fe28)" style="fill: #e1812c"/>
   </g>
   <g id="patch_49">
    <path d="M 104.782675 63.038276 
L 111.925075 63.038276 
L 111.925075 63.038276 
L 104.782675 63.038276 
z
" clip-path="url(#pdcebb3fe28)" style="fill: #e1812c"/>
   </g>
   <g id="patch_50">
    <path d="M 113.710675 63.038276 
L 120.853075 63.038276 
L 120.853075 101.996821 
L 113.710675 101.996821 
z
" clip-path="url(#pdcebb3fe28)" style="fill: #e1812c"/>
   </g>
   <g id="patch_51">
    <path d="M 122.638675 63.038276 
L 129.781075 63.038276 
L 129.781075 105.243366 
L 122.638675 105.243366 
z
" clip-path="url(#pdcebb3fe28)" style="fill: #e1812c"/>
   </g>
   <g id="patch_52">
    <path d="M 131.566675 63.038276 
L 138.709075 63.038276 
L 138.709075 127.969185 
L 131.566675 127.969185 
z
" clip-path="url(#pdcebb3fe28)" style="fill: #e1812c"/>
   </g>
   <g id="patch_53">
    <path d="M 140.494675 63.038276 
L 147.637075 63.038276 
L 147.637075 63.038276 
L 140.494675 63.038276 
z
" clip-path="url(#pdcebb3fe28)" style="fill: #e1812c"/>
   </g>
   <g id="patch_54">
    <path d="M 149.422675 63.038276 
L 156.565075 63.038276 
L 156.565075 92.257185 
L 149.422675 92.257185 
z
" clip-path="url(#pdcebb3fe28)" style="fill: #e1812c"/>
   </g>
   <g id="patch_55">
    <path d="M 158.350675 63.038276 
L 165.493075 63.038276 
L 165.493075 118.229548 
L 158.350675 118.229548 
z
" clip-path="url(#pdcebb3fe28)" style="fill: #e1812c"/>
   </g>
   <g id="patch_56">
    <path d="M 167.278675 63.038276 
L 174.421075 63.038276 
L 174.421075 98.750276 
L 167.278675 98.750276 
z
" clip-path="url(#pdcebb3fe28)" style="fill: #e1812c"/>
   </g>
   <g id="patch_57">
    <path d="M 176.206675 63.038276 
L 183.349075 63.038276 
L 183.349075 118.229548 
L 176.206675 118.229548 
z
" clip-path="url(#pdcebb3fe28)" style="fill: #e1812c"/>
   </g>
   <g id="patch_58">
    <path d="M 185.134675 63.038276 
L 192.277075 63.038276 
L 192.277075 85.764094 
L 185.134675 85.764094 
z
" clip-path="url(#pdcebb3fe28)" style="fill: #e1812c"/>
   </g>
   <g id="patch_59">
    <path d="M 194.062675 63.038276 
L 201.205075 63.038276 
L 201.205075 95.50373 
L 194.062675 95.50373 
z
" clip-path="url(#pdcebb3fe28)" style="fill: #e1812c"/>
   </g>
   <g id="patch_60">
    <path d="M 202.990675 63.038276 
L 210.133075 63.038276 
L 210.133075 69.531366 
L 202.990675 69.531366 
z
" clip-path="url(#pdcebb3fe28)" style="fill: #e1812c"/>
   </g>
   <g id="patch_61">
    <path d="M 211.918675 63.038276 
L 219.061075 63.038276 
L 219.061075 111.736457 
L 211.918675 111.736457 
z
" clip-path="url(#pdcebb3fe28)" style="fill: #e1812c"/>
   </g>
   <g id="patch_62">
    <path d="M 220.846675 63.038276 
L 227.989075 63.038276 
L 227.989075 72.777912 
L 220.846675 72.777912 
z
" clip-path="url(#pdcebb3fe28)" style="fill: #e1812c"/>
   </g>
   <g id="patch_63">
    <path d="M 229.774675 63.038276 
L 236.917075 63.038276 
L 236.917075 76.024457 
L 229.774675 76.024457 
z
" clip-path="url(#pdcebb3fe28)" style="fill: #e1812c"/>
   </g>
   <g id="patch_64">
    <path d="M 238.702675 63.038276 
L 245.845075 63.038276 
L 245.845075 108.489912 
L 238.702675 108.489912 
z
" clip-path="url(#pdcebb3fe28)" style="fill: #e1812c"/>
   </g>
   <g id="patch_65">
    <path d="M 247.630675 63.038276 
L 254.773075 63.038276 
L 254.773075 118.229548 
L 247.630675 118.229548 
z
" clip-path="url(#pdcebb3fe28)" style="fill: #e1812c"/>
   </g>
   <g id="patch_66">
    <path d="M 256.558675 63.038276 
L 263.701075 63.038276 
L 263.701075 85.764094 
L 256.558675 85.764094 
z
" clip-path="url(#pdcebb3fe28)" style="fill: #e1812c"/>
   </g>
   <g id="patch_67">
    <path d="M 265.486675 63.038276 
L 272.629075 63.038276 
L 272.629075 89.010639 
L 265.486675 89.010639 
z
" clip-path="url(#pdcebb3fe28)" style="fill: #e1812c"/>
   </g>
   <g id="patch_68">
    <path d="M 274.414675 63.038276 
L 281.557075 63.038276 
L 281.557075 82.517548 
L 274.414675 82.517548 
z
" clip-path="url(#pdcebb3fe28)" style="fill: #e1812c"/>
   </g>
   <g id="patch_69">
    <path d="M 283.342675 63.038276 
L 290.485075 63.038276 
L 290.485075 92.257185 
L 283.342675 92.257185 
z
" clip-path="url(#pdcebb3fe28)" style="fill: #e1812c"/>
   </g>
   <g id="patch_70">
    <path d="M 292.270675 63.038276 
L 299.413075 63.038276 
L 299.413075 89.010639 
L 292.270675 89.010639 
z
" clip-path="url(#pdcebb3fe28)" style="fill: #e1812c"/>
   </g>
   <g id="patch_71">
    <path d="M 301.198675 63.038276 
L 308.341075 63.038276 
L 308.341075 72.777912 
L 301.198675 72.777912 
z
" clip-path="url(#pdcebb3fe28)" style="fill: #e1812c"/>
   </g>
   <g id="patch_72">
    <path d="M 310.126675 63.038276 
L 317.269075 63.038276 
L 317.269075 134.462276 
L 310.126675 134.462276 
z
" clip-path="url(#pdcebb3fe28)" style="fill: #e1812c"/>
   </g>
   <g id="patch_73">
    <path d="M 319.054675 63.038276 
L 326.197075 63.038276 
L 326.197075 124.722639 
L 319.054675 124.722639 
z
" clip-path="url(#pdcebb3fe28)" style="fill: #e1812c"/>
   </g>
   <g id="patch_74">
    <path d="M 327.982675 63.038276 
L 335.125075 63.038276 
L 335.125075 69.531366 
L 327.982675 69.531366 
z
" clip-path="url(#pdcebb3fe28)" style="fill: #e1812c"/>
   </g>
   <g id="patch_75">
    <path d="M 336.910675 63.038276 
L 344.053075 63.038276 
L 344.053075 95.50373 
L 336.910675 95.50373 
z
" clip-path="url(#pdcebb3fe28)" style="fill: #e1812c"/>
   </g>
   <g id="patch_76">
    <path d="M 345.838675 63.038276 
L 352.981075 63.038276 
L 352.981075 118.229548 
L 345.838675 118.229548 
z
" clip-path="url(#pdcebb3fe28)" style="fill: #e1812c"/>
   </g>
   <g id="patch_77">
    <path d="M 354.766675 63.038276 
L 361.909075 63.038276 
L 361.909075 131.21573 
L 354.766675 131.21573 
z
" clip-path="url(#pdcebb3fe28)" style="fill: #e1812c"/>
   </g>
   <g id="patch_78">
    <path d="M 363.694675 63.038276 
L 370.837075 63.038276 
L 370.837075 105.243366 
L 363.694675 105.243366 
z
" clip-path="url(#pdcebb3fe28)" style="fill: #e1812c"/>
   </g>
   <g id="patch_79">
    <path d="M 372.622675 63.038276 
L 379.765075 63.038276 
L 379.765075 111.736457 
L 372.622675 111.736457 
z
" clip-path="url(#pdcebb3fe28)" style="fill: #e1812c"/>
   </g>
   <g id="patch_80">
    <path d="M 381.550675 63.038276 
L 388.693075 63.038276 
L 388.693075 118.229548 
L 381.550675 118.229548 
z
" clip-path="url(#pdcebb3fe28)" style="fill: #e1812c"/>
   </g>
   <g id="patch_81">
    <path d="M 390.478675 63.038276 
L 397.621075 63.038276 
L 397.621075 85.764094 
L 390.478675 85.764094 
z
" clip-path="url(#pdcebb3fe28)" style="fill: #e1812c"/>
   </g>
   <g id="patch_82">
    <path d="M 399.406675 63.038276 
L 406.549075 63.038276 
L 406.549075 108.489912 
L 399.406675 108.489912 
z
" clip-path="url(#pdcebb3fe28)" style="fill: #e1812c"/>
   </g>
   <g id="matplotlib.axis_1"/>
   <g id="matplotlib.axis_2">
    <g id="ytick_1">
     <g id="line2d_1">
      <defs>
       <path id="m872dfedd03" d="M 0 0 
L -3.5 0 
" style="stroke: #000000; stroke-width: 0.8"/>
      </defs>
      <g>
       <use xlink:href="#m872dfedd03" x="50.321875" y="37.065912" style="stroke: #000000; stroke-width: 0.8"/>
      </g>
     </g>
     <g id="text_1">
      <!--    8 -->
      <g transform="translate(7.2 42.804584) scale(0.15 -0.15)">
       <defs>
        <path id="DejaVuSansMono-20" transform="scale(0.015625)"/>
        <path id="DejaVuSansMono-38" d="M 1925 2216 
Q 1503 2216 1273 1980 
Q 1044 1744 1044 1313 
Q 1044 881 1276 642 
Q 1509 403 1925 403 
Q 2350 403 2579 639 
Q 2809 875 2809 1313 
Q 2809 1741 2576 1978 
Q 2344 2216 1925 2216 
z
M 1375 2478 
Q 972 2581 745 2862 
Q 519 3144 519 3541 
Q 519 4097 897 4423 
Q 1275 4750 1925 4750 
Q 2578 4750 2956 4423 
Q 3334 4097 3334 3541 
Q 3334 3144 3107 2862 
Q 2881 2581 2478 2478 
Q 2947 2375 3195 2062 
Q 3444 1750 3444 1253 
Q 3444 622 3041 265 
Q 2638 -91 1925 -91 
Q 1213 -91 811 264 
Q 409 619 409 1247 
Q 409 1747 657 2061 
Q 906 2375 1375 2478 
z
M 1147 3481 
Q 1147 3106 1347 2909 
Q 1547 2713 1925 2713 
Q 2306 2713 2506 2909 
Q 2706 3106 2706 3481 
Q 2706 3863 2507 4063 
Q 2309 4263 1925 4263 
Q 1547 4263 1347 4061 
Q 1147 3859 1147 3481 
z
" transform="scale(0.015625)"/>
       </defs>
       <use xlink:href="#DejaVuSansMono-20"/>
       <use xlink:href="#DejaVuSansMono-20" x="60.205078"/>
       <use xlink:href="#DejaVuSansMono-20" x="120.410156"/>
       <use xlink:href="#DejaVuSansMono-38" x="180.615234"/>
      </g>
     </g>
    </g>
    <g id="ytick_2">
     <g id="line2d_2">
      <g>
       <use xlink:href="#m872dfedd03" x="50.321875" y="63.038276" style="stroke: #000000; stroke-width: 0.8"/>
      </g>
     </g>
     <g id="text_2">
      <!--    0 -->
      <g transform="translate(7.2 68.776947) scale(0.15 -0.15)">
       <defs>
        <path id="DejaVuSansMono-30" d="M 1509 2344 
Q 1509 2516 1629 2641 
Q 1750 2766 1919 2766 
Q 2094 2766 2219 2641 
Q 2344 2516 2344 2344 
Q 2344 2169 2220 2047 
Q 2097 1925 1919 1925 
Q 1744 1925 1626 2044 
Q 1509 2163 1509 2344 
z
M 1925 4250 
Q 1484 4250 1267 3775 
Q 1050 3300 1050 2328 
Q 1050 1359 1267 884 
Q 1484 409 1925 409 
Q 2369 409 2586 884 
Q 2803 1359 2803 2328 
Q 2803 3300 2586 3775 
Q 2369 4250 1925 4250 
z
M 1925 4750 
Q 2672 4750 3055 4137 
Q 3438 3525 3438 2328 
Q 3438 1134 3055 521 
Q 2672 -91 1925 -91 
Q 1178 -91 797 521 
Q 416 1134 416 2328 
Q 416 3525 797 4137 
Q 1178 4750 1925 4750 
z
" transform="scale(0.015625)"/>
       </defs>
       <use xlink:href="#DejaVuSansMono-20"/>
       <use xlink:href="#DejaVuSansMono-20" x="60.205078"/>
       <use xlink:href="#DejaVuSansMono-20" x="120.410156"/>
       <use xlink:href="#DejaVuSansMono-30" x="180.615234"/>
      </g>
     </g>
    </g>
    <g id="ytick_3">
     <g id="line2d_3">
      <g>
       <use xlink:href="#m872dfedd03" x="50.321875" y="134.462276" style="stroke: #000000; stroke-width: 0.8"/>
      </g>
     </g>
     <g id="text_3">
      <!--  -22 -->
      <g transform="translate(7.2 140.200947) scale(0.15 -0.15)">
       <defs>
        <path id="DejaVuSansMono-2d" d="M 1113 2009 
L 2741 2009 
L 2741 1497 
L 1113 1497 
L 1113 2009 
z
" transform="scale(0.015625)"/>
        <path id="DejaVuSansMono-32" d="M 1166 531 
L 3309 531 
L 3309 0 
L 475 0 
L 475 531 
Q 1059 1147 1496 1619 
Q 1934 2091 2100 2284 
Q 2413 2666 2522 2902 
Q 2631 3138 2631 3384 
Q 2631 3775 2401 3997 
Q 2172 4219 1772 4219 
Q 1488 4219 1175 4116 
Q 863 4013 513 3803 
L 513 4441 
Q 834 4594 1145 4672 
Q 1456 4750 1759 4750 
Q 2444 4750 2861 4386 
Q 3278 4022 3278 3431 
Q 3278 3131 3139 2831 
Q 3000 2531 2688 2169 
Q 2513 1966 2180 1606 
Q 1847 1247 1166 531 
z
" transform="scale(0.015625)"/>
       </defs>
       <use xlink:href="#DejaVuSansMono-20"/>
       <use xlink:href="#DejaVuSansMono-2d" x="60.205078"/>
       <use xlink:href="#DejaVuSansMono-32" x="120.410156"/>
       <use xlink:href="#DejaVuSansMono-32" x="180.615234"/>
      </g>
     </g>
    </g>
   </g>
   <g id="line2d_4">
    <path clip-path="url(#pdcebb3fe28)" style="fill: none; stroke: #424242; stroke-width: 2.7; stroke-linecap: square"/>
   </g>
   <g id="line2d_5">
    <path clip-path="url(#pdcebb3fe28)" style="fill: none; stroke: #424242; stroke-width: 2.7; stroke-linecap: square"/>
   </g>
   <g id="line2d_6">
    <path clip-path="url(#pdcebb3fe28)" style="fill: none; stroke: #424242; stroke-width: 2.7; stroke-linecap: square"/>
   </g>
   <g id="line2d_7">
    <path clip-path="url(#pdcebb3fe28)" style="fill: none; stroke: #424242; stroke-width: 2.7; stroke-linecap: square"/>
   </g>
   <g id="line2d_8">
    <path clip-path="url(#pdcebb3fe28)" style="fill: none; stroke: #424242; stroke-width: 2.7; stroke-linecap: square"/>
   </g>
   <g id="line2d_9">
    <path clip-path="url(#pdcebb3fe28)" style="fill: none; stroke: #424242; stroke-width: 2.7; stroke-linecap: square"/>
   </g>
   <g id="line2d_10">
    <path clip-path="url(#pdcebb3fe28)" style="fill: none; stroke: #424242; stroke-width: 2.7; stroke-linecap: square"/>
   </g>
   <g id="line2d_11">
    <path clip-path="url(#pdcebb3fe28)" style="fill: none; stroke: #424242; stroke-width: 2.7; stroke-linecap: square"/>
   </g>
   <g id="line2d_12">
    <path clip-path="url(#pdcebb3fe28)" style="fill: none; stroke: #424242; stroke-width: 2.7; stroke-linecap: square"/>
   </g>
   <g id="line2d_13">
    <path clip-path="url(#pdcebb3fe28)" style="fill: none; stroke: #424242; stroke-width: 2.7; stroke-linecap: square"/>
   </g>
   <g id="line2d_14">
    <path clip-path="url(#pdcebb3fe28)" style="fill: none; stroke: #424242; stroke-width: 2.7; stroke-linecap: square"/>
   </g>
   <g id="line2d_15">
    <path clip-path="url(#pdcebb3fe28)" style="fill: none; stroke: #424242; stroke-width: 2.7; stroke-linecap: square"/>
   </g>
   <g id="line2d_16">
    <path clip-path="url(#pdcebb3fe28)" style="fill: none; stroke: #424242; stroke-width: 2.7; stroke-linecap: square"/>
   </g>
   <g id="line2d_17">
    <path clip-path="url(#pdcebb3fe28)" style="fill: none; stroke: #424242; stroke-width: 2.7; stroke-linecap: square"/>
   </g>
   <g id="line2d_18">
    <path clip-path="url(#pdcebb3fe28)" style="fill: none; stroke: #424242; stroke-width: 2.7; stroke-linecap: square"/>
   </g>
   <g id="line2d_19">
    <path clip-path="url(#pdcebb3fe28)" style="fill: none; stroke: #424242; stroke-width: 2.7; stroke-linecap: square"/>
   </g>
   <g id="line2d_20">
    <path clip-path="url(#pdcebb3fe28)" style="fill: none; stroke: #424242; stroke-width: 2.7; stroke-linecap: square"/>
   </g>
   <g id="line2d_21">
    <path clip-path="url(#pdcebb3fe28)" style="fill: none; stroke: #424242; stroke-width: 2.7; stroke-linecap: square"/>
   </g>
   <g id="line2d_22">
    <path clip-path="url(#pdcebb3fe28)" style="fill: none; stroke: #424242; stroke-width: 2.7; stroke-linecap: square"/>
   </g>
   <g id="line2d_23">
    <path clip-path="url(#pdcebb3fe28)" style="fill: none; stroke: #424242; stroke-width: 2.7; stroke-linecap: square"/>
   </g>
   <g id="line2d_24">
    <path clip-path="url(#pdcebb3fe28)" style="fill: none; stroke: #424242; stroke-width: 2.7; stroke-linecap: square"/>
   </g>
   <g id="line2d_25">
    <path clip-path="url(#pdcebb3fe28)" style="fill: none; stroke: #424242; stroke-width: 2.7; stroke-linecap: square"/>
   </g>
   <g id="line2d_26">
    <path clip-path="url(#pdcebb3fe28)" style="fill: none; stroke: #424242; stroke-width: 2.7; stroke-linecap: square"/>
   </g>
   <g id="line2d_27">
    <path clip-path="url(#pdcebb3fe28)" style="fill: none; stroke: #424242; stroke-width: 2.7; stroke-linecap: square"/>
   </g>
   <g id="line2d_28">
    <path clip-path="url(#pdcebb3fe28)" style="fill: none; stroke: #424242; stroke-width: 2.7; stroke-linecap: square"/>
   </g>
   <g id="line2d_29">
    <path clip-path="url(#pdcebb3fe28)" style="fill: none; stroke: #424242; stroke-width: 2.7; stroke-linecap: square"/>
   </g>
   <g id="line2d_30">
    <path clip-path="url(#pdcebb3fe28)" style="fill: none; stroke: #424242; stroke-width: 2.7; stroke-linecap: square"/>
   </g>
   <g id="line2d_31">
    <path clip-path="url(#pdcebb3fe28)" style="fill: none; stroke: #424242; stroke-width: 2.7; stroke-linecap: square"/>
   </g>
   <g id="line2d_32">
    <path clip-path="url(#pdcebb3fe28)" style="fill: none; stroke: #424242; stroke-width: 2.7; stroke-linecap: square"/>
   </g>
   <g id="line2d_33">
    <path clip-path="url(#pdcebb3fe28)" style="fill: none; stroke: #424242; stroke-width: 2.7; stroke-linecap: square"/>
   </g>
   <g id="line2d_34">
    <path clip-path="url(#pdcebb3fe28)" style="fill: none; stroke: #424242; stroke-width: 2.7; stroke-linecap: square"/>
   </g>
   <g id="line2d_35">
    <path clip-path="url(#pdcebb3fe28)" style="fill: none; stroke: #424242; stroke-width: 2.7; stroke-linecap: square"/>
   </g>
   <g id="line2d_36">
    <path clip-path="url(#pdcebb3fe28)" style="fill: none; stroke: #424242; stroke-width: 2.7; stroke-linecap: square"/>
   </g>
   <g id="line2d_37">
    <path clip-path="url(#pdcebb3fe28)" style="fill: none; stroke: #424242; stroke-width: 2.7; stroke-linecap: square"/>
   </g>
   <g id="line2d_38">
    <path clip-path="url(#pdcebb3fe28)" style="fill: none; stroke: #424242; stroke-width: 2.7; stroke-linecap: square"/>
   </g>
   <g id="line2d_39">
    <path clip-path="url(#pdcebb3fe28)" style="fill: none; stroke: #424242; stroke-width: 2.7; stroke-linecap: square"/>
   </g>
   <g id="line2d_40">
    <path clip-path="url(#pdcebb3fe28)" style="fill: none; stroke: #424242; stroke-width: 2.7; stroke-linecap: square"/>
   </g>
   <g id="line2d_41">
    <path clip-path="url(#pdcebb3fe28)" style="fill: none; stroke: #424242; stroke-width: 2.7; stroke-linecap: square"/>
   </g>
   <g id="line2d_42">
    <path clip-path="url(#pdcebb3fe28)" style="fill: none; stroke: #424242; stroke-width: 2.7; stroke-linecap: square"/>
   </g>
   <g id="line2d_43">
    <path clip-path="url(#pdcebb3fe28)" style="fill: none; stroke: #424242; stroke-width: 2.7; stroke-linecap: square"/>
   </g>
   <g id="line2d_44">
    <path clip-path="url(#pdcebb3fe28)" style="fill: none; stroke: #424242; stroke-width: 2.7; stroke-linecap: square"/>
   </g>
   <g id="line2d_45">
    <path clip-path="url(#pdcebb3fe28)" style="fill: none; stroke: #424242; stroke-width: 2.7; stroke-linecap: square"/>
   </g>
   <g id="line2d_46">
    <path clip-path="url(#pdcebb3fe28)" style="fill: none; stroke: #424242; stroke-width: 2.7; stroke-linecap: square"/>
   </g>
   <g id="line2d_47">
    <path clip-path="url(#pdcebb3fe28)" style="fill: none; stroke: #424242; stroke-width: 2.7; stroke-linecap: square"/>
   </g>
   <g id="line2d_48">
    <path clip-path="url(#pdcebb3fe28)" style="fill: none; stroke: #424242; stroke-width: 2.7; stroke-linecap: square"/>
   </g>
   <g id="line2d_49">
    <path clip-path="url(#pdcebb3fe28)" style="fill: none; stroke: #424242; stroke-width: 2.7; stroke-linecap: square"/>
   </g>
   <g id="line2d_50">
    <path clip-path="url(#pdcebb3fe28)" style="fill: none; stroke: #424242; stroke-width: 2.7; stroke-linecap: square"/>
   </g>
   <g id="line2d_51">
    <path clip-path="url(#pdcebb3fe28)" style="fill: none; stroke: #424242; stroke-width: 2.7; stroke-linecap: square"/>
   </g>
   <g id="line2d_52">
    <path clip-path="url(#pdcebb3fe28)" style="fill: none; stroke: #424242; stroke-width: 2.7; stroke-linecap: square"/>
   </g>
   <g id="line2d_53">
    <path clip-path="url(#pdcebb3fe28)" style="fill: none; stroke: #424242; stroke-width: 2.7; stroke-linecap: square"/>
   </g>
   <g id="line2d_54">
    <path clip-path="url(#pdcebb3fe28)" style="fill: none; stroke: #424242; stroke-width: 2.7; stroke-linecap: square"/>
   </g>
   <g id="line2d_55">
    <path clip-path="url(#pdcebb3fe28)" style="fill: none; stroke: #424242; stroke-width: 2.7; stroke-linecap: square"/>
   </g>
   <g id="line2d_56">
    <path clip-path="url(#pdcebb3fe28)" style="fill: none; stroke: #424242; stroke-width: 2.7; stroke-linecap: square"/>
   </g>
   <g id="line2d_57">
    <path clip-path="url(#pdcebb3fe28)" style="fill: none; stroke: #424242; stroke-width: 2.7; stroke-linecap: square"/>
   </g>
   <g id="line2d_58">
    <path clip-path="url(#pdcebb3fe28)" style="fill: none; stroke: #424242; stroke-width: 2.7; stroke-linecap: square"/>
   </g>
   <g id="line2d_59">
    <path clip-path="url(#pdcebb3fe28)" style="fill: none; stroke: #424242; stroke-width: 2.7; stroke-linecap: square"/>
   </g>
   <g id="line2d_60">
    <path clip-path="url(#pdcebb3fe28)" style="fill: none; stroke: #424242; stroke-width: 2.7; stroke-linecap: square"/>
   </g>
   <g id="line2d_61">
    <path clip-path="url(#pdcebb3fe28)" style="fill: none; stroke: #424242; stroke-width: 2.7; stroke-linecap: square"/>
   </g>
   <g id="line2d_62">
    <path clip-path="url(#pdcebb3fe28)" style="fill: none; stroke: #424242; stroke-width: 2.7; stroke-linecap: square"/>
   </g>
   <g id="line2d_63">
    <path clip-path="url(#pdcebb3fe28)" style="fill: none; stroke: #424242; stroke-width: 2.7; stroke-linecap: square"/>
   </g>
   <g id="line2d_64">
    <path clip-path="url(#pdcebb3fe28)" style="fill: none; stroke: #424242; stroke-width: 2.7; stroke-linecap: square"/>
   </g>
   <g id="line2d_65">
    <path clip-path="url(#pdcebb3fe28)" style="fill: none; stroke: #424242; stroke-width: 2.7; stroke-linecap: square"/>
   </g>
   <g id="line2d_66">
    <path clip-path="url(#pdcebb3fe28)" style="fill: none; stroke: #424242; stroke-width: 2.7; stroke-linecap: square"/>
   </g>
   <g id="line2d_67">
    <path clip-path="url(#pdcebb3fe28)" style="fill: none; stroke: #424242; stroke-width: 2.7; stroke-linecap: square"/>
   </g>
   <g id="line2d_68">
    <path clip-path="url(#pdcebb3fe28)" style="fill: none; stroke: #424242; stroke-width: 2.7; stroke-linecap: square"/>
   </g>
   <g id="line2d_69">
    <path clip-path="url(#pdcebb3fe28)" style="fill: none; stroke: #424242; stroke-width: 2.7; stroke-linecap: square"/>
   </g>
   <g id="line2d_70">
    <path clip-path="url(#pdcebb3fe28)" style="fill: none; stroke: #424242; stroke-width: 2.7; stroke-linecap: square"/>
   </g>
   <g id="line2d_71">
    <path clip-path="url(#pdcebb3fe28)" style="fill: none; stroke: #424242; stroke-width: 2.7; stroke-linecap: square"/>
   </g>
   <g id="line2d_72">
    <path clip-path="url(#pdcebb3fe28)" style="fill: none; stroke: #424242; stroke-width: 2.7; stroke-linecap: square"/>
   </g>
   <g id="line2d_73">
    <path clip-path="url(#pdcebb3fe28)" style="fill: none; stroke: #424242; stroke-width: 2.7; stroke-linecap: square"/>
   </g>
   <g id="line2d_74">
    <path clip-path="url(#pdcebb3fe28)" style="fill: none; stroke: #424242; stroke-width: 2.7; stroke-linecap: square"/>
   </g>
   <g id="line2d_75">
    <path clip-path="url(#pdcebb3fe28)" style="fill: none; stroke: #424242; stroke-width: 2.7; stroke-linecap: square"/>
   </g>
   <g id="line2d_76">
    <path clip-path="url(#pdcebb3fe28)" style="fill: none; stroke: #424242; stroke-width: 2.7; stroke-linecap: square"/>
   </g>
   <g id="line2d_77">
    <path clip-path="url(#pdcebb3fe28)" style="fill: none; stroke: #424242; stroke-width: 2.7; stroke-linecap: square"/>
   </g>
   <g id="line2d_78">
    <path clip-path="url(#pdcebb3fe28)" style="fill: none; stroke: #424242; stroke-width: 2.7; stroke-linecap: square"/>
   </g>
   <g id="line2d_79">
    <path clip-path="url(#pdcebb3fe28)" style="fill: none; stroke: #424242; stroke-width: 2.7; stroke-linecap: square"/>
   </g>
   <g id="line2d_80">
    <path clip-path="url(#pdcebb3fe28)" style="fill: none; stroke: #424242; stroke-width: 2.7; stroke-linecap: square"/>
   </g>
   <g id="line2d_81">
    <path clip-path="url(#pdcebb3fe28)" style="fill: none; stroke: #424242; stroke-width: 2.7; stroke-linecap: square"/>
   </g>
   <g id="line2d_82">
    <path clip-path="url(#pdcebb3fe28)" style="fill: none; stroke: #424242; stroke-width: 2.7; stroke-linecap: square"/>
   </g>
   <g id="line2d_83">
    <path clip-path="url(#pdcebb3fe28)" style="fill: none; stroke: #424242; stroke-width: 2.7; stroke-linecap: square"/>
   </g>
   <g id="patch_83">
    <path d="M 50.321875 139.332094 
L 50.321875 32.196094 
" style="fill: none; stroke: #000000; stroke-width: 0.8; stroke-linejoin: miter; stroke-linecap: square"/>
   </g>
   <g id="patch_84">
    <path d="M 407.441875 139.332094 
L 407.441875 32.196094 
" style="fill: none; stroke: #000000; stroke-width: 0.8; stroke-linejoin: miter; stroke-linecap: square"/>
   </g>
   <g id="patch_85">
    <path d="M 50.321875 139.332094 
L 407.441875 139.332094 
" style="fill: none; stroke: #000000; stroke-width: 0.8; stroke-linejoin: miter; stroke-linecap: square"/>
   </g>
   <g id="patch_86">
    <path d="M 50.321875 32.196094 
L 407.441875 32.196094 
" style="fill: none; stroke: #000000; stroke-width: 0.8; stroke-linejoin: miter; stroke-linecap: square"/>
   </g>
   <g id="text_4">
    <!-- libtiff -->
    <g transform="translate(196.827188 26.196094) scale(0.25 -0.25)">
     <defs>
      <path id="DejaVuSans-6c" d="M 603 4863 
L 1178 4863 
L 1178 0 
L 603 0 
L 603 4863 
z
" transform="scale(0.015625)"/>
      <path id="DejaVuSans-69" d="M 603 3500 
L 1178 3500 
L 1178 0 
L 603 0 
L 603 3500 
z
M 603 4863 
L 1178 4863 
L 1178 4134 
L 603 4134 
L 603 4863 
z
" transform="scale(0.015625)"/>
      <path id="DejaVuSans-62" d="M 3116 1747 
Q 3116 2381 2855 2742 
Q 2594 3103 2138 3103 
Q 1681 3103 1420 2742 
Q 1159 2381 1159 1747 
Q 1159 1113 1420 752 
Q 1681 391 2138 391 
Q 2594 391 2855 752 
Q 3116 1113 3116 1747 
z
M 1159 2969 
Q 1341 3281 1617 3432 
Q 1894 3584 2278 3584 
Q 2916 3584 3314 3078 
Q 3713 2572 3713 1747 
Q 3713 922 3314 415 
Q 2916 -91 2278 -91 
Q 1894 -91 1617 61 
Q 1341 213 1159 525 
L 1159 0 
L 581 0 
L 581 4863 
L 1159 4863 
L 1159 2969 
z
" transform="scale(0.015625)"/>
      <path id="DejaVuSans-74" d="M 1172 4494 
L 1172 3500 
L 2356 3500 
L 2356 3053 
L 1172 3053 
L 1172 1153 
Q 1172 725 1289 603 
Q 1406 481 1766 481 
L 2356 481 
L 2356 0 
L 1766 0 
Q 1100 0 847 248 
Q 594 497 594 1153 
L 594 3053 
L 172 3053 
L 172 3500 
L 594 3500 
L 594 4494 
L 1172 4494 
z
" transform="scale(0.015625)"/>
      <path id="DejaVuSans-66" d="M 2375 4863 
L 2375 4384 
L 1825 4384 
Q 1516 4384 1395 4259 
Q 1275 4134 1275 3809 
L 1275 3500 
L 2222 3500 
L 2222 3053 
L 1275 3053 
L 1275 0 
L 697 0 
L 697 3053 
L 147 3053 
L 147 3500 
L 697 3500 
L 697 3744 
Q 697 4328 969 4595 
Q 1241 4863 1831 4863 
L 2375 4863 
z
" transform="scale(0.015625)"/>
     </defs>
     <use xlink:href="#DejaVuSans-6c"/>
     <use xlink:href="#DejaVuSans-69" x="27.783203"/>
     <use xlink:href="#DejaVuSans-62" x="55.566406"/>
     <use xlink:href="#DejaVuSans-74" x="119.042969"/>
     <use xlink:href="#DejaVuSans-69" x="158.251953"/>
     <use xlink:href="#DejaVuSans-66" x="186.035156"/>
     <use xlink:href="#DejaVuSans-66" x="221.240234"/>
    </g>
   </g>
  </g>
 </g>
 <defs>
  <clipPath id="pdcebb3fe28">
   <rect x="50.321875" y="32.196094" width="357.12" height="107.136"/>
  </clipPath>
 </defs>
</svg>
