<?xml version="1.0" encoding="utf-8" standalone="no"?>
<!DOCTYPE svg PUBLIC "-//W3C//DTD SVG 1.1//EN"
  "http://www.w3.org/Graphics/SVG/1.1/DTD/svg11.dtd">
<svg xmlns:xlink="http://www.w3.org/1999/xlink" width="440.47375pt" height="438.513437pt" viewBox="0 0 440.47375 438.513437" xmlns="http://www.w3.org/2000/svg" version="1.1">
 <metadata>
  <rdf:RDF xmlns:dc="http://purl.org/dc/elements/1.1/" xmlns:cc="http://creativecommons.org/ns#" xmlns:rdf="http://www.w3.org/1999/02/22-rdf-syntax-ns#">
   <cc:Work>
    <dc:type rdf:resource="http://purl.org/dc/dcmitype/StillImage"/>
    <dc:date>2022-02-23T14:19:45.046880</dc:date>
    <dc:format>image/svg+xml</dc:format>
    <dc:creator>
     <cc:Agent>
      <dc:title>Matplotlib v3.5.1, https://matplotlib.org/</dc:title>
     </cc:Agent>
    </dc:creator>
   </cc:Work>
  </rdf:RDF>
 </metadata>
 <defs>
  <style type="text/css">*{stroke-linejoin: round; stroke-linecap: butt}</style>
 </defs>
 <g id="figure_1">
  <g id="patch_1">
   <path d="M 0 438.513437 
L 440.47375 438.513437 
L 440.47375 0 
L 0 0 
z
" style="fill: #ffffff"/>
  </g>
  <g id="axes_1">
   <g id="patch_2">
    <path d="M 56.64375 386.44 
L 368.708607 386.44 
L 368.708607 72.212571 
L 56.64375 72.212571 
z
" style="fill: #ffffff"/>
   </g>
   <g id="PathCollection_1">
    <defs>
     <path id="m4228b627c1" d="M 0 4.330127 
C 1.148363 4.330127 2.249847 3.873878 3.061862 3.061862 
C 3.873878 2.249847 4.330127 1.148363 4.330127 0 
C 4.330127 -1.148363 3.873878 -2.249847 3.061862 -3.061862 
C 2.249847 -3.873878 1.148363 -4.330127 0 -4.330127 
C -1.148363 -4.330127 -2.249847 -3.873878 -3.061862 -3.061862 
C -3.873878 -2.249847 -4.330127 -1.148363 -4.330127 0 
C -4.330127 1.148363 -3.873878 2.249847 -3.061862 3.061862 
C -2.249847 3.873878 -1.148363 4.330127 0 4.330127 
z
" style="stroke: #ffffff; stroke-opacity: 0.5; stroke-width: 0.69282"/>
    </defs>
    <g clip-path="url(#pf21ba24b55)">
     <use xlink:href="#m4228b627c1" x="74.205842" y="143.627896" style="fill: #1f77b4; fill-opacity: 0.5; stroke: #ffffff; stroke-opacity: 0.5; stroke-width: 0.69282"/>
     <use xlink:href="#m4228b627c1" x="185.657576" y="105.539723" style="fill: #1f77b4; fill-opacity: 0.5; stroke: #ffffff; stroke-opacity: 0.5; stroke-width: 0.69282"/>
     <use xlink:href="#m4228b627c1" x="75.894504" y="143.627896" style="fill: #1f77b4; fill-opacity: 0.5; stroke: #ffffff; stroke-opacity: 0.5; stroke-width: 0.69282"/>
     <use xlink:href="#m4228b627c1" x="70.828516" y="248.370372" style="fill: #1f77b4; fill-opacity: 0.5; stroke: #ffffff; stroke-opacity: 0.5; stroke-width: 0.69282"/>
     <use xlink:href="#m4228b627c1" x="337.637214" y="86.495636" style="fill: #1f77b4; fill-opacity: 0.5; stroke: #ffffff; stroke-opacity: 0.5; stroke-width: 0.69282"/>
     <use xlink:href="#m4228b627c1" x="70.828516" y="295.980589" style="fill: #1f77b4; fill-opacity: 0.5; stroke: #ffffff; stroke-opacity: 0.5; stroke-width: 0.69282"/>
     <use xlink:href="#m4228b627c1" x="70.828516" y="191.238113" style="fill: #1f77b4; fill-opacity: 0.5; stroke: #ffffff; stroke-opacity: 0.5; stroke-width: 0.69282"/>
     <use xlink:href="#m4228b627c1" x="70.828516" y="200.760156" style="fill: #1f77b4; fill-opacity: 0.5; stroke: #ffffff; stroke-opacity: 0.5; stroke-width: 0.69282"/>
     <use xlink:href="#m4228b627c1" x="74.205842" y="267.414459" style="fill: #1f77b4; fill-opacity: 0.5; stroke: #ffffff; stroke-opacity: 0.5; stroke-width: 0.69282"/>
     <use xlink:href="#m4228b627c1" x="354.523841" y="105.539723" style="fill: #1f77b4; fill-opacity: 0.5; stroke: #ffffff; stroke-opacity: 0.5; stroke-width: 0.69282"/>
     <use xlink:href="#m4228b627c1" x="70.828516" y="334.068762" style="fill: #1f77b4; fill-opacity: 0.5; stroke: #ffffff; stroke-opacity: 0.5; stroke-width: 0.69282"/>
     <use xlink:href="#m4228b627c1" x="84.337817" y="181.716069" style="fill: #1f77b4; fill-opacity: 0.5; stroke: #ffffff; stroke-opacity: 0.5; stroke-width: 0.69282"/>
     <use xlink:href="#m4228b627c1" x="72.517179" y="181.716069" style="fill: #1f77b4; fill-opacity: 0.5; stroke: #ffffff; stroke-opacity: 0.5; stroke-width: 0.69282"/>
     <use xlink:href="#m4228b627c1" x="91.092468" y="115.061766" style="fill: #1f77b4; fill-opacity: 0.5; stroke: #ffffff; stroke-opacity: 0.5; stroke-width: 0.69282"/>
     <use xlink:href="#m4228b627c1" x="303.863962" y="115.061766" style="fill: #1f77b4; fill-opacity: 0.5; stroke: #ffffff; stroke-opacity: 0.5; stroke-width: 0.69282"/>
     <use xlink:href="#m4228b627c1" x="77.583167" y="86.495636" style="fill: #1f77b4; fill-opacity: 0.5; stroke: #ffffff; stroke-opacity: 0.5; stroke-width: 0.69282"/>
     <use xlink:href="#m4228b627c1" x="70.828516" y="372.156935" style="fill: #1f77b4; fill-opacity: 0.5; stroke: #ffffff; stroke-opacity: 0.5; stroke-width: 0.69282"/>
     <use xlink:href="#m4228b627c1" x="70.828516" y="305.502632" style="fill: #1f77b4; fill-opacity: 0.5; stroke: #ffffff; stroke-opacity: 0.5; stroke-width: 0.69282"/>
     <use xlink:href="#m4228b627c1" x="134.997697" y="115.061766" style="fill: #1f77b4; fill-opacity: 0.5; stroke: #ffffff; stroke-opacity: 0.5; stroke-width: 0.69282"/>
    </g>
   </g>
   <g id="matplotlib.axis_1">
    <g id="xtick_1">
     <g id="line2d_1">
      <defs>
       <path id="m4dc242e4b3" d="M 0 0 
L 0 3.5 
" style="stroke: #000000; stroke-width: 0.8"/>
      </defs>
      <g>
       <use xlink:href="#m4dc242e4b3" x="69.139854" y="386.44" style="stroke: #000000; stroke-width: 0.8"/>
      </g>
     </g>
     <g id="text_1">
      <!-- 0 -->
      <g transform="translate(64.367979 404.837656)scale(0.15 -0.15)">
       <defs>
        <path id="DejaVuSans-30" d="M 2034 4250 
Q 1547 4250 1301 3770 
Q 1056 3291 1056 2328 
Q 1056 1369 1301 889 
Q 1547 409 2034 409 
Q 2525 409 2770 889 
Q 3016 1369 3016 2328 
Q 3016 3291 2770 3770 
Q 2525 4250 2034 4250 
z
M 2034 4750 
Q 2819 4750 3233 4129 
Q 3647 3509 3647 2328 
Q 3647 1150 3233 529 
Q 2819 -91 2034 -91 
Q 1250 -91 836 529 
Q 422 1150 422 2328 
Q 422 3509 836 4129 
Q 1250 4750 2034 4750 
z
" transform="scale(0.015625)"/>
       </defs>
       <use xlink:href="#DejaVuSans-30"/>
      </g>
     </g>
    </g>
    <g id="xtick_2">
     <g id="line2d_2">
      <g>
       <use xlink:href="#m4dc242e4b3" x="153.572986" y="386.44" style="stroke: #000000; stroke-width: 0.8"/>
      </g>
     </g>
     <g id="text_2">
      <!-- 50 -->
      <g transform="translate(144.029236 404.837656)scale(0.15 -0.15)">
       <defs>
        <path id="DejaVuSans-35" d="M 691 4666 
L 3169 4666 
L 3169 4134 
L 1269 4134 
L 1269 2991 
Q 1406 3038 1543 3061 
Q 1681 3084 1819 3084 
Q 2600 3084 3056 2656 
Q 3513 2228 3513 1497 
Q 3513 744 3044 326 
Q 2575 -91 1722 -91 
Q 1428 -91 1123 -41 
Q 819 9 494 109 
L 494 744 
Q 775 591 1075 516 
Q 1375 441 1709 441 
Q 2250 441 2565 725 
Q 2881 1009 2881 1497 
Q 2881 1984 2565 2268 
Q 2250 2553 1709 2553 
Q 1456 2553 1204 2497 
Q 953 2441 691 2322 
L 691 4666 
z
" transform="scale(0.015625)"/>
       </defs>
       <use xlink:href="#DejaVuSans-35"/>
       <use xlink:href="#DejaVuSans-30" x="63.623047"/>
      </g>
     </g>
    </g>
    <g id="xtick_3">
     <g id="line2d_3">
      <g>
       <use xlink:href="#m4dc242e4b3" x="238.006118" y="386.44" style="stroke: #000000; stroke-width: 0.8"/>
      </g>
     </g>
     <g id="text_3">
      <!-- 100 -->
      <g transform="translate(223.690493 404.837656)scale(0.15 -0.15)">
       <defs>
        <path id="DejaVuSans-31" d="M 794 531 
L 1825 531 
L 1825 4091 
L 703 3866 
L 703 4441 
L 1819 4666 
L 2450 4666 
L 2450 531 
L 3481 531 
L 3481 0 
L 794 0 
L 794 531 
z
" transform="scale(0.015625)"/>
       </defs>
       <use xlink:href="#DejaVuSans-31"/>
       <use xlink:href="#DejaVuSans-30" x="63.623047"/>
       <use xlink:href="#DejaVuSans-30" x="127.246094"/>
      </g>
     </g>
    </g>
    <g id="xtick_4">
     <g id="line2d_4">
      <g>
       <use xlink:href="#m4dc242e4b3" x="322.439251" y="386.44" style="stroke: #000000; stroke-width: 0.8"/>
      </g>
     </g>
     <g id="text_4">
      <!-- 150 -->
      <g transform="translate(308.123626 404.837656)scale(0.15 -0.15)">
       <use xlink:href="#DejaVuSans-31"/>
       <use xlink:href="#DejaVuSans-35" x="63.623047"/>
       <use xlink:href="#DejaVuSans-30" x="127.246094"/>
      </g>
     </g>
    </g>
    <g id="text_5">
     <!-- # Commits -->
     <g transform="translate(156.627741 427.154062)scale(0.2 -0.2)">
      <defs>
       <path id="DejaVuSans-23" d="M 3272 2816 
L 2363 2816 
L 2100 1772 
L 3016 1772 
L 3272 2816 
z
M 2803 4594 
L 2478 3297 
L 3391 3297 
L 3719 4594 
L 4219 4594 
L 3897 3297 
L 4872 3297 
L 4872 2816 
L 3775 2816 
L 3519 1772 
L 4513 1772 
L 4513 1294 
L 3397 1294 
L 3072 0 
L 2572 0 
L 2894 1294 
L 1978 1294 
L 1656 0 
L 1153 0 
L 1478 1294 
L 494 1294 
L 494 1772 
L 1594 1772 
L 1856 2816 
L 850 2816 
L 850 3297 
L 1978 3297 
L 2297 4594 
L 2803 4594 
z
" transform="scale(0.015625)"/>
       <path id="DejaVuSans-20" transform="scale(0.015625)"/>
       <path id="DejaVuSans-43" d="M 4122 4306 
L 4122 3641 
Q 3803 3938 3442 4084 
Q 3081 4231 2675 4231 
Q 1875 4231 1450 3742 
Q 1025 3253 1025 2328 
Q 1025 1406 1450 917 
Q 1875 428 2675 428 
Q 3081 428 3442 575 
Q 3803 722 4122 1019 
L 4122 359 
Q 3791 134 3420 21 
Q 3050 -91 2638 -91 
Q 1578 -91 968 557 
Q 359 1206 359 2328 
Q 359 3453 968 4101 
Q 1578 4750 2638 4750 
Q 3056 4750 3426 4639 
Q 3797 4528 4122 4306 
z
" transform="scale(0.015625)"/>
       <path id="DejaVuSans-6f" d="M 1959 3097 
Q 1497 3097 1228 2736 
Q 959 2375 959 1747 
Q 959 1119 1226 758 
Q 1494 397 1959 397 
Q 2419 397 2687 759 
Q 2956 1122 2956 1747 
Q 2956 2369 2687 2733 
Q 2419 3097 1959 3097 
z
M 1959 3584 
Q 2709 3584 3137 3096 
Q 3566 2609 3566 1747 
Q 3566 888 3137 398 
Q 2709 -91 1959 -91 
Q 1206 -91 779 398 
Q 353 888 353 1747 
Q 353 2609 779 3096 
Q 1206 3584 1959 3584 
z
" transform="scale(0.015625)"/>
       <path id="DejaVuSans-6d" d="M 3328 2828 
Q 3544 3216 3844 3400 
Q 4144 3584 4550 3584 
Q 5097 3584 5394 3201 
Q 5691 2819 5691 2113 
L 5691 0 
L 5113 0 
L 5113 2094 
Q 5113 2597 4934 2840 
Q 4756 3084 4391 3084 
Q 3944 3084 3684 2787 
Q 3425 2491 3425 1978 
L 3425 0 
L 2847 0 
L 2847 2094 
Q 2847 2600 2669 2842 
Q 2491 3084 2119 3084 
Q 1678 3084 1418 2786 
Q 1159 2488 1159 1978 
L 1159 0 
L 581 0 
L 581 3500 
L 1159 3500 
L 1159 2956 
Q 1356 3278 1631 3431 
Q 1906 3584 2284 3584 
Q 2666 3584 2933 3390 
Q 3200 3197 3328 2828 
z
" transform="scale(0.015625)"/>
       <path id="DejaVuSans-69" d="M 603 3500 
L 1178 3500 
L 1178 0 
L 603 0 
L 603 3500 
z
M 603 4863 
L 1178 4863 
L 1178 4134 
L 603 4134 
L 603 4863 
z
" transform="scale(0.015625)"/>
       <path id="DejaVuSans-74" d="M 1172 4494 
L 1172 3500 
L 2356 3500 
L 2356 3053 
L 1172 3053 
L 1172 1153 
Q 1172 725 1289 603 
Q 1406 481 1766 481 
L 2356 481 
L 2356 0 
L 1766 0 
Q 1100 0 847 248 
Q 594 497 594 1153 
L 594 3053 
L 172 3053 
L 172 3500 
L 594 3500 
L 594 4494 
L 1172 4494 
z
" transform="scale(0.015625)"/>
       <path id="DejaVuSans-73" d="M 2834 3397 
L 2834 2853 
Q 2591 2978 2328 3040 
Q 2066 3103 1784 3103 
Q 1356 3103 1142 2972 
Q 928 2841 928 2578 
Q 928 2378 1081 2264 
Q 1234 2150 1697 2047 
L 1894 2003 
Q 2506 1872 2764 1633 
Q 3022 1394 3022 966 
Q 3022 478 2636 193 
Q 2250 -91 1575 -91 
Q 1294 -91 989 -36 
Q 684 19 347 128 
L 347 722 
Q 666 556 975 473 
Q 1284 391 1588 391 
Q 1994 391 2212 530 
Q 2431 669 2431 922 
Q 2431 1156 2273 1281 
Q 2116 1406 1581 1522 
L 1381 1569 
Q 847 1681 609 1914 
Q 372 2147 372 2553 
Q 372 3047 722 3315 
Q 1072 3584 1716 3584 
Q 2034 3584 2315 3537 
Q 2597 3491 2834 3397 
z
" transform="scale(0.015625)"/>
      </defs>
      <use xlink:href="#DejaVuSans-23"/>
      <use xlink:href="#DejaVuSans-20" x="83.789062"/>
      <use xlink:href="#DejaVuSans-43" x="115.576172"/>
      <use xlink:href="#DejaVuSans-6f" x="185.400391"/>
      <use xlink:href="#DejaVuSans-6d" x="246.582031"/>
      <use xlink:href="#DejaVuSans-6d" x="343.994141"/>
      <use xlink:href="#DejaVuSans-69" x="441.40625"/>
      <use xlink:href="#DejaVuSans-74" x="469.189453"/>
      <use xlink:href="#DejaVuSans-73" x="508.398438"/>
     </g>
    </g>
   </g>
   <g id="matplotlib.axis_2">
    <g id="ytick_1">
     <g id="line2d_5">
      <defs>
       <path id="m6412e6e603" d="M 0 0 
L -3.5 0 
" style="stroke: #000000; stroke-width: 0.8"/>
      </defs>
      <g>
       <use xlink:href="#m6412e6e603" x="56.64375" y="353.112848" style="stroke: #000000; stroke-width: 0.8"/>
      </g>
     </g>
     <g id="text_6">
      <!-- 5 -->
      <g transform="translate(40.1 358.811677)scale(0.15 -0.15)">
       <use xlink:href="#DejaVuSans-35"/>
      </g>
     </g>
    </g>
    <g id="ytick_2">
     <g id="line2d_6">
      <g>
       <use xlink:href="#m6412e6e603" x="56.64375" y="305.502632" style="stroke: #000000; stroke-width: 0.8"/>
      </g>
     </g>
     <g id="text_7">
      <!-- 10 -->
      <g transform="translate(30.55625 311.20146)scale(0.15 -0.15)">
       <use xlink:href="#DejaVuSans-31"/>
       <use xlink:href="#DejaVuSans-30" x="63.623047"/>
      </g>
     </g>
    </g>
    <g id="ytick_3">
     <g id="line2d_7">
      <g>
       <use xlink:href="#m6412e6e603" x="56.64375" y="257.892416" style="stroke: #000000; stroke-width: 0.8"/>
      </g>
     </g>
     <g id="text_8">
      <!-- 15 -->
      <g transform="translate(30.55625 263.591244)scale(0.15 -0.15)">
       <use xlink:href="#DejaVuSans-31"/>
       <use xlink:href="#DejaVuSans-35" x="63.623047"/>
      </g>
     </g>
    </g>
    <g id="ytick_4">
     <g id="line2d_8">
      <g>
       <use xlink:href="#m6412e6e603" x="56.64375" y="210.282199" style="stroke: #000000; stroke-width: 0.8"/>
      </g>
     </g>
     <g id="text_9">
      <!-- 20 -->
      <g transform="translate(30.55625 215.981027)scale(0.15 -0.15)">
       <defs>
        <path id="DejaVuSans-32" d="M 1228 531 
L 3431 531 
L 3431 0 
L 469 0 
L 469 531 
Q 828 903 1448 1529 
Q 2069 2156 2228 2338 
Q 2531 2678 2651 2914 
Q 2772 3150 2772 3378 
Q 2772 3750 2511 3984 
Q 2250 4219 1831 4219 
Q 1534 4219 1204 4116 
Q 875 4013 500 3803 
L 500 4441 
Q 881 4594 1212 4672 
Q 1544 4750 1819 4750 
Q 2544 4750 2975 4387 
Q 3406 4025 3406 3419 
Q 3406 3131 3298 2873 
Q 3191 2616 2906 2266 
Q 2828 2175 2409 1742 
Q 1991 1309 1228 531 
z
" transform="scale(0.015625)"/>
       </defs>
       <use xlink:href="#DejaVuSans-32"/>
       <use xlink:href="#DejaVuSans-30" x="63.623047"/>
      </g>
     </g>
    </g>
    <g id="ytick_5">
     <g id="line2d_9">
      <g>
       <use xlink:href="#m6412e6e603" x="56.64375" y="162.671983" style="stroke: #000000; stroke-width: 0.8"/>
      </g>
     </g>
     <g id="text_10">
      <!-- 25 -->
      <g transform="translate(30.55625 168.370811)scale(0.15 -0.15)">
       <use xlink:href="#DejaVuSans-32"/>
       <use xlink:href="#DejaVuSans-35" x="63.623047"/>
      </g>
     </g>
    </g>
    <g id="ytick_6">
     <g id="line2d_10">
      <g>
       <use xlink:href="#m6412e6e603" x="56.64375" y="115.061766" style="stroke: #000000; stroke-width: 0.8"/>
      </g>
     </g>
     <g id="text_11">
      <!-- 30 -->
      <g transform="translate(30.55625 120.760594)scale(0.15 -0.15)">
       <defs>
        <path id="DejaVuSans-33" d="M 2597 2516 
Q 3050 2419 3304 2112 
Q 3559 1806 3559 1356 
Q 3559 666 3084 287 
Q 2609 -91 1734 -91 
Q 1441 -91 1130 -33 
Q 819 25 488 141 
L 488 750 
Q 750 597 1062 519 
Q 1375 441 1716 441 
Q 2309 441 2620 675 
Q 2931 909 2931 1356 
Q 2931 1769 2642 2001 
Q 2353 2234 1838 2234 
L 1294 2234 
L 1294 2753 
L 1863 2753 
Q 2328 2753 2575 2939 
Q 2822 3125 2822 3475 
Q 2822 3834 2567 4026 
Q 2313 4219 1838 4219 
Q 1578 4219 1281 4162 
Q 984 4106 628 3988 
L 628 4550 
Q 988 4650 1302 4700 
Q 1616 4750 1894 4750 
Q 2613 4750 3031 4423 
Q 3450 4097 3450 3541 
Q 3450 3153 3228 2886 
Q 3006 2619 2597 2516 
z
" transform="scale(0.015625)"/>
       </defs>
       <use xlink:href="#DejaVuSans-33"/>
       <use xlink:href="#DejaVuSans-30" x="63.623047"/>
      </g>
     </g>
    </g>
    <g id="text_12">
     <!-- # Interacting authors -->
     <g transform="translate(22.396875 336.707536)rotate(-90)scale(0.2 -0.2)">
      <defs>
       <path id="DejaVuSans-49" d="M 628 4666 
L 1259 4666 
L 1259 0 
L 628 0 
L 628 4666 
z
" transform="scale(0.015625)"/>
       <path id="DejaVuSans-6e" d="M 3513 2113 
L 3513 0 
L 2938 0 
L 2938 2094 
Q 2938 2591 2744 2837 
Q 2550 3084 2163 3084 
Q 1697 3084 1428 2787 
Q 1159 2491 1159 1978 
L 1159 0 
L 581 0 
L 581 3500 
L 1159 3500 
L 1159 2956 
Q 1366 3272 1645 3428 
Q 1925 3584 2291 3584 
Q 2894 3584 3203 3211 
Q 3513 2838 3513 2113 
z
" transform="scale(0.015625)"/>
       <path id="DejaVuSans-65" d="M 3597 1894 
L 3597 1613 
L 953 1613 
Q 991 1019 1311 708 
Q 1631 397 2203 397 
Q 2534 397 2845 478 
Q 3156 559 3463 722 
L 3463 178 
Q 3153 47 2828 -22 
Q 2503 -91 2169 -91 
Q 1331 -91 842 396 
Q 353 884 353 1716 
Q 353 2575 817 3079 
Q 1281 3584 2069 3584 
Q 2775 3584 3186 3129 
Q 3597 2675 3597 1894 
z
M 3022 2063 
Q 3016 2534 2758 2815 
Q 2500 3097 2075 3097 
Q 1594 3097 1305 2825 
Q 1016 2553 972 2059 
L 3022 2063 
z
" transform="scale(0.015625)"/>
       <path id="DejaVuSans-72" d="M 2631 2963 
Q 2534 3019 2420 3045 
Q 2306 3072 2169 3072 
Q 1681 3072 1420 2755 
Q 1159 2438 1159 1844 
L 1159 0 
L 581 0 
L 581 3500 
L 1159 3500 
L 1159 2956 
Q 1341 3275 1631 3429 
Q 1922 3584 2338 3584 
Q 2397 3584 2469 3576 
Q 2541 3569 2628 3553 
L 2631 2963 
z
" transform="scale(0.015625)"/>
       <path id="DejaVuSans-61" d="M 2194 1759 
Q 1497 1759 1228 1600 
Q 959 1441 959 1056 
Q 959 750 1161 570 
Q 1363 391 1709 391 
Q 2188 391 2477 730 
Q 2766 1069 2766 1631 
L 2766 1759 
L 2194 1759 
z
M 3341 1997 
L 3341 0 
L 2766 0 
L 2766 531 
Q 2569 213 2275 61 
Q 1981 -91 1556 -91 
Q 1019 -91 701 211 
Q 384 513 384 1019 
Q 384 1609 779 1909 
Q 1175 2209 1959 2209 
L 2766 2209 
L 2766 2266 
Q 2766 2663 2505 2880 
Q 2244 3097 1772 3097 
Q 1472 3097 1187 3025 
Q 903 2953 641 2809 
L 641 3341 
Q 956 3463 1253 3523 
Q 1550 3584 1831 3584 
Q 2591 3584 2966 3190 
Q 3341 2797 3341 1997 
z
" transform="scale(0.015625)"/>
       <path id="DejaVuSans-63" d="M 3122 3366 
L 3122 2828 
Q 2878 2963 2633 3030 
Q 2388 3097 2138 3097 
Q 1578 3097 1268 2742 
Q 959 2388 959 1747 
Q 959 1106 1268 751 
Q 1578 397 2138 397 
Q 2388 397 2633 464 
Q 2878 531 3122 666 
L 3122 134 
Q 2881 22 2623 -34 
Q 2366 -91 2075 -91 
Q 1284 -91 818 406 
Q 353 903 353 1747 
Q 353 2603 823 3093 
Q 1294 3584 2113 3584 
Q 2378 3584 2631 3529 
Q 2884 3475 3122 3366 
z
" transform="scale(0.015625)"/>
       <path id="DejaVuSans-67" d="M 2906 1791 
Q 2906 2416 2648 2759 
Q 2391 3103 1925 3103 
Q 1463 3103 1205 2759 
Q 947 2416 947 1791 
Q 947 1169 1205 825 
Q 1463 481 1925 481 
Q 2391 481 2648 825 
Q 2906 1169 2906 1791 
z
M 3481 434 
Q 3481 -459 3084 -895 
Q 2688 -1331 1869 -1331 
Q 1566 -1331 1297 -1286 
Q 1028 -1241 775 -1147 
L 775 -588 
Q 1028 -725 1275 -790 
Q 1522 -856 1778 -856 
Q 2344 -856 2625 -561 
Q 2906 -266 2906 331 
L 2906 616 
Q 2728 306 2450 153 
Q 2172 0 1784 0 
Q 1141 0 747 490 
Q 353 981 353 1791 
Q 353 2603 747 3093 
Q 1141 3584 1784 3584 
Q 2172 3584 2450 3431 
Q 2728 3278 2906 2969 
L 2906 3500 
L 3481 3500 
L 3481 434 
z
" transform="scale(0.015625)"/>
       <path id="DejaVuSans-75" d="M 544 1381 
L 544 3500 
L 1119 3500 
L 1119 1403 
Q 1119 906 1312 657 
Q 1506 409 1894 409 
Q 2359 409 2629 706 
Q 2900 1003 2900 1516 
L 2900 3500 
L 3475 3500 
L 3475 0 
L 2900 0 
L 2900 538 
Q 2691 219 2414 64 
Q 2138 -91 1772 -91 
Q 1169 -91 856 284 
Q 544 659 544 1381 
z
M 1991 3584 
L 1991 3584 
z
" transform="scale(0.015625)"/>
       <path id="DejaVuSans-68" d="M 3513 2113 
L 3513 0 
L 2938 0 
L 2938 2094 
Q 2938 2591 2744 2837 
Q 2550 3084 2163 3084 
Q 1697 3084 1428 2787 
Q 1159 2491 1159 1978 
L 1159 0 
L 581 0 
L 581 4863 
L 1159 4863 
L 1159 2956 
Q 1366 3272 1645 3428 
Q 1925 3584 2291 3584 
Q 2894 3584 3203 3211 
Q 3513 2838 3513 2113 
z
" transform="scale(0.015625)"/>
      </defs>
      <use xlink:href="#DejaVuSans-23"/>
      <use xlink:href="#DejaVuSans-20" x="83.789062"/>
      <use xlink:href="#DejaVuSans-49" x="115.576172"/>
      <use xlink:href="#DejaVuSans-6e" x="145.068359"/>
      <use xlink:href="#DejaVuSans-74" x="208.447266"/>
      <use xlink:href="#DejaVuSans-65" x="247.65625"/>
      <use xlink:href="#DejaVuSans-72" x="309.179688"/>
      <use xlink:href="#DejaVuSans-61" x="350.292969"/>
      <use xlink:href="#DejaVuSans-63" x="411.572266"/>
      <use xlink:href="#DejaVuSans-74" x="466.552734"/>
      <use xlink:href="#DejaVuSans-69" x="505.761719"/>
      <use xlink:href="#DejaVuSans-6e" x="533.544922"/>
      <use xlink:href="#DejaVuSans-67" x="596.923828"/>
      <use xlink:href="#DejaVuSans-20" x="660.400391"/>
      <use xlink:href="#DejaVuSans-61" x="692.1875"/>
      <use xlink:href="#DejaVuSans-75" x="753.466797"/>
      <use xlink:href="#DejaVuSans-74" x="816.845703"/>
      <use xlink:href="#DejaVuSans-68" x="856.054688"/>
      <use xlink:href="#DejaVuSans-6f" x="919.433594"/>
      <use xlink:href="#DejaVuSans-72" x="980.615234"/>
      <use xlink:href="#DejaVuSans-73" x="1021.728516"/>
     </g>
    </g>
   </g>
   <g id="patch_3">
    <path d="M 56.64375 386.44 
L 56.64375 72.212571 
" style="fill: none; stroke: #000000; stroke-width: 0.8; stroke-linejoin: miter; stroke-linecap: square"/>
   </g>
   <g id="patch_4">
    <path d="M 56.64375 386.44 
L 368.708607 386.44 
" style="fill: none; stroke: #000000; stroke-width: 0.8; stroke-linejoin: miter; stroke-linecap: square"/>
   </g>
  </g>
  <g id="axes_2">
   <g id="patch_5">
    <path d="M 56.64375 61.377143 
L 368.708607 61.377143 
L 368.708607 7.2 
L 56.64375 7.2 
z
" style="fill: #ffffff"/>
   </g>
   <g id="PolyCollection_1">
    <path d="M -90.763251 60.915016 
L -90.763251 61.377143 
L -87.713608 61.377143 
L -84.663966 61.377143 
L -81.614323 61.377143 
L -78.564681 61.377143 
L -75.515038 61.377143 
L -72.465396 61.377143 
L -69.415753 61.377143 
L -66.366111 61.377143 
L -63.316468 61.377143 
L -60.266826 61.377143 
L -57.217183 61.377143 
L -54.167541 61.377143 
L -51.117898 61.377143 
L -48.068256 61.377143 
L -45.018613 61.377143 
L -41.968971 61.377143 
L -38.919328 61.377143 
L -35.869686 61.377143 
L -32.820043 61.377143 
L -29.770401 61.377143 
L -26.720758 61.377143 
L -23.671116 61.377143 
L -20.621473 61.377143 
L -17.571831 61.377143 
L -14.522188 61.377143 
L -11.472546 61.377143 
L -8.422903 61.377143 
L -5.373261 61.377143 
L -2.323618 61.377143 
L 0.726024 61.377143 
L 3.775667 61.377143 
L 6.82531 61.377143 
L 9.874952 61.377143 
L 12.924595 61.377143 
L 15.974237 61.377143 
L 19.02388 61.377143 
L 22.073522 61.377143 
L 25.123165 61.377143 
L 28.172807 61.377143 
L 31.22245 61.377143 
L 34.272092 61.377143 
L 37.321735 61.377143 
L 40.371377 61.377143 
L 43.42102 61.377143 
L 46.470662 61.377143 
L 49.520305 61.377143 
L 52.569947 61.377143 
L 55.61959 61.377143 
L 58.669232 61.377143 
L 61.718875 61.377143 
L 64.768517 61.377143 
L 67.81816 61.377143 
L 70.867802 61.377143 
L 73.917445 61.377143 
L 76.967087 61.377143 
L 80.01673 61.377143 
L 83.066372 61.377143 
L 86.116015 61.377143 
L 89.165657 61.377143 
L 92.2153 61.377143 
L 95.264942 61.377143 
L 98.314585 61.377143 
L 101.364227 61.377143 
L 104.41387 61.377143 
L 107.463512 61.377143 
L 110.513155 61.377143 
L 113.562797 61.377143 
L 116.61244 61.377143 
L 119.662082 61.377143 
L 122.711725 61.377143 
L 125.761367 61.377143 
L 128.81101 61.377143 
L 131.860652 61.377143 
L 134.910295 61.377143 
L 137.959937 61.377143 
L 141.00958 61.377143 
L 144.059222 61.377143 
L 147.108865 61.377143 
L 150.158507 61.377143 
L 153.20815 61.377143 
L 156.257792 61.377143 
L 159.307435 61.377143 
L 162.357077 61.377143 
L 165.40672 61.377143 
L 168.456362 61.377143 
L 171.506005 61.377143 
L 174.555647 61.377143 
L 177.60529 61.377143 
L 180.654932 61.377143 
L 183.704575 61.377143 
L 186.754217 61.377143 
L 189.80386 61.377143 
L 192.853502 61.377143 
L 195.903145 61.377143 
L 198.952787 61.377143 
L 202.00243 61.377143 
L 205.052072 61.377143 
L 208.101715 61.377143 
L 211.151357 61.377143 
L 214.201 61.377143 
L 217.250642 61.377143 
L 220.300285 61.377143 
L 223.349927 61.377143 
L 226.39957 61.377143 
L 229.449212 61.377143 
L 232.498855 61.377143 
L 235.548497 61.377143 
L 238.59814 61.377143 
L 241.647782 61.377143 
L 244.697425 61.377143 
L 247.747067 61.377143 
L 250.79671 61.377143 
L 253.846352 61.377143 
L 256.895995 61.377143 
L 259.945637 61.377143 
L 262.99528 61.377143 
L 266.044922 61.377143 
L 269.094565 61.377143 
L 272.144207 61.377143 
L 275.19385 61.377143 
L 278.243492 61.377143 
L 281.293135 61.377143 
L 284.342777 61.377143 
L 287.39242 61.377143 
L 290.442062 61.377143 
L 293.491705 61.377143 
L 296.541347 61.377143 
L 299.59099 61.377143 
L 302.640632 61.377143 
L 305.690275 61.377143 
L 308.739917 61.377143 
L 311.78956 61.377143 
L 314.839202 61.377143 
L 317.888845 61.377143 
L 320.938487 61.377143 
L 323.98813 61.377143 
L 327.037772 61.377143 
L 330.087415 61.377143 
L 333.137058 61.377143 
L 336.1867 61.377143 
L 339.236343 61.377143 
L 342.285985 61.377143 
L 345.335628 61.377143 
L 348.38527 61.377143 
L 351.434913 61.377143 
L 354.484555 61.377143 
L 357.534198 61.377143 
L 360.58384 61.377143 
L 363.633483 61.377143 
L 366.683125 61.377143 
L 369.732768 61.377143 
L 372.78241 61.377143 
L 375.832053 61.377143 
L 378.881695 61.377143 
L 381.931338 61.377143 
L 384.98098 61.377143 
L 388.030623 61.377143 
L 391.080265 61.377143 
L 394.129908 61.377143 
L 397.17955 61.377143 
L 400.229193 61.377143 
L 403.278835 61.377143 
L 406.328478 61.377143 
L 409.37812 61.377143 
L 412.427763 61.377143 
L 415.477405 61.377143 
L 418.527048 61.377143 
L 421.57669 61.377143 
L 424.626333 61.377143 
L 427.675975 61.377143 
L 430.725618 61.377143 
L 433.77526 61.377143 
L 436.824903 61.377143 
L 439.874545 61.377143 
L 442.924188 61.377143 
L 445.97383 61.377143 
L 449.023473 61.377143 
L 452.073115 61.377143 
L 455.122758 61.377143 
L 458.1724 61.377143 
L 461.222043 61.377143 
L 464.271685 61.377143 
L 467.321328 61.377143 
L 470.37097 61.377143 
L 473.420613 61.377143 
L 476.470255 61.377143 
L 479.519898 61.377143 
L 482.56954 61.377143 
L 485.619183 61.377143 
L 488.668825 61.377143 
L 491.718468 61.377143 
L 494.76811 61.377143 
L 497.817753 61.377143 
L 500.867395 61.377143 
L 503.917038 61.377143 
L 506.96668 61.377143 
L 510.016323 61.377143 
L 513.065965 61.377143 
L 516.115608 61.377143 
L 516.115608 61.321772 
L 516.115608 61.321772 
L 513.065965 61.31122 
L 510.016323 61.298898 
L 506.96668 61.284559 
L 503.917038 61.267927 
L 500.867395 61.248703 
L 497.817753 61.226558 
L 494.76811 61.201134 
L 491.718468 61.172046 
L 488.668825 61.13888 
L 485.619183 61.101194 
L 482.56954 61.058519 
L 479.519898 61.010363 
L 476.470255 60.956209 
L 473.420613 60.895523 
L 470.37097 60.827754 
L 467.321328 60.752343 
L 464.271685 60.668723 
L 461.222043 60.576329 
L 458.1724 60.474605 
L 455.122758 60.363011 
L 452.073115 60.241031 
L 449.023473 60.108183 
L 445.97383 59.964029 
L 442.924188 59.808185 
L 439.874545 59.64033 
L 436.824903 59.460217 
L 433.77526 59.267687 
L 430.725618 59.062673 
L 427.675975 58.845216 
L 424.626333 58.615468 
L 421.57669 58.373707 
L 418.527048 58.120337 
L 415.477405 57.8559 
L 412.427763 57.581073 
L 409.37812 57.296678 
L 406.328478 57.003679 
L 403.278835 56.703178 
L 400.229193 56.396414 
L 397.17955 56.084759 
L 394.129908 55.769703 
L 391.080265 55.45285 
L 388.030623 55.135904 
L 384.98098 54.820648 
L 381.931338 54.508938 
L 378.881695 54.202672 
L 375.832053 53.90378 
L 372.78241 53.614197 
L 369.732768 53.335842 
L 366.683125 53.070596 
L 363.633483 52.820275 
L 360.58384 52.586612 
L 357.534198 52.371231 
L 354.484555 52.175625 
L 351.434913 52.001136 
L 348.38527 51.848939 
L 345.335628 51.720018 
L 342.285985 51.615157 
L 339.236343 51.534925 
L 336.1867 51.479668 
L 333.137058 51.4495 
L 330.087415 51.444298 
L 327.037772 51.463705 
L 323.98813 51.507128 
L 320.938487 51.573747 
L 317.888845 51.662516 
L 314.839202 51.772183 
L 311.78956 51.901296 
L 308.739917 52.048219 
L 305.690275 52.211153 
L 302.640632 52.388151 
L 299.59099 52.577143 
L 296.541347 52.775953 
L 293.491705 52.982322 
L 290.442062 53.193932 
L 287.39242 53.408426 
L 284.342777 53.623432 
L 281.293135 53.83658 
L 278.243492 54.045522 
L 275.19385 54.247953 
L 272.144207 54.441621 
L 269.094565 54.624344 
L 266.044922 54.79402 
L 262.99528 54.948636 
L 259.945637 55.086271 
L 256.895995 55.205098 
L 253.846352 55.303391 
L 250.79671 55.37951 
L 247.747067 55.431908 
L 244.697425 55.459111 
L 241.647782 55.459717 
L 238.59814 55.432378 
L 235.548497 55.375789 
L 232.498855 55.288669 
L 229.449212 55.169752 
L 226.39957 55.017767 
L 223.349927 54.831422 
L 220.300285 54.609397 
L 217.250642 54.350325 
L 214.201 54.052788 
L 211.151357 53.715309 
L 208.101715 53.336353 
L 205.052072 52.914325 
L 202.00243 52.447585 
L 198.952787 51.934454 
L 195.903145 51.373239 
L 192.853502 50.762253 
L 189.80386 50.099851 
L 186.754217 49.384467 
L 183.704575 48.614653 
L 180.654932 47.789131 
L 177.60529 46.906847 
L 174.555647 45.967026 
L 171.506005 44.969233 
L 168.456362 43.913433 
L 165.40672 42.80006 
L 162.357077 41.630069 
L 159.307435 40.405002 
L 156.257792 39.127038 
L 153.20815 37.799046 
L 150.158507 36.42462 
L 147.108865 35.008118 
L 144.059222 33.554673 
L 141.00958 32.070212 
L 137.959937 30.561441 
L 134.910295 29.035832 
L 131.860652 27.501584 
L 128.81101 25.967575 
L 125.761367 24.443293 
L 122.711725 22.938756 
L 119.662082 21.464415 
L 116.61244 20.031042 
L 113.562797 18.649612 
L 110.513155 17.331166 
L 107.463512 16.086676 
L 104.41387 14.926891 
L 101.364227 13.862198 
L 98.314585 12.902463 
L 95.264942 12.056894 
L 92.2153 11.333892 
L 89.165657 10.740928 
L 86.116015 10.284417 
L 83.066372 9.969616 
L 80.01673 9.800535 
L 76.967087 9.779864 
L 73.917445 9.908928 
L 70.867802 10.187654 
L 67.81816 10.614569 
L 64.768517 11.186811 
L 61.718875 11.900174 
L 58.669232 12.749161 
L 55.61959 13.727066 
L 52.569947 14.826072 
L 49.520305 16.037366 
L 46.470662 17.351264 
L 43.42102 18.757352 
L 40.371377 20.244632 
L 37.321735 21.801675 
L 34.272092 23.416776 
L 31.22245 25.078109 
L 28.172807 26.773874 
L 25.123165 28.492444 
L 22.073522 30.222503 
L 19.02388 31.953163 
L 15.974237 33.674084 
L 12.924595 35.37557 
L 9.874952 37.048649 
L 6.82531 38.685142 
L 3.775667 40.277714 
L 0.726024 41.81991 
L -2.323618 43.306171 
L -5.373261 44.731842 
L -8.422903 46.093156 
L -11.472546 47.387221 
L -14.522188 48.611975 
L -17.571831 49.76615 
L -20.621473 50.849218 
L -23.671116 51.861329 
L -26.720758 52.803251 
L -29.770401 53.676302 
L -32.820043 54.482279 
L -35.869686 55.223392 
L -38.919328 55.902193 
L -41.968971 56.52151 
L -45.018613 57.084386 
L -48.068256 57.594015 
L -51.117898 58.05369 
L -54.167541 58.466752 
L -57.217183 58.836545 
L -60.266826 59.166376 
L -63.316468 59.459482 
L -66.366111 59.718999 
L -69.415753 59.94794 
L -72.465396 60.149177 
L -75.515038 60.325425 
L -78.564681 60.479234 
L -81.614323 60.612981 
L -84.663966 60.72887 
L -87.713608 60.828929 
L -90.763251 60.915016 
z
" clip-path="url(#p7dbafa8707)" style="fill: #1f77b4; fill-opacity: 0.25; stroke: #1f77b4"/>
   </g>
   <g id="matplotlib.axis_3">
    <g id="xtick_5">
     <g id="line2d_11">
      <g>
       <use xlink:href="#m4dc242e4b3" x="69.139854" y="61.377143" style="stroke: #000000; stroke-width: 0.8"/>
      </g>
     </g>
    </g>
    <g id="xtick_6">
     <g id="line2d_12">
      <g>
       <use xlink:href="#m4dc242e4b3" x="153.572986" y="61.377143" style="stroke: #000000; stroke-width: 0.8"/>
      </g>
     </g>
    </g>
    <g id="xtick_7">
     <g id="line2d_13">
      <g>
       <use xlink:href="#m4dc242e4b3" x="238.006118" y="61.377143" style="stroke: #000000; stroke-width: 0.8"/>
      </g>
     </g>
    </g>
    <g id="xtick_8">
     <g id="line2d_14">
      <g>
       <use xlink:href="#m4dc242e4b3" x="322.439251" y="61.377143" style="stroke: #000000; stroke-width: 0.8"/>
      </g>
     </g>
    </g>
   </g>
   <g id="matplotlib.axis_4">
    <g id="ytick_7"/>
    <g id="ytick_8"/>
   </g>
   <g id="patch_6">
    <path d="M 56.64375 61.377143 
L 368.708607 61.377143 
" style="fill: none; stroke: #000000; stroke-width: 0.8; stroke-linejoin: miter; stroke-linecap: square"/>
   </g>
  </g>
  <g id="axes_3">
   <g id="patch_7">
    <path d="M 379.469464 386.44 
L 433.27375 386.44 
L 433.27375 72.212571 
L 379.469464 72.212571 
z
" style="fill: #ffffff"/>
   </g>
   <g id="PolyCollection_2">
    <path d="M 379.531144 521.577408 
L 379.469464 521.577408 
L 379.469464 518.640211 
L 379.469464 515.703014 
L 379.469464 512.765816 
L 379.469464 509.828619 
L 379.469464 506.891422 
L 379.469464 503.954225 
L 379.469464 501.017028 
L 379.469464 498.07983 
L 379.469464 495.142633 
L 379.469464 492.205436 
L 379.469464 489.268239 
L 379.469464 486.331042 
L 379.469464 483.393844 
L 379.469464 480.456647 
L 379.469464 477.51945 
L 379.469464 474.582253 
L 379.469464 471.645055 
L 379.469464 468.707858 
L 379.469464 465.770661 
L 379.469464 462.833464 
L 379.469464 459.896267 
L 379.469464 456.959069 
L 379.469464 454.021872 
L 379.469464 451.084675 
L 379.469464 448.147478 
L 379.469464 445.210281 
L 379.469464 442.273083 
L 379.469464 439.335886 
L 379.469464 436.398689 
L 379.469464 433.461492 
L 379.469464 430.524295 
L 379.469464 427.587097 
L 379.469464 424.6499 
L 379.469464 421.712703 
L 379.469464 418.775506 
L 379.469464 415.838309 
L 379.469464 412.901111 
L 379.469464 409.963914 
L 379.469464 407.026717 
L 379.469464 404.08952 
L 379.469464 401.152322 
L 379.469464 398.215125 
L 379.469464 395.277928 
L 379.469464 392.340731 
L 379.469464 389.403534 
L 379.469464 386.466336 
L 379.469464 383.529139 
L 379.469464 380.591942 
L 379.469464 377.654745 
L 379.469464 374.717548 
L 379.469464 371.78035 
L 379.469464 368.843153 
L 379.469464 365.905956 
L 379.469464 362.968759 
L 379.469464 360.031562 
L 379.469464 357.094364 
L 379.469464 354.157167 
L 379.469464 351.21997 
L 379.469464 348.282773 
L 379.469464 345.345575 
L 379.469464 342.408378 
L 379.469464 339.471181 
L 379.469464 336.533984 
L 379.469464 333.596787 
L 379.469464 330.659589 
L 379.469464 327.722392 
L 379.469464 324.785195 
L 379.469464 321.847998 
L 379.469464 318.910801 
L 379.469464 315.973603 
L 379.469464 313.036406 
L 379.469464 310.099209 
L 379.469464 307.162012 
L 379.469464 304.224815 
L 379.469464 301.287617 
L 379.469464 298.35042 
L 379.469464 295.413223 
L 379.469464 292.476026 
L 379.469464 289.538829 
L 379.469464 286.601631 
L 379.469464 283.664434 
L 379.469464 280.727237 
L 379.469464 277.79004 
L 379.469464 274.852842 
L 379.469464 271.915645 
L 379.469464 268.978448 
L 379.469464 266.041251 
L 379.469464 263.104054 
L 379.469464 260.166856 
L 379.469464 257.229659 
L 379.469464 254.292462 
L 379.469464 251.355265 
L 379.469464 248.418068 
L 379.469464 245.48087 
L 379.469464 242.543673 
L 379.469464 239.606476 
L 379.469464 236.669279 
L 379.469464 233.732082 
L 379.469464 230.794884 
L 379.469464 227.857687 
L 379.469464 224.92049 
L 379.469464 221.983293 
L 379.469464 219.046095 
L 379.469464 216.108898 
L 379.469464 213.171701 
L 379.469464 210.234504 
L 379.469464 207.297307 
L 379.469464 204.360109 
L 379.469464 201.422912 
L 379.469464 198.485715 
L 379.469464 195.548518 
L 379.469464 192.611321 
L 379.469464 189.674123 
L 379.469464 186.736926 
L 379.469464 183.799729 
L 379.469464 180.862532 
L 379.469464 177.925335 
L 379.469464 174.988137 
L 379.469464 172.05094 
L 379.469464 169.113743 
L 379.469464 166.176546 
L 379.469464 163.239349 
L 379.469464 160.302151 
L 379.469464 157.364954 
L 379.469464 154.427757 
L 379.469464 151.49056 
L 379.469464 148.553362 
L 379.469464 145.616165 
L 379.469464 142.678968 
L 379.469464 139.741771 
L 379.469464 136.804574 
L 379.469464 133.867376 
L 379.469464 130.930179 
L 379.469464 127.992982 
L 379.469464 125.055785 
L 379.469464 122.118588 
L 379.469464 119.18139 
L 379.469464 116.244193 
L 379.469464 113.306996 
L 379.469464 110.369799 
L 379.469464 107.432602 
L 379.469464 104.495404 
L 379.469464 101.558207 
L 379.469464 98.62101 
L 379.469464 95.683813 
L 379.469464 92.746615 
L 379.469464 89.809418 
L 379.469464 86.872221 
L 379.469464 83.935024 
L 379.469464 80.997827 
L 379.469464 78.060629 
L 379.469464 75.123432 
L 379.469464 72.186235 
L 379.469464 69.249038 
L 379.469464 66.311841 
L 379.469464 63.374643 
L 379.469464 60.437446 
L 379.469464 57.500249 
L 379.469464 54.563052 
L 379.469464 51.625855 
L 379.469464 48.688657 
L 379.469464 45.75146 
L 379.469464 42.814263 
L 379.469464 39.877066 
L 379.469464 36.939869 
L 379.469464 34.002671 
L 379.469464 31.065474 
L 379.469464 28.128277 
L 379.469464 25.19108 
L 379.469464 22.253882 
L 379.469464 19.316685 
L 379.469464 16.379488 
L 379.469464 13.442291 
L 379.469464 10.505094 
L 379.469464 7.567896 
L 379.469464 4.630699 
L 379.469464 1.693502 
L 379.469464 -1.243695 
L 379.469464 -4.180892 
L 379.469464 -7.11809 
L 379.469464 -10.055287 
L 379.469464 -12.992484 
L 379.469464 -15.929681 
L 379.469464 -18.866878 
L 379.469464 -21.804076 
L 379.469464 -24.741273 
L 379.469464 -27.67847 
L 379.469464 -30.615667 
L 379.469464 -33.552865 
L 379.469464 -36.490062 
L 379.469464 -39.427259 
L 379.469464 -42.364456 
L 379.469464 -45.301653 
L 379.469464 -48.238851 
L 379.469464 -51.176048 
L 379.469464 -54.113245 
L 379.469464 -57.050442 
L 379.469464 -59.987639 
L 379.469464 -62.924837 
L 379.644404 -62.924837 
L 379.644404 -62.924837 
L 379.680037 -59.987639 
L 379.722104 -57.050442 
L 379.771591 -54.113245 
L 379.829602 -51.176048 
L 379.897363 -48.238851 
L 379.97623 -45.301653 
L 380.067697 -42.364456 
L 380.1734 -39.427259 
L 380.295115 -36.490062 
L 380.434766 -33.552865 
L 380.594421 -30.615667 
L 380.776286 -27.67847 
L 380.982703 -24.741273 
L 381.216138 -21.804076 
L 381.479167 -18.866878 
L 381.774461 -15.929681 
L 382.104764 -12.992484 
L 382.472869 -10.055287 
L 382.881589 -7.11809 
L 383.333724 -4.180892 
L 383.832023 -1.243695 
L 384.379148 1.693502 
L 384.977622 4.630699 
L 385.629791 7.567896 
L 386.337768 10.505094 
L 387.103387 13.442291 
L 387.928152 16.379488 
L 388.813182 19.316685 
L 389.759165 22.253882 
L 390.76631 25.19108 
L 391.834302 28.128277 
L 392.962264 31.065474 
L 394.148727 34.002671 
L 395.391595 36.939869 
L 396.688138 39.877066 
L 398.034974 42.814263 
L 399.428074 45.75146 
L 400.862772 48.688657 
L 402.333787 51.625855 
L 403.835256 54.563052 
L 405.360776 57.500249 
L 406.903462 60.437446 
L 408.456007 63.374643 
L 410.01076 66.311841 
L 411.559804 69.249038 
L 413.095047 72.186235 
L 414.608317 75.123432 
L 416.091454 78.060629 
L 417.536416 80.997827 
L 418.935372 83.935024 
L 420.280802 86.872221 
L 421.565589 89.809418 
L 422.783101 92.746615 
L 423.927277 95.683813 
L 424.992691 98.62101 
L 425.974609 101.558207 
L 426.869041 104.495404 
L 427.672769 107.432602 
L 428.383374 110.369799 
L 428.999237 113.306996 
L 429.51954 116.244193 
L 429.944242 119.18139 
L 430.274056 122.118588 
L 430.510403 125.055785 
L 430.655369 127.992982 
L 430.711641 130.930179 
L 430.682452 133.867376 
L 430.571507 136.804574 
L 430.382917 139.741771 
L 430.12113 142.678968 
L 429.790856 145.616165 
L 429.397006 148.553362 
L 428.944625 151.49056 
L 428.438833 154.427757 
L 427.884775 157.364954 
L 427.28757 160.302151 
L 426.652274 163.239349 
L 425.983845 166.176546 
L 425.287116 169.113743 
L 424.566772 172.05094 
L 423.827338 174.988137 
L 423.073164 177.925335 
L 422.308422 180.862532 
L 421.537097 183.799729 
L 420.762991 186.736926 
L 419.989715 189.674123 
L 419.220695 192.611321 
L 418.459168 195.548518 
L 417.708182 198.485715 
L 416.970589 201.422912 
L 416.249043 204.360109 
L 415.545993 207.297307 
L 414.863674 210.234504 
L 414.204096 213.171701 
L 413.569033 216.108898 
L 412.960009 219.046095 
L 412.378289 221.983293 
L 411.824864 224.92049 
L 411.300442 227.857687 
L 410.805436 230.794884 
L 410.339961 233.732082 
L 409.903827 236.669279 
L 409.49654 239.606476 
L 409.117305 242.543673 
L 408.765037 245.48087 
L 408.438367 248.418068 
L 408.135663 251.355265 
L 407.855048 254.292462 
L 407.594428 257.229659 
L 407.351514 260.166856 
L 407.123857 263.104054 
L 406.90888 266.041251 
L 406.703913 268.978448 
L 406.506228 271.915645 
L 406.313077 274.852842 
L 406.121727 277.79004 
L 405.929496 280.727237 
L 405.733785 283.664434 
L 405.532108 286.601631 
L 405.322124 289.538829 
L 405.101657 292.476026 
L 404.868724 295.413223 
L 404.621545 298.35042 
L 404.358562 301.287617 
L 404.078448 304.224815 
L 403.780111 307.162012 
L 403.462701 310.099209 
L 403.125602 313.036406 
L 402.768432 315.973603 
L 402.391038 318.910801 
L 401.993479 321.847998 
L 401.576021 324.785195 
L 401.139121 327.722392 
L 400.683412 330.659589 
L 400.209688 333.596787 
L 399.718889 336.533984 
L 399.212082 339.471181 
L 398.690449 342.408378 
L 398.155267 345.345575 
L 397.607897 348.282773 
L 397.049768 351.21997 
L 396.482361 354.157167 
L 395.907202 357.094364 
L 395.325845 360.031562 
L 394.739864 362.968759 
L 394.15084 365.905956 
L 393.560357 368.843153 
L 392.969986 371.78035 
L 392.381281 374.717548 
L 391.795771 377.654745 
L 391.214953 380.591942 
L 390.640279 383.529139 
L 390.073158 386.466336 
L 389.51494 389.403534 
L 388.966916 392.340731 
L 388.430308 395.277928 
L 387.906264 398.215125 
L 387.395849 401.152322 
L 386.900045 404.08952 
L 386.419741 407.026717 
L 385.955729 409.963914 
L 385.508702 412.901111 
L 385.079251 415.838309 
L 384.667857 418.775506 
L 384.2749 421.712703 
L 383.900647 424.6499 
L 383.545263 427.587097 
L 383.208804 430.524295 
L 382.891226 433.461492 
L 382.592387 436.398689 
L 382.31205 439.335886 
L 382.049892 442.273083 
L 381.805506 445.210281 
L 381.578414 448.147478 
L 381.368069 451.084675 
L 381.173867 454.021872 
L 380.995155 456.959069 
L 380.831237 459.896267 
L 380.681388 462.833464 
L 380.544856 465.770661 
L 380.420874 468.707858 
L 380.308669 471.645055 
L 380.207466 474.582253 
L 380.116498 477.51945 
L 380.035008 480.456647 
L 379.96226 483.393844 
L 379.89754 486.331042 
L 379.840162 489.268239 
L 379.789469 492.205436 
L 379.744838 495.142633 
L 379.705682 498.07983 
L 379.67145 501.017028 
L 379.641626 503.954225 
L 379.615735 506.891422 
L 379.593338 509.828619 
L 379.57403 512.765816 
L 379.557446 515.703014 
L 379.543251 518.640211 
L 379.531144 521.577408 
z
" clip-path="url(#p29b5fb0dc9)" style="fill: #1f77b4; fill-opacity: 0.25; stroke: #1f77b4"/>
   </g>
   <g id="matplotlib.axis_5">
    <g id="xtick_9"/>
    <g id="xtick_10"/>
   </g>
   <g id="matplotlib.axis_6">
    <g id="ytick_9">
     <g id="line2d_15">
      <g>
       <use xlink:href="#m6412e6e603" x="379.469464" y="353.112848" style="stroke: #000000; stroke-width: 0.8"/>
      </g>
     </g>
    </g>
    <g id="ytick_10">
     <g id="line2d_16">
      <g>
       <use xlink:href="#m6412e6e603" x="379.469464" y="305.502632" style="stroke: #000000; stroke-width: 0.8"/>
      </g>
     </g>
    </g>
    <g id="ytick_11">
     <g id="line2d_17">
      <g>
       <use xlink:href="#m6412e6e603" x="379.469464" y="257.892416" style="stroke: #000000; stroke-width: 0.8"/>
      </g>
     </g>
    </g>
    <g id="ytick_12">
     <g id="line2d_18">
      <g>
       <use xlink:href="#m6412e6e603" x="379.469464" y="210.282199" style="stroke: #000000; stroke-width: 0.8"/>
      </g>
     </g>
    </g>
    <g id="ytick_13">
     <g id="line2d_19">
      <g>
       <use xlink:href="#m6412e6e603" x="379.469464" y="162.671983" style="stroke: #000000; stroke-width: 0.8"/>
      </g>
     </g>
    </g>
    <g id="ytick_14">
     <g id="line2d_20">
      <g>
       <use xlink:href="#m6412e6e603" x="379.469464" y="115.061766" style="stroke: #000000; stroke-width: 0.8"/>
      </g>
     </g>
    </g>
   </g>
   <g id="patch_8">
    <path d="M 379.469464 386.44 
L 379.469464 72.212571 
" style="fill: none; stroke: #000000; stroke-width: 0.8; stroke-linejoin: miter; stroke-linecap: square"/>
   </g>
  </g>
 </g>
 <defs>
  <clipPath id="pf21ba24b55">
   <rect x="56.64375" y="72.212571" width="312.064857" height="314.227429"/>
  </clipPath>
  <clipPath id="p7dbafa8707">
   <rect x="56.64375" y="7.2" width="312.064857" height="54.177143"/>
  </clipPath>
  <clipPath id="p29b5fb0dc9">
   <rect x="379.469464" y="72.212571" width="53.804286" height="314.227429"/>
  </clipPath>
 </defs>
</svg>
