<?xml version="1.0" encoding="utf-8" standalone="no"?>
<!DOCTYPE svg PUBLIC "-//W3C//DTD SVG 1.1//EN"
  "http://www.w3.org/Graphics/SVG/1.1/DTD/svg11.dtd">
<svg xmlns:xlink="http://www.w3.org/1999/xlink" width="445.312812pt" height="443.3525pt" viewBox="0 0 445.312812 443.3525" xmlns="http://www.w3.org/2000/svg" version="1.1">
 <metadata>
  <rdf:RDF xmlns:dc="http://purl.org/dc/elements/1.1/" xmlns:cc="http://creativecommons.org/ns#" xmlns:rdf="http://www.w3.org/1999/02/22-rdf-syntax-ns#">
   <cc:Work>
    <dc:type rdf:resource="http://purl.org/dc/dcmitype/StillImage"/>
    <dc:date>2022-12-09T16:27:00.467635</dc:date>
    <dc:format>image/svg+xml</dc:format>
    <dc:creator>
     <cc:Agent>
      <dc:title>Matplotlib v3.6.2, https://matplotlib.org/</dc:title>
     </cc:Agent>
    </dc:creator>
   </cc:Work>
  </rdf:RDF>
 </metadata>
 <defs>
  <style type="text/css">*{stroke-linejoin: round; stroke-linecap: butt}</style>
 </defs>
 <g id="figure_1">
  <g id="patch_1">
   <path d="M 0 443.3525 
L 445.312812 443.3525 
L 445.312812 0 
L 0 0 
z
" style="fill: #ffffff"/>
  </g>
  <g id="axes_1">
   <g id="patch_2">
    <path d="M 61.482813 386.44 
L 373.54767 386.44 
L 373.54767 72.212571 
L 61.482813 72.212571 
z
" style="fill: #ffffff"/>
   </g>
   <g id="PathCollection_1">
    <defs>
     <path id="ma6ef72728c" d="M 0 5 
C 1.326016 5 2.597899 4.473168 3.535534 3.535534 
C 4.473168 2.597899 5 1.326016 5 0 
C 5 -1.326016 4.473168 -2.597899 3.535534 -3.535534 
C 2.597899 -4.473168 1.326016 -5 0 -5 
C -1.326016 -5 -2.597899 -4.473168 -3.535534 -3.535534 
C -4.473168 -2.597899 -5 -1.326016 -5 0 
C -5 1.326016 -4.473168 2.597899 -3.535534 3.535534 
C -2.597899 4.473168 -1.326016 5 0 5 
z
" style="stroke: #ffffff; stroke-opacity: 0.5; stroke-width: 0.8"/>
    </defs>
    <g clip-path="url(#pcc9bfc6a66)">
     <use xlink:href="#ma6ef72728c" x="76.758715" y="229.326286" style="fill: #1f77b4; fill-opacity: 0.5; stroke: #ffffff; stroke-opacity: 0.5; stroke-width: 0.8"/>
     <use xlink:href="#ma6ef72728c" x="85.487802" y="86.495636" style="fill: #1f77b4; fill-opacity: 0.5; stroke: #ffffff; stroke-opacity: 0.5; stroke-width: 0.8"/>
     <use xlink:href="#ma6ef72728c" x="84.396666" y="205.521177" style="fill: #1f77b4; fill-opacity: 0.5; stroke: #ffffff; stroke-opacity: 0.5; stroke-width: 0.8"/>
     <use xlink:href="#ma6ef72728c" x="75.667579" y="300.74161" style="fill: #1f77b4; fill-opacity: 0.5; stroke: #ffffff; stroke-opacity: 0.5; stroke-width: 0.8"/>
     <use xlink:href="#ma6ef72728c" x="76.758715" y="253.131394" style="fill: #1f77b4; fill-opacity: 0.5; stroke: #ffffff; stroke-opacity: 0.5; stroke-width: 0.8"/>
     <use xlink:href="#ma6ef72728c" x="76.758715" y="253.131394" style="fill: #1f77b4; fill-opacity: 0.5; stroke: #ffffff; stroke-opacity: 0.5; stroke-width: 0.8"/>
     <use xlink:href="#ma6ef72728c" x="75.667579" y="372.156935" style="fill: #1f77b4; fill-opacity: 0.5; stroke: #ffffff; stroke-opacity: 0.5; stroke-width: 0.8"/>
     <use xlink:href="#ma6ef72728c" x="359.362903" y="86.495636" style="fill: #1f77b4; fill-opacity: 0.5; stroke: #ffffff; stroke-opacity: 0.5; stroke-width: 0.8"/>
     <use xlink:href="#ma6ef72728c" x="104.037111" y="110.300745" style="fill: #1f77b4; fill-opacity: 0.5; stroke: #ffffff; stroke-opacity: 0.5; stroke-width: 0.8"/>
    </g>
   </g>
   <g id="matplotlib.axis_1">
    <g id="xtick_1">
     <g id="line2d_1">
      <defs>
       <path id="m117bcd9ce3" d="M 0 0 
L 0 3.5 
" style="stroke: #000000; stroke-width: 0.8"/>
      </defs>
      <g>
       <use xlink:href="#m117bcd9ce3" x="74.576443" y="386.44" style="stroke: #000000; stroke-width: 0.8"/>
      </g>
     </g>
     <g id="text_1">
      <!-- 0 -->
      <g transform="translate(69.804568 404.837656) scale(0.15 -0.15)">
       <defs>
        <path id="DejaVuSans-30" d="M 2034 4250 
Q 1547 4250 1301 3770 
Q 1056 3291 1056 2328 
Q 1056 1369 1301 889 
Q 1547 409 2034 409 
Q 2525 409 2770 889 
Q 3016 1369 3016 2328 
Q 3016 3291 2770 3770 
Q 2525 4250 2034 4250 
z
M 2034 4750 
Q 2819 4750 3233 4129 
Q 3647 3509 3647 2328 
Q 3647 1150 3233 529 
Q 2819 -91 2034 -91 
Q 1250 -91 836 529 
Q 422 1150 422 2328 
Q 422 3509 836 4129 
Q 1250 4750 2034 4750 
z
" transform="scale(0.015625)"/>
       </defs>
       <use xlink:href="#DejaVuSans-30"/>
      </g>
     </g>
    </g>
    <g id="xtick_2">
     <g id="line2d_2">
      <g>
       <use xlink:href="#m117bcd9ce3" x="129.133236" y="386.44" style="stroke: #000000; stroke-width: 0.8"/>
      </g>
     </g>
     <g id="text_2">
      <!-- 50 -->
      <g transform="translate(119.589486 404.837656) scale(0.15 -0.15)">
       <defs>
        <path id="DejaVuSans-35" d="M 691 4666 
L 3169 4666 
L 3169 4134 
L 1269 4134 
L 1269 2991 
Q 1406 3038 1543 3061 
Q 1681 3084 1819 3084 
Q 2600 3084 3056 2656 
Q 3513 2228 3513 1497 
Q 3513 744 3044 326 
Q 2575 -91 1722 -91 
Q 1428 -91 1123 -41 
Q 819 9 494 109 
L 494 744 
Q 775 591 1075 516 
Q 1375 441 1709 441 
Q 2250 441 2565 725 
Q 2881 1009 2881 1497 
Q 2881 1984 2565 2268 
Q 2250 2553 1709 2553 
Q 1456 2553 1204 2497 
Q 953 2441 691 2322 
L 691 4666 
z
" transform="scale(0.015625)"/>
       </defs>
       <use xlink:href="#DejaVuSans-35"/>
       <use xlink:href="#DejaVuSans-30" x="63.623047"/>
      </g>
     </g>
    </g>
    <g id="xtick_3">
     <g id="line2d_3">
      <g>
       <use xlink:href="#m117bcd9ce3" x="183.690029" y="386.44" style="stroke: #000000; stroke-width: 0.8"/>
      </g>
     </g>
     <g id="text_3">
      <!-- 100 -->
      <g transform="translate(169.374404 404.837656) scale(0.15 -0.15)">
       <defs>
        <path id="DejaVuSans-31" d="M 794 531 
L 1825 531 
L 1825 4091 
L 703 3866 
L 703 4441 
L 1819 4666 
L 2450 4666 
L 2450 531 
L 3481 531 
L 3481 0 
L 794 0 
L 794 531 
z
" transform="scale(0.015625)"/>
       </defs>
       <use xlink:href="#DejaVuSans-31"/>
       <use xlink:href="#DejaVuSans-30" x="63.623047"/>
       <use xlink:href="#DejaVuSans-30" x="127.246094"/>
      </g>
     </g>
    </g>
    <g id="xtick_4">
     <g id="line2d_4">
      <g>
       <use xlink:href="#m117bcd9ce3" x="238.246822" y="386.44" style="stroke: #000000; stroke-width: 0.8"/>
      </g>
     </g>
     <g id="text_4">
      <!-- 150 -->
      <g transform="translate(223.931197 404.837656) scale(0.15 -0.15)">
       <use xlink:href="#DejaVuSans-31"/>
       <use xlink:href="#DejaVuSans-35" x="63.623047"/>
       <use xlink:href="#DejaVuSans-30" x="127.246094"/>
      </g>
     </g>
    </g>
    <g id="xtick_5">
     <g id="line2d_5">
      <g>
       <use xlink:href="#m117bcd9ce3" x="292.803616" y="386.44" style="stroke: #000000; stroke-width: 0.8"/>
      </g>
     </g>
     <g id="text_5">
      <!-- 200 -->
      <g transform="translate(278.487991 404.837656) scale(0.15 -0.15)">
       <defs>
        <path id="DejaVuSans-32" d="M 1228 531 
L 3431 531 
L 3431 0 
L 469 0 
L 469 531 
Q 828 903 1448 1529 
Q 2069 2156 2228 2338 
Q 2531 2678 2651 2914 
Q 2772 3150 2772 3378 
Q 2772 3750 2511 3984 
Q 2250 4219 1831 4219 
Q 1534 4219 1204 4116 
Q 875 4013 500 3803 
L 500 4441 
Q 881 4594 1212 4672 
Q 1544 4750 1819 4750 
Q 2544 4750 2975 4387 
Q 3406 4025 3406 3419 
Q 3406 3131 3298 2873 
Q 3191 2616 2906 2266 
Q 2828 2175 2409 1742 
Q 1991 1309 1228 531 
z
" transform="scale(0.015625)"/>
       </defs>
       <use xlink:href="#DejaVuSans-32"/>
       <use xlink:href="#DejaVuSans-30" x="63.623047"/>
       <use xlink:href="#DejaVuSans-30" x="127.246094"/>
      </g>
     </g>
    </g>
    <g id="xtick_6">
     <g id="line2d_6">
      <g>
       <use xlink:href="#m117bcd9ce3" x="347.360409" y="386.44" style="stroke: #000000; stroke-width: 0.8"/>
      </g>
     </g>
     <g id="text_6">
      <!-- 250 -->
      <g transform="translate(333.044784 404.837656) scale(0.15 -0.15)">
       <use xlink:href="#DejaVuSans-32"/>
       <use xlink:href="#DejaVuSans-35" x="63.623047"/>
       <use xlink:href="#DejaVuSans-30" x="127.246094"/>
      </g>
     </g>
    </g>
    <g id="text_7">
     <!-- # Commits -->
     <g transform="translate(147.454694 430.953281) scale(0.25 -0.25)">
      <defs>
       <path id="DejaVuSans-23" d="M 3272 2816 
L 2363 2816 
L 2100 1772 
L 3016 1772 
L 3272 2816 
z
M 2803 4594 
L 2478 3297 
L 3391 3297 
L 3719 4594 
L 4219 4594 
L 3897 3297 
L 4872 3297 
L 4872 2816 
L 3775 2816 
L 3519 1772 
L 4513 1772 
L 4513 1294 
L 3397 1294 
L 3072 0 
L 2572 0 
L 2894 1294 
L 1978 1294 
L 1656 0 
L 1153 0 
L 1478 1294 
L 494 1294 
L 494 1772 
L 1594 1772 
L 1856 2816 
L 850 2816 
L 850 3297 
L 1978 3297 
L 2297 4594 
L 2803 4594 
z
" transform="scale(0.015625)"/>
       <path id="DejaVuSans-20" transform="scale(0.015625)"/>
       <path id="DejaVuSans-43" d="M 4122 4306 
L 4122 3641 
Q 3803 3938 3442 4084 
Q 3081 4231 2675 4231 
Q 1875 4231 1450 3742 
Q 1025 3253 1025 2328 
Q 1025 1406 1450 917 
Q 1875 428 2675 428 
Q 3081 428 3442 575 
Q 3803 722 4122 1019 
L 4122 359 
Q 3791 134 3420 21 
Q 3050 -91 2638 -91 
Q 1578 -91 968 557 
Q 359 1206 359 2328 
Q 359 3453 968 4101 
Q 1578 4750 2638 4750 
Q 3056 4750 3426 4639 
Q 3797 4528 4122 4306 
z
" transform="scale(0.015625)"/>
       <path id="DejaVuSans-6f" d="M 1959 3097 
Q 1497 3097 1228 2736 
Q 959 2375 959 1747 
Q 959 1119 1226 758 
Q 1494 397 1959 397 
Q 2419 397 2687 759 
Q 2956 1122 2956 1747 
Q 2956 2369 2687 2733 
Q 2419 3097 1959 3097 
z
M 1959 3584 
Q 2709 3584 3137 3096 
Q 3566 2609 3566 1747 
Q 3566 888 3137 398 
Q 2709 -91 1959 -91 
Q 1206 -91 779 398 
Q 353 888 353 1747 
Q 353 2609 779 3096 
Q 1206 3584 1959 3584 
z
" transform="scale(0.015625)"/>
       <path id="DejaVuSans-6d" d="M 3328 2828 
Q 3544 3216 3844 3400 
Q 4144 3584 4550 3584 
Q 5097 3584 5394 3201 
Q 5691 2819 5691 2113 
L 5691 0 
L 5113 0 
L 5113 2094 
Q 5113 2597 4934 2840 
Q 4756 3084 4391 3084 
Q 3944 3084 3684 2787 
Q 3425 2491 3425 1978 
L 3425 0 
L 2847 0 
L 2847 2094 
Q 2847 2600 2669 2842 
Q 2491 3084 2119 3084 
Q 1678 3084 1418 2786 
Q 1159 2488 1159 1978 
L 1159 0 
L 581 0 
L 581 3500 
L 1159 3500 
L 1159 2956 
Q 1356 3278 1631 3431 
Q 1906 3584 2284 3584 
Q 2666 3584 2933 3390 
Q 3200 3197 3328 2828 
z
" transform="scale(0.015625)"/>
       <path id="DejaVuSans-69" d="M 603 3500 
L 1178 3500 
L 1178 0 
L 603 0 
L 603 3500 
z
M 603 4863 
L 1178 4863 
L 1178 4134 
L 603 4134 
L 603 4863 
z
" transform="scale(0.015625)"/>
       <path id="DejaVuSans-74" d="M 1172 4494 
L 1172 3500 
L 2356 3500 
L 2356 3053 
L 1172 3053 
L 1172 1153 
Q 1172 725 1289 603 
Q 1406 481 1766 481 
L 2356 481 
L 2356 0 
L 1766 0 
Q 1100 0 847 248 
Q 594 497 594 1153 
L 594 3053 
L 172 3053 
L 172 3500 
L 594 3500 
L 594 4494 
L 1172 4494 
z
" transform="scale(0.015625)"/>
       <path id="DejaVuSans-73" d="M 2834 3397 
L 2834 2853 
Q 2591 2978 2328 3040 
Q 2066 3103 1784 3103 
Q 1356 3103 1142 2972 
Q 928 2841 928 2578 
Q 928 2378 1081 2264 
Q 1234 2150 1697 2047 
L 1894 2003 
Q 2506 1872 2764 1633 
Q 3022 1394 3022 966 
Q 3022 478 2636 193 
Q 2250 -91 1575 -91 
Q 1294 -91 989 -36 
Q 684 19 347 128 
L 347 722 
Q 666 556 975 473 
Q 1284 391 1588 391 
Q 1994 391 2212 530 
Q 2431 669 2431 922 
Q 2431 1156 2273 1281 
Q 2116 1406 1581 1522 
L 1381 1569 
Q 847 1681 609 1914 
Q 372 2147 372 2553 
Q 372 3047 722 3315 
Q 1072 3584 1716 3584 
Q 2034 3584 2315 3537 
Q 2597 3491 2834 3397 
z
" transform="scale(0.015625)"/>
      </defs>
      <use xlink:href="#DejaVuSans-23"/>
      <use xlink:href="#DejaVuSans-20" x="83.789062"/>
      <use xlink:href="#DejaVuSans-43" x="115.576172"/>
      <use xlink:href="#DejaVuSans-6f" x="185.400391"/>
      <use xlink:href="#DejaVuSans-6d" x="246.582031"/>
      <use xlink:href="#DejaVuSans-6d" x="343.994141"/>
      <use xlink:href="#DejaVuSans-69" x="441.40625"/>
      <use xlink:href="#DejaVuSans-74" x="469.189453"/>
      <use xlink:href="#DejaVuSans-73" x="508.398438"/>
     </g>
    </g>
   </g>
   <g id="matplotlib.axis_2">
    <g id="ytick_1">
     <g id="line2d_7">
      <defs>
       <path id="me4a5f72083" d="M 0 0 
L -3.5 0 
" style="stroke: #000000; stroke-width: 0.8"/>
      </defs>
      <g>
       <use xlink:href="#me4a5f72083" x="61.482813" y="348.351827" style="stroke: #000000; stroke-width: 0.8"/>
      </g>
     </g>
     <g id="text_8">
      <!-- 4 -->
      <g transform="translate(44.939063 354.050655) scale(0.15 -0.15)">
       <defs>
        <path id="DejaVuSans-34" d="M 2419 4116 
L 825 1625 
L 2419 1625 
L 2419 4116 
z
M 2253 4666 
L 3047 4666 
L 3047 1625 
L 3713 1625 
L 3713 1100 
L 3047 1100 
L 3047 0 
L 2419 0 
L 2419 1100 
L 313 1100 
L 313 1709 
L 2253 4666 
z
" transform="scale(0.015625)"/>
       </defs>
       <use xlink:href="#DejaVuSans-34"/>
      </g>
     </g>
    </g>
    <g id="ytick_2">
     <g id="line2d_8">
      <g>
       <use xlink:href="#me4a5f72083" x="61.482813" y="300.74161" style="stroke: #000000; stroke-width: 0.8"/>
      </g>
     </g>
     <g id="text_9">
      <!-- 6 -->
      <g transform="translate(44.939063 306.440439) scale(0.15 -0.15)">
       <defs>
        <path id="DejaVuSans-36" d="M 2113 2584 
Q 1688 2584 1439 2293 
Q 1191 2003 1191 1497 
Q 1191 994 1439 701 
Q 1688 409 2113 409 
Q 2538 409 2786 701 
Q 3034 994 3034 1497 
Q 3034 2003 2786 2293 
Q 2538 2584 2113 2584 
z
M 3366 4563 
L 3366 3988 
Q 3128 4100 2886 4159 
Q 2644 4219 2406 4219 
Q 1781 4219 1451 3797 
Q 1122 3375 1075 2522 
Q 1259 2794 1537 2939 
Q 1816 3084 2150 3084 
Q 2853 3084 3261 2657 
Q 3669 2231 3669 1497 
Q 3669 778 3244 343 
Q 2819 -91 2113 -91 
Q 1303 -91 875 529 
Q 447 1150 447 2328 
Q 447 3434 972 4092 
Q 1497 4750 2381 4750 
Q 2619 4750 2861 4703 
Q 3103 4656 3366 4563 
z
" transform="scale(0.015625)"/>
       </defs>
       <use xlink:href="#DejaVuSans-36"/>
      </g>
     </g>
    </g>
    <g id="ytick_3">
     <g id="line2d_9">
      <g>
       <use xlink:href="#me4a5f72083" x="61.482813" y="253.131394" style="stroke: #000000; stroke-width: 0.8"/>
      </g>
     </g>
     <g id="text_10">
      <!-- 8 -->
      <g transform="translate(44.939063 258.830222) scale(0.15 -0.15)">
       <defs>
        <path id="DejaVuSans-38" d="M 2034 2216 
Q 1584 2216 1326 1975 
Q 1069 1734 1069 1313 
Q 1069 891 1326 650 
Q 1584 409 2034 409 
Q 2484 409 2743 651 
Q 3003 894 3003 1313 
Q 3003 1734 2745 1975 
Q 2488 2216 2034 2216 
z
M 1403 2484 
Q 997 2584 770 2862 
Q 544 3141 544 3541 
Q 544 4100 942 4425 
Q 1341 4750 2034 4750 
Q 2731 4750 3128 4425 
Q 3525 4100 3525 3541 
Q 3525 3141 3298 2862 
Q 3072 2584 2669 2484 
Q 3125 2378 3379 2068 
Q 3634 1759 3634 1313 
Q 3634 634 3220 271 
Q 2806 -91 2034 -91 
Q 1263 -91 848 271 
Q 434 634 434 1313 
Q 434 1759 690 2068 
Q 947 2378 1403 2484 
z
M 1172 3481 
Q 1172 3119 1398 2916 
Q 1625 2713 2034 2713 
Q 2441 2713 2670 2916 
Q 2900 3119 2900 3481 
Q 2900 3844 2670 4047 
Q 2441 4250 2034 4250 
Q 1625 4250 1398 4047 
Q 1172 3844 1172 3481 
z
" transform="scale(0.015625)"/>
       </defs>
       <use xlink:href="#DejaVuSans-38"/>
      </g>
     </g>
    </g>
    <g id="ytick_4">
     <g id="line2d_10">
      <g>
       <use xlink:href="#me4a5f72083" x="61.482813" y="205.521177" style="stroke: #000000; stroke-width: 0.8"/>
      </g>
     </g>
     <g id="text_11">
      <!-- 10 -->
      <g transform="translate(35.395313 211.220006) scale(0.15 -0.15)">
       <use xlink:href="#DejaVuSans-31"/>
       <use xlink:href="#DejaVuSans-30" x="63.623047"/>
      </g>
     </g>
    </g>
    <g id="ytick_5">
     <g id="line2d_11">
      <g>
       <use xlink:href="#me4a5f72083" x="61.482813" y="157.910961" style="stroke: #000000; stroke-width: 0.8"/>
      </g>
     </g>
     <g id="text_12">
      <!-- 12 -->
      <g transform="translate(35.395313 163.609789) scale(0.15 -0.15)">
       <use xlink:href="#DejaVuSans-31"/>
       <use xlink:href="#DejaVuSans-32" x="63.623047"/>
      </g>
     </g>
    </g>
    <g id="ytick_6">
     <g id="line2d_12">
      <g>
       <use xlink:href="#me4a5f72083" x="61.482813" y="110.300745" style="stroke: #000000; stroke-width: 0.8"/>
      </g>
     </g>
     <g id="text_13">
      <!-- 14 -->
      <g transform="translate(35.395313 115.999573) scale(0.15 -0.15)">
       <use xlink:href="#DejaVuSans-31"/>
       <use xlink:href="#DejaVuSans-34" x="63.623047"/>
      </g>
     </g>
    </g>
    <g id="text_14">
     <!-- # Interacting authors -->
     <g transform="translate(26.196094 363.552848) rotate(-90) scale(0.25 -0.25)">
      <defs>
       <path id="DejaVuSans-49" d="M 628 4666 
L 1259 4666 
L 1259 0 
L 628 0 
L 628 4666 
z
" transform="scale(0.015625)"/>
       <path id="DejaVuSans-6e" d="M 3513 2113 
L 3513 0 
L 2938 0 
L 2938 2094 
Q 2938 2591 2744 2837 
Q 2550 3084 2163 3084 
Q 1697 3084 1428 2787 
Q 1159 2491 1159 1978 
L 1159 0 
L 581 0 
L 581 3500 
L 1159 3500 
L 1159 2956 
Q 1366 3272 1645 3428 
Q 1925 3584 2291 3584 
Q 2894 3584 3203 3211 
Q 3513 2838 3513 2113 
z
" transform="scale(0.015625)"/>
       <path id="DejaVuSans-65" d="M 3597 1894 
L 3597 1613 
L 953 1613 
Q 991 1019 1311 708 
Q 1631 397 2203 397 
Q 2534 397 2845 478 
Q 3156 559 3463 722 
L 3463 178 
Q 3153 47 2828 -22 
Q 2503 -91 2169 -91 
Q 1331 -91 842 396 
Q 353 884 353 1716 
Q 353 2575 817 3079 
Q 1281 3584 2069 3584 
Q 2775 3584 3186 3129 
Q 3597 2675 3597 1894 
z
M 3022 2063 
Q 3016 2534 2758 2815 
Q 2500 3097 2075 3097 
Q 1594 3097 1305 2825 
Q 1016 2553 972 2059 
L 3022 2063 
z
" transform="scale(0.015625)"/>
       <path id="DejaVuSans-72" d="M 2631 2963 
Q 2534 3019 2420 3045 
Q 2306 3072 2169 3072 
Q 1681 3072 1420 2755 
Q 1159 2438 1159 1844 
L 1159 0 
L 581 0 
L 581 3500 
L 1159 3500 
L 1159 2956 
Q 1341 3275 1631 3429 
Q 1922 3584 2338 3584 
Q 2397 3584 2469 3576 
Q 2541 3569 2628 3553 
L 2631 2963 
z
" transform="scale(0.015625)"/>
       <path id="DejaVuSans-61" d="M 2194 1759 
Q 1497 1759 1228 1600 
Q 959 1441 959 1056 
Q 959 750 1161 570 
Q 1363 391 1709 391 
Q 2188 391 2477 730 
Q 2766 1069 2766 1631 
L 2766 1759 
L 2194 1759 
z
M 3341 1997 
L 3341 0 
L 2766 0 
L 2766 531 
Q 2569 213 2275 61 
Q 1981 -91 1556 -91 
Q 1019 -91 701 211 
Q 384 513 384 1019 
Q 384 1609 779 1909 
Q 1175 2209 1959 2209 
L 2766 2209 
L 2766 2266 
Q 2766 2663 2505 2880 
Q 2244 3097 1772 3097 
Q 1472 3097 1187 3025 
Q 903 2953 641 2809 
L 641 3341 
Q 956 3463 1253 3523 
Q 1550 3584 1831 3584 
Q 2591 3584 2966 3190 
Q 3341 2797 3341 1997 
z
" transform="scale(0.015625)"/>
       <path id="DejaVuSans-63" d="M 3122 3366 
L 3122 2828 
Q 2878 2963 2633 3030 
Q 2388 3097 2138 3097 
Q 1578 3097 1268 2742 
Q 959 2388 959 1747 
Q 959 1106 1268 751 
Q 1578 397 2138 397 
Q 2388 397 2633 464 
Q 2878 531 3122 666 
L 3122 134 
Q 2881 22 2623 -34 
Q 2366 -91 2075 -91 
Q 1284 -91 818 406 
Q 353 903 353 1747 
Q 353 2603 823 3093 
Q 1294 3584 2113 3584 
Q 2378 3584 2631 3529 
Q 2884 3475 3122 3366 
z
" transform="scale(0.015625)"/>
       <path id="DejaVuSans-67" d="M 2906 1791 
Q 2906 2416 2648 2759 
Q 2391 3103 1925 3103 
Q 1463 3103 1205 2759 
Q 947 2416 947 1791 
Q 947 1169 1205 825 
Q 1463 481 1925 481 
Q 2391 481 2648 825 
Q 2906 1169 2906 1791 
z
M 3481 434 
Q 3481 -459 3084 -895 
Q 2688 -1331 1869 -1331 
Q 1566 -1331 1297 -1286 
Q 1028 -1241 775 -1147 
L 775 -588 
Q 1028 -725 1275 -790 
Q 1522 -856 1778 -856 
Q 2344 -856 2625 -561 
Q 2906 -266 2906 331 
L 2906 616 
Q 2728 306 2450 153 
Q 2172 0 1784 0 
Q 1141 0 747 490 
Q 353 981 353 1791 
Q 353 2603 747 3093 
Q 1141 3584 1784 3584 
Q 2172 3584 2450 3431 
Q 2728 3278 2906 2969 
L 2906 3500 
L 3481 3500 
L 3481 434 
z
" transform="scale(0.015625)"/>
       <path id="DejaVuSans-75" d="M 544 1381 
L 544 3500 
L 1119 3500 
L 1119 1403 
Q 1119 906 1312 657 
Q 1506 409 1894 409 
Q 2359 409 2629 706 
Q 2900 1003 2900 1516 
L 2900 3500 
L 3475 3500 
L 3475 0 
L 2900 0 
L 2900 538 
Q 2691 219 2414 64 
Q 2138 -91 1772 -91 
Q 1169 -91 856 284 
Q 544 659 544 1381 
z
M 1991 3584 
L 1991 3584 
z
" transform="scale(0.015625)"/>
       <path id="DejaVuSans-68" d="M 3513 2113 
L 3513 0 
L 2938 0 
L 2938 2094 
Q 2938 2591 2744 2837 
Q 2550 3084 2163 3084 
Q 1697 3084 1428 2787 
Q 1159 2491 1159 1978 
L 1159 0 
L 581 0 
L 581 4863 
L 1159 4863 
L 1159 2956 
Q 1366 3272 1645 3428 
Q 1925 3584 2291 3584 
Q 2894 3584 3203 3211 
Q 3513 2838 3513 2113 
z
" transform="scale(0.015625)"/>
      </defs>
      <use xlink:href="#DejaVuSans-23"/>
      <use xlink:href="#DejaVuSans-20" x="83.789062"/>
      <use xlink:href="#DejaVuSans-49" x="115.576172"/>
      <use xlink:href="#DejaVuSans-6e" x="145.068359"/>
      <use xlink:href="#DejaVuSans-74" x="208.447266"/>
      <use xlink:href="#DejaVuSans-65" x="247.65625"/>
      <use xlink:href="#DejaVuSans-72" x="309.179688"/>
      <use xlink:href="#DejaVuSans-61" x="350.292969"/>
      <use xlink:href="#DejaVuSans-63" x="411.572266"/>
      <use xlink:href="#DejaVuSans-74" x="466.552734"/>
      <use xlink:href="#DejaVuSans-69" x="505.761719"/>
      <use xlink:href="#DejaVuSans-6e" x="533.544922"/>
      <use xlink:href="#DejaVuSans-67" x="596.923828"/>
      <use xlink:href="#DejaVuSans-20" x="660.400391"/>
      <use xlink:href="#DejaVuSans-61" x="692.1875"/>
      <use xlink:href="#DejaVuSans-75" x="753.466797"/>
      <use xlink:href="#DejaVuSans-74" x="816.845703"/>
      <use xlink:href="#DejaVuSans-68" x="856.054688"/>
      <use xlink:href="#DejaVuSans-6f" x="919.433594"/>
      <use xlink:href="#DejaVuSans-72" x="980.615234"/>
      <use xlink:href="#DejaVuSans-73" x="1021.728516"/>
     </g>
    </g>
   </g>
   <g id="patch_3">
    <path d="M 61.482813 386.44 
L 61.482813 72.212571 
" style="fill: none; stroke: #000000; stroke-width: 0.8; stroke-linejoin: miter; stroke-linecap: square"/>
   </g>
   <g id="patch_4">
    <path d="M 61.482813 386.44 
L 373.54767 386.44 
" style="fill: none; stroke: #000000; stroke-width: 0.8; stroke-linejoin: miter; stroke-linecap: square"/>
   </g>
  </g>
  <g id="axes_2">
   <g id="patch_5">
    <path d="M 61.482813 61.377143 
L 373.54767 61.377143 
L 373.54767 7.2 
L 61.482813 7.2 
z
" style="fill: #ffffff"/>
   </g>
   <g id="PolyCollection_1">
    <path d="M -103.96928 60.920588 
L -103.96928 61.377143 
L -100.73828 61.377143 
L -97.50728 61.377143 
L -94.276279 61.377143 
L -91.045279 61.377143 
L -87.814279 61.377143 
L -84.583279 61.377143 
L -81.352279 61.377143 
L -78.121278 61.377143 
L -74.890278 61.377143 
L -71.659278 61.377143 
L -68.428278 61.377143 
L -65.197278 61.377143 
L -61.966277 61.377143 
L -58.735277 61.377143 
L -55.504277 61.377143 
L -52.273277 61.377143 
L -49.042276 61.377143 
L -45.811276 61.377143 
L -42.580276 61.377143 
L -39.349276 61.377143 
L -36.118276 61.377143 
L -32.887275 61.377143 
L -29.656275 61.377143 
L -26.425275 61.377143 
L -23.194275 61.377143 
L -19.963275 61.377143 
L -16.732274 61.377143 
L -13.501274 61.377143 
L -10.270274 61.377143 
L -7.039274 61.377143 
L -3.808273 61.377143 
L -0.577273 61.377143 
L 2.653727 61.377143 
L 5.884727 61.377143 
L 9.115727 61.377143 
L 12.346728 61.377143 
L 15.577728 61.377143 
L 18.808728 61.377143 
L 22.039728 61.377143 
L 25.270728 61.377143 
L 28.501729 61.377143 
L 31.732729 61.377143 
L 34.963729 61.377143 
L 38.194729 61.377143 
L 41.425729 61.377143 
L 44.65673 61.377143 
L 47.88773 61.377143 
L 51.11873 61.377143 
L 54.34973 61.377143 
L 57.580731 61.377143 
L 60.811731 61.377143 
L 64.042731 61.377143 
L 67.273731 61.377143 
L 70.504731 61.377143 
L 73.735732 61.377143 
L 76.966732 61.377143 
L 80.197732 61.377143 
L 83.428732 61.377143 
L 86.659732 61.377143 
L 89.890733 61.377143 
L 93.121733 61.377143 
L 96.352733 61.377143 
L 99.583733 61.377143 
L 102.814734 61.377143 
L 106.045734 61.377143 
L 109.276734 61.377143 
L 112.507734 61.377143 
L 115.738734 61.377143 
L 118.969735 61.377143 
L 122.200735 61.377143 
L 125.431735 61.377143 
L 128.662735 61.377143 
L 131.893735 61.377143 
L 135.124736 61.377143 
L 138.355736 61.377143 
L 141.586736 61.377143 
L 144.817736 61.377143 
L 148.048737 61.377143 
L 151.279737 61.377143 
L 154.510737 61.377143 
L 157.741737 61.377143 
L 160.972737 61.377143 
L 164.203738 61.377143 
L 167.434738 61.377143 
L 170.665738 61.377143 
L 173.896738 61.377143 
L 177.127738 61.377143 
L 180.358739 61.377143 
L 183.589739 61.377143 
L 186.820739 61.377143 
L 190.051739 61.377143 
L 193.282739 61.377143 
L 196.51374 61.377143 
L 199.74474 61.377143 
L 202.97574 61.377143 
L 206.20674 61.377143 
L 209.437741 61.377143 
L 212.668741 61.377143 
L 215.899741 61.377143 
L 219.130741 61.377143 
L 222.361741 61.377143 
L 225.592742 61.377143 
L 228.823742 61.377143 
L 232.054742 61.377143 
L 235.285742 61.377143 
L 238.516742 61.377143 
L 241.747743 61.377143 
L 244.978743 61.377143 
L 248.209743 61.377143 
L 251.440743 61.377143 
L 254.671744 61.377143 
L 257.902744 61.377143 
L 261.133744 61.377143 
L 264.364744 61.377143 
L 267.595744 61.377143 
L 270.826745 61.377143 
L 274.057745 61.377143 
L 277.288745 61.377143 
L 280.519745 61.377143 
L 283.750745 61.377143 
L 286.981746 61.377143 
L 290.212746 61.377143 
L 293.443746 61.377143 
L 296.674746 61.377143 
L 299.905746 61.377143 
L 303.136747 61.377143 
L 306.367747 61.377143 
L 309.598747 61.377143 
L 312.829747 61.377143 
L 316.060748 61.377143 
L 319.291748 61.377143 
L 322.522748 61.377143 
L 325.753748 61.377143 
L 328.984748 61.377143 
L 332.215749 61.377143 
L 335.446749 61.377143 
L 338.677749 61.377143 
L 341.908749 61.377143 
L 345.139749 61.377143 
L 348.37075 61.377143 
L 351.60175 61.377143 
L 354.83275 61.377143 
L 358.06375 61.377143 
L 361.294751 61.377143 
L 364.525751 61.377143 
L 367.756751 61.377143 
L 370.987751 61.377143 
L 374.218751 61.377143 
L 377.449752 61.377143 
L 380.680752 61.377143 
L 383.911752 61.377143 
L 387.142752 61.377143 
L 390.373752 61.377143 
L 393.604753 61.377143 
L 396.835753 61.377143 
L 400.066753 61.377143 
L 403.297753 61.377143 
L 406.528754 61.377143 
L 409.759754 61.377143 
L 412.990754 61.377143 
L 416.221754 61.377143 
L 419.452754 61.377143 
L 422.683755 61.377143 
L 425.914755 61.377143 
L 429.145755 61.377143 
L 432.376755 61.377143 
L 435.607755 61.377143 
L 438.838756 61.377143 
L 442.069756 61.377143 
L 445.300756 61.377143 
L 448.531756 61.377143 
L 451.762756 61.377143 
L 454.993757 61.377143 
L 458.224757 61.377143 
L 461.455757 61.377143 
L 464.686757 61.377143 
L 467.917758 61.377143 
L 471.148758 61.377143 
L 474.379758 61.377143 
L 477.610758 61.377143 
L 480.841758 61.377143 
L 484.072759 61.377143 
L 487.303759 61.377143 
L 490.534759 61.377143 
L 493.765759 61.377143 
L 496.996759 61.377143 
L 500.22776 61.377143 
L 503.45876 61.377143 
L 506.68976 61.377143 
L 509.92076 61.377143 
L 513.151761 61.377143 
L 516.382761 61.377143 
L 519.613761 61.377143 
L 522.844761 61.377143 
L 526.075761 61.377143 
L 529.306762 61.377143 
L 532.537762 61.377143 
L 535.768762 61.377143 
L 538.999762 61.377143 
L 538.999762 61.304649 
L 538.999762 61.304649 
L 535.768762 61.292035 
L 532.537762 61.277516 
L 529.306762 61.26086 
L 526.075761 61.241813 
L 522.844761 61.220105 
L 519.613761 61.195444 
L 516.382761 61.167522 
L 513.151761 61.136011 
L 509.92076 61.100571 
L 506.68976 61.060844 
L 503.45876 61.016462 
L 500.22776 60.967049 
L 496.996759 60.912222 
L 493.765759 60.851596 
L 490.534759 60.784793 
L 487.303759 60.711439 
L 484.072759 60.631176 
L 480.841758 60.543667 
L 477.610758 60.448599 
L 474.379758 60.345695 
L 471.148758 60.234718 
L 467.917758 60.115479 
L 464.686757 59.987846 
L 461.455757 59.851748 
L 458.224757 59.707188 
L 454.993757 59.554243 
L 451.762756 59.393076 
L 448.531756 59.223938 
L 445.300756 59.047174 
L 442.069756 58.86323 
L 438.838756 58.672649 
L 435.607755 58.47608 
L 432.376755 58.27427 
L 429.145755 58.06807 
L 425.914755 57.858427 
L 422.683755 57.646379 
L 419.452754 57.433053 
L 416.221754 57.219651 
L 412.990754 57.007442 
L 409.759754 56.797753 
L 406.528754 56.591953 
L 403.297753 56.391439 
L 400.066753 56.197623 
L 396.835753 56.011913 
L 393.604753 55.835697 
L 390.373752 55.670328 
L 387.142752 55.517102 
L 383.911752 55.377246 
L 380.680752 55.251898 
L 377.449752 55.142095 
L 374.218751 55.048752 
L 370.987751 54.972657 
L 367.756751 54.914452 
L 364.525751 54.874631 
L 361.294751 54.853523 
L 358.06375 54.851296 
L 354.83275 54.867947 
L 351.60175 54.903305 
L 348.37075 54.957029 
L 345.139749 55.028616 
L 341.908749 55.117401 
L 338.677749 55.222571 
L 335.446749 55.343168 
L 332.215749 55.478104 
L 328.984748 55.626173 
L 325.753748 55.786062 
L 322.522748 55.956364 
L 319.291748 56.135596 
L 316.060748 56.322208 
L 312.829747 56.514601 
L 309.598747 56.711134 
L 306.367747 56.910143 
L 303.136747 57.109945 
L 299.905746 57.308852 
L 296.674746 57.505174 
L 293.443746 57.697228 
L 290.212746 57.88334 
L 286.981746 58.061847 
L 283.750745 58.231096 
L 280.519745 58.389442 
L 277.288745 58.535245 
L 274.057745 58.666864 
L 270.826745 58.782647 
L 267.595744 58.880927 
L 264.364744 58.960008 
L 261.133744 59.018162 
L 257.902744 59.053611 
L 254.671744 59.064524 
L 251.440743 59.049007 
L 248.209743 59.005092 
L 244.978743 58.930736 
L 241.747743 58.823813 
L 238.516742 58.682117 
L 235.285742 58.50336 
L 232.054742 58.28518 
L 228.823742 58.025152 
L 225.592742 57.720794 
L 222.361741 57.369592 
L 219.130741 56.969022 
L 215.899741 56.516569 
L 212.668741 56.009768 
L 209.437741 55.446234 
L 206.20674 54.823705 
L 202.97574 54.140083 
L 199.74474 53.393485 
L 196.51374 52.582291 
L 193.282739 51.705201 
L 190.051739 50.761282 
L 186.820739 49.75003 
L 183.589739 48.67142 
L 180.358739 47.525959 
L 177.127738 46.314737 
L 173.896738 45.039471 
L 170.665738 43.702549 
L 167.434738 42.30706 
L 164.203738 40.856823 
L 160.972737 39.356402 
L 157.741737 37.811117 
L 154.510737 36.227038 
L 151.279737 34.610976 
L 148.048737 32.970446 
L 144.817736 31.313641 
L 141.586736 29.649369 
L 138.355736 27.986998 
L 135.124736 26.336374 
L 131.893735 24.707737 
L 128.662735 23.111621 
L 125.431735 21.55875 
L 122.200735 20.059922 
L 118.969735 18.625885 
L 115.738734 17.267218 
L 112.507734 15.994198 
L 109.276734 14.816677 
L 106.045734 13.743952 
L 102.814734 12.784646 
L 99.583733 11.946596 
L 96.352733 11.236742 
L 93.121733 10.661037 
L 89.890733 10.224358 
L 86.659732 9.930445 
L 83.428732 9.781843 
L 80.197732 9.779864 
L 76.966732 9.924574 
L 73.735732 10.214786 
L 70.504731 10.648079 
L 67.273731 11.22083 
L 64.042731 11.928268 
L 60.811731 12.764535 
L 57.580731 13.722771 
L 54.34973 14.795206 
L 51.11873 15.973267 
L 47.88773 17.247688 
L 44.65673 18.608636 
L 41.425729 20.045834 
L 38.194729 21.548691 
L 34.963729 23.10643 
L 31.732729 24.708215 
L 28.501729 26.343278 
L 25.270728 28.00103 
L 22.039728 29.671176 
L 18.808728 31.343814 
L 15.577728 33.009527 
L 12.346728 34.65946 
L 9.115727 36.285389 
L 5.884727 37.879775 
L 2.653727 39.435805 
L -0.577273 40.947426 
L -3.808273 42.409355 
L -7.039274 43.81709 
L -10.270274 45.166903 
L -13.501274 46.455821 
L -16.732274 47.681605 
L -19.963275 48.842714 
L -23.194275 49.938265 
L -26.425275 50.967989 
L -29.656275 51.93218 
L -32.887275 52.831638 
L -36.118276 53.667619 
L -39.349276 54.441775 
L -42.580276 55.156099 
L -45.811276 55.812867 
L -49.042276 56.414587 
L -52.273277 56.963946 
L -55.504277 57.463762 
L -58.735277 57.91694 
L -61.966277 58.326429 
L -65.197278 58.695188 
L -68.428278 59.026148 
L -71.659278 59.322192 
L -74.890278 59.586121 
L -78.121278 59.820641 
L -81.352279 60.028343 
L -84.583279 60.211691 
L -87.814279 60.373012 
L -91.045279 60.514494 
L -94.276279 60.638173 
L -97.50728 60.745942 
L -100.73828 60.839547 
L -103.96928 60.920588 
z
" clip-path="url(#p6ab6266a57)" style="fill: #1f77b4; fill-opacity: 0.25; stroke: #1f77b4"/>
   </g>
   <g id="matplotlib.axis_3">
    <g id="xtick_7">
     <g id="line2d_13">
      <g>
       <use xlink:href="#m117bcd9ce3" x="74.576443" y="61.377143" style="stroke: #000000; stroke-width: 0.8"/>
      </g>
     </g>
    </g>
    <g id="xtick_8">
     <g id="line2d_14">
      <g>
       <use xlink:href="#m117bcd9ce3" x="129.133236" y="61.377143" style="stroke: #000000; stroke-width: 0.8"/>
      </g>
     </g>
    </g>
    <g id="xtick_9">
     <g id="line2d_15">
      <g>
       <use xlink:href="#m117bcd9ce3" x="183.690029" y="61.377143" style="stroke: #000000; stroke-width: 0.8"/>
      </g>
     </g>
    </g>
    <g id="xtick_10">
     <g id="line2d_16">
      <g>
       <use xlink:href="#m117bcd9ce3" x="238.246822" y="61.377143" style="stroke: #000000; stroke-width: 0.8"/>
      </g>
     </g>
    </g>
    <g id="xtick_11">
     <g id="line2d_17">
      <g>
       <use xlink:href="#m117bcd9ce3" x="292.803616" y="61.377143" style="stroke: #000000; stroke-width: 0.8"/>
      </g>
     </g>
    </g>
    <g id="xtick_12">
     <g id="line2d_18">
      <g>
       <use xlink:href="#m117bcd9ce3" x="347.360409" y="61.377143" style="stroke: #000000; stroke-width: 0.8"/>
      </g>
     </g>
    </g>
   </g>
   <g id="matplotlib.axis_4">
    <g id="ytick_7"/>
    <g id="ytick_8"/>
   </g>
   <g id="patch_6">
    <path d="M 61.482813 61.377143 
L 373.54767 61.377143 
" style="fill: none; stroke: #000000; stroke-width: 0.8; stroke-linejoin: miter; stroke-linecap: square"/>
   </g>
  </g>
  <g id="axes_3">
   <g id="patch_7">
    <path d="M 384.308527 386.44 
L 438.112812 386.44 
L 438.112812 72.212571 
L 384.308527 72.212571 
z
" style="fill: #ffffff"/>
   </g>
   <g id="PolyCollection_2">
    <path d="M 384.429281 564.364946 
L 384.308527 564.364946 
L 384.308527 560.997723 
L 384.308527 557.630501 
L 384.308527 554.263278 
L 384.308527 550.896055 
L 384.308527 547.528832 
L 384.308527 544.16161 
L 384.308527 540.794387 
L 384.308527 537.427164 
L 384.308527 534.059942 
L 384.308527 530.692719 
L 384.308527 527.325496 
L 384.308527 523.958273 
L 384.308527 520.591051 
L 384.308527 517.223828 
L 384.308527 513.856605 
L 384.308527 510.489383 
L 384.308527 507.12216 
L 384.308527 503.754937 
L 384.308527 500.387714 
L 384.308527 497.020492 
L 384.308527 493.653269 
L 384.308527 490.286046 
L 384.308527 486.918824 
L 384.308527 483.551601 
L 384.308527 480.184378 
L 384.308527 476.817155 
L 384.308527 473.449933 
L 384.308527 470.08271 
L 384.308527 466.715487 
L 384.308527 463.348265 
L 384.308527 459.981042 
L 384.308527 456.613819 
L 384.308527 453.246596 
L 384.308527 449.879374 
L 384.308527 446.512151 
L 384.308527 443.144928 
L 384.308527 439.777706 
L 384.308527 436.410483 
L 384.308527 433.04326 
L 384.308527 429.676037 
L 384.308527 426.308815 
L 384.308527 422.941592 
L 384.308527 419.574369 
L 384.308527 416.207147 
L 384.308527 412.839924 
L 384.308527 409.472701 
L 384.308527 406.105478 
L 384.308527 402.738256 
L 384.308527 399.371033 
L 384.308527 396.00381 
L 384.308527 392.636587 
L 384.308527 389.269365 
L 384.308527 385.902142 
L 384.308527 382.534919 
L 384.308527 379.167697 
L 384.308527 375.800474 
L 384.308527 372.433251 
L 384.308527 369.066028 
L 384.308527 365.698806 
L 384.308527 362.331583 
L 384.308527 358.96436 
L 384.308527 355.597138 
L 384.308527 352.229915 
L 384.308527 348.862692 
L 384.308527 345.495469 
L 384.308527 342.128247 
L 384.308527 338.761024 
L 384.308527 335.393801 
L 384.308527 332.026579 
L 384.308527 328.659356 
L 384.308527 325.292133 
L 384.308527 321.92491 
L 384.308527 318.557688 
L 384.308527 315.190465 
L 384.308527 311.823242 
L 384.308527 308.45602 
L 384.308527 305.088797 
L 384.308527 301.721574 
L 384.308527 298.354351 
L 384.308527 294.987129 
L 384.308527 291.619906 
L 384.308527 288.252683 
L 384.308527 284.885461 
L 384.308527 281.518238 
L 384.308527 278.151015 
L 384.308527 274.783792 
L 384.308527 271.41657 
L 384.308527 268.049347 
L 384.308527 264.682124 
L 384.308527 261.314902 
L 384.308527 257.947679 
L 384.308527 254.580456 
L 384.308527 251.213233 
L 384.308527 247.846011 
L 384.308527 244.478788 
L 384.308527 241.111565 
L 384.308527 237.744343 
L 384.308527 234.37712 
L 384.308527 231.009897 
L 384.308527 227.642674 
L 384.308527 224.275452 
L 384.308527 220.908229 
L 384.308527 217.541006 
L 384.308527 214.173783 
L 384.308527 210.806561 
L 384.308527 207.439338 
L 384.308527 204.072115 
L 384.308527 200.704893 
L 384.308527 197.33767 
L 384.308527 193.970447 
L 384.308527 190.603224 
L 384.308527 187.236002 
L 384.308527 183.868779 
L 384.308527 180.501556 
L 384.308527 177.134334 
L 384.308527 173.767111 
L 384.308527 170.399888 
L 384.308527 167.032665 
L 384.308527 163.665443 
L 384.308527 160.29822 
L 384.308527 156.930997 
L 384.308527 153.563775 
L 384.308527 150.196552 
L 384.308527 146.829329 
L 384.308527 143.462106 
L 384.308527 140.094884 
L 384.308527 136.727661 
L 384.308527 133.360438 
L 384.308527 129.993216 
L 384.308527 126.625993 
L 384.308527 123.25877 
L 384.308527 119.891547 
L 384.308527 116.524325 
L 384.308527 113.157102 
L 384.308527 109.789879 
L 384.308527 106.422657 
L 384.308527 103.055434 
L 384.308527 99.688211 
L 384.308527 96.320988 
L 384.308527 92.953766 
L 384.308527 89.586543 
L 384.308527 86.21932 
L 384.308527 82.852098 
L 384.308527 79.484875 
L 384.308527 76.117652 
L 384.308527 72.750429 
L 384.308527 69.383207 
L 384.308527 66.015984 
L 384.308527 62.648761 
L 384.308527 59.281539 
L 384.308527 55.914316 
L 384.308527 52.547093 
L 384.308527 49.17987 
L 384.308527 45.812648 
L 384.308527 42.445425 
L 384.308527 39.078202 
L 384.308527 35.710979 
L 384.308527 32.343757 
L 384.308527 28.976534 
L 384.308527 25.609311 
L 384.308527 22.242089 
L 384.308527 18.874866 
L 384.308527 15.507643 
L 384.308527 12.14042 
L 384.308527 8.773198 
L 384.308527 5.405975 
L 384.308527 2.038752 
L 384.308527 -1.32847 
L 384.308527 -4.695693 
L 384.308527 -8.062916 
L 384.308527 -11.430139 
L 384.308527 -14.797361 
L 384.308527 -18.164584 
L 384.308527 -21.531807 
L 384.308527 -24.899029 
L 384.308527 -28.266252 
L 384.308527 -31.633475 
L 384.308527 -35.000698 
L 384.308527 -38.36792 
L 384.308527 -41.735143 
L 384.308527 -45.102366 
L 384.308527 -48.469588 
L 384.308527 -51.836811 
L 384.308527 -55.204034 
L 384.308527 -58.571257 
L 384.308527 -61.938479 
L 384.308527 -65.305702 
L 384.308527 -68.672925 
L 384.308527 -72.040147 
L 384.308527 -75.40737 
L 384.308527 -78.774593 
L 384.308527 -82.141816 
L 384.308527 -85.509038 
L 384.308527 -88.876261 
L 384.308527 -92.243484 
L 384.308527 -95.610706 
L 384.308527 -98.977929 
L 384.308527 -102.345152 
L 384.308527 -105.712375 
L 384.581522 -105.712375 
L 384.581522 -105.712375 
L 384.62855 -102.345152 
L 384.682662 -98.977929 
L 384.744739 -95.610706 
L 384.815738 -92.243484 
L 384.896697 -88.876261 
L 384.988732 -85.509038 
L 385.093042 -82.141816 
L 385.210903 -78.774593 
L 385.343665 -75.40737 
L 385.492754 -72.040147 
L 385.65966 -68.672925 
L 385.845932 -65.305702 
L 386.053169 -61.938479 
L 386.283009 -58.571257 
L 386.537114 -55.204034 
L 386.817157 -51.836811 
L 387.124803 -48.469588 
L 387.46169 -45.102366 
L 387.82941 -41.735143 
L 388.229482 -38.36792 
L 388.663331 -35.000698 
L 389.132262 -31.633475 
L 389.637432 -28.266252 
L 390.179822 -24.899029 
L 390.760213 -21.531807 
L 391.379156 -18.164584 
L 392.036945 -14.797361 
L 392.733597 -11.430139 
L 393.468823 -8.062916 
L 394.24201 -4.695693 
L 395.052205 -1.32847 
L 395.898101 2.038752 
L 396.778026 5.405975 
L 397.689939 8.773198 
L 398.631433 12.14042 
L 399.599738 15.507643 
L 400.591737 18.874866 
L 401.603982 22.242089 
L 402.63272 25.609311 
L 403.673925 28.976534 
L 404.723334 32.343757 
L 405.77649 35.710979 
L 406.828792 39.078202 
L 407.875549 42.445425 
L 408.912035 45.812648 
L 409.933552 49.17987 
L 410.935491 52.547093 
L 411.9134 55.914316 
L 412.863045 59.281539 
L 413.780478 62.648761 
L 414.662092 66.015984 
L 415.504685 69.383207 
L 416.305513 72.750429 
L 417.062332 76.117652 
L 417.773445 79.484875 
L 418.437731 82.852098 
L 419.054668 86.21932 
L 419.62435 89.586543 
L 420.147489 92.953766 
L 420.625411 96.320988 
L 421.060034 99.688211 
L 421.453845 103.055434 
L 421.809862 106.422657 
L 422.131581 109.789879 
L 422.422926 113.157102 
L 422.688179 116.524325 
L 422.931906 119.891547 
L 423.158886 123.25877 
L 423.374018 126.625993 
L 423.582244 129.993216 
L 423.788453 133.360438 
L 423.9974 136.727661 
L 424.213613 140.094884 
L 424.441316 143.462106 
L 424.684347 146.829329 
L 424.946088 150.196552 
L 425.229399 153.563775 
L 425.536564 156.930997 
L 425.869242 160.29822 
L 426.228438 163.665443 
L 426.614473 167.032665 
L 427.026975 170.399888 
L 427.464879 173.767111 
L 427.926438 177.134334 
L 428.409246 180.501556 
L 428.910274 183.868779 
L 429.425916 187.236002 
L 429.952038 190.603224 
L 430.484048 193.970447 
L 431.016964 197.33767 
L 431.545488 200.704893 
L 432.064091 204.072115 
L 432.567095 207.439338 
L 433.048758 210.806561 
L 433.503363 214.173783 
L 433.925298 217.541006 
L 434.309143 220.908229 
L 434.649741 224.275452 
L 434.942276 227.642674 
L 435.182333 231.009897 
L 435.36596 234.37712 
L 435.489714 237.744343 
L 435.550704 241.111565 
L 435.546618 244.478788 
L 435.475748 247.846011 
L 435.337001 251.213233 
L 435.129895 254.580456 
L 434.854558 257.947679 
L 434.511707 261.314902 
L 434.102623 264.682124 
L 433.629117 268.049347 
L 433.093494 271.41657 
L 432.498501 274.783792 
L 431.847281 278.151015 
L 431.143316 281.518238 
L 430.390372 284.885461 
L 429.592436 288.252683 
L 428.753662 291.619906 
L 427.878308 294.987129 
L 426.970681 298.354351 
L 426.035082 301.721574 
L 425.075754 305.088797 
L 424.096839 308.45602 
L 423.102328 311.823242 
L 422.096032 315.190465 
L 421.081546 318.557688 
L 420.062225 321.92491 
L 419.041163 325.292133 
L 418.021183 328.659356 
L 417.004825 332.026579 
L 415.994348 335.393801 
L 414.99173 338.761024 
L 413.998678 342.128247 
L 413.01664 345.495469 
L 412.046819 348.862692 
L 411.090198 352.229915 
L 410.147553 355.597138 
L 409.219484 358.96436 
L 408.306436 362.331583 
L 407.408726 365.698806 
L 406.526563 369.066028 
L 405.660081 372.433251 
L 404.809352 375.800474 
L 403.974415 379.167697 
L 403.155292 382.534919 
L 402.352005 385.902142 
L 401.56459 389.269365 
L 400.79311 392.636587 
L 400.037663 396.00381 
L 399.298387 399.371033 
L 398.575464 402.738256 
L 397.869122 406.105478 
L 397.179631 409.472701 
L 396.507298 412.839924 
L 395.852467 416.207147 
L 395.215505 419.574369 
L 394.596797 422.941592 
L 393.996734 426.308815 
L 393.415708 429.676037 
L 392.854094 433.04326 
L 392.312248 436.410483 
L 391.790489 439.777706 
L 391.289098 443.144928 
L 390.808304 446.512151 
L 390.348276 449.879374 
L 389.909122 453.246596 
L 389.49088 456.613819 
L 389.093516 459.981042 
L 388.716921 463.348265 
L 388.36091 466.715487 
L 388.025225 470.08271 
L 387.709535 473.449933 
L 387.413436 476.817155 
L 387.136461 480.184378 
L 386.878081 483.551601 
L 386.637711 486.918824 
L 386.414718 490.286046 
L 386.208425 493.653269 
L 386.01812 497.020492 
L 385.843062 500.387714 
L 385.68249 503.754937 
L 385.535628 507.12216 
L 385.401692 510.489383 
L 385.279898 513.856605 
L 385.169466 517.223828 
L 385.069628 520.591051 
L 384.979631 523.958273 
L 384.898741 527.325496 
L 384.82625 530.692719 
L 384.761475 534.059942 
L 384.703766 537.427164 
L 384.652502 540.794387 
L 384.607097 544.16161 
L 384.567 547.528832 
L 384.531695 550.896055 
L 384.500699 554.263278 
L 384.473567 557.630501 
L 384.449887 560.997723 
L 384.429281 564.364946 
z
" clip-path="url(#pba5f648e68)" style="fill: #1f77b4; fill-opacity: 0.25; stroke: #1f77b4"/>
   </g>
   <g id="matplotlib.axis_5">
    <g id="xtick_13"/>
    <g id="xtick_14"/>
   </g>
   <g id="matplotlib.axis_6">
    <g id="ytick_9">
     <g id="line2d_19">
      <g>
       <use xlink:href="#me4a5f72083" x="384.308527" y="348.351827" style="stroke: #000000; stroke-width: 0.8"/>
      </g>
     </g>
    </g>
    <g id="ytick_10">
     <g id="line2d_20">
      <g>
       <use xlink:href="#me4a5f72083" x="384.308527" y="300.74161" style="stroke: #000000; stroke-width: 0.8"/>
      </g>
     </g>
    </g>
    <g id="ytick_11">
     <g id="line2d_21">
      <g>
       <use xlink:href="#me4a5f72083" x="384.308527" y="253.131394" style="stroke: #000000; stroke-width: 0.8"/>
      </g>
     </g>
    </g>
    <g id="ytick_12">
     <g id="line2d_22">
      <g>
       <use xlink:href="#me4a5f72083" x="384.308527" y="205.521177" style="stroke: #000000; stroke-width: 0.8"/>
      </g>
     </g>
    </g>
    <g id="ytick_13">
     <g id="line2d_23">
      <g>
       <use xlink:href="#me4a5f72083" x="384.308527" y="157.910961" style="stroke: #000000; stroke-width: 0.8"/>
      </g>
     </g>
    </g>
    <g id="ytick_14">
     <g id="line2d_24">
      <g>
       <use xlink:href="#me4a5f72083" x="384.308527" y="110.300745" style="stroke: #000000; stroke-width: 0.8"/>
      </g>
     </g>
    </g>
   </g>
   <g id="patch_8">
    <path d="M 384.308527 386.44 
L 384.308527 72.212571 
" style="fill: none; stroke: #000000; stroke-width: 0.8; stroke-linejoin: miter; stroke-linecap: square"/>
   </g>
  </g>
 </g>
 <defs>
  <clipPath id="pcc9bfc6a66">
   <rect x="61.482813" y="72.212571" width="312.064857" height="314.227429"/>
  </clipPath>
  <clipPath id="p6ab6266a57">
   <rect x="61.482813" y="7.2" width="312.064857" height="54.177143"/>
  </clipPath>
  <clipPath id="pba5f648e68">
   <rect x="384.308527" y="72.212571" width="53.804286" height="314.227429"/>
  </clipPath>
 </defs>
</svg>
