<?xml version="1.0" encoding="utf-8" standalone="no"?>
<!DOCTYPE svg PUBLIC "-//W3C//DTD SVG 1.1//EN"
  "http://www.w3.org/Graphics/SVG/1.1/DTD/svg11.dtd">
<svg xmlns:xlink="http://www.w3.org/1999/xlink" width="440.47375pt" height="438.513437pt" viewBox="0 0 440.47375 438.513437" xmlns="http://www.w3.org/2000/svg" version="1.1">
 <metadata>
  <rdf:RDF xmlns:dc="http://purl.org/dc/elements/1.1/" xmlns:cc="http://creativecommons.org/ns#" xmlns:rdf="http://www.w3.org/1999/02/22-rdf-syntax-ns#">
   <cc:Work>
    <dc:type rdf:resource="http://purl.org/dc/dcmitype/StillImage"/>
    <dc:date>2022-02-23T14:19:59.281032</dc:date>
    <dc:format>image/svg+xml</dc:format>
    <dc:creator>
     <cc:Agent>
      <dc:title>Matplotlib v3.5.1, https://matplotlib.org/</dc:title>
     </cc:Agent>
    </dc:creator>
   </cc:Work>
  </rdf:RDF>
 </metadata>
 <defs>
  <style type="text/css">*{stroke-linejoin: round; stroke-linecap: butt}</style>
 </defs>
 <g id="figure_1">
  <g id="patch_1">
   <path d="M 0 438.513437 
L 440.47375 438.513437 
L 440.47375 0 
L 0 0 
z
" style="fill: #ffffff"/>
  </g>
  <g id="axes_1">
   <g id="patch_2">
    <path d="M 56.64375 386.44 
L 368.708607 386.44 
L 368.708607 72.212571 
L 56.64375 72.212571 
z
" style="fill: #ffffff"/>
   </g>
   <g id="PathCollection_1">
    <defs>
     <path id="m88b28ab1f3" d="M 0 4.330127 
C 1.148363 4.330127 2.249847 3.873878 3.061862 3.061862 
C 3.873878 2.249847 4.330127 1.148363 4.330127 0 
C 4.330127 -1.148363 3.873878 -2.249847 3.061862 -3.061862 
C 2.249847 -3.873878 1.148363 -4.330127 0 -4.330127 
C -1.148363 -4.330127 -2.249847 -3.873878 -3.061862 -3.061862 
C -3.873878 -2.249847 -4.330127 -1.148363 -4.330127 0 
C -4.330127 1.148363 -3.873878 2.249847 -3.061862 3.061862 
C -2.249847 3.873878 -1.148363 4.330127 0 4.330127 
z
" style="stroke: #ffffff; stroke-opacity: 0.5; stroke-width: 0.69282"/>
    </defs>
    <g clip-path="url(#p79014f4761)">
     <use xlink:href="#m88b28ab1f3" x="71.919652" y="324.546719" style="fill: #1f77b4; fill-opacity: 0.5; stroke: #ffffff; stroke-opacity: 0.5; stroke-width: 0.69282"/>
     <use xlink:href="#m88b28ab1f3" x="79.557603" y="253.131394" style="fill: #1f77b4; fill-opacity: 0.5; stroke: #ffffff; stroke-opacity: 0.5; stroke-width: 0.69282"/>
     <use xlink:href="#m88b28ab1f3" x="100.289185" y="134.105853" style="fill: #1f77b4; fill-opacity: 0.5; stroke: #ffffff; stroke-opacity: 0.5; stroke-width: 0.69282"/>
     <use xlink:href="#m88b28ab1f3" x="70.828516" y="372.156935" style="fill: #1f77b4; fill-opacity: 0.5; stroke: #ffffff; stroke-opacity: 0.5; stroke-width: 0.69282"/>
     <use xlink:href="#m88b28ab1f3" x="71.919652" y="348.351827" style="fill: #1f77b4; fill-opacity: 0.5; stroke: #ffffff; stroke-opacity: 0.5; stroke-width: 0.69282"/>
     <use xlink:href="#m88b28ab1f3" x="80.648739" y="110.300745" style="fill: #1f77b4; fill-opacity: 0.5; stroke: #ffffff; stroke-opacity: 0.5; stroke-width: 0.69282"/>
     <use xlink:href="#m88b28ab1f3" x="354.523841" y="86.495636" style="fill: #1f77b4; fill-opacity: 0.5; stroke: #ffffff; stroke-opacity: 0.5; stroke-width: 0.69282"/>
     <use xlink:href="#m88b28ab1f3" x="70.828516" y="300.74161" style="fill: #1f77b4; fill-opacity: 0.5; stroke: #ffffff; stroke-opacity: 0.5; stroke-width: 0.69282"/>
     <use xlink:href="#m88b28ab1f3" x="71.919652" y="253.131394" style="fill: #1f77b4; fill-opacity: 0.5; stroke: #ffffff; stroke-opacity: 0.5; stroke-width: 0.69282"/>
    </g>
   </g>
   <g id="matplotlib.axis_1">
    <g id="xtick_1">
     <g id="line2d_1">
      <defs>
       <path id="mdef7dba92c" d="M 0 0 
L 0 3.5 
" style="stroke: #000000; stroke-width: 0.8"/>
      </defs>
      <g>
       <use xlink:href="#mdef7dba92c" x="69.73738" y="386.44" style="stroke: #000000; stroke-width: 0.8"/>
      </g>
     </g>
     <g id="text_1">
      <!-- 0 -->
      <g transform="translate(64.965505 404.837656)scale(0.15 -0.15)">
       <defs>
        <path id="DejaVuSans-30" d="M 2034 4250 
Q 1547 4250 1301 3770 
Q 1056 3291 1056 2328 
Q 1056 1369 1301 889 
Q 1547 409 2034 409 
Q 2525 409 2770 889 
Q 3016 1369 3016 2328 
Q 3016 3291 2770 3770 
Q 2525 4250 2034 4250 
z
M 2034 4750 
Q 2819 4750 3233 4129 
Q 3647 3509 3647 2328 
Q 3647 1150 3233 529 
Q 2819 -91 2034 -91 
Q 1250 -91 836 529 
Q 422 1150 422 2328 
Q 422 3509 836 4129 
Q 1250 4750 2034 4750 
z
" transform="scale(0.015625)"/>
       </defs>
       <use xlink:href="#DejaVuSans-30"/>
      </g>
     </g>
    </g>
    <g id="xtick_2">
     <g id="line2d_2">
      <g>
       <use xlink:href="#mdef7dba92c" x="124.294174" y="386.44" style="stroke: #000000; stroke-width: 0.8"/>
      </g>
     </g>
     <g id="text_2">
      <!-- 50 -->
      <g transform="translate(114.750424 404.837656)scale(0.15 -0.15)">
       <defs>
        <path id="DejaVuSans-35" d="M 691 4666 
L 3169 4666 
L 3169 4134 
L 1269 4134 
L 1269 2991 
Q 1406 3038 1543 3061 
Q 1681 3084 1819 3084 
Q 2600 3084 3056 2656 
Q 3513 2228 3513 1497 
Q 3513 744 3044 326 
Q 2575 -91 1722 -91 
Q 1428 -91 1123 -41 
Q 819 9 494 109 
L 494 744 
Q 775 591 1075 516 
Q 1375 441 1709 441 
Q 2250 441 2565 725 
Q 2881 1009 2881 1497 
Q 2881 1984 2565 2268 
Q 2250 2553 1709 2553 
Q 1456 2553 1204 2497 
Q 953 2441 691 2322 
L 691 4666 
z
" transform="scale(0.015625)"/>
       </defs>
       <use xlink:href="#DejaVuSans-35"/>
       <use xlink:href="#DejaVuSans-30" x="63.623047"/>
      </g>
     </g>
    </g>
    <g id="xtick_3">
     <g id="line2d_3">
      <g>
       <use xlink:href="#mdef7dba92c" x="178.850967" y="386.44" style="stroke: #000000; stroke-width: 0.8"/>
      </g>
     </g>
     <g id="text_3">
      <!-- 100 -->
      <g transform="translate(164.535342 404.837656)scale(0.15 -0.15)">
       <defs>
        <path id="DejaVuSans-31" d="M 794 531 
L 1825 531 
L 1825 4091 
L 703 3866 
L 703 4441 
L 1819 4666 
L 2450 4666 
L 2450 531 
L 3481 531 
L 3481 0 
L 794 0 
L 794 531 
z
" transform="scale(0.015625)"/>
       </defs>
       <use xlink:href="#DejaVuSans-31"/>
       <use xlink:href="#DejaVuSans-30" x="63.623047"/>
       <use xlink:href="#DejaVuSans-30" x="127.246094"/>
      </g>
     </g>
    </g>
    <g id="xtick_4">
     <g id="line2d_4">
      <g>
       <use xlink:href="#mdef7dba92c" x="233.40776" y="386.44" style="stroke: #000000; stroke-width: 0.8"/>
      </g>
     </g>
     <g id="text_4">
      <!-- 150 -->
      <g transform="translate(219.092135 404.837656)scale(0.15 -0.15)">
       <use xlink:href="#DejaVuSans-31"/>
       <use xlink:href="#DejaVuSans-35" x="63.623047"/>
       <use xlink:href="#DejaVuSans-30" x="127.246094"/>
      </g>
     </g>
    </g>
    <g id="xtick_5">
     <g id="line2d_5">
      <g>
       <use xlink:href="#mdef7dba92c" x="287.964553" y="386.44" style="stroke: #000000; stroke-width: 0.8"/>
      </g>
     </g>
     <g id="text_5">
      <!-- 200 -->
      <g transform="translate(273.648928 404.837656)scale(0.15 -0.15)">
       <defs>
        <path id="DejaVuSans-32" d="M 1228 531 
L 3431 531 
L 3431 0 
L 469 0 
L 469 531 
Q 828 903 1448 1529 
Q 2069 2156 2228 2338 
Q 2531 2678 2651 2914 
Q 2772 3150 2772 3378 
Q 2772 3750 2511 3984 
Q 2250 4219 1831 4219 
Q 1534 4219 1204 4116 
Q 875 4013 500 3803 
L 500 4441 
Q 881 4594 1212 4672 
Q 1544 4750 1819 4750 
Q 2544 4750 2975 4387 
Q 3406 4025 3406 3419 
Q 3406 3131 3298 2873 
Q 3191 2616 2906 2266 
Q 2828 2175 2409 1742 
Q 1991 1309 1228 531 
z
" transform="scale(0.015625)"/>
       </defs>
       <use xlink:href="#DejaVuSans-32"/>
       <use xlink:href="#DejaVuSans-30" x="63.623047"/>
       <use xlink:href="#DejaVuSans-30" x="127.246094"/>
      </g>
     </g>
    </g>
    <g id="xtick_6">
     <g id="line2d_6">
      <g>
       <use xlink:href="#mdef7dba92c" x="342.521346" y="386.44" style="stroke: #000000; stroke-width: 0.8"/>
      </g>
     </g>
     <g id="text_6">
      <!-- 250 -->
      <g transform="translate(328.205721 404.837656)scale(0.15 -0.15)">
       <use xlink:href="#DejaVuSans-32"/>
       <use xlink:href="#DejaVuSans-35" x="63.623047"/>
       <use xlink:href="#DejaVuSans-30" x="127.246094"/>
      </g>
     </g>
    </g>
    <g id="text_7">
     <!-- # Commits -->
     <g transform="translate(156.627741 427.154062)scale(0.2 -0.2)">
      <defs>
       <path id="DejaVuSans-23" d="M 3272 2816 
L 2363 2816 
L 2100 1772 
L 3016 1772 
L 3272 2816 
z
M 2803 4594 
L 2478 3297 
L 3391 3297 
L 3719 4594 
L 4219 4594 
L 3897 3297 
L 4872 3297 
L 4872 2816 
L 3775 2816 
L 3519 1772 
L 4513 1772 
L 4513 1294 
L 3397 1294 
L 3072 0 
L 2572 0 
L 2894 1294 
L 1978 1294 
L 1656 0 
L 1153 0 
L 1478 1294 
L 494 1294 
L 494 1772 
L 1594 1772 
L 1856 2816 
L 850 2816 
L 850 3297 
L 1978 3297 
L 2297 4594 
L 2803 4594 
z
" transform="scale(0.015625)"/>
       <path id="DejaVuSans-20" transform="scale(0.015625)"/>
       <path id="DejaVuSans-43" d="M 4122 4306 
L 4122 3641 
Q 3803 3938 3442 4084 
Q 3081 4231 2675 4231 
Q 1875 4231 1450 3742 
Q 1025 3253 1025 2328 
Q 1025 1406 1450 917 
Q 1875 428 2675 428 
Q 3081 428 3442 575 
Q 3803 722 4122 1019 
L 4122 359 
Q 3791 134 3420 21 
Q 3050 -91 2638 -91 
Q 1578 -91 968 557 
Q 359 1206 359 2328 
Q 359 3453 968 4101 
Q 1578 4750 2638 4750 
Q 3056 4750 3426 4639 
Q 3797 4528 4122 4306 
z
" transform="scale(0.015625)"/>
       <path id="DejaVuSans-6f" d="M 1959 3097 
Q 1497 3097 1228 2736 
Q 959 2375 959 1747 
Q 959 1119 1226 758 
Q 1494 397 1959 397 
Q 2419 397 2687 759 
Q 2956 1122 2956 1747 
Q 2956 2369 2687 2733 
Q 2419 3097 1959 3097 
z
M 1959 3584 
Q 2709 3584 3137 3096 
Q 3566 2609 3566 1747 
Q 3566 888 3137 398 
Q 2709 -91 1959 -91 
Q 1206 -91 779 398 
Q 353 888 353 1747 
Q 353 2609 779 3096 
Q 1206 3584 1959 3584 
z
" transform="scale(0.015625)"/>
       <path id="DejaVuSans-6d" d="M 3328 2828 
Q 3544 3216 3844 3400 
Q 4144 3584 4550 3584 
Q 5097 3584 5394 3201 
Q 5691 2819 5691 2113 
L 5691 0 
L 5113 0 
L 5113 2094 
Q 5113 2597 4934 2840 
Q 4756 3084 4391 3084 
Q 3944 3084 3684 2787 
Q 3425 2491 3425 1978 
L 3425 0 
L 2847 0 
L 2847 2094 
Q 2847 2600 2669 2842 
Q 2491 3084 2119 3084 
Q 1678 3084 1418 2786 
Q 1159 2488 1159 1978 
L 1159 0 
L 581 0 
L 581 3500 
L 1159 3500 
L 1159 2956 
Q 1356 3278 1631 3431 
Q 1906 3584 2284 3584 
Q 2666 3584 2933 3390 
Q 3200 3197 3328 2828 
z
" transform="scale(0.015625)"/>
       <path id="DejaVuSans-69" d="M 603 3500 
L 1178 3500 
L 1178 0 
L 603 0 
L 603 3500 
z
M 603 4863 
L 1178 4863 
L 1178 4134 
L 603 4134 
L 603 4863 
z
" transform="scale(0.015625)"/>
       <path id="DejaVuSans-74" d="M 1172 4494 
L 1172 3500 
L 2356 3500 
L 2356 3053 
L 1172 3053 
L 1172 1153 
Q 1172 725 1289 603 
Q 1406 481 1766 481 
L 2356 481 
L 2356 0 
L 1766 0 
Q 1100 0 847 248 
Q 594 497 594 1153 
L 594 3053 
L 172 3053 
L 172 3500 
L 594 3500 
L 594 4494 
L 1172 4494 
z
" transform="scale(0.015625)"/>
       <path id="DejaVuSans-73" d="M 2834 3397 
L 2834 2853 
Q 2591 2978 2328 3040 
Q 2066 3103 1784 3103 
Q 1356 3103 1142 2972 
Q 928 2841 928 2578 
Q 928 2378 1081 2264 
Q 1234 2150 1697 2047 
L 1894 2003 
Q 2506 1872 2764 1633 
Q 3022 1394 3022 966 
Q 3022 478 2636 193 
Q 2250 -91 1575 -91 
Q 1294 -91 989 -36 
Q 684 19 347 128 
L 347 722 
Q 666 556 975 473 
Q 1284 391 1588 391 
Q 1994 391 2212 530 
Q 2431 669 2431 922 
Q 2431 1156 2273 1281 
Q 2116 1406 1581 1522 
L 1381 1569 
Q 847 1681 609 1914 
Q 372 2147 372 2553 
Q 372 3047 722 3315 
Q 1072 3584 1716 3584 
Q 2034 3584 2315 3537 
Q 2597 3491 2834 3397 
z
" transform="scale(0.015625)"/>
      </defs>
      <use xlink:href="#DejaVuSans-23"/>
      <use xlink:href="#DejaVuSans-20" x="83.789062"/>
      <use xlink:href="#DejaVuSans-43" x="115.576172"/>
      <use xlink:href="#DejaVuSans-6f" x="185.400391"/>
      <use xlink:href="#DejaVuSans-6d" x="246.582031"/>
      <use xlink:href="#DejaVuSans-6d" x="343.994141"/>
      <use xlink:href="#DejaVuSans-69" x="441.40625"/>
      <use xlink:href="#DejaVuSans-74" x="469.189453"/>
      <use xlink:href="#DejaVuSans-73" x="508.398438"/>
     </g>
    </g>
   </g>
   <g id="matplotlib.axis_2">
    <g id="ytick_1">
     <g id="line2d_7">
      <defs>
       <path id="m8bb37b0e79" d="M 0 0 
L -3.5 0 
" style="stroke: #000000; stroke-width: 0.8"/>
      </defs>
      <g>
       <use xlink:href="#m8bb37b0e79" x="56.64375" y="348.351827" style="stroke: #000000; stroke-width: 0.8"/>
      </g>
     </g>
     <g id="text_8">
      <!-- 4 -->
      <g transform="translate(40.1 354.050655)scale(0.15 -0.15)">
       <defs>
        <path id="DejaVuSans-34" d="M 2419 4116 
L 825 1625 
L 2419 1625 
L 2419 4116 
z
M 2253 4666 
L 3047 4666 
L 3047 1625 
L 3713 1625 
L 3713 1100 
L 3047 1100 
L 3047 0 
L 2419 0 
L 2419 1100 
L 313 1100 
L 313 1709 
L 2253 4666 
z
" transform="scale(0.015625)"/>
       </defs>
       <use xlink:href="#DejaVuSans-34"/>
      </g>
     </g>
    </g>
    <g id="ytick_2">
     <g id="line2d_8">
      <g>
       <use xlink:href="#m8bb37b0e79" x="56.64375" y="300.74161" style="stroke: #000000; stroke-width: 0.8"/>
      </g>
     </g>
     <g id="text_9">
      <!-- 6 -->
      <g transform="translate(40.1 306.440439)scale(0.15 -0.15)">
       <defs>
        <path id="DejaVuSans-36" d="M 2113 2584 
Q 1688 2584 1439 2293 
Q 1191 2003 1191 1497 
Q 1191 994 1439 701 
Q 1688 409 2113 409 
Q 2538 409 2786 701 
Q 3034 994 3034 1497 
Q 3034 2003 2786 2293 
Q 2538 2584 2113 2584 
z
M 3366 4563 
L 3366 3988 
Q 3128 4100 2886 4159 
Q 2644 4219 2406 4219 
Q 1781 4219 1451 3797 
Q 1122 3375 1075 2522 
Q 1259 2794 1537 2939 
Q 1816 3084 2150 3084 
Q 2853 3084 3261 2657 
Q 3669 2231 3669 1497 
Q 3669 778 3244 343 
Q 2819 -91 2113 -91 
Q 1303 -91 875 529 
Q 447 1150 447 2328 
Q 447 3434 972 4092 
Q 1497 4750 2381 4750 
Q 2619 4750 2861 4703 
Q 3103 4656 3366 4563 
z
" transform="scale(0.015625)"/>
       </defs>
       <use xlink:href="#DejaVuSans-36"/>
      </g>
     </g>
    </g>
    <g id="ytick_3">
     <g id="line2d_9">
      <g>
       <use xlink:href="#m8bb37b0e79" x="56.64375" y="253.131394" style="stroke: #000000; stroke-width: 0.8"/>
      </g>
     </g>
     <g id="text_10">
      <!-- 8 -->
      <g transform="translate(40.1 258.830222)scale(0.15 -0.15)">
       <defs>
        <path id="DejaVuSans-38" d="M 2034 2216 
Q 1584 2216 1326 1975 
Q 1069 1734 1069 1313 
Q 1069 891 1326 650 
Q 1584 409 2034 409 
Q 2484 409 2743 651 
Q 3003 894 3003 1313 
Q 3003 1734 2745 1975 
Q 2488 2216 2034 2216 
z
M 1403 2484 
Q 997 2584 770 2862 
Q 544 3141 544 3541 
Q 544 4100 942 4425 
Q 1341 4750 2034 4750 
Q 2731 4750 3128 4425 
Q 3525 4100 3525 3541 
Q 3525 3141 3298 2862 
Q 3072 2584 2669 2484 
Q 3125 2378 3379 2068 
Q 3634 1759 3634 1313 
Q 3634 634 3220 271 
Q 2806 -91 2034 -91 
Q 1263 -91 848 271 
Q 434 634 434 1313 
Q 434 1759 690 2068 
Q 947 2378 1403 2484 
z
M 1172 3481 
Q 1172 3119 1398 2916 
Q 1625 2713 2034 2713 
Q 2441 2713 2670 2916 
Q 2900 3119 2900 3481 
Q 2900 3844 2670 4047 
Q 2441 4250 2034 4250 
Q 1625 4250 1398 4047 
Q 1172 3844 1172 3481 
z
" transform="scale(0.015625)"/>
       </defs>
       <use xlink:href="#DejaVuSans-38"/>
      </g>
     </g>
    </g>
    <g id="ytick_4">
     <g id="line2d_10">
      <g>
       <use xlink:href="#m8bb37b0e79" x="56.64375" y="205.521177" style="stroke: #000000; stroke-width: 0.8"/>
      </g>
     </g>
     <g id="text_11">
      <!-- 10 -->
      <g transform="translate(30.55625 211.220006)scale(0.15 -0.15)">
       <use xlink:href="#DejaVuSans-31"/>
       <use xlink:href="#DejaVuSans-30" x="63.623047"/>
      </g>
     </g>
    </g>
    <g id="ytick_5">
     <g id="line2d_11">
      <g>
       <use xlink:href="#m8bb37b0e79" x="56.64375" y="157.910961" style="stroke: #000000; stroke-width: 0.8"/>
      </g>
     </g>
     <g id="text_12">
      <!-- 12 -->
      <g transform="translate(30.55625 163.609789)scale(0.15 -0.15)">
       <use xlink:href="#DejaVuSans-31"/>
       <use xlink:href="#DejaVuSans-32" x="63.623047"/>
      </g>
     </g>
    </g>
    <g id="ytick_6">
     <g id="line2d_12">
      <g>
       <use xlink:href="#m8bb37b0e79" x="56.64375" y="110.300745" style="stroke: #000000; stroke-width: 0.8"/>
      </g>
     </g>
     <g id="text_13">
      <!-- 14 -->
      <g transform="translate(30.55625 115.999573)scale(0.15 -0.15)">
       <use xlink:href="#DejaVuSans-31"/>
       <use xlink:href="#DejaVuSans-34" x="63.623047"/>
      </g>
     </g>
    </g>
    <g id="text_14">
     <!-- # Interacting authors -->
     <g transform="translate(22.396875 336.707536)rotate(-90)scale(0.2 -0.2)">
      <defs>
       <path id="DejaVuSans-49" d="M 628 4666 
L 1259 4666 
L 1259 0 
L 628 0 
L 628 4666 
z
" transform="scale(0.015625)"/>
       <path id="DejaVuSans-6e" d="M 3513 2113 
L 3513 0 
L 2938 0 
L 2938 2094 
Q 2938 2591 2744 2837 
Q 2550 3084 2163 3084 
Q 1697 3084 1428 2787 
Q 1159 2491 1159 1978 
L 1159 0 
L 581 0 
L 581 3500 
L 1159 3500 
L 1159 2956 
Q 1366 3272 1645 3428 
Q 1925 3584 2291 3584 
Q 2894 3584 3203 3211 
Q 3513 2838 3513 2113 
z
" transform="scale(0.015625)"/>
       <path id="DejaVuSans-65" d="M 3597 1894 
L 3597 1613 
L 953 1613 
Q 991 1019 1311 708 
Q 1631 397 2203 397 
Q 2534 397 2845 478 
Q 3156 559 3463 722 
L 3463 178 
Q 3153 47 2828 -22 
Q 2503 -91 2169 -91 
Q 1331 -91 842 396 
Q 353 884 353 1716 
Q 353 2575 817 3079 
Q 1281 3584 2069 3584 
Q 2775 3584 3186 3129 
Q 3597 2675 3597 1894 
z
M 3022 2063 
Q 3016 2534 2758 2815 
Q 2500 3097 2075 3097 
Q 1594 3097 1305 2825 
Q 1016 2553 972 2059 
L 3022 2063 
z
" transform="scale(0.015625)"/>
       <path id="DejaVuSans-72" d="M 2631 2963 
Q 2534 3019 2420 3045 
Q 2306 3072 2169 3072 
Q 1681 3072 1420 2755 
Q 1159 2438 1159 1844 
L 1159 0 
L 581 0 
L 581 3500 
L 1159 3500 
L 1159 2956 
Q 1341 3275 1631 3429 
Q 1922 3584 2338 3584 
Q 2397 3584 2469 3576 
Q 2541 3569 2628 3553 
L 2631 2963 
z
" transform="scale(0.015625)"/>
       <path id="DejaVuSans-61" d="M 2194 1759 
Q 1497 1759 1228 1600 
Q 959 1441 959 1056 
Q 959 750 1161 570 
Q 1363 391 1709 391 
Q 2188 391 2477 730 
Q 2766 1069 2766 1631 
L 2766 1759 
L 2194 1759 
z
M 3341 1997 
L 3341 0 
L 2766 0 
L 2766 531 
Q 2569 213 2275 61 
Q 1981 -91 1556 -91 
Q 1019 -91 701 211 
Q 384 513 384 1019 
Q 384 1609 779 1909 
Q 1175 2209 1959 2209 
L 2766 2209 
L 2766 2266 
Q 2766 2663 2505 2880 
Q 2244 3097 1772 3097 
Q 1472 3097 1187 3025 
Q 903 2953 641 2809 
L 641 3341 
Q 956 3463 1253 3523 
Q 1550 3584 1831 3584 
Q 2591 3584 2966 3190 
Q 3341 2797 3341 1997 
z
" transform="scale(0.015625)"/>
       <path id="DejaVuSans-63" d="M 3122 3366 
L 3122 2828 
Q 2878 2963 2633 3030 
Q 2388 3097 2138 3097 
Q 1578 3097 1268 2742 
Q 959 2388 959 1747 
Q 959 1106 1268 751 
Q 1578 397 2138 397 
Q 2388 397 2633 464 
Q 2878 531 3122 666 
L 3122 134 
Q 2881 22 2623 -34 
Q 2366 -91 2075 -91 
Q 1284 -91 818 406 
Q 353 903 353 1747 
Q 353 2603 823 3093 
Q 1294 3584 2113 3584 
Q 2378 3584 2631 3529 
Q 2884 3475 3122 3366 
z
" transform="scale(0.015625)"/>
       <path id="DejaVuSans-67" d="M 2906 1791 
Q 2906 2416 2648 2759 
Q 2391 3103 1925 3103 
Q 1463 3103 1205 2759 
Q 947 2416 947 1791 
Q 947 1169 1205 825 
Q 1463 481 1925 481 
Q 2391 481 2648 825 
Q 2906 1169 2906 1791 
z
M 3481 434 
Q 3481 -459 3084 -895 
Q 2688 -1331 1869 -1331 
Q 1566 -1331 1297 -1286 
Q 1028 -1241 775 -1147 
L 775 -588 
Q 1028 -725 1275 -790 
Q 1522 -856 1778 -856 
Q 2344 -856 2625 -561 
Q 2906 -266 2906 331 
L 2906 616 
Q 2728 306 2450 153 
Q 2172 0 1784 0 
Q 1141 0 747 490 
Q 353 981 353 1791 
Q 353 2603 747 3093 
Q 1141 3584 1784 3584 
Q 2172 3584 2450 3431 
Q 2728 3278 2906 2969 
L 2906 3500 
L 3481 3500 
L 3481 434 
z
" transform="scale(0.015625)"/>
       <path id="DejaVuSans-75" d="M 544 1381 
L 544 3500 
L 1119 3500 
L 1119 1403 
Q 1119 906 1312 657 
Q 1506 409 1894 409 
Q 2359 409 2629 706 
Q 2900 1003 2900 1516 
L 2900 3500 
L 3475 3500 
L 3475 0 
L 2900 0 
L 2900 538 
Q 2691 219 2414 64 
Q 2138 -91 1772 -91 
Q 1169 -91 856 284 
Q 544 659 544 1381 
z
M 1991 3584 
L 1991 3584 
z
" transform="scale(0.015625)"/>
       <path id="DejaVuSans-68" d="M 3513 2113 
L 3513 0 
L 2938 0 
L 2938 2094 
Q 2938 2591 2744 2837 
Q 2550 3084 2163 3084 
Q 1697 3084 1428 2787 
Q 1159 2491 1159 1978 
L 1159 0 
L 581 0 
L 581 4863 
L 1159 4863 
L 1159 2956 
Q 1366 3272 1645 3428 
Q 1925 3584 2291 3584 
Q 2894 3584 3203 3211 
Q 3513 2838 3513 2113 
z
" transform="scale(0.015625)"/>
      </defs>
      <use xlink:href="#DejaVuSans-23"/>
      <use xlink:href="#DejaVuSans-20" x="83.789062"/>
      <use xlink:href="#DejaVuSans-49" x="115.576172"/>
      <use xlink:href="#DejaVuSans-6e" x="145.068359"/>
      <use xlink:href="#DejaVuSans-74" x="208.447266"/>
      <use xlink:href="#DejaVuSans-65" x="247.65625"/>
      <use xlink:href="#DejaVuSans-72" x="309.179688"/>
      <use xlink:href="#DejaVuSans-61" x="350.292969"/>
      <use xlink:href="#DejaVuSans-63" x="411.572266"/>
      <use xlink:href="#DejaVuSans-74" x="466.552734"/>
      <use xlink:href="#DejaVuSans-69" x="505.761719"/>
      <use xlink:href="#DejaVuSans-6e" x="533.544922"/>
      <use xlink:href="#DejaVuSans-67" x="596.923828"/>
      <use xlink:href="#DejaVuSans-20" x="660.400391"/>
      <use xlink:href="#DejaVuSans-61" x="692.1875"/>
      <use xlink:href="#DejaVuSans-75" x="753.466797"/>
      <use xlink:href="#DejaVuSans-74" x="816.845703"/>
      <use xlink:href="#DejaVuSans-68" x="856.054688"/>
      <use xlink:href="#DejaVuSans-6f" x="919.433594"/>
      <use xlink:href="#DejaVuSans-72" x="980.615234"/>
      <use xlink:href="#DejaVuSans-73" x="1021.728516"/>
     </g>
    </g>
   </g>
   <g id="patch_3">
    <path d="M 56.64375 386.44 
L 56.64375 72.212571 
" style="fill: none; stroke: #000000; stroke-width: 0.8; stroke-linejoin: miter; stroke-linecap: square"/>
   </g>
   <g id="patch_4">
    <path d="M 56.64375 386.44 
L 368.708607 386.44 
" style="fill: none; stroke: #000000; stroke-width: 0.8; stroke-linejoin: miter; stroke-linecap: square"/>
   </g>
  </g>
  <g id="axes_2">
   <g id="patch_5">
    <path d="M 56.64375 61.377143 
L 368.708607 61.377143 
L 368.708607 7.2 
L 56.64375 7.2 
z
" style="fill: #ffffff"/>
   </g>
   <g id="PolyCollection_1">
    <path d="M -108.784948 60.921191 
L -108.784948 61.377143 
L -105.554183 61.377143 
L -102.323418 61.377143 
L -99.092653 61.377143 
L -95.861888 61.377143 
L -92.631123 61.377143 
L -89.400358 61.377143 
L -86.169593 61.377143 
L -82.938827 61.377143 
L -79.708062 61.377143 
L -76.477297 61.377143 
L -73.246532 61.377143 
L -70.015767 61.377143 
L -66.785002 61.377143 
L -63.554237 61.377143 
L -60.323472 61.377143 
L -57.092707 61.377143 
L -53.861942 61.377143 
L -50.631176 61.377143 
L -47.400411 61.377143 
L -44.169646 61.377143 
L -40.938881 61.377143 
L -37.708116 61.377143 
L -34.477351 61.377143 
L -31.246586 61.377143 
L -28.015821 61.377143 
L -24.785056 61.377143 
L -21.554291 61.377143 
L -18.323526 61.377143 
L -15.09276 61.377143 
L -11.861995 61.377143 
L -8.63123 61.377143 
L -5.400465 61.377143 
L -2.1697 61.377143 
L 1.061065 61.377143 
L 4.29183 61.377143 
L 7.522595 61.377143 
L 10.75336 61.377143 
L 13.984125 61.377143 
L 17.21489 61.377143 
L 20.445656 61.377143 
L 23.676421 61.377143 
L 26.907186 61.377143 
L 30.137951 61.377143 
L 33.368716 61.377143 
L 36.599481 61.377143 
L 39.830246 61.377143 
L 43.061011 61.377143 
L 46.291776 61.377143 
L 49.522541 61.377143 
L 52.753306 61.377143 
L 55.984072 61.377143 
L 59.214837 61.377143 
L 62.445602 61.377143 
L 65.676367 61.377143 
L 68.907132 61.377143 
L 72.137897 61.377143 
L 75.368662 61.377143 
L 78.599427 61.377143 
L 81.830192 61.377143 
L 85.060957 61.377143 
L 88.291723 61.377143 
L 91.522488 61.377143 
L 94.753253 61.377143 
L 97.984018 61.377143 
L 101.214783 61.377143 
L 104.445548 61.377143 
L 107.676313 61.377143 
L 110.907078 61.377143 
L 114.137843 61.377143 
L 117.368608 61.377143 
L 120.599373 61.377143 
L 123.830139 61.377143 
L 127.060904 61.377143 
L 130.291669 61.377143 
L 133.522434 61.377143 
L 136.753199 61.377143 
L 139.983964 61.377143 
L 143.214729 61.377143 
L 146.445494 61.377143 
L 149.676259 61.377143 
L 152.907024 61.377143 
L 156.137789 61.377143 
L 159.368555 61.377143 
L 162.59932 61.377143 
L 165.830085 61.377143 
L 169.06085 61.377143 
L 172.291615 61.377143 
L 175.52238 61.377143 
L 178.753145 61.377143 
L 181.98391 61.377143 
L 185.214675 61.377143 
L 188.44544 61.377143 
L 191.676205 61.377143 
L 194.906971 61.377143 
L 198.137736 61.377143 
L 201.368501 61.377143 
L 204.599266 61.377143 
L 207.830031 61.377143 
L 211.060796 61.377143 
L 214.291561 61.377143 
L 217.522326 61.377143 
L 220.753091 61.377143 
L 223.983856 61.377143 
L 227.214621 61.377143 
L 230.445387 61.377143 
L 233.676152 61.377143 
L 236.906917 61.377143 
L 240.137682 61.377143 
L 243.368447 61.377143 
L 246.599212 61.377143 
L 249.829977 61.377143 
L 253.060742 61.377143 
L 256.291507 61.377143 
L 259.522272 61.377143 
L 262.753038 61.377143 
L 265.983803 61.377143 
L 269.214568 61.377143 
L 272.445333 61.377143 
L 275.676098 61.377143 
L 278.906863 61.377143 
L 282.137628 61.377143 
L 285.368393 61.377143 
L 288.599158 61.377143 
L 291.829923 61.377143 
L 295.060688 61.377143 
L 298.291454 61.377143 
L 301.522219 61.377143 
L 304.752984 61.377143 
L 307.983749 61.377143 
L 311.214514 61.377143 
L 314.445279 61.377143 
L 317.676044 61.377143 
L 320.906809 61.377143 
L 324.137574 61.377143 
L 327.368339 61.377143 
L 330.599104 61.377143 
L 333.82987 61.377143 
L 337.060635 61.377143 
L 340.2914 61.377143 
L 343.522165 61.377143 
L 346.75293 61.377143 
L 349.983695 61.377143 
L 353.21446 61.377143 
L 356.445225 61.377143 
L 359.67599 61.377143 
L 362.906755 61.377143 
L 366.13752 61.377143 
L 369.368286 61.377143 
L 372.599051 61.377143 
L 375.829816 61.377143 
L 379.060581 61.377143 
L 382.291346 61.377143 
L 385.522111 61.377143 
L 388.752876 61.377143 
L 391.983641 61.377143 
L 395.214406 61.377143 
L 398.445171 61.377143 
L 401.675936 61.377143 
L 404.906702 61.377143 
L 408.137467 61.377143 
L 411.368232 61.377143 
L 414.598997 61.377143 
L 417.829762 61.377143 
L 421.060527 61.377143 
L 424.291292 61.377143 
L 427.522057 61.377143 
L 430.752822 61.377143 
L 433.983587 61.377143 
L 437.214353 61.377143 
L 440.445118 61.377143 
L 443.675883 61.377143 
L 446.906648 61.377143 
L 450.137413 61.377143 
L 453.368178 61.377143 
L 456.598943 61.377143 
L 459.829708 61.377143 
L 463.060473 61.377143 
L 466.291238 61.377143 
L 469.522003 61.377143 
L 472.752769 61.377143 
L 475.983534 61.377143 
L 479.214299 61.377143 
L 482.445064 61.377143 
L 485.675829 61.377143 
L 488.906594 61.377143 
L 492.137359 61.377143 
L 495.368124 61.377143 
L 498.598889 61.377143 
L 501.829654 61.377143 
L 505.060419 61.377143 
L 508.291185 61.377143 
L 511.52195 61.377143 
L 514.752715 61.377143 
L 517.98348 61.377143 
L 521.214245 61.377143 
L 524.44501 61.377143 
L 527.675775 61.377143 
L 530.90654 61.377143 
L 534.137305 61.377143 
L 534.137305 61.30459 
L 534.137305 61.30459 
L 530.90654 61.291965 
L 527.675775 61.277434 
L 524.44501 61.260762 
L 521.214245 61.241699 
L 517.98348 61.219971 
L 514.752715 61.195288 
L 511.52195 61.16734 
L 508.291185 61.135801 
L 505.060419 61.100327 
L 501.829654 61.060563 
L 498.598889 61.01614 
L 495.368124 60.96668 
L 492.137359 60.911801 
L 488.906594 60.851119 
L 485.675829 60.784252 
L 482.445064 60.710828 
L 479.214299 60.630489 
L 475.983534 60.542896 
L 472.752769 60.447737 
L 469.522003 60.344735 
L 466.291238 60.233652 
L 463.060473 60.114299 
L 459.829708 59.986544 
L 456.598943 59.850317 
L 453.368178 59.70562 
L 450.137413 59.55253 
L 446.906648 59.39121 
L 443.675883 59.221912 
L 440.445118 59.044983 
L 437.214353 58.860867 
L 433.983587 58.67011 
L 430.752822 58.473359 
L 427.522057 58.271365 
L 424.291292 58.064978 
L 421.060527 57.855147 
L 417.829762 57.642911 
L 414.598997 57.429398 
L 411.368232 57.215812 
L 408.137467 57.003422 
L 404.906702 56.793558 
L 401.675936 56.58759 
L 398.445171 56.386915 
L 395.214406 56.192948 
L 391.983641 56.007098 
L 388.752876 55.830754 
L 385.522111 55.66527 
L 382.291346 55.511943 
L 379.060581 55.372002 
L 375.829816 55.246585 
L 372.599051 55.136728 
L 369.368286 55.04335 
L 366.13752 54.967235 
L 362.906755 54.909029 
L 359.67599 54.869222 
L 356.445225 54.848146 
L 353.21446 54.845965 
L 349.983695 54.862678 
L 346.75293 54.89811 
L 343.522165 54.951921 
L 340.2914 55.023604 
L 337.060635 55.112495 
L 333.82987 55.217775 
L 330.599104 55.338486 
L 327.368339 55.473537 
L 324.137574 55.621718 
L 320.906809 55.781713 
L 317.676044 55.952113 
L 314.445279 56.131428 
L 311.214514 56.318108 
L 307.983749 56.510545 
L 304.752984 56.707098 
L 301.522219 56.906095 
L 298.291454 57.10585 
L 295.060688 57.304668 
L 291.829923 57.500854 
L 288.599158 57.692719 
L 285.368393 57.878583 
L 282.137628 58.056776 
L 278.906863 58.225639 
L 275.676098 58.383521 
L 272.445333 58.528775 
L 269.214568 58.659752 
L 265.983803 58.774794 
L 262.753038 58.872226 
L 259.522272 58.950347 
L 256.291507 59.007421 
L 253.060742 59.041665 
L 249.829977 59.051242 
L 246.599212 59.034254 
L 243.368447 58.988728 
L 240.137682 58.912617 
L 236.906917 58.803795 
L 233.676152 58.660054 
L 230.445387 58.479108 
L 227.214621 58.258597 
L 223.983856 57.996098 
L 220.753091 57.689139 
L 217.522326 57.335214 
L 214.291561 56.931806 
L 211.060796 56.476416 
L 207.830031 55.966593 
L 204.599266 55.39997 
L 201.368501 54.774305 
L 198.137736 54.087521 
L 194.906971 53.337761 
L 191.676205 52.523432 
L 188.44544 51.64326 
L 185.214675 50.696343 
L 181.98391 49.682207 
L 178.753145 48.600859 
L 175.52238 47.452838 
L 172.291615 46.239267 
L 169.06085 44.961896 
L 165.830085 43.623141 
L 162.59932 42.226122 
L 159.368555 40.774685 
L 156.137789 39.273419 
L 152.907024 37.727667 
L 149.676259 36.143517 
L 146.445494 34.527794 
L 143.214729 32.888026 
L 139.983964 31.232409 
L 136.753199 29.569755 
L 133.522434 27.909428 
L 130.291669 26.261265 
L 127.060904 24.635493 
L 123.830139 23.042628 
L 120.599373 21.493371 
L 117.368608 19.998491 
L 114.137843 18.568708 
L 110.907078 17.214562 
L 107.676313 15.946293 
L 104.445548 14.773712 
L 101.214783 13.706072 
L 97.984018 12.751952 
L 94.753253 11.919144 
L 91.522488 11.214541 
L 88.291723 10.644051 
L 85.060957 10.21251 
L 81.830192 9.923612 
L 78.599427 9.779864 
L 75.368662 9.782542 
L 72.137897 9.931677 
L 68.907132 10.226053 
L 65.676367 10.663223 
L 62.445602 11.239544 
L 59.214837 11.950225 
L 55.984072 12.789398 
L 52.753306 13.750194 
L 49.522541 14.824841 
L 46.291776 16.004763 
L 43.061011 17.280702 
L 39.830246 18.642832 
L 36.599481 20.080888 
L 33.368716 21.584294 
L 30.137951 23.142289 
L 26.907186 24.744058 
L 23.676421 26.378853 
L 20.445656 28.036109 
L 17.21489 29.705554 
L 13.984125 31.37731 
L 10.75336 33.041984 
L 7.522595 34.690745 
L 4.29183 36.315393 
L 1.061065 37.90841 
L -2.1697 39.463007 
L -5.400465 40.973148 
L -8.63123 42.433572 
L -11.861995 43.839792 
L -15.09276 45.188095 
L -18.323526 46.475522 
L -21.554291 47.699847 
L -24.785056 48.859539 
L -28.015821 49.953723 
L -31.246586 50.982137 
L -34.477351 51.94508 
L -37.708116 52.843357 
L -40.938881 53.678227 
L -44.169646 54.451343 
L -47.400411 55.164698 
L -50.631176 55.820568 
L -53.861942 56.42146 
L -57.092707 56.97006 
L -60.323472 57.469182 
L -63.554237 57.921728 
L -66.785002 58.330645 
L -70.015767 58.698887 
L -73.246532 59.029385 
L -76.477297 59.325014 
L -79.708062 59.588573 
L -82.938827 59.822766 
L -86.169593 60.030178 
L -89.400358 60.21327 
L -92.631123 60.374368 
L -95.861888 60.515653 
L -99.092653 60.639162 
L -102.323418 60.746783 
L -105.554183 60.84026 
L -108.784948 60.921191 
z
" clip-path="url(#p3e179a8297)" style="fill: #1f77b4; fill-opacity: 0.25; stroke: #1f77b4"/>
   </g>
   <g id="matplotlib.axis_3">
    <g id="xtick_7">
     <g id="line2d_13">
      <g>
       <use xlink:href="#mdef7dba92c" x="69.73738" y="61.377143" style="stroke: #000000; stroke-width: 0.8"/>
      </g>
     </g>
    </g>
    <g id="xtick_8">
     <g id="line2d_14">
      <g>
       <use xlink:href="#mdef7dba92c" x="124.294174" y="61.377143" style="stroke: #000000; stroke-width: 0.8"/>
      </g>
     </g>
    </g>
    <g id="xtick_9">
     <g id="line2d_15">
      <g>
       <use xlink:href="#mdef7dba92c" x="178.850967" y="61.377143" style="stroke: #000000; stroke-width: 0.8"/>
      </g>
     </g>
    </g>
    <g id="xtick_10">
     <g id="line2d_16">
      <g>
       <use xlink:href="#mdef7dba92c" x="233.40776" y="61.377143" style="stroke: #000000; stroke-width: 0.8"/>
      </g>
     </g>
    </g>
    <g id="xtick_11">
     <g id="line2d_17">
      <g>
       <use xlink:href="#mdef7dba92c" x="287.964553" y="61.377143" style="stroke: #000000; stroke-width: 0.8"/>
      </g>
     </g>
    </g>
    <g id="xtick_12">
     <g id="line2d_18">
      <g>
       <use xlink:href="#mdef7dba92c" x="342.521346" y="61.377143" style="stroke: #000000; stroke-width: 0.8"/>
      </g>
     </g>
    </g>
   </g>
   <g id="matplotlib.axis_4">
    <g id="ytick_7"/>
    <g id="ytick_8"/>
   </g>
   <g id="patch_6">
    <path d="M 56.64375 61.377143 
L 368.708607 61.377143 
" style="fill: none; stroke: #000000; stroke-width: 0.8; stroke-linejoin: miter; stroke-linecap: square"/>
   </g>
  </g>
  <g id="axes_3">
   <g id="patch_7">
    <path d="M 379.469464 386.44 
L 433.27375 386.44 
L 433.27375 72.212571 
L 379.469464 72.212571 
z
" style="fill: #ffffff"/>
   </g>
   <g id="PolyCollection_2">
    <path d="M 379.636633 579.387157 
L 379.469464 579.387157 
L 379.469464 575.868958 
L 379.469464 572.350758 
L 379.469464 568.832558 
L 379.469464 565.314358 
L 379.469464 561.796159 
L 379.469464 558.277959 
L 379.469464 554.759759 
L 379.469464 551.24156 
L 379.469464 547.72336 
L 379.469464 544.20516 
L 379.469464 540.68696 
L 379.469464 537.168761 
L 379.469464 533.650561 
L 379.469464 530.132361 
L 379.469464 526.614162 
L 379.469464 523.095962 
L 379.469464 519.577762 
L 379.469464 516.059562 
L 379.469464 512.541363 
L 379.469464 509.023163 
L 379.469464 505.504963 
L 379.469464 501.986764 
L 379.469464 498.468564 
L 379.469464 494.950364 
L 379.469464 491.432164 
L 379.469464 487.913965 
L 379.469464 484.395765 
L 379.469464 480.877565 
L 379.469464 477.359366 
L 379.469464 473.841166 
L 379.469464 470.322966 
L 379.469464 466.804766 
L 379.469464 463.286567 
L 379.469464 459.768367 
L 379.469464 456.250167 
L 379.469464 452.731968 
L 379.469464 449.213768 
L 379.469464 445.695568 
L 379.469464 442.177368 
L 379.469464 438.659169 
L 379.469464 435.140969 
L 379.469464 431.622769 
L 379.469464 428.10457 
L 379.469464 424.58637 
L 379.469464 421.06817 
L 379.469464 417.54997 
L 379.469464 414.031771 
L 379.469464 410.513571 
L 379.469464 406.995371 
L 379.469464 403.477172 
L 379.469464 399.958972 
L 379.469464 396.440772 
L 379.469464 392.922572 
L 379.469464 389.404373 
L 379.469464 385.886173 
L 379.469464 382.367973 
L 379.469464 378.849774 
L 379.469464 375.331574 
L 379.469464 371.813374 
L 379.469464 368.295174 
L 379.469464 364.776975 
L 379.469464 361.258775 
L 379.469464 357.740575 
L 379.469464 354.222376 
L 379.469464 350.704176 
L 379.469464 347.185976 
L 379.469464 343.667776 
L 379.469464 340.149577 
L 379.469464 336.631377 
L 379.469464 333.113177 
L 379.469464 329.594978 
L 379.469464 326.076778 
L 379.469464 322.558578 
L 379.469464 319.040378 
L 379.469464 315.522179 
L 379.469464 312.003979 
L 379.469464 308.485779 
L 379.469464 304.96758 
L 379.469464 301.44938 
L 379.469464 297.93118 
L 379.469464 294.41298 
L 379.469464 290.894781 
L 379.469464 287.376581 
L 379.469464 283.858381 
L 379.469464 280.340182 
L 379.469464 276.821982 
L 379.469464 273.303782 
L 379.469464 269.785582 
L 379.469464 266.267383 
L 379.469464 262.749183 
L 379.469464 259.230983 
L 379.469464 255.712784 
L 379.469464 252.194584 
L 379.469464 248.676384 
L 379.469464 245.158184 
L 379.469464 241.639985 
L 379.469464 238.121785 
L 379.469464 234.603585 
L 379.469464 231.085386 
L 379.469464 227.567186 
L 379.469464 224.048986 
L 379.469464 220.530786 
L 379.469464 217.012587 
L 379.469464 213.494387 
L 379.469464 209.976187 
L 379.469464 206.457988 
L 379.469464 202.939788 
L 379.469464 199.421588 
L 379.469464 195.903388 
L 379.469464 192.385189 
L 379.469464 188.866989 
L 379.469464 185.348789 
L 379.469464 181.83059 
L 379.469464 178.31239 
L 379.469464 174.79419 
L 379.469464 171.27599 
L 379.469464 167.757791 
L 379.469464 164.239591 
L 379.469464 160.721391 
L 379.469464 157.203192 
L 379.469464 153.684992 
L 379.469464 150.166792 
L 379.469464 146.648592 
L 379.469464 143.130393 
L 379.469464 139.612193 
L 379.469464 136.093993 
L 379.469464 132.575794 
L 379.469464 129.057594 
L 379.469464 125.539394 
L 379.469464 122.021194 
L 379.469464 118.502995 
L 379.469464 114.984795 
L 379.469464 111.466595 
L 379.469464 107.948396 
L 379.469464 104.430196 
L 379.469464 100.911996 
L 379.469464 97.393796 
L 379.469464 93.875597 
L 379.469464 90.357397 
L 379.469464 86.839197 
L 379.469464 83.320998 
L 379.469464 79.802798 
L 379.469464 76.284598 
L 379.469464 72.766398 
L 379.469464 69.248199 
L 379.469464 65.729999 
L 379.469464 62.211799 
L 379.469464 58.6936 
L 379.469464 55.1754 
L 379.469464 51.6572 
L 379.469464 48.139 
L 379.469464 44.620801 
L 379.469464 41.102601 
L 379.469464 37.584401 
L 379.469464 34.066202 
L 379.469464 30.548002 
L 379.469464 27.029802 
L 379.469464 23.511602 
L 379.469464 19.993403 
L 379.469464 16.475203 
L 379.469464 12.957003 
L 379.469464 9.438804 
L 379.469464 5.920604 
L 379.469464 2.402404 
L 379.469464 -1.115796 
L 379.469464 -4.633995 
L 379.469464 -8.152195 
L 379.469464 -11.670395 
L 379.469464 -15.188594 
L 379.469464 -18.706794 
L 379.469464 -22.224994 
L 379.469464 -25.743194 
L 379.469464 -29.261393 
L 379.469464 -32.779593 
L 379.469464 -36.297793 
L 379.469464 -39.815992 
L 379.469464 -43.334192 
L 379.469464 -46.852392 
L 379.469464 -50.370592 
L 379.469464 -53.888791 
L 379.469464 -57.406991 
L 379.469464 -60.925191 
L 379.469464 -64.44339 
L 379.469464 -67.96159 
L 379.469464 -71.47979 
L 379.469464 -74.99799 
L 379.469464 -78.516189 
L 379.469464 -82.034389 
L 379.469464 -85.552589 
L 379.469464 -89.070788 
L 379.469464 -92.588988 
L 379.469464 -96.107188 
L 379.469464 -99.625388 
L 379.469464 -103.143587 
L 379.469464 -106.661787 
L 379.469464 -110.179987 
L 379.469464 -113.698186 
L 379.469464 -117.216386 
L 379.469464 -120.734586 
L 379.633338 -120.734586 
L 379.633338 -120.734586 
L 379.661407 -117.216386 
L 379.693728 -113.698186 
L 379.730844 -110.179987 
L 379.77335 -106.661787 
L 379.821897 -103.143587 
L 379.877191 -99.625388 
L 379.939998 -96.107188 
L 380.011144 -92.588988 
L 380.091512 -89.070788 
L 380.182049 -85.552589 
L 380.283758 -82.034389 
L 380.3977 -78.516189 
L 380.524993 -74.99799 
L 380.666801 -71.47979 
L 380.824337 -67.96159 
L 380.998851 -64.44339 
L 381.191627 -60.925191 
L 381.403968 -57.406991 
L 381.637193 -53.888791 
L 381.892619 -50.370592 
L 382.171552 -46.852392 
L 382.475271 -43.334192 
L 382.805011 -39.815992 
L 383.161947 -36.297793 
L 383.54718 -32.779593 
L 383.961712 -29.261393 
L 384.406429 -25.743194 
L 384.882083 -22.224994 
L 385.389271 -18.706794 
L 385.928414 -15.188594 
L 386.499739 -11.670395 
L 387.10326 -8.152195 
L 387.73876 -4.633995 
L 388.405778 -1.115796 
L 389.103592 2.402404 
L 389.831209 5.920604 
L 390.587356 9.438804 
L 391.370478 12.957003 
L 392.178727 16.475203 
L 393.009973 19.993403 
L 393.861803 23.511602 
L 394.731536 27.029802 
L 395.616231 30.548002 
L 396.512709 34.066202 
L 397.417574 37.584401 
L 398.327242 41.102601 
L 399.237968 44.620801 
L 400.145885 48.139 
L 401.047039 51.6572 
L 401.937433 55.1754 
L 402.813068 58.6936 
L 403.669994 62.211799 
L 404.504351 65.729999 
L 405.312424 69.248199 
L 406.090687 72.766398 
L 406.835852 76.284598 
L 407.544915 79.802798 
L 408.215202 83.320998 
L 408.844405 86.839197 
L 409.430624 90.357397 
L 409.972397 93.875597 
L 410.468728 97.393796 
L 410.919107 100.911996 
L 411.323529 104.430196 
L 411.682499 107.948396 
L 411.997033 111.466595 
L 412.268657 114.984795 
L 412.499391 118.502995 
L 412.691728 122.021194 
L 412.848611 125.539394 
L 412.973395 129.057594 
L 413.06981 132.575794 
L 413.141916 136.093993 
L 413.194048 139.612193 
L 413.230769 143.130393 
L 413.256801 146.648592 
L 413.276975 150.166792 
L 413.296158 153.684992 
L 413.319196 157.203192 
L 413.350851 160.721391 
L 413.395732 164.239591 
L 413.458242 167.757791 
L 413.542517 171.27599 
L 413.652373 174.79419 
L 413.791257 178.31239 
L 413.962204 181.83059 
L 414.167798 185.348789 
L 414.410141 188.866989 
L 414.690827 192.385189 
L 415.010922 195.903388 
L 415.370956 199.421588 
L 415.770914 202.939788 
L 416.21024 206.457988 
L 416.687848 209.976187 
L 417.202128 213.494387 
L 417.750978 217.012587 
L 418.331819 220.530786 
L 418.941633 224.048986 
L 419.576992 227.567186 
L 420.2341 231.085386 
L 420.908831 234.603585 
L 421.596774 238.121785 
L 422.293278 241.639985 
L 422.993496 245.158184 
L 423.692432 248.676384 
L 424.384988 252.194584 
L 425.066008 255.712784 
L 425.730324 259.230983 
L 426.372795 262.749183 
L 426.988357 266.267383 
L 427.57205 269.785582 
L 428.119067 273.303782 
L 428.624781 276.821982 
L 429.084778 280.340182 
L 429.494891 283.858381 
L 429.851224 287.376581 
L 430.150174 290.894781 
L 430.388458 294.41298 
L 430.56313 297.93118 
L 430.671599 301.44938 
L 430.711641 304.96758 
L 430.681414 308.485779 
L 430.579467 312.003979 
L 430.404746 315.522179 
L 430.156601 319.040378 
L 429.834787 322.558578 
L 429.439466 326.076778 
L 428.971204 329.594978 
L 428.430964 333.113177 
L 427.820104 336.631377 
L 427.140363 340.149577 
L 426.393853 343.667776 
L 425.583039 347.185976 
L 424.710728 350.704176 
L 423.780044 354.222376 
L 422.794409 357.740575 
L 421.75752 361.258775 
L 420.673318 364.776975 
L 419.545966 368.295174 
L 418.379811 371.813374 
L 417.17936 375.331574 
L 415.949241 378.849774 
L 414.694173 382.367973 
L 413.418927 385.886173 
L 412.128298 389.404373 
L 410.827062 392.922572 
L 409.519948 396.440772 
L 408.211602 399.958972 
L 406.906552 403.477172 
L 405.609185 406.995371 
L 404.323709 410.513571 
L 403.054132 414.031771 
L 401.804239 417.54997 
L 400.577565 421.06817 
L 399.377383 424.58637 
L 398.206683 428.10457 
L 397.068166 431.622769 
L 395.964229 435.140969 
L 394.896967 438.659169 
L 393.868161 442.177368 
L 392.879289 445.695568 
L 391.931522 449.213768 
L 391.025738 452.731968 
L 390.162522 456.250167 
L 389.342189 459.768367 
L 388.564787 463.286567 
L 387.830121 466.804766 
L 387.137766 470.322966 
L 386.487087 473.841166 
L 385.877256 477.359366 
L 385.307276 480.877565 
L 384.775999 484.395765 
L 384.282146 487.913965 
L 383.824328 491.432164 
L 383.401067 494.950364 
L 383.010812 498.468564 
L 382.651961 501.986764 
L 382.322876 505.504963 
L 382.021898 509.023163 
L 381.747367 512.541363 
L 381.497629 516.059562 
L 381.271052 519.577762 
L 381.06604 523.095962 
L 380.881033 526.614162 
L 380.714525 530.132361 
L 380.565065 533.650561 
L 380.431264 537.168761 
L 380.3118 540.68696 
L 380.205421 544.20516 
L 380.110943 547.72336 
L 380.027258 551.24156 
L 379.953329 554.759759 
L 379.888191 558.277959 
L 379.830951 561.796159 
L 379.780785 565.314358 
L 379.736933 568.832558 
L 379.698703 572.350758 
L 379.665461 575.868958 
L 379.636633 579.387157 
z
" clip-path="url(#p0d504a3e1a)" style="fill: #1f77b4; fill-opacity: 0.25; stroke: #1f77b4"/>
   </g>
   <g id="matplotlib.axis_5">
    <g id="xtick_13"/>
    <g id="xtick_14"/>
   </g>
   <g id="matplotlib.axis_6">
    <g id="ytick_9">
     <g id="line2d_19">
      <g>
       <use xlink:href="#m8bb37b0e79" x="379.469464" y="348.351827" style="stroke: #000000; stroke-width: 0.8"/>
      </g>
     </g>
    </g>
    <g id="ytick_10">
     <g id="line2d_20">
      <g>
       <use xlink:href="#m8bb37b0e79" x="379.469464" y="300.74161" style="stroke: #000000; stroke-width: 0.8"/>
      </g>
     </g>
    </g>
    <g id="ytick_11">
     <g id="line2d_21">
      <g>
       <use xlink:href="#m8bb37b0e79" x="379.469464" y="253.131394" style="stroke: #000000; stroke-width: 0.8"/>
      </g>
     </g>
    </g>
    <g id="ytick_12">
     <g id="line2d_22">
      <g>
       <use xlink:href="#m8bb37b0e79" x="379.469464" y="205.521177" style="stroke: #000000; stroke-width: 0.8"/>
      </g>
     </g>
    </g>
    <g id="ytick_13">
     <g id="line2d_23">
      <g>
       <use xlink:href="#m8bb37b0e79" x="379.469464" y="157.910961" style="stroke: #000000; stroke-width: 0.8"/>
      </g>
     </g>
    </g>
    <g id="ytick_14">
     <g id="line2d_24">
      <g>
       <use xlink:href="#m8bb37b0e79" x="379.469464" y="110.300745" style="stroke: #000000; stroke-width: 0.8"/>
      </g>
     </g>
    </g>
   </g>
   <g id="patch_8">
    <path d="M 379.469464 386.44 
L 379.469464 72.212571 
" style="fill: none; stroke: #000000; stroke-width: 0.8; stroke-linejoin: miter; stroke-linecap: square"/>
   </g>
  </g>
 </g>
 <defs>
  <clipPath id="p79014f4761">
   <rect x="56.64375" y="72.212571" width="312.064857" height="314.227429"/>
  </clipPath>
  <clipPath id="p3e179a8297">
   <rect x="56.64375" y="7.2" width="312.064857" height="54.177143"/>
  </clipPath>
  <clipPath id="p0d504a3e1a">
   <rect x="379.469464" y="72.212571" width="53.804286" height="314.227429"/>
  </clipPath>
 </defs>
</svg>
