<?xml version="1.0" encoding="utf-8" standalone="no"?>
<!DOCTYPE svg PUBLIC "-//W3C//DTD SVG 1.1//EN"
  "http://www.w3.org/Graphics/SVG/1.1/DTD/svg11.dtd">
<svg xmlns:xlink="http://www.w3.org/1999/xlink" width="440.47375pt" height="438.513437pt" viewBox="0 0 440.47375 438.513437" xmlns="http://www.w3.org/2000/svg" version="1.1">
 <metadata>
  <rdf:RDF xmlns:dc="http://purl.org/dc/elements/1.1/" xmlns:cc="http://creativecommons.org/ns#" xmlns:rdf="http://www.w3.org/1999/02/22-rdf-syntax-ns#">
   <cc:Work>
    <dc:type rdf:resource="http://purl.org/dc/dcmitype/StillImage"/>
    <dc:date>2022-02-23T14:20:01.713891</dc:date>
    <dc:format>image/svg+xml</dc:format>
    <dc:creator>
     <cc:Agent>
      <dc:title>Matplotlib v3.5.1, https://matplotlib.org/</dc:title>
     </cc:Agent>
    </dc:creator>
   </cc:Work>
  </rdf:RDF>
 </metadata>
 <defs>
  <style type="text/css">*{stroke-linejoin: round; stroke-linecap: butt}</style>
 </defs>
 <g id="figure_1">
  <g id="patch_1">
   <path d="M 0 438.513437 
L 440.47375 438.513437 
L 440.47375 0 
L 0 0 
z
" style="fill: #ffffff"/>
  </g>
  <g id="axes_1">
   <g id="patch_2">
    <path d="M 56.64375 386.44 
L 368.708607 386.44 
L 368.708607 72.212571 
L 56.64375 72.212571 
z
" style="fill: #ffffff"/>
   </g>
   <g id="PathCollection_1">
    <defs>
     <path id="m95b5e8df68" d="M 0 4.330127 
C 1.148363 4.330127 2.249847 3.873878 3.061862 3.061862 
C 3.873878 2.249847 4.330127 1.148363 4.330127 0 
C 4.330127 -1.148363 3.873878 -2.249847 3.061862 -3.061862 
C 2.249847 -3.873878 1.148363 -4.330127 0 -4.330127 
C -1.148363 -4.330127 -2.249847 -3.873878 -3.061862 -3.061862 
C -3.873878 -2.249847 -4.330127 -1.148363 -4.330127 0 
C -4.330127 1.148363 -3.873878 2.249847 -3.061862 3.061862 
C -2.249847 3.873878 -1.148363 4.330127 0 4.330127 
z
" style="stroke: #ffffff; stroke-opacity: 0.5; stroke-width: 0.69282"/>
    </defs>
    <g clip-path="url(#p9b4fc39964)">
     <use xlink:href="#m95b5e8df68" x="85.355084" y="121.238227" style="fill: #1f77b4; fill-opacity: 0.5; stroke: #ffffff; stroke-opacity: 0.5; stroke-width: 0.69282"/>
     <use xlink:href="#m95b5e8df68" x="122.95326" y="128.958802" style="fill: #1f77b4; fill-opacity: 0.5; stroke: #ffffff; stroke-opacity: 0.5; stroke-width: 0.69282"/>
     <use xlink:href="#m95b5e8df68" x="70.828516" y="337.414345" style="fill: #1f77b4; fill-opacity: 0.5; stroke: #ffffff; stroke-opacity: 0.5; stroke-width: 0.69282"/>
     <use xlink:href="#m95b5e8df68" x="70.828516" y="329.693769" style="fill: #1f77b4; fill-opacity: 0.5; stroke: #ffffff; stroke-opacity: 0.5; stroke-width: 0.69282"/>
     <use xlink:href="#m95b5e8df68" x="70.828516" y="333.554057" style="fill: #1f77b4; fill-opacity: 0.5; stroke: #ffffff; stroke-opacity: 0.5; stroke-width: 0.69282"/>
     <use xlink:href="#m95b5e8df68" x="70.828516" y="356.715784" style="fill: #1f77b4; fill-opacity: 0.5; stroke: #ffffff; stroke-opacity: 0.5; stroke-width: 0.69282"/>
     <use xlink:href="#m95b5e8df68" x="354.523841" y="86.495636" style="fill: #1f77b4; fill-opacity: 0.5; stroke: #ffffff; stroke-opacity: 0.5; stroke-width: 0.69282"/>
     <use xlink:href="#m95b5e8df68" x="87.064092" y="175.282256" style="fill: #1f77b4; fill-opacity: 0.5; stroke: #ffffff; stroke-opacity: 0.5; stroke-width: 0.69282"/>
     <use xlink:href="#m95b5e8df68" x="71.68302" y="341.274633" style="fill: #1f77b4; fill-opacity: 0.5; stroke: #ffffff; stroke-opacity: 0.5; stroke-width: 0.69282"/>
     <use xlink:href="#m95b5e8df68" x="71.68302" y="221.60571" style="fill: #1f77b4; fill-opacity: 0.5; stroke: #ffffff; stroke-opacity: 0.5; stroke-width: 0.69282"/>
     <use xlink:href="#m95b5e8df68" x="70.828516" y="329.693769" style="fill: #1f77b4; fill-opacity: 0.5; stroke: #ffffff; stroke-opacity: 0.5; stroke-width: 0.69282"/>
     <use xlink:href="#m95b5e8df68" x="73.392028" y="202.304271" style="fill: #1f77b4; fill-opacity: 0.5; stroke: #ffffff; stroke-opacity: 0.5; stroke-width: 0.69282"/>
     <use xlink:href="#m95b5e8df68" x="70.828516" y="194.583695" style="fill: #1f77b4; fill-opacity: 0.5; stroke: #ffffff; stroke-opacity: 0.5; stroke-width: 0.69282"/>
     <use xlink:href="#m95b5e8df68" x="70.828516" y="294.951179" style="fill: #1f77b4; fill-opacity: 0.5; stroke: #ffffff; stroke-opacity: 0.5; stroke-width: 0.69282"/>
     <use xlink:href="#m95b5e8df68" x="72.537524" y="267.929164" style="fill: #1f77b4; fill-opacity: 0.5; stroke: #ffffff; stroke-opacity: 0.5; stroke-width: 0.69282"/>
     <use xlink:href="#m95b5e8df68" x="70.828516" y="283.370315" style="fill: #1f77b4; fill-opacity: 0.5; stroke: #ffffff; stroke-opacity: 0.5; stroke-width: 0.69282"/>
     <use xlink:href="#m95b5e8df68" x="72.537524" y="175.282256" style="fill: #1f77b4; fill-opacity: 0.5; stroke: #ffffff; stroke-opacity: 0.5; stroke-width: 0.69282"/>
     <use xlink:href="#m95b5e8df68" x="70.828516" y="221.60571" style="fill: #1f77b4; fill-opacity: 0.5; stroke: #ffffff; stroke-opacity: 0.5; stroke-width: 0.69282"/>
     <use xlink:href="#m95b5e8df68" x="71.68302" y="210.024847" style="fill: #1f77b4; fill-opacity: 0.5; stroke: #ffffff; stroke-opacity: 0.5; stroke-width: 0.69282"/>
     <use xlink:href="#m95b5e8df68" x="74.246532" y="221.60571" style="fill: #1f77b4; fill-opacity: 0.5; stroke: #ffffff; stroke-opacity: 0.5; stroke-width: 0.69282"/>
     <use xlink:href="#m95b5e8df68" x="70.828516" y="294.951179" style="fill: #1f77b4; fill-opacity: 0.5; stroke: #ffffff; stroke-opacity: 0.5; stroke-width: 0.69282"/>
     <use xlink:href="#m95b5e8df68" x="70.828516" y="321.973193" style="fill: #1f77b4; fill-opacity: 0.5; stroke: #ffffff; stroke-opacity: 0.5; stroke-width: 0.69282"/>
     <use xlink:href="#m95b5e8df68" x="75.95554" y="287.230603" style="fill: #1f77b4; fill-opacity: 0.5; stroke: #ffffff; stroke-opacity: 0.5; stroke-width: 0.69282"/>
     <use xlink:href="#m95b5e8df68" x="72.537524" y="287.230603" style="fill: #1f77b4; fill-opacity: 0.5; stroke: #ffffff; stroke-opacity: 0.5; stroke-width: 0.69282"/>
     <use xlink:href="#m95b5e8df68" x="70.828516" y="306.532042" style="fill: #1f77b4; fill-opacity: 0.5; stroke: #ffffff; stroke-opacity: 0.5; stroke-width: 0.69282"/>
     <use xlink:href="#m95b5e8df68" x="70.828516" y="372.156935" style="fill: #1f77b4; fill-opacity: 0.5; stroke: #ffffff; stroke-opacity: 0.5; stroke-width: 0.69282"/>
     <use xlink:href="#m95b5e8df68" x="70.828516" y="221.60571" style="fill: #1f77b4; fill-opacity: 0.5; stroke: #ffffff; stroke-opacity: 0.5; stroke-width: 0.69282"/>
     <use xlink:href="#m95b5e8df68" x="71.68302" y="252.488013" style="fill: #1f77b4; fill-opacity: 0.5; stroke: #ffffff; stroke-opacity: 0.5; stroke-width: 0.69282"/>
     <use xlink:href="#m95b5e8df68" x="70.828516" y="217.745422" style="fill: #1f77b4; fill-opacity: 0.5; stroke: #ffffff; stroke-opacity: 0.5; stroke-width: 0.69282"/>
     <use xlink:href="#m95b5e8df68" x="70.828516" y="244.767437" style="fill: #1f77b4; fill-opacity: 0.5; stroke: #ffffff; stroke-opacity: 0.5; stroke-width: 0.69282"/>
     <use xlink:href="#m95b5e8df68" x="76.810044" y="202.304271" style="fill: #1f77b4; fill-opacity: 0.5; stroke: #ffffff; stroke-opacity: 0.5; stroke-width: 0.69282"/>
     <use xlink:href="#m95b5e8df68" x="74.246532" y="152.120529" style="fill: #1f77b4; fill-opacity: 0.5; stroke: #ffffff; stroke-opacity: 0.5; stroke-width: 0.69282"/>
     <use xlink:href="#m95b5e8df68" x="70.828516" y="264.068876" style="fill: #1f77b4; fill-opacity: 0.5; stroke: #ffffff; stroke-opacity: 0.5; stroke-width: 0.69282"/>
     <use xlink:href="#m95b5e8df68" x="70.828516" y="260.208588" style="fill: #1f77b4; fill-opacity: 0.5; stroke: #ffffff; stroke-opacity: 0.5; stroke-width: 0.69282"/>
     <use xlink:href="#m95b5e8df68" x="72.537524" y="225.465998" style="fill: #1f77b4; fill-opacity: 0.5; stroke: #ffffff; stroke-opacity: 0.5; stroke-width: 0.69282"/>
     <use xlink:href="#m95b5e8df68" x="71.68302" y="294.951179" style="fill: #1f77b4; fill-opacity: 0.5; stroke: #ffffff; stroke-opacity: 0.5; stroke-width: 0.69282"/>
     <use xlink:href="#m95b5e8df68" x="70.828516" y="364.436359" style="fill: #1f77b4; fill-opacity: 0.5; stroke: #ffffff; stroke-opacity: 0.5; stroke-width: 0.69282"/>
     <use xlink:href="#m95b5e8df68" x="71.68302" y="229.326286" style="fill: #1f77b4; fill-opacity: 0.5; stroke: #ffffff; stroke-opacity: 0.5; stroke-width: 0.69282"/>
     <use xlink:href="#m95b5e8df68" x="70.828516" y="233.186574" style="fill: #1f77b4; fill-opacity: 0.5; stroke: #ffffff; stroke-opacity: 0.5; stroke-width: 0.69282"/>
     <use xlink:href="#m95b5e8df68" x="70.828516" y="314.252618" style="fill: #1f77b4; fill-opacity: 0.5; stroke: #ffffff; stroke-opacity: 0.5; stroke-width: 0.69282"/>
     <use xlink:href="#m95b5e8df68" x="86.209588" y="121.238227" style="fill: #1f77b4; fill-opacity: 0.5; stroke: #ffffff; stroke-opacity: 0.5; stroke-width: 0.69282"/>
     <use xlink:href="#m95b5e8df68" x="70.828516" y="333.554057" style="fill: #1f77b4; fill-opacity: 0.5; stroke: #ffffff; stroke-opacity: 0.5; stroke-width: 0.69282"/>
    </g>
   </g>
   <g id="matplotlib.axis_1">
    <g id="xtick_1">
     <g id="line2d_1">
      <defs>
       <path id="m12d12b82f5" d="M 0 0 
L 0 3.5 
" style="stroke: #000000; stroke-width: 0.8"/>
      </defs>
      <g>
       <use xlink:href="#m12d12b82f5" x="69.974012" y="386.44" style="stroke: #000000; stroke-width: 0.8"/>
      </g>
     </g>
     <g id="text_1">
      <!-- 0 -->
      <g transform="translate(65.202137 404.837656)scale(0.15 -0.15)">
       <defs>
        <path id="DejaVuSans-30" d="M 2034 4250 
Q 1547 4250 1301 3770 
Q 1056 3291 1056 2328 
Q 1056 1369 1301 889 
Q 1547 409 2034 409 
Q 2525 409 2770 889 
Q 3016 1369 3016 2328 
Q 3016 3291 2770 3770 
Q 2525 4250 2034 4250 
z
M 2034 4750 
Q 2819 4750 3233 4129 
Q 3647 3509 3647 2328 
Q 3647 1150 3233 529 
Q 2819 -91 2034 -91 
Q 1250 -91 836 529 
Q 422 1150 422 2328 
Q 422 3509 836 4129 
Q 1250 4750 2034 4750 
z
" transform="scale(0.015625)"/>
       </defs>
       <use xlink:href="#DejaVuSans-30"/>
      </g>
     </g>
    </g>
    <g id="xtick_2">
     <g id="line2d_2">
      <g>
       <use xlink:href="#m12d12b82f5" x="155.424411" y="386.44" style="stroke: #000000; stroke-width: 0.8"/>
      </g>
     </g>
     <g id="text_2">
      <!-- 100 -->
      <g transform="translate(141.108786 404.837656)scale(0.15 -0.15)">
       <defs>
        <path id="DejaVuSans-31" d="M 794 531 
L 1825 531 
L 1825 4091 
L 703 3866 
L 703 4441 
L 1819 4666 
L 2450 4666 
L 2450 531 
L 3481 531 
L 3481 0 
L 794 0 
L 794 531 
z
" transform="scale(0.015625)"/>
       </defs>
       <use xlink:href="#DejaVuSans-31"/>
       <use xlink:href="#DejaVuSans-30" x="63.623047"/>
       <use xlink:href="#DejaVuSans-30" x="127.246094"/>
      </g>
     </g>
    </g>
    <g id="xtick_3">
     <g id="line2d_3">
      <g>
       <use xlink:href="#m12d12b82f5" x="240.87481" y="386.44" style="stroke: #000000; stroke-width: 0.8"/>
      </g>
     </g>
     <g id="text_3">
      <!-- 200 -->
      <g transform="translate(226.559185 404.837656)scale(0.15 -0.15)">
       <defs>
        <path id="DejaVuSans-32" d="M 1228 531 
L 3431 531 
L 3431 0 
L 469 0 
L 469 531 
Q 828 903 1448 1529 
Q 2069 2156 2228 2338 
Q 2531 2678 2651 2914 
Q 2772 3150 2772 3378 
Q 2772 3750 2511 3984 
Q 2250 4219 1831 4219 
Q 1534 4219 1204 4116 
Q 875 4013 500 3803 
L 500 4441 
Q 881 4594 1212 4672 
Q 1544 4750 1819 4750 
Q 2544 4750 2975 4387 
Q 3406 4025 3406 3419 
Q 3406 3131 3298 2873 
Q 3191 2616 2906 2266 
Q 2828 2175 2409 1742 
Q 1991 1309 1228 531 
z
" transform="scale(0.015625)"/>
       </defs>
       <use xlink:href="#DejaVuSans-32"/>
       <use xlink:href="#DejaVuSans-30" x="63.623047"/>
       <use xlink:href="#DejaVuSans-30" x="127.246094"/>
      </g>
     </g>
    </g>
    <g id="xtick_4">
     <g id="line2d_4">
      <g>
       <use xlink:href="#m12d12b82f5" x="326.325209" y="386.44" style="stroke: #000000; stroke-width: 0.8"/>
      </g>
     </g>
     <g id="text_4">
      <!-- 300 -->
      <g transform="translate(312.009584 404.837656)scale(0.15 -0.15)">
       <defs>
        <path id="DejaVuSans-33" d="M 2597 2516 
Q 3050 2419 3304 2112 
Q 3559 1806 3559 1356 
Q 3559 666 3084 287 
Q 2609 -91 1734 -91 
Q 1441 -91 1130 -33 
Q 819 25 488 141 
L 488 750 
Q 750 597 1062 519 
Q 1375 441 1716 441 
Q 2309 441 2620 675 
Q 2931 909 2931 1356 
Q 2931 1769 2642 2001 
Q 2353 2234 1838 2234 
L 1294 2234 
L 1294 2753 
L 1863 2753 
Q 2328 2753 2575 2939 
Q 2822 3125 2822 3475 
Q 2822 3834 2567 4026 
Q 2313 4219 1838 4219 
Q 1578 4219 1281 4162 
Q 984 4106 628 3988 
L 628 4550 
Q 988 4650 1302 4700 
Q 1616 4750 1894 4750 
Q 2613 4750 3031 4423 
Q 3450 4097 3450 3541 
Q 3450 3153 3228 2886 
Q 3006 2619 2597 2516 
z
" transform="scale(0.015625)"/>
       </defs>
       <use xlink:href="#DejaVuSans-33"/>
       <use xlink:href="#DejaVuSans-30" x="63.623047"/>
       <use xlink:href="#DejaVuSans-30" x="127.246094"/>
      </g>
     </g>
    </g>
    <g id="text_5">
     <!-- # Commits -->
     <g transform="translate(156.627741 427.154062)scale(0.2 -0.2)">
      <defs>
       <path id="DejaVuSans-23" d="M 3272 2816 
L 2363 2816 
L 2100 1772 
L 3016 1772 
L 3272 2816 
z
M 2803 4594 
L 2478 3297 
L 3391 3297 
L 3719 4594 
L 4219 4594 
L 3897 3297 
L 4872 3297 
L 4872 2816 
L 3775 2816 
L 3519 1772 
L 4513 1772 
L 4513 1294 
L 3397 1294 
L 3072 0 
L 2572 0 
L 2894 1294 
L 1978 1294 
L 1656 0 
L 1153 0 
L 1478 1294 
L 494 1294 
L 494 1772 
L 1594 1772 
L 1856 2816 
L 850 2816 
L 850 3297 
L 1978 3297 
L 2297 4594 
L 2803 4594 
z
" transform="scale(0.015625)"/>
       <path id="DejaVuSans-20" transform="scale(0.015625)"/>
       <path id="DejaVuSans-43" d="M 4122 4306 
L 4122 3641 
Q 3803 3938 3442 4084 
Q 3081 4231 2675 4231 
Q 1875 4231 1450 3742 
Q 1025 3253 1025 2328 
Q 1025 1406 1450 917 
Q 1875 428 2675 428 
Q 3081 428 3442 575 
Q 3803 722 4122 1019 
L 4122 359 
Q 3791 134 3420 21 
Q 3050 -91 2638 -91 
Q 1578 -91 968 557 
Q 359 1206 359 2328 
Q 359 3453 968 4101 
Q 1578 4750 2638 4750 
Q 3056 4750 3426 4639 
Q 3797 4528 4122 4306 
z
" transform="scale(0.015625)"/>
       <path id="DejaVuSans-6f" d="M 1959 3097 
Q 1497 3097 1228 2736 
Q 959 2375 959 1747 
Q 959 1119 1226 758 
Q 1494 397 1959 397 
Q 2419 397 2687 759 
Q 2956 1122 2956 1747 
Q 2956 2369 2687 2733 
Q 2419 3097 1959 3097 
z
M 1959 3584 
Q 2709 3584 3137 3096 
Q 3566 2609 3566 1747 
Q 3566 888 3137 398 
Q 2709 -91 1959 -91 
Q 1206 -91 779 398 
Q 353 888 353 1747 
Q 353 2609 779 3096 
Q 1206 3584 1959 3584 
z
" transform="scale(0.015625)"/>
       <path id="DejaVuSans-6d" d="M 3328 2828 
Q 3544 3216 3844 3400 
Q 4144 3584 4550 3584 
Q 5097 3584 5394 3201 
Q 5691 2819 5691 2113 
L 5691 0 
L 5113 0 
L 5113 2094 
Q 5113 2597 4934 2840 
Q 4756 3084 4391 3084 
Q 3944 3084 3684 2787 
Q 3425 2491 3425 1978 
L 3425 0 
L 2847 0 
L 2847 2094 
Q 2847 2600 2669 2842 
Q 2491 3084 2119 3084 
Q 1678 3084 1418 2786 
Q 1159 2488 1159 1978 
L 1159 0 
L 581 0 
L 581 3500 
L 1159 3500 
L 1159 2956 
Q 1356 3278 1631 3431 
Q 1906 3584 2284 3584 
Q 2666 3584 2933 3390 
Q 3200 3197 3328 2828 
z
" transform="scale(0.015625)"/>
       <path id="DejaVuSans-69" d="M 603 3500 
L 1178 3500 
L 1178 0 
L 603 0 
L 603 3500 
z
M 603 4863 
L 1178 4863 
L 1178 4134 
L 603 4134 
L 603 4863 
z
" transform="scale(0.015625)"/>
       <path id="DejaVuSans-74" d="M 1172 4494 
L 1172 3500 
L 2356 3500 
L 2356 3053 
L 1172 3053 
L 1172 1153 
Q 1172 725 1289 603 
Q 1406 481 1766 481 
L 2356 481 
L 2356 0 
L 1766 0 
Q 1100 0 847 248 
Q 594 497 594 1153 
L 594 3053 
L 172 3053 
L 172 3500 
L 594 3500 
L 594 4494 
L 1172 4494 
z
" transform="scale(0.015625)"/>
       <path id="DejaVuSans-73" d="M 2834 3397 
L 2834 2853 
Q 2591 2978 2328 3040 
Q 2066 3103 1784 3103 
Q 1356 3103 1142 2972 
Q 928 2841 928 2578 
Q 928 2378 1081 2264 
Q 1234 2150 1697 2047 
L 1894 2003 
Q 2506 1872 2764 1633 
Q 3022 1394 3022 966 
Q 3022 478 2636 193 
Q 2250 -91 1575 -91 
Q 1294 -91 989 -36 
Q 684 19 347 128 
L 347 722 
Q 666 556 975 473 
Q 1284 391 1588 391 
Q 1994 391 2212 530 
Q 2431 669 2431 922 
Q 2431 1156 2273 1281 
Q 2116 1406 1581 1522 
L 1381 1569 
Q 847 1681 609 1914 
Q 372 2147 372 2553 
Q 372 3047 722 3315 
Q 1072 3584 1716 3584 
Q 2034 3584 2315 3537 
Q 2597 3491 2834 3397 
z
" transform="scale(0.015625)"/>
      </defs>
      <use xlink:href="#DejaVuSans-23"/>
      <use xlink:href="#DejaVuSans-20" x="83.789062"/>
      <use xlink:href="#DejaVuSans-43" x="115.576172"/>
      <use xlink:href="#DejaVuSans-6f" x="185.400391"/>
      <use xlink:href="#DejaVuSans-6d" x="246.582031"/>
      <use xlink:href="#DejaVuSans-6d" x="343.994141"/>
      <use xlink:href="#DejaVuSans-69" x="441.40625"/>
      <use xlink:href="#DejaVuSans-74" x="469.189453"/>
      <use xlink:href="#DejaVuSans-73" x="508.398438"/>
     </g>
    </g>
   </g>
   <g id="matplotlib.axis_2">
    <g id="ytick_1">
     <g id="line2d_5">
      <defs>
       <path id="m9fb6337002" d="M 0 0 
L -3.5 0 
" style="stroke: #000000; stroke-width: 0.8"/>
      </defs>
      <g>
       <use xlink:href="#m9fb6337002" x="56.64375" y="376.017223" style="stroke: #000000; stroke-width: 0.8"/>
      </g>
     </g>
     <g id="text_6">
      <!-- 0 -->
      <g transform="translate(40.1 381.716051)scale(0.15 -0.15)">
       <use xlink:href="#DejaVuSans-30"/>
      </g>
     </g>
    </g>
    <g id="ytick_2">
     <g id="line2d_6">
      <g>
       <use xlink:href="#m9fb6337002" x="56.64375" y="337.414345" style="stroke: #000000; stroke-width: 0.8"/>
      </g>
     </g>
     <g id="text_7">
      <!-- 10 -->
      <g transform="translate(30.55625 343.113173)scale(0.15 -0.15)">
       <use xlink:href="#DejaVuSans-31"/>
       <use xlink:href="#DejaVuSans-30" x="63.623047"/>
      </g>
     </g>
    </g>
    <g id="ytick_3">
     <g id="line2d_7">
      <g>
       <use xlink:href="#m9fb6337002" x="56.64375" y="298.811466" style="stroke: #000000; stroke-width: 0.8"/>
      </g>
     </g>
     <g id="text_8">
      <!-- 20 -->
      <g transform="translate(30.55625 304.510295)scale(0.15 -0.15)">
       <use xlink:href="#DejaVuSans-32"/>
       <use xlink:href="#DejaVuSans-30" x="63.623047"/>
      </g>
     </g>
    </g>
    <g id="ytick_4">
     <g id="line2d_8">
      <g>
       <use xlink:href="#m9fb6337002" x="56.64375" y="260.208588" style="stroke: #000000; stroke-width: 0.8"/>
      </g>
     </g>
     <g id="text_9">
      <!-- 30 -->
      <g transform="translate(30.55625 265.907416)scale(0.15 -0.15)">
       <use xlink:href="#DejaVuSans-33"/>
       <use xlink:href="#DejaVuSans-30" x="63.623047"/>
      </g>
     </g>
    </g>
    <g id="ytick_5">
     <g id="line2d_9">
      <g>
       <use xlink:href="#m9fb6337002" x="56.64375" y="221.60571" style="stroke: #000000; stroke-width: 0.8"/>
      </g>
     </g>
     <g id="text_10">
      <!-- 40 -->
      <g transform="translate(30.55625 227.304538)scale(0.15 -0.15)">
       <defs>
        <path id="DejaVuSans-34" d="M 2419 4116 
L 825 1625 
L 2419 1625 
L 2419 4116 
z
M 2253 4666 
L 3047 4666 
L 3047 1625 
L 3713 1625 
L 3713 1100 
L 3047 1100 
L 3047 0 
L 2419 0 
L 2419 1100 
L 313 1100 
L 313 1709 
L 2253 4666 
z
" transform="scale(0.015625)"/>
       </defs>
       <use xlink:href="#DejaVuSans-34"/>
       <use xlink:href="#DejaVuSans-30" x="63.623047"/>
      </g>
     </g>
    </g>
    <g id="ytick_6">
     <g id="line2d_10">
      <g>
       <use xlink:href="#m9fb6337002" x="56.64375" y="183.002832" style="stroke: #000000; stroke-width: 0.8"/>
      </g>
     </g>
     <g id="text_11">
      <!-- 50 -->
      <g transform="translate(30.55625 188.70166)scale(0.15 -0.15)">
       <defs>
        <path id="DejaVuSans-35" d="M 691 4666 
L 3169 4666 
L 3169 4134 
L 1269 4134 
L 1269 2991 
Q 1406 3038 1543 3061 
Q 1681 3084 1819 3084 
Q 2600 3084 3056 2656 
Q 3513 2228 3513 1497 
Q 3513 744 3044 326 
Q 2575 -91 1722 -91 
Q 1428 -91 1123 -41 
Q 819 9 494 109 
L 494 744 
Q 775 591 1075 516 
Q 1375 441 1709 441 
Q 2250 441 2565 725 
Q 2881 1009 2881 1497 
Q 2881 1984 2565 2268 
Q 2250 2553 1709 2553 
Q 1456 2553 1204 2497 
Q 953 2441 691 2322 
L 691 4666 
z
" transform="scale(0.015625)"/>
       </defs>
       <use xlink:href="#DejaVuSans-35"/>
       <use xlink:href="#DejaVuSans-30" x="63.623047"/>
      </g>
     </g>
    </g>
    <g id="ytick_7">
     <g id="line2d_11">
      <g>
       <use xlink:href="#m9fb6337002" x="56.64375" y="144.399954" style="stroke: #000000; stroke-width: 0.8"/>
      </g>
     </g>
     <g id="text_12">
      <!-- 60 -->
      <g transform="translate(30.55625 150.098782)scale(0.15 -0.15)">
       <defs>
        <path id="DejaVuSans-36" d="M 2113 2584 
Q 1688 2584 1439 2293 
Q 1191 2003 1191 1497 
Q 1191 994 1439 701 
Q 1688 409 2113 409 
Q 2538 409 2786 701 
Q 3034 994 3034 1497 
Q 3034 2003 2786 2293 
Q 2538 2584 2113 2584 
z
M 3366 4563 
L 3366 3988 
Q 3128 4100 2886 4159 
Q 2644 4219 2406 4219 
Q 1781 4219 1451 3797 
Q 1122 3375 1075 2522 
Q 1259 2794 1537 2939 
Q 1816 3084 2150 3084 
Q 2853 3084 3261 2657 
Q 3669 2231 3669 1497 
Q 3669 778 3244 343 
Q 2819 -91 2113 -91 
Q 1303 -91 875 529 
Q 447 1150 447 2328 
Q 447 3434 972 4092 
Q 1497 4750 2381 4750 
Q 2619 4750 2861 4703 
Q 3103 4656 3366 4563 
z
" transform="scale(0.015625)"/>
       </defs>
       <use xlink:href="#DejaVuSans-36"/>
       <use xlink:href="#DejaVuSans-30" x="63.623047"/>
      </g>
     </g>
    </g>
    <g id="ytick_8">
     <g id="line2d_12">
      <g>
       <use xlink:href="#m9fb6337002" x="56.64375" y="105.797075" style="stroke: #000000; stroke-width: 0.8"/>
      </g>
     </g>
     <g id="text_13">
      <!-- 70 -->
      <g transform="translate(30.55625 111.495904)scale(0.15 -0.15)">
       <defs>
        <path id="DejaVuSans-37" d="M 525 4666 
L 3525 4666 
L 3525 4397 
L 1831 0 
L 1172 0 
L 2766 4134 
L 525 4134 
L 525 4666 
z
" transform="scale(0.015625)"/>
       </defs>
       <use xlink:href="#DejaVuSans-37"/>
       <use xlink:href="#DejaVuSans-30" x="63.623047"/>
      </g>
     </g>
    </g>
    <g id="text_14">
     <!-- # Interacting authors -->
     <g transform="translate(22.396875 336.707536)rotate(-90)scale(0.2 -0.2)">
      <defs>
       <path id="DejaVuSans-49" d="M 628 4666 
L 1259 4666 
L 1259 0 
L 628 0 
L 628 4666 
z
" transform="scale(0.015625)"/>
       <path id="DejaVuSans-6e" d="M 3513 2113 
L 3513 0 
L 2938 0 
L 2938 2094 
Q 2938 2591 2744 2837 
Q 2550 3084 2163 3084 
Q 1697 3084 1428 2787 
Q 1159 2491 1159 1978 
L 1159 0 
L 581 0 
L 581 3500 
L 1159 3500 
L 1159 2956 
Q 1366 3272 1645 3428 
Q 1925 3584 2291 3584 
Q 2894 3584 3203 3211 
Q 3513 2838 3513 2113 
z
" transform="scale(0.015625)"/>
       <path id="DejaVuSans-65" d="M 3597 1894 
L 3597 1613 
L 953 1613 
Q 991 1019 1311 708 
Q 1631 397 2203 397 
Q 2534 397 2845 478 
Q 3156 559 3463 722 
L 3463 178 
Q 3153 47 2828 -22 
Q 2503 -91 2169 -91 
Q 1331 -91 842 396 
Q 353 884 353 1716 
Q 353 2575 817 3079 
Q 1281 3584 2069 3584 
Q 2775 3584 3186 3129 
Q 3597 2675 3597 1894 
z
M 3022 2063 
Q 3016 2534 2758 2815 
Q 2500 3097 2075 3097 
Q 1594 3097 1305 2825 
Q 1016 2553 972 2059 
L 3022 2063 
z
" transform="scale(0.015625)"/>
       <path id="DejaVuSans-72" d="M 2631 2963 
Q 2534 3019 2420 3045 
Q 2306 3072 2169 3072 
Q 1681 3072 1420 2755 
Q 1159 2438 1159 1844 
L 1159 0 
L 581 0 
L 581 3500 
L 1159 3500 
L 1159 2956 
Q 1341 3275 1631 3429 
Q 1922 3584 2338 3584 
Q 2397 3584 2469 3576 
Q 2541 3569 2628 3553 
L 2631 2963 
z
" transform="scale(0.015625)"/>
       <path id="DejaVuSans-61" d="M 2194 1759 
Q 1497 1759 1228 1600 
Q 959 1441 959 1056 
Q 959 750 1161 570 
Q 1363 391 1709 391 
Q 2188 391 2477 730 
Q 2766 1069 2766 1631 
L 2766 1759 
L 2194 1759 
z
M 3341 1997 
L 3341 0 
L 2766 0 
L 2766 531 
Q 2569 213 2275 61 
Q 1981 -91 1556 -91 
Q 1019 -91 701 211 
Q 384 513 384 1019 
Q 384 1609 779 1909 
Q 1175 2209 1959 2209 
L 2766 2209 
L 2766 2266 
Q 2766 2663 2505 2880 
Q 2244 3097 1772 3097 
Q 1472 3097 1187 3025 
Q 903 2953 641 2809 
L 641 3341 
Q 956 3463 1253 3523 
Q 1550 3584 1831 3584 
Q 2591 3584 2966 3190 
Q 3341 2797 3341 1997 
z
" transform="scale(0.015625)"/>
       <path id="DejaVuSans-63" d="M 3122 3366 
L 3122 2828 
Q 2878 2963 2633 3030 
Q 2388 3097 2138 3097 
Q 1578 3097 1268 2742 
Q 959 2388 959 1747 
Q 959 1106 1268 751 
Q 1578 397 2138 397 
Q 2388 397 2633 464 
Q 2878 531 3122 666 
L 3122 134 
Q 2881 22 2623 -34 
Q 2366 -91 2075 -91 
Q 1284 -91 818 406 
Q 353 903 353 1747 
Q 353 2603 823 3093 
Q 1294 3584 2113 3584 
Q 2378 3584 2631 3529 
Q 2884 3475 3122 3366 
z
" transform="scale(0.015625)"/>
       <path id="DejaVuSans-67" d="M 2906 1791 
Q 2906 2416 2648 2759 
Q 2391 3103 1925 3103 
Q 1463 3103 1205 2759 
Q 947 2416 947 1791 
Q 947 1169 1205 825 
Q 1463 481 1925 481 
Q 2391 481 2648 825 
Q 2906 1169 2906 1791 
z
M 3481 434 
Q 3481 -459 3084 -895 
Q 2688 -1331 1869 -1331 
Q 1566 -1331 1297 -1286 
Q 1028 -1241 775 -1147 
L 775 -588 
Q 1028 -725 1275 -790 
Q 1522 -856 1778 -856 
Q 2344 -856 2625 -561 
Q 2906 -266 2906 331 
L 2906 616 
Q 2728 306 2450 153 
Q 2172 0 1784 0 
Q 1141 0 747 490 
Q 353 981 353 1791 
Q 353 2603 747 3093 
Q 1141 3584 1784 3584 
Q 2172 3584 2450 3431 
Q 2728 3278 2906 2969 
L 2906 3500 
L 3481 3500 
L 3481 434 
z
" transform="scale(0.015625)"/>
       <path id="DejaVuSans-75" d="M 544 1381 
L 544 3500 
L 1119 3500 
L 1119 1403 
Q 1119 906 1312 657 
Q 1506 409 1894 409 
Q 2359 409 2629 706 
Q 2900 1003 2900 1516 
L 2900 3500 
L 3475 3500 
L 3475 0 
L 2900 0 
L 2900 538 
Q 2691 219 2414 64 
Q 2138 -91 1772 -91 
Q 1169 -91 856 284 
Q 544 659 544 1381 
z
M 1991 3584 
L 1991 3584 
z
" transform="scale(0.015625)"/>
       <path id="DejaVuSans-68" d="M 3513 2113 
L 3513 0 
L 2938 0 
L 2938 2094 
Q 2938 2591 2744 2837 
Q 2550 3084 2163 3084 
Q 1697 3084 1428 2787 
Q 1159 2491 1159 1978 
L 1159 0 
L 581 0 
L 581 4863 
L 1159 4863 
L 1159 2956 
Q 1366 3272 1645 3428 
Q 1925 3584 2291 3584 
Q 2894 3584 3203 3211 
Q 3513 2838 3513 2113 
z
" transform="scale(0.015625)"/>
      </defs>
      <use xlink:href="#DejaVuSans-23"/>
      <use xlink:href="#DejaVuSans-20" x="83.789062"/>
      <use xlink:href="#DejaVuSans-49" x="115.576172"/>
      <use xlink:href="#DejaVuSans-6e" x="145.068359"/>
      <use xlink:href="#DejaVuSans-74" x="208.447266"/>
      <use xlink:href="#DejaVuSans-65" x="247.65625"/>
      <use xlink:href="#DejaVuSans-72" x="309.179688"/>
      <use xlink:href="#DejaVuSans-61" x="350.292969"/>
      <use xlink:href="#DejaVuSans-63" x="411.572266"/>
      <use xlink:href="#DejaVuSans-74" x="466.552734"/>
      <use xlink:href="#DejaVuSans-69" x="505.761719"/>
      <use xlink:href="#DejaVuSans-6e" x="533.544922"/>
      <use xlink:href="#DejaVuSans-67" x="596.923828"/>
      <use xlink:href="#DejaVuSans-20" x="660.400391"/>
      <use xlink:href="#DejaVuSans-61" x="692.1875"/>
      <use xlink:href="#DejaVuSans-75" x="753.466797"/>
      <use xlink:href="#DejaVuSans-74" x="816.845703"/>
      <use xlink:href="#DejaVuSans-68" x="856.054688"/>
      <use xlink:href="#DejaVuSans-6f" x="919.433594"/>
      <use xlink:href="#DejaVuSans-72" x="980.615234"/>
      <use xlink:href="#DejaVuSans-73" x="1021.728516"/>
     </g>
    </g>
   </g>
   <g id="patch_3">
    <path d="M 56.64375 386.44 
L 56.64375 72.212571 
" style="fill: none; stroke: #000000; stroke-width: 0.8; stroke-linejoin: miter; stroke-linecap: square"/>
   </g>
   <g id="patch_4">
    <path d="M 56.64375 386.44 
L 368.708607 386.44 
" style="fill: none; stroke: #000000; stroke-width: 0.8; stroke-linejoin: miter; stroke-linecap: square"/>
   </g>
  </g>
  <g id="axes_2">
   <g id="patch_5">
    <path d="M 56.64375 61.377143 
L 368.708607 61.377143 
L 368.708607 7.2 
L 56.64375 7.2 
z
" style="fill: #ffffff"/>
   </g>
   <g id="PolyCollection_1">
    <defs>
     <path id="m71868fb9a2" d="M 8.104481 -377.623737 
L 8.104481 -377.136295 
L 10.160478 -377.136295 
L 12.216475 -377.136295 
L 14.272472 -377.136295 
L 16.328469 -377.136295 
L 18.384466 -377.136295 
L 20.440463 -377.136295 
L 22.49646 -377.136295 
L 24.552457 -377.136295 
L 26.608454 -377.136295 
L 28.664451 -377.136295 
L 30.720448 -377.136295 
L 32.776444 -377.136295 
L 34.832441 -377.136295 
L 36.888438 -377.136295 
L 38.944435 -377.136295 
L 41.000432 -377.136295 
L 43.056429 -377.136295 
L 45.112426 -377.136295 
L 47.168423 -377.136295 
L 49.22442 -377.136295 
L 51.280417 -377.136295 
L 53.336414 -377.136295 
L 55.392411 -377.136295 
L 57.448408 -377.136295 
L 59.504405 -377.136295 
L 61.560402 -377.136295 
L 63.616399 -377.136295 
L 65.672396 -377.136295 
L 67.728393 -377.136295 
L 69.78439 -377.136295 
L 71.840387 -377.136295 
L 73.896384 -377.136295 
L 75.952381 -377.136295 
L 78.008378 -377.136295 
L 80.064375 -377.136295 
L 82.120372 -377.136295 
L 84.176368 -377.136295 
L 86.232365 -377.136295 
L 88.288362 -377.136295 
L 90.344359 -377.136295 
L 92.400356 -377.136295 
L 94.456353 -377.136295 
L 96.51235 -377.136295 
L 98.568347 -377.136295 
L 100.624344 -377.136295 
L 102.680341 -377.136295 
L 104.736338 -377.136295 
L 106.792335 -377.136295 
L 108.848332 -377.136295 
L 110.904329 -377.136295 
L 112.960326 -377.136295 
L 115.016323 -377.136295 
L 117.07232 -377.136295 
L 119.128317 -377.136295 
L 121.184314 -377.136295 
L 123.240311 -377.136295 
L 125.296308 -377.136295 
L 127.352305 -377.136295 
L 129.408302 -377.136295 
L 131.464299 -377.136295 
L 133.520296 -377.136295 
L 135.576293 -377.136295 
L 137.632289 -377.136295 
L 139.688286 -377.136295 
L 141.744283 -377.136295 
L 143.80028 -377.136295 
L 145.856277 -377.136295 
L 147.912274 -377.136295 
L 149.968271 -377.136295 
L 152.024268 -377.136295 
L 154.080265 -377.136295 
L 156.136262 -377.136295 
L 158.192259 -377.136295 
L 160.248256 -377.136295 
L 162.304253 -377.136295 
L 164.36025 -377.136295 
L 166.416247 -377.136295 
L 168.472244 -377.136295 
L 170.528241 -377.136295 
L 172.584238 -377.136295 
L 174.640235 -377.136295 
L 176.696232 -377.136295 
L 178.752229 -377.136295 
L 180.808226 -377.136295 
L 182.864223 -377.136295 
L 184.92022 -377.136295 
L 186.976217 -377.136295 
L 189.032214 -377.136295 
L 191.08821 -377.136295 
L 193.144207 -377.136295 
L 195.200204 -377.136295 
L 197.256201 -377.136295 
L 199.312198 -377.136295 
L 201.368195 -377.136295 
L 203.424192 -377.136295 
L 205.480189 -377.136295 
L 207.536186 -377.136295 
L 209.592183 -377.136295 
L 211.64818 -377.136295 
L 213.704177 -377.136295 
L 215.760174 -377.136295 
L 217.816171 -377.136295 
L 219.872168 -377.136295 
L 221.928165 -377.136295 
L 223.984162 -377.136295 
L 226.040159 -377.136295 
L 228.096156 -377.136295 
L 230.152153 -377.136295 
L 232.20815 -377.136295 
L 234.264147 -377.136295 
L 236.320144 -377.136295 
L 238.376141 -377.136295 
L 240.432138 -377.136295 
L 242.488135 -377.136295 
L 244.544131 -377.136295 
L 246.600128 -377.136295 
L 248.656125 -377.136295 
L 250.712122 -377.136295 
L 252.768119 -377.136295 
L 254.824116 -377.136295 
L 256.880113 -377.136295 
L 258.93611 -377.136295 
L 260.992107 -377.136295 
L 263.048104 -377.136295 
L 265.104101 -377.136295 
L 267.160098 -377.136295 
L 269.216095 -377.136295 
L 271.272092 -377.136295 
L 273.328089 -377.136295 
L 275.384086 -377.136295 
L 277.440083 -377.136295 
L 279.49608 -377.136295 
L 281.552077 -377.136295 
L 283.608074 -377.136295 
L 285.664071 -377.136295 
L 287.720068 -377.136295 
L 289.776065 -377.136295 
L 291.832062 -377.136295 
L 293.888059 -377.136295 
L 295.944055 -377.136295 
L 298.000052 -377.136295 
L 300.056049 -377.136295 
L 302.112046 -377.136295 
L 304.168043 -377.136295 
L 306.22404 -377.136295 
L 308.280037 -377.136295 
L 310.336034 -377.136295 
L 312.392031 -377.136295 
L 314.448028 -377.136295 
L 316.504025 -377.136295 
L 318.560022 -377.136295 
L 320.616019 -377.136295 
L 322.672016 -377.136295 
L 324.728013 -377.136295 
L 326.78401 -377.136295 
L 328.840007 -377.136295 
L 330.896004 -377.136295 
L 332.952001 -377.136295 
L 335.007998 -377.136295 
L 337.063995 -377.136295 
L 339.119992 -377.136295 
L 341.175989 -377.136295 
L 343.231986 -377.136295 
L 345.287983 -377.136295 
L 347.34398 -377.136295 
L 349.399976 -377.136295 
L 351.455973 -377.136295 
L 353.51197 -377.136295 
L 355.567967 -377.136295 
L 357.623964 -377.136295 
L 359.679961 -377.136295 
L 361.735958 -377.136295 
L 363.791955 -377.136295 
L 365.847952 -377.136295 
L 367.903949 -377.136295 
L 369.959946 -377.136295 
L 372.015943 -377.136295 
L 374.07194 -377.136295 
L 376.127937 -377.136295 
L 378.183934 -377.136295 
L 380.239931 -377.136295 
L 382.295928 -377.136295 
L 384.351925 -377.136295 
L 386.407922 -377.136295 
L 388.463919 -377.136295 
L 390.519916 -377.136295 
L 392.575913 -377.136295 
L 394.63191 -377.136295 
L 396.687907 -377.136295 
L 398.743904 -377.136295 
L 400.799901 -377.136295 
L 402.855897 -377.136295 
L 404.911894 -377.136295 
L 406.967891 -377.136295 
L 409.023888 -377.136295 
L 411.079885 -377.136295 
L 413.135882 -377.136295 
L 415.191879 -377.136295 
L 417.247876 -377.136295 
L 417.247876 -377.15087 
L 417.247876 -377.15087 
L 415.191879 -377.155776 
L 413.135882 -377.162084 
L 411.079885 -377.170106 
L 409.023888 -377.180197 
L 406.967891 -377.19275 
L 404.911894 -377.208195 
L 402.855897 -377.226983 
L 400.799901 -377.24958 
L 398.743904 -377.276446 
L 396.687907 -377.308015 
L 394.63191 -377.34467 
L 392.575913 -377.386716 
L 390.519916 -377.434349 
L 388.463919 -377.48763 
L 386.407922 -377.546449 
L 384.351925 -377.610508 
L 382.295928 -377.679296 
L 380.239931 -377.752078 
L 378.183934 -377.827895 
L 376.127937 -377.905573 
L 374.07194 -377.983741 
L 372.015943 -378.060867 
L 369.959946 -378.135306 
L 367.903949 -378.20535 
L 365.847952 -378.269297 
L 363.791955 -378.325512 
L 361.735958 -378.372506 
L 359.679961 -378.408989 
L 357.623964 -378.433941 
L 355.567967 -378.446649 
L 353.51197 -378.446748 
L 351.455973 -378.434236 
L 349.399976 -378.409472 
L 347.34398 -378.373162 
L 345.287983 -378.326325 
L 343.231986 -378.270242 
L 341.175989 -378.206405 
L 339.119992 -378.136443 
L 337.063995 -378.06206 
L 335.007998 -377.984963 
L 332.952001 -377.906799 
L 330.896004 -377.829103 
L 328.840007 -377.753247 
L 326.78401 -377.680409 
L 324.728013 -377.611552 
L 322.672016 -377.547415 
L 320.616019 -377.48851 
L 318.560022 -377.435142 
L 316.504025 -377.38742 
L 314.448028 -377.345287 
L 312.392031 -377.30855 
L 310.336034 -377.276904 
L 308.280037 -377.249968 
L 306.22404 -377.227307 
L 304.168043 -377.208463 
L 302.112046 -377.192969 
L 300.056049 -377.180374 
L 298.000052 -377.170248 
L 295.944055 -377.162196 
L 293.888059 -377.155864 
L 291.832062 -377.150937 
L 289.776065 -377.147145 
L 287.720068 -377.144258 
L 285.664071 -377.142083 
L 283.608074 -377.140461 
L 281.552077 -377.139265 
L 279.49608 -377.138392 
L 277.440083 -377.137761 
L 275.384086 -377.13731 
L 273.328089 -377.136991 
L 271.272092 -377.136768 
L 269.216095 -377.136613 
L 267.160098 -377.136507 
L 265.104101 -377.136435 
L 263.048104 -377.136386 
L 260.992107 -377.136354 
L 258.93611 -377.136333 
L 256.880113 -377.136319 
L 254.824116 -377.13631 
L 252.768119 -377.136304 
L 250.712122 -377.1363 
L 248.656125 -377.136298 
L 246.600128 -377.136297 
L 244.544131 -377.136296 
L 242.488135 -377.136296 
L 240.432138 -377.136295 
L 238.376141 -377.136295 
L 236.320144 -377.136295 
L 234.264147 -377.136296 
L 232.20815 -377.136296 
L 230.152153 -377.136297 
L 228.096156 -377.136299 
L 226.040159 -377.136302 
L 223.984162 -377.136306 
L 221.928165 -377.136313 
L 219.872168 -377.136323 
L 217.816171 -377.136339 
L 215.760174 -377.136364 
L 213.704177 -377.136401 
L 211.64818 -377.136457 
L 209.592183 -377.13654 
L 207.536186 -377.136661 
L 205.480189 -377.136838 
L 203.424192 -377.137092 
L 201.368195 -377.137453 
L 199.312198 -377.137963 
L 197.256201 -377.138672 
L 195.200204 -377.139652 
L 193.144207 -377.140989 
L 191.08821 -377.142797 
L 189.032214 -377.145216 
L 186.976217 -377.148417 
L 184.92022 -377.152612 
L 182.864223 -377.15805 
L 180.808226 -377.165028 
L 178.752229 -377.173889 
L 176.696232 -377.185026 
L 174.640235 -377.19888 
L 172.584238 -377.215939 
L 170.528241 -377.236733 
L 168.472244 -377.26183 
L 166.416247 -377.291831 
L 164.36025 -377.32736 
L 162.304253 -377.369061 
L 160.248256 -377.417601 
L 158.192259 -377.473669 
L 156.136262 -377.537998 
L 154.080265 -377.611385 
L 152.024268 -377.694746 
L 149.968271 -377.78917 
L 147.912274 -377.896012 
L 145.856277 -378.017003 
L 143.80028 -378.154386 
L 141.744283 -378.311075 
L 139.688286 -378.490831 
L 137.632289 -378.698454 
L 135.576293 -378.939969 
L 133.520296 -379.222801 
L 131.464299 -379.555925 
L 129.408302 -379.949954 
L 127.352305 -380.417163 
L 125.296308 -380.971418 
L 123.240311 -381.627982 
L 121.184314 -382.403188 
L 119.128317 -383.313971 
L 117.07232 -384.377229 
L 115.016323 -385.609045 
L 112.960326 -387.023766 
L 110.904329 -388.632974 
L 108.848332 -390.444384 
L 106.792335 -392.46073 
L 104.736338 -394.678704 
L 102.680341 -397.088015 
L 100.624344 -399.670649 
L 98.568347 -402.400406 
L 96.51235 -405.242791 
L 94.456353 -408.155296 
L 92.400356 -411.088124 
L 90.344359 -413.985362 
L 88.288362 -416.78657 
L 86.232365 -419.42876 
L 84.176368 -421.848653 
L 82.120372 -423.98514 
L 80.064375 -425.781787 
L 78.008378 -427.189266 
L 75.952381 -428.167556 
L 73.896384 -428.687781 
L 71.840387 -428.733574 
L 69.78439 -428.301867 
L 67.728393 -427.403072 
L 65.672396 -426.060615 
L 63.616399 -424.30988 
L 61.560402 -422.196609 
L 59.504405 -419.774869 
L 57.448408 -417.104713 
L 55.392411 -414.249672 
L 53.336414 -411.274227 
L 51.280417 -408.2414 
L 49.22442 -405.210588 
L 47.168423 -402.235734 
L 45.112426 -399.363913 
L 43.056429 -396.634363 
L 41.000432 -394.077968 
L 38.944435 -391.71717 
L 36.888438 -389.56627 
L 34.832441 -387.632039 
L 32.776444 -385.914582 
L 30.720448 -384.40835 
L 28.664451 -383.103253 
L 26.608454 -381.985772 
L 24.552457 -381.040033 
L 22.49646 -380.248787 
L 20.440463 -379.59426 
L 18.384466 -379.058861 
L 16.328469 -378.625735 
L 14.272472 -378.279173 
L 12.216475 -378.004875 
L 10.160478 -377.790105 
L 8.104481 -377.623737 
z
" style="stroke: #1f77b4"/>
    </defs>
    <g clip-path="url(#p7f9cf1da81)">
     <use xlink:href="#m71868fb9a2" x="0" y="438.513437" style="fill: #1f77b4; fill-opacity: 0.25; stroke: #1f77b4"/>
    </g>
   </g>
   <g id="matplotlib.axis_3">
    <g id="xtick_5">
     <g id="line2d_13">
      <g>
       <use xlink:href="#m12d12b82f5" x="69.974012" y="61.377143" style="stroke: #000000; stroke-width: 0.8"/>
      </g>
     </g>
    </g>
    <g id="xtick_6">
     <g id="line2d_14">
      <g>
       <use xlink:href="#m12d12b82f5" x="155.424411" y="61.377143" style="stroke: #000000; stroke-width: 0.8"/>
      </g>
     </g>
    </g>
    <g id="xtick_7">
     <g id="line2d_15">
      <g>
       <use xlink:href="#m12d12b82f5" x="240.87481" y="61.377143" style="stroke: #000000; stroke-width: 0.8"/>
      </g>
     </g>
    </g>
    <g id="xtick_8">
     <g id="line2d_16">
      <g>
       <use xlink:href="#m12d12b82f5" x="326.325209" y="61.377143" style="stroke: #000000; stroke-width: 0.8"/>
      </g>
     </g>
    </g>
   </g>
   <g id="matplotlib.axis_4">
    <g id="ytick_9"/>
    <g id="ytick_10"/>
   </g>
   <g id="patch_6">
    <path d="M 56.64375 61.377143 
L 368.708607 61.377143 
" style="fill: none; stroke: #000000; stroke-width: 0.8; stroke-linejoin: miter; stroke-linecap: square"/>
   </g>
  </g>
  <g id="axes_3">
   <g id="patch_7">
    <path d="M 379.469464 386.44 
L 433.27375 386.44 
L 433.27375 72.212571 
L 379.469464 72.212571 
z
" style="fill: #ffffff"/>
   </g>
   <g id="PolyCollection_2">
    <path d="M 379.534015 474.981904 
L 379.469464 474.981904 
L 379.469464 472.513003 
L 379.469464 470.044103 
L 379.469464 467.575202 
L 379.469464 465.106301 
L 379.469464 462.637401 
L 379.469464 460.1685 
L 379.469464 457.699599 
L 379.469464 455.230699 
L 379.469464 452.761798 
L 379.469464 450.292897 
L 379.469464 447.823997 
L 379.469464 445.355096 
L 379.469464 442.886195 
L 379.469464 440.417294 
L 379.469464 437.948394 
L 379.469464 435.479493 
L 379.469464 433.010592 
L 379.469464 430.541692 
L 379.469464 428.072791 
L 379.469464 425.60389 
L 379.469464 423.13499 
L 379.469464 420.666089 
L 379.469464 418.197188 
L 379.469464 415.728288 
L 379.469464 413.259387 
L 379.469464 410.790486 
L 379.469464 408.321586 
L 379.469464 405.852685 
L 379.469464 403.383784 
L 379.469464 400.914883 
L 379.469464 398.445983 
L 379.469464 395.977082 
L 379.469464 393.508181 
L 379.469464 391.039281 
L 379.469464 388.57038 
L 379.469464 386.101479 
L 379.469464 383.632579 
L 379.469464 381.163678 
L 379.469464 378.694777 
L 379.469464 376.225877 
L 379.469464 373.756976 
L 379.469464 371.288075 
L 379.469464 368.819175 
L 379.469464 366.350274 
L 379.469464 363.881373 
L 379.469464 361.412472 
L 379.469464 358.943572 
L 379.469464 356.474671 
L 379.469464 354.00577 
L 379.469464 351.53687 
L 379.469464 349.067969 
L 379.469464 346.599068 
L 379.469464 344.130168 
L 379.469464 341.661267 
L 379.469464 339.192366 
L 379.469464 336.723466 
L 379.469464 334.254565 
L 379.469464 331.785664 
L 379.469464 329.316764 
L 379.469464 326.847863 
L 379.469464 324.378962 
L 379.469464 321.910061 
L 379.469464 319.441161 
L 379.469464 316.97226 
L 379.469464 314.503359 
L 379.469464 312.034459 
L 379.469464 309.565558 
L 379.469464 307.096657 
L 379.469464 304.627757 
L 379.469464 302.158856 
L 379.469464 299.689955 
L 379.469464 297.221055 
L 379.469464 294.752154 
L 379.469464 292.283253 
L 379.469464 289.814353 
L 379.469464 287.345452 
L 379.469464 284.876551 
L 379.469464 282.40765 
L 379.469464 279.93875 
L 379.469464 277.469849 
L 379.469464 275.000948 
L 379.469464 272.532048 
L 379.469464 270.063147 
L 379.469464 267.594246 
L 379.469464 265.125346 
L 379.469464 262.656445 
L 379.469464 260.187544 
L 379.469464 257.718644 
L 379.469464 255.249743 
L 379.469464 252.780842 
L 379.469464 250.311942 
L 379.469464 247.843041 
L 379.469464 245.37414 
L 379.469464 242.905239 
L 379.469464 240.436339 
L 379.469464 237.967438 
L 379.469464 235.498537 
L 379.469464 233.029637 
L 379.469464 230.560736 
L 379.469464 228.091835 
L 379.469464 225.622935 
L 379.469464 223.154034 
L 379.469464 220.685133 
L 379.469464 218.216233 
L 379.469464 215.747332 
L 379.469464 213.278431 
L 379.469464 210.809531 
L 379.469464 208.34063 
L 379.469464 205.871729 
L 379.469464 203.402828 
L 379.469464 200.933928 
L 379.469464 198.465027 
L 379.469464 195.996126 
L 379.469464 193.527226 
L 379.469464 191.058325 
L 379.469464 188.589424 
L 379.469464 186.120524 
L 379.469464 183.651623 
L 379.469464 181.182722 
L 379.469464 178.713822 
L 379.469464 176.244921 
L 379.469464 173.77602 
L 379.469464 171.30712 
L 379.469464 168.838219 
L 379.469464 166.369318 
L 379.469464 163.900418 
L 379.469464 161.431517 
L 379.469464 158.962616 
L 379.469464 156.493715 
L 379.469464 154.024815 
L 379.469464 151.555914 
L 379.469464 149.087013 
L 379.469464 146.618113 
L 379.469464 144.149212 
L 379.469464 141.680311 
L 379.469464 139.211411 
L 379.469464 136.74251 
L 379.469464 134.273609 
L 379.469464 131.804709 
L 379.469464 129.335808 
L 379.469464 126.866907 
L 379.469464 124.398007 
L 379.469464 121.929106 
L 379.469464 119.460205 
L 379.469464 116.991304 
L 379.469464 114.522404 
L 379.469464 112.053503 
L 379.469464 109.584602 
L 379.469464 107.115702 
L 379.469464 104.646801 
L 379.469464 102.1779 
L 379.469464 99.709 
L 379.469464 97.240099 
L 379.469464 94.771198 
L 379.469464 92.302298 
L 379.469464 89.833397 
L 379.469464 87.364496 
L 379.469464 84.895596 
L 379.469464 82.426695 
L 379.469464 79.957794 
L 379.469464 77.488893 
L 379.469464 75.019993 
L 379.469464 72.551092 
L 379.469464 70.082191 
L 379.469464 67.613291 
L 379.469464 65.14439 
L 379.469464 62.675489 
L 379.469464 60.206589 
L 379.469464 57.737688 
L 379.469464 55.268787 
L 379.469464 52.799887 
L 379.469464 50.330986 
L 379.469464 47.862085 
L 379.469464 45.393185 
L 379.469464 42.924284 
L 379.469464 40.455383 
L 379.469464 37.986482 
L 379.469464 35.517582 
L 379.469464 33.048681 
L 379.469464 30.57978 
L 379.469464 28.11088 
L 379.469464 25.641979 
L 379.469464 23.173078 
L 379.469464 20.704178 
L 379.469464 18.235277 
L 379.469464 15.766376 
L 379.469464 13.297476 
L 379.469464 10.828575 
L 379.469464 8.359674 
L 379.469464 5.890774 
L 379.469464 3.421873 
L 379.469464 0.952972 
L 379.469464 -1.515929 
L 379.469464 -3.984829 
L 379.469464 -6.45373 
L 379.469464 -8.922631 
L 379.469464 -11.391531 
L 379.469464 -13.860432 
L 379.469464 -16.329333 
L 379.506396 -16.329333 
L 379.506396 -16.329333 
L 379.515419 -13.860432 
L 379.526374 -11.391531 
L 379.539603 -8.922631 
L 379.555498 -6.45373 
L 379.574497 -3.984829 
L 379.597092 -1.515929 
L 379.623827 0.952972 
L 379.655302 3.421873 
L 379.69217 5.890774 
L 379.735142 8.359674 
L 379.784981 10.828575 
L 379.8425 13.297476 
L 379.908561 15.766376 
L 379.984065 18.235277 
L 380.06995 20.704178 
L 380.16718 23.173078 
L 380.276736 25.641979 
L 380.399607 28.11088 
L 380.536777 30.57978 
L 380.68921 33.048681 
L 380.857842 35.517582 
L 381.043558 37.986482 
L 381.247187 40.455383 
L 381.469476 42.924284 
L 381.711082 45.393185 
L 381.972554 47.862085 
L 382.254316 50.330986 
L 382.556656 52.799887 
L 382.87971 55.268787 
L 383.223448 57.737688 
L 383.58767 60.206589 
L 383.971986 62.675489 
L 384.375819 65.14439 
L 384.798395 67.613291 
L 385.238744 70.082191 
L 385.6957 72.551092 
L 386.16791 75.019993 
L 386.653841 77.488893 
L 387.151795 79.957794 
L 387.659931 82.426695 
L 388.176289 84.895596 
L 388.698819 87.364496 
L 389.225419 89.833397 
L 389.753974 92.302298 
L 390.282402 94.771198 
L 390.808706 97.240099 
L 391.331023 99.709 
L 391.847684 102.1779 
L 392.357266 104.646801 
L 392.858651 107.115702 
L 393.351074 109.584602 
L 393.83418 112.053503 
L 394.308059 114.522404 
L 394.773284 116.991304 
L 395.230939 119.460205 
L 395.68263 121.929106 
L 396.130485 124.398007 
L 396.577148 126.866907 
L 397.025745 129.335808 
L 397.479846 131.804709 
L 397.943407 134.273609 
L 398.4207 136.74251 
L 398.916228 139.211411 
L 399.434627 141.680311 
L 399.98056 144.149212 
L 400.558602 146.618113 
L 401.17312 149.087013 
L 401.828147 151.555914 
L 402.52726 154.024815 
L 403.273458 156.493715 
L 404.069051 158.962616 
L 404.915554 161.431517 
L 405.813593 163.900418 
L 406.762834 166.369318 
L 407.761925 168.838219 
L 408.808454 171.30712 
L 409.898946 173.77602 
L 411.028866 176.244921 
L 412.192661 178.713822 
L 413.383825 181.182722 
L 414.594981 183.651623 
L 415.818005 186.120524 
L 417.044154 188.589424 
L 418.264233 191.058325 
L 419.468761 193.527226 
L 420.648167 195.996126 
L 421.792979 198.465027 
L 422.894034 200.933928 
L 423.942668 203.402828 
L 424.930912 205.871729 
L 425.85167 208.34063 
L 426.698874 210.809531 
L 427.467628 213.278431 
L 428.154306 215.747332 
L 428.756634 218.216233 
L 429.273732 220.685133 
L 429.706117 223.154034 
L 430.055673 225.622935 
L 430.325586 228.091835 
L 430.520241 230.560736 
L 430.645098 233.029637 
L 430.706529 235.498537 
L 430.711641 237.967438 
L 430.668088 240.436339 
L 430.583861 242.905239 
L 430.467085 245.37414 
L 430.325815 247.843041 
L 430.167844 250.311942 
L 430.000514 252.780842 
L 429.830564 255.249743 
L 429.663984 257.718644 
L 429.505905 260.187544 
L 429.360509 262.656445 
L 429.230971 265.125346 
L 429.119428 267.594246 
L 429.026974 270.063147 
L 428.953678 272.532048 
L 428.898627 275.000948 
L 428.859986 277.469849 
L 428.835073 279.93875 
L 428.820446 282.40765 
L 428.812003 284.876551 
L 428.805083 287.345452 
L 428.794572 289.814353 
L 428.775007 292.283253 
L 428.740684 294.752154 
L 428.68576 297.221055 
L 428.604346 299.689955 
L 428.490606 302.158856 
L 428.338842 304.627757 
L 428.143577 307.096657 
L 427.899631 309.565558 
L 427.602199 312.034459 
L 427.246913 314.503359 
L 426.829905 316.97226 
L 426.347866 319.441161 
L 425.798097 321.910061 
L 425.17855 324.378962 
L 424.487873 326.847863 
L 423.725435 329.316764 
L 422.891347 331.785664 
L 421.986482 334.254565 
L 421.012467 336.723466 
L 419.971683 339.192366 
L 418.867241 341.661267 
L 417.702955 344.130168 
L 416.483293 346.599068 
L 415.213332 349.067969 
L 413.89869 351.53687 
L 412.545456 354.00577 
L 411.160109 356.474671 
L 409.749433 358.943572 
L 408.320427 361.412472 
L 406.880213 363.881373 
L 405.435941 366.350274 
L 403.994696 368.819175 
L 402.563412 371.288075 
L 401.148784 373.756976 
L 399.75719 376.225877 
L 398.394624 378.694777 
L 397.066627 381.163678 
L 395.778241 383.632579 
L 394.533963 386.101479 
L 393.337711 388.57038 
L 392.192806 391.039281 
L 391.10196 393.508181 
L 390.067271 395.977082 
L 389.090237 398.445983 
L 388.171769 400.914883 
L 387.31222 403.383784 
L 386.511412 405.852685 
L 385.768681 408.321586 
L 385.082914 410.790486 
L 384.452601 413.259387 
L 383.875884 415.728288 
L 383.350607 418.197188 
L 382.874368 420.666089 
L 382.444571 423.13499 
L 382.058477 425.60389 
L 381.71325 428.072791 
L 381.406005 430.541692 
L 381.133842 433.010592 
L 380.893892 435.479493 
L 380.683344 437.948394 
L 380.499473 440.417294 
L 380.339668 442.886195 
L 380.201445 445.355096 
L 380.082469 447.823997 
L 379.980554 450.292897 
L 379.893681 452.761798 
L 379.81999 455.230699 
L 379.75779 457.699599 
L 379.705547 460.1685 
L 379.661885 462.637401 
L 379.625576 465.106301 
L 379.595531 467.575202 
L 379.570795 470.044103 
L 379.550531 472.513003 
L 379.534015 474.981904 
z
" clip-path="url(#p2bdf5c0067)" style="fill: #1f77b4; fill-opacity: 0.25; stroke: #1f77b4"/>
   </g>
   <g id="matplotlib.axis_5">
    <g id="xtick_9"/>
    <g id="xtick_10"/>
   </g>
   <g id="matplotlib.axis_6">
    <g id="ytick_11">
     <g id="line2d_17">
      <g>
       <use xlink:href="#m9fb6337002" x="379.469464" y="376.017223" style="stroke: #000000; stroke-width: 0.8"/>
      </g>
     </g>
    </g>
    <g id="ytick_12">
     <g id="line2d_18">
      <g>
       <use xlink:href="#m9fb6337002" x="379.469464" y="337.414345" style="stroke: #000000; stroke-width: 0.8"/>
      </g>
     </g>
    </g>
    <g id="ytick_13">
     <g id="line2d_19">
      <g>
       <use xlink:href="#m9fb6337002" x="379.469464" y="298.811466" style="stroke: #000000; stroke-width: 0.8"/>
      </g>
     </g>
    </g>
    <g id="ytick_14">
     <g id="line2d_20">
      <g>
       <use xlink:href="#m9fb6337002" x="379.469464" y="260.208588" style="stroke: #000000; stroke-width: 0.8"/>
      </g>
     </g>
    </g>
    <g id="ytick_15">
     <g id="line2d_21">
      <g>
       <use xlink:href="#m9fb6337002" x="379.469464" y="221.60571" style="stroke: #000000; stroke-width: 0.8"/>
      </g>
     </g>
    </g>
    <g id="ytick_16">
     <g id="line2d_22">
      <g>
       <use xlink:href="#m9fb6337002" x="379.469464" y="183.002832" style="stroke: #000000; stroke-width: 0.8"/>
      </g>
     </g>
    </g>
    <g id="ytick_17">
     <g id="line2d_23">
      <g>
       <use xlink:href="#m9fb6337002" x="379.469464" y="144.399954" style="stroke: #000000; stroke-width: 0.8"/>
      </g>
     </g>
    </g>
    <g id="ytick_18">
     <g id="line2d_24">
      <g>
       <use xlink:href="#m9fb6337002" x="379.469464" y="105.797075" style="stroke: #000000; stroke-width: 0.8"/>
      </g>
     </g>
    </g>
   </g>
   <g id="patch_8">
    <path d="M 379.469464 386.44 
L 379.469464 72.212571 
" style="fill: none; stroke: #000000; stroke-width: 0.8; stroke-linejoin: miter; stroke-linecap: square"/>
   </g>
  </g>
 </g>
 <defs>
  <clipPath id="p9b4fc39964">
   <rect x="56.64375" y="72.212571" width="312.064857" height="314.227429"/>
  </clipPath>
  <clipPath id="p7f9cf1da81">
   <rect x="56.64375" y="7.2" width="312.064857" height="54.177143"/>
  </clipPath>
  <clipPath id="p2bdf5c0067">
   <rect x="379.469464" y="72.212571" width="53.804286" height="314.227429"/>
  </clipPath>
 </defs>
</svg>
