<?xml version="1.0" encoding="utf-8" standalone="no"?>
<!DOCTYPE svg PUBLIC "-//W3C//DTD SVG 1.1//EN"
  "http://www.w3.org/Graphics/SVG/1.1/DTD/svg11.dtd">
<svg xmlns:xlink="http://www.w3.org/1999/xlink" width="445.312812pt" height="443.3525pt" viewBox="0 0 445.312812 443.3525" xmlns="http://www.w3.org/2000/svg" version="1.1">
 <metadata>
  <rdf:RDF xmlns:dc="http://purl.org/dc/elements/1.1/" xmlns:cc="http://creativecommons.org/ns#" xmlns:rdf="http://www.w3.org/1999/02/22-rdf-syntax-ns#">
   <cc:Work>
    <dc:type rdf:resource="http://purl.org/dc/dcmitype/StillImage"/>
    <dc:date>2022-12-09T16:27:06.173409</dc:date>
    <dc:format>image/svg+xml</dc:format>
    <dc:creator>
     <cc:Agent>
      <dc:title>Matplotlib v3.6.2, https://matplotlib.org/</dc:title>
     </cc:Agent>
    </dc:creator>
   </cc:Work>
  </rdf:RDF>
 </metadata>
 <defs>
  <style type="text/css">*{stroke-linejoin: round; stroke-linecap: butt}</style>
 </defs>
 <g id="figure_1">
  <g id="patch_1">
   <path d="M 0 443.3525 
L 445.312812 443.3525 
L 445.312812 0 
L 0 0 
z
" style="fill: #ffffff"/>
  </g>
  <g id="axes_1">
   <g id="patch_2">
    <path d="M 61.482813 386.44 
L 373.54767 386.44 
L 373.54767 72.212571 
L 61.482813 72.212571 
z
" style="fill: #ffffff"/>
   </g>
   <g id="PathCollection_1">
    <defs>
     <path id="mbb614a369a" d="M 0 5 
C 1.326016 5 2.597899 4.473168 3.535534 3.535534 
C 4.473168 2.597899 5 1.326016 5 0 
C 5 -1.326016 4.473168 -2.597899 3.535534 -3.535534 
C 2.597899 -4.473168 1.326016 -5 0 -5 
C -1.326016 -5 -2.597899 -4.473168 -3.535534 -3.535534 
C -4.473168 -2.597899 -5 -1.326016 -5 0 
C -5 1.326016 -4.473168 2.597899 -3.535534 3.535534 
C -2.597899 4.473168 -1.326016 5 0 5 
z
" style="stroke: #ffffff; stroke-opacity: 0.5; stroke-width: 0.8"/>
    </defs>
    <g clip-path="url(#p568bfbc9b8)">
     <use xlink:href="#mbb614a369a" x="77.356241" y="158.863165" style="fill: #1f77b4; fill-opacity: 0.5; stroke: #ffffff; stroke-opacity: 0.5; stroke-width: 0.8"/>
     <use xlink:href="#mbb614a369a" x="77.356241" y="261.701233" style="fill: #1f77b4; fill-opacity: 0.5; stroke: #ffffff; stroke-opacity: 0.5; stroke-width: 0.8"/>
     <use xlink:href="#mbb614a369a" x="76.51191" y="303.598223" style="fill: #1f77b4; fill-opacity: 0.5; stroke: #ffffff; stroke-opacity: 0.5; stroke-width: 0.8"/>
     <use xlink:href="#mbb614a369a" x="78.200573" y="227.421877" style="fill: #1f77b4; fill-opacity: 0.5; stroke: #ffffff; stroke-opacity: 0.5; stroke-width: 0.8"/>
     <use xlink:href="#mbb614a369a" x="75.667579" y="372.156935" style="fill: #1f77b4; fill-opacity: 0.5; stroke: #ffffff; stroke-opacity: 0.5; stroke-width: 0.8"/>
     <use xlink:href="#mbb614a369a" x="75.667579" y="330.259945" style="fill: #1f77b4; fill-opacity: 0.5; stroke: #ffffff; stroke-opacity: 0.5; stroke-width: 0.8"/>
     <use xlink:href="#mbb614a369a" x="75.667579" y="288.362954" style="fill: #1f77b4; fill-opacity: 0.5; stroke: #ffffff; stroke-opacity: 0.5; stroke-width: 0.8"/>
     <use xlink:href="#mbb614a369a" x="81.577898" y="231.230694" style="fill: #1f77b4; fill-opacity: 0.5; stroke: #ffffff; stroke-opacity: 0.5; stroke-width: 0.8"/>
     <use xlink:href="#mbb614a369a" x="75.667579" y="231.230694" style="fill: #1f77b4; fill-opacity: 0.5; stroke: #ffffff; stroke-opacity: 0.5; stroke-width: 0.8"/>
     <use xlink:href="#mbb614a369a" x="76.51191" y="254.083598" style="fill: #1f77b4; fill-opacity: 0.5; stroke: #ffffff; stroke-opacity: 0.5; stroke-width: 0.8"/>
     <use xlink:href="#mbb614a369a" x="79.044904" y="128.392627" style="fill: #1f77b4; fill-opacity: 0.5; stroke: #ffffff; stroke-opacity: 0.5; stroke-width: 0.8"/>
     <use xlink:href="#mbb614a369a" x="90.021211" y="116.966175" style="fill: #1f77b4; fill-opacity: 0.5; stroke: #ffffff; stroke-opacity: 0.5; stroke-width: 0.8"/>
     <use xlink:href="#mbb614a369a" x="75.667579" y="185.524887" style="fill: #1f77b4; fill-opacity: 0.5; stroke: #ffffff; stroke-opacity: 0.5; stroke-width: 0.8"/>
     <use xlink:href="#mbb614a369a" x="75.667579" y="254.083598" style="fill: #1f77b4; fill-opacity: 0.5; stroke: #ffffff; stroke-opacity: 0.5; stroke-width: 0.8"/>
     <use xlink:href="#mbb614a369a" x="75.667579" y="231.230694" style="fill: #1f77b4; fill-opacity: 0.5; stroke: #ffffff; stroke-opacity: 0.5; stroke-width: 0.8"/>
     <use xlink:href="#mbb614a369a" x="75.667579" y="315.024675" style="fill: #1f77b4; fill-opacity: 0.5; stroke: #ffffff; stroke-opacity: 0.5; stroke-width: 0.8"/>
     <use xlink:href="#mbb614a369a" x="79.044904" y="231.230694" style="fill: #1f77b4; fill-opacity: 0.5; stroke: #ffffff; stroke-opacity: 0.5; stroke-width: 0.8"/>
     <use xlink:href="#mbb614a369a" x="128.016121" y="124.58381" style="fill: #1f77b4; fill-opacity: 0.5; stroke: #ffffff; stroke-opacity: 0.5; stroke-width: 0.8"/>
     <use xlink:href="#mbb614a369a" x="76.51191" y="238.848329" style="fill: #1f77b4; fill-opacity: 0.5; stroke: #ffffff; stroke-opacity: 0.5; stroke-width: 0.8"/>
     <use xlink:href="#mbb614a369a" x="76.51191" y="231.230694" style="fill: #1f77b4; fill-opacity: 0.5; stroke: #ffffff; stroke-opacity: 0.5; stroke-width: 0.8"/>
     <use xlink:href="#mbb614a369a" x="75.667579" y="215.995425" style="fill: #1f77b4; fill-opacity: 0.5; stroke: #ffffff; stroke-opacity: 0.5; stroke-width: 0.8"/>
     <use xlink:href="#mbb614a369a" x="75.667579" y="334.068762" style="fill: #1f77b4; fill-opacity: 0.5; stroke: #ffffff; stroke-opacity: 0.5; stroke-width: 0.8"/>
     <use xlink:href="#mbb614a369a" x="75.667579" y="315.024675" style="fill: #1f77b4; fill-opacity: 0.5; stroke: #ffffff; stroke-opacity: 0.5; stroke-width: 0.8"/>
     <use xlink:href="#mbb614a369a" x="75.667579" y="215.995425" style="fill: #1f77b4; fill-opacity: 0.5; stroke: #ffffff; stroke-opacity: 0.5; stroke-width: 0.8"/>
     <use xlink:href="#mbb614a369a" x="359.362903" y="86.495636" style="fill: #1f77b4; fill-opacity: 0.5; stroke: #ffffff; stroke-opacity: 0.5; stroke-width: 0.8"/>
     <use xlink:href="#mbb614a369a" x="77.356241" y="269.318868" style="fill: #1f77b4; fill-opacity: 0.5; stroke: #ffffff; stroke-opacity: 0.5; stroke-width: 0.8"/>
     <use xlink:href="#mbb614a369a" x="75.667579" y="212.186608" style="fill: #1f77b4; fill-opacity: 0.5; stroke: #ffffff; stroke-opacity: 0.5; stroke-width: 0.8"/>
     <use xlink:href="#mbb614a369a" x="75.667579" y="372.156935" style="fill: #1f77b4; fill-opacity: 0.5; stroke: #ffffff; stroke-opacity: 0.5; stroke-width: 0.8"/>
     <use xlink:href="#mbb614a369a" x="75.667579" y="330.259945" style="fill: #1f77b4; fill-opacity: 0.5; stroke: #ffffff; stroke-opacity: 0.5; stroke-width: 0.8"/>
     <use xlink:href="#mbb614a369a" x="80.733567" y="257.892416" style="fill: #1f77b4; fill-opacity: 0.5; stroke: #ffffff; stroke-opacity: 0.5; stroke-width: 0.8"/>
     <use xlink:href="#mbb614a369a" x="75.667579" y="288.362954" style="fill: #1f77b4; fill-opacity: 0.5; stroke: #ffffff; stroke-opacity: 0.5; stroke-width: 0.8"/>
     <use xlink:href="#mbb614a369a" x="75.667579" y="215.995425" style="fill: #1f77b4; fill-opacity: 0.5; stroke: #ffffff; stroke-opacity: 0.5; stroke-width: 0.8"/>
     <use xlink:href="#mbb614a369a" x="76.51191" y="341.686397" style="fill: #1f77b4; fill-opacity: 0.5; stroke: #ffffff; stroke-opacity: 0.5; stroke-width: 0.8"/>
     <use xlink:href="#mbb614a369a" x="75.667579" y="269.318868" style="fill: #1f77b4; fill-opacity: 0.5; stroke: #ffffff; stroke-opacity: 0.5; stroke-width: 0.8"/>
     <use xlink:href="#mbb614a369a" x="75.667579" y="292.171771" style="fill: #1f77b4; fill-opacity: 0.5; stroke: #ffffff; stroke-opacity: 0.5; stroke-width: 0.8"/>
     <use xlink:href="#mbb614a369a" x="75.667579" y="307.407041" style="fill: #1f77b4; fill-opacity: 0.5; stroke: #ffffff; stroke-opacity: 0.5; stroke-width: 0.8"/>
     <use xlink:href="#mbb614a369a" x="75.667579" y="337.877579" style="fill: #1f77b4; fill-opacity: 0.5; stroke: #ffffff; stroke-opacity: 0.5; stroke-width: 0.8"/>
     <use xlink:href="#mbb614a369a" x="76.51191" y="193.142521" style="fill: #1f77b4; fill-opacity: 0.5; stroke: #ffffff; stroke-opacity: 0.5; stroke-width: 0.8"/>
     <use xlink:href="#mbb614a369a" x="77.356241" y="265.51005" style="fill: #1f77b4; fill-opacity: 0.5; stroke: #ffffff; stroke-opacity: 0.5; stroke-width: 0.8"/>
     <use xlink:href="#mbb614a369a" x="75.667579" y="322.64231" style="fill: #1f77b4; fill-opacity: 0.5; stroke: #ffffff; stroke-opacity: 0.5; stroke-width: 0.8"/>
     <use xlink:href="#mbb614a369a" x="75.667579" y="356.921666" style="fill: #1f77b4; fill-opacity: 0.5; stroke: #ffffff; stroke-opacity: 0.5; stroke-width: 0.8"/>
     <use xlink:href="#mbb614a369a" x="90.021211" y="116.966175" style="fill: #1f77b4; fill-opacity: 0.5; stroke: #ffffff; stroke-opacity: 0.5; stroke-width: 0.8"/>
     <use xlink:href="#mbb614a369a" x="91.709874" y="170.289617" style="fill: #1f77b4; fill-opacity: 0.5; stroke: #ffffff; stroke-opacity: 0.5; stroke-width: 0.8"/>
    </g>
   </g>
   <g id="matplotlib.axis_1">
    <g id="xtick_1">
     <g id="line2d_1">
      <defs>
       <path id="m4a6db9b718" d="M 0 0 
L 0 3.5 
" style="stroke: #000000; stroke-width: 0.8"/>
      </defs>
      <g>
       <use xlink:href="#m4a6db9b718" x="74.823247" y="386.44" style="stroke: #000000; stroke-width: 0.8"/>
      </g>
     </g>
     <g id="text_1">
      <!-- 0 -->
      <g transform="translate(70.051372 404.837656) scale(0.15 -0.15)">
       <defs>
        <path id="DejaVuSans-30" d="M 2034 4250 
Q 1547 4250 1301 3770 
Q 1056 3291 1056 2328 
Q 1056 1369 1301 889 
Q 1547 409 2034 409 
Q 2525 409 2770 889 
Q 3016 1369 3016 2328 
Q 3016 3291 2770 3770 
Q 2525 4250 2034 4250 
z
M 2034 4750 
Q 2819 4750 3233 4129 
Q 3647 3509 3647 2328 
Q 3647 1150 3233 529 
Q 2819 -91 2034 -91 
Q 1250 -91 836 529 
Q 422 1150 422 2328 
Q 422 3509 836 4129 
Q 1250 4750 2034 4750 
z
" transform="scale(0.015625)"/>
       </defs>
       <use xlink:href="#DejaVuSans-30"/>
      </g>
     </g>
    </g>
    <g id="xtick_2">
     <g id="line2d_2">
      <g>
       <use xlink:href="#m4a6db9b718" x="159.25638" y="386.44" style="stroke: #000000; stroke-width: 0.8"/>
      </g>
     </g>
     <g id="text_2">
      <!-- 100 -->
      <g transform="translate(144.940755 404.837656) scale(0.15 -0.15)">
       <defs>
        <path id="DejaVuSans-31" d="M 794 531 
L 1825 531 
L 1825 4091 
L 703 3866 
L 703 4441 
L 1819 4666 
L 2450 4666 
L 2450 531 
L 3481 531 
L 3481 0 
L 794 0 
L 794 531 
z
" transform="scale(0.015625)"/>
       </defs>
       <use xlink:href="#DejaVuSans-31"/>
       <use xlink:href="#DejaVuSans-30" x="63.623047"/>
       <use xlink:href="#DejaVuSans-30" x="127.246094"/>
      </g>
     </g>
    </g>
    <g id="xtick_3">
     <g id="line2d_3">
      <g>
       <use xlink:href="#m4a6db9b718" x="243.689512" y="386.44" style="stroke: #000000; stroke-width: 0.8"/>
      </g>
     </g>
     <g id="text_3">
      <!-- 200 -->
      <g transform="translate(229.373887 404.837656) scale(0.15 -0.15)">
       <defs>
        <path id="DejaVuSans-32" d="M 1228 531 
L 3431 531 
L 3431 0 
L 469 0 
L 469 531 
Q 828 903 1448 1529 
Q 2069 2156 2228 2338 
Q 2531 2678 2651 2914 
Q 2772 3150 2772 3378 
Q 2772 3750 2511 3984 
Q 2250 4219 1831 4219 
Q 1534 4219 1204 4116 
Q 875 4013 500 3803 
L 500 4441 
Q 881 4594 1212 4672 
Q 1544 4750 1819 4750 
Q 2544 4750 2975 4387 
Q 3406 4025 3406 3419 
Q 3406 3131 3298 2873 
Q 3191 2616 2906 2266 
Q 2828 2175 2409 1742 
Q 1991 1309 1228 531 
z
" transform="scale(0.015625)"/>
       </defs>
       <use xlink:href="#DejaVuSans-32"/>
       <use xlink:href="#DejaVuSans-30" x="63.623047"/>
       <use xlink:href="#DejaVuSans-30" x="127.246094"/>
      </g>
     </g>
    </g>
    <g id="xtick_4">
     <g id="line2d_4">
      <g>
       <use xlink:href="#m4a6db9b718" x="328.122644" y="386.44" style="stroke: #000000; stroke-width: 0.8"/>
      </g>
     </g>
     <g id="text_4">
      <!-- 300 -->
      <g transform="translate(313.807019 404.837656) scale(0.15 -0.15)">
       <defs>
        <path id="DejaVuSans-33" d="M 2597 2516 
Q 3050 2419 3304 2112 
Q 3559 1806 3559 1356 
Q 3559 666 3084 287 
Q 2609 -91 1734 -91 
Q 1441 -91 1130 -33 
Q 819 25 488 141 
L 488 750 
Q 750 597 1062 519 
Q 1375 441 1716 441 
Q 2309 441 2620 675 
Q 2931 909 2931 1356 
Q 2931 1769 2642 2001 
Q 2353 2234 1838 2234 
L 1294 2234 
L 1294 2753 
L 1863 2753 
Q 2328 2753 2575 2939 
Q 2822 3125 2822 3475 
Q 2822 3834 2567 4026 
Q 2313 4219 1838 4219 
Q 1578 4219 1281 4162 
Q 984 4106 628 3988 
L 628 4550 
Q 988 4650 1302 4700 
Q 1616 4750 1894 4750 
Q 2613 4750 3031 4423 
Q 3450 4097 3450 3541 
Q 3450 3153 3228 2886 
Q 3006 2619 2597 2516 
z
" transform="scale(0.015625)"/>
       </defs>
       <use xlink:href="#DejaVuSans-33"/>
       <use xlink:href="#DejaVuSans-30" x="63.623047"/>
       <use xlink:href="#DejaVuSans-30" x="127.246094"/>
      </g>
     </g>
    </g>
    <g id="text_5">
     <!-- # Commits -->
     <g transform="translate(147.454694 430.953281) scale(0.25 -0.25)">
      <defs>
       <path id="DejaVuSans-23" d="M 3272 2816 
L 2363 2816 
L 2100 1772 
L 3016 1772 
L 3272 2816 
z
M 2803 4594 
L 2478 3297 
L 3391 3297 
L 3719 4594 
L 4219 4594 
L 3897 3297 
L 4872 3297 
L 4872 2816 
L 3775 2816 
L 3519 1772 
L 4513 1772 
L 4513 1294 
L 3397 1294 
L 3072 0 
L 2572 0 
L 2894 1294 
L 1978 1294 
L 1656 0 
L 1153 0 
L 1478 1294 
L 494 1294 
L 494 1772 
L 1594 1772 
L 1856 2816 
L 850 2816 
L 850 3297 
L 1978 3297 
L 2297 4594 
L 2803 4594 
z
" transform="scale(0.015625)"/>
       <path id="DejaVuSans-20" transform="scale(0.015625)"/>
       <path id="DejaVuSans-43" d="M 4122 4306 
L 4122 3641 
Q 3803 3938 3442 4084 
Q 3081 4231 2675 4231 
Q 1875 4231 1450 3742 
Q 1025 3253 1025 2328 
Q 1025 1406 1450 917 
Q 1875 428 2675 428 
Q 3081 428 3442 575 
Q 3803 722 4122 1019 
L 4122 359 
Q 3791 134 3420 21 
Q 3050 -91 2638 -91 
Q 1578 -91 968 557 
Q 359 1206 359 2328 
Q 359 3453 968 4101 
Q 1578 4750 2638 4750 
Q 3056 4750 3426 4639 
Q 3797 4528 4122 4306 
z
" transform="scale(0.015625)"/>
       <path id="DejaVuSans-6f" d="M 1959 3097 
Q 1497 3097 1228 2736 
Q 959 2375 959 1747 
Q 959 1119 1226 758 
Q 1494 397 1959 397 
Q 2419 397 2687 759 
Q 2956 1122 2956 1747 
Q 2956 2369 2687 2733 
Q 2419 3097 1959 3097 
z
M 1959 3584 
Q 2709 3584 3137 3096 
Q 3566 2609 3566 1747 
Q 3566 888 3137 398 
Q 2709 -91 1959 -91 
Q 1206 -91 779 398 
Q 353 888 353 1747 
Q 353 2609 779 3096 
Q 1206 3584 1959 3584 
z
" transform="scale(0.015625)"/>
       <path id="DejaVuSans-6d" d="M 3328 2828 
Q 3544 3216 3844 3400 
Q 4144 3584 4550 3584 
Q 5097 3584 5394 3201 
Q 5691 2819 5691 2113 
L 5691 0 
L 5113 0 
L 5113 2094 
Q 5113 2597 4934 2840 
Q 4756 3084 4391 3084 
Q 3944 3084 3684 2787 
Q 3425 2491 3425 1978 
L 3425 0 
L 2847 0 
L 2847 2094 
Q 2847 2600 2669 2842 
Q 2491 3084 2119 3084 
Q 1678 3084 1418 2786 
Q 1159 2488 1159 1978 
L 1159 0 
L 581 0 
L 581 3500 
L 1159 3500 
L 1159 2956 
Q 1356 3278 1631 3431 
Q 1906 3584 2284 3584 
Q 2666 3584 2933 3390 
Q 3200 3197 3328 2828 
z
" transform="scale(0.015625)"/>
       <path id="DejaVuSans-69" d="M 603 3500 
L 1178 3500 
L 1178 0 
L 603 0 
L 603 3500 
z
M 603 4863 
L 1178 4863 
L 1178 4134 
L 603 4134 
L 603 4863 
z
" transform="scale(0.015625)"/>
       <path id="DejaVuSans-74" d="M 1172 4494 
L 1172 3500 
L 2356 3500 
L 2356 3053 
L 1172 3053 
L 1172 1153 
Q 1172 725 1289 603 
Q 1406 481 1766 481 
L 2356 481 
L 2356 0 
L 1766 0 
Q 1100 0 847 248 
Q 594 497 594 1153 
L 594 3053 
L 172 3053 
L 172 3500 
L 594 3500 
L 594 4494 
L 1172 4494 
z
" transform="scale(0.015625)"/>
       <path id="DejaVuSans-73" d="M 2834 3397 
L 2834 2853 
Q 2591 2978 2328 3040 
Q 2066 3103 1784 3103 
Q 1356 3103 1142 2972 
Q 928 2841 928 2578 
Q 928 2378 1081 2264 
Q 1234 2150 1697 2047 
L 1894 2003 
Q 2506 1872 2764 1633 
Q 3022 1394 3022 966 
Q 3022 478 2636 193 
Q 2250 -91 1575 -91 
Q 1294 -91 989 -36 
Q 684 19 347 128 
L 347 722 
Q 666 556 975 473 
Q 1284 391 1588 391 
Q 1994 391 2212 530 
Q 2431 669 2431 922 
Q 2431 1156 2273 1281 
Q 2116 1406 1581 1522 
L 1381 1569 
Q 847 1681 609 1914 
Q 372 2147 372 2553 
Q 372 3047 722 3315 
Q 1072 3584 1716 3584 
Q 2034 3584 2315 3537 
Q 2597 3491 2834 3397 
z
" transform="scale(0.015625)"/>
      </defs>
      <use xlink:href="#DejaVuSans-23"/>
      <use xlink:href="#DejaVuSans-20" x="83.789062"/>
      <use xlink:href="#DejaVuSans-43" x="115.576172"/>
      <use xlink:href="#DejaVuSans-6f" x="185.400391"/>
      <use xlink:href="#DejaVuSans-6d" x="246.582031"/>
      <use xlink:href="#DejaVuSans-6d" x="343.994141"/>
      <use xlink:href="#DejaVuSans-69" x="441.40625"/>
      <use xlink:href="#DejaVuSans-74" x="469.189453"/>
      <use xlink:href="#DejaVuSans-73" x="508.398438"/>
     </g>
    </g>
   </g>
   <g id="matplotlib.axis_2">
    <g id="ytick_1">
     <g id="line2d_5">
      <defs>
       <path id="m7f3da88edd" d="M 0 0 
L -3.5 0 
" style="stroke: #000000; stroke-width: 0.8"/>
      </defs>
      <g>
       <use xlink:href="#m7f3da88edd" x="61.482813" y="375.965752" style="stroke: #000000; stroke-width: 0.8"/>
      </g>
     </g>
     <g id="text_6">
      <!-- 0 -->
      <g transform="translate(44.939063 381.664581) scale(0.15 -0.15)">
       <use xlink:href="#DejaVuSans-30"/>
      </g>
     </g>
    </g>
    <g id="ytick_2">
     <g id="line2d_6">
      <g>
       <use xlink:href="#m7f3da88edd" x="61.482813" y="337.877579" style="stroke: #000000; stroke-width: 0.8"/>
      </g>
     </g>
     <g id="text_7">
      <!-- 10 -->
      <g transform="translate(35.395313 343.576407) scale(0.15 -0.15)">
       <use xlink:href="#DejaVuSans-31"/>
       <use xlink:href="#DejaVuSans-30" x="63.623047"/>
      </g>
     </g>
    </g>
    <g id="ytick_3">
     <g id="line2d_7">
      <g>
       <use xlink:href="#m7f3da88edd" x="61.482813" y="299.789406" style="stroke: #000000; stroke-width: 0.8"/>
      </g>
     </g>
     <g id="text_8">
      <!-- 20 -->
      <g transform="translate(35.395313 305.488234) scale(0.15 -0.15)">
       <use xlink:href="#DejaVuSans-32"/>
       <use xlink:href="#DejaVuSans-30" x="63.623047"/>
      </g>
     </g>
    </g>
    <g id="ytick_4">
     <g id="line2d_8">
      <g>
       <use xlink:href="#m7f3da88edd" x="61.482813" y="261.701233" style="stroke: #000000; stroke-width: 0.8"/>
      </g>
     </g>
     <g id="text_9">
      <!-- 30 -->
      <g transform="translate(35.395313 267.400061) scale(0.15 -0.15)">
       <use xlink:href="#DejaVuSans-33"/>
       <use xlink:href="#DejaVuSans-30" x="63.623047"/>
      </g>
     </g>
    </g>
    <g id="ytick_5">
     <g id="line2d_9">
      <g>
       <use xlink:href="#m7f3da88edd" x="61.482813" y="223.61306" style="stroke: #000000; stroke-width: 0.8"/>
      </g>
     </g>
     <g id="text_10">
      <!-- 40 -->
      <g transform="translate(35.395313 229.311888) scale(0.15 -0.15)">
       <defs>
        <path id="DejaVuSans-34" d="M 2419 4116 
L 825 1625 
L 2419 1625 
L 2419 4116 
z
M 2253 4666 
L 3047 4666 
L 3047 1625 
L 3713 1625 
L 3713 1100 
L 3047 1100 
L 3047 0 
L 2419 0 
L 2419 1100 
L 313 1100 
L 313 1709 
L 2253 4666 
z
" transform="scale(0.015625)"/>
       </defs>
       <use xlink:href="#DejaVuSans-34"/>
       <use xlink:href="#DejaVuSans-30" x="63.623047"/>
      </g>
     </g>
    </g>
    <g id="ytick_6">
     <g id="line2d_10">
      <g>
       <use xlink:href="#m7f3da88edd" x="61.482813" y="185.524887" style="stroke: #000000; stroke-width: 0.8"/>
      </g>
     </g>
     <g id="text_11">
      <!-- 50 -->
      <g transform="translate(35.395313 191.223715) scale(0.15 -0.15)">
       <defs>
        <path id="DejaVuSans-35" d="M 691 4666 
L 3169 4666 
L 3169 4134 
L 1269 4134 
L 1269 2991 
Q 1406 3038 1543 3061 
Q 1681 3084 1819 3084 
Q 2600 3084 3056 2656 
Q 3513 2228 3513 1497 
Q 3513 744 3044 326 
Q 2575 -91 1722 -91 
Q 1428 -91 1123 -41 
Q 819 9 494 109 
L 494 744 
Q 775 591 1075 516 
Q 1375 441 1709 441 
Q 2250 441 2565 725 
Q 2881 1009 2881 1497 
Q 2881 1984 2565 2268 
Q 2250 2553 1709 2553 
Q 1456 2553 1204 2497 
Q 953 2441 691 2322 
L 691 4666 
z
" transform="scale(0.015625)"/>
       </defs>
       <use xlink:href="#DejaVuSans-35"/>
       <use xlink:href="#DejaVuSans-30" x="63.623047"/>
      </g>
     </g>
    </g>
    <g id="ytick_7">
     <g id="line2d_11">
      <g>
       <use xlink:href="#m7f3da88edd" x="61.482813" y="147.436713" style="stroke: #000000; stroke-width: 0.8"/>
      </g>
     </g>
     <g id="text_12">
      <!-- 60 -->
      <g transform="translate(35.395313 153.135542) scale(0.15 -0.15)">
       <defs>
        <path id="DejaVuSans-36" d="M 2113 2584 
Q 1688 2584 1439 2293 
Q 1191 2003 1191 1497 
Q 1191 994 1439 701 
Q 1688 409 2113 409 
Q 2538 409 2786 701 
Q 3034 994 3034 1497 
Q 3034 2003 2786 2293 
Q 2538 2584 2113 2584 
z
M 3366 4563 
L 3366 3988 
Q 3128 4100 2886 4159 
Q 2644 4219 2406 4219 
Q 1781 4219 1451 3797 
Q 1122 3375 1075 2522 
Q 1259 2794 1537 2939 
Q 1816 3084 2150 3084 
Q 2853 3084 3261 2657 
Q 3669 2231 3669 1497 
Q 3669 778 3244 343 
Q 2819 -91 2113 -91 
Q 1303 -91 875 529 
Q 447 1150 447 2328 
Q 447 3434 972 4092 
Q 1497 4750 2381 4750 
Q 2619 4750 2861 4703 
Q 3103 4656 3366 4563 
z
" transform="scale(0.015625)"/>
       </defs>
       <use xlink:href="#DejaVuSans-36"/>
       <use xlink:href="#DejaVuSans-30" x="63.623047"/>
      </g>
     </g>
    </g>
    <g id="ytick_8">
     <g id="line2d_12">
      <g>
       <use xlink:href="#m7f3da88edd" x="61.482813" y="109.34854" style="stroke: #000000; stroke-width: 0.8"/>
      </g>
     </g>
     <g id="text_13">
      <!-- 70 -->
      <g transform="translate(35.395313 115.047368) scale(0.15 -0.15)">
       <defs>
        <path id="DejaVuSans-37" d="M 525 4666 
L 3525 4666 
L 3525 4397 
L 1831 0 
L 1172 0 
L 2766 4134 
L 525 4134 
L 525 4666 
z
" transform="scale(0.015625)"/>
       </defs>
       <use xlink:href="#DejaVuSans-37"/>
       <use xlink:href="#DejaVuSans-30" x="63.623047"/>
      </g>
     </g>
    </g>
    <g id="text_14">
     <!-- # Interacting authors -->
     <g transform="translate(26.196094 363.552848) rotate(-90) scale(0.25 -0.25)">
      <defs>
       <path id="DejaVuSans-49" d="M 628 4666 
L 1259 4666 
L 1259 0 
L 628 0 
L 628 4666 
z
" transform="scale(0.015625)"/>
       <path id="DejaVuSans-6e" d="M 3513 2113 
L 3513 0 
L 2938 0 
L 2938 2094 
Q 2938 2591 2744 2837 
Q 2550 3084 2163 3084 
Q 1697 3084 1428 2787 
Q 1159 2491 1159 1978 
L 1159 0 
L 581 0 
L 581 3500 
L 1159 3500 
L 1159 2956 
Q 1366 3272 1645 3428 
Q 1925 3584 2291 3584 
Q 2894 3584 3203 3211 
Q 3513 2838 3513 2113 
z
" transform="scale(0.015625)"/>
       <path id="DejaVuSans-65" d="M 3597 1894 
L 3597 1613 
L 953 1613 
Q 991 1019 1311 708 
Q 1631 397 2203 397 
Q 2534 397 2845 478 
Q 3156 559 3463 722 
L 3463 178 
Q 3153 47 2828 -22 
Q 2503 -91 2169 -91 
Q 1331 -91 842 396 
Q 353 884 353 1716 
Q 353 2575 817 3079 
Q 1281 3584 2069 3584 
Q 2775 3584 3186 3129 
Q 3597 2675 3597 1894 
z
M 3022 2063 
Q 3016 2534 2758 2815 
Q 2500 3097 2075 3097 
Q 1594 3097 1305 2825 
Q 1016 2553 972 2059 
L 3022 2063 
z
" transform="scale(0.015625)"/>
       <path id="DejaVuSans-72" d="M 2631 2963 
Q 2534 3019 2420 3045 
Q 2306 3072 2169 3072 
Q 1681 3072 1420 2755 
Q 1159 2438 1159 1844 
L 1159 0 
L 581 0 
L 581 3500 
L 1159 3500 
L 1159 2956 
Q 1341 3275 1631 3429 
Q 1922 3584 2338 3584 
Q 2397 3584 2469 3576 
Q 2541 3569 2628 3553 
L 2631 2963 
z
" transform="scale(0.015625)"/>
       <path id="DejaVuSans-61" d="M 2194 1759 
Q 1497 1759 1228 1600 
Q 959 1441 959 1056 
Q 959 750 1161 570 
Q 1363 391 1709 391 
Q 2188 391 2477 730 
Q 2766 1069 2766 1631 
L 2766 1759 
L 2194 1759 
z
M 3341 1997 
L 3341 0 
L 2766 0 
L 2766 531 
Q 2569 213 2275 61 
Q 1981 -91 1556 -91 
Q 1019 -91 701 211 
Q 384 513 384 1019 
Q 384 1609 779 1909 
Q 1175 2209 1959 2209 
L 2766 2209 
L 2766 2266 
Q 2766 2663 2505 2880 
Q 2244 3097 1772 3097 
Q 1472 3097 1187 3025 
Q 903 2953 641 2809 
L 641 3341 
Q 956 3463 1253 3523 
Q 1550 3584 1831 3584 
Q 2591 3584 2966 3190 
Q 3341 2797 3341 1997 
z
" transform="scale(0.015625)"/>
       <path id="DejaVuSans-63" d="M 3122 3366 
L 3122 2828 
Q 2878 2963 2633 3030 
Q 2388 3097 2138 3097 
Q 1578 3097 1268 2742 
Q 959 2388 959 1747 
Q 959 1106 1268 751 
Q 1578 397 2138 397 
Q 2388 397 2633 464 
Q 2878 531 3122 666 
L 3122 134 
Q 2881 22 2623 -34 
Q 2366 -91 2075 -91 
Q 1284 -91 818 406 
Q 353 903 353 1747 
Q 353 2603 823 3093 
Q 1294 3584 2113 3584 
Q 2378 3584 2631 3529 
Q 2884 3475 3122 3366 
z
" transform="scale(0.015625)"/>
       <path id="DejaVuSans-67" d="M 2906 1791 
Q 2906 2416 2648 2759 
Q 2391 3103 1925 3103 
Q 1463 3103 1205 2759 
Q 947 2416 947 1791 
Q 947 1169 1205 825 
Q 1463 481 1925 481 
Q 2391 481 2648 825 
Q 2906 1169 2906 1791 
z
M 3481 434 
Q 3481 -459 3084 -895 
Q 2688 -1331 1869 -1331 
Q 1566 -1331 1297 -1286 
Q 1028 -1241 775 -1147 
L 775 -588 
Q 1028 -725 1275 -790 
Q 1522 -856 1778 -856 
Q 2344 -856 2625 -561 
Q 2906 -266 2906 331 
L 2906 616 
Q 2728 306 2450 153 
Q 2172 0 1784 0 
Q 1141 0 747 490 
Q 353 981 353 1791 
Q 353 2603 747 3093 
Q 1141 3584 1784 3584 
Q 2172 3584 2450 3431 
Q 2728 3278 2906 2969 
L 2906 3500 
L 3481 3500 
L 3481 434 
z
" transform="scale(0.015625)"/>
       <path id="DejaVuSans-75" d="M 544 1381 
L 544 3500 
L 1119 3500 
L 1119 1403 
Q 1119 906 1312 657 
Q 1506 409 1894 409 
Q 2359 409 2629 706 
Q 2900 1003 2900 1516 
L 2900 3500 
L 3475 3500 
L 3475 0 
L 2900 0 
L 2900 538 
Q 2691 219 2414 64 
Q 2138 -91 1772 -91 
Q 1169 -91 856 284 
Q 544 659 544 1381 
z
M 1991 3584 
L 1991 3584 
z
" transform="scale(0.015625)"/>
       <path id="DejaVuSans-68" d="M 3513 2113 
L 3513 0 
L 2938 0 
L 2938 2094 
Q 2938 2591 2744 2837 
Q 2550 3084 2163 3084 
Q 1697 3084 1428 2787 
Q 1159 2491 1159 1978 
L 1159 0 
L 581 0 
L 581 4863 
L 1159 4863 
L 1159 2956 
Q 1366 3272 1645 3428 
Q 1925 3584 2291 3584 
Q 2894 3584 3203 3211 
Q 3513 2838 3513 2113 
z
" transform="scale(0.015625)"/>
      </defs>
      <use xlink:href="#DejaVuSans-23"/>
      <use xlink:href="#DejaVuSans-20" x="83.789062"/>
      <use xlink:href="#DejaVuSans-49" x="115.576172"/>
      <use xlink:href="#DejaVuSans-6e" x="145.068359"/>
      <use xlink:href="#DejaVuSans-74" x="208.447266"/>
      <use xlink:href="#DejaVuSans-65" x="247.65625"/>
      <use xlink:href="#DejaVuSans-72" x="309.179688"/>
      <use xlink:href="#DejaVuSans-61" x="350.292969"/>
      <use xlink:href="#DejaVuSans-63" x="411.572266"/>
      <use xlink:href="#DejaVuSans-74" x="466.552734"/>
      <use xlink:href="#DejaVuSans-69" x="505.761719"/>
      <use xlink:href="#DejaVuSans-6e" x="533.544922"/>
      <use xlink:href="#DejaVuSans-67" x="596.923828"/>
      <use xlink:href="#DejaVuSans-20" x="660.400391"/>
      <use xlink:href="#DejaVuSans-61" x="692.1875"/>
      <use xlink:href="#DejaVuSans-75" x="753.466797"/>
      <use xlink:href="#DejaVuSans-74" x="816.845703"/>
      <use xlink:href="#DejaVuSans-68" x="856.054688"/>
      <use xlink:href="#DejaVuSans-6f" x="919.433594"/>
      <use xlink:href="#DejaVuSans-72" x="980.615234"/>
      <use xlink:href="#DejaVuSans-73" x="1021.728516"/>
     </g>
    </g>
   </g>
   <g id="patch_3">
    <path d="M 61.482813 386.44 
L 61.482813 72.212571 
" style="fill: none; stroke: #000000; stroke-width: 0.8; stroke-linejoin: miter; stroke-linecap: square"/>
   </g>
   <g id="patch_4">
    <path d="M 61.482813 386.44 
L 373.54767 386.44 
" style="fill: none; stroke: #000000; stroke-width: 0.8; stroke-linejoin: miter; stroke-linecap: square"/>
   </g>
  </g>
  <g id="axes_2">
   <g id="patch_5">
    <path d="M 61.482813 61.377143 
L 373.54767 61.377143 
L 373.54767 7.2 
L 61.482813 7.2 
z
" style="fill: #ffffff"/>
   </g>
   <g id="PolyCollection_1">
    <defs>
     <path id="m339eff2a82" d="M 13.945572 -382.46447 
L 13.945572 -381.975357 
L 15.991499 -381.975357 
L 18.037425 -381.975357 
L 20.083351 -381.975357 
L 22.129278 -381.975357 
L 24.175204 -381.975357 
L 26.22113 -381.975357 
L 28.267057 -381.975357 
L 30.312983 -381.975357 
L 32.358909 -381.975357 
L 34.404836 -381.975357 
L 36.450762 -381.975357 
L 38.496688 -381.975357 
L 40.542615 -381.975357 
L 42.588541 -381.975357 
L 44.634467 -381.975357 
L 46.680394 -381.975357 
L 48.72632 -381.975357 
L 50.772246 -381.975357 
L 52.818173 -381.975357 
L 54.864099 -381.975357 
L 56.910025 -381.975357 
L 58.955951 -381.975357 
L 61.001878 -381.975357 
L 63.047804 -381.975357 
L 65.09373 -381.975357 
L 67.139657 -381.975357 
L 69.185583 -381.975357 
L 71.231509 -381.975357 
L 73.277436 -381.975357 
L 75.323362 -381.975357 
L 77.369288 -381.975357 
L 79.415215 -381.975357 
L 81.461141 -381.975357 
L 83.507067 -381.975357 
L 85.552994 -381.975357 
L 87.59892 -381.975357 
L 89.644846 -381.975357 
L 91.690773 -381.975357 
L 93.736699 -381.975357 
L 95.782625 -381.975357 
L 97.828551 -381.975357 
L 99.874478 -381.975357 
L 101.920404 -381.975357 
L 103.96633 -381.975357 
L 106.012257 -381.975357 
L 108.058183 -381.975357 
L 110.104109 -381.975357 
L 112.150036 -381.975357 
L 114.195962 -381.975357 
L 116.241888 -381.975357 
L 118.287815 -381.975357 
L 120.333741 -381.975357 
L 122.379667 -381.975357 
L 124.425594 -381.975357 
L 126.47152 -381.975357 
L 128.517446 -381.975357 
L 130.563373 -381.975357 
L 132.609299 -381.975357 
L 134.655225 -381.975357 
L 136.701152 -381.975357 
L 138.747078 -381.975357 
L 140.793004 -381.975357 
L 142.83893 -381.975357 
L 144.884857 -381.975357 
L 146.930783 -381.975357 
L 148.976709 -381.975357 
L 151.022636 -381.975357 
L 153.068562 -381.975357 
L 155.114488 -381.975357 
L 157.160415 -381.975357 
L 159.206341 -381.975357 
L 161.252267 -381.975357 
L 163.298194 -381.975357 
L 165.34412 -381.975357 
L 167.390046 -381.975357 
L 169.435973 -381.975357 
L 171.481899 -381.975357 
L 173.527825 -381.975357 
L 175.573752 -381.975357 
L 177.619678 -381.975357 
L 179.665604 -381.975357 
L 181.711531 -381.975357 
L 183.757457 -381.975357 
L 185.803383 -381.975357 
L 187.849309 -381.975357 
L 189.895236 -381.975357 
L 191.941162 -381.975357 
L 193.987088 -381.975357 
L 196.033015 -381.975357 
L 198.078941 -381.975357 
L 200.124867 -381.975357 
L 202.170794 -381.975357 
L 204.21672 -381.975357 
L 206.262646 -381.975357 
L 208.308573 -381.975357 
L 210.354499 -381.975357 
L 212.400425 -381.975357 
L 214.446352 -381.975357 
L 216.492278 -381.975357 
L 218.538204 -381.975357 
L 220.584131 -381.975357 
L 222.630057 -381.975357 
L 224.675983 -381.975357 
L 226.72191 -381.975357 
L 228.767836 -381.975357 
L 230.813762 -381.975357 
L 232.859688 -381.975357 
L 234.905615 -381.975357 
L 236.951541 -381.975357 
L 238.997467 -381.975357 
L 241.043394 -381.975357 
L 243.08932 -381.975357 
L 245.135246 -381.975357 
L 247.181173 -381.975357 
L 249.227099 -381.975357 
L 251.273025 -381.975357 
L 253.318952 -381.975357 
L 255.364878 -381.975357 
L 257.410804 -381.975357 
L 259.456731 -381.975357 
L 261.502657 -381.975357 
L 263.548583 -381.975357 
L 265.59451 -381.975357 
L 267.640436 -381.975357 
L 269.686362 -381.975357 
L 271.732288 -381.975357 
L 273.778215 -381.975357 
L 275.824141 -381.975357 
L 277.870067 -381.975357 
L 279.915994 -381.975357 
L 281.96192 -381.975357 
L 284.007846 -381.975357 
L 286.053773 -381.975357 
L 288.099699 -381.975357 
L 290.145625 -381.975357 
L 292.191552 -381.975357 
L 294.237478 -381.975357 
L 296.283404 -381.975357 
L 298.329331 -381.975357 
L 300.375257 -381.975357 
L 302.421183 -381.975357 
L 304.46711 -381.975357 
L 306.513036 -381.975357 
L 308.558962 -381.975357 
L 310.604889 -381.975357 
L 312.650815 -381.975357 
L 314.696741 -381.975357 
L 316.742667 -381.975357 
L 318.788594 -381.975357 
L 320.83452 -381.975357 
L 322.880446 -381.975357 
L 324.926373 -381.975357 
L 326.972299 -381.975357 
L 329.018225 -381.975357 
L 331.064152 -381.975357 
L 333.110078 -381.975357 
L 335.156004 -381.975357 
L 337.201931 -381.975357 
L 339.247857 -381.975357 
L 341.293783 -381.975357 
L 343.33971 -381.975357 
L 345.385636 -381.975357 
L 347.431562 -381.975357 
L 349.477489 -381.975357 
L 351.523415 -381.975357 
L 353.569341 -381.975357 
L 355.615268 -381.975357 
L 357.661194 -381.975357 
L 359.70712 -381.975357 
L 361.753046 -381.975357 
L 363.798973 -381.975357 
L 365.844899 -381.975357 
L 367.890825 -381.975357 
L 369.936752 -381.975357 
L 371.982678 -381.975357 
L 374.028604 -381.975357 
L 376.074531 -381.975357 
L 378.120457 -381.975357 
L 380.166383 -381.975357 
L 382.21231 -381.975357 
L 384.258236 -381.975357 
L 386.304162 -381.975357 
L 388.350089 -381.975357 
L 390.396015 -381.975357 
L 392.441941 -381.975357 
L 394.487868 -381.975357 
L 396.533794 -381.975357 
L 398.57972 -381.975357 
L 400.625646 -381.975357 
L 402.671573 -381.975357 
L 404.717499 -381.975357 
L 406.763425 -381.975357 
L 408.809352 -381.975357 
L 410.855278 -381.975357 
L 412.901204 -381.975357 
L 414.947131 -381.975357 
L 416.993057 -381.975357 
L 419.038983 -381.975357 
L 421.08491 -381.975357 
L 421.08491 -381.989558 
L 421.08491 -381.989558 
L 419.038983 -381.9944 
L 416.993057 -382.000642 
L 414.947131 -382.008598 
L 412.901204 -382.018629 
L 410.855278 -382.031133 
L 408.809352 -382.046542 
L 406.763425 -382.065314 
L 404.717499 -382.087917 
L 402.671573 -382.114815 
L 400.625646 -382.146439 
L 398.57972 -382.18317 
L 396.533794 -382.225303 
L 394.487868 -382.27302 
L 392.441941 -382.326358 
L 390.396015 -382.385182 
L 388.350089 -382.449155 
L 386.304162 -382.517724 
L 384.258236 -382.590107 
L 382.21231 -382.665295 
L 380.166383 -382.742058 
L 378.120457 -382.818979 
L 376.074531 -382.894482 
L 374.028604 -382.96689 
L 371.982678 -383.034476 
L 369.936752 -383.095537 
L 367.890825 -383.14846 
L 365.844899 -383.191795 
L 363.798973 -383.224319 
L 361.753046 -383.245094 
L 359.70712 -383.253512 
L 357.661194 -383.249326 
L 355.615268 -383.232658 
L 353.569341 -383.203999 
L 351.523415 -383.164178 
L 349.477489 -383.11433 
L 347.431562 -383.055833 
L 345.385636 -382.990256 
L 343.33971 -382.919278 
L 341.293783 -382.844625 
L 339.247857 -382.767999 
L 337.201931 -382.691016 
L 335.156004 -382.615151 
L 333.110078 -382.5417 
L 331.064152 -382.471749 
L 329.018225 -382.406156 
L 326.972299 -382.345552 
L 324.926373 -382.290343 
L 322.880446 -382.240731 
L 320.83452 -382.196733 
L 318.788594 -382.158212 
L 316.742667 -382.124908 
L 314.696741 -382.096466 
L 312.650815 -382.072468 
L 310.604889 -382.05246 
L 308.558962 -382.035971 
L 306.513036 -382.02254 
L 304.46711 -382.011723 
L 302.421183 -382.003111 
L 300.375257 -381.996329 
L 298.329331 -381.991049 
L 296.283404 -381.986983 
L 294.237478 -381.983885 
L 292.191552 -381.981552 
L 290.145625 -381.979812 
L 288.099699 -381.97853 
L 286.053773 -381.977594 
L 284.007846 -381.976919 
L 281.96192 -381.976437 
L 279.915994 -381.976096 
L 277.870067 -381.975858 
L 275.824141 -381.975693 
L 273.778215 -381.975581 
L 271.732288 -381.975504 
L 269.686362 -381.975453 
L 267.640436 -381.975419 
L 265.59451 -381.975397 
L 263.548583 -381.975382 
L 261.502657 -381.975373 
L 259.456731 -381.975367 
L 257.410804 -381.975363 
L 255.364878 -381.975361 
L 253.318952 -381.975359 
L 251.273025 -381.975358 
L 249.227099 -381.975358 
L 247.181173 -381.975358 
L 245.135246 -381.975358 
L 243.08932 -381.975357 
L 241.043394 -381.975358 
L 238.997467 -381.975358 
L 236.951541 -381.975358 
L 234.905615 -381.975359 
L 232.859688 -381.97536 
L 230.813762 -381.975362 
L 228.767836 -381.975365 
L 226.72191 -381.97537 
L 224.675983 -381.975378 
L 222.630057 -381.97539 
L 220.584131 -381.975409 
L 218.538204 -381.975437 
L 216.492278 -381.97548 
L 214.446352 -381.975545 
L 212.400425 -381.975642 
L 210.354499 -381.975783 
L 208.308573 -381.975988 
L 206.262646 -381.976282 
L 204.21672 -381.976701 
L 202.170794 -381.97729 
L 200.124867 -381.97811 
L 198.078941 -381.97924 
L 196.033015 -381.980779 
L 193.987088 -381.982856 
L 191.941162 -381.985626 
L 189.895236 -381.989284 
L 187.849309 -381.99406 
L 185.803383 -382.000232 
L 183.757457 -382.008122 
L 181.711531 -382.018101 
L 179.665604 -382.030587 
L 177.619678 -382.046047 
L 175.573752 -382.064987 
L 173.527825 -382.08795 
L 171.481899 -382.115508 
L 169.435973 -382.148251 
L 167.390046 -382.18678 
L 165.34412 -382.231704 
L 163.298194 -382.283636 
L 161.252267 -382.343202 
L 159.206341 -382.411063 
L 157.160415 -382.487945 
L 155.114488 -382.574697 
L 153.068562 -382.67237 
L 151.022636 -382.782314 
L 148.976709 -382.906313 
L 146.930783 -383.046741 
L 144.884857 -383.206738 
L 142.83893 -383.390412 
L 140.793004 -383.603043 
L 138.747078 -383.851285 
L 136.701152 -384.143344 
L 134.655225 -384.489121 
L 132.609299 -384.900288 
L 130.563373 -385.390276 
L 128.517446 -385.974155 
L 126.47152 -386.668379 
L 124.425594 -387.490378 
L 122.379667 -388.457986 
L 120.333741 -389.588711 
L 118.287815 -390.89883 
L 116.241888 -392.402367 
L 114.195962 -394.109953 
L 112.150036 -396.02765 
L 110.104109 -398.155776 
L 108.058183 -400.487829 
L 106.012257 -403.009575 
L 103.96633 -405.698394 
L 101.920404 -408.522959 
L 99.874478 -411.443316 
L 97.828551 -414.411421 
L 95.782625 -417.372145 
L 93.736699 -420.264762 
L 91.690773 -423.024857 
L 89.644846 -425.586601 
L 87.59892 -427.88528 
L 85.552994 -429.85995 
L 83.507067 -431.456064 
L 81.461141 -432.627927 
L 79.415215 -433.340817 
L 77.369288 -433.572636 
L 75.323362 -433.314992 
L 73.277436 -432.573628 
L 71.231509 -431.368176 
L 69.185583 -429.731243 
L 67.139657 -427.706904 
L 65.09373 -425.348678 
L 63.047804 -422.717138 
L 61.001878 -419.877285 
L 58.955951 -416.895871 
L 56.910025 -413.838785 
L 54.864099 -410.76869 
L 52.818173 -407.742979 
L 50.772246 -404.812166 
L 48.72632 -402.018749 
L 46.680394 -399.396557 
L 44.634467 -396.970566 
L 42.588541 -394.757138 
L 40.542615 -392.764617 
L 38.496688 -390.994193 
L 36.450762 -389.440967 
L 34.404836 -388.095106 
L 32.358909 -386.94303 
L 30.312983 -385.96856 
L 28.267057 -385.153964 
L 26.22113 -384.480872 
L 24.175204 -383.931049 
L 22.129278 -383.486987 
L 20.083351 -383.132349 
L 18.037425 -382.852264 
L 15.991499 -382.633489 
L 13.945572 -382.46447 
z
" style="stroke: #1f77b4"/>
    </defs>
    <g clip-path="url(#pcc3ed94e5f)">
     <use xlink:href="#m339eff2a82" x="0" y="443.3525" style="fill: #1f77b4; fill-opacity: 0.25; stroke: #1f77b4"/>
    </g>
   </g>
   <g id="matplotlib.axis_3">
    <g id="xtick_5">
     <g id="line2d_13">
      <g>
       <use xlink:href="#m4a6db9b718" x="74.823247" y="61.377143" style="stroke: #000000; stroke-width: 0.8"/>
      </g>
     </g>
    </g>
    <g id="xtick_6">
     <g id="line2d_14">
      <g>
       <use xlink:href="#m4a6db9b718" x="159.25638" y="61.377143" style="stroke: #000000; stroke-width: 0.8"/>
      </g>
     </g>
    </g>
    <g id="xtick_7">
     <g id="line2d_15">
      <g>
       <use xlink:href="#m4a6db9b718" x="243.689512" y="61.377143" style="stroke: #000000; stroke-width: 0.8"/>
      </g>
     </g>
    </g>
    <g id="xtick_8">
     <g id="line2d_16">
      <g>
       <use xlink:href="#m4a6db9b718" x="328.122644" y="61.377143" style="stroke: #000000; stroke-width: 0.8"/>
      </g>
     </g>
    </g>
   </g>
   <g id="matplotlib.axis_4">
    <g id="ytick_9"/>
    <g id="ytick_10"/>
   </g>
   <g id="patch_6">
    <path d="M 61.482813 61.377143 
L 373.54767 61.377143 
" style="fill: none; stroke: #000000; stroke-width: 0.8; stroke-linejoin: miter; stroke-linecap: square"/>
   </g>
  </g>
  <g id="axes_3">
   <g id="patch_7">
    <path d="M 384.308527 386.44 
L 438.112812 386.44 
L 438.112812 72.212571 
L 384.308527 72.212571 
z
" style="fill: #ffffff"/>
   </g>
   <g id="PolyCollection_2">
    <path d="M 384.38222 475.674379 
L 384.308527 475.674379 
L 384.308527 473.198518 
L 384.308527 470.722658 
L 384.308527 468.246798 
L 384.308527 465.770938 
L 384.308527 463.295078 
L 384.308527 460.819217 
L 384.308527 458.343357 
L 384.308527 455.867497 
L 384.308527 453.391637 
L 384.308527 450.915776 
L 384.308527 448.439916 
L 384.308527 445.964056 
L 384.308527 443.488196 
L 384.308527 441.012335 
L 384.308527 438.536475 
L 384.308527 436.060615 
L 384.308527 433.584755 
L 384.308527 431.108895 
L 384.308527 428.633034 
L 384.308527 426.157174 
L 384.308527 423.681314 
L 384.308527 421.205454 
L 384.308527 418.729593 
L 384.308527 416.253733 
L 384.308527 413.777873 
L 384.308527 411.302013 
L 384.308527 408.826152 
L 384.308527 406.350292 
L 384.308527 403.874432 
L 384.308527 401.398572 
L 384.308527 398.922712 
L 384.308527 396.446851 
L 384.308527 393.970991 
L 384.308527 391.495131 
L 384.308527 389.019271 
L 384.308527 386.54341 
L 384.308527 384.06755 
L 384.308527 381.59169 
L 384.308527 379.11583 
L 384.308527 376.639969 
L 384.308527 374.164109 
L 384.308527 371.688249 
L 384.308527 369.212389 
L 384.308527 366.736529 
L 384.308527 364.260668 
L 384.308527 361.784808 
L 384.308527 359.308948 
L 384.308527 356.833088 
L 384.308527 354.357227 
L 384.308527 351.881367 
L 384.308527 349.405507 
L 384.308527 346.929647 
L 384.308527 344.453786 
L 384.308527 341.977926 
L 384.308527 339.502066 
L 384.308527 337.026206 
L 384.308527 334.550346 
L 384.308527 332.074485 
L 384.308527 329.598625 
L 384.308527 327.122765 
L 384.308527 324.646905 
L 384.308527 322.171044 
L 384.308527 319.695184 
L 384.308527 317.219324 
L 384.308527 314.743464 
L 384.308527 312.267603 
L 384.308527 309.791743 
L 384.308527 307.315883 
L 384.308527 304.840023 
L 384.308527 302.364163 
L 384.308527 299.888302 
L 384.308527 297.412442 
L 384.308527 294.936582 
L 384.308527 292.460722 
L 384.308527 289.984861 
L 384.308527 287.509001 
L 384.308527 285.033141 
L 384.308527 282.557281 
L 384.308527 280.08142 
L 384.308527 277.60556 
L 384.308527 275.1297 
L 384.308527 272.65384 
L 384.308527 270.17798 
L 384.308527 267.702119 
L 384.308527 265.226259 
L 384.308527 262.750399 
L 384.308527 260.274539 
L 384.308527 257.798678 
L 384.308527 255.322818 
L 384.308527 252.846958 
L 384.308527 250.371098 
L 384.308527 247.895237 
L 384.308527 245.419377 
L 384.308527 242.943517 
L 384.308527 240.467657 
L 384.308527 237.991797 
L 384.308527 235.515936 
L 384.308527 233.040076 
L 384.308527 230.564216 
L 384.308527 228.088356 
L 384.308527 225.612495 
L 384.308527 223.136635 
L 384.308527 220.660775 
L 384.308527 218.184915 
L 384.308527 215.709054 
L 384.308527 213.233194 
L 384.308527 210.757334 
L 384.308527 208.281474 
L 384.308527 205.805614 
L 384.308527 203.329753 
L 384.308527 200.853893 
L 384.308527 198.378033 
L 384.308527 195.902173 
L 384.308527 193.426312 
L 384.308527 190.950452 
L 384.308527 188.474592 
L 384.308527 185.998732 
L 384.308527 183.522871 
L 384.308527 181.047011 
L 384.308527 178.571151 
L 384.308527 176.095291 
L 384.308527 173.619431 
L 384.308527 171.14357 
L 384.308527 168.66771 
L 384.308527 166.19185 
L 384.308527 163.71599 
L 384.308527 161.240129 
L 384.308527 158.764269 
L 384.308527 156.288409 
L 384.308527 153.812549 
L 384.308527 151.336688 
L 384.308527 148.860828 
L 384.308527 146.384968 
L 384.308527 143.909108 
L 384.308527 141.433248 
L 384.308527 138.957387 
L 384.308527 136.481527 
L 384.308527 134.005667 
L 384.308527 131.529807 
L 384.308527 129.053946 
L 384.308527 126.578086 
L 384.308527 124.102226 
L 384.308527 121.626366 
L 384.308527 119.150505 
L 384.308527 116.674645 
L 384.308527 114.198785 
L 384.308527 111.722925 
L 384.308527 109.247065 
L 384.308527 106.771204 
L 384.308527 104.295344 
L 384.308527 101.819484 
L 384.308527 99.343624 
L 384.308527 96.867763 
L 384.308527 94.391903 
L 384.308527 91.916043 
L 384.308527 89.440183 
L 384.308527 86.964322 
L 384.308527 84.488462 
L 384.308527 82.012602 
L 384.308527 79.536742 
L 384.308527 77.060882 
L 384.308527 74.585021 
L 384.308527 72.109161 
L 384.308527 69.633301 
L 384.308527 67.157441 
L 384.308527 64.68158 
L 384.308527 62.20572 
L 384.308527 59.72986 
L 384.308527 57.254 
L 384.308527 54.778139 
L 384.308527 52.302279 
L 384.308527 49.826419 
L 384.308527 47.350559 
L 384.308527 44.874699 
L 384.308527 42.398838 
L 384.308527 39.922978 
L 384.308527 37.447118 
L 384.308527 34.971258 
L 384.308527 32.495397 
L 384.308527 30.019537 
L 384.308527 27.543677 
L 384.308527 25.067817 
L 384.308527 22.591956 
L 384.308527 20.116096 
L 384.308527 17.640236 
L 384.308527 15.164376 
L 384.308527 12.688516 
L 384.308527 10.212655 
L 384.308527 7.736795 
L 384.308527 5.260935 
L 384.308527 2.785075 
L 384.308527 0.309214 
L 384.308527 -2.166646 
L 384.308527 -4.642506 
L 384.308527 -7.118366 
L 384.308527 -9.594227 
L 384.308527 -12.070087 
L 384.308527 -14.545947 
L 384.308527 -17.021807 
L 384.343546 -17.021807 
L 384.343546 -17.021807 
L 384.352194 -14.545947 
L 384.362725 -12.070087 
L 384.375487 -9.594227 
L 384.390875 -7.118366 
L 384.40934 -4.642506 
L 384.431388 -2.166646 
L 384.457588 0.309214 
L 384.488571 2.785075 
L 384.525036 5.260935 
L 384.567747 7.736795 
L 384.617537 10.212655 
L 384.675307 12.688516 
L 384.74202 15.164376 
L 384.818702 17.640236 
L 384.906435 20.116096 
L 385.006347 22.591956 
L 385.119606 25.067817 
L 385.247407 27.543677 
L 385.390959 30.019537 
L 385.551471 32.495397 
L 385.730131 34.971258 
L 385.928089 37.447118 
L 386.146434 39.922978 
L 386.386174 42.398838 
L 386.648207 44.874699 
L 386.9333 47.350559 
L 387.24206 49.826419 
L 387.574908 52.302279 
L 387.932057 54.778139 
L 388.313483 57.254 
L 388.718905 59.72986 
L 389.147767 62.20572 
L 389.599218 64.68158 
L 390.072101 67.157441 
L 390.564949 69.633301 
L 391.075983 72.109161 
L 391.603116 74.585021 
L 392.14397 77.060882 
L 392.695896 79.536742 
L 393.256003 82.012602 
L 393.821196 84.488462 
L 394.388224 86.964322 
L 394.953734 89.440183 
L 395.51433 91.916043 
L 396.066641 94.391903 
L 396.607392 96.867763 
L 397.133483 99.343624 
L 397.642059 101.819484 
L 398.13059 104.295344 
L 398.596944 106.771204 
L 399.039452 109.247065 
L 399.456973 111.722925 
L 399.848944 114.198785 
L 400.215421 116.674645 
L 400.55711 119.150505 
L 400.875384 121.626366 
L 401.172281 124.102226 
L 401.450495 126.578086 
L 401.713344 129.053946 
L 401.964733 131.529807 
L 402.209093 134.005667 
L 402.451315 136.481527 
L 402.696673 138.957387 
L 402.950732 141.433248 
L 403.219249 143.909108 
L 403.508078 146.384968 
L 403.823058 148.860828 
L 404.169904 151.336688 
L 404.554102 153.812549 
L 404.980801 156.288409 
L 405.454707 158.764269 
L 405.979988 161.240129 
L 406.560176 163.71599 
L 407.198091 166.19185 
L 407.895757 168.66771 
L 408.654342 171.14357 
L 409.474102 173.619431 
L 410.354346 176.095291 
L 411.293403 178.571151 
L 412.288614 181.047011 
L 413.33634 183.522871 
L 414.43198 185.998732 
L 415.570015 188.474592 
L 416.744062 190.950452 
L 417.946954 193.426312 
L 419.170828 195.902173 
L 420.407241 198.378033 
L 421.647286 200.853893 
L 422.881738 203.329753 
L 424.101196 205.805614 
L 425.296237 208.281474 
L 426.457584 210.757334 
L 427.576255 213.233194 
L 428.643728 215.709054 
L 429.65209 218.184915 
L 430.59417 220.660775 
L 431.463673 223.136635 
L 432.255278 225.612495 
L 432.964729 228.088356 
L 433.5889 230.564216 
L 434.12583 233.040076 
L 434.574738 235.515936 
L 434.936013 237.991797 
L 435.211175 240.467657 
L 435.402812 242.943517 
L 435.514502 245.419377 
L 435.550704 247.895237 
L 435.516638 250.371098 
L 435.418153 252.846958 
L 435.26158 255.322818 
L 435.053578 257.798678 
L 434.80098 260.274539 
L 434.510636 262.750399 
L 434.189262 265.226259 
L 433.843294 267.702119 
L 433.478755 270.17798 
L 433.10113 272.65384 
L 432.715266 275.1297 
L 432.325276 277.60556 
L 431.934477 280.08142 
L 431.545334 282.557281 
L 431.159441 285.033141 
L 430.777506 287.509001 
L 430.399374 289.984861 
L 430.024059 292.460722 
L 429.649801 294.936582 
L 429.274139 297.412442 
L 428.894 299.888302 
L 428.505804 302.364163 
L 428.105576 304.840023 
L 427.689066 307.315883 
L 427.251876 309.791743 
L 426.789589 312.267603 
L 426.297887 314.743464 
L 425.77268 317.219324 
L 425.21021 319.695184 
L 424.607152 322.171044 
L 423.960705 324.646905 
L 423.268662 327.122765 
L 422.529466 329.598625 
L 421.74225 332.074485 
L 420.906855 334.550346 
L 420.023839 337.026206 
L 419.094463 339.502066 
L 418.120664 341.977926 
L 417.105013 344.453786 
L 416.050668 346.929647 
L 414.961305 349.405507 
L 413.841053 351.881367 
L 412.694421 354.357227 
L 411.526216 356.833088 
L 410.341469 359.308948 
L 409.145355 361.784808 
L 407.943117 364.260668 
L 406.739997 366.736529 
L 405.541165 369.212389 
L 404.351663 371.688249 
L 403.176344 374.164109 
L 402.019828 376.639969 
L 400.886455 379.11583 
L 399.780251 381.59169 
L 398.704898 384.06755 
L 397.663712 386.54341 
L 396.659621 389.019271 
L 395.695155 391.495131 
L 394.772439 393.970991 
L 393.893192 396.446851 
L 393.058724 398.922712 
L 392.26995 401.398572 
L 391.527398 403.874432 
L 390.831221 406.350292 
L 390.181221 408.826152 
L 389.57687 411.302013 
L 389.01733 413.777873 
L 388.501489 416.253733 
L 388.027982 418.729593 
L 387.59523 421.205454 
L 387.201467 423.681314 
L 386.844776 426.157174 
L 386.523121 428.633034 
L 386.23438 431.108895 
L 385.976374 433.584755 
L 385.746901 436.060615 
L 385.543761 438.536475 
L 385.36478 441.012335 
L 385.207835 443.488196 
L 385.070874 445.964056 
L 384.951929 448.439916 
L 384.849133 450.915776 
L 384.760729 453.391637 
L 384.685074 455.867497 
L 384.620653 458.343357 
L 384.566069 460.819217 
L 384.520051 463.295078 
L 384.481451 465.770938 
L 384.449235 468.246798 
L 384.422485 470.722658 
L 384.400385 473.198518 
L 384.38222 475.674379 
z
" clip-path="url(#p26d4da7372)" style="fill: #1f77b4; fill-opacity: 0.25; stroke: #1f77b4"/>
   </g>
   <g id="matplotlib.axis_5">
    <g id="xtick_9"/>
    <g id="xtick_10"/>
   </g>
   <g id="matplotlib.axis_6">
    <g id="ytick_11">
     <g id="line2d_17">
      <g>
       <use xlink:href="#m7f3da88edd" x="384.308527" y="375.965752" style="stroke: #000000; stroke-width: 0.8"/>
      </g>
     </g>
    </g>
    <g id="ytick_12">
     <g id="line2d_18">
      <g>
       <use xlink:href="#m7f3da88edd" x="384.308527" y="337.877579" style="stroke: #000000; stroke-width: 0.8"/>
      </g>
     </g>
    </g>
    <g id="ytick_13">
     <g id="line2d_19">
      <g>
       <use xlink:href="#m7f3da88edd" x="384.308527" y="299.789406" style="stroke: #000000; stroke-width: 0.8"/>
      </g>
     </g>
    </g>
    <g id="ytick_14">
     <g id="line2d_20">
      <g>
       <use xlink:href="#m7f3da88edd" x="384.308527" y="261.701233" style="stroke: #000000; stroke-width: 0.8"/>
      </g>
     </g>
    </g>
    <g id="ytick_15">
     <g id="line2d_21">
      <g>
       <use xlink:href="#m7f3da88edd" x="384.308527" y="223.61306" style="stroke: #000000; stroke-width: 0.8"/>
      </g>
     </g>
    </g>
    <g id="ytick_16">
     <g id="line2d_22">
      <g>
       <use xlink:href="#m7f3da88edd" x="384.308527" y="185.524887" style="stroke: #000000; stroke-width: 0.8"/>
      </g>
     </g>
    </g>
    <g id="ytick_17">
     <g id="line2d_23">
      <g>
       <use xlink:href="#m7f3da88edd" x="384.308527" y="147.436713" style="stroke: #000000; stroke-width: 0.8"/>
      </g>
     </g>
    </g>
    <g id="ytick_18">
     <g id="line2d_24">
      <g>
       <use xlink:href="#m7f3da88edd" x="384.308527" y="109.34854" style="stroke: #000000; stroke-width: 0.8"/>
      </g>
     </g>
    </g>
   </g>
   <g id="patch_8">
    <path d="M 384.308527 386.44 
L 384.308527 72.212571 
" style="fill: none; stroke: #000000; stroke-width: 0.8; stroke-linejoin: miter; stroke-linecap: square"/>
   </g>
  </g>
 </g>
 <defs>
  <clipPath id="p568bfbc9b8">
   <rect x="61.482813" y="72.212571" width="312.064857" height="314.227429"/>
  </clipPath>
  <clipPath id="pcc3ed94e5f">
   <rect x="61.482813" y="7.2" width="312.064857" height="54.177143"/>
  </clipPath>
  <clipPath id="p26d4da7372">
   <rect x="384.308527" y="72.212571" width="53.804286" height="314.227429"/>
  </clipPath>
 </defs>
</svg>
