<?xml version="1.0" encoding="utf-8" standalone="no"?>
<!DOCTYPE svg PUBLIC "-//W3C//DTD SVG 1.1//EN"
  "http://www.w3.org/Graphics/SVG/1.1/DTD/svg11.dtd">
<svg xmlns:xlink="http://www.w3.org/1999/xlink" width="414.641875pt" height="150.520479pt" viewBox="0 0 414.641875 150.520479" xmlns="http://www.w3.org/2000/svg" version="1.1">
 <metadata>
  <rdf:RDF xmlns:dc="http://purl.org/dc/elements/1.1/" xmlns:cc="http://creativecommons.org/ns#" xmlns:rdf="http://www.w3.org/1999/02/22-rdf-syntax-ns#">
   <cc:Work>
    <dc:type rdf:resource="http://purl.org/dc/dcmitype/StillImage"/>
    <dc:date>2022-12-10T10:53:09.432657</dc:date>
    <dc:format>image/svg+xml</dc:format>
    <dc:creator>
     <cc:Agent>
      <dc:title>Matplotlib v3.6.2, https://matplotlib.org/</dc:title>
     </cc:Agent>
    </dc:creator>
   </cc:Work>
  </rdf:RDF>
 </metadata>
 <defs>
  <style type="text/css">*{stroke-linejoin: round; stroke-linecap: butt}</style>
 </defs>
 <g id="figure_1">
  <g id="patch_1">
   <path d="M 0 150.520479 
L 414.641875 150.520479 
L 414.641875 0 
L 0 0 
z
" style="fill: #ffffff"/>
  </g>
  <g id="axes_1">
   <g id="patch_2">
    <path d="M 50.321875 139.332094 
L 407.441875 139.332094 
L 407.441875 32.196094 
L 50.321875 32.196094 
z
" style="fill: #ffffff"/>
   </g>
   <g id="patch_3">
    <path d="M 51.098223 102.951687 
L 57.309005 102.951687 
L 57.309005 74.305698 
L 51.098223 74.305698 
z
" clip-path="url(#pad3180870e)" style="fill: #3274a1"/>
   </g>
   <g id="patch_4">
    <path d="M 58.861701 102.951687 
L 65.072484 102.951687 
L 65.072484 97.222489 
L 58.861701 97.222489 
z
" clip-path="url(#pad3180870e)" style="fill: #3274a1"/>
   </g>
   <g id="patch_5">
    <path d="M 66.625179 102.951687 
L 72.835962 102.951687 
L 72.835962 74.305698 
L 66.625179 74.305698 
z
" clip-path="url(#pad3180870e)" style="fill: #3274a1"/>
   </g>
   <g id="patch_6">
    <path d="M 74.388658 102.951687 
L 80.59944 102.951687 
L 80.59944 102.951687 
L 74.388658 102.951687 
z
" clip-path="url(#pad3180870e)" style="fill: #3274a1"/>
   </g>
   <g id="patch_7">
    <path d="M 82.152136 102.951687 
L 88.362918 102.951687 
L 88.362918 62.847302 
L 82.152136 62.847302 
z
" clip-path="url(#pad3180870e)" style="fill: #3274a1"/>
   </g>
   <g id="patch_8">
    <path d="M 89.915614 102.951687 
L 96.126397 102.951687 
L 96.126397 71.441099 
L 89.915614 71.441099 
z
" clip-path="url(#pad3180870e)" style="fill: #3274a1"/>
   </g>
   <g id="patch_9">
    <path d="M 97.679092 102.951687 
L 103.889875 102.951687 
L 103.889875 68.5765 
L 97.679092 68.5765 
z
" clip-path="url(#pad3180870e)" style="fill: #3274a1"/>
   </g>
   <g id="patch_10">
    <path d="M 105.442571 102.951687 
L 111.653353 102.951687 
L 111.653353 102.951687 
L 105.442571 102.951687 
z
" clip-path="url(#pad3180870e)" style="fill: #3274a1"/>
   </g>
   <g id="patch_11">
    <path d="M 113.206049 102.951687 
L 119.416832 102.951687 
L 119.416832 71.441099 
L 113.206049 71.441099 
z
" clip-path="url(#pad3180870e)" style="fill: #3274a1"/>
   </g>
   <g id="patch_12">
    <path d="M 120.969527 102.951687 
L 127.18031 102.951687 
L 127.18031 102.951687 
L 120.969527 102.951687 
z
" clip-path="url(#pad3180870e)" style="fill: #3274a1"/>
   </g>
   <g id="patch_13">
    <path d="M 128.733005 102.951687 
L 134.943788 102.951687 
L 134.943788 65.711901 
L 128.733005 65.711901 
z
" clip-path="url(#pad3180870e)" style="fill: #3274a1"/>
   </g>
   <g id="patch_14">
    <path d="M 136.496484 102.951687 
L 142.707266 102.951687 
L 142.707266 62.847302 
L 136.496484 62.847302 
z
" clip-path="url(#pad3180870e)" style="fill: #3274a1"/>
   </g>
   <g id="patch_15">
    <path d="M 144.259962 102.951687 
L 150.470745 102.951687 
L 150.470745 39.930511 
L 144.259962 39.930511 
z
" clip-path="url(#pad3180870e)" style="fill: #3274a1"/>
   </g>
   <g id="patch_16">
    <path d="M 152.02344 102.951687 
L 158.234223 102.951687 
L 158.234223 102.951687 
L 152.02344 102.951687 
z
" clip-path="url(#pad3180870e)" style="fill: #3274a1"/>
   </g>
   <g id="patch_17">
    <path d="M 159.786918 102.951687 
L 165.997701 102.951687 
L 165.997701 80.034896 
L 159.786918 80.034896 
z
" clip-path="url(#pad3180870e)" style="fill: #3274a1"/>
   </g>
   <g id="patch_18">
    <path d="M 167.550397 102.951687 
L 173.761179 102.951687 
L 173.761179 68.5765 
L 167.550397 68.5765 
z
" clip-path="url(#pad3180870e)" style="fill: #3274a1"/>
   </g>
   <g id="patch_19">
    <path d="M 175.313875 102.951687 
L 181.524658 102.951687 
L 181.524658 74.305698 
L 175.313875 74.305698 
z
" clip-path="url(#pad3180870e)" style="fill: #3274a1"/>
   </g>
   <g id="patch_20">
    <path d="M 183.077353 102.951687 
L 189.288136 102.951687 
L 189.288136 54.253506 
L 183.077353 54.253506 
z
" clip-path="url(#pad3180870e)" style="fill: #3274a1"/>
   </g>
   <g id="patch_21">
    <path d="M 190.840832 102.951687 
L 197.051614 102.951687 
L 197.051614 102.951687 
L 190.840832 102.951687 
z
" clip-path="url(#pad3180870e)" style="fill: #3274a1"/>
   </g>
   <g id="patch_22">
    <path d="M 198.60431 102.951687 
L 204.815092 102.951687 
L 204.815092 39.930511 
L 198.60431 39.930511 
z
" clip-path="url(#pad3180870e)" style="fill: #3274a1"/>
   </g>
   <g id="patch_23">
    <path d="M 206.367788 102.951687 
L 212.578571 102.951687 
L 212.578571 91.493292 
L 206.367788 91.493292 
z
" clip-path="url(#pad3180870e)" style="fill: #3274a1"/>
   </g>
   <g id="patch_24">
    <path d="M 214.131266 102.951687 
L 220.342049 102.951687 
L 220.342049 51.388907 
L 214.131266 51.388907 
z
" clip-path="url(#pad3180870e)" style="fill: #3274a1"/>
   </g>
   <g id="patch_25">
    <path d="M 221.894745 102.951687 
L 228.105527 102.951687 
L 228.105527 65.711901 
L 221.894745 65.711901 
z
" clip-path="url(#pad3180870e)" style="fill: #3274a1"/>
   </g>
   <g id="patch_26">
    <path d="M 229.658223 102.951687 
L 235.869005 102.951687 
L 235.869005 59.982703 
L 229.658223 59.982703 
z
" clip-path="url(#pad3180870e)" style="fill: #3274a1"/>
   </g>
   <g id="patch_27">
    <path d="M 237.421701 102.951687 
L 243.632484 102.951687 
L 243.632484 102.951687 
L 237.421701 102.951687 
z
" clip-path="url(#pad3180870e)" style="fill: #3274a1"/>
   </g>
   <g id="patch_28">
    <path d="M 245.185179 102.951687 
L 251.395962 102.951687 
L 251.395962 85.764094 
L 245.185179 85.764094 
z
" clip-path="url(#pad3180870e)" style="fill: #3274a1"/>
   </g>
   <g id="patch_29">
    <path d="M 252.948658 102.951687 
L 259.15944 102.951687 
L 259.15944 37.065912 
L 252.948658 37.065912 
z
" clip-path="url(#pad3180870e)" style="fill: #3274a1"/>
   </g>
   <g id="patch_30">
    <path d="M 260.712136 102.951687 
L 266.922918 102.951687 
L 266.922918 100.087088 
L 260.712136 100.087088 
z
" clip-path="url(#pad3180870e)" style="fill: #3274a1"/>
   </g>
   <g id="patch_31">
    <path d="M 268.475614 102.951687 
L 274.686397 102.951687 
L 274.686397 62.847302 
L 268.475614 62.847302 
z
" clip-path="url(#pad3180870e)" style="fill: #3274a1"/>
   </g>
   <g id="patch_32">
    <path d="M 276.239092 102.951687 
L 282.449875 102.951687 
L 282.449875 59.982703 
L 276.239092 59.982703 
z
" clip-path="url(#pad3180870e)" style="fill: #3274a1"/>
   </g>
   <g id="patch_33">
    <path d="M 284.002571 102.951687 
L 290.213353 102.951687 
L 290.213353 68.5765 
L 284.002571 68.5765 
z
" clip-path="url(#pad3180870e)" style="fill: #3274a1"/>
   </g>
   <g id="patch_34">
    <path d="M 291.766049 102.951687 
L 297.976832 102.951687 
L 297.976832 77.170297 
L 291.766049 77.170297 
z
" clip-path="url(#pad3180870e)" style="fill: #3274a1"/>
   </g>
   <g id="patch_35">
    <path d="M 299.529527 102.951687 
L 305.74031 102.951687 
L 305.74031 62.847302 
L 299.529527 62.847302 
z
" clip-path="url(#pad3180870e)" style="fill: #3274a1"/>
   </g>
   <g id="patch_36">
    <path d="M 307.293005 102.951687 
L 313.503788 102.951687 
L 313.503788 68.5765 
L 307.293005 68.5765 
z
" clip-path="url(#pad3180870e)" style="fill: #3274a1"/>
   </g>
   <g id="patch_37">
    <path d="M 315.056484 102.951687 
L 321.267266 102.951687 
L 321.267266 82.899495 
L 315.056484 82.899495 
z
" clip-path="url(#pad3180870e)" style="fill: #3274a1"/>
   </g>
   <g id="patch_38">
    <path d="M 322.819962 102.951687 
L 329.030745 102.951687 
L 329.030745 91.493292 
L 322.819962 91.493292 
z
" clip-path="url(#pad3180870e)" style="fill: #3274a1"/>
   </g>
   <g id="patch_39">
    <path d="M 330.58344 102.951687 
L 336.794223 102.951687 
L 336.794223 100.087088 
L 330.58344 100.087088 
z
" clip-path="url(#pad3180870e)" style="fill: #3274a1"/>
   </g>
   <g id="patch_40">
    <path d="M 338.346918 102.951687 
L 344.557701 102.951687 
L 344.557701 82.899495 
L 338.346918 82.899495 
z
" clip-path="url(#pad3180870e)" style="fill: #3274a1"/>
   </g>
   <g id="patch_41">
    <path d="M 346.110397 102.951687 
L 352.321179 102.951687 
L 352.321179 102.951687 
L 346.110397 102.951687 
z
" clip-path="url(#pad3180870e)" style="fill: #3274a1"/>
   </g>
   <g id="patch_42">
    <path d="M 353.873875 102.951687 
L 360.084658 102.951687 
L 360.084658 97.222489 
L 353.873875 97.222489 
z
" clip-path="url(#pad3180870e)" style="fill: #3274a1"/>
   </g>
   <g id="patch_43">
    <path d="M 361.637353 102.951687 
L 367.848136 102.951687 
L 367.848136 65.711901 
L 361.637353 65.711901 
z
" clip-path="url(#pad3180870e)" style="fill: #3274a1"/>
   </g>
   <g id="patch_44">
    <path d="M 369.400832 102.951687 
L 375.611614 102.951687 
L 375.611614 71.441099 
L 369.400832 71.441099 
z
" clip-path="url(#pad3180870e)" style="fill: #3274a1"/>
   </g>
   <g id="patch_45">
    <path d="M 377.16431 102.951687 
L 383.375092 102.951687 
L 383.375092 91.493292 
L 377.16431 91.493292 
z
" clip-path="url(#pad3180870e)" style="fill: #3274a1"/>
   </g>
   <g id="patch_46">
    <path d="M 384.927788 102.951687 
L 391.138571 102.951687 
L 391.138571 102.951687 
L 384.927788 102.951687 
z
" clip-path="url(#pad3180870e)" style="fill: #3274a1"/>
   </g>
   <g id="patch_47">
    <path d="M 392.691266 102.951687 
L 398.902049 102.951687 
L 398.902049 51.388907 
L 392.691266 51.388907 
z
" clip-path="url(#pad3180870e)" style="fill: #3274a1"/>
   </g>
   <g id="patch_48">
    <path d="M 400.454745 102.951687 
L 406.665527 102.951687 
L 406.665527 100.087088 
L 400.454745 100.087088 
z
" clip-path="url(#pad3180870e)" style="fill: #3274a1"/>
   </g>
   <g id="patch_49">
    <path d="M 51.098223 102.951687 
L 57.309005 102.951687 
L 57.309005 102.951687 
L 51.098223 102.951687 
z
" clip-path="url(#pad3180870e)" style="fill: #e1812c"/>
   </g>
   <g id="patch_50">
    <path d="M 58.861701 102.951687 
L 65.072484 102.951687 
L 65.072484 123.00388 
L 58.861701 123.00388 
z
" clip-path="url(#pad3180870e)" style="fill: #e1812c"/>
   </g>
   <g id="patch_51">
    <path d="M 66.625179 102.951687 
L 72.835962 102.951687 
L 72.835962 105.816286 
L 66.625179 105.816286 
z
" clip-path="url(#pad3180870e)" style="fill: #e1812c"/>
   </g>
   <g id="patch_52">
    <path d="M 74.388658 102.951687 
L 80.59944 102.951687 
L 80.59944 108.680885 
L 74.388658 108.680885 
z
" clip-path="url(#pad3180870e)" style="fill: #e1812c"/>
   </g>
   <g id="patch_53">
    <path d="M 82.152136 102.951687 
L 88.362918 102.951687 
L 88.362918 102.951687 
L 82.152136 102.951687 
z
" clip-path="url(#pad3180870e)" style="fill: #e1812c"/>
   </g>
   <g id="patch_54">
    <path d="M 89.915614 102.951687 
L 96.126397 102.951687 
L 96.126397 102.951687 
L 89.915614 102.951687 
z
" clip-path="url(#pad3180870e)" style="fill: #e1812c"/>
   </g>
   <g id="patch_55">
    <path d="M 97.679092 102.951687 
L 103.889875 102.951687 
L 103.889875 102.951687 
L 97.679092 102.951687 
z
" clip-path="url(#pad3180870e)" style="fill: #e1812c"/>
   </g>
   <g id="patch_56">
    <path d="M 105.442571 102.951687 
L 111.653353 102.951687 
L 111.653353 128.733078 
L 105.442571 128.733078 
z
" clip-path="url(#pad3180870e)" style="fill: #e1812c"/>
   </g>
   <g id="patch_57">
    <path d="M 113.206049 102.951687 
L 119.416832 102.951687 
L 119.416832 102.951687 
L 113.206049 102.951687 
z
" clip-path="url(#pad3180870e)" style="fill: #e1812c"/>
   </g>
   <g id="patch_58">
    <path d="M 120.969527 102.951687 
L 127.18031 102.951687 
L 127.18031 108.680885 
L 120.969527 108.680885 
z
" clip-path="url(#pad3180870e)" style="fill: #e1812c"/>
   </g>
   <g id="patch_59">
    <path d="M 128.733005 102.951687 
L 134.943788 102.951687 
L 134.943788 102.951687 
L 128.733005 102.951687 
z
" clip-path="url(#pad3180870e)" style="fill: #e1812c"/>
   </g>
   <g id="patch_60">
    <path d="M 136.496484 102.951687 
L 142.707266 102.951687 
L 142.707266 108.680885 
L 136.496484 108.680885 
z
" clip-path="url(#pad3180870e)" style="fill: #e1812c"/>
   </g>
   <g id="patch_61">
    <path d="M 144.259962 102.951687 
L 150.470745 102.951687 
L 150.470745 102.951687 
L 144.259962 102.951687 
z
" clip-path="url(#pad3180870e)" style="fill: #e1812c"/>
   </g>
   <g id="patch_62">
    <path d="M 152.02344 102.951687 
L 158.234223 102.951687 
L 158.234223 117.274682 
L 152.02344 117.274682 
z
" clip-path="url(#pad3180870e)" style="fill: #e1812c"/>
   </g>
   <g id="patch_63">
    <path d="M 159.786918 102.951687 
L 165.997701 102.951687 
L 165.997701 102.951687 
L 159.786918 102.951687 
z
" clip-path="url(#pad3180870e)" style="fill: #e1812c"/>
   </g>
   <g id="patch_64">
    <path d="M 167.550397 102.951687 
L 173.761179 102.951687 
L 173.761179 105.816286 
L 167.550397 105.816286 
z
" clip-path="url(#pad3180870e)" style="fill: #e1812c"/>
   </g>
   <g id="patch_65">
    <path d="M 175.313875 102.951687 
L 181.524658 102.951687 
L 181.524658 102.951687 
L 175.313875 102.951687 
z
" clip-path="url(#pad3180870e)" style="fill: #e1812c"/>
   </g>
   <g id="patch_66">
    <path d="M 183.077353 102.951687 
L 189.288136 102.951687 
L 189.288136 102.951687 
L 183.077353 102.951687 
z
" clip-path="url(#pad3180870e)" style="fill: #e1812c"/>
   </g>
   <g id="patch_67">
    <path d="M 190.840832 102.951687 
L 197.051614 102.951687 
L 197.051614 128.733078 
L 190.840832 128.733078 
z
" clip-path="url(#pad3180870e)" style="fill: #e1812c"/>
   </g>
   <g id="patch_68">
    <path d="M 198.60431 102.951687 
L 204.815092 102.951687 
L 204.815092 102.951687 
L 198.60431 102.951687 
z
" clip-path="url(#pad3180870e)" style="fill: #e1812c"/>
   </g>
   <g id="patch_69">
    <path d="M 206.367788 102.951687 
L 212.578571 102.951687 
L 212.578571 108.680885 
L 206.367788 108.680885 
z
" clip-path="url(#pad3180870e)" style="fill: #e1812c"/>
   </g>
   <g id="patch_70">
    <path d="M 214.131266 102.951687 
L 220.342049 102.951687 
L 220.342049 102.951687 
L 214.131266 102.951687 
z
" clip-path="url(#pad3180870e)" style="fill: #e1812c"/>
   </g>
   <g id="patch_71">
    <path d="M 221.894745 102.951687 
L 228.105527 102.951687 
L 228.105527 123.00388 
L 221.894745 123.00388 
z
" clip-path="url(#pad3180870e)" style="fill: #e1812c"/>
   </g>
   <g id="patch_72">
    <path d="M 229.658223 102.951687 
L 235.869005 102.951687 
L 235.869005 102.951687 
L 229.658223 102.951687 
z
" clip-path="url(#pad3180870e)" style="fill: #e1812c"/>
   </g>
   <g id="patch_73">
    <path d="M 237.421701 102.951687 
L 243.632484 102.951687 
L 243.632484 102.951687 
L 237.421701 102.951687 
z
" clip-path="url(#pad3180870e)" style="fill: #e1812c"/>
   </g>
   <g id="patch_74">
    <path d="M 245.185179 102.951687 
L 251.395962 102.951687 
L 251.395962 125.868479 
L 245.185179 125.868479 
z
" clip-path="url(#pad3180870e)" style="fill: #e1812c"/>
   </g>
   <g id="patch_75">
    <path d="M 252.948658 102.951687 
L 259.15944 102.951687 
L 259.15944 102.951687 
L 252.948658 102.951687 
z
" clip-path="url(#pad3180870e)" style="fill: #e1812c"/>
   </g>
   <g id="patch_76">
    <path d="M 260.712136 102.951687 
L 266.922918 102.951687 
L 266.922918 134.462276 
L 260.712136 134.462276 
z
" clip-path="url(#pad3180870e)" style="fill: #e1812c"/>
   </g>
   <g id="patch_77">
    <path d="M 268.475614 102.951687 
L 274.686397 102.951687 
L 274.686397 108.680885 
L 268.475614 108.680885 
z
" clip-path="url(#pad3180870e)" style="fill: #e1812c"/>
   </g>
   <g id="patch_78">
    <path d="M 276.239092 102.951687 
L 282.449875 102.951687 
L 282.449875 102.951687 
L 276.239092 102.951687 
z
" clip-path="url(#pad3180870e)" style="fill: #e1812c"/>
   </g>
   <g id="patch_79">
    <path d="M 284.002571 102.951687 
L 290.213353 102.951687 
L 290.213353 105.816286 
L 284.002571 105.816286 
z
" clip-path="url(#pad3180870e)" style="fill: #e1812c"/>
   </g>
   <g id="patch_80">
    <path d="M 291.766049 102.951687 
L 297.976832 102.951687 
L 297.976832 102.951687 
L 291.766049 102.951687 
z
" clip-path="url(#pad3180870e)" style="fill: #e1812c"/>
   </g>
   <g id="patch_81">
    <path d="M 299.529527 102.951687 
L 305.74031 102.951687 
L 305.74031 102.951687 
L 299.529527 102.951687 
z
" clip-path="url(#pad3180870e)" style="fill: #e1812c"/>
   </g>
   <g id="patch_82">
    <path d="M 307.293005 102.951687 
L 313.503788 102.951687 
L 313.503788 111.545484 
L 307.293005 111.545484 
z
" clip-path="url(#pad3180870e)" style="fill: #e1812c"/>
   </g>
   <g id="patch_83">
    <path d="M 315.056484 102.951687 
L 321.267266 102.951687 
L 321.267266 102.951687 
L 315.056484 102.951687 
z
" clip-path="url(#pad3180870e)" style="fill: #e1812c"/>
   </g>
   <g id="patch_84">
    <path d="M 322.819962 102.951687 
L 329.030745 102.951687 
L 329.030745 120.139281 
L 322.819962 120.139281 
z
" clip-path="url(#pad3180870e)" style="fill: #e1812c"/>
   </g>
   <g id="patch_85">
    <path d="M 330.58344 102.951687 
L 336.794223 102.951687 
L 336.794223 123.00388 
L 330.58344 123.00388 
z
" clip-path="url(#pad3180870e)" style="fill: #e1812c"/>
   </g>
   <g id="patch_86">
    <path d="M 338.346918 102.951687 
L 344.557701 102.951687 
L 344.557701 117.274682 
L 338.346918 117.274682 
z
" clip-path="url(#pad3180870e)" style="fill: #e1812c"/>
   </g>
   <g id="patch_87">
    <path d="M 346.110397 102.951687 
L 352.321179 102.951687 
L 352.321179 108.680885 
L 346.110397 108.680885 
z
" clip-path="url(#pad3180870e)" style="fill: #e1812c"/>
   </g>
   <g id="patch_88">
    <path d="M 353.873875 102.951687 
L 360.084658 102.951687 
L 360.084658 111.545484 
L 353.873875 111.545484 
z
" clip-path="url(#pad3180870e)" style="fill: #e1812c"/>
   </g>
   <g id="patch_89">
    <path d="M 361.637353 102.951687 
L 367.848136 102.951687 
L 367.848136 102.951687 
L 361.637353 102.951687 
z
" clip-path="url(#pad3180870e)" style="fill: #e1812c"/>
   </g>
   <g id="patch_90">
    <path d="M 369.400832 102.951687 
L 375.611614 102.951687 
L 375.611614 108.680885 
L 369.400832 108.680885 
z
" clip-path="url(#pad3180870e)" style="fill: #e1812c"/>
   </g>
   <g id="patch_91">
    <path d="M 377.16431 102.951687 
L 383.375092 102.951687 
L 383.375092 108.680885 
L 377.16431 108.680885 
z
" clip-path="url(#pad3180870e)" style="fill: #e1812c"/>
   </g>
   <g id="patch_92">
    <path d="M 384.927788 102.951687 
L 391.138571 102.951687 
L 391.138571 111.545484 
L 384.927788 111.545484 
z
" clip-path="url(#pad3180870e)" style="fill: #e1812c"/>
   </g>
   <g id="patch_93">
    <path d="M 392.691266 102.951687 
L 398.902049 102.951687 
L 398.902049 105.816286 
L 392.691266 105.816286 
z
" clip-path="url(#pad3180870e)" style="fill: #e1812c"/>
   </g>
   <g id="patch_94">
    <path d="M 400.454745 102.951687 
L 406.665527 102.951687 
L 406.665527 117.274682 
L 400.454745 117.274682 
z
" clip-path="url(#pad3180870e)" style="fill: #e1812c"/>
   </g>
   <g id="matplotlib.axis_1"/>
   <g id="matplotlib.axis_2">
    <g id="ytick_1">
     <g id="line2d_1">
      <defs>
       <path id="ma825b23ac0" d="M 0 0 
L -3.5 0 
" style="stroke: #000000; stroke-width: 0.8"/>
      </defs>
      <g>
       <use xlink:href="#ma825b23ac0" x="50.321875" y="102.951687" style="stroke: #000000; stroke-width: 0.8"/>
      </g>
     </g>
     <g id="text_1">
      <!--    0 -->
      <g transform="translate(7.2 108.690359) scale(0.15 -0.15)">
       <defs>
        <path id="DejaVuSansMono-20" transform="scale(0.015625)"/>
        <path id="DejaVuSansMono-30" d="M 1509 2344 
Q 1509 2516 1629 2641 
Q 1750 2766 1919 2766 
Q 2094 2766 2219 2641 
Q 2344 2516 2344 2344 
Q 2344 2169 2220 2047 
Q 2097 1925 1919 1925 
Q 1744 1925 1626 2044 
Q 1509 2163 1509 2344 
z
M 1925 4250 
Q 1484 4250 1267 3775 
Q 1050 3300 1050 2328 
Q 1050 1359 1267 884 
Q 1484 409 1925 409 
Q 2369 409 2586 884 
Q 2803 1359 2803 2328 
Q 2803 3300 2586 3775 
Q 2369 4250 1925 4250 
z
M 1925 4750 
Q 2672 4750 3055 4137 
Q 3438 3525 3438 2328 
Q 3438 1134 3055 521 
Q 2672 -91 1925 -91 
Q 1178 -91 797 521 
Q 416 1134 416 2328 
Q 416 3525 797 4137 
Q 1178 4750 1925 4750 
z
" transform="scale(0.015625)"/>
       </defs>
       <use xlink:href="#DejaVuSansMono-20"/>
       <use xlink:href="#DejaVuSansMono-20" x="60.205078"/>
       <use xlink:href="#DejaVuSansMono-20" x="120.410156"/>
       <use xlink:href="#DejaVuSansMono-30" x="180.615234"/>
      </g>
     </g>
    </g>
    <g id="ytick_2">
     <g id="line2d_2">
      <g>
       <use xlink:href="#ma825b23ac0" x="50.321875" y="134.462276" style="stroke: #000000; stroke-width: 0.8"/>
      </g>
     </g>
     <g id="text_2">
      <!--  -11 -->
      <g transform="translate(7.2 140.200947) scale(0.15 -0.15)">
       <defs>
        <path id="DejaVuSansMono-2d" d="M 1113 2009 
L 2741 2009 
L 2741 1497 
L 1113 1497 
L 1113 2009 
z
" transform="scale(0.015625)"/>
        <path id="DejaVuSansMono-31" d="M 844 531 
L 1825 531 
L 1825 4097 
L 769 3859 
L 769 4434 
L 1819 4666 
L 2450 4666 
L 2450 531 
L 3419 531 
L 3419 0 
L 844 0 
L 844 531 
z
" transform="scale(0.015625)"/>
       </defs>
       <use xlink:href="#DejaVuSansMono-20"/>
       <use xlink:href="#DejaVuSansMono-2d" x="60.205078"/>
       <use xlink:href="#DejaVuSansMono-31" x="120.410156"/>
       <use xlink:href="#DejaVuSansMono-31" x="180.615234"/>
      </g>
     </g>
    </g>
    <g id="ytick_3">
     <g id="line2d_3">
      <g>
       <use xlink:href="#ma825b23ac0" x="50.321875" y="37.065912" style="stroke: #000000; stroke-width: 0.8"/>
      </g>
     </g>
     <g id="text_3">
      <!--   23 -->
      <g transform="translate(7.2 42.804584) scale(0.15 -0.15)">
       <defs>
        <path id="DejaVuSansMono-32" d="M 1166 531 
L 3309 531 
L 3309 0 
L 475 0 
L 475 531 
Q 1059 1147 1496 1619 
Q 1934 2091 2100 2284 
Q 2413 2666 2522 2902 
Q 2631 3138 2631 3384 
Q 2631 3775 2401 3997 
Q 2172 4219 1772 4219 
Q 1488 4219 1175 4116 
Q 863 4013 513 3803 
L 513 4441 
Q 834 4594 1145 4672 
Q 1456 4750 1759 4750 
Q 2444 4750 2861 4386 
Q 3278 4022 3278 3431 
Q 3278 3131 3139 2831 
Q 3000 2531 2688 2169 
Q 2513 1966 2180 1606 
Q 1847 1247 1166 531 
z
" transform="scale(0.015625)"/>
        <path id="DejaVuSansMono-33" d="M 2425 2497 
Q 2884 2375 3128 2064 
Q 3372 1753 3372 1288 
Q 3372 644 2939 276 
Q 2506 -91 1741 -91 
Q 1419 -91 1084 -31 
Q 750 28 428 141 
L 428 769 
Q 747 603 1056 522 
Q 1366 441 1672 441 
Q 2191 441 2469 675 
Q 2747 909 2747 1350 
Q 2747 1756 2469 1995 
Q 2191 2234 1716 2234 
L 1234 2234 
L 1234 2753 
L 1716 2753 
Q 2150 2753 2394 2943 
Q 2638 3134 2638 3475 
Q 2638 3834 2411 4026 
Q 2184 4219 1766 4219 
Q 1488 4219 1191 4156 
Q 894 4094 569 3969 
L 569 4550 
Q 947 4650 1242 4700 
Q 1538 4750 1766 4750 
Q 2447 4750 2855 4408 
Q 3263 4066 3263 3500 
Q 3263 3116 3048 2859 
Q 2834 2603 2425 2497 
z
" transform="scale(0.015625)"/>
       </defs>
       <use xlink:href="#DejaVuSansMono-20"/>
       <use xlink:href="#DejaVuSansMono-20" x="60.205078"/>
       <use xlink:href="#DejaVuSansMono-32" x="120.410156"/>
       <use xlink:href="#DejaVuSansMono-33" x="180.615234"/>
      </g>
     </g>
    </g>
   </g>
   <g id="line2d_4">
    <path clip-path="url(#pad3180870e)" style="fill: none; stroke: #424242; stroke-width: 2.7; stroke-linecap: square"/>
   </g>
   <g id="line2d_5">
    <path clip-path="url(#pad3180870e)" style="fill: none; stroke: #424242; stroke-width: 2.7; stroke-linecap: square"/>
   </g>
   <g id="line2d_6">
    <path clip-path="url(#pad3180870e)" style="fill: none; stroke: #424242; stroke-width: 2.7; stroke-linecap: square"/>
   </g>
   <g id="line2d_7">
    <path clip-path="url(#pad3180870e)" style="fill: none; stroke: #424242; stroke-width: 2.7; stroke-linecap: square"/>
   </g>
   <g id="line2d_8">
    <path clip-path="url(#pad3180870e)" style="fill: none; stroke: #424242; stroke-width: 2.7; stroke-linecap: square"/>
   </g>
   <g id="line2d_9">
    <path clip-path="url(#pad3180870e)" style="fill: none; stroke: #424242; stroke-width: 2.7; stroke-linecap: square"/>
   </g>
   <g id="line2d_10">
    <path clip-path="url(#pad3180870e)" style="fill: none; stroke: #424242; stroke-width: 2.7; stroke-linecap: square"/>
   </g>
   <g id="line2d_11">
    <path clip-path="url(#pad3180870e)" style="fill: none; stroke: #424242; stroke-width: 2.7; stroke-linecap: square"/>
   </g>
   <g id="line2d_12">
    <path clip-path="url(#pad3180870e)" style="fill: none; stroke: #424242; stroke-width: 2.7; stroke-linecap: square"/>
   </g>
   <g id="line2d_13">
    <path clip-path="url(#pad3180870e)" style="fill: none; stroke: #424242; stroke-width: 2.7; stroke-linecap: square"/>
   </g>
   <g id="line2d_14">
    <path clip-path="url(#pad3180870e)" style="fill: none; stroke: #424242; stroke-width: 2.7; stroke-linecap: square"/>
   </g>
   <g id="line2d_15">
    <path clip-path="url(#pad3180870e)" style="fill: none; stroke: #424242; stroke-width: 2.7; stroke-linecap: square"/>
   </g>
   <g id="line2d_16">
    <path clip-path="url(#pad3180870e)" style="fill: none; stroke: #424242; stroke-width: 2.7; stroke-linecap: square"/>
   </g>
   <g id="line2d_17">
    <path clip-path="url(#pad3180870e)" style="fill: none; stroke: #424242; stroke-width: 2.7; stroke-linecap: square"/>
   </g>
   <g id="line2d_18">
    <path clip-path="url(#pad3180870e)" style="fill: none; stroke: #424242; stroke-width: 2.7; stroke-linecap: square"/>
   </g>
   <g id="line2d_19">
    <path clip-path="url(#pad3180870e)" style="fill: none; stroke: #424242; stroke-width: 2.7; stroke-linecap: square"/>
   </g>
   <g id="line2d_20">
    <path clip-path="url(#pad3180870e)" style="fill: none; stroke: #424242; stroke-width: 2.7; stroke-linecap: square"/>
   </g>
   <g id="line2d_21">
    <path clip-path="url(#pad3180870e)" style="fill: none; stroke: #424242; stroke-width: 2.7; stroke-linecap: square"/>
   </g>
   <g id="line2d_22">
    <path clip-path="url(#pad3180870e)" style="fill: none; stroke: #424242; stroke-width: 2.7; stroke-linecap: square"/>
   </g>
   <g id="line2d_23">
    <path clip-path="url(#pad3180870e)" style="fill: none; stroke: #424242; stroke-width: 2.7; stroke-linecap: square"/>
   </g>
   <g id="line2d_24">
    <path clip-path="url(#pad3180870e)" style="fill: none; stroke: #424242; stroke-width: 2.7; stroke-linecap: square"/>
   </g>
   <g id="line2d_25">
    <path clip-path="url(#pad3180870e)" style="fill: none; stroke: #424242; stroke-width: 2.7; stroke-linecap: square"/>
   </g>
   <g id="line2d_26">
    <path clip-path="url(#pad3180870e)" style="fill: none; stroke: #424242; stroke-width: 2.7; stroke-linecap: square"/>
   </g>
   <g id="line2d_27">
    <path clip-path="url(#pad3180870e)" style="fill: none; stroke: #424242; stroke-width: 2.7; stroke-linecap: square"/>
   </g>
   <g id="line2d_28">
    <path clip-path="url(#pad3180870e)" style="fill: none; stroke: #424242; stroke-width: 2.7; stroke-linecap: square"/>
   </g>
   <g id="line2d_29">
    <path clip-path="url(#pad3180870e)" style="fill: none; stroke: #424242; stroke-width: 2.7; stroke-linecap: square"/>
   </g>
   <g id="line2d_30">
    <path clip-path="url(#pad3180870e)" style="fill: none; stroke: #424242; stroke-width: 2.7; stroke-linecap: square"/>
   </g>
   <g id="line2d_31">
    <path clip-path="url(#pad3180870e)" style="fill: none; stroke: #424242; stroke-width: 2.7; stroke-linecap: square"/>
   </g>
   <g id="line2d_32">
    <path clip-path="url(#pad3180870e)" style="fill: none; stroke: #424242; stroke-width: 2.7; stroke-linecap: square"/>
   </g>
   <g id="line2d_33">
    <path clip-path="url(#pad3180870e)" style="fill: none; stroke: #424242; stroke-width: 2.7; stroke-linecap: square"/>
   </g>
   <g id="line2d_34">
    <path clip-path="url(#pad3180870e)" style="fill: none; stroke: #424242; stroke-width: 2.7; stroke-linecap: square"/>
   </g>
   <g id="line2d_35">
    <path clip-path="url(#pad3180870e)" style="fill: none; stroke: #424242; stroke-width: 2.7; stroke-linecap: square"/>
   </g>
   <g id="line2d_36">
    <path clip-path="url(#pad3180870e)" style="fill: none; stroke: #424242; stroke-width: 2.7; stroke-linecap: square"/>
   </g>
   <g id="line2d_37">
    <path clip-path="url(#pad3180870e)" style="fill: none; stroke: #424242; stroke-width: 2.7; stroke-linecap: square"/>
   </g>
   <g id="line2d_38">
    <path clip-path="url(#pad3180870e)" style="fill: none; stroke: #424242; stroke-width: 2.7; stroke-linecap: square"/>
   </g>
   <g id="line2d_39">
    <path clip-path="url(#pad3180870e)" style="fill: none; stroke: #424242; stroke-width: 2.7; stroke-linecap: square"/>
   </g>
   <g id="line2d_40">
    <path clip-path="url(#pad3180870e)" style="fill: none; stroke: #424242; stroke-width: 2.7; stroke-linecap: square"/>
   </g>
   <g id="line2d_41">
    <path clip-path="url(#pad3180870e)" style="fill: none; stroke: #424242; stroke-width: 2.7; stroke-linecap: square"/>
   </g>
   <g id="line2d_42">
    <path clip-path="url(#pad3180870e)" style="fill: none; stroke: #424242; stroke-width: 2.7; stroke-linecap: square"/>
   </g>
   <g id="line2d_43">
    <path clip-path="url(#pad3180870e)" style="fill: none; stroke: #424242; stroke-width: 2.7; stroke-linecap: square"/>
   </g>
   <g id="line2d_44">
    <path clip-path="url(#pad3180870e)" style="fill: none; stroke: #424242; stroke-width: 2.7; stroke-linecap: square"/>
   </g>
   <g id="line2d_45">
    <path clip-path="url(#pad3180870e)" style="fill: none; stroke: #424242; stroke-width: 2.7; stroke-linecap: square"/>
   </g>
   <g id="line2d_46">
    <path clip-path="url(#pad3180870e)" style="fill: none; stroke: #424242; stroke-width: 2.7; stroke-linecap: square"/>
   </g>
   <g id="line2d_47">
    <path clip-path="url(#pad3180870e)" style="fill: none; stroke: #424242; stroke-width: 2.7; stroke-linecap: square"/>
   </g>
   <g id="line2d_48">
    <path clip-path="url(#pad3180870e)" style="fill: none; stroke: #424242; stroke-width: 2.7; stroke-linecap: square"/>
   </g>
   <g id="line2d_49">
    <path clip-path="url(#pad3180870e)" style="fill: none; stroke: #424242; stroke-width: 2.7; stroke-linecap: square"/>
   </g>
   <g id="line2d_50">
    <path clip-path="url(#pad3180870e)" style="fill: none; stroke: #424242; stroke-width: 2.7; stroke-linecap: square"/>
   </g>
   <g id="line2d_51">
    <path clip-path="url(#pad3180870e)" style="fill: none; stroke: #424242; stroke-width: 2.7; stroke-linecap: square"/>
   </g>
   <g id="line2d_52">
    <path clip-path="url(#pad3180870e)" style="fill: none; stroke: #424242; stroke-width: 2.7; stroke-linecap: square"/>
   </g>
   <g id="line2d_53">
    <path clip-path="url(#pad3180870e)" style="fill: none; stroke: #424242; stroke-width: 2.7; stroke-linecap: square"/>
   </g>
   <g id="line2d_54">
    <path clip-path="url(#pad3180870e)" style="fill: none; stroke: #424242; stroke-width: 2.7; stroke-linecap: square"/>
   </g>
   <g id="line2d_55">
    <path clip-path="url(#pad3180870e)" style="fill: none; stroke: #424242; stroke-width: 2.7; stroke-linecap: square"/>
   </g>
   <g id="line2d_56">
    <path clip-path="url(#pad3180870e)" style="fill: none; stroke: #424242; stroke-width: 2.7; stroke-linecap: square"/>
   </g>
   <g id="line2d_57">
    <path clip-path="url(#pad3180870e)" style="fill: none; stroke: #424242; stroke-width: 2.7; stroke-linecap: square"/>
   </g>
   <g id="line2d_58">
    <path clip-path="url(#pad3180870e)" style="fill: none; stroke: #424242; stroke-width: 2.7; stroke-linecap: square"/>
   </g>
   <g id="line2d_59">
    <path clip-path="url(#pad3180870e)" style="fill: none; stroke: #424242; stroke-width: 2.7; stroke-linecap: square"/>
   </g>
   <g id="line2d_60">
    <path clip-path="url(#pad3180870e)" style="fill: none; stroke: #424242; stroke-width: 2.7; stroke-linecap: square"/>
   </g>
   <g id="line2d_61">
    <path clip-path="url(#pad3180870e)" style="fill: none; stroke: #424242; stroke-width: 2.7; stroke-linecap: square"/>
   </g>
   <g id="line2d_62">
    <path clip-path="url(#pad3180870e)" style="fill: none; stroke: #424242; stroke-width: 2.7; stroke-linecap: square"/>
   </g>
   <g id="line2d_63">
    <path clip-path="url(#pad3180870e)" style="fill: none; stroke: #424242; stroke-width: 2.7; stroke-linecap: square"/>
   </g>
   <g id="line2d_64">
    <path clip-path="url(#pad3180870e)" style="fill: none; stroke: #424242; stroke-width: 2.7; stroke-linecap: square"/>
   </g>
   <g id="line2d_65">
    <path clip-path="url(#pad3180870e)" style="fill: none; stroke: #424242; stroke-width: 2.7; stroke-linecap: square"/>
   </g>
   <g id="line2d_66">
    <path clip-path="url(#pad3180870e)" style="fill: none; stroke: #424242; stroke-width: 2.7; stroke-linecap: square"/>
   </g>
   <g id="line2d_67">
    <path clip-path="url(#pad3180870e)" style="fill: none; stroke: #424242; stroke-width: 2.7; stroke-linecap: square"/>
   </g>
   <g id="line2d_68">
    <path clip-path="url(#pad3180870e)" style="fill: none; stroke: #424242; stroke-width: 2.7; stroke-linecap: square"/>
   </g>
   <g id="line2d_69">
    <path clip-path="url(#pad3180870e)" style="fill: none; stroke: #424242; stroke-width: 2.7; stroke-linecap: square"/>
   </g>
   <g id="line2d_70">
    <path clip-path="url(#pad3180870e)" style="fill: none; stroke: #424242; stroke-width: 2.7; stroke-linecap: square"/>
   </g>
   <g id="line2d_71">
    <path clip-path="url(#pad3180870e)" style="fill: none; stroke: #424242; stroke-width: 2.7; stroke-linecap: square"/>
   </g>
   <g id="line2d_72">
    <path clip-path="url(#pad3180870e)" style="fill: none; stroke: #424242; stroke-width: 2.7; stroke-linecap: square"/>
   </g>
   <g id="line2d_73">
    <path clip-path="url(#pad3180870e)" style="fill: none; stroke: #424242; stroke-width: 2.7; stroke-linecap: square"/>
   </g>
   <g id="line2d_74">
    <path clip-path="url(#pad3180870e)" style="fill: none; stroke: #424242; stroke-width: 2.7; stroke-linecap: square"/>
   </g>
   <g id="line2d_75">
    <path clip-path="url(#pad3180870e)" style="fill: none; stroke: #424242; stroke-width: 2.7; stroke-linecap: square"/>
   </g>
   <g id="line2d_76">
    <path clip-path="url(#pad3180870e)" style="fill: none; stroke: #424242; stroke-width: 2.7; stroke-linecap: square"/>
   </g>
   <g id="line2d_77">
    <path clip-path="url(#pad3180870e)" style="fill: none; stroke: #424242; stroke-width: 2.7; stroke-linecap: square"/>
   </g>
   <g id="line2d_78">
    <path clip-path="url(#pad3180870e)" style="fill: none; stroke: #424242; stroke-width: 2.7; stroke-linecap: square"/>
   </g>
   <g id="line2d_79">
    <path clip-path="url(#pad3180870e)" style="fill: none; stroke: #424242; stroke-width: 2.7; stroke-linecap: square"/>
   </g>
   <g id="line2d_80">
    <path clip-path="url(#pad3180870e)" style="fill: none; stroke: #424242; stroke-width: 2.7; stroke-linecap: square"/>
   </g>
   <g id="line2d_81">
    <path clip-path="url(#pad3180870e)" style="fill: none; stroke: #424242; stroke-width: 2.7; stroke-linecap: square"/>
   </g>
   <g id="line2d_82">
    <path clip-path="url(#pad3180870e)" style="fill: none; stroke: #424242; stroke-width: 2.7; stroke-linecap: square"/>
   </g>
   <g id="line2d_83">
    <path clip-path="url(#pad3180870e)" style="fill: none; stroke: #424242; stroke-width: 2.7; stroke-linecap: square"/>
   </g>
   <g id="line2d_84">
    <path clip-path="url(#pad3180870e)" style="fill: none; stroke: #424242; stroke-width: 2.7; stroke-linecap: square"/>
   </g>
   <g id="line2d_85">
    <path clip-path="url(#pad3180870e)" style="fill: none; stroke: #424242; stroke-width: 2.7; stroke-linecap: square"/>
   </g>
   <g id="line2d_86">
    <path clip-path="url(#pad3180870e)" style="fill: none; stroke: #424242; stroke-width: 2.7; stroke-linecap: square"/>
   </g>
   <g id="line2d_87">
    <path clip-path="url(#pad3180870e)" style="fill: none; stroke: #424242; stroke-width: 2.7; stroke-linecap: square"/>
   </g>
   <g id="line2d_88">
    <path clip-path="url(#pad3180870e)" style="fill: none; stroke: #424242; stroke-width: 2.7; stroke-linecap: square"/>
   </g>
   <g id="line2d_89">
    <path clip-path="url(#pad3180870e)" style="fill: none; stroke: #424242; stroke-width: 2.7; stroke-linecap: square"/>
   </g>
   <g id="line2d_90">
    <path clip-path="url(#pad3180870e)" style="fill: none; stroke: #424242; stroke-width: 2.7; stroke-linecap: square"/>
   </g>
   <g id="line2d_91">
    <path clip-path="url(#pad3180870e)" style="fill: none; stroke: #424242; stroke-width: 2.7; stroke-linecap: square"/>
   </g>
   <g id="line2d_92">
    <path clip-path="url(#pad3180870e)" style="fill: none; stroke: #424242; stroke-width: 2.7; stroke-linecap: square"/>
   </g>
   <g id="line2d_93">
    <path clip-path="url(#pad3180870e)" style="fill: none; stroke: #424242; stroke-width: 2.7; stroke-linecap: square"/>
   </g>
   <g id="line2d_94">
    <path clip-path="url(#pad3180870e)" style="fill: none; stroke: #424242; stroke-width: 2.7; stroke-linecap: square"/>
   </g>
   <g id="line2d_95">
    <path clip-path="url(#pad3180870e)" style="fill: none; stroke: #424242; stroke-width: 2.7; stroke-linecap: square"/>
   </g>
   <g id="patch_95">
    <path d="M 50.321875 139.332094 
L 50.321875 32.196094 
" style="fill: none; stroke: #000000; stroke-width: 0.8; stroke-linejoin: miter; stroke-linecap: square"/>
   </g>
   <g id="patch_96">
    <path d="M 407.441875 139.332094 
L 407.441875 32.196094 
" style="fill: none; stroke: #000000; stroke-width: 0.8; stroke-linejoin: miter; stroke-linecap: square"/>
   </g>
   <g id="patch_97">
    <path d="M 50.321875 139.332094 
L 407.441875 139.332094 
" style="fill: none; stroke: #000000; stroke-width: 0.8; stroke-linejoin: miter; stroke-linecap: square"/>
   </g>
   <g id="patch_98">
    <path d="M 50.321875 32.196094 
L 407.441875 32.196094 
" style="fill: none; stroke: #000000; stroke-width: 0.8; stroke-linejoin: miter; stroke-linecap: square"/>
   </g>
   <g id="text_4">
    <!-- lz4 -->
    <g transform="translate(210.895547 26.196094) scale(0.25 -0.25)">
     <defs>
      <path id="DejaVuSans-6c" d="M 603 4863 
L 1178 4863 
L 1178 0 
L 603 0 
L 603 4863 
z
" transform="scale(0.015625)"/>
      <path id="DejaVuSans-7a" d="M 353 3500 
L 3084 3500 
L 3084 2975 
L 922 459 
L 3084 459 
L 3084 0 
L 275 0 
L 275 525 
L 2438 3041 
L 353 3041 
L 353 3500 
z
" transform="scale(0.015625)"/>
      <path id="DejaVuSans-34" d="M 2419 4116 
L 825 1625 
L 2419 1625 
L 2419 4116 
z
M 2253 4666 
L 3047 4666 
L 3047 1625 
L 3713 1625 
L 3713 1100 
L 3047 1100 
L 3047 0 
L 2419 0 
L 2419 1100 
L 313 1100 
L 313 1709 
L 2253 4666 
z
" transform="scale(0.015625)"/>
     </defs>
     <use xlink:href="#DejaVuSans-6c"/>
     <use xlink:href="#DejaVuSans-7a" x="27.783203"/>
     <use xlink:href="#DejaVuSans-34" x="80.273438"/>
    </g>
   </g>
  </g>
 </g>
 <defs>
  <clipPath id="pad3180870e">
   <rect x="50.321875" y="32.196094" width="357.12" height="107.136"/>
  </clipPath>
 </defs>
</svg>
