<?xml version="1.0" encoding="utf-8" standalone="no"?>
<!DOCTYPE svg PUBLIC "-//W3C//DTD SVG 1.1//EN"
  "http://www.w3.org/Graphics/SVG/1.1/DTD/svg11.dtd">
<svg xmlns:xlink="http://www.w3.org/1999/xlink" width="414.641875pt" height="150.520479pt" viewBox="0 0 414.641875 150.520479" xmlns="http://www.w3.org/2000/svg" version="1.1">
 <metadata>
  <rdf:RDF xmlns:dc="http://purl.org/dc/elements/1.1/" xmlns:cc="http://creativecommons.org/ns#" xmlns:rdf="http://www.w3.org/1999/02/22-rdf-syntax-ns#">
   <cc:Work>
    <dc:type rdf:resource="http://purl.org/dc/dcmitype/StillImage"/>
    <dc:date>2022-12-10T11:01:19.546749</dc:date>
    <dc:format>image/svg+xml</dc:format>
    <dc:creator>
     <cc:Agent>
      <dc:title>Matplotlib v3.6.2, https://matplotlib.org/</dc:title>
     </cc:Agent>
    </dc:creator>
   </cc:Work>
  </rdf:RDF>
 </metadata>
 <defs>
  <style type="text/css">*{stroke-linejoin: round; stroke-linecap: butt}</style>
 </defs>
 <g id="figure_1">
  <g id="patch_1">
   <path d="M 0 150.520479 
L 414.641875 150.520479 
L 414.641875 0 
L 0 0 
z
" style="fill: #ffffff"/>
  </g>
  <g id="axes_1">
   <g id="patch_2">
    <path d="M 50.321875 139.332094 
L 407.441875 139.332094 
L 407.441875 32.196094 
L 50.321875 32.196094 
z
" style="fill: #ffffff"/>
   </g>
   <g id="patch_3">
    <path d="M 51.237567 104.494164 
L 58.563106 104.494164 
L 58.563106 97.002136 
L 51.237567 97.002136 
z
" clip-path="url(#pfdc87d8648)" style="fill: #3274a1"/>
   </g>
   <g id="patch_4">
    <path d="M 60.39449 104.494164 
L 67.720029 104.494164 
L 67.720029 67.034024 
L 60.39449 67.034024 
z
" clip-path="url(#pfdc87d8648)" style="fill: #3274a1"/>
   </g>
   <g id="patch_5">
    <path d="M 69.551413 104.494164 
L 76.876952 104.494164 
L 76.876952 55.795982 
L 69.551413 55.795982 
z
" clip-path="url(#pfdc87d8648)" style="fill: #3274a1"/>
   </g>
   <g id="patch_6">
    <path d="M 78.708337 104.494164 
L 86.033875 104.494164 
L 86.033875 67.034024 
L 78.708337 67.034024 
z
" clip-path="url(#pfdc87d8648)" style="fill: #3274a1"/>
   </g>
   <g id="patch_7">
    <path d="M 87.86526 104.494164 
L 95.190798 104.494164 
L 95.190798 59.541996 
L 87.86526 59.541996 
z
" clip-path="url(#pfdc87d8648)" style="fill: #3274a1"/>
   </g>
   <g id="patch_8">
    <path d="M 97.022183 104.494164 
L 104.347721 104.494164 
L 104.347721 78.272066 
L 97.022183 78.272066 
z
" clip-path="url(#pfdc87d8648)" style="fill: #3274a1"/>
   </g>
   <g id="patch_9">
    <path d="M 106.179106 104.494164 
L 113.504644 104.494164 
L 113.504644 82.01808 
L 106.179106 82.01808 
z
" clip-path="url(#pfdc87d8648)" style="fill: #3274a1"/>
   </g>
   <g id="patch_10">
    <path d="M 115.336029 104.494164 
L 122.661567 104.494164 
L 122.661567 59.541996 
L 115.336029 59.541996 
z
" clip-path="url(#pfdc87d8648)" style="fill: #3274a1"/>
   </g>
   <g id="patch_11">
    <path d="M 124.492952 104.494164 
L 131.81849 104.494164 
L 131.81849 55.795982 
L 124.492952 55.795982 
z
" clip-path="url(#pfdc87d8648)" style="fill: #3274a1"/>
   </g>
   <g id="patch_12">
    <path d="M 133.649875 104.494164 
L 140.975413 104.494164 
L 140.975413 97.002136 
L 133.649875 97.002136 
z
" clip-path="url(#pfdc87d8648)" style="fill: #3274a1"/>
   </g>
   <g id="patch_13">
    <path d="M 142.806798 104.494164 
L 150.132337 104.494164 
L 150.132337 37.065912 
L 142.806798 37.065912 
z
" clip-path="url(#pfdc87d8648)" style="fill: #3274a1"/>
   </g>
   <g id="patch_14">
    <path d="M 151.963721 104.494164 
L 159.28926 104.494164 
L 159.28926 104.494164 
L 151.963721 104.494164 
z
" clip-path="url(#pfdc87d8648)" style="fill: #3274a1"/>
   </g>
   <g id="patch_15">
    <path d="M 161.120644 104.494164 
L 168.446183 104.494164 
L 168.446183 55.795982 
L 161.120644 55.795982 
z
" clip-path="url(#pfdc87d8648)" style="fill: #3274a1"/>
   </g>
   <g id="patch_16">
    <path d="M 170.277567 104.494164 
L 177.603106 104.494164 
L 177.603106 37.065912 
L 170.277567 37.065912 
z
" clip-path="url(#pfdc87d8648)" style="fill: #3274a1"/>
   </g>
   <g id="patch_17">
    <path d="M 179.43449 104.494164 
L 186.760029 104.494164 
L 186.760029 67.034024 
L 179.43449 67.034024 
z
" clip-path="url(#pfdc87d8648)" style="fill: #3274a1"/>
   </g>
   <g id="patch_18">
    <path d="M 188.591413 104.494164 
L 195.916952 104.494164 
L 195.916952 37.065912 
L 188.591413 37.065912 
z
" clip-path="url(#pfdc87d8648)" style="fill: #3274a1"/>
   </g>
   <g id="patch_19">
    <path d="M 197.748337 104.494164 
L 205.073875 104.494164 
L 205.073875 44.55794 
L 197.748337 44.55794 
z
" clip-path="url(#pfdc87d8648)" style="fill: #3274a1"/>
   </g>
   <g id="patch_20">
    <path d="M 206.90526 104.494164 
L 214.230798 104.494164 
L 214.230798 70.780038 
L 206.90526 70.780038 
z
" clip-path="url(#pfdc87d8648)" style="fill: #3274a1"/>
   </g>
   <g id="patch_21">
    <path d="M 216.062183 104.494164 
L 223.387721 104.494164 
L 223.387721 104.494164 
L 216.062183 104.494164 
z
" clip-path="url(#pfdc87d8648)" style="fill: #3274a1"/>
   </g>
   <g id="patch_22">
    <path d="M 225.219106 104.494164 
L 232.544644 104.494164 
L 232.544644 70.780038 
L 225.219106 70.780038 
z
" clip-path="url(#pfdc87d8648)" style="fill: #3274a1"/>
   </g>
   <g id="patch_23">
    <path d="M 234.376029 104.494164 
L 241.701567 104.494164 
L 241.701567 67.034024 
L 234.376029 67.034024 
z
" clip-path="url(#pfdc87d8648)" style="fill: #3274a1"/>
   </g>
   <g id="patch_24">
    <path d="M 243.532952 104.494164 
L 250.85849 104.494164 
L 250.85849 97.002136 
L 243.532952 97.002136 
z
" clip-path="url(#pfdc87d8648)" style="fill: #3274a1"/>
   </g>
   <g id="patch_25">
    <path d="M 252.689875 104.494164 
L 260.015413 104.494164 
L 260.015413 82.01808 
L 252.689875 82.01808 
z
" clip-path="url(#pfdc87d8648)" style="fill: #3274a1"/>
   </g>
   <g id="patch_26">
    <path d="M 261.846798 104.494164 
L 269.172337 104.494164 
L 269.172337 37.065912 
L 261.846798 37.065912 
z
" clip-path="url(#pfdc87d8648)" style="fill: #3274a1"/>
   </g>
   <g id="patch_27">
    <path d="M 271.003721 104.494164 
L 278.32926 104.494164 
L 278.32926 74.526052 
L 271.003721 74.526052 
z
" clip-path="url(#pfdc87d8648)" style="fill: #3274a1"/>
   </g>
   <g id="patch_28">
    <path d="M 280.160644 104.494164 
L 287.486183 104.494164 
L 287.486183 37.065912 
L 280.160644 37.065912 
z
" clip-path="url(#pfdc87d8648)" style="fill: #3274a1"/>
   </g>
   <g id="patch_29">
    <path d="M 289.317567 104.494164 
L 296.643106 104.494164 
L 296.643106 48.303954 
L 289.317567 48.303954 
z
" clip-path="url(#pfdc87d8648)" style="fill: #3274a1"/>
   </g>
   <g id="patch_30">
    <path d="M 298.47449 104.494164 
L 305.800029 104.494164 
L 305.800029 82.01808 
L 298.47449 82.01808 
z
" clip-path="url(#pfdc87d8648)" style="fill: #3274a1"/>
   </g>
   <g id="patch_31">
    <path d="M 307.631413 104.494164 
L 314.956952 104.494164 
L 314.956952 55.795982 
L 307.631413 55.795982 
z
" clip-path="url(#pfdc87d8648)" style="fill: #3274a1"/>
   </g>
   <g id="patch_32">
    <path d="M 316.788337 104.494164 
L 324.113875 104.494164 
L 324.113875 104.494164 
L 316.788337 104.494164 
z
" clip-path="url(#pfdc87d8648)" style="fill: #3274a1"/>
   </g>
   <g id="patch_33">
    <path d="M 325.94526 104.494164 
L 333.270798 104.494164 
L 333.270798 70.780038 
L 325.94526 70.780038 
z
" clip-path="url(#pfdc87d8648)" style="fill: #3274a1"/>
   </g>
   <g id="patch_34">
    <path d="M 335.102183 104.494164 
L 342.427721 104.494164 
L 342.427721 67.034024 
L 335.102183 67.034024 
z
" clip-path="url(#pfdc87d8648)" style="fill: #3274a1"/>
   </g>
   <g id="patch_35">
    <path d="M 344.259106 104.494164 
L 351.584644 104.494164 
L 351.584644 85.764094 
L 344.259106 85.764094 
z
" clip-path="url(#pfdc87d8648)" style="fill: #3274a1"/>
   </g>
   <g id="patch_36">
    <path d="M 353.416029 104.494164 
L 360.741567 104.494164 
L 360.741567 104.494164 
L 353.416029 104.494164 
z
" clip-path="url(#pfdc87d8648)" style="fill: #3274a1"/>
   </g>
   <g id="patch_37">
    <path d="M 362.572952 104.494164 
L 369.89849 104.494164 
L 369.89849 78.272066 
L 362.572952 78.272066 
z
" clip-path="url(#pfdc87d8648)" style="fill: #3274a1"/>
   </g>
   <g id="patch_38">
    <path d="M 371.729875 104.494164 
L 379.055413 104.494164 
L 379.055413 67.034024 
L 371.729875 67.034024 
z
" clip-path="url(#pfdc87d8648)" style="fill: #3274a1"/>
   </g>
   <g id="patch_39">
    <path d="M 380.886798 104.494164 
L 388.212337 104.494164 
L 388.212337 63.28801 
L 380.886798 63.28801 
z
" clip-path="url(#pfdc87d8648)" style="fill: #3274a1"/>
   </g>
   <g id="patch_40">
    <path d="M 390.043721 104.494164 
L 397.36926 104.494164 
L 397.36926 67.034024 
L 390.043721 67.034024 
z
" clip-path="url(#pfdc87d8648)" style="fill: #3274a1"/>
   </g>
   <g id="patch_41">
    <path d="M 399.200644 104.494164 
L 406.526183 104.494164 
L 406.526183 82.01808 
L 399.200644 82.01808 
z
" clip-path="url(#pfdc87d8648)" style="fill: #3274a1"/>
   </g>
   <g id="patch_42">
    <path d="M 51.237567 104.494164 
L 58.563106 104.494164 
L 58.563106 134.462276 
L 51.237567 134.462276 
z
" clip-path="url(#pfdc87d8648)" style="fill: #e1812c"/>
   </g>
   <g id="patch_43">
    <path d="M 60.39449 104.494164 
L 67.720029 104.494164 
L 67.720029 111.986192 
L 60.39449 111.986192 
z
" clip-path="url(#pfdc87d8648)" style="fill: #e1812c"/>
   </g>
   <g id="patch_44">
    <path d="M 69.551413 104.494164 
L 76.876952 104.494164 
L 76.876952 104.494164 
L 69.551413 104.494164 
z
" clip-path="url(#pfdc87d8648)" style="fill: #e1812c"/>
   </g>
   <g id="patch_45">
    <path d="M 78.708337 104.494164 
L 86.033875 104.494164 
L 86.033875 104.494164 
L 78.708337 104.494164 
z
" clip-path="url(#pfdc87d8648)" style="fill: #e1812c"/>
   </g>
   <g id="patch_46">
    <path d="M 87.86526 104.494164 
L 95.190798 104.494164 
L 95.190798 108.240178 
L 87.86526 108.240178 
z
" clip-path="url(#pfdc87d8648)" style="fill: #e1812c"/>
   </g>
   <g id="patch_47">
    <path d="M 97.022183 104.494164 
L 104.347721 104.494164 
L 104.347721 104.494164 
L 97.022183 104.494164 
z
" clip-path="url(#pfdc87d8648)" style="fill: #e1812c"/>
   </g>
   <g id="patch_48">
    <path d="M 106.179106 104.494164 
L 113.504644 104.494164 
L 113.504644 104.494164 
L 106.179106 104.494164 
z
" clip-path="url(#pfdc87d8648)" style="fill: #e1812c"/>
   </g>
   <g id="patch_49">
    <path d="M 115.336029 104.494164 
L 122.661567 104.494164 
L 122.661567 108.240178 
L 115.336029 108.240178 
z
" clip-path="url(#pfdc87d8648)" style="fill: #e1812c"/>
   </g>
   <g id="patch_50">
    <path d="M 124.492952 104.494164 
L 131.81849 104.494164 
L 131.81849 104.494164 
L 124.492952 104.494164 
z
" clip-path="url(#pfdc87d8648)" style="fill: #e1812c"/>
   </g>
   <g id="patch_51">
    <path d="M 133.649875 104.494164 
L 140.975413 104.494164 
L 140.975413 104.494164 
L 133.649875 104.494164 
z
" clip-path="url(#pfdc87d8648)" style="fill: #e1812c"/>
   </g>
   <g id="patch_52">
    <path d="M 142.806798 104.494164 
L 150.132337 104.494164 
L 150.132337 104.494164 
L 142.806798 104.494164 
z
" clip-path="url(#pfdc87d8648)" style="fill: #e1812c"/>
   </g>
   <g id="patch_53">
    <path d="M 151.963721 104.494164 
L 159.28926 104.494164 
L 159.28926 111.986192 
L 151.963721 111.986192 
z
" clip-path="url(#pfdc87d8648)" style="fill: #e1812c"/>
   </g>
   <g id="patch_54">
    <path d="M 161.120644 104.494164 
L 168.446183 104.494164 
L 168.446183 104.494164 
L 161.120644 104.494164 
z
" clip-path="url(#pfdc87d8648)" style="fill: #e1812c"/>
   </g>
   <g id="patch_55">
    <path d="M 170.277567 104.494164 
L 177.603106 104.494164 
L 177.603106 104.494164 
L 170.277567 104.494164 
z
" clip-path="url(#pfdc87d8648)" style="fill: #e1812c"/>
   </g>
   <g id="patch_56">
    <path d="M 179.43449 104.494164 
L 186.760029 104.494164 
L 186.760029 108.240178 
L 179.43449 108.240178 
z
" clip-path="url(#pfdc87d8648)" style="fill: #e1812c"/>
   </g>
   <g id="patch_57">
    <path d="M 188.591413 104.494164 
L 195.916952 104.494164 
L 195.916952 104.494164 
L 188.591413 104.494164 
z
" clip-path="url(#pfdc87d8648)" style="fill: #e1812c"/>
   </g>
   <g id="patch_58">
    <path d="M 197.748337 104.494164 
L 205.073875 104.494164 
L 205.073875 104.494164 
L 197.748337 104.494164 
z
" clip-path="url(#pfdc87d8648)" style="fill: #e1812c"/>
   </g>
   <g id="patch_59">
    <path d="M 206.90526 104.494164 
L 214.230798 104.494164 
L 214.230798 108.240178 
L 206.90526 108.240178 
z
" clip-path="url(#pfdc87d8648)" style="fill: #e1812c"/>
   </g>
   <g id="patch_60">
    <path d="M 216.062183 104.494164 
L 223.387721 104.494164 
L 223.387721 104.494164 
L 216.062183 104.494164 
z
" clip-path="url(#pfdc87d8648)" style="fill: #e1812c"/>
   </g>
   <g id="patch_61">
    <path d="M 225.219106 104.494164 
L 232.544644 104.494164 
L 232.544644 111.986192 
L 225.219106 111.986192 
z
" clip-path="url(#pfdc87d8648)" style="fill: #e1812c"/>
   </g>
   <g id="patch_62">
    <path d="M 234.376029 104.494164 
L 241.701567 104.494164 
L 241.701567 104.494164 
L 234.376029 104.494164 
z
" clip-path="url(#pfdc87d8648)" style="fill: #e1812c"/>
   </g>
   <g id="patch_63">
    <path d="M 243.532952 104.494164 
L 250.85849 104.494164 
L 250.85849 111.986192 
L 243.532952 111.986192 
z
" clip-path="url(#pfdc87d8648)" style="fill: #e1812c"/>
   </g>
   <g id="patch_64">
    <path d="M 252.689875 104.494164 
L 260.015413 104.494164 
L 260.015413 111.986192 
L 252.689875 111.986192 
z
" clip-path="url(#pfdc87d8648)" style="fill: #e1812c"/>
   </g>
   <g id="patch_65">
    <path d="M 261.846798 104.494164 
L 269.172337 104.494164 
L 269.172337 104.494164 
L 261.846798 104.494164 
z
" clip-path="url(#pfdc87d8648)" style="fill: #e1812c"/>
   </g>
   <g id="patch_66">
    <path d="M 271.003721 104.494164 
L 278.32926 104.494164 
L 278.32926 111.986192 
L 271.003721 111.986192 
z
" clip-path="url(#pfdc87d8648)" style="fill: #e1812c"/>
   </g>
   <g id="patch_67">
    <path d="M 280.160644 104.494164 
L 287.486183 104.494164 
L 287.486183 108.240178 
L 280.160644 108.240178 
z
" clip-path="url(#pfdc87d8648)" style="fill: #e1812c"/>
   </g>
   <g id="patch_68">
    <path d="M 289.317567 104.494164 
L 296.643106 104.494164 
L 296.643106 104.494164 
L 289.317567 104.494164 
z
" clip-path="url(#pfdc87d8648)" style="fill: #e1812c"/>
   </g>
   <g id="patch_69">
    <path d="M 298.47449 104.494164 
L 305.800029 104.494164 
L 305.800029 111.986192 
L 298.47449 111.986192 
z
" clip-path="url(#pfdc87d8648)" style="fill: #e1812c"/>
   </g>
   <g id="patch_70">
    <path d="M 307.631413 104.494164 
L 314.956952 104.494164 
L 314.956952 104.494164 
L 307.631413 104.494164 
z
" clip-path="url(#pfdc87d8648)" style="fill: #e1812c"/>
   </g>
   <g id="patch_71">
    <path d="M 316.788337 104.494164 
L 324.113875 104.494164 
L 324.113875 126.970248 
L 316.788337 126.970248 
z
" clip-path="url(#pfdc87d8648)" style="fill: #e1812c"/>
   </g>
   <g id="patch_72">
    <path d="M 325.94526 104.494164 
L 333.270798 104.494164 
L 333.270798 104.494164 
L 325.94526 104.494164 
z
" clip-path="url(#pfdc87d8648)" style="fill: #e1812c"/>
   </g>
   <g id="patch_73">
    <path d="M 335.102183 104.494164 
L 342.427721 104.494164 
L 342.427721 104.494164 
L 335.102183 104.494164 
z
" clip-path="url(#pfdc87d8648)" style="fill: #e1812c"/>
   </g>
   <g id="patch_74">
    <path d="M 344.259106 104.494164 
L 351.584644 104.494164 
L 351.584644 111.986192 
L 344.259106 111.986192 
z
" clip-path="url(#pfdc87d8648)" style="fill: #e1812c"/>
   </g>
   <g id="patch_75">
    <path d="M 353.416029 104.494164 
L 360.741567 104.494164 
L 360.741567 119.47822 
L 353.416029 119.47822 
z
" clip-path="url(#pfdc87d8648)" style="fill: #e1812c"/>
   </g>
   <g id="patch_76">
    <path d="M 362.572952 104.494164 
L 369.89849 104.494164 
L 369.89849 126.970248 
L 362.572952 126.970248 
z
" clip-path="url(#pfdc87d8648)" style="fill: #e1812c"/>
   </g>
   <g id="patch_77">
    <path d="M 371.729875 104.494164 
L 379.055413 104.494164 
L 379.055413 108.240178 
L 371.729875 108.240178 
z
" clip-path="url(#pfdc87d8648)" style="fill: #e1812c"/>
   </g>
   <g id="patch_78">
    <path d="M 380.886798 104.494164 
L 388.212337 104.494164 
L 388.212337 108.240178 
L 380.886798 108.240178 
z
" clip-path="url(#pfdc87d8648)" style="fill: #e1812c"/>
   </g>
   <g id="patch_79">
    <path d="M 390.043721 104.494164 
L 397.36926 104.494164 
L 397.36926 104.494164 
L 390.043721 104.494164 
z
" clip-path="url(#pfdc87d8648)" style="fill: #e1812c"/>
   </g>
   <g id="patch_80">
    <path d="M 399.200644 104.494164 
L 406.526183 104.494164 
L 406.526183 108.240178 
L 399.200644 108.240178 
z
" clip-path="url(#pfdc87d8648)" style="fill: #e1812c"/>
   </g>
   <g id="matplotlib.axis_1"/>
   <g id="matplotlib.axis_2">
    <g id="ytick_1">
     <g id="line2d_1">
      <defs>
       <path id="mab6d03ab32" d="M 0 0 
L -3.5 0 
" style="stroke: #000000; stroke-width: 0.8"/>
      </defs>
      <g>
       <use xlink:href="#mab6d03ab32" x="50.321875" y="134.462276" style="stroke: #000000; stroke-width: 0.8"/>
      </g>
     </g>
     <g id="text_1">
      <!--   -8 -->
      <g transform="translate(7.2 140.200947) scale(0.15 -0.15)">
       <defs>
        <path id="DejaVuSansMono-20" transform="scale(0.015625)"/>
        <path id="DejaVuSansMono-2d" d="M 1113 2009 
L 2741 2009 
L 2741 1497 
L 1113 1497 
L 1113 2009 
z
" transform="scale(0.015625)"/>
        <path id="DejaVuSansMono-38" d="M 1925 2216 
Q 1503 2216 1273 1980 
Q 1044 1744 1044 1313 
Q 1044 881 1276 642 
Q 1509 403 1925 403 
Q 2350 403 2579 639 
Q 2809 875 2809 1313 
Q 2809 1741 2576 1978 
Q 2344 2216 1925 2216 
z
M 1375 2478 
Q 972 2581 745 2862 
Q 519 3144 519 3541 
Q 519 4097 897 4423 
Q 1275 4750 1925 4750 
Q 2578 4750 2956 4423 
Q 3334 4097 3334 3541 
Q 3334 3144 3107 2862 
Q 2881 2581 2478 2478 
Q 2947 2375 3195 2062 
Q 3444 1750 3444 1253 
Q 3444 622 3041 265 
Q 2638 -91 1925 -91 
Q 1213 -91 811 264 
Q 409 619 409 1247 
Q 409 1747 657 2061 
Q 906 2375 1375 2478 
z
M 1147 3481 
Q 1147 3106 1347 2909 
Q 1547 2713 1925 2713 
Q 2306 2713 2506 2909 
Q 2706 3106 2706 3481 
Q 2706 3863 2507 4063 
Q 2309 4263 1925 4263 
Q 1547 4263 1347 4061 
Q 1147 3859 1147 3481 
z
" transform="scale(0.015625)"/>
       </defs>
       <use xlink:href="#DejaVuSansMono-20"/>
       <use xlink:href="#DejaVuSansMono-20" x="60.205078"/>
       <use xlink:href="#DejaVuSansMono-2d" x="120.410156"/>
       <use xlink:href="#DejaVuSansMono-38" x="180.615234"/>
      </g>
     </g>
    </g>
    <g id="ytick_2">
     <g id="line2d_2">
      <g>
       <use xlink:href="#mab6d03ab32" x="50.321875" y="104.494164" style="stroke: #000000; stroke-width: 0.8"/>
      </g>
     </g>
     <g id="text_2">
      <!--    0 -->
      <g transform="translate(7.2 110.232836) scale(0.15 -0.15)">
       <defs>
        <path id="DejaVuSansMono-30" d="M 1509 2344 
Q 1509 2516 1629 2641 
Q 1750 2766 1919 2766 
Q 2094 2766 2219 2641 
Q 2344 2516 2344 2344 
Q 2344 2169 2220 2047 
Q 2097 1925 1919 1925 
Q 1744 1925 1626 2044 
Q 1509 2163 1509 2344 
z
M 1925 4250 
Q 1484 4250 1267 3775 
Q 1050 3300 1050 2328 
Q 1050 1359 1267 884 
Q 1484 409 1925 409 
Q 2369 409 2586 884 
Q 2803 1359 2803 2328 
Q 2803 3300 2586 3775 
Q 2369 4250 1925 4250 
z
M 1925 4750 
Q 2672 4750 3055 4137 
Q 3438 3525 3438 2328 
Q 3438 1134 3055 521 
Q 2672 -91 1925 -91 
Q 1178 -91 797 521 
Q 416 1134 416 2328 
Q 416 3525 797 4137 
Q 1178 4750 1925 4750 
z
" transform="scale(0.015625)"/>
       </defs>
       <use xlink:href="#DejaVuSansMono-20"/>
       <use xlink:href="#DejaVuSansMono-20" x="60.205078"/>
       <use xlink:href="#DejaVuSansMono-20" x="120.410156"/>
       <use xlink:href="#DejaVuSansMono-30" x="180.615234"/>
      </g>
     </g>
    </g>
    <g id="ytick_3">
     <g id="line2d_3">
      <g>
       <use xlink:href="#mab6d03ab32" x="50.321875" y="37.065912" style="stroke: #000000; stroke-width: 0.8"/>
      </g>
     </g>
     <g id="text_3">
      <!--   18 -->
      <g transform="translate(7.2 42.804584) scale(0.15 -0.15)">
       <defs>
        <path id="DejaVuSansMono-31" d="M 844 531 
L 1825 531 
L 1825 4097 
L 769 3859 
L 769 4434 
L 1819 4666 
L 2450 4666 
L 2450 531 
L 3419 531 
L 3419 0 
L 844 0 
L 844 531 
z
" transform="scale(0.015625)"/>
       </defs>
       <use xlink:href="#DejaVuSansMono-20"/>
       <use xlink:href="#DejaVuSansMono-20" x="60.205078"/>
       <use xlink:href="#DejaVuSansMono-31" x="120.410156"/>
       <use xlink:href="#DejaVuSansMono-38" x="180.615234"/>
      </g>
     </g>
    </g>
   </g>
   <g id="line2d_4">
    <path clip-path="url(#pfdc87d8648)" style="fill: none; stroke: #424242; stroke-width: 2.7; stroke-linecap: square"/>
   </g>
   <g id="line2d_5">
    <path clip-path="url(#pfdc87d8648)" style="fill: none; stroke: #424242; stroke-width: 2.7; stroke-linecap: square"/>
   </g>
   <g id="line2d_6">
    <path clip-path="url(#pfdc87d8648)" style="fill: none; stroke: #424242; stroke-width: 2.7; stroke-linecap: square"/>
   </g>
   <g id="line2d_7">
    <path clip-path="url(#pfdc87d8648)" style="fill: none; stroke: #424242; stroke-width: 2.7; stroke-linecap: square"/>
   </g>
   <g id="line2d_8">
    <path clip-path="url(#pfdc87d8648)" style="fill: none; stroke: #424242; stroke-width: 2.7; stroke-linecap: square"/>
   </g>
   <g id="line2d_9">
    <path clip-path="url(#pfdc87d8648)" style="fill: none; stroke: #424242; stroke-width: 2.7; stroke-linecap: square"/>
   </g>
   <g id="line2d_10">
    <path clip-path="url(#pfdc87d8648)" style="fill: none; stroke: #424242; stroke-width: 2.7; stroke-linecap: square"/>
   </g>
   <g id="line2d_11">
    <path clip-path="url(#pfdc87d8648)" style="fill: none; stroke: #424242; stroke-width: 2.7; stroke-linecap: square"/>
   </g>
   <g id="line2d_12">
    <path clip-path="url(#pfdc87d8648)" style="fill: none; stroke: #424242; stroke-width: 2.7; stroke-linecap: square"/>
   </g>
   <g id="line2d_13">
    <path clip-path="url(#pfdc87d8648)" style="fill: none; stroke: #424242; stroke-width: 2.7; stroke-linecap: square"/>
   </g>
   <g id="line2d_14">
    <path clip-path="url(#pfdc87d8648)" style="fill: none; stroke: #424242; stroke-width: 2.7; stroke-linecap: square"/>
   </g>
   <g id="line2d_15">
    <path clip-path="url(#pfdc87d8648)" style="fill: none; stroke: #424242; stroke-width: 2.7; stroke-linecap: square"/>
   </g>
   <g id="line2d_16">
    <path clip-path="url(#pfdc87d8648)" style="fill: none; stroke: #424242; stroke-width: 2.7; stroke-linecap: square"/>
   </g>
   <g id="line2d_17">
    <path clip-path="url(#pfdc87d8648)" style="fill: none; stroke: #424242; stroke-width: 2.7; stroke-linecap: square"/>
   </g>
   <g id="line2d_18">
    <path clip-path="url(#pfdc87d8648)" style="fill: none; stroke: #424242; stroke-width: 2.7; stroke-linecap: square"/>
   </g>
   <g id="line2d_19">
    <path clip-path="url(#pfdc87d8648)" style="fill: none; stroke: #424242; stroke-width: 2.7; stroke-linecap: square"/>
   </g>
   <g id="line2d_20">
    <path clip-path="url(#pfdc87d8648)" style="fill: none; stroke: #424242; stroke-width: 2.7; stroke-linecap: square"/>
   </g>
   <g id="line2d_21">
    <path clip-path="url(#pfdc87d8648)" style="fill: none; stroke: #424242; stroke-width: 2.7; stroke-linecap: square"/>
   </g>
   <g id="line2d_22">
    <path clip-path="url(#pfdc87d8648)" style="fill: none; stroke: #424242; stroke-width: 2.7; stroke-linecap: square"/>
   </g>
   <g id="line2d_23">
    <path clip-path="url(#pfdc87d8648)" style="fill: none; stroke: #424242; stroke-width: 2.7; stroke-linecap: square"/>
   </g>
   <g id="line2d_24">
    <path clip-path="url(#pfdc87d8648)" style="fill: none; stroke: #424242; stroke-width: 2.7; stroke-linecap: square"/>
   </g>
   <g id="line2d_25">
    <path clip-path="url(#pfdc87d8648)" style="fill: none; stroke: #424242; stroke-width: 2.7; stroke-linecap: square"/>
   </g>
   <g id="line2d_26">
    <path clip-path="url(#pfdc87d8648)" style="fill: none; stroke: #424242; stroke-width: 2.7; stroke-linecap: square"/>
   </g>
   <g id="line2d_27">
    <path clip-path="url(#pfdc87d8648)" style="fill: none; stroke: #424242; stroke-width: 2.7; stroke-linecap: square"/>
   </g>
   <g id="line2d_28">
    <path clip-path="url(#pfdc87d8648)" style="fill: none; stroke: #424242; stroke-width: 2.7; stroke-linecap: square"/>
   </g>
   <g id="line2d_29">
    <path clip-path="url(#pfdc87d8648)" style="fill: none; stroke: #424242; stroke-width: 2.7; stroke-linecap: square"/>
   </g>
   <g id="line2d_30">
    <path clip-path="url(#pfdc87d8648)" style="fill: none; stroke: #424242; stroke-width: 2.7; stroke-linecap: square"/>
   </g>
   <g id="line2d_31">
    <path clip-path="url(#pfdc87d8648)" style="fill: none; stroke: #424242; stroke-width: 2.7; stroke-linecap: square"/>
   </g>
   <g id="line2d_32">
    <path clip-path="url(#pfdc87d8648)" style="fill: none; stroke: #424242; stroke-width: 2.7; stroke-linecap: square"/>
   </g>
   <g id="line2d_33">
    <path clip-path="url(#pfdc87d8648)" style="fill: none; stroke: #424242; stroke-width: 2.7; stroke-linecap: square"/>
   </g>
   <g id="line2d_34">
    <path clip-path="url(#pfdc87d8648)" style="fill: none; stroke: #424242; stroke-width: 2.7; stroke-linecap: square"/>
   </g>
   <g id="line2d_35">
    <path clip-path="url(#pfdc87d8648)" style="fill: none; stroke: #424242; stroke-width: 2.7; stroke-linecap: square"/>
   </g>
   <g id="line2d_36">
    <path clip-path="url(#pfdc87d8648)" style="fill: none; stroke: #424242; stroke-width: 2.7; stroke-linecap: square"/>
   </g>
   <g id="line2d_37">
    <path clip-path="url(#pfdc87d8648)" style="fill: none; stroke: #424242; stroke-width: 2.7; stroke-linecap: square"/>
   </g>
   <g id="line2d_38">
    <path clip-path="url(#pfdc87d8648)" style="fill: none; stroke: #424242; stroke-width: 2.7; stroke-linecap: square"/>
   </g>
   <g id="line2d_39">
    <path clip-path="url(#pfdc87d8648)" style="fill: none; stroke: #424242; stroke-width: 2.7; stroke-linecap: square"/>
   </g>
   <g id="line2d_40">
    <path clip-path="url(#pfdc87d8648)" style="fill: none; stroke: #424242; stroke-width: 2.7; stroke-linecap: square"/>
   </g>
   <g id="line2d_41">
    <path clip-path="url(#pfdc87d8648)" style="fill: none; stroke: #424242; stroke-width: 2.7; stroke-linecap: square"/>
   </g>
   <g id="line2d_42">
    <path clip-path="url(#pfdc87d8648)" style="fill: none; stroke: #424242; stroke-width: 2.7; stroke-linecap: square"/>
   </g>
   <g id="line2d_43">
    <path clip-path="url(#pfdc87d8648)" style="fill: none; stroke: #424242; stroke-width: 2.7; stroke-linecap: square"/>
   </g>
   <g id="line2d_44">
    <path clip-path="url(#pfdc87d8648)" style="fill: none; stroke: #424242; stroke-width: 2.7; stroke-linecap: square"/>
   </g>
   <g id="line2d_45">
    <path clip-path="url(#pfdc87d8648)" style="fill: none; stroke: #424242; stroke-width: 2.7; stroke-linecap: square"/>
   </g>
   <g id="line2d_46">
    <path clip-path="url(#pfdc87d8648)" style="fill: none; stroke: #424242; stroke-width: 2.7; stroke-linecap: square"/>
   </g>
   <g id="line2d_47">
    <path clip-path="url(#pfdc87d8648)" style="fill: none; stroke: #424242; stroke-width: 2.7; stroke-linecap: square"/>
   </g>
   <g id="line2d_48">
    <path clip-path="url(#pfdc87d8648)" style="fill: none; stroke: #424242; stroke-width: 2.7; stroke-linecap: square"/>
   </g>
   <g id="line2d_49">
    <path clip-path="url(#pfdc87d8648)" style="fill: none; stroke: #424242; stroke-width: 2.7; stroke-linecap: square"/>
   </g>
   <g id="line2d_50">
    <path clip-path="url(#pfdc87d8648)" style="fill: none; stroke: #424242; stroke-width: 2.7; stroke-linecap: square"/>
   </g>
   <g id="line2d_51">
    <path clip-path="url(#pfdc87d8648)" style="fill: none; stroke: #424242; stroke-width: 2.7; stroke-linecap: square"/>
   </g>
   <g id="line2d_52">
    <path clip-path="url(#pfdc87d8648)" style="fill: none; stroke: #424242; stroke-width: 2.7; stroke-linecap: square"/>
   </g>
   <g id="line2d_53">
    <path clip-path="url(#pfdc87d8648)" style="fill: none; stroke: #424242; stroke-width: 2.7; stroke-linecap: square"/>
   </g>
   <g id="line2d_54">
    <path clip-path="url(#pfdc87d8648)" style="fill: none; stroke: #424242; stroke-width: 2.7; stroke-linecap: square"/>
   </g>
   <g id="line2d_55">
    <path clip-path="url(#pfdc87d8648)" style="fill: none; stroke: #424242; stroke-width: 2.7; stroke-linecap: square"/>
   </g>
   <g id="line2d_56">
    <path clip-path="url(#pfdc87d8648)" style="fill: none; stroke: #424242; stroke-width: 2.7; stroke-linecap: square"/>
   </g>
   <g id="line2d_57">
    <path clip-path="url(#pfdc87d8648)" style="fill: none; stroke: #424242; stroke-width: 2.7; stroke-linecap: square"/>
   </g>
   <g id="line2d_58">
    <path clip-path="url(#pfdc87d8648)" style="fill: none; stroke: #424242; stroke-width: 2.7; stroke-linecap: square"/>
   </g>
   <g id="line2d_59">
    <path clip-path="url(#pfdc87d8648)" style="fill: none; stroke: #424242; stroke-width: 2.7; stroke-linecap: square"/>
   </g>
   <g id="line2d_60">
    <path clip-path="url(#pfdc87d8648)" style="fill: none; stroke: #424242; stroke-width: 2.7; stroke-linecap: square"/>
   </g>
   <g id="line2d_61">
    <path clip-path="url(#pfdc87d8648)" style="fill: none; stroke: #424242; stroke-width: 2.7; stroke-linecap: square"/>
   </g>
   <g id="line2d_62">
    <path clip-path="url(#pfdc87d8648)" style="fill: none; stroke: #424242; stroke-width: 2.7; stroke-linecap: square"/>
   </g>
   <g id="line2d_63">
    <path clip-path="url(#pfdc87d8648)" style="fill: none; stroke: #424242; stroke-width: 2.7; stroke-linecap: square"/>
   </g>
   <g id="line2d_64">
    <path clip-path="url(#pfdc87d8648)" style="fill: none; stroke: #424242; stroke-width: 2.7; stroke-linecap: square"/>
   </g>
   <g id="line2d_65">
    <path clip-path="url(#pfdc87d8648)" style="fill: none; stroke: #424242; stroke-width: 2.7; stroke-linecap: square"/>
   </g>
   <g id="line2d_66">
    <path clip-path="url(#pfdc87d8648)" style="fill: none; stroke: #424242; stroke-width: 2.7; stroke-linecap: square"/>
   </g>
   <g id="line2d_67">
    <path clip-path="url(#pfdc87d8648)" style="fill: none; stroke: #424242; stroke-width: 2.7; stroke-linecap: square"/>
   </g>
   <g id="line2d_68">
    <path clip-path="url(#pfdc87d8648)" style="fill: none; stroke: #424242; stroke-width: 2.7; stroke-linecap: square"/>
   </g>
   <g id="line2d_69">
    <path clip-path="url(#pfdc87d8648)" style="fill: none; stroke: #424242; stroke-width: 2.7; stroke-linecap: square"/>
   </g>
   <g id="line2d_70">
    <path clip-path="url(#pfdc87d8648)" style="fill: none; stroke: #424242; stroke-width: 2.7; stroke-linecap: square"/>
   </g>
   <g id="line2d_71">
    <path clip-path="url(#pfdc87d8648)" style="fill: none; stroke: #424242; stroke-width: 2.7; stroke-linecap: square"/>
   </g>
   <g id="line2d_72">
    <path clip-path="url(#pfdc87d8648)" style="fill: none; stroke: #424242; stroke-width: 2.7; stroke-linecap: square"/>
   </g>
   <g id="line2d_73">
    <path clip-path="url(#pfdc87d8648)" style="fill: none; stroke: #424242; stroke-width: 2.7; stroke-linecap: square"/>
   </g>
   <g id="line2d_74">
    <path clip-path="url(#pfdc87d8648)" style="fill: none; stroke: #424242; stroke-width: 2.7; stroke-linecap: square"/>
   </g>
   <g id="line2d_75">
    <path clip-path="url(#pfdc87d8648)" style="fill: none; stroke: #424242; stroke-width: 2.7; stroke-linecap: square"/>
   </g>
   <g id="line2d_76">
    <path clip-path="url(#pfdc87d8648)" style="fill: none; stroke: #424242; stroke-width: 2.7; stroke-linecap: square"/>
   </g>
   <g id="line2d_77">
    <path clip-path="url(#pfdc87d8648)" style="fill: none; stroke: #424242; stroke-width: 2.7; stroke-linecap: square"/>
   </g>
   <g id="line2d_78">
    <path clip-path="url(#pfdc87d8648)" style="fill: none; stroke: #424242; stroke-width: 2.7; stroke-linecap: square"/>
   </g>
   <g id="line2d_79">
    <path clip-path="url(#pfdc87d8648)" style="fill: none; stroke: #424242; stroke-width: 2.7; stroke-linecap: square"/>
   </g>
   <g id="line2d_80">
    <path clip-path="url(#pfdc87d8648)" style="fill: none; stroke: #424242; stroke-width: 2.7; stroke-linecap: square"/>
   </g>
   <g id="line2d_81">
    <path clip-path="url(#pfdc87d8648)" style="fill: none; stroke: #424242; stroke-width: 2.7; stroke-linecap: square"/>
   </g>
   <g id="patch_81">
    <path d="M 50.321875 139.332094 
L 50.321875 32.196094 
" style="fill: none; stroke: #000000; stroke-width: 0.8; stroke-linejoin: miter; stroke-linecap: square"/>
   </g>
   <g id="patch_82">
    <path d="M 407.441875 139.332094 
L 407.441875 32.196094 
" style="fill: none; stroke: #000000; stroke-width: 0.8; stroke-linejoin: miter; stroke-linecap: square"/>
   </g>
   <g id="patch_83">
    <path d="M 50.321875 139.332094 
L 407.441875 139.332094 
" style="fill: none; stroke: #000000; stroke-width: 0.8; stroke-linejoin: miter; stroke-linecap: square"/>
   </g>
   <g id="patch_84">
    <path d="M 50.321875 32.196094 
L 407.441875 32.196094 
" style="fill: none; stroke: #000000; stroke-width: 0.8; stroke-linejoin: miter; stroke-linecap: square"/>
   </g>
   <g id="text_4">
    <!-- opus -->
    <g transform="translate(198.864297 26.196094) scale(0.25 -0.25)">
     <defs>
      <path id="DejaVuSans-6f" d="M 1959 3097 
Q 1497 3097 1228 2736 
Q 959 2375 959 1747 
Q 959 1119 1226 758 
Q 1494 397 1959 397 
Q 2419 397 2687 759 
Q 2956 1122 2956 1747 
Q 2956 2369 2687 2733 
Q 2419 3097 1959 3097 
z
M 1959 3584 
Q 2709 3584 3137 3096 
Q 3566 2609 3566 1747 
Q 3566 888 3137 398 
Q 2709 -91 1959 -91 
Q 1206 -91 779 398 
Q 353 888 353 1747 
Q 353 2609 779 3096 
Q 1206 3584 1959 3584 
z
" transform="scale(0.015625)"/>
      <path id="DejaVuSans-70" d="M 1159 525 
L 1159 -1331 
L 581 -1331 
L 581 3500 
L 1159 3500 
L 1159 2969 
Q 1341 3281 1617 3432 
Q 1894 3584 2278 3584 
Q 2916 3584 3314 3078 
Q 3713 2572 3713 1747 
Q 3713 922 3314 415 
Q 2916 -91 2278 -91 
Q 1894 -91 1617 61 
Q 1341 213 1159 525 
z
M 3116 1747 
Q 3116 2381 2855 2742 
Q 2594 3103 2138 3103 
Q 1681 3103 1420 2742 
Q 1159 2381 1159 1747 
Q 1159 1113 1420 752 
Q 1681 391 2138 391 
Q 2594 391 2855 752 
Q 3116 1113 3116 1747 
z
" transform="scale(0.015625)"/>
      <path id="DejaVuSans-75" d="M 544 1381 
L 544 3500 
L 1119 3500 
L 1119 1403 
Q 1119 906 1312 657 
Q 1506 409 1894 409 
Q 2359 409 2629 706 
Q 2900 1003 2900 1516 
L 2900 3500 
L 3475 3500 
L 3475 0 
L 2900 0 
L 2900 538 
Q 2691 219 2414 64 
Q 2138 -91 1772 -91 
Q 1169 -91 856 284 
Q 544 659 544 1381 
z
M 1991 3584 
L 1991 3584 
z
" transform="scale(0.015625)"/>
      <path id="DejaVuSans-73" d="M 2834 3397 
L 2834 2853 
Q 2591 2978 2328 3040 
Q 2066 3103 1784 3103 
Q 1356 3103 1142 2972 
Q 928 2841 928 2578 
Q 928 2378 1081 2264 
Q 1234 2150 1697 2047 
L 1894 2003 
Q 2506 1872 2764 1633 
Q 3022 1394 3022 966 
Q 3022 478 2636 193 
Q 2250 -91 1575 -91 
Q 1294 -91 989 -36 
Q 684 19 347 128 
L 347 722 
Q 666 556 975 473 
Q 1284 391 1588 391 
Q 1994 391 2212 530 
Q 2431 669 2431 922 
Q 2431 1156 2273 1281 
Q 2116 1406 1581 1522 
L 1381 1569 
Q 847 1681 609 1914 
Q 372 2147 372 2553 
Q 372 3047 722 3315 
Q 1072 3584 1716 3584 
Q 2034 3584 2315 3537 
Q 2597 3491 2834 3397 
z
" transform="scale(0.015625)"/>
     </defs>
     <use xlink:href="#DejaVuSans-6f"/>
     <use xlink:href="#DejaVuSans-70" x="61.181641"/>
     <use xlink:href="#DejaVuSans-75" x="124.658203"/>
     <use xlink:href="#DejaVuSans-73" x="188.037109"/>
    </g>
   </g>
  </g>
 </g>
 <defs>
  <clipPath id="pfdc87d8648">
   <rect x="50.321875" y="32.196094" width="357.12" height="107.136"/>
  </clipPath>
 </defs>
</svg>
