<?xml version="1.0" encoding="utf-8" standalone="no"?>
<!DOCTYPE svg PUBLIC "-//W3C//DTD SVG 1.1//EN"
  "http://www.w3.org/Graphics/SVG/1.1/DTD/svg11.dtd">
<svg xmlns:xlink="http://www.w3.org/1999/xlink" width="440.47375pt" height="438.513437pt" viewBox="0 0 440.47375 438.513437" xmlns="http://www.w3.org/2000/svg" version="1.1">
 <metadata>
  <rdf:RDF xmlns:dc="http://purl.org/dc/elements/1.1/" xmlns:cc="http://creativecommons.org/ns#" xmlns:rdf="http://www.w3.org/1999/02/22-rdf-syntax-ns#">
   <cc:Work>
    <dc:type rdf:resource="http://purl.org/dc/dcmitype/StillImage"/>
    <dc:date>2022-02-23T14:19:41.837955</dc:date>
    <dc:format>image/svg+xml</dc:format>
    <dc:creator>
     <cc:Agent>
      <dc:title>Matplotlib v3.5.1, https://matplotlib.org/</dc:title>
     </cc:Agent>
    </dc:creator>
   </cc:Work>
  </rdf:RDF>
 </metadata>
 <defs>
  <style type="text/css">*{stroke-linejoin: round; stroke-linecap: butt}</style>
 </defs>
 <g id="figure_1">
  <g id="patch_1">
   <path d="M 0 438.513437 
L 440.47375 438.513437 
L 440.47375 0 
L 0 0 
z
" style="fill: #ffffff"/>
  </g>
  <g id="axes_1">
   <g id="patch_2">
    <path d="M 56.64375 386.44 
L 368.708607 386.44 
L 368.708607 72.212571 
L 56.64375 72.212571 
z
" style="fill: #ffffff"/>
   </g>
   <g id="PathCollection_1">
    <defs>
     <path id="m6e15cfcc79" d="M 0 4.330127 
C 1.148363 4.330127 2.249847 3.873878 3.061862 3.061862 
C 3.873878 2.249847 4.330127 1.148363 4.330127 0 
C 4.330127 -1.148363 3.873878 -2.249847 3.061862 -3.061862 
C 2.249847 -3.873878 1.148363 -4.330127 0 -4.330127 
C -1.148363 -4.330127 -2.249847 -3.873878 -3.061862 -3.061862 
C -3.873878 -2.249847 -4.330127 -1.148363 -4.330127 0 
C -4.330127 1.148363 -3.873878 2.249847 -3.061862 3.061862 
C -2.249847 3.873878 -1.148363 4.330127 0 4.330127 
z
" style="stroke: #ffffff; stroke-opacity: 0.5; stroke-width: 0.69282"/>
    </defs>
    <g clip-path="url(#p78635d3d3b)">
     <use xlink:href="#m6e15cfcc79" x="71.561579" y="180.22825" style="fill: #1f77b4; fill-opacity: 0.5; stroke: #ffffff; stroke-opacity: 0.5; stroke-width: 0.69282"/>
     <use xlink:href="#m6e15cfcc79" x="70.828516" y="189.155166" style="fill: #1f77b4; fill-opacity: 0.5; stroke: #ffffff; stroke-opacity: 0.5; stroke-width: 0.69282"/>
     <use xlink:href="#m6e15cfcc79" x="70.828516" y="291.814695" style="fill: #1f77b4; fill-opacity: 0.5; stroke: #ffffff; stroke-opacity: 0.5; stroke-width: 0.69282"/>
     <use xlink:href="#m6e15cfcc79" x="70.828516" y="300.74161" style="fill: #1f77b4; fill-opacity: 0.5; stroke: #ffffff; stroke-opacity: 0.5; stroke-width: 0.69282"/>
     <use xlink:href="#m6e15cfcc79" x="70.828516" y="336.449273" style="fill: #1f77b4; fill-opacity: 0.5; stroke: #ffffff; stroke-opacity: 0.5; stroke-width: 0.69282"/>
     <use xlink:href="#m6e15cfcc79" x="70.828516" y="256.107032" style="fill: #1f77b4; fill-opacity: 0.5; stroke: #ffffff; stroke-opacity: 0.5; stroke-width: 0.69282"/>
     <use xlink:href="#m6e15cfcc79" x="70.828516" y="372.156935" style="fill: #1f77b4; fill-opacity: 0.5; stroke: #ffffff; stroke-opacity: 0.5; stroke-width: 0.69282"/>
     <use xlink:href="#m6e15cfcc79" x="70.828516" y="331.985815" style="fill: #1f77b4; fill-opacity: 0.5; stroke: #ffffff; stroke-opacity: 0.5; stroke-width: 0.69282"/>
     <use xlink:href="#m6e15cfcc79" x="70.828516" y="291.814695" style="fill: #1f77b4; fill-opacity: 0.5; stroke: #ffffff; stroke-opacity: 0.5; stroke-width: 0.69282"/>
     <use xlink:href="#m6e15cfcc79" x="70.828516" y="273.960864" style="fill: #1f77b4; fill-opacity: 0.5; stroke: #ffffff; stroke-opacity: 0.5; stroke-width: 0.69282"/>
     <use xlink:href="#m6e15cfcc79" x="70.828516" y="193.618623" style="fill: #1f77b4; fill-opacity: 0.5; stroke: #ffffff; stroke-opacity: 0.5; stroke-width: 0.69282"/>
     <use xlink:href="#m6e15cfcc79" x="73.027705" y="131.130214" style="fill: #1f77b4; fill-opacity: 0.5; stroke: #ffffff; stroke-opacity: 0.5; stroke-width: 0.69282"/>
     <use xlink:href="#m6e15cfcc79" x="70.828516" y="287.351237" style="fill: #1f77b4; fill-opacity: 0.5; stroke: #ffffff; stroke-opacity: 0.5; stroke-width: 0.69282"/>
     <use xlink:href="#m6e15cfcc79" x="94.286528" y="135.593672" style="fill: #1f77b4; fill-opacity: 0.5; stroke: #ffffff; stroke-opacity: 0.5; stroke-width: 0.69282"/>
     <use xlink:href="#m6e15cfcc79" x="354.523841" y="86.495636" style="fill: #1f77b4; fill-opacity: 0.5; stroke: #ffffff; stroke-opacity: 0.5; stroke-width: 0.69282"/>
     <use xlink:href="#m6e15cfcc79" x="70.828516" y="305.205068" style="fill: #1f77b4; fill-opacity: 0.5; stroke: #ffffff; stroke-opacity: 0.5; stroke-width: 0.69282"/>
     <use xlink:href="#m6e15cfcc79" x="70.828516" y="309.668526" style="fill: #1f77b4; fill-opacity: 0.5; stroke: #ffffff; stroke-opacity: 0.5; stroke-width: 0.69282"/>
     <use xlink:href="#m6e15cfcc79" x="72.294642" y="211.472455" style="fill: #1f77b4; fill-opacity: 0.5; stroke: #ffffff; stroke-opacity: 0.5; stroke-width: 0.69282"/>
     <use xlink:href="#m6e15cfcc79" x="70.828516" y="336.449273" style="fill: #1f77b4; fill-opacity: 0.5; stroke: #ffffff; stroke-opacity: 0.5; stroke-width: 0.69282"/>
     <use xlink:href="#m6e15cfcc79" x="72.294642" y="148.984045" style="fill: #1f77b4; fill-opacity: 0.5; stroke: #ffffff; stroke-opacity: 0.5; stroke-width: 0.69282"/>
     <use xlink:href="#m6e15cfcc79" x="71.928111" y="318.595442" style="fill: #1f77b4; fill-opacity: 0.5; stroke: #ffffff; stroke-opacity: 0.5; stroke-width: 0.69282"/>
     <use xlink:href="#m6e15cfcc79" x="71.928111" y="189.155166" style="fill: #1f77b4; fill-opacity: 0.5; stroke: #ffffff; stroke-opacity: 0.5; stroke-width: 0.69282"/>
     <use xlink:href="#m6e15cfcc79" x="90.254682" y="140.05713" style="fill: #1f77b4; fill-opacity: 0.5; stroke: #ffffff; stroke-opacity: 0.5; stroke-width: 0.69282"/>
     <use xlink:href="#m6e15cfcc79" x="70.828516" y="238.253201" style="fill: #1f77b4; fill-opacity: 0.5; stroke: #ffffff; stroke-opacity: 0.5; stroke-width: 0.69282"/>
     <use xlink:href="#m6e15cfcc79" x="70.828516" y="309.668526" style="fill: #1f77b4; fill-opacity: 0.5; stroke: #ffffff; stroke-opacity: 0.5; stroke-width: 0.69282"/>
     <use xlink:href="#m6e15cfcc79" x="77.426082" y="131.130214" style="fill: #1f77b4; fill-opacity: 0.5; stroke: #ffffff; stroke-opacity: 0.5; stroke-width: 0.69282"/>
     <use xlink:href="#m6e15cfcc79" x="70.828516" y="273.960864" style="fill: #1f77b4; fill-opacity: 0.5; stroke: #ffffff; stroke-opacity: 0.5; stroke-width: 0.69282"/>
     <use xlink:href="#m6e15cfcc79" x="92.820402" y="135.593672" style="fill: #1f77b4; fill-opacity: 0.5; stroke: #ffffff; stroke-opacity: 0.5; stroke-width: 0.69282"/>
     <use xlink:href="#m6e15cfcc79" x="71.195048" y="153.447503" style="fill: #1f77b4; fill-opacity: 0.5; stroke: #ffffff; stroke-opacity: 0.5; stroke-width: 0.69282"/>
     <use xlink:href="#m6e15cfcc79" x="70.828516" y="318.595442" style="fill: #1f77b4; fill-opacity: 0.5; stroke: #ffffff; stroke-opacity: 0.5; stroke-width: 0.69282"/>
     <use xlink:href="#m6e15cfcc79" x="70.828516" y="282.887779" style="fill: #1f77b4; fill-opacity: 0.5; stroke: #ffffff; stroke-opacity: 0.5; stroke-width: 0.69282"/>
     <use xlink:href="#m6e15cfcc79" x="73.027705" y="193.618623" style="fill: #1f77b4; fill-opacity: 0.5; stroke: #ffffff; stroke-opacity: 0.5; stroke-width: 0.69282"/>
     <use xlink:href="#m6e15cfcc79" x="77.792613" y="135.593672" style="fill: #1f77b4; fill-opacity: 0.5; stroke: #ffffff; stroke-opacity: 0.5; stroke-width: 0.69282"/>
     <use xlink:href="#m6e15cfcc79" x="71.195048" y="189.155166" style="fill: #1f77b4; fill-opacity: 0.5; stroke: #ffffff; stroke-opacity: 0.5; stroke-width: 0.69282"/>
     <use xlink:href="#m6e15cfcc79" x="71.561579" y="189.155166" style="fill: #1f77b4; fill-opacity: 0.5; stroke: #ffffff; stroke-opacity: 0.5; stroke-width: 0.69282"/>
     <use xlink:href="#m6e15cfcc79" x="70.828516" y="247.180117" style="fill: #1f77b4; fill-opacity: 0.5; stroke: #ffffff; stroke-opacity: 0.5; stroke-width: 0.69282"/>
    </g>
   </g>
   <g id="matplotlib.axis_1">
    <g id="xtick_1">
     <g id="line2d_1">
      <defs>
       <path id="m21fb9447c1" d="M 0 0 
L 0 3.5 
" style="stroke: #000000; stroke-width: 0.8"/>
      </defs>
      <g>
       <use xlink:href="#m21fb9447c1" x="70.461985" y="386.44" style="stroke: #000000; stroke-width: 0.8"/>
      </g>
     </g>
     <g id="text_1">
      <!-- 0 -->
      <g transform="translate(65.69011 404.837656)scale(0.15 -0.15)">
       <defs>
        <path id="DejaVuSans-30" d="M 2034 4250 
Q 1547 4250 1301 3770 
Q 1056 3291 1056 2328 
Q 1056 1369 1301 889 
Q 1547 409 2034 409 
Q 2525 409 2770 889 
Q 3016 1369 3016 2328 
Q 3016 3291 2770 3770 
Q 2525 4250 2034 4250 
z
M 2034 4750 
Q 2819 4750 3233 4129 
Q 3647 3509 3647 2328 
Q 3647 1150 3233 529 
Q 2819 -91 2034 -91 
Q 1250 -91 836 529 
Q 422 1150 422 2328 
Q 422 3509 836 4129 
Q 1250 4750 2034 4750 
z
" transform="scale(0.015625)"/>
       </defs>
       <use xlink:href="#DejaVuSans-30"/>
      </g>
     </g>
    </g>
    <g id="xtick_2">
     <g id="line2d_2">
      <g>
       <use xlink:href="#m21fb9447c1" x="143.76827" y="386.44" style="stroke: #000000; stroke-width: 0.8"/>
      </g>
     </g>
     <g id="text_2">
      <!-- 200 -->
      <g transform="translate(129.452645 404.837656)scale(0.15 -0.15)">
       <defs>
        <path id="DejaVuSans-32" d="M 1228 531 
L 3431 531 
L 3431 0 
L 469 0 
L 469 531 
Q 828 903 1448 1529 
Q 2069 2156 2228 2338 
Q 2531 2678 2651 2914 
Q 2772 3150 2772 3378 
Q 2772 3750 2511 3984 
Q 2250 4219 1831 4219 
Q 1534 4219 1204 4116 
Q 875 4013 500 3803 
L 500 4441 
Q 881 4594 1212 4672 
Q 1544 4750 1819 4750 
Q 2544 4750 2975 4387 
Q 3406 4025 3406 3419 
Q 3406 3131 3298 2873 
Q 3191 2616 2906 2266 
Q 2828 2175 2409 1742 
Q 1991 1309 1228 531 
z
" transform="scale(0.015625)"/>
       </defs>
       <use xlink:href="#DejaVuSans-32"/>
       <use xlink:href="#DejaVuSans-30" x="63.623047"/>
       <use xlink:href="#DejaVuSans-30" x="127.246094"/>
      </g>
     </g>
    </g>
    <g id="xtick_3">
     <g id="line2d_3">
      <g>
       <use xlink:href="#m21fb9447c1" x="217.074556" y="386.44" style="stroke: #000000; stroke-width: 0.8"/>
      </g>
     </g>
     <g id="text_3">
      <!-- 400 -->
      <g transform="translate(202.758931 404.837656)scale(0.15 -0.15)">
       <defs>
        <path id="DejaVuSans-34" d="M 2419 4116 
L 825 1625 
L 2419 1625 
L 2419 4116 
z
M 2253 4666 
L 3047 4666 
L 3047 1625 
L 3713 1625 
L 3713 1100 
L 3047 1100 
L 3047 0 
L 2419 0 
L 2419 1100 
L 313 1100 
L 313 1709 
L 2253 4666 
z
" transform="scale(0.015625)"/>
       </defs>
       <use xlink:href="#DejaVuSans-34"/>
       <use xlink:href="#DejaVuSans-30" x="63.623047"/>
       <use xlink:href="#DejaVuSans-30" x="127.246094"/>
      </g>
     </g>
    </g>
    <g id="xtick_4">
     <g id="line2d_4">
      <g>
       <use xlink:href="#m21fb9447c1" x="290.380841" y="386.44" style="stroke: #000000; stroke-width: 0.8"/>
      </g>
     </g>
     <g id="text_4">
      <!-- 600 -->
      <g transform="translate(276.065216 404.837656)scale(0.15 -0.15)">
       <defs>
        <path id="DejaVuSans-36" d="M 2113 2584 
Q 1688 2584 1439 2293 
Q 1191 2003 1191 1497 
Q 1191 994 1439 701 
Q 1688 409 2113 409 
Q 2538 409 2786 701 
Q 3034 994 3034 1497 
Q 3034 2003 2786 2293 
Q 2538 2584 2113 2584 
z
M 3366 4563 
L 3366 3988 
Q 3128 4100 2886 4159 
Q 2644 4219 2406 4219 
Q 1781 4219 1451 3797 
Q 1122 3375 1075 2522 
Q 1259 2794 1537 2939 
Q 1816 3084 2150 3084 
Q 2853 3084 3261 2657 
Q 3669 2231 3669 1497 
Q 3669 778 3244 343 
Q 2819 -91 2113 -91 
Q 1303 -91 875 529 
Q 447 1150 447 2328 
Q 447 3434 972 4092 
Q 1497 4750 2381 4750 
Q 2619 4750 2861 4703 
Q 3103 4656 3366 4563 
z
" transform="scale(0.015625)"/>
       </defs>
       <use xlink:href="#DejaVuSans-36"/>
       <use xlink:href="#DejaVuSans-30" x="63.623047"/>
       <use xlink:href="#DejaVuSans-30" x="127.246094"/>
      </g>
     </g>
    </g>
    <g id="xtick_5">
     <g id="line2d_5">
      <g>
       <use xlink:href="#m21fb9447c1" x="363.687127" y="386.44" style="stroke: #000000; stroke-width: 0.8"/>
      </g>
     </g>
     <g id="text_5">
      <!-- 800 -->
      <g transform="translate(349.371502 404.837656)scale(0.15 -0.15)">
       <defs>
        <path id="DejaVuSans-38" d="M 2034 2216 
Q 1584 2216 1326 1975 
Q 1069 1734 1069 1313 
Q 1069 891 1326 650 
Q 1584 409 2034 409 
Q 2484 409 2743 651 
Q 3003 894 3003 1313 
Q 3003 1734 2745 1975 
Q 2488 2216 2034 2216 
z
M 1403 2484 
Q 997 2584 770 2862 
Q 544 3141 544 3541 
Q 544 4100 942 4425 
Q 1341 4750 2034 4750 
Q 2731 4750 3128 4425 
Q 3525 4100 3525 3541 
Q 3525 3141 3298 2862 
Q 3072 2584 2669 2484 
Q 3125 2378 3379 2068 
Q 3634 1759 3634 1313 
Q 3634 634 3220 271 
Q 2806 -91 2034 -91 
Q 1263 -91 848 271 
Q 434 634 434 1313 
Q 434 1759 690 2068 
Q 947 2378 1403 2484 
z
M 1172 3481 
Q 1172 3119 1398 2916 
Q 1625 2713 2034 2713 
Q 2441 2713 2670 2916 
Q 2900 3119 2900 3481 
Q 2900 3844 2670 4047 
Q 2441 4250 2034 4250 
Q 1625 4250 1398 4047 
Q 1172 3844 1172 3481 
z
" transform="scale(0.015625)"/>
       </defs>
       <use xlink:href="#DejaVuSans-38"/>
       <use xlink:href="#DejaVuSans-30" x="63.623047"/>
       <use xlink:href="#DejaVuSans-30" x="127.246094"/>
      </g>
     </g>
    </g>
    <g id="text_6">
     <!-- # Commits -->
     <g transform="translate(156.627741 427.154062)scale(0.2 -0.2)">
      <defs>
       <path id="DejaVuSans-23" d="M 3272 2816 
L 2363 2816 
L 2100 1772 
L 3016 1772 
L 3272 2816 
z
M 2803 4594 
L 2478 3297 
L 3391 3297 
L 3719 4594 
L 4219 4594 
L 3897 3297 
L 4872 3297 
L 4872 2816 
L 3775 2816 
L 3519 1772 
L 4513 1772 
L 4513 1294 
L 3397 1294 
L 3072 0 
L 2572 0 
L 2894 1294 
L 1978 1294 
L 1656 0 
L 1153 0 
L 1478 1294 
L 494 1294 
L 494 1772 
L 1594 1772 
L 1856 2816 
L 850 2816 
L 850 3297 
L 1978 3297 
L 2297 4594 
L 2803 4594 
z
" transform="scale(0.015625)"/>
       <path id="DejaVuSans-20" transform="scale(0.015625)"/>
       <path id="DejaVuSans-43" d="M 4122 4306 
L 4122 3641 
Q 3803 3938 3442 4084 
Q 3081 4231 2675 4231 
Q 1875 4231 1450 3742 
Q 1025 3253 1025 2328 
Q 1025 1406 1450 917 
Q 1875 428 2675 428 
Q 3081 428 3442 575 
Q 3803 722 4122 1019 
L 4122 359 
Q 3791 134 3420 21 
Q 3050 -91 2638 -91 
Q 1578 -91 968 557 
Q 359 1206 359 2328 
Q 359 3453 968 4101 
Q 1578 4750 2638 4750 
Q 3056 4750 3426 4639 
Q 3797 4528 4122 4306 
z
" transform="scale(0.015625)"/>
       <path id="DejaVuSans-6f" d="M 1959 3097 
Q 1497 3097 1228 2736 
Q 959 2375 959 1747 
Q 959 1119 1226 758 
Q 1494 397 1959 397 
Q 2419 397 2687 759 
Q 2956 1122 2956 1747 
Q 2956 2369 2687 2733 
Q 2419 3097 1959 3097 
z
M 1959 3584 
Q 2709 3584 3137 3096 
Q 3566 2609 3566 1747 
Q 3566 888 3137 398 
Q 2709 -91 1959 -91 
Q 1206 -91 779 398 
Q 353 888 353 1747 
Q 353 2609 779 3096 
Q 1206 3584 1959 3584 
z
" transform="scale(0.015625)"/>
       <path id="DejaVuSans-6d" d="M 3328 2828 
Q 3544 3216 3844 3400 
Q 4144 3584 4550 3584 
Q 5097 3584 5394 3201 
Q 5691 2819 5691 2113 
L 5691 0 
L 5113 0 
L 5113 2094 
Q 5113 2597 4934 2840 
Q 4756 3084 4391 3084 
Q 3944 3084 3684 2787 
Q 3425 2491 3425 1978 
L 3425 0 
L 2847 0 
L 2847 2094 
Q 2847 2600 2669 2842 
Q 2491 3084 2119 3084 
Q 1678 3084 1418 2786 
Q 1159 2488 1159 1978 
L 1159 0 
L 581 0 
L 581 3500 
L 1159 3500 
L 1159 2956 
Q 1356 3278 1631 3431 
Q 1906 3584 2284 3584 
Q 2666 3584 2933 3390 
Q 3200 3197 3328 2828 
z
" transform="scale(0.015625)"/>
       <path id="DejaVuSans-69" d="M 603 3500 
L 1178 3500 
L 1178 0 
L 603 0 
L 603 3500 
z
M 603 4863 
L 1178 4863 
L 1178 4134 
L 603 4134 
L 603 4863 
z
" transform="scale(0.015625)"/>
       <path id="DejaVuSans-74" d="M 1172 4494 
L 1172 3500 
L 2356 3500 
L 2356 3053 
L 1172 3053 
L 1172 1153 
Q 1172 725 1289 603 
Q 1406 481 1766 481 
L 2356 481 
L 2356 0 
L 1766 0 
Q 1100 0 847 248 
Q 594 497 594 1153 
L 594 3053 
L 172 3053 
L 172 3500 
L 594 3500 
L 594 4494 
L 1172 4494 
z
" transform="scale(0.015625)"/>
       <path id="DejaVuSans-73" d="M 2834 3397 
L 2834 2853 
Q 2591 2978 2328 3040 
Q 2066 3103 1784 3103 
Q 1356 3103 1142 2972 
Q 928 2841 928 2578 
Q 928 2378 1081 2264 
Q 1234 2150 1697 2047 
L 1894 2003 
Q 2506 1872 2764 1633 
Q 3022 1394 3022 966 
Q 3022 478 2636 193 
Q 2250 -91 1575 -91 
Q 1294 -91 989 -36 
Q 684 19 347 128 
L 347 722 
Q 666 556 975 473 
Q 1284 391 1588 391 
Q 1994 391 2212 530 
Q 2431 669 2431 922 
Q 2431 1156 2273 1281 
Q 2116 1406 1581 1522 
L 1381 1569 
Q 847 1681 609 1914 
Q 372 2147 372 2553 
Q 372 3047 722 3315 
Q 1072 3584 1716 3584 
Q 2034 3584 2315 3537 
Q 2597 3491 2834 3397 
z
" transform="scale(0.015625)"/>
      </defs>
      <use xlink:href="#DejaVuSans-23"/>
      <use xlink:href="#DejaVuSans-20" x="83.789062"/>
      <use xlink:href="#DejaVuSans-43" x="115.576172"/>
      <use xlink:href="#DejaVuSans-6f" x="185.400391"/>
      <use xlink:href="#DejaVuSans-6d" x="246.582031"/>
      <use xlink:href="#DejaVuSans-6d" x="343.994141"/>
      <use xlink:href="#DejaVuSans-69" x="441.40625"/>
      <use xlink:href="#DejaVuSans-74" x="469.189453"/>
      <use xlink:href="#DejaVuSans-73" x="508.398438"/>
     </g>
    </g>
   </g>
   <g id="matplotlib.axis_2">
    <g id="ytick_1">
     <g id="line2d_6">
      <defs>
       <path id="m54c81a012e" d="M 0 0 
L -3.5 0 
" style="stroke: #000000; stroke-width: 0.8"/>
      </defs>
      <g>
       <use xlink:href="#m54c81a012e" x="56.64375" y="376.620393" style="stroke: #000000; stroke-width: 0.8"/>
      </g>
     </g>
     <g id="text_7">
      <!-- 0 -->
      <g transform="translate(40.1 382.319221)scale(0.15 -0.15)">
       <use xlink:href="#DejaVuSans-30"/>
      </g>
     </g>
    </g>
    <g id="ytick_2">
     <g id="line2d_7">
      <g>
       <use xlink:href="#m54c81a012e" x="56.64375" y="331.985815" style="stroke: #000000; stroke-width: 0.8"/>
      </g>
     </g>
     <g id="text_8">
      <!-- 10 -->
      <g transform="translate(30.55625 337.684643)scale(0.15 -0.15)">
       <defs>
        <path id="DejaVuSans-31" d="M 794 531 
L 1825 531 
L 1825 4091 
L 703 3866 
L 703 4441 
L 1819 4666 
L 2450 4666 
L 2450 531 
L 3481 531 
L 3481 0 
L 794 0 
L 794 531 
z
" transform="scale(0.015625)"/>
       </defs>
       <use xlink:href="#DejaVuSans-31"/>
       <use xlink:href="#DejaVuSans-30" x="63.623047"/>
      </g>
     </g>
    </g>
    <g id="ytick_3">
     <g id="line2d_8">
      <g>
       <use xlink:href="#m54c81a012e" x="56.64375" y="287.351237" style="stroke: #000000; stroke-width: 0.8"/>
      </g>
     </g>
     <g id="text_9">
      <!-- 20 -->
      <g transform="translate(30.55625 293.050065)scale(0.15 -0.15)">
       <use xlink:href="#DejaVuSans-32"/>
       <use xlink:href="#DejaVuSans-30" x="63.623047"/>
      </g>
     </g>
    </g>
    <g id="ytick_4">
     <g id="line2d_9">
      <g>
       <use xlink:href="#m54c81a012e" x="56.64375" y="242.716659" style="stroke: #000000; stroke-width: 0.8"/>
      </g>
     </g>
     <g id="text_10">
      <!-- 30 -->
      <g transform="translate(30.55625 248.415487)scale(0.15 -0.15)">
       <defs>
        <path id="DejaVuSans-33" d="M 2597 2516 
Q 3050 2419 3304 2112 
Q 3559 1806 3559 1356 
Q 3559 666 3084 287 
Q 2609 -91 1734 -91 
Q 1441 -91 1130 -33 
Q 819 25 488 141 
L 488 750 
Q 750 597 1062 519 
Q 1375 441 1716 441 
Q 2309 441 2620 675 
Q 2931 909 2931 1356 
Q 2931 1769 2642 2001 
Q 2353 2234 1838 2234 
L 1294 2234 
L 1294 2753 
L 1863 2753 
Q 2328 2753 2575 2939 
Q 2822 3125 2822 3475 
Q 2822 3834 2567 4026 
Q 2313 4219 1838 4219 
Q 1578 4219 1281 4162 
Q 984 4106 628 3988 
L 628 4550 
Q 988 4650 1302 4700 
Q 1616 4750 1894 4750 
Q 2613 4750 3031 4423 
Q 3450 4097 3450 3541 
Q 3450 3153 3228 2886 
Q 3006 2619 2597 2516 
z
" transform="scale(0.015625)"/>
       </defs>
       <use xlink:href="#DejaVuSans-33"/>
       <use xlink:href="#DejaVuSans-30" x="63.623047"/>
      </g>
     </g>
    </g>
    <g id="ytick_5">
     <g id="line2d_10">
      <g>
       <use xlink:href="#m54c81a012e" x="56.64375" y="198.082081" style="stroke: #000000; stroke-width: 0.8"/>
      </g>
     </g>
     <g id="text_11">
      <!-- 40 -->
      <g transform="translate(30.55625 203.780909)scale(0.15 -0.15)">
       <use xlink:href="#DejaVuSans-34"/>
       <use xlink:href="#DejaVuSans-30" x="63.623047"/>
      </g>
     </g>
    </g>
    <g id="ytick_6">
     <g id="line2d_11">
      <g>
       <use xlink:href="#m54c81a012e" x="56.64375" y="153.447503" style="stroke: #000000; stroke-width: 0.8"/>
      </g>
     </g>
     <g id="text_12">
      <!-- 50 -->
      <g transform="translate(30.55625 159.146331)scale(0.15 -0.15)">
       <defs>
        <path id="DejaVuSans-35" d="M 691 4666 
L 3169 4666 
L 3169 4134 
L 1269 4134 
L 1269 2991 
Q 1406 3038 1543 3061 
Q 1681 3084 1819 3084 
Q 2600 3084 3056 2656 
Q 3513 2228 3513 1497 
Q 3513 744 3044 326 
Q 2575 -91 1722 -91 
Q 1428 -91 1123 -41 
Q 819 9 494 109 
L 494 744 
Q 775 591 1075 516 
Q 1375 441 1709 441 
Q 2250 441 2565 725 
Q 2881 1009 2881 1497 
Q 2881 1984 2565 2268 
Q 2250 2553 1709 2553 
Q 1456 2553 1204 2497 
Q 953 2441 691 2322 
L 691 4666 
z
" transform="scale(0.015625)"/>
       </defs>
       <use xlink:href="#DejaVuSans-35"/>
       <use xlink:href="#DejaVuSans-30" x="63.623047"/>
      </g>
     </g>
    </g>
    <g id="ytick_7">
     <g id="line2d_12">
      <g>
       <use xlink:href="#m54c81a012e" x="56.64375" y="108.812925" style="stroke: #000000; stroke-width: 0.8"/>
      </g>
     </g>
     <g id="text_13">
      <!-- 60 -->
      <g transform="translate(30.55625 114.511753)scale(0.15 -0.15)">
       <use xlink:href="#DejaVuSans-36"/>
       <use xlink:href="#DejaVuSans-30" x="63.623047"/>
      </g>
     </g>
    </g>
    <g id="text_14">
     <!-- # Interacting authors -->
     <g transform="translate(22.396875 336.707536)rotate(-90)scale(0.2 -0.2)">
      <defs>
       <path id="DejaVuSans-49" d="M 628 4666 
L 1259 4666 
L 1259 0 
L 628 0 
L 628 4666 
z
" transform="scale(0.015625)"/>
       <path id="DejaVuSans-6e" d="M 3513 2113 
L 3513 0 
L 2938 0 
L 2938 2094 
Q 2938 2591 2744 2837 
Q 2550 3084 2163 3084 
Q 1697 3084 1428 2787 
Q 1159 2491 1159 1978 
L 1159 0 
L 581 0 
L 581 3500 
L 1159 3500 
L 1159 2956 
Q 1366 3272 1645 3428 
Q 1925 3584 2291 3584 
Q 2894 3584 3203 3211 
Q 3513 2838 3513 2113 
z
" transform="scale(0.015625)"/>
       <path id="DejaVuSans-65" d="M 3597 1894 
L 3597 1613 
L 953 1613 
Q 991 1019 1311 708 
Q 1631 397 2203 397 
Q 2534 397 2845 478 
Q 3156 559 3463 722 
L 3463 178 
Q 3153 47 2828 -22 
Q 2503 -91 2169 -91 
Q 1331 -91 842 396 
Q 353 884 353 1716 
Q 353 2575 817 3079 
Q 1281 3584 2069 3584 
Q 2775 3584 3186 3129 
Q 3597 2675 3597 1894 
z
M 3022 2063 
Q 3016 2534 2758 2815 
Q 2500 3097 2075 3097 
Q 1594 3097 1305 2825 
Q 1016 2553 972 2059 
L 3022 2063 
z
" transform="scale(0.015625)"/>
       <path id="DejaVuSans-72" d="M 2631 2963 
Q 2534 3019 2420 3045 
Q 2306 3072 2169 3072 
Q 1681 3072 1420 2755 
Q 1159 2438 1159 1844 
L 1159 0 
L 581 0 
L 581 3500 
L 1159 3500 
L 1159 2956 
Q 1341 3275 1631 3429 
Q 1922 3584 2338 3584 
Q 2397 3584 2469 3576 
Q 2541 3569 2628 3553 
L 2631 2963 
z
" transform="scale(0.015625)"/>
       <path id="DejaVuSans-61" d="M 2194 1759 
Q 1497 1759 1228 1600 
Q 959 1441 959 1056 
Q 959 750 1161 570 
Q 1363 391 1709 391 
Q 2188 391 2477 730 
Q 2766 1069 2766 1631 
L 2766 1759 
L 2194 1759 
z
M 3341 1997 
L 3341 0 
L 2766 0 
L 2766 531 
Q 2569 213 2275 61 
Q 1981 -91 1556 -91 
Q 1019 -91 701 211 
Q 384 513 384 1019 
Q 384 1609 779 1909 
Q 1175 2209 1959 2209 
L 2766 2209 
L 2766 2266 
Q 2766 2663 2505 2880 
Q 2244 3097 1772 3097 
Q 1472 3097 1187 3025 
Q 903 2953 641 2809 
L 641 3341 
Q 956 3463 1253 3523 
Q 1550 3584 1831 3584 
Q 2591 3584 2966 3190 
Q 3341 2797 3341 1997 
z
" transform="scale(0.015625)"/>
       <path id="DejaVuSans-63" d="M 3122 3366 
L 3122 2828 
Q 2878 2963 2633 3030 
Q 2388 3097 2138 3097 
Q 1578 3097 1268 2742 
Q 959 2388 959 1747 
Q 959 1106 1268 751 
Q 1578 397 2138 397 
Q 2388 397 2633 464 
Q 2878 531 3122 666 
L 3122 134 
Q 2881 22 2623 -34 
Q 2366 -91 2075 -91 
Q 1284 -91 818 406 
Q 353 903 353 1747 
Q 353 2603 823 3093 
Q 1294 3584 2113 3584 
Q 2378 3584 2631 3529 
Q 2884 3475 3122 3366 
z
" transform="scale(0.015625)"/>
       <path id="DejaVuSans-67" d="M 2906 1791 
Q 2906 2416 2648 2759 
Q 2391 3103 1925 3103 
Q 1463 3103 1205 2759 
Q 947 2416 947 1791 
Q 947 1169 1205 825 
Q 1463 481 1925 481 
Q 2391 481 2648 825 
Q 2906 1169 2906 1791 
z
M 3481 434 
Q 3481 -459 3084 -895 
Q 2688 -1331 1869 -1331 
Q 1566 -1331 1297 -1286 
Q 1028 -1241 775 -1147 
L 775 -588 
Q 1028 -725 1275 -790 
Q 1522 -856 1778 -856 
Q 2344 -856 2625 -561 
Q 2906 -266 2906 331 
L 2906 616 
Q 2728 306 2450 153 
Q 2172 0 1784 0 
Q 1141 0 747 490 
Q 353 981 353 1791 
Q 353 2603 747 3093 
Q 1141 3584 1784 3584 
Q 2172 3584 2450 3431 
Q 2728 3278 2906 2969 
L 2906 3500 
L 3481 3500 
L 3481 434 
z
" transform="scale(0.015625)"/>
       <path id="DejaVuSans-75" d="M 544 1381 
L 544 3500 
L 1119 3500 
L 1119 1403 
Q 1119 906 1312 657 
Q 1506 409 1894 409 
Q 2359 409 2629 706 
Q 2900 1003 2900 1516 
L 2900 3500 
L 3475 3500 
L 3475 0 
L 2900 0 
L 2900 538 
Q 2691 219 2414 64 
Q 2138 -91 1772 -91 
Q 1169 -91 856 284 
Q 544 659 544 1381 
z
M 1991 3584 
L 1991 3584 
z
" transform="scale(0.015625)"/>
       <path id="DejaVuSans-68" d="M 3513 2113 
L 3513 0 
L 2938 0 
L 2938 2094 
Q 2938 2591 2744 2837 
Q 2550 3084 2163 3084 
Q 1697 3084 1428 2787 
Q 1159 2491 1159 1978 
L 1159 0 
L 581 0 
L 581 4863 
L 1159 4863 
L 1159 2956 
Q 1366 3272 1645 3428 
Q 1925 3584 2291 3584 
Q 2894 3584 3203 3211 
Q 3513 2838 3513 2113 
z
" transform="scale(0.015625)"/>
      </defs>
      <use xlink:href="#DejaVuSans-23"/>
      <use xlink:href="#DejaVuSans-20" x="83.789062"/>
      <use xlink:href="#DejaVuSans-49" x="115.576172"/>
      <use xlink:href="#DejaVuSans-6e" x="145.068359"/>
      <use xlink:href="#DejaVuSans-74" x="208.447266"/>
      <use xlink:href="#DejaVuSans-65" x="247.65625"/>
      <use xlink:href="#DejaVuSans-72" x="309.179688"/>
      <use xlink:href="#DejaVuSans-61" x="350.292969"/>
      <use xlink:href="#DejaVuSans-63" x="411.572266"/>
      <use xlink:href="#DejaVuSans-74" x="466.552734"/>
      <use xlink:href="#DejaVuSans-69" x="505.761719"/>
      <use xlink:href="#DejaVuSans-6e" x="533.544922"/>
      <use xlink:href="#DejaVuSans-67" x="596.923828"/>
      <use xlink:href="#DejaVuSans-20" x="660.400391"/>
      <use xlink:href="#DejaVuSans-61" x="692.1875"/>
      <use xlink:href="#DejaVuSans-75" x="753.466797"/>
      <use xlink:href="#DejaVuSans-74" x="816.845703"/>
      <use xlink:href="#DejaVuSans-68" x="856.054688"/>
      <use xlink:href="#DejaVuSans-6f" x="919.433594"/>
      <use xlink:href="#DejaVuSans-72" x="980.615234"/>
      <use xlink:href="#DejaVuSans-73" x="1021.728516"/>
     </g>
    </g>
   </g>
   <g id="patch_3">
    <path d="M 56.64375 386.44 
L 56.64375 72.212571 
" style="fill: none; stroke: #000000; stroke-width: 0.8; stroke-linejoin: miter; stroke-linecap: square"/>
   </g>
   <g id="patch_4">
    <path d="M 56.64375 386.44 
L 368.708607 386.44 
" style="fill: none; stroke: #000000; stroke-width: 0.8; stroke-linejoin: miter; stroke-linecap: square"/>
   </g>
  </g>
  <g id="axes_2">
   <g id="patch_5">
    <path d="M 56.64375 61.377143 
L 368.708607 61.377143 
L 368.708607 7.2 
L 56.64375 7.2 
z
" style="fill: #ffffff"/>
   </g>
   <g id="PolyCollection_1">
    <defs>
     <path id="m32ffbeeeb0" d="M 1.611629 -377.634776 
L 1.611629 -377.136295 
L 3.732881 -377.136295 
L 5.854133 -377.136295 
L 7.975385 -377.136295 
L 10.096636 -377.136295 
L 12.217888 -377.136295 
L 14.33914 -377.136295 
L 16.460392 -377.136295 
L 18.581643 -377.136295 
L 20.702895 -377.136295 
L 22.824147 -377.136295 
L 24.945399 -377.136295 
L 27.06665 -377.136295 
L 29.187902 -377.136295 
L 31.309154 -377.136295 
L 33.430406 -377.136295 
L 35.551657 -377.136295 
L 37.672909 -377.136295 
L 39.794161 -377.136295 
L 41.915413 -377.136295 
L 44.036664 -377.136295 
L 46.157916 -377.136295 
L 48.279168 -377.136295 
L 50.40042 -377.136295 
L 52.521671 -377.136295 
L 54.642923 -377.136295 
L 56.764175 -377.136295 
L 58.885427 -377.136295 
L 61.006678 -377.136295 
L 63.12793 -377.136295 
L 65.249182 -377.136295 
L 67.370434 -377.136295 
L 69.491685 -377.136295 
L 71.612937 -377.136295 
L 73.734189 -377.136295 
L 75.855441 -377.136295 
L 77.976692 -377.136295 
L 80.097944 -377.136295 
L 82.219196 -377.136295 
L 84.340448 -377.136295 
L 86.461699 -377.136295 
L 88.582951 -377.136295 
L 90.704203 -377.136295 
L 92.825455 -377.136295 
L 94.946706 -377.136295 
L 97.067958 -377.136295 
L 99.18921 -377.136295 
L 101.310462 -377.136295 
L 103.431713 -377.136295 
L 105.552965 -377.136295 
L 107.674217 -377.136295 
L 109.795469 -377.136295 
L 111.91672 -377.136295 
L 114.037972 -377.136295 
L 116.159224 -377.136295 
L 118.280476 -377.136295 
L 120.401727 -377.136295 
L 122.522979 -377.136295 
L 124.644231 -377.136295 
L 126.765483 -377.136295 
L 128.886734 -377.136295 
L 131.007986 -377.136295 
L 133.129238 -377.136295 
L 135.25049 -377.136295 
L 137.371741 -377.136295 
L 139.492993 -377.136295 
L 141.614245 -377.136295 
L 143.735497 -377.136295 
L 145.856748 -377.136295 
L 147.978 -377.136295 
L 150.099252 -377.136295 
L 152.220504 -377.136295 
L 154.341755 -377.136295 
L 156.463007 -377.136295 
L 158.584259 -377.136295 
L 160.705511 -377.136295 
L 162.826762 -377.136295 
L 164.948014 -377.136295 
L 167.069266 -377.136295 
L 169.190518 -377.136295 
L 171.311769 -377.136295 
L 173.433021 -377.136295 
L 175.554273 -377.136295 
L 177.675525 -377.136295 
L 179.796776 -377.136295 
L 181.918028 -377.136295 
L 184.03928 -377.136295 
L 186.160532 -377.136295 
L 188.281783 -377.136295 
L 190.403035 -377.136295 
L 192.524287 -377.136295 
L 194.645539 -377.136295 
L 196.76679 -377.136295 
L 198.888042 -377.136295 
L 201.009294 -377.136295 
L 203.130546 -377.136295 
L 205.251797 -377.136295 
L 207.373049 -377.136295 
L 209.494301 -377.136295 
L 211.615553 -377.136295 
L 213.736804 -377.136295 
L 215.858056 -377.136295 
L 217.979308 -377.136295 
L 220.10056 -377.136295 
L 222.221811 -377.136295 
L 224.343063 -377.136295 
L 226.464315 -377.136295 
L 228.585567 -377.136295 
L 230.706818 -377.136295 
L 232.82807 -377.136295 
L 234.949322 -377.136295 
L 237.070574 -377.136295 
L 239.191825 -377.136295 
L 241.313077 -377.136295 
L 243.434329 -377.136295 
L 245.555581 -377.136295 
L 247.676832 -377.136295 
L 249.798084 -377.136295 
L 251.919336 -377.136295 
L 254.040588 -377.136295 
L 256.161839 -377.136295 
L 258.283091 -377.136295 
L 260.404343 -377.136295 
L 262.525595 -377.136295 
L 264.646846 -377.136295 
L 266.768098 -377.136295 
L 268.88935 -377.136295 
L 271.010602 -377.136295 
L 273.131854 -377.136295 
L 275.253105 -377.136295 
L 277.374357 -377.136295 
L 279.495609 -377.136295 
L 281.616861 -377.136295 
L 283.738112 -377.136295 
L 285.859364 -377.136295 
L 287.980616 -377.136295 
L 290.101868 -377.136295 
L 292.223119 -377.136295 
L 294.344371 -377.136295 
L 296.465623 -377.136295 
L 298.586875 -377.136295 
L 300.708126 -377.136295 
L 302.829378 -377.136295 
L 304.95063 -377.136295 
L 307.071882 -377.136295 
L 309.193133 -377.136295 
L 311.314385 -377.136295 
L 313.435637 -377.136295 
L 315.556889 -377.136295 
L 317.67814 -377.136295 
L 319.799392 -377.136295 
L 321.920644 -377.136295 
L 324.041896 -377.136295 
L 326.163147 -377.136295 
L 328.284399 -377.136295 
L 330.405651 -377.136295 
L 332.526903 -377.136295 
L 334.648154 -377.136295 
L 336.769406 -377.136295 
L 338.890658 -377.136295 
L 341.01191 -377.136295 
L 343.133161 -377.136295 
L 345.254413 -377.136295 
L 347.375665 -377.136295 
L 349.496917 -377.136295 
L 351.618168 -377.136295 
L 353.73942 -377.136295 
L 355.860672 -377.136295 
L 357.981924 -377.136295 
L 360.103175 -377.136295 
L 362.224427 -377.136295 
L 364.345679 -377.136295 
L 366.466931 -377.136295 
L 368.588182 -377.136295 
L 370.709434 -377.136295 
L 372.830686 -377.136295 
L 374.951938 -377.136295 
L 377.073189 -377.136295 
L 379.194441 -377.136295 
L 381.315693 -377.136295 
L 383.436945 -377.136295 
L 385.558196 -377.136295 
L 387.679448 -377.136295 
L 389.8007 -377.136295 
L 391.921952 -377.136295 
L 394.043203 -377.136295 
L 396.164455 -377.136295 
L 398.285707 -377.136295 
L 400.406959 -377.136295 
L 402.52821 -377.136295 
L 404.649462 -377.136295 
L 406.770714 -377.136295 
L 408.891966 -377.136295 
L 411.013217 -377.136295 
L 413.134469 -377.136295 
L 415.255721 -377.136295 
L 417.376973 -377.136295 
L 419.498224 -377.136295 
L 421.619476 -377.136295 
L 423.740728 -377.136295 
L 423.740728 -377.153184 
L 423.740728 -377.153184 
L 421.619476 -377.158454 
L 419.498224 -377.165124 
L 417.376973 -377.173486 
L 415.255721 -377.18387 
L 413.134469 -377.196641 
L 411.013217 -377.212195 
L 408.891966 -377.230955 
L 406.770714 -377.253359 
L 404.649462 -377.279846 
L 402.52821 -377.310844 
L 400.406959 -377.346749 
L 398.285707 -377.387905 
L 396.164455 -377.434576 
L 394.043203 -377.486928 
L 391.921952 -377.545 
L 389.8007 -377.608679 
L 387.679448 -377.677684 
L 385.558196 -377.751547 
L 383.436945 -377.829602 
L 381.315693 -377.910983 
L 379.194441 -377.99463 
L 377.073189 -378.079305 
L 374.951938 -378.163612 
L 372.830686 -378.246036 
L 370.709434 -378.324983 
L 368.588182 -378.398829 
L 366.466931 -378.465975 
L 364.345679 -378.524905 
L 362.224427 -378.57424 
L 360.103175 -378.612795 
L 357.981924 -378.639622 
L 355.860672 -378.654053 
L 353.73942 -378.655724 
L 351.618168 -378.644594 
L 349.496917 -378.620943 
L 347.375665 -378.585362 
L 345.254413 -378.538729 
L 343.133161 -378.482171 
L 341.01191 -378.417023 
L 338.890658 -378.344771 
L 336.769406 -378.266996 
L 334.648154 -378.185321 
L 332.526903 -378.101355 
L 330.405651 -378.016636 
L 328.284399 -377.932595 
L 326.163147 -377.850514 
L 324.041896 -377.771502 
L 321.920644 -377.696475 
L 319.799392 -377.626152 
L 317.67814 -377.561051 
L 315.556889 -377.501502 
L 313.435637 -377.447659 
L 311.314385 -377.399519 
L 309.193133 -377.356949 
L 307.071882 -377.319707 
L 304.95063 -377.287467 
L 302.829378 -377.259845 
L 300.708126 -377.236421 
L 298.586875 -377.216755 
L 296.465623 -377.200407 
L 294.344371 -377.18695 
L 292.223119 -377.175982 
L 290.101868 -377.167126 
L 287.980616 -377.160045 
L 285.859364 -377.154436 
L 283.738112 -377.150035 
L 281.616861 -377.146615 
L 279.495609 -377.14398 
L 277.374357 -377.14197 
L 275.253105 -377.14045 
L 273.131854 -377.139312 
L 271.010602 -377.138467 
L 268.88935 -377.137845 
L 266.768098 -377.137392 
L 264.646846 -377.137065 
L 262.525595 -377.136831 
L 260.404343 -377.136665 
L 258.283091 -377.136548 
L 256.161839 -377.136467 
L 254.040588 -377.13641 
L 251.919336 -377.136372 
L 249.798084 -377.136346 
L 247.676832 -377.136328 
L 245.555581 -377.136316 
L 243.434329 -377.136309 
L 241.313077 -377.136304 
L 239.191825 -377.1363 
L 237.070574 -377.136298 
L 234.949322 -377.136297 
L 232.82807 -377.136296 
L 230.706818 -377.136296 
L 228.585567 -377.136295 
L 226.464315 -377.136295 
L 224.343063 -377.136295 
L 222.221811 -377.136295 
L 220.10056 -377.136296 
L 217.979308 -377.136297 
L 215.858056 -377.136298 
L 213.736804 -377.1363 
L 211.615553 -377.136303 
L 209.494301 -377.136308 
L 207.373049 -377.136316 
L 205.251797 -377.136329 
L 203.130546 -377.136348 
L 201.009294 -377.136378 
L 198.888042 -377.136423 
L 196.76679 -377.136491 
L 194.645539 -377.136593 
L 192.524287 -377.136745 
L 190.403035 -377.136969 
L 188.281783 -377.137297 
L 186.160532 -377.137772 
L 184.03928 -377.138456 
L 181.918028 -377.139435 
L 179.796776 -377.140822 
L 177.675525 -377.142774 
L 175.554273 -377.145499 
L 173.433021 -377.149277 
L 171.311769 -377.154475 
L 169.190518 -377.161571 
L 167.069266 -377.171188 
L 164.948014 -377.184127 
L 162.826762 -377.201406 
L 160.705511 -377.224312 
L 158.584259 -377.254457 
L 156.463007 -377.293841 
L 154.341755 -377.344922 
L 152.220504 -377.410692 
L 150.099252 -377.494762 
L 147.978 -377.60144 
L 145.856748 -377.735816 
L 143.735497 -377.90384 
L 141.614245 -378.112383 
L 139.492993 -378.369287 
L 137.371741 -378.683386 
L 135.25049 -379.064491 
L 133.129238 -379.523333 
L 131.007986 -380.07145 
L 128.886734 -380.72101 
L 126.765483 -381.484568 
L 124.644231 -382.374736 
L 122.522979 -383.403778 
L 120.401727 -384.583127 
L 118.280476 -385.922823 
L 116.159224 -387.430889 
L 114.037972 -389.112672 
L 111.91672 -390.970154 
L 109.795469 -393.001286 
L 107.674217 -395.19936 
L 105.552965 -397.552487 
L 103.431713 -400.043188 
L 101.310462 -402.648179 
L 99.18921 -405.338353 
L 97.067958 -408.079014 
L 94.946706 -410.830371 
L 92.825455 -413.548305 
L 90.704203 -416.1854 
L 88.582951 -418.692213 
L 86.461699 -421.018744 
L 84.340448 -423.116048 
L 82.219196 -424.937917 
L 80.097944 -426.442564 
L 77.976692 -427.594204 
L 75.855441 -428.364471 
L 73.734189 -428.733574 
L 71.612937 -428.691142 
L 69.491685 -428.236695 
L 67.370434 -427.379723 
L 65.249182 -426.13935 
L 63.12793 -424.543619 
L 61.006678 -422.628423 
L 58.885427 -420.436141 
L 56.764175 -418.014056 
L 54.642923 -415.412636 
L 52.521671 -412.683771 
L 50.40042 -409.879043 
L 48.279168 -407.048123 
L 46.157916 -404.237347 
L 44.036664 -401.488541 
L 41.915413 -398.838122 
L 39.794161 -396.316492 
L 37.672909 -393.947728 
L 35.551657 -391.749554 
L 33.430406 -389.733557 
L 31.309154 -387.905616 
L 29.187902 -386.266491 
L 27.06665 -384.812533 
L 24.945399 -383.536447 
L 22.824147 -382.428089 
L 20.702895 -381.475238 
L 18.581643 -380.664314 
L 16.460392 -379.981029 
L 14.33914 -379.410942 
L 12.217888 -378.939921 
L 10.096636 -378.554493 
L 7.975385 -378.242113 
L 5.854133 -377.991333 
L 3.732881 -377.791898 
L 1.611629 -377.634776 
z
" style="stroke: #1f77b4"/>
    </defs>
    <g clip-path="url(#pa76d0c8c2b)">
     <use xlink:href="#m32ffbeeeb0" x="0" y="438.513437" style="fill: #1f77b4; fill-opacity: 0.25; stroke: #1f77b4"/>
    </g>
   </g>
   <g id="matplotlib.axis_3">
    <g id="xtick_6">
     <g id="line2d_13">
      <g>
       <use xlink:href="#m21fb9447c1" x="70.461985" y="61.377143" style="stroke: #000000; stroke-width: 0.8"/>
      </g>
     </g>
    </g>
    <g id="xtick_7">
     <g id="line2d_14">
      <g>
       <use xlink:href="#m21fb9447c1" x="143.76827" y="61.377143" style="stroke: #000000; stroke-width: 0.8"/>
      </g>
     </g>
    </g>
    <g id="xtick_8">
     <g id="line2d_15">
      <g>
       <use xlink:href="#m21fb9447c1" x="217.074556" y="61.377143" style="stroke: #000000; stroke-width: 0.8"/>
      </g>
     </g>
    </g>
    <g id="xtick_9">
     <g id="line2d_16">
      <g>
       <use xlink:href="#m21fb9447c1" x="290.380841" y="61.377143" style="stroke: #000000; stroke-width: 0.8"/>
      </g>
     </g>
    </g>
    <g id="xtick_10">
     <g id="line2d_17">
      <g>
       <use xlink:href="#m21fb9447c1" x="363.687127" y="61.377143" style="stroke: #000000; stroke-width: 0.8"/>
      </g>
     </g>
    </g>
   </g>
   <g id="matplotlib.axis_4">
    <g id="ytick_8"/>
    <g id="ytick_9"/>
   </g>
   <g id="patch_6">
    <path d="M 56.64375 61.377143 
L 368.708607 61.377143 
" style="fill: none; stroke: #000000; stroke-width: 0.8; stroke-linejoin: miter; stroke-linecap: square"/>
   </g>
  </g>
  <g id="axes_3">
   <g id="patch_7">
    <path d="M 379.469464 386.44 
L 433.27375 386.44 
L 433.27375 72.212571 
L 379.469464 72.212571 
z
" style="fill: #ffffff"/>
   </g>
   <g id="PolyCollection_2">
    <path d="M 379.513133 485.636711 
L 379.469464 485.636711 
L 379.469464 483.060727 
L 379.469464 480.484743 
L 379.469464 477.908759 
L 379.469464 475.332774 
L 379.469464 472.75679 
L 379.469464 470.180806 
L 379.469464 467.604822 
L 379.469464 465.028838 
L 379.469464 462.452854 
L 379.469464 459.876869 
L 379.469464 457.300885 
L 379.469464 454.724901 
L 379.469464 452.148917 
L 379.469464 449.572933 
L 379.469464 446.996949 
L 379.469464 444.420964 
L 379.469464 441.84498 
L 379.469464 439.268996 
L 379.469464 436.693012 
L 379.469464 434.117028 
L 379.469464 431.541043 
L 379.469464 428.965059 
L 379.469464 426.389075 
L 379.469464 423.813091 
L 379.469464 421.237107 
L 379.469464 418.661123 
L 379.469464 416.085138 
L 379.469464 413.509154 
L 379.469464 410.93317 
L 379.469464 408.357186 
L 379.469464 405.781202 
L 379.469464 403.205218 
L 379.469464 400.629233 
L 379.469464 398.053249 
L 379.469464 395.477265 
L 379.469464 392.901281 
L 379.469464 390.325297 
L 379.469464 387.749312 
L 379.469464 385.173328 
L 379.469464 382.597344 
L 379.469464 380.02136 
L 379.469464 377.445376 
L 379.469464 374.869392 
L 379.469464 372.293407 
L 379.469464 369.717423 
L 379.469464 367.141439 
L 379.469464 364.565455 
L 379.469464 361.989471 
L 379.469464 359.413487 
L 379.469464 356.837502 
L 379.469464 354.261518 
L 379.469464 351.685534 
L 379.469464 349.10955 
L 379.469464 346.533566 
L 379.469464 343.957582 
L 379.469464 341.381597 
L 379.469464 338.805613 
L 379.469464 336.229629 
L 379.469464 333.653645 
L 379.469464 331.077661 
L 379.469464 328.501676 
L 379.469464 325.925692 
L 379.469464 323.349708 
L 379.469464 320.773724 
L 379.469464 318.19774 
L 379.469464 315.621756 
L 379.469464 313.045771 
L 379.469464 310.469787 
L 379.469464 307.893803 
L 379.469464 305.317819 
L 379.469464 302.741835 
L 379.469464 300.165851 
L 379.469464 297.589866 
L 379.469464 295.013882 
L 379.469464 292.437898 
L 379.469464 289.861914 
L 379.469464 287.28593 
L 379.469464 284.709945 
L 379.469464 282.133961 
L 379.469464 279.557977 
L 379.469464 276.981993 
L 379.469464 274.406009 
L 379.469464 271.830025 
L 379.469464 269.25404 
L 379.469464 266.678056 
L 379.469464 264.102072 
L 379.469464 261.526088 
L 379.469464 258.950104 
L 379.469464 256.37412 
L 379.469464 253.798135 
L 379.469464 251.222151 
L 379.469464 248.646167 
L 379.469464 246.070183 
L 379.469464 243.494199 
L 379.469464 240.918215 
L 379.469464 238.34223 
L 379.469464 235.766246 
L 379.469464 233.190262 
L 379.469464 230.614278 
L 379.469464 228.038294 
L 379.469464 225.462309 
L 379.469464 222.886325 
L 379.469464 220.310341 
L 379.469464 217.734357 
L 379.469464 215.158373 
L 379.469464 212.582389 
L 379.469464 210.006404 
L 379.469464 207.43042 
L 379.469464 204.854436 
L 379.469464 202.278452 
L 379.469464 199.702468 
L 379.469464 197.126484 
L 379.469464 194.550499 
L 379.469464 191.974515 
L 379.469464 189.398531 
L 379.469464 186.822547 
L 379.469464 184.246563 
L 379.469464 181.670578 
L 379.469464 179.094594 
L 379.469464 176.51861 
L 379.469464 173.942626 
L 379.469464 171.366642 
L 379.469464 168.790658 
L 379.469464 166.214673 
L 379.469464 163.638689 
L 379.469464 161.062705 
L 379.469464 158.486721 
L 379.469464 155.910737 
L 379.469464 153.334753 
L 379.469464 150.758768 
L 379.469464 148.182784 
L 379.469464 145.6068 
L 379.469464 143.030816 
L 379.469464 140.454832 
L 379.469464 137.878847 
L 379.469464 135.302863 
L 379.469464 132.726879 
L 379.469464 130.150895 
L 379.469464 127.574911 
L 379.469464 124.998927 
L 379.469464 122.422942 
L 379.469464 119.846958 
L 379.469464 117.270974 
L 379.469464 114.69499 
L 379.469464 112.119006 
L 379.469464 109.543022 
L 379.469464 106.967037 
L 379.469464 104.391053 
L 379.469464 101.815069 
L 379.469464 99.239085 
L 379.469464 96.663101 
L 379.469464 94.087117 
L 379.469464 91.511132 
L 379.469464 88.935148 
L 379.469464 86.359164 
L 379.469464 83.78318 
L 379.469464 81.207196 
L 379.469464 78.631211 
L 379.469464 76.055227 
L 379.469464 73.479243 
L 379.469464 70.903259 
L 379.469464 68.327275 
L 379.469464 65.751291 
L 379.469464 63.175306 
L 379.469464 60.599322 
L 379.469464 58.023338 
L 379.469464 55.447354 
L 379.469464 52.87137 
L 379.469464 50.295386 
L 379.469464 47.719401 
L 379.469464 45.143417 
L 379.469464 42.567433 
L 379.469464 39.991449 
L 379.469464 37.415465 
L 379.469464 34.83948 
L 379.469464 32.263496 
L 379.469464 29.687512 
L 379.469464 27.111528 
L 379.469464 24.535544 
L 379.469464 21.95956 
L 379.469464 19.383575 
L 379.469464 16.807591 
L 379.469464 14.231607 
L 379.469464 11.655623 
L 379.469464 9.079639 
L 379.469464 6.503655 
L 379.469464 3.92767 
L 379.469464 1.351686 
L 379.469464 -1.224298 
L 379.469464 -3.800282 
L 379.469464 -6.376266 
L 379.469464 -8.95225 
L 379.469464 -11.528235 
L 379.469464 -14.104219 
L 379.469464 -16.680203 
L 379.469464 -19.256187 
L 379.469464 -21.832171 
L 379.469464 -24.408156 
L 379.469464 -26.98414 
L 379.511103 -26.98414 
L 379.511103 -26.98414 
L 379.520698 -24.408156 
L 379.532242 -21.832171 
L 379.546068 -19.256187 
L 379.562556 -16.680203 
L 379.582136 -14.104219 
L 379.605287 -11.528235 
L 379.632548 -8.95225 
L 379.664514 -6.376266 
L 379.701846 -3.800282 
L 379.745272 -1.224298 
L 379.795587 1.351686 
L 379.853663 3.92767 
L 379.920443 6.503655 
L 379.99695 9.079639 
L 380.084286 11.655623 
L 380.183637 14.231607 
L 380.29627 16.807591 
L 380.423536 19.383575 
L 380.566872 21.95956 
L 380.7278 24.535544 
L 380.907927 27.111528 
L 381.108941 29.687512 
L 381.332615 32.263496 
L 381.580795 34.83948 
L 381.8554 37.415465 
L 382.158414 39.991449 
L 382.491874 42.567433 
L 382.85786 45.143417 
L 383.258476 47.719401 
L 383.695835 50.295386 
L 384.172029 52.87137 
L 384.689107 55.447354 
L 385.249041 58.023338 
L 385.853687 60.599322 
L 386.504747 63.175306 
L 387.203724 65.751291 
L 387.951875 68.327275 
L 388.750158 70.903259 
L 389.599184 73.479243 
L 390.499167 76.055227 
L 391.44987 78.631211 
L 392.450566 81.207196 
L 393.499994 83.78318 
L 394.596326 86.359164 
L 395.737145 88.935148 
L 396.91943 91.511132 
L 398.139554 94.087117 
L 399.393298 96.663101 
L 400.675871 99.239085 
L 401.981954 101.815069 
L 403.305752 104.391053 
L 404.641054 106.967037 
L 405.981317 109.543022 
L 407.319745 112.119006 
L 408.64939 114.69499 
L 409.963241 117.270974 
L 411.254332 119.846958 
L 412.515836 122.422942 
L 413.741159 124.998927 
L 414.924031 127.574911 
L 416.058578 130.150895 
L 417.139398 132.726879 
L 418.161605 135.302863 
L 419.120876 137.878847 
L 420.013475 140.454832 
L 420.836269 143.030816 
L 421.586724 145.6068 
L 422.262902 148.182784 
L 422.86344 150.758768 
L 423.387525 153.334753 
L 423.83487 155.910737 
L 424.205686 158.486721 
L 424.500656 161.062705 
L 424.720909 163.638689 
L 424.86801 166.214673 
L 424.943944 168.790658 
L 424.951115 171.366642 
L 424.892347 173.942626 
L 424.770896 176.51861 
L 424.590458 179.094594 
L 424.355189 181.670578 
L 424.069714 184.246563 
L 423.739142 186.822547 
L 423.369068 189.398531 
L 422.965572 191.974515 
L 422.535203 194.550499 
L 422.084947 197.126484 
L 421.622193 199.702468 
L 421.154663 202.278452 
L 420.690345 204.854436 
L 420.237401 207.43042 
L 419.80406 210.006404 
L 419.398503 212.582389 
L 419.028733 215.158373 
L 418.702446 217.734357 
L 418.426889 220.310341 
L 418.208725 222.886325 
L 418.053895 225.462309 
L 417.967497 228.038294 
L 417.953666 230.614278 
L 418.01547 233.190262 
L 418.154828 235.766246 
L 418.372441 238.34223 
L 418.667746 240.918215 
L 419.038891 243.494199 
L 419.482733 246.070183 
L 419.994859 248.646167 
L 420.569629 251.222151 
L 421.20024 253.798135 
L 421.878811 256.37412 
L 422.596487 258.950104 
L 423.343557 261.526088 
L 424.109594 264.102072 
L 424.883592 266.678056 
L 425.654133 269.25404 
L 426.409542 271.830025 
L 427.138059 274.406009 
L 427.828007 276.981993 
L 428.467955 279.557977 
L 429.04689 282.133961 
L 429.554364 284.709945 
L 429.980649 287.28593 
L 430.316869 289.861914 
L 430.555125 292.437898 
L 430.688597 295.013882 
L 430.711641 297.589866 
L 430.619852 300.165851 
L 430.410119 302.741835 
L 430.080653 305.317819 
L 429.631 307.893803 
L 429.062023 310.469787 
L 428.375876 313.045771 
L 427.575948 315.621756 
L 426.666794 318.19774 
L 425.654049 320.773724 
L 424.544324 323.349708 
L 423.34509 325.925692 
L 422.064557 328.501676 
L 420.711536 331.077661 
L 419.295305 333.653645 
L 417.825465 336.229629 
L 416.311805 338.805613 
L 414.764162 341.381597 
L 413.192291 343.957582 
L 411.605746 346.533566 
L 410.013762 349.10955 
L 408.42516 351.685534 
L 406.848254 354.261518 
L 405.290781 356.837502 
L 403.759843 359.413487 
L 402.261857 361.989471 
L 400.802532 364.565455 
L 399.386849 367.141439 
L 398.019057 369.717423 
L 396.702687 372.293407 
L 395.44057 374.869392 
L 394.234863 377.445376 
L 393.087092 380.02136 
L 391.998191 382.597344 
L 390.968551 385.173328 
L 389.998071 387.749312 
L 389.086211 390.325297 
L 388.232042 392.901281 
L 387.434304 395.477265 
L 386.691451 398.053249 
L 386.001701 400.629233 
L 385.363081 403.205218 
L 384.773468 405.781202 
L 384.230627 408.357186 
L 383.732246 410.93317 
L 383.275964 413.509154 
L 382.8594 416.085138 
L 382.480174 418.661123 
L 382.135927 421.237107 
L 381.824339 423.813091 
L 381.543141 426.389075 
L 381.290127 428.965059 
L 381.063169 431.541043 
L 380.860213 434.117028 
L 380.679299 436.693012 
L 380.518554 439.268996 
L 380.376202 441.84498 
L 380.250563 444.420964 
L 380.140058 446.996949 
L 380.043206 449.572933 
L 379.958625 452.148917 
L 379.885029 454.724901 
L 379.821231 457.300885 
L 379.766135 459.876869 
L 379.718739 462.452854 
L 379.678125 465.028838 
L 379.643462 467.604822 
L 379.613997 470.180806 
L 379.589052 472.75679 
L 379.568021 475.332774 
L 379.550365 477.908759 
L 379.535604 480.484743 
L 379.523317 483.060727 
L 379.513133 485.636711 
z
" clip-path="url(#p613190890f)" style="fill: #1f77b4; fill-opacity: 0.25; stroke: #1f77b4"/>
   </g>
   <g id="matplotlib.axis_5">
    <g id="xtick_11"/>
    <g id="xtick_12"/>
   </g>
   <g id="matplotlib.axis_6">
    <g id="ytick_10">
     <g id="line2d_18">
      <g>
       <use xlink:href="#m54c81a012e" x="379.469464" y="376.620393" style="stroke: #000000; stroke-width: 0.8"/>
      </g>
     </g>
    </g>
    <g id="ytick_11">
     <g id="line2d_19">
      <g>
       <use xlink:href="#m54c81a012e" x="379.469464" y="331.985815" style="stroke: #000000; stroke-width: 0.8"/>
      </g>
     </g>
    </g>
    <g id="ytick_12">
     <g id="line2d_20">
      <g>
       <use xlink:href="#m54c81a012e" x="379.469464" y="287.351237" style="stroke: #000000; stroke-width: 0.8"/>
      </g>
     </g>
    </g>
    <g id="ytick_13">
     <g id="line2d_21">
      <g>
       <use xlink:href="#m54c81a012e" x="379.469464" y="242.716659" style="stroke: #000000; stroke-width: 0.8"/>
      </g>
     </g>
    </g>
    <g id="ytick_14">
     <g id="line2d_22">
      <g>
       <use xlink:href="#m54c81a012e" x="379.469464" y="198.082081" style="stroke: #000000; stroke-width: 0.8"/>
      </g>
     </g>
    </g>
    <g id="ytick_15">
     <g id="line2d_23">
      <g>
       <use xlink:href="#m54c81a012e" x="379.469464" y="153.447503" style="stroke: #000000; stroke-width: 0.8"/>
      </g>
     </g>
    </g>
    <g id="ytick_16">
     <g id="line2d_24">
      <g>
       <use xlink:href="#m54c81a012e" x="379.469464" y="108.812925" style="stroke: #000000; stroke-width: 0.8"/>
      </g>
     </g>
    </g>
   </g>
   <g id="patch_8">
    <path d="M 379.469464 386.44 
L 379.469464 72.212571 
" style="fill: none; stroke: #000000; stroke-width: 0.8; stroke-linejoin: miter; stroke-linecap: square"/>
   </g>
  </g>
 </g>
 <defs>
  <clipPath id="p78635d3d3b">
   <rect x="56.64375" y="72.212571" width="312.064857" height="314.227429"/>
  </clipPath>
  <clipPath id="pa76d0c8c2b">
   <rect x="56.64375" y="7.2" width="312.064857" height="54.177143"/>
  </clipPath>
  <clipPath id="p613190890f">
   <rect x="379.469464" y="72.212571" width="53.804286" height="314.227429"/>
  </clipPath>
 </defs>
</svg>
