<?xml version="1.0" encoding="utf-8" standalone="no"?>
<!DOCTYPE svg PUBLIC "-//W3C//DTD SVG 1.1//EN"
  "http://www.w3.org/Graphics/SVG/1.1/DTD/svg11.dtd">
<svg xmlns:xlink="http://www.w3.org/1999/xlink" width="445.312812pt" height="443.3525pt" viewBox="0 0 445.312812 443.3525" xmlns="http://www.w3.org/2000/svg" version="1.1">
 <metadata>
  <rdf:RDF xmlns:dc="http://purl.org/dc/elements/1.1/" xmlns:cc="http://creativecommons.org/ns#" xmlns:rdf="http://www.w3.org/1999/02/22-rdf-syntax-ns#">
   <cc:Work>
    <dc:type rdf:resource="http://purl.org/dc/dcmitype/StillImage"/>
    <dc:date>2022-12-09T16:27:20.197043</dc:date>
    <dc:format>image/svg+xml</dc:format>
    <dc:creator>
     <cc:Agent>
      <dc:title>Matplotlib v3.6.2, https://matplotlib.org/</dc:title>
     </cc:Agent>
    </dc:creator>
   </cc:Work>
  </rdf:RDF>
 </metadata>
 <defs>
  <style type="text/css">*{stroke-linejoin: round; stroke-linecap: butt}</style>
 </defs>
 <g id="figure_1">
  <g id="patch_1">
   <path d="M 0 443.3525 
L 445.312812 443.3525 
L 445.312812 0 
L 0 0 
z
" style="fill: #ffffff"/>
  </g>
  <g id="axes_1">
   <g id="patch_2">
    <path d="M 61.482813 386.44 
L 373.54767 386.44 
L 373.54767 72.212571 
L 61.482813 72.212571 
z
" style="fill: #ffffff"/>
   </g>
   <g id="PathCollection_1">
    <defs>
     <path id="m7252f222c9" d="M 0 5 
C 1.326016 5 2.597899 4.473168 3.535534 3.535534 
C 4.473168 2.597899 5 1.326016 5 0 
C 5 -1.326016 4.473168 -2.597899 3.535534 -3.535534 
C 2.597899 -4.473168 1.326016 -5 0 -5 
C -1.326016 -5 -2.597899 -4.473168 -3.535534 -3.535534 
C -4.473168 -2.597899 -5 -1.326016 -5 0 
C -5 1.326016 -4.473168 2.597899 -3.535534 3.535534 
C -2.597899 4.473168 -1.326016 5 0 5 
z
" style="stroke: #ffffff; stroke-opacity: 0.5; stroke-width: 0.8"/>
    </defs>
    <g clip-path="url(#pe8adc8558a)">
     <use xlink:href="#m7252f222c9" x="75.667579" y="281.264704" style="fill: #1f77b4; fill-opacity: 0.5; stroke: #ffffff; stroke-opacity: 0.5; stroke-width: 0.8"/>
     <use xlink:href="#m7252f222c9" x="76.402541" y="168.731465" style="fill: #1f77b4; fill-opacity: 0.5; stroke: #ffffff; stroke-opacity: 0.5; stroke-width: 0.8"/>
     <use xlink:href="#m7252f222c9" x="77.872465" y="134.105853" style="fill: #1f77b4; fill-opacity: 0.5; stroke: #ffffff; stroke-opacity: 0.5; stroke-width: 0.8"/>
     <use xlink:href="#m7252f222c9" x="75.667579" y="233.654487" style="fill: #1f77b4; fill-opacity: 0.5; stroke: #ffffff; stroke-opacity: 0.5; stroke-width: 0.8"/>
     <use xlink:href="#m7252f222c9" x="75.667579" y="298.57751" style="fill: #1f77b4; fill-opacity: 0.5; stroke: #ffffff; stroke-opacity: 0.5; stroke-width: 0.8"/>
     <use xlink:href="#m7252f222c9" x="75.667579" y="372.156935" style="fill: #1f77b4; fill-opacity: 0.5; stroke: #ffffff; stroke-opacity: 0.5; stroke-width: 0.8"/>
     <use xlink:href="#m7252f222c9" x="77.872465" y="138.434054" style="fill: #1f77b4; fill-opacity: 0.5; stroke: #ffffff; stroke-opacity: 0.5; stroke-width: 0.8"/>
     <use xlink:href="#m7252f222c9" x="75.667579" y="177.387868" style="fill: #1f77b4; fill-opacity: 0.5; stroke: #ffffff; stroke-opacity: 0.5; stroke-width: 0.8"/>
     <use xlink:href="#m7252f222c9" x="75.667579" y="294.249308" style="fill: #1f77b4; fill-opacity: 0.5; stroke: #ffffff; stroke-opacity: 0.5; stroke-width: 0.8"/>
     <use xlink:href="#m7252f222c9" x="75.667579" y="302.905711" style="fill: #1f77b4; fill-opacity: 0.5; stroke: #ffffff; stroke-opacity: 0.5; stroke-width: 0.8"/>
     <use xlink:href="#m7252f222c9" x="97.716438" y="121.121248" style="fill: #1f77b4; fill-opacity: 0.5; stroke: #ffffff; stroke-opacity: 0.5; stroke-width: 0.8"/>
     <use xlink:href="#m7252f222c9" x="75.667579" y="294.249308" style="fill: #1f77b4; fill-opacity: 0.5; stroke: #ffffff; stroke-opacity: 0.5; stroke-width: 0.8"/>
     <use xlink:href="#m7252f222c9" x="76.770022" y="307.233913" style="fill: #1f77b4; fill-opacity: 0.5; stroke: #ffffff; stroke-opacity: 0.5; stroke-width: 0.8"/>
     <use xlink:href="#m7252f222c9" x="77.137503" y="142.762256" style="fill: #1f77b4; fill-opacity: 0.5; stroke: #ffffff; stroke-opacity: 0.5; stroke-width: 0.8"/>
     <use xlink:href="#m7252f222c9" x="75.667579" y="307.233913" style="fill: #1f77b4; fill-opacity: 0.5; stroke: #ffffff; stroke-opacity: 0.5; stroke-width: 0.8"/>
     <use xlink:href="#m7252f222c9" x="75.667579" y="333.203122" style="fill: #1f77b4; fill-opacity: 0.5; stroke: #ffffff; stroke-opacity: 0.5; stroke-width: 0.8"/>
     <use xlink:href="#m7252f222c9" x="83.017199" y="125.44945" style="fill: #1f77b4; fill-opacity: 0.5; stroke: #ffffff; stroke-opacity: 0.5; stroke-width: 0.8"/>
     <use xlink:href="#m7252f222c9" x="75.667579" y="281.264704" style="fill: #1f77b4; fill-opacity: 0.5; stroke: #ffffff; stroke-opacity: 0.5; stroke-width: 0.8"/>
     <use xlink:href="#m7252f222c9" x="75.667579" y="324.546719" style="fill: #1f77b4; fill-opacity: 0.5; stroke: #ffffff; stroke-opacity: 0.5; stroke-width: 0.8"/>
     <use xlink:href="#m7252f222c9" x="359.362903" y="86.495636" style="fill: #1f77b4; fill-opacity: 0.5; stroke: #ffffff; stroke-opacity: 0.5; stroke-width: 0.8"/>
     <use xlink:href="#m7252f222c9" x="75.667579" y="190.372472" style="fill: #1f77b4; fill-opacity: 0.5; stroke: #ffffff; stroke-opacity: 0.5; stroke-width: 0.8"/>
     <use xlink:href="#m7252f222c9" x="76.402541" y="155.74686" style="fill: #1f77b4; fill-opacity: 0.5; stroke: #ffffff; stroke-opacity: 0.5; stroke-width: 0.8"/>
     <use xlink:href="#m7252f222c9" x="75.667579" y="285.592905" style="fill: #1f77b4; fill-opacity: 0.5; stroke: #ffffff; stroke-opacity: 0.5; stroke-width: 0.8"/>
     <use xlink:href="#m7252f222c9" x="76.03506" y="190.372472" style="fill: #1f77b4; fill-opacity: 0.5; stroke: #ffffff; stroke-opacity: 0.5; stroke-width: 0.8"/>
     <use xlink:href="#m7252f222c9" x="77.137503" y="129.777651" style="fill: #1f77b4; fill-opacity: 0.5; stroke: #ffffff; stroke-opacity: 0.5; stroke-width: 0.8"/>
     <use xlink:href="#m7252f222c9" x="99.553843" y="121.121248" style="fill: #1f77b4; fill-opacity: 0.5; stroke: #ffffff; stroke-opacity: 0.5; stroke-width: 0.8"/>
     <use xlink:href="#m7252f222c9" x="94.409109" y="108.136644" style="fill: #1f77b4; fill-opacity: 0.5; stroke: #ffffff; stroke-opacity: 0.5; stroke-width: 0.8"/>
     <use xlink:href="#m7252f222c9" x="75.667579" y="289.921107" style="fill: #1f77b4; fill-opacity: 0.5; stroke: #ffffff; stroke-opacity: 0.5; stroke-width: 0.8"/>
     <use xlink:href="#m7252f222c9" x="76.770022" y="168.731465" style="fill: #1f77b4; fill-opacity: 0.5; stroke: #ffffff; stroke-opacity: 0.5; stroke-width: 0.8"/>
     <use xlink:href="#m7252f222c9" x="76.03506" y="155.74686" style="fill: #1f77b4; fill-opacity: 0.5; stroke: #ffffff; stroke-opacity: 0.5; stroke-width: 0.8"/>
     <use xlink:href="#m7252f222c9" x="75.667579" y="168.731465" style="fill: #1f77b4; fill-opacity: 0.5; stroke: #ffffff; stroke-opacity: 0.5; stroke-width: 0.8"/>
     <use xlink:href="#m7252f222c9" x="75.667579" y="199.028875" style="fill: #1f77b4; fill-opacity: 0.5; stroke: #ffffff; stroke-opacity: 0.5; stroke-width: 0.8"/>
     <use xlink:href="#m7252f222c9" x="75.667579" y="190.372472" style="fill: #1f77b4; fill-opacity: 0.5; stroke: #ffffff; stroke-opacity: 0.5; stroke-width: 0.8"/>
     <use xlink:href="#m7252f222c9" x="75.667579" y="246.639092" style="fill: #1f77b4; fill-opacity: 0.5; stroke: #ffffff; stroke-opacity: 0.5; stroke-width: 0.8"/>
     <use xlink:href="#m7252f222c9" x="75.667579" y="268.280099" style="fill: #1f77b4; fill-opacity: 0.5; stroke: #ffffff; stroke-opacity: 0.5; stroke-width: 0.8"/>
     <use xlink:href="#m7252f222c9" x="75.667579" y="272.608301" style="fill: #1f77b4; fill-opacity: 0.5; stroke: #ffffff; stroke-opacity: 0.5; stroke-width: 0.8"/>
     <use xlink:href="#m7252f222c9" x="82.282237" y="125.44945" style="fill: #1f77b4; fill-opacity: 0.5; stroke: #ffffff; stroke-opacity: 0.5; stroke-width: 0.8"/>
    </g>
   </g>
   <g id="matplotlib.axis_1">
    <g id="xtick_1">
     <g id="line2d_1">
      <defs>
       <path id="m2379c2611b" d="M 0 0 
L 0 3.5 
" style="stroke: #000000; stroke-width: 0.8"/>
      </defs>
      <g>
       <use xlink:href="#m2379c2611b" x="75.300098" y="386.44" style="stroke: #000000; stroke-width: 0.8"/>
      </g>
     </g>
     <g id="text_1">
      <!-- 0 -->
      <g transform="translate(70.528223 404.837656) scale(0.15 -0.15)">
       <defs>
        <path id="DejaVuSans-30" d="M 2034 4250 
Q 1547 4250 1301 3770 
Q 1056 3291 1056 2328 
Q 1056 1369 1301 889 
Q 1547 409 2034 409 
Q 2525 409 2770 889 
Q 3016 1369 3016 2328 
Q 3016 3291 2770 3770 
Q 2525 4250 2034 4250 
z
M 2034 4750 
Q 2819 4750 3233 4129 
Q 3647 3509 3647 2328 
Q 3647 1150 3233 529 
Q 2819 -91 2034 -91 
Q 1250 -91 836 529 
Q 422 1150 422 2328 
Q 422 3509 836 4129 
Q 1250 4750 2034 4750 
z
" transform="scale(0.015625)"/>
       </defs>
       <use xlink:href="#DejaVuSans-30"/>
      </g>
     </g>
    </g>
    <g id="xtick_2">
     <g id="line2d_2">
      <g>
       <use xlink:href="#m2379c2611b" x="148.796296" y="386.44" style="stroke: #000000; stroke-width: 0.8"/>
      </g>
     </g>
     <g id="text_2">
      <!-- 200 -->
      <g transform="translate(134.480671 404.837656) scale(0.15 -0.15)">
       <defs>
        <path id="DejaVuSans-32" d="M 1228 531 
L 3431 531 
L 3431 0 
L 469 0 
L 469 531 
Q 828 903 1448 1529 
Q 2069 2156 2228 2338 
Q 2531 2678 2651 2914 
Q 2772 3150 2772 3378 
Q 2772 3750 2511 3984 
Q 2250 4219 1831 4219 
Q 1534 4219 1204 4116 
Q 875 4013 500 3803 
L 500 4441 
Q 881 4594 1212 4672 
Q 1544 4750 1819 4750 
Q 2544 4750 2975 4387 
Q 3406 4025 3406 3419 
Q 3406 3131 3298 2873 
Q 3191 2616 2906 2266 
Q 2828 2175 2409 1742 
Q 1991 1309 1228 531 
z
" transform="scale(0.015625)"/>
       </defs>
       <use xlink:href="#DejaVuSans-32"/>
       <use xlink:href="#DejaVuSans-30" x="63.623047"/>
       <use xlink:href="#DejaVuSans-30" x="127.246094"/>
      </g>
     </g>
    </g>
    <g id="xtick_3">
     <g id="line2d_3">
      <g>
       <use xlink:href="#m2379c2611b" x="222.292494" y="386.44" style="stroke: #000000; stroke-width: 0.8"/>
      </g>
     </g>
     <g id="text_3">
      <!-- 400 -->
      <g transform="translate(207.976869 404.837656) scale(0.15 -0.15)">
       <defs>
        <path id="DejaVuSans-34" d="M 2419 4116 
L 825 1625 
L 2419 1625 
L 2419 4116 
z
M 2253 4666 
L 3047 4666 
L 3047 1625 
L 3713 1625 
L 3713 1100 
L 3047 1100 
L 3047 0 
L 2419 0 
L 2419 1100 
L 313 1100 
L 313 1709 
L 2253 4666 
z
" transform="scale(0.015625)"/>
       </defs>
       <use xlink:href="#DejaVuSans-34"/>
       <use xlink:href="#DejaVuSans-30" x="63.623047"/>
       <use xlink:href="#DejaVuSans-30" x="127.246094"/>
      </g>
     </g>
    </g>
    <g id="xtick_4">
     <g id="line2d_4">
      <g>
       <use xlink:href="#m2379c2611b" x="295.788692" y="386.44" style="stroke: #000000; stroke-width: 0.8"/>
      </g>
     </g>
     <g id="text_4">
      <!-- 600 -->
      <g transform="translate(281.473067 404.837656) scale(0.15 -0.15)">
       <defs>
        <path id="DejaVuSans-36" d="M 2113 2584 
Q 1688 2584 1439 2293 
Q 1191 2003 1191 1497 
Q 1191 994 1439 701 
Q 1688 409 2113 409 
Q 2538 409 2786 701 
Q 3034 994 3034 1497 
Q 3034 2003 2786 2293 
Q 2538 2584 2113 2584 
z
M 3366 4563 
L 3366 3988 
Q 3128 4100 2886 4159 
Q 2644 4219 2406 4219 
Q 1781 4219 1451 3797 
Q 1122 3375 1075 2522 
Q 1259 2794 1537 2939 
Q 1816 3084 2150 3084 
Q 2853 3084 3261 2657 
Q 3669 2231 3669 1497 
Q 3669 778 3244 343 
Q 2819 -91 2113 -91 
Q 1303 -91 875 529 
Q 447 1150 447 2328 
Q 447 3434 972 4092 
Q 1497 4750 2381 4750 
Q 2619 4750 2861 4703 
Q 3103 4656 3366 4563 
z
" transform="scale(0.015625)"/>
       </defs>
       <use xlink:href="#DejaVuSans-36"/>
       <use xlink:href="#DejaVuSans-30" x="63.623047"/>
       <use xlink:href="#DejaVuSans-30" x="127.246094"/>
      </g>
     </g>
    </g>
    <g id="xtick_5">
     <g id="line2d_5">
      <g>
       <use xlink:href="#m2379c2611b" x="369.28489" y="386.44" style="stroke: #000000; stroke-width: 0.8"/>
      </g>
     </g>
     <g id="text_5">
      <!-- 800 -->
      <g transform="translate(354.969265 404.837656) scale(0.15 -0.15)">
       <defs>
        <path id="DejaVuSans-38" d="M 2034 2216 
Q 1584 2216 1326 1975 
Q 1069 1734 1069 1313 
Q 1069 891 1326 650 
Q 1584 409 2034 409 
Q 2484 409 2743 651 
Q 3003 894 3003 1313 
Q 3003 1734 2745 1975 
Q 2488 2216 2034 2216 
z
M 1403 2484 
Q 997 2584 770 2862 
Q 544 3141 544 3541 
Q 544 4100 942 4425 
Q 1341 4750 2034 4750 
Q 2731 4750 3128 4425 
Q 3525 4100 3525 3541 
Q 3525 3141 3298 2862 
Q 3072 2584 2669 2484 
Q 3125 2378 3379 2068 
Q 3634 1759 3634 1313 
Q 3634 634 3220 271 
Q 2806 -91 2034 -91 
Q 1263 -91 848 271 
Q 434 634 434 1313 
Q 434 1759 690 2068 
Q 947 2378 1403 2484 
z
M 1172 3481 
Q 1172 3119 1398 2916 
Q 1625 2713 2034 2713 
Q 2441 2713 2670 2916 
Q 2900 3119 2900 3481 
Q 2900 3844 2670 4047 
Q 2441 4250 2034 4250 
Q 1625 4250 1398 4047 
Q 1172 3844 1172 3481 
z
" transform="scale(0.015625)"/>
       </defs>
       <use xlink:href="#DejaVuSans-38"/>
       <use xlink:href="#DejaVuSans-30" x="63.623047"/>
       <use xlink:href="#DejaVuSans-30" x="127.246094"/>
      </g>
     </g>
    </g>
    <g id="text_6">
     <!-- # Commits -->
     <g transform="translate(147.454694 430.953281) scale(0.25 -0.25)">
      <defs>
       <path id="DejaVuSans-23" d="M 3272 2816 
L 2363 2816 
L 2100 1772 
L 3016 1772 
L 3272 2816 
z
M 2803 4594 
L 2478 3297 
L 3391 3297 
L 3719 4594 
L 4219 4594 
L 3897 3297 
L 4872 3297 
L 4872 2816 
L 3775 2816 
L 3519 1772 
L 4513 1772 
L 4513 1294 
L 3397 1294 
L 3072 0 
L 2572 0 
L 2894 1294 
L 1978 1294 
L 1656 0 
L 1153 0 
L 1478 1294 
L 494 1294 
L 494 1772 
L 1594 1772 
L 1856 2816 
L 850 2816 
L 850 3297 
L 1978 3297 
L 2297 4594 
L 2803 4594 
z
" transform="scale(0.015625)"/>
       <path id="DejaVuSans-20" transform="scale(0.015625)"/>
       <path id="DejaVuSans-43" d="M 4122 4306 
L 4122 3641 
Q 3803 3938 3442 4084 
Q 3081 4231 2675 4231 
Q 1875 4231 1450 3742 
Q 1025 3253 1025 2328 
Q 1025 1406 1450 917 
Q 1875 428 2675 428 
Q 3081 428 3442 575 
Q 3803 722 4122 1019 
L 4122 359 
Q 3791 134 3420 21 
Q 3050 -91 2638 -91 
Q 1578 -91 968 557 
Q 359 1206 359 2328 
Q 359 3453 968 4101 
Q 1578 4750 2638 4750 
Q 3056 4750 3426 4639 
Q 3797 4528 4122 4306 
z
" transform="scale(0.015625)"/>
       <path id="DejaVuSans-6f" d="M 1959 3097 
Q 1497 3097 1228 2736 
Q 959 2375 959 1747 
Q 959 1119 1226 758 
Q 1494 397 1959 397 
Q 2419 397 2687 759 
Q 2956 1122 2956 1747 
Q 2956 2369 2687 2733 
Q 2419 3097 1959 3097 
z
M 1959 3584 
Q 2709 3584 3137 3096 
Q 3566 2609 3566 1747 
Q 3566 888 3137 398 
Q 2709 -91 1959 -91 
Q 1206 -91 779 398 
Q 353 888 353 1747 
Q 353 2609 779 3096 
Q 1206 3584 1959 3584 
z
" transform="scale(0.015625)"/>
       <path id="DejaVuSans-6d" d="M 3328 2828 
Q 3544 3216 3844 3400 
Q 4144 3584 4550 3584 
Q 5097 3584 5394 3201 
Q 5691 2819 5691 2113 
L 5691 0 
L 5113 0 
L 5113 2094 
Q 5113 2597 4934 2840 
Q 4756 3084 4391 3084 
Q 3944 3084 3684 2787 
Q 3425 2491 3425 1978 
L 3425 0 
L 2847 0 
L 2847 2094 
Q 2847 2600 2669 2842 
Q 2491 3084 2119 3084 
Q 1678 3084 1418 2786 
Q 1159 2488 1159 1978 
L 1159 0 
L 581 0 
L 581 3500 
L 1159 3500 
L 1159 2956 
Q 1356 3278 1631 3431 
Q 1906 3584 2284 3584 
Q 2666 3584 2933 3390 
Q 3200 3197 3328 2828 
z
" transform="scale(0.015625)"/>
       <path id="DejaVuSans-69" d="M 603 3500 
L 1178 3500 
L 1178 0 
L 603 0 
L 603 3500 
z
M 603 4863 
L 1178 4863 
L 1178 4134 
L 603 4134 
L 603 4863 
z
" transform="scale(0.015625)"/>
       <path id="DejaVuSans-74" d="M 1172 4494 
L 1172 3500 
L 2356 3500 
L 2356 3053 
L 1172 3053 
L 1172 1153 
Q 1172 725 1289 603 
Q 1406 481 1766 481 
L 2356 481 
L 2356 0 
L 1766 0 
Q 1100 0 847 248 
Q 594 497 594 1153 
L 594 3053 
L 172 3053 
L 172 3500 
L 594 3500 
L 594 4494 
L 1172 4494 
z
" transform="scale(0.015625)"/>
       <path id="DejaVuSans-73" d="M 2834 3397 
L 2834 2853 
Q 2591 2978 2328 3040 
Q 2066 3103 1784 3103 
Q 1356 3103 1142 2972 
Q 928 2841 928 2578 
Q 928 2378 1081 2264 
Q 1234 2150 1697 2047 
L 1894 2003 
Q 2506 1872 2764 1633 
Q 3022 1394 3022 966 
Q 3022 478 2636 193 
Q 2250 -91 1575 -91 
Q 1294 -91 989 -36 
Q 684 19 347 128 
L 347 722 
Q 666 556 975 473 
Q 1284 391 1588 391 
Q 1994 391 2212 530 
Q 2431 669 2431 922 
Q 2431 1156 2273 1281 
Q 2116 1406 1581 1522 
L 1381 1569 
Q 847 1681 609 1914 
Q 372 2147 372 2553 
Q 372 3047 722 3315 
Q 1072 3584 1716 3584 
Q 2034 3584 2315 3537 
Q 2597 3491 2834 3397 
z
" transform="scale(0.015625)"/>
      </defs>
      <use xlink:href="#DejaVuSans-23"/>
      <use xlink:href="#DejaVuSans-20" x="83.789062"/>
      <use xlink:href="#DejaVuSans-43" x="115.576172"/>
      <use xlink:href="#DejaVuSans-6f" x="185.400391"/>
      <use xlink:href="#DejaVuSans-6d" x="246.582031"/>
      <use xlink:href="#DejaVuSans-6d" x="343.994141"/>
      <use xlink:href="#DejaVuSans-69" x="441.40625"/>
      <use xlink:href="#DejaVuSans-74" x="469.189453"/>
      <use xlink:href="#DejaVuSans-73" x="508.398438"/>
     </g>
    </g>
   </g>
   <g id="matplotlib.axis_2">
    <g id="ytick_1">
     <g id="line2d_6">
      <defs>
       <path id="m00c61a852d" d="M 0 0 
L -3.5 0 
" style="stroke: #000000; stroke-width: 0.8"/>
      </defs>
      <g>
       <use xlink:href="#m00c61a852d" x="61.482813" y="376.485137" style="stroke: #000000; stroke-width: 0.8"/>
      </g>
     </g>
     <g id="text_7">
      <!-- 0 -->
      <g transform="translate(44.939063 382.183965) scale(0.15 -0.15)">
       <use xlink:href="#DejaVuSans-30"/>
      </g>
     </g>
    </g>
    <g id="ytick_2">
     <g id="line2d_7">
      <g>
       <use xlink:href="#m00c61a852d" x="61.482813" y="333.203122" style="stroke: #000000; stroke-width: 0.8"/>
      </g>
     </g>
     <g id="text_8">
      <!-- 10 -->
      <g transform="translate(35.395313 338.90195) scale(0.15 -0.15)">
       <defs>
        <path id="DejaVuSans-31" d="M 794 531 
L 1825 531 
L 1825 4091 
L 703 3866 
L 703 4441 
L 1819 4666 
L 2450 4666 
L 2450 531 
L 3481 531 
L 3481 0 
L 794 0 
L 794 531 
z
" transform="scale(0.015625)"/>
       </defs>
       <use xlink:href="#DejaVuSans-31"/>
       <use xlink:href="#DejaVuSans-30" x="63.623047"/>
      </g>
     </g>
    </g>
    <g id="ytick_3">
     <g id="line2d_8">
      <g>
       <use xlink:href="#m00c61a852d" x="61.482813" y="289.921107" style="stroke: #000000; stroke-width: 0.8"/>
      </g>
     </g>
     <g id="text_9">
      <!-- 20 -->
      <g transform="translate(35.395313 295.619935) scale(0.15 -0.15)">
       <use xlink:href="#DejaVuSans-32"/>
       <use xlink:href="#DejaVuSans-30" x="63.623047"/>
      </g>
     </g>
    </g>
    <g id="ytick_4">
     <g id="line2d_9">
      <g>
       <use xlink:href="#m00c61a852d" x="61.482813" y="246.639092" style="stroke: #000000; stroke-width: 0.8"/>
      </g>
     </g>
     <g id="text_10">
      <!-- 30 -->
      <g transform="translate(35.395313 252.33792) scale(0.15 -0.15)">
       <defs>
        <path id="DejaVuSans-33" d="M 2597 2516 
Q 3050 2419 3304 2112 
Q 3559 1806 3559 1356 
Q 3559 666 3084 287 
Q 2609 -91 1734 -91 
Q 1441 -91 1130 -33 
Q 819 25 488 141 
L 488 750 
Q 750 597 1062 519 
Q 1375 441 1716 441 
Q 2309 441 2620 675 
Q 2931 909 2931 1356 
Q 2931 1769 2642 2001 
Q 2353 2234 1838 2234 
L 1294 2234 
L 1294 2753 
L 1863 2753 
Q 2328 2753 2575 2939 
Q 2822 3125 2822 3475 
Q 2822 3834 2567 4026 
Q 2313 4219 1838 4219 
Q 1578 4219 1281 4162 
Q 984 4106 628 3988 
L 628 4550 
Q 988 4650 1302 4700 
Q 1616 4750 1894 4750 
Q 2613 4750 3031 4423 
Q 3450 4097 3450 3541 
Q 3450 3153 3228 2886 
Q 3006 2619 2597 2516 
z
" transform="scale(0.015625)"/>
       </defs>
       <use xlink:href="#DejaVuSans-33"/>
       <use xlink:href="#DejaVuSans-30" x="63.623047"/>
      </g>
     </g>
    </g>
    <g id="ytick_5">
     <g id="line2d_10">
      <g>
       <use xlink:href="#m00c61a852d" x="61.482813" y="203.357077" style="stroke: #000000; stroke-width: 0.8"/>
      </g>
     </g>
     <g id="text_11">
      <!-- 40 -->
      <g transform="translate(35.395313 209.055905) scale(0.15 -0.15)">
       <use xlink:href="#DejaVuSans-34"/>
       <use xlink:href="#DejaVuSans-30" x="63.623047"/>
      </g>
     </g>
    </g>
    <g id="ytick_6">
     <g id="line2d_11">
      <g>
       <use xlink:href="#m00c61a852d" x="61.482813" y="160.075062" style="stroke: #000000; stroke-width: 0.8"/>
      </g>
     </g>
     <g id="text_12">
      <!-- 50 -->
      <g transform="translate(35.395313 165.77389) scale(0.15 -0.15)">
       <defs>
        <path id="DejaVuSans-35" d="M 691 4666 
L 3169 4666 
L 3169 4134 
L 1269 4134 
L 1269 2991 
Q 1406 3038 1543 3061 
Q 1681 3084 1819 3084 
Q 2600 3084 3056 2656 
Q 3513 2228 3513 1497 
Q 3513 744 3044 326 
Q 2575 -91 1722 -91 
Q 1428 -91 1123 -41 
Q 819 9 494 109 
L 494 744 
Q 775 591 1075 516 
Q 1375 441 1709 441 
Q 2250 441 2565 725 
Q 2881 1009 2881 1497 
Q 2881 1984 2565 2268 
Q 2250 2553 1709 2553 
Q 1456 2553 1204 2497 
Q 953 2441 691 2322 
L 691 4666 
z
" transform="scale(0.015625)"/>
       </defs>
       <use xlink:href="#DejaVuSans-35"/>
       <use xlink:href="#DejaVuSans-30" x="63.623047"/>
      </g>
     </g>
    </g>
    <g id="ytick_7">
     <g id="line2d_12">
      <g>
       <use xlink:href="#m00c61a852d" x="61.482813" y="116.793047" style="stroke: #000000; stroke-width: 0.8"/>
      </g>
     </g>
     <g id="text_13">
      <!-- 60 -->
      <g transform="translate(35.395313 122.491875) scale(0.15 -0.15)">
       <use xlink:href="#DejaVuSans-36"/>
       <use xlink:href="#DejaVuSans-30" x="63.623047"/>
      </g>
     </g>
    </g>
    <g id="ytick_8">
     <g id="line2d_13">
      <g>
       <use xlink:href="#m00c61a852d" x="61.482813" y="73.511032" style="stroke: #000000; stroke-width: 0.8"/>
      </g>
     </g>
     <g id="text_14">
      <!-- 70 -->
      <g transform="translate(35.395313 79.20986) scale(0.15 -0.15)">
       <defs>
        <path id="DejaVuSans-37" d="M 525 4666 
L 3525 4666 
L 3525 4397 
L 1831 0 
L 1172 0 
L 2766 4134 
L 525 4134 
L 525 4666 
z
" transform="scale(0.015625)"/>
       </defs>
       <use xlink:href="#DejaVuSans-37"/>
       <use xlink:href="#DejaVuSans-30" x="63.623047"/>
      </g>
     </g>
    </g>
    <g id="text_15">
     <!-- # Interacting authors -->
     <g transform="translate(26.196094 363.552848) rotate(-90) scale(0.25 -0.25)">
      <defs>
       <path id="DejaVuSans-49" d="M 628 4666 
L 1259 4666 
L 1259 0 
L 628 0 
L 628 4666 
z
" transform="scale(0.015625)"/>
       <path id="DejaVuSans-6e" d="M 3513 2113 
L 3513 0 
L 2938 0 
L 2938 2094 
Q 2938 2591 2744 2837 
Q 2550 3084 2163 3084 
Q 1697 3084 1428 2787 
Q 1159 2491 1159 1978 
L 1159 0 
L 581 0 
L 581 3500 
L 1159 3500 
L 1159 2956 
Q 1366 3272 1645 3428 
Q 1925 3584 2291 3584 
Q 2894 3584 3203 3211 
Q 3513 2838 3513 2113 
z
" transform="scale(0.015625)"/>
       <path id="DejaVuSans-65" d="M 3597 1894 
L 3597 1613 
L 953 1613 
Q 991 1019 1311 708 
Q 1631 397 2203 397 
Q 2534 397 2845 478 
Q 3156 559 3463 722 
L 3463 178 
Q 3153 47 2828 -22 
Q 2503 -91 2169 -91 
Q 1331 -91 842 396 
Q 353 884 353 1716 
Q 353 2575 817 3079 
Q 1281 3584 2069 3584 
Q 2775 3584 3186 3129 
Q 3597 2675 3597 1894 
z
M 3022 2063 
Q 3016 2534 2758 2815 
Q 2500 3097 2075 3097 
Q 1594 3097 1305 2825 
Q 1016 2553 972 2059 
L 3022 2063 
z
" transform="scale(0.015625)"/>
       <path id="DejaVuSans-72" d="M 2631 2963 
Q 2534 3019 2420 3045 
Q 2306 3072 2169 3072 
Q 1681 3072 1420 2755 
Q 1159 2438 1159 1844 
L 1159 0 
L 581 0 
L 581 3500 
L 1159 3500 
L 1159 2956 
Q 1341 3275 1631 3429 
Q 1922 3584 2338 3584 
Q 2397 3584 2469 3576 
Q 2541 3569 2628 3553 
L 2631 2963 
z
" transform="scale(0.015625)"/>
       <path id="DejaVuSans-61" d="M 2194 1759 
Q 1497 1759 1228 1600 
Q 959 1441 959 1056 
Q 959 750 1161 570 
Q 1363 391 1709 391 
Q 2188 391 2477 730 
Q 2766 1069 2766 1631 
L 2766 1759 
L 2194 1759 
z
M 3341 1997 
L 3341 0 
L 2766 0 
L 2766 531 
Q 2569 213 2275 61 
Q 1981 -91 1556 -91 
Q 1019 -91 701 211 
Q 384 513 384 1019 
Q 384 1609 779 1909 
Q 1175 2209 1959 2209 
L 2766 2209 
L 2766 2266 
Q 2766 2663 2505 2880 
Q 2244 3097 1772 3097 
Q 1472 3097 1187 3025 
Q 903 2953 641 2809 
L 641 3341 
Q 956 3463 1253 3523 
Q 1550 3584 1831 3584 
Q 2591 3584 2966 3190 
Q 3341 2797 3341 1997 
z
" transform="scale(0.015625)"/>
       <path id="DejaVuSans-63" d="M 3122 3366 
L 3122 2828 
Q 2878 2963 2633 3030 
Q 2388 3097 2138 3097 
Q 1578 3097 1268 2742 
Q 959 2388 959 1747 
Q 959 1106 1268 751 
Q 1578 397 2138 397 
Q 2388 397 2633 464 
Q 2878 531 3122 666 
L 3122 134 
Q 2881 22 2623 -34 
Q 2366 -91 2075 -91 
Q 1284 -91 818 406 
Q 353 903 353 1747 
Q 353 2603 823 3093 
Q 1294 3584 2113 3584 
Q 2378 3584 2631 3529 
Q 2884 3475 3122 3366 
z
" transform="scale(0.015625)"/>
       <path id="DejaVuSans-67" d="M 2906 1791 
Q 2906 2416 2648 2759 
Q 2391 3103 1925 3103 
Q 1463 3103 1205 2759 
Q 947 2416 947 1791 
Q 947 1169 1205 825 
Q 1463 481 1925 481 
Q 2391 481 2648 825 
Q 2906 1169 2906 1791 
z
M 3481 434 
Q 3481 -459 3084 -895 
Q 2688 -1331 1869 -1331 
Q 1566 -1331 1297 -1286 
Q 1028 -1241 775 -1147 
L 775 -588 
Q 1028 -725 1275 -790 
Q 1522 -856 1778 -856 
Q 2344 -856 2625 -561 
Q 2906 -266 2906 331 
L 2906 616 
Q 2728 306 2450 153 
Q 2172 0 1784 0 
Q 1141 0 747 490 
Q 353 981 353 1791 
Q 353 2603 747 3093 
Q 1141 3584 1784 3584 
Q 2172 3584 2450 3431 
Q 2728 3278 2906 2969 
L 2906 3500 
L 3481 3500 
L 3481 434 
z
" transform="scale(0.015625)"/>
       <path id="DejaVuSans-75" d="M 544 1381 
L 544 3500 
L 1119 3500 
L 1119 1403 
Q 1119 906 1312 657 
Q 1506 409 1894 409 
Q 2359 409 2629 706 
Q 2900 1003 2900 1516 
L 2900 3500 
L 3475 3500 
L 3475 0 
L 2900 0 
L 2900 538 
Q 2691 219 2414 64 
Q 2138 -91 1772 -91 
Q 1169 -91 856 284 
Q 544 659 544 1381 
z
M 1991 3584 
L 1991 3584 
z
" transform="scale(0.015625)"/>
       <path id="DejaVuSans-68" d="M 3513 2113 
L 3513 0 
L 2938 0 
L 2938 2094 
Q 2938 2591 2744 2837 
Q 2550 3084 2163 3084 
Q 1697 3084 1428 2787 
Q 1159 2491 1159 1978 
L 1159 0 
L 581 0 
L 581 4863 
L 1159 4863 
L 1159 2956 
Q 1366 3272 1645 3428 
Q 1925 3584 2291 3584 
Q 2894 3584 3203 3211 
Q 3513 2838 3513 2113 
z
" transform="scale(0.015625)"/>
      </defs>
      <use xlink:href="#DejaVuSans-23"/>
      <use xlink:href="#DejaVuSans-20" x="83.789062"/>
      <use xlink:href="#DejaVuSans-49" x="115.576172"/>
      <use xlink:href="#DejaVuSans-6e" x="145.068359"/>
      <use xlink:href="#DejaVuSans-74" x="208.447266"/>
      <use xlink:href="#DejaVuSans-65" x="247.65625"/>
      <use xlink:href="#DejaVuSans-72" x="309.179688"/>
      <use xlink:href="#DejaVuSans-61" x="350.292969"/>
      <use xlink:href="#DejaVuSans-63" x="411.572266"/>
      <use xlink:href="#DejaVuSans-74" x="466.552734"/>
      <use xlink:href="#DejaVuSans-69" x="505.761719"/>
      <use xlink:href="#DejaVuSans-6e" x="533.544922"/>
      <use xlink:href="#DejaVuSans-67" x="596.923828"/>
      <use xlink:href="#DejaVuSans-20" x="660.400391"/>
      <use xlink:href="#DejaVuSans-61" x="692.1875"/>
      <use xlink:href="#DejaVuSans-75" x="753.466797"/>
      <use xlink:href="#DejaVuSans-74" x="816.845703"/>
      <use xlink:href="#DejaVuSans-68" x="856.054688"/>
      <use xlink:href="#DejaVuSans-6f" x="919.433594"/>
      <use xlink:href="#DejaVuSans-72" x="980.615234"/>
      <use xlink:href="#DejaVuSans-73" x="1021.728516"/>
     </g>
    </g>
   </g>
   <g id="patch_3">
    <path d="M 61.482813 386.44 
L 61.482813 72.212571 
" style="fill: none; stroke: #000000; stroke-width: 0.8; stroke-linejoin: miter; stroke-linecap: square"/>
   </g>
   <g id="patch_4">
    <path d="M 61.482813 386.44 
L 373.54767 386.44 
" style="fill: none; stroke: #000000; stroke-width: 0.8; stroke-linejoin: miter; stroke-linecap: square"/>
   </g>
  </g>
  <g id="axes_2">
   <g id="patch_5">
    <path d="M 61.482813 61.377143 
L 373.54767 61.377143 
L 373.54767 7.2 
L 61.482813 7.2 
z
" style="fill: #ffffff"/>
   </g>
   <g id="PolyCollection_1">
    <defs>
     <path id="m960212ad8c" d="M 7.747173 -382.475144 
L 7.747173 -381.975357 
L 9.855394 -381.975357 
L 11.963616 -381.975357 
L 14.071838 -381.975357 
L 16.18006 -381.975357 
L 18.288282 -381.975357 
L 20.396503 -381.975357 
L 22.504725 -381.975357 
L 24.612947 -381.975357 
L 26.721169 -381.975357 
L 28.829391 -381.975357 
L 30.937612 -381.975357 
L 33.045834 -381.975357 
L 35.154056 -381.975357 
L 37.262278 -381.975357 
L 39.370499 -381.975357 
L 41.478721 -381.975357 
L 43.586943 -381.975357 
L 45.695165 -381.975357 
L 47.803387 -381.975357 
L 49.911608 -381.975357 
L 52.01983 -381.975357 
L 54.128052 -381.975357 
L 56.236274 -381.975357 
L 58.344496 -381.975357 
L 60.452717 -381.975357 
L 62.560939 -381.975357 
L 64.669161 -381.975357 
L 66.777383 -381.975357 
L 68.885605 -381.975357 
L 70.993826 -381.975357 
L 73.102048 -381.975357 
L 75.21027 -381.975357 
L 77.318492 -381.975357 
L 79.426714 -381.975357 
L 81.534935 -381.975357 
L 83.643157 -381.975357 
L 85.751379 -381.975357 
L 87.859601 -381.975357 
L 89.967823 -381.975357 
L 92.076044 -381.975357 
L 94.184266 -381.975357 
L 96.292488 -381.975357 
L 98.40071 -381.975357 
L 100.508932 -381.975357 
L 102.617153 -381.975357 
L 104.725375 -381.975357 
L 106.833597 -381.975357 
L 108.941819 -381.975357 
L 111.05004 -381.975357 
L 113.158262 -381.975357 
L 115.266484 -381.975357 
L 117.374706 -381.975357 
L 119.482928 -381.975357 
L 121.591149 -381.975357 
L 123.699371 -381.975357 
L 125.807593 -381.975357 
L 127.915815 -381.975357 
L 130.024037 -381.975357 
L 132.132258 -381.975357 
L 134.24048 -381.975357 
L 136.348702 -381.975357 
L 138.456924 -381.975357 
L 140.565146 -381.975357 
L 142.673367 -381.975357 
L 144.781589 -381.975357 
L 146.889811 -381.975357 
L 148.998033 -381.975357 
L 151.106255 -381.975357 
L 153.214476 -381.975357 
L 155.322698 -381.975357 
L 157.43092 -381.975357 
L 159.539142 -381.975357 
L 161.647364 -381.975357 
L 163.755585 -381.975357 
L 165.863807 -381.975357 
L 167.972029 -381.975357 
L 170.080251 -381.975357 
L 172.188472 -381.975357 
L 174.296694 -381.975357 
L 176.404916 -381.975357 
L 178.513138 -381.975357 
L 180.62136 -381.975357 
L 182.729581 -381.975357 
L 184.837803 -381.975357 
L 186.946025 -381.975357 
L 189.054247 -381.975357 
L 191.162469 -381.975357 
L 193.27069 -381.975357 
L 195.378912 -381.975357 
L 197.487134 -381.975357 
L 199.595356 -381.975357 
L 201.703578 -381.975357 
L 203.811799 -381.975357 
L 205.920021 -381.975357 
L 208.028243 -381.975357 
L 210.136465 -381.975357 
L 212.244687 -381.975357 
L 214.352908 -381.975357 
L 216.46113 -381.975357 
L 218.569352 -381.975357 
L 220.677574 -381.975357 
L 222.785796 -381.975357 
L 224.894017 -381.975357 
L 227.002239 -381.975357 
L 229.110461 -381.975357 
L 231.218683 -381.975357 
L 233.326905 -381.975357 
L 235.435126 -381.975357 
L 237.543348 -381.975357 
L 239.65157 -381.975357 
L 241.759792 -381.975357 
L 243.868013 -381.975357 
L 245.976235 -381.975357 
L 248.084457 -381.975357 
L 250.192679 -381.975357 
L 252.300901 -381.975357 
L 254.409122 -381.975357 
L 256.517344 -381.975357 
L 258.625566 -381.975357 
L 260.733788 -381.975357 
L 262.84201 -381.975357 
L 264.950231 -381.975357 
L 267.058453 -381.975357 
L 269.166675 -381.975357 
L 271.274897 -381.975357 
L 273.383119 -381.975357 
L 275.49134 -381.975357 
L 277.599562 -381.975357 
L 279.707784 -381.975357 
L 281.816006 -381.975357 
L 283.924228 -381.975357 
L 286.032449 -381.975357 
L 288.140671 -381.975357 
L 290.248893 -381.975357 
L 292.357115 -381.975357 
L 294.465337 -381.975357 
L 296.573558 -381.975357 
L 298.68178 -381.975357 
L 300.790002 -381.975357 
L 302.898224 -381.975357 
L 305.006446 -381.975357 
L 307.114667 -381.975357 
L 309.222889 -381.975357 
L 311.331111 -381.975357 
L 313.439333 -381.975357 
L 315.547554 -381.975357 
L 317.655776 -381.975357 
L 319.763998 -381.975357 
L 321.87222 -381.975357 
L 323.980442 -381.975357 
L 326.088663 -381.975357 
L 328.196885 -381.975357 
L 330.305107 -381.975357 
L 332.413329 -381.975357 
L 334.521551 -381.975357 
L 336.629772 -381.975357 
L 338.737994 -381.975357 
L 340.846216 -381.975357 
L 342.954438 -381.975357 
L 345.06266 -381.975357 
L 347.170881 -381.975357 
L 349.279103 -381.975357 
L 351.387325 -381.975357 
L 353.495547 -381.975357 
L 355.603769 -381.975357 
L 357.71199 -381.975357 
L 359.820212 -381.975357 
L 361.928434 -381.975357 
L 364.036656 -381.975357 
L 366.144878 -381.975357 
L 368.253099 -381.975357 
L 370.361321 -381.975357 
L 372.469543 -381.975357 
L 374.577765 -381.975357 
L 376.685987 -381.975357 
L 378.794208 -381.975357 
L 380.90243 -381.975357 
L 383.010652 -381.975357 
L 385.118874 -381.975357 
L 387.227095 -381.975357 
L 389.335317 -381.975357 
L 391.443539 -381.975357 
L 393.551761 -381.975357 
L 395.659983 -381.975357 
L 397.768204 -381.975357 
L 399.876426 -381.975357 
L 401.984648 -381.975357 
L 404.09287 -381.975357 
L 406.201092 -381.975357 
L 408.309313 -381.975357 
L 410.417535 -381.975357 
L 412.525757 -381.975357 
L 414.633979 -381.975357 
L 416.742201 -381.975357 
L 418.850422 -381.975357 
L 420.958644 -381.975357 
L 423.066866 -381.975357 
L 425.175088 -381.975357 
L 427.28331 -381.975357 
L 427.28331 -381.991772 
L 427.28331 -381.991772 
L 425.175088 -381.996968 
L 423.066866 -382.003564 
L 420.958644 -382.011855 
L 418.850422 -382.022174 
L 416.742201 -382.034893 
L 414.633979 -382.050414 
L 412.525757 -382.069165 
L 410.417535 -382.091587 
L 408.309313 -382.118125 
L 406.201092 -382.149208 
L 404.09287 -382.185232 
L 401.984648 -382.226532 
L 399.876426 -382.273364 
L 397.768204 -382.325875 
L 395.659983 -382.38408 
L 393.551761 -382.447835 
L 391.443539 -382.51682 
L 389.335317 -382.590519 
L 387.227095 -382.668216 
L 385.118874 -382.748989 
L 383.010652 -382.831721 
L 380.90243 -382.915116 
L 378.794208 -382.997728 
L 376.685987 -383.077999 
L 374.577765 -383.154306 
L 372.469543 -383.225011 
L 370.361321 -383.28852 
L 368.253099 -383.343343 
L 366.144878 -383.388151 
L 364.036656 -383.42183 
L 361.928434 -383.443526 
L 359.820212 -383.452681 
L 357.71199 -383.449059 
L 355.603769 -383.432754 
L 353.495547 -383.404186 
L 351.387325 -383.364083 
L 349.279103 -383.313453 
L 347.170881 -383.253538 
L 345.06266 -383.185764 
L 342.954438 -383.111687 
L 340.846216 -383.032934 
L 338.737994 -382.951141 
L 336.629772 -382.867901 
L 334.521551 -382.784713 
L 332.413329 -382.702942 
L 330.305107 -382.623786 
L 328.196885 -382.548252 
L 326.088663 -382.477146 
L 323.980442 -382.411072 
L 321.87222 -382.350432 
L 319.763998 -382.295443 
L 317.655776 -382.246158 
L 315.547554 -382.202484 
L 313.439333 -382.164208 
L 311.331111 -382.131027 
L 309.222889 -382.102569 
L 307.114667 -382.078415 
L 305.006446 -382.058126 
L 302.898224 -382.041258 
L 300.790002 -382.027375 
L 298.68178 -382.016061 
L 296.573558 -382.006934 
L 294.465337 -381.999641 
L 292.357115 -381.993872 
L 290.248893 -381.989351 
L 288.140671 -381.985843 
L 286.032449 -381.983147 
L 283.924228 -381.981093 
L 281.816006 -381.979545 
L 279.707784 -381.978388 
L 277.599562 -381.977532 
L 275.49134 -381.976904 
L 273.383119 -381.976448 
L 271.274897 -381.97612 
L 269.166675 -381.975886 
L 267.058453 -381.97572 
L 264.950231 -381.975605 
L 262.84201 -381.975524 
L 260.733788 -381.975469 
L 258.625566 -381.975431 
L 256.517344 -381.975406 
L 254.409122 -381.975389 
L 252.300901 -381.975378 
L 250.192679 -381.97537 
L 248.084457 -381.975366 
L 245.976235 -381.975362 
L 243.868013 -381.97536 
L 241.759792 -381.975359 
L 239.65157 -381.975358 
L 237.543348 -381.975358 
L 235.435126 -381.975358 
L 233.326905 -381.975357 
L 231.218683 -381.975357 
L 229.110461 -381.975357 
L 227.002239 -381.975358 
L 224.894017 -381.975358 
L 222.785796 -381.975358 
L 220.677574 -381.975359 
L 218.569352 -381.97536 
L 216.46113 -381.975362 
L 214.352908 -381.975365 
L 212.244687 -381.97537 
L 210.136465 -381.975378 
L 208.028243 -381.97539 
L 205.920021 -381.97541 
L 203.811799 -381.975439 
L 201.703578 -381.975484 
L 199.595356 -381.975552 
L 197.487134 -381.975655 
L 195.378912 -381.975808 
L 193.27069 -381.976035 
L 191.162469 -381.976367 
L 189.054247 -381.976851 
L 186.946025 -381.977549 
L 184.837803 -381.978549 
L 182.729581 -381.979971 
L 180.62136 -381.981977 
L 178.513138 -381.984783 
L 176.404916 -381.988681 
L 174.296694 -381.994053 
L 172.188472 -382.0014 
L 170.080251 -382.011374 
L 167.972029 -382.024812 
L 165.863807 -382.042784 
L 163.755585 -382.066641 
L 161.647364 -382.098077 
L 159.539142 -382.139195 
L 157.43092 -382.192582 
L 155.322698 -382.261391 
L 153.214476 -382.349425 
L 151.106255 -382.461228 
L 148.998033 -382.602167 
L 146.889811 -382.778515 
L 144.781589 -382.997519 
L 142.673367 -383.267441 
L 140.565146 -383.597583 
L 138.456924 -383.998262 
L 136.348702 -384.480742 
L 134.24048 -385.057101 
L 132.132258 -385.740036 
L 130.024037 -386.542584 
L 127.915815 -387.477755 
L 125.807593 -388.558088 
L 123.699371 -389.795111 
L 121.591149 -391.198733 
L 119.482928 -392.776563 
L 117.374706 -394.5332 
L 115.266484 -396.469502 
L 113.158262 -398.581883 
L 111.05004 -400.861677 
L 108.941819 -403.294612 
L 106.833597 -405.860439 
L 104.725375 -408.532771 
L 102.617153 -411.279158 
L 100.508932 -414.061438 
L 98.40071 -416.836374 
L 96.292488 -419.556586 
L 94.184266 -422.171762 
L 92.076044 -424.630111 
L 89.967823 -426.879999 
L 87.859601 -428.871719 
L 85.751379 -430.559295 
L 83.643157 -431.902231 
L 81.534935 -432.867127 
L 79.426714 -433.429057 
L 77.318492 -433.572636 
L 75.21027 -433.292713 
L 73.102048 -432.594643 
L 70.993826 -431.494127 
L 68.885605 -430.016615 
L 66.777383 -428.196312 
L 64.669161 -426.074844 
L 62.560939 -423.699648 
L 60.452717 -421.122182 
L 58.344496 -418.396053 
L 56.236274 -415.575146 
L 54.128052 -412.711866 
L 52.01983 -409.855548 
L 49.911608 -407.051119 
L 47.803387 -404.338054 
L 45.695165 -401.749638 
L 43.586943 -399.312554 
L 41.478721 -397.046782 
L 39.370499 -394.965767 
L 37.262278 -393.076833 
L 35.154056 -391.381776 
L 33.045834 -389.877601 
L 30.937612 -388.557328 
L 28.829391 -387.41084 
L 26.721169 -386.425709 
L 24.612947 -385.587976 
L 22.504725 -384.882855 
L 20.396503 -384.295335 
L 18.288282 -383.810685 
L 16.18006 -383.414842 
L 14.071838 -383.094698 
L 11.963616 -382.838292 
L 9.855394 -382.634915 
L 7.747173 -382.475144 
z
" style="stroke: #1f77b4"/>
    </defs>
    <g clip-path="url(#pa322afd784)">
     <use xlink:href="#m960212ad8c" x="0" y="443.3525" style="fill: #1f77b4; fill-opacity: 0.25; stroke: #1f77b4"/>
    </g>
   </g>
   <g id="matplotlib.axis_3">
    <g id="xtick_6">
     <g id="line2d_14">
      <g>
       <use xlink:href="#m2379c2611b" x="75.300098" y="61.377143" style="stroke: #000000; stroke-width: 0.8"/>
      </g>
     </g>
    </g>
    <g id="xtick_7">
     <g id="line2d_15">
      <g>
       <use xlink:href="#m2379c2611b" x="148.796296" y="61.377143" style="stroke: #000000; stroke-width: 0.8"/>
      </g>
     </g>
    </g>
    <g id="xtick_8">
     <g id="line2d_16">
      <g>
       <use xlink:href="#m2379c2611b" x="222.292494" y="61.377143" style="stroke: #000000; stroke-width: 0.8"/>
      </g>
     </g>
    </g>
    <g id="xtick_9">
     <g id="line2d_17">
      <g>
       <use xlink:href="#m2379c2611b" x="295.788692" y="61.377143" style="stroke: #000000; stroke-width: 0.8"/>
      </g>
     </g>
    </g>
    <g id="xtick_10">
     <g id="line2d_18">
      <g>
       <use xlink:href="#m2379c2611b" x="369.28489" y="61.377143" style="stroke: #000000; stroke-width: 0.8"/>
      </g>
     </g>
    </g>
   </g>
   <g id="matplotlib.axis_4">
    <g id="ytick_9"/>
    <g id="ytick_10"/>
   </g>
   <g id="patch_6">
    <path d="M 61.482813 61.377143 
L 373.54767 61.377143 
" style="fill: none; stroke: #000000; stroke-width: 0.8; stroke-linejoin: miter; stroke-linecap: square"/>
   </g>
  </g>
  <g id="axes_3">
   <g id="patch_7">
    <path d="M 384.308527 386.44 
L 438.112812 386.44 
L 438.112812 72.212571 
L 384.308527 72.212571 
z
" style="fill: #ffffff"/>
   </g>
   <g id="PolyCollection_2">
    <path d="M 384.347078 487.406464 
L 384.308527 487.406464 
L 384.308527 484.812694 
L 384.308527 482.218923 
L 384.308527 479.625153 
L 384.308527 477.031382 
L 384.308527 474.437611 
L 384.308527 471.843841 
L 384.308527 469.25007 
L 384.308527 466.656299 
L 384.308527 464.062529 
L 384.308527 461.468758 
L 384.308527 458.874987 
L 384.308527 456.281217 
L 384.308527 453.687446 
L 384.308527 451.093675 
L 384.308527 448.499905 
L 384.308527 445.906134 
L 384.308527 443.312364 
L 384.308527 440.718593 
L 384.308527 438.124822 
L 384.308527 435.531052 
L 384.308527 432.937281 
L 384.308527 430.34351 
L 384.308527 427.74974 
L 384.308527 425.155969 
L 384.308527 422.562198 
L 384.308527 419.968428 
L 384.308527 417.374657 
L 384.308527 414.780886 
L 384.308527 412.187116 
L 384.308527 409.593345 
L 384.308527 406.999575 
L 384.308527 404.405804 
L 384.308527 401.812033 
L 384.308527 399.218263 
L 384.308527 396.624492 
L 384.308527 394.030721 
L 384.308527 391.436951 
L 384.308527 388.84318 
L 384.308527 386.249409 
L 384.308527 383.655639 
L 384.308527 381.061868 
L 384.308527 378.468098 
L 384.308527 375.874327 
L 384.308527 373.280556 
L 384.308527 370.686786 
L 384.308527 368.093015 
L 384.308527 365.499244 
L 384.308527 362.905474 
L 384.308527 360.311703 
L 384.308527 357.717932 
L 384.308527 355.124162 
L 384.308527 352.530391 
L 384.308527 349.93662 
L 384.308527 347.34285 
L 384.308527 344.749079 
L 384.308527 342.155309 
L 384.308527 339.561538 
L 384.308527 336.967767 
L 384.308527 334.373997 
L 384.308527 331.780226 
L 384.308527 329.186455 
L 384.308527 326.592685 
L 384.308527 323.998914 
L 384.308527 321.405143 
L 384.308527 318.811373 
L 384.308527 316.217602 
L 384.308527 313.623832 
L 384.308527 311.030061 
L 384.308527 308.43629 
L 384.308527 305.84252 
L 384.308527 303.248749 
L 384.308527 300.654978 
L 384.308527 298.061208 
L 384.308527 295.467437 
L 384.308527 292.873666 
L 384.308527 290.279896 
L 384.308527 287.686125 
L 384.308527 285.092354 
L 384.308527 282.498584 
L 384.308527 279.904813 
L 384.308527 277.311043 
L 384.308527 274.717272 
L 384.308527 272.123501 
L 384.308527 269.529731 
L 384.308527 266.93596 
L 384.308527 264.342189 
L 384.308527 261.748419 
L 384.308527 259.154648 
L 384.308527 256.560877 
L 384.308527 253.967107 
L 384.308527 251.373336 
L 384.308527 248.779566 
L 384.308527 246.185795 
L 384.308527 243.592024 
L 384.308527 240.998254 
L 384.308527 238.404483 
L 384.308527 235.810712 
L 384.308527 233.216942 
L 384.308527 230.623171 
L 384.308527 228.0294 
L 384.308527 225.43563 
L 384.308527 222.841859 
L 384.308527 220.248088 
L 384.308527 217.654318 
L 384.308527 215.060547 
L 384.308527 212.466777 
L 384.308527 209.873006 
L 384.308527 207.279235 
L 384.308527 204.685465 
L 384.308527 202.091694 
L 384.308527 199.497923 
L 384.308527 196.904153 
L 384.308527 194.310382 
L 384.308527 191.716611 
L 384.308527 189.122841 
L 384.308527 186.52907 
L 384.308527 183.9353 
L 384.308527 181.341529 
L 384.308527 178.747758 
L 384.308527 176.153988 
L 384.308527 173.560217 
L 384.308527 170.966446 
L 384.308527 168.372676 
L 384.308527 165.778905 
L 384.308527 163.185134 
L 384.308527 160.591364 
L 384.308527 157.997593 
L 384.308527 155.403822 
L 384.308527 152.810052 
L 384.308527 150.216281 
L 384.308527 147.622511 
L 384.308527 145.02874 
L 384.308527 142.434969 
L 384.308527 139.841199 
L 384.308527 137.247428 
L 384.308527 134.653657 
L 384.308527 132.059887 
L 384.308527 129.466116 
L 384.308527 126.872345 
L 384.308527 124.278575 
L 384.308527 121.684804 
L 384.308527 119.091033 
L 384.308527 116.497263 
L 384.308527 113.903492 
L 384.308527 111.309722 
L 384.308527 108.715951 
L 384.308527 106.12218 
L 384.308527 103.52841 
L 384.308527 100.934639 
L 384.308527 98.340868 
L 384.308527 95.747098 
L 384.308527 93.153327 
L 384.308527 90.559556 
L 384.308527 87.965786 
L 384.308527 85.372015 
L 384.308527 82.778245 
L 384.308527 80.184474 
L 384.308527 77.590703 
L 384.308527 74.996933 
L 384.308527 72.403162 
L 384.308527 69.809391 
L 384.308527 67.215621 
L 384.308527 64.62185 
L 384.308527 62.028079 
L 384.308527 59.434309 
L 384.308527 56.840538 
L 384.308527 54.246767 
L 384.308527 51.652997 
L 384.308527 49.059226 
L 384.308527 46.465456 
L 384.308527 43.871685 
L 384.308527 41.277914 
L 384.308527 38.684144 
L 384.308527 36.090373 
L 384.308527 33.496602 
L 384.308527 30.902832 
L 384.308527 28.309061 
L 384.308527 25.71529 
L 384.308527 23.12152 
L 384.308527 20.527749 
L 384.308527 17.933979 
L 384.308527 15.340208 
L 384.308527 12.746437 
L 384.308527 10.152667 
L 384.308527 7.558896 
L 384.308527 4.965125 
L 384.308527 2.371355 
L 384.308527 -0.222416 
L 384.308527 -2.816187 
L 384.308527 -5.409957 
L 384.308527 -8.003728 
L 384.308527 -10.597499 
L 384.308527 -13.191269 
L 384.308527 -15.78504 
L 384.308527 -18.37881 
L 384.308527 -20.972581 
L 384.308527 -23.566352 
L 384.308527 -26.160122 
L 384.308527 -28.753893 
L 384.358194 -28.753893 
L 384.358194 -28.753893 
L 384.370089 -26.160122 
L 384.384538 -23.566352 
L 384.402017 -20.972581 
L 384.423076 -18.37881 
L 384.448346 -15.78504 
L 384.47855 -13.191269 
L 384.514505 -10.597499 
L 384.55714 -8.003728 
L 384.607495 -5.409957 
L 384.666737 -2.816187 
L 384.736164 -0.222416 
L 384.817213 2.371355 
L 384.911464 4.965125 
L 385.02065 7.558896 
L 385.146654 10.152667 
L 385.291517 12.746437 
L 385.45743 15.340208 
L 385.646735 17.933979 
L 385.861918 20.527749 
L 386.105598 23.12152 
L 386.380512 25.71529 
L 386.689501 28.309061 
L 387.035486 30.902832 
L 387.421439 33.496602 
L 387.850358 36.090373 
L 388.325227 38.684144 
L 388.848976 41.277914 
L 389.424441 43.871685 
L 390.054309 46.465456 
L 390.741073 49.059226 
L 391.486972 51.652997 
L 392.293938 54.246767 
L 393.163534 56.840538 
L 394.096902 59.434309 
L 395.0947 62.028079 
L 396.157052 64.62185 
L 397.283497 67.215621 
L 398.472941 69.809391 
L 399.723623 72.403162 
L 401.033083 74.996933 
L 402.398144 77.590703 
L 403.814896 80.184474 
L 405.278708 82.778245 
L 406.784232 85.372015 
L 408.325439 87.965786 
L 409.895653 90.559556 
L 411.487607 93.153327 
L 413.093506 95.747098 
L 414.705107 98.340868 
L 416.313798 100.934639 
L 417.9107 103.52841 
L 419.48676 106.12218 
L 421.032864 108.715951 
L 422.539935 111.309722 
L 423.999049 113.903492 
L 425.401534 116.497263 
L 426.739073 119.091033 
L 428.003798 121.684804 
L 429.188379 124.278575 
L 430.286097 126.872345 
L 431.290917 129.466116 
L 432.197541 132.059887 
L 433.001459 134.653657 
L 433.698976 137.247428 
L 434.287248 139.841199 
L 434.764286 142.434969 
L 435.128974 145.02874 
L 435.38106 147.622511 
L 435.521151 150.216281 
L 435.550704 152.810052 
L 435.472005 155.403822 
L 435.288152 157.997593 
L 435.003032 160.591364 
L 434.621294 163.185134 
L 434.148325 165.778905 
L 433.590218 168.372676 
L 432.953746 170.966446 
L 432.246317 173.560217 
L 431.475946 176.153988 
L 430.651204 178.747758 
L 429.781171 181.341529 
L 428.875378 183.9353 
L 427.943745 186.52907 
L 426.996505 189.122841 
L 426.044124 191.716611 
L 425.097213 194.310382 
L 424.166422 196.904153 
L 423.262339 199.497923 
L 422.39537 202.091694 
L 421.575617 204.685465 
L 420.812755 207.279235 
L 420.115897 209.873006 
L 419.493468 212.466777 
L 418.953072 215.060547 
L 418.50137 217.654318 
L 418.14396 220.248088 
L 417.885268 222.841859 
L 417.72845 225.43563 
L 417.675311 228.0294 
L 417.726237 230.623171 
L 417.88015 233.216942 
L 418.134478 235.810712 
L 418.485158 238.404483 
L 418.926648 240.998254 
L 419.451979 243.592024 
L 420.052816 246.185795 
L 420.71956 248.779566 
L 421.441458 251.373336 
L 422.206746 253.967107 
L 423.002809 256.560877 
L 423.816359 259.154648 
L 424.633631 261.748419 
L 425.440587 264.342189 
L 426.223133 266.93596 
L 426.967337 269.529731 
L 427.659652 272.123501 
L 428.287127 274.717272 
L 428.837617 277.311043 
L 429.299978 279.904813 
L 429.66424 282.498584 
L 429.921766 285.092354 
L 430.065378 287.686125 
L 430.089466 290.279896 
L 429.990055 292.873666 
L 429.764852 295.467437 
L 429.413253 298.061208 
L 428.936318 300.654978 
L 428.336723 303.248749 
L 427.618671 305.84252 
L 426.787785 308.43629 
L 425.850972 311.030061 
L 424.816266 313.623832 
L 423.69266 316.217602 
L 422.489919 318.811373 
L 421.218391 321.405143 
L 419.888812 323.998914 
L 418.512118 326.592685 
L 417.099254 329.186455 
L 415.661005 331.780226 
L 414.20783 334.373997 
L 412.74972 336.967767 
L 411.296074 339.561538 
L 409.855591 342.155309 
L 408.436191 344.749079 
L 407.044952 347.34285 
L 405.688074 349.93662 
L 404.370862 352.530391 
L 403.097725 355.124162 
L 401.872204 357.717932 
L 400.697001 360.311703 
L 399.574032 362.905474 
L 398.504489 365.499244 
L 397.488906 368.093015 
L 396.527236 370.686786 
L 395.618923 373.280556 
L 394.762986 375.874327 
L 393.958092 378.468098 
L 393.202627 381.061868 
L 392.494767 383.655639 
L 391.832538 386.249409 
L 391.213873 388.84318 
L 390.636655 391.436951 
L 390.098765 394.030721 
L 389.598106 396.624492 
L 389.132634 399.218263 
L 388.700375 401.812033 
L 388.299436 404.405804 
L 387.928016 406.999575 
L 387.584406 409.593345 
L 387.266988 412.187116 
L 386.974234 414.780886 
L 386.704698 417.374657 
L 386.457011 419.968428 
L 386.229875 422.562198 
L 386.022053 425.155969 
L 385.832362 427.74974 
L 385.659671 430.34351 
L 385.50289 432.937281 
L 385.360972 435.531052 
L 385.232904 438.124822 
L 385.11771 440.718593 
L 385.014445 443.312364 
L 384.922199 445.906134 
L 384.840098 448.499905 
L 384.767298 451.093675 
L 384.702996 453.687446 
L 384.646424 456.281217 
L 384.596853 458.874987 
L 384.553597 461.468758 
L 384.516008 464.062529 
L 384.483484 466.656299 
L 384.455463 469.25007 
L 384.431427 471.843841 
L 384.4109 474.437611 
L 384.393448 477.031382 
L 384.378677 479.625153 
L 384.366231 482.218923 
L 384.355793 484.812694 
L 384.347078 487.406464 
z
" clip-path="url(#p546ae2f3ef)" style="fill: #1f77b4; fill-opacity: 0.25; stroke: #1f77b4"/>
   </g>
   <g id="matplotlib.axis_5">
    <g id="xtick_11"/>
    <g id="xtick_12"/>
   </g>
   <g id="matplotlib.axis_6">
    <g id="ytick_11">
     <g id="line2d_19">
      <g>
       <use xlink:href="#m00c61a852d" x="384.308527" y="376.485137" style="stroke: #000000; stroke-width: 0.8"/>
      </g>
     </g>
    </g>
    <g id="ytick_12">
     <g id="line2d_20">
      <g>
       <use xlink:href="#m00c61a852d" x="384.308527" y="333.203122" style="stroke: #000000; stroke-width: 0.8"/>
      </g>
     </g>
    </g>
    <g id="ytick_13">
     <g id="line2d_21">
      <g>
       <use xlink:href="#m00c61a852d" x="384.308527" y="289.921107" style="stroke: #000000; stroke-width: 0.8"/>
      </g>
     </g>
    </g>
    <g id="ytick_14">
     <g id="line2d_22">
      <g>
       <use xlink:href="#m00c61a852d" x="384.308527" y="246.639092" style="stroke: #000000; stroke-width: 0.8"/>
      </g>
     </g>
    </g>
    <g id="ytick_15">
     <g id="line2d_23">
      <g>
       <use xlink:href="#m00c61a852d" x="384.308527" y="203.357077" style="stroke: #000000; stroke-width: 0.8"/>
      </g>
     </g>
    </g>
    <g id="ytick_16">
     <g id="line2d_24">
      <g>
       <use xlink:href="#m00c61a852d" x="384.308527" y="160.075062" style="stroke: #000000; stroke-width: 0.8"/>
      </g>
     </g>
    </g>
    <g id="ytick_17">
     <g id="line2d_25">
      <g>
       <use xlink:href="#m00c61a852d" x="384.308527" y="116.793047" style="stroke: #000000; stroke-width: 0.8"/>
      </g>
     </g>
    </g>
    <g id="ytick_18">
     <g id="line2d_26">
      <g>
       <use xlink:href="#m00c61a852d" x="384.308527" y="73.511032" style="stroke: #000000; stroke-width: 0.8"/>
      </g>
     </g>
    </g>
   </g>
   <g id="patch_8">
    <path d="M 384.308527 386.44 
L 384.308527 72.212571 
" style="fill: none; stroke: #000000; stroke-width: 0.8; stroke-linejoin: miter; stroke-linecap: square"/>
   </g>
  </g>
 </g>
 <defs>
  <clipPath id="pe8adc8558a">
   <rect x="61.482813" y="72.212571" width="312.064857" height="314.227429"/>
  </clipPath>
  <clipPath id="pa322afd784">
   <rect x="61.482813" y="7.2" width="312.064857" height="54.177143"/>
  </clipPath>
  <clipPath id="p546ae2f3ef">
   <rect x="384.308527" y="72.212571" width="53.804286" height="314.227429"/>
  </clipPath>
 </defs>
</svg>
