<?xml version="1.0" encoding="utf-8" standalone="no"?>
<!DOCTYPE svg PUBLIC "-//W3C//DTD SVG 1.1//EN"
  "http://www.w3.org/Graphics/SVG/1.1/DTD/svg11.dtd">
<svg xmlns:xlink="http://www.w3.org/1999/xlink" width="272.967188pt" height="405.478125pt" viewBox="0 0 272.967188 405.478125" xmlns="http://www.w3.org/2000/svg" version="1.1">
 <metadata>
  <rdf:RDF xmlns:dc="http://purl.org/dc/elements/1.1/" xmlns:cc="http://creativecommons.org/ns#" xmlns:rdf="http://www.w3.org/1999/02/22-rdf-syntax-ns#">
   <cc:Work>
    <dc:type rdf:resource="http://purl.org/dc/dcmitype/StillImage"/>
    <dc:date>2022-12-09T16:23:14.453689</dc:date>
    <dc:format>image/svg+xml</dc:format>
    <dc:creator>
     <cc:Agent>
      <dc:title>Matplotlib v3.6.2, https://matplotlib.org/</dc:title>
     </cc:Agent>
    </dc:creator>
   </cc:Work>
  </rdf:RDF>
 </metadata>
 <defs>
  <style type="text/css">*{stroke-linejoin: round; stroke-linecap: butt}</style>
 </defs>
 <g id="figure_1">
  <g id="patch_1">
   <path d="M 0 405.478125 
L 272.967187 405.478125 
L 272.967187 0 
L 0 0 
z
" style="fill: #ffffff"/>
  </g>
  <g id="axes_1">
   <g id="patch_2">
    <path d="M 45.139063 381.6 
L 131.539063 381.6 
L 131.539063 7.2 
L 45.139063 7.2 
z
" style="fill: #ffffff"/>
   </g>
   <g id="QuadMesh_1">
    <path d="M 45.139063 7.2 
L 73.939063 7.2 
L 73.939063 36 
L 45.139063 36 
L 45.139063 7.2 
" clip-path="url(#p6faf417bf6)" style="fill: #8eba42; stroke: #ffffff; stroke-width: 0.5"/>
    <path d="M 73.939063 7.2 
L 102.739063 7.2 
L 102.739063 36 
L 73.939063 36 
L 73.939063 7.2 
" clip-path="url(#p6faf417bf6)" style="fill: none; stroke: #ffffff; stroke-width: 0.5"/>
    <path d="M 102.739063 7.2 
L 131.539063 7.2 
L 131.539063 36 
L 102.739063 36 
L 102.739063 7.2 
" clip-path="url(#p6faf417bf6)" style="fill: none; stroke: #ffffff; stroke-width: 0.5"/>
    <path d="M 45.139063 36 
L 73.939063 36 
L 73.939063 64.8 
L 45.139063 64.8 
L 45.139063 36 
" clip-path="url(#p6faf417bf6)" style="fill: none; stroke: #ffffff; stroke-width: 0.5"/>
    <path d="M 73.939063 36 
L 102.739063 36 
L 102.739063 64.8 
L 73.939063 64.8 
L 73.939063 36 
" clip-path="url(#p6faf417bf6)" style="fill: none; stroke: #ffffff; stroke-width: 0.5"/>
    <path d="M 102.739063 36 
L 131.539063 36 
L 131.539063 64.8 
L 102.739063 64.8 
L 102.739063 36 
" clip-path="url(#p6faf417bf6)" style="fill: #8eba42; stroke: #ffffff; stroke-width: 0.5"/>
    <path d="M 45.139063 64.8 
L 73.939063 64.8 
L 73.939063 93.6 
L 45.139063 93.6 
L 45.139063 64.8 
" clip-path="url(#p6faf417bf6)" style="fill: none; stroke: #ffffff; stroke-width: 0.5"/>
    <path d="M 73.939063 64.8 
L 102.739063 64.8 
L 102.739063 93.6 
L 73.939063 93.6 
L 73.939063 64.8 
" clip-path="url(#p6faf417bf6)" style="fill: none; stroke: #ffffff; stroke-width: 0.5"/>
    <path d="M 102.739063 64.8 
L 131.539063 64.8 
L 131.539063 93.6 
L 102.739063 93.6 
L 102.739063 64.8 
" clip-path="url(#p6faf417bf6)" style="fill: #8eba42; stroke: #ffffff; stroke-width: 0.5"/>
    <path d="M 45.139063 93.6 
L 73.939063 93.6 
L 73.939063 122.4 
L 45.139063 122.4 
L 45.139063 93.6 
" clip-path="url(#p6faf417bf6)" style="fill: none; stroke: #ffffff; stroke-width: 0.5"/>
    <path d="M 73.939063 93.6 
L 102.739063 93.6 
L 102.739063 122.4 
L 73.939063 122.4 
L 73.939063 93.6 
" clip-path="url(#p6faf417bf6)" style="fill: none; stroke: #ffffff; stroke-width: 0.5"/>
    <path d="M 102.739063 93.6 
L 131.539063 93.6 
L 131.539063 122.4 
L 102.739063 122.4 
L 102.739063 93.6 
" clip-path="url(#p6faf417bf6)" style="fill: #8eba42; stroke: #ffffff; stroke-width: 0.5"/>
    <path d="M 45.139063 122.4 
L 73.939063 122.4 
L 73.939063 151.2 
L 45.139063 151.2 
L 45.139063 122.4 
" clip-path="url(#p6faf417bf6)" style="fill: none; stroke: #ffffff; stroke-width: 0.5"/>
    <path d="M 73.939063 122.4 
L 102.739063 122.4 
L 102.739063 151.2 
L 73.939063 151.2 
L 73.939063 122.4 
" clip-path="url(#p6faf417bf6)" style="fill: none; stroke: #ffffff; stroke-width: 0.5"/>
    <path d="M 102.739063 122.4 
L 131.539063 122.4 
L 131.539063 151.2 
L 102.739063 151.2 
L 102.739063 122.4 
" clip-path="url(#p6faf417bf6)" style="fill: #8eba42; stroke: #ffffff; stroke-width: 0.5"/>
    <path d="M 45.139063 151.2 
L 73.939063 151.2 
L 73.939063 180 
L 45.139063 180 
L 45.139063 151.2 
" clip-path="url(#p6faf417bf6)" style="fill: none; stroke: #ffffff; stroke-width: 0.5"/>
    <path d="M 73.939063 151.2 
L 102.739063 151.2 
L 102.739063 180 
L 73.939063 180 
L 73.939063 151.2 
" clip-path="url(#p6faf417bf6)" style="fill: none; stroke: #ffffff; stroke-width: 0.5"/>
    <path d="M 102.739063 151.2 
L 131.539063 151.2 
L 131.539063 180 
L 102.739063 180 
L 102.739063 151.2 
" clip-path="url(#p6faf417bf6)" style="fill: #8eba42; stroke: #ffffff; stroke-width: 0.5"/>
    <path d="M 45.139063 180 
L 73.939063 180 
L 73.939063 208.8 
L 45.139063 208.8 
L 45.139063 180 
" clip-path="url(#p6faf417bf6)" style="fill: none; stroke: #ffffff; stroke-width: 0.5"/>
    <path d="M 73.939063 180 
L 102.739063 180 
L 102.739063 208.8 
L 73.939063 208.8 
L 73.939063 180 
" clip-path="url(#p6faf417bf6)" style="fill: none; stroke: #ffffff; stroke-width: 0.5"/>
    <path d="M 102.739063 180 
L 131.539063 180 
L 131.539063 208.8 
L 102.739063 208.8 
L 102.739063 180 
" clip-path="url(#p6faf417bf6)" style="fill: #8eba42; stroke: #ffffff; stroke-width: 0.5"/>
    <path d="M 45.139063 208.8 
L 73.939063 208.8 
L 73.939063 237.6 
L 45.139063 237.6 
L 45.139063 208.8 
" clip-path="url(#p6faf417bf6)" style="fill: none; stroke: #ffffff; stroke-width: 0.5"/>
    <path d="M 73.939063 208.8 
L 102.739063 208.8 
L 102.739063 237.6 
L 73.939063 237.6 
L 73.939063 208.8 
" clip-path="url(#p6faf417bf6)" style="fill: #8eba42; stroke: #ffffff; stroke-width: 0.5"/>
    <path d="M 102.739063 208.8 
L 131.539063 208.8 
L 131.539063 237.6 
L 102.739063 237.6 
L 102.739063 208.8 
" clip-path="url(#p6faf417bf6)" style="fill: none; stroke: #ffffff; stroke-width: 0.5"/>
    <path d="M 45.139063 237.6 
L 73.939063 237.6 
L 73.939063 266.4 
L 45.139063 266.4 
L 45.139063 237.6 
" clip-path="url(#p6faf417bf6)" style="fill: none; stroke: #ffffff; stroke-width: 0.5"/>
    <path d="M 73.939063 237.6 
L 102.739063 237.6 
L 102.739063 266.4 
L 73.939063 266.4 
L 73.939063 237.6 
" clip-path="url(#p6faf417bf6)" style="fill: #8eba42; stroke: #ffffff; stroke-width: 0.5"/>
    <path d="M 102.739063 237.6 
L 131.539063 237.6 
L 131.539063 266.4 
L 102.739063 266.4 
L 102.739063 237.6 
" clip-path="url(#p6faf417bf6)" style="fill: none; stroke: #ffffff; stroke-width: 0.5"/>
    <path d="M 45.139063 266.4 
L 73.939063 266.4 
L 73.939063 295.2 
L 45.139063 295.2 
L 45.139063 266.4 
" clip-path="url(#p6faf417bf6)" style="fill: none; stroke: #ffffff; stroke-width: 0.5"/>
    <path d="M 73.939063 266.4 
L 102.739063 266.4 
L 102.739063 295.2 
L 73.939063 295.2 
L 73.939063 266.4 
" clip-path="url(#p6faf417bf6)" style="fill: none; stroke: #ffffff; stroke-width: 0.5"/>
    <path d="M 102.739063 266.4 
L 131.539063 266.4 
L 131.539063 295.2 
L 102.739063 295.2 
L 102.739063 266.4 
" clip-path="url(#p6faf417bf6)" style="fill: #8eba42; stroke: #ffffff; stroke-width: 0.5"/>
    <path d="M 45.139063 295.2 
L 73.939063 295.2 
L 73.939063 324 
L 45.139063 324 
L 45.139063 295.2 
" clip-path="url(#p6faf417bf6)" style="fill: none; stroke: #ffffff; stroke-width: 0.5"/>
    <path d="M 73.939063 295.2 
L 102.739063 295.2 
L 102.739063 324 
L 73.939063 324 
L 73.939063 295.2 
" clip-path="url(#p6faf417bf6)" style="fill: none; stroke: #ffffff; stroke-width: 0.5"/>
    <path d="M 102.739063 295.2 
L 131.539063 295.2 
L 131.539063 324 
L 102.739063 324 
L 102.739063 295.2 
" clip-path="url(#p6faf417bf6)" style="fill: #8eba42; stroke: #ffffff; stroke-width: 0.5"/>
    <path d="M 45.139063 324 
L 73.939063 324 
L 73.939063 352.8 
L 45.139063 352.8 
L 45.139063 324 
" clip-path="url(#p6faf417bf6)" style="fill: none; stroke: #ffffff; stroke-width: 0.5"/>
    <path d="M 73.939063 324 
L 102.739063 324 
L 102.739063 352.8 
L 73.939063 352.8 
L 73.939063 324 
" clip-path="url(#p6faf417bf6)" style="fill: none; stroke: #ffffff; stroke-width: 0.5"/>
    <path d="M 102.739063 324 
L 131.539063 324 
L 131.539063 352.8 
L 102.739063 352.8 
L 102.739063 324 
" clip-path="url(#p6faf417bf6)" style="fill: #8eba42; stroke: #ffffff; stroke-width: 0.5"/>
    <path d="M 45.139063 352.8 
L 73.939063 352.8 
L 73.939063 381.6 
L 45.139063 381.6 
L 45.139063 352.8 
" clip-path="url(#p6faf417bf6)" style="fill: none; stroke: #ffffff; stroke-width: 0.5"/>
    <path d="M 73.939063 352.8 
L 102.739063 352.8 
L 102.739063 381.6 
L 73.939063 381.6 
L 73.939063 352.8 
" clip-path="url(#p6faf417bf6)" style="fill: none; stroke: #ffffff; stroke-width: 0.5"/>
    <path d="M 102.739063 352.8 
L 131.539063 352.8 
L 131.539063 381.6 
L 102.739063 381.6 
L 102.739063 352.8 
" clip-path="url(#p6faf417bf6)" style="fill: #8eba42; stroke: #ffffff; stroke-width: 0.5"/>
   </g>
   <g id="matplotlib.axis_1">
    <g id="xtick_1">
     <g id="line2d_1">
      <defs>
       <path id="mb17f0d0a6e" d="M 0 0 
L 0 3.5 
" style="stroke: #000000; stroke-width: 0.8"/>
      </defs>
      <g>
       <use xlink:href="#mb17f0d0a6e" x="59.539063" y="381.6" style="stroke: #000000; stroke-width: 0.8"/>
      </g>
     </g>
     <g id="text_1">
      <!-- 2019 -->
      <g transform="translate(46.814063 396.198437) scale(0.1 -0.1)">
       <defs>
        <path id="DejaVuSans-32" d="M 1228 531 
L 3431 531 
L 3431 0 
L 469 0 
L 469 531 
Q 828 903 1448 1529 
Q 2069 2156 2228 2338 
Q 2531 2678 2651 2914 
Q 2772 3150 2772 3378 
Q 2772 3750 2511 3984 
Q 2250 4219 1831 4219 
Q 1534 4219 1204 4116 
Q 875 4013 500 3803 
L 500 4441 
Q 881 4594 1212 4672 
Q 1544 4750 1819 4750 
Q 2544 4750 2975 4387 
Q 3406 4025 3406 3419 
Q 3406 3131 3298 2873 
Q 3191 2616 2906 2266 
Q 2828 2175 2409 1742 
Q 1991 1309 1228 531 
z
" transform="scale(0.015625)"/>
        <path id="DejaVuSans-30" d="M 2034 4250 
Q 1547 4250 1301 3770 
Q 1056 3291 1056 2328 
Q 1056 1369 1301 889 
Q 1547 409 2034 409 
Q 2525 409 2770 889 
Q 3016 1369 3016 2328 
Q 3016 3291 2770 3770 
Q 2525 4250 2034 4250 
z
M 2034 4750 
Q 2819 4750 3233 4129 
Q 3647 3509 3647 2328 
Q 3647 1150 3233 529 
Q 2819 -91 2034 -91 
Q 1250 -91 836 529 
Q 422 1150 422 2328 
Q 422 3509 836 4129 
Q 1250 4750 2034 4750 
z
" transform="scale(0.015625)"/>
        <path id="DejaVuSans-31" d="M 794 531 
L 1825 531 
L 1825 4091 
L 703 3866 
L 703 4441 
L 1819 4666 
L 2450 4666 
L 2450 531 
L 3481 531 
L 3481 0 
L 794 0 
L 794 531 
z
" transform="scale(0.015625)"/>
        <path id="DejaVuSans-39" d="M 703 97 
L 703 672 
Q 941 559 1184 500 
Q 1428 441 1663 441 
Q 2288 441 2617 861 
Q 2947 1281 2994 2138 
Q 2813 1869 2534 1725 
Q 2256 1581 1919 1581 
Q 1219 1581 811 2004 
Q 403 2428 403 3163 
Q 403 3881 828 4315 
Q 1253 4750 1959 4750 
Q 2769 4750 3195 4129 
Q 3622 3509 3622 2328 
Q 3622 1225 3098 567 
Q 2575 -91 1691 -91 
Q 1453 -91 1209 -44 
Q 966 3 703 97 
z
M 1959 2075 
Q 2384 2075 2632 2365 
Q 2881 2656 2881 3163 
Q 2881 3666 2632 3958 
Q 2384 4250 1959 4250 
Q 1534 4250 1286 3958 
Q 1038 3666 1038 3163 
Q 1038 2656 1286 2365 
Q 1534 2075 1959 2075 
z
" transform="scale(0.015625)"/>
       </defs>
       <use xlink:href="#DejaVuSans-32"/>
       <use xlink:href="#DejaVuSans-30" x="63.623047"/>
       <use xlink:href="#DejaVuSans-31" x="127.246094"/>
       <use xlink:href="#DejaVuSans-39" x="190.869141"/>
      </g>
     </g>
    </g>
    <g id="xtick_2">
     <g id="line2d_2">
      <g>
       <use xlink:href="#mb17f0d0a6e" x="88.339063" y="381.6" style="stroke: #000000; stroke-width: 0.8"/>
      </g>
     </g>
     <g id="text_2">
      <!-- 2020 -->
      <g transform="translate(75.614063 396.198437) scale(0.1 -0.1)">
       <use xlink:href="#DejaVuSans-32"/>
       <use xlink:href="#DejaVuSans-30" x="63.623047"/>
       <use xlink:href="#DejaVuSans-32" x="127.246094"/>
       <use xlink:href="#DejaVuSans-30" x="190.869141"/>
      </g>
     </g>
    </g>
    <g id="xtick_3">
     <g id="line2d_3">
      <g>
       <use xlink:href="#mb17f0d0a6e" x="117.139063" y="381.6" style="stroke: #000000; stroke-width: 0.8"/>
      </g>
     </g>
     <g id="text_3">
      <!-- 2021 -->
      <g transform="translate(104.414063 396.198437) scale(0.1 -0.1)">
       <use xlink:href="#DejaVuSans-32"/>
       <use xlink:href="#DejaVuSans-30" x="63.623047"/>
       <use xlink:href="#DejaVuSans-32" x="127.246094"/>
       <use xlink:href="#DejaVuSans-31" x="190.869141"/>
      </g>
     </g>
    </g>
   </g>
   <g id="matplotlib.axis_2">
    <g id="ytick_1">
     <g id="line2d_4">
      <defs>
       <path id="mc5380dc3d1" d="M 0 0 
L -3.5 0 
" style="stroke: #000000; stroke-width: 0.8"/>
      </defs>
      <g>
       <use xlink:href="#mc5380dc3d1" x="45.139063" y="21.6" style="stroke: #000000; stroke-width: 0.8"/>
      </g>
     </g>
     <g id="text_4">
      <!-- bison -->
      <g transform="translate(11.346875 24.359375) scale(0.1 -0.1)">
       <defs>
        <path id="DejaVuSans-62" d="M 3116 1747 
Q 3116 2381 2855 2742 
Q 2594 3103 2138 3103 
Q 1681 3103 1420 2742 
Q 1159 2381 1159 1747 
Q 1159 1113 1420 752 
Q 1681 391 2138 391 
Q 2594 391 2855 752 
Q 3116 1113 3116 1747 
z
M 1159 2969 
Q 1341 3281 1617 3432 
Q 1894 3584 2278 3584 
Q 2916 3584 3314 3078 
Q 3713 2572 3713 1747 
Q 3713 922 3314 415 
Q 2916 -91 2278 -91 
Q 1894 -91 1617 61 
Q 1341 213 1159 525 
L 1159 0 
L 581 0 
L 581 4863 
L 1159 4863 
L 1159 2969 
z
" transform="scale(0.015625)"/>
        <path id="DejaVuSans-69" d="M 603 3500 
L 1178 3500 
L 1178 0 
L 603 0 
L 603 3500 
z
M 603 4863 
L 1178 4863 
L 1178 4134 
L 603 4134 
L 603 4863 
z
" transform="scale(0.015625)"/>
        <path id="DejaVuSans-73" d="M 2834 3397 
L 2834 2853 
Q 2591 2978 2328 3040 
Q 2066 3103 1784 3103 
Q 1356 3103 1142 2972 
Q 928 2841 928 2578 
Q 928 2378 1081 2264 
Q 1234 2150 1697 2047 
L 1894 2003 
Q 2506 1872 2764 1633 
Q 3022 1394 3022 966 
Q 3022 478 2636 193 
Q 2250 -91 1575 -91 
Q 1294 -91 989 -36 
Q 684 19 347 128 
L 347 722 
Q 666 556 975 473 
Q 1284 391 1588 391 
Q 1994 391 2212 530 
Q 2431 669 2431 922 
Q 2431 1156 2273 1281 
Q 2116 1406 1581 1522 
L 1381 1569 
Q 847 1681 609 1914 
Q 372 2147 372 2553 
Q 372 3047 722 3315 
Q 1072 3584 1716 3584 
Q 2034 3584 2315 3537 
Q 2597 3491 2834 3397 
z
" transform="scale(0.015625)"/>
        <path id="DejaVuSans-6f" d="M 1959 3097 
Q 1497 3097 1228 2736 
Q 959 2375 959 1747 
Q 959 1119 1226 758 
Q 1494 397 1959 397 
Q 2419 397 2687 759 
Q 2956 1122 2956 1747 
Q 2956 2369 2687 2733 
Q 2419 3097 1959 3097 
z
M 1959 3584 
Q 2709 3584 3137 3096 
Q 3566 2609 3566 1747 
Q 3566 888 3137 398 
Q 2709 -91 1959 -91 
Q 1206 -91 779 398 
Q 353 888 353 1747 
Q 353 2609 779 3096 
Q 1206 3584 1959 3584 
z
" transform="scale(0.015625)"/>
        <path id="DejaVuSans-6e" d="M 3513 2113 
L 3513 0 
L 2938 0 
L 2938 2094 
Q 2938 2591 2744 2837 
Q 2550 3084 2163 3084 
Q 1697 3084 1428 2787 
Q 1159 2491 1159 1978 
L 1159 0 
L 581 0 
L 581 3500 
L 1159 3500 
L 1159 2956 
Q 1366 3272 1645 3428 
Q 1925 3584 2291 3584 
Q 2894 3584 3203 3211 
Q 3513 2838 3513 2113 
z
" transform="scale(0.015625)"/>
       </defs>
       <use xlink:href="#DejaVuSans-62"/>
       <use xlink:href="#DejaVuSans-69" x="63.476562"/>
       <use xlink:href="#DejaVuSans-73" x="91.259766"/>
       <use xlink:href="#DejaVuSans-6f" x="143.359375"/>
       <use xlink:href="#DejaVuSans-6e" x="204.541016"/>
      </g>
     </g>
    </g>
    <g id="ytick_2">
     <g id="line2d_5">
      <g>
       <use xlink:href="#mc5380dc3d1" x="45.139063" y="50.4" style="stroke: #000000; stroke-width: 0.8"/>
      </g>
     </g>
     <g id="text_5">
      <!-- brotli -->
      <g transform="translate(12.309375 53.159375) scale(0.1 -0.1)">
       <defs>
        <path id="DejaVuSans-72" d="M 2631 2963 
Q 2534 3019 2420 3045 
Q 2306 3072 2169 3072 
Q 1681 3072 1420 2755 
Q 1159 2438 1159 1844 
L 1159 0 
L 581 0 
L 581 3500 
L 1159 3500 
L 1159 2956 
Q 1341 3275 1631 3429 
Q 1922 3584 2338 3584 
Q 2397 3584 2469 3576 
Q 2541 3569 2628 3553 
L 2631 2963 
z
" transform="scale(0.015625)"/>
        <path id="DejaVuSans-74" d="M 1172 4494 
L 1172 3500 
L 2356 3500 
L 2356 3053 
L 1172 3053 
L 1172 1153 
Q 1172 725 1289 603 
Q 1406 481 1766 481 
L 2356 481 
L 2356 0 
L 1766 0 
Q 1100 0 847 248 
Q 594 497 594 1153 
L 594 3053 
L 172 3053 
L 172 3500 
L 594 3500 
L 594 4494 
L 1172 4494 
z
" transform="scale(0.015625)"/>
        <path id="DejaVuSans-6c" d="M 603 4863 
L 1178 4863 
L 1178 0 
L 603 0 
L 603 4863 
z
" transform="scale(0.015625)"/>
       </defs>
       <use xlink:href="#DejaVuSans-62"/>
       <use xlink:href="#DejaVuSans-72" x="63.476562"/>
       <use xlink:href="#DejaVuSans-6f" x="102.339844"/>
       <use xlink:href="#DejaVuSans-74" x="163.521484"/>
       <use xlink:href="#DejaVuSans-6c" x="202.730469"/>
       <use xlink:href="#DejaVuSans-69" x="230.513672"/>
      </g>
     </g>
    </g>
    <g id="ytick_3">
     <g id="line2d_6">
      <g>
       <use xlink:href="#mc5380dc3d1" x="45.139063" y="79.2" style="stroke: #000000; stroke-width: 0.8"/>
      </g>
     </g>
     <g id="text_6">
      <!-- curl -->
      <g transform="translate(19.414063 81.959375) scale(0.1 -0.1)">
       <defs>
        <path id="DejaVuSans-63" d="M 3122 3366 
L 3122 2828 
Q 2878 2963 2633 3030 
Q 2388 3097 2138 3097 
Q 1578 3097 1268 2742 
Q 959 2388 959 1747 
Q 959 1106 1268 751 
Q 1578 397 2138 397 
Q 2388 397 2633 464 
Q 2878 531 3122 666 
L 3122 134 
Q 2881 22 2623 -34 
Q 2366 -91 2075 -91 
Q 1284 -91 818 406 
Q 353 903 353 1747 
Q 353 2603 823 3093 
Q 1294 3584 2113 3584 
Q 2378 3584 2631 3529 
Q 2884 3475 3122 3366 
z
" transform="scale(0.015625)"/>
        <path id="DejaVuSans-75" d="M 544 1381 
L 544 3500 
L 1119 3500 
L 1119 1403 
Q 1119 906 1312 657 
Q 1506 409 1894 409 
Q 2359 409 2629 706 
Q 2900 1003 2900 1516 
L 2900 3500 
L 3475 3500 
L 3475 0 
L 2900 0 
L 2900 538 
Q 2691 219 2414 64 
Q 2138 -91 1772 -91 
Q 1169 -91 856 284 
Q 544 659 544 1381 
z
M 1991 3584 
L 1991 3584 
z
" transform="scale(0.015625)"/>
       </defs>
       <use xlink:href="#DejaVuSans-63"/>
       <use xlink:href="#DejaVuSans-75" x="54.980469"/>
       <use xlink:href="#DejaVuSans-72" x="118.359375"/>
       <use xlink:href="#DejaVuSans-6c" x="159.472656"/>
      </g>
     </g>
    </g>
    <g id="ytick_4">
     <g id="line2d_7">
      <g>
       <use xlink:href="#mc5380dc3d1" x="45.139063" y="108" style="stroke: #000000; stroke-width: 0.8"/>
      </g>
     </g>
     <g id="text_7">
      <!-- grep -->
      <g transform="translate(15.403125 110.759375) scale(0.1 -0.1)">
       <defs>
        <path id="DejaVuSans-67" d="M 2906 1791 
Q 2906 2416 2648 2759 
Q 2391 3103 1925 3103 
Q 1463 3103 1205 2759 
Q 947 2416 947 1791 
Q 947 1169 1205 825 
Q 1463 481 1925 481 
Q 2391 481 2648 825 
Q 2906 1169 2906 1791 
z
M 3481 434 
Q 3481 -459 3084 -895 
Q 2688 -1331 1869 -1331 
Q 1566 -1331 1297 -1286 
Q 1028 -1241 775 -1147 
L 775 -588 
Q 1028 -725 1275 -790 
Q 1522 -856 1778 -856 
Q 2344 -856 2625 -561 
Q 2906 -266 2906 331 
L 2906 616 
Q 2728 306 2450 153 
Q 2172 0 1784 0 
Q 1141 0 747 490 
Q 353 981 353 1791 
Q 353 2603 747 3093 
Q 1141 3584 1784 3584 
Q 2172 3584 2450 3431 
Q 2728 3278 2906 2969 
L 2906 3500 
L 3481 3500 
L 3481 434 
z
" transform="scale(0.015625)"/>
        <path id="DejaVuSans-65" d="M 3597 1894 
L 3597 1613 
L 953 1613 
Q 991 1019 1311 708 
Q 1631 397 2203 397 
Q 2534 397 2845 478 
Q 3156 559 3463 722 
L 3463 178 
Q 3153 47 2828 -22 
Q 2503 -91 2169 -91 
Q 1331 -91 842 396 
Q 353 884 353 1716 
Q 353 2575 817 3079 
Q 1281 3584 2069 3584 
Q 2775 3584 3186 3129 
Q 3597 2675 3597 1894 
z
M 3022 2063 
Q 3016 2534 2758 2815 
Q 2500 3097 2075 3097 
Q 1594 3097 1305 2825 
Q 1016 2553 972 2059 
L 3022 2063 
z
" transform="scale(0.015625)"/>
        <path id="DejaVuSans-70" d="M 1159 525 
L 1159 -1331 
L 581 -1331 
L 581 3500 
L 1159 3500 
L 1159 2969 
Q 1341 3281 1617 3432 
Q 1894 3584 2278 3584 
Q 2916 3584 3314 3078 
Q 3713 2572 3713 1747 
Q 3713 922 3314 415 
Q 2916 -91 2278 -91 
Q 1894 -91 1617 61 
Q 1341 213 1159 525 
z
M 3116 1747 
Q 3116 2381 2855 2742 
Q 2594 3103 2138 3103 
Q 1681 3103 1420 2742 
Q 1159 2381 1159 1747 
Q 1159 1113 1420 752 
Q 1681 391 2138 391 
Q 2594 391 2855 752 
Q 3116 1113 3116 1747 
z
" transform="scale(0.015625)"/>
       </defs>
       <use xlink:href="#DejaVuSans-67"/>
       <use xlink:href="#DejaVuSans-72" x="63.476562"/>
       <use xlink:href="#DejaVuSans-65" x="102.339844"/>
       <use xlink:href="#DejaVuSans-70" x="163.863281"/>
      </g>
     </g>
    </g>
    <g id="ytick_5">
     <g id="line2d_8">
      <g>
       <use xlink:href="#mc5380dc3d1" x="45.139063" y="136.8" style="stroke: #000000; stroke-width: 0.8"/>
      </g>
     </g>
     <g id="text_8">
      <!-- gzip -->
      <g transform="translate(17.415625 139.559375) scale(0.1 -0.1)">
       <defs>
        <path id="DejaVuSans-7a" d="M 353 3500 
L 3084 3500 
L 3084 2975 
L 922 459 
L 3084 459 
L 3084 0 
L 275 0 
L 275 525 
L 2438 3041 
L 353 3041 
L 353 3500 
z
" transform="scale(0.015625)"/>
       </defs>
       <use xlink:href="#DejaVuSans-67"/>
       <use xlink:href="#DejaVuSans-7a" x="63.476562"/>
       <use xlink:href="#DejaVuSans-69" x="115.966797"/>
       <use xlink:href="#DejaVuSans-70" x="143.75"/>
      </g>
     </g>
    </g>
    <g id="ytick_6">
     <g id="line2d_9">
      <g>
       <use xlink:href="#mc5380dc3d1" x="45.139063" y="165.6" style="stroke: #000000; stroke-width: 0.8"/>
      </g>
     </g>
     <g id="text_9">
      <!-- htop -->
      <g transform="translate(15.414063 168.359375) scale(0.1 -0.1)">
       <defs>
        <path id="DejaVuSans-68" d="M 3513 2113 
L 3513 0 
L 2938 0 
L 2938 2094 
Q 2938 2591 2744 2837 
Q 2550 3084 2163 3084 
Q 1697 3084 1428 2787 
Q 1159 2491 1159 1978 
L 1159 0 
L 581 0 
L 581 4863 
L 1159 4863 
L 1159 2956 
Q 1366 3272 1645 3428 
Q 1925 3584 2291 3584 
Q 2894 3584 3203 3211 
Q 3513 2838 3513 2113 
z
" transform="scale(0.015625)"/>
       </defs>
       <use xlink:href="#DejaVuSans-68"/>
       <use xlink:href="#DejaVuSans-74" x="63.378906"/>
       <use xlink:href="#DejaVuSans-6f" x="102.587891"/>
       <use xlink:href="#DejaVuSans-70" x="163.769531"/>
      </g>
     </g>
    </g>
    <g id="ytick_7">
     <g id="line2d_10">
      <g>
       <use xlink:href="#mc5380dc3d1" x="45.139063" y="194.4" style="stroke: #000000; stroke-width: 0.8"/>
      </g>
     </g>
     <g id="text_10">
      <!-- libpng -->
      <g transform="translate(7.2 197.159375) scale(0.1 -0.1)">
       <use xlink:href="#DejaVuSans-6c"/>
       <use xlink:href="#DejaVuSans-69" x="27.783203"/>
       <use xlink:href="#DejaVuSans-62" x="55.566406"/>
       <use xlink:href="#DejaVuSans-70" x="119.042969"/>
       <use xlink:href="#DejaVuSans-6e" x="182.519531"/>
       <use xlink:href="#DejaVuSans-67" x="245.898438"/>
      </g>
     </g>
    </g>
    <g id="ytick_8">
     <g id="line2d_11">
      <g>
       <use xlink:href="#mc5380dc3d1" x="45.139063" y="223.2" style="stroke: #000000; stroke-width: 0.8"/>
      </g>
     </g>
     <g id="text_11">
      <!-- libssh -->
      <g transform="translate(9.478125 225.959375) scale(0.1 -0.1)">
       <use xlink:href="#DejaVuSans-6c"/>
       <use xlink:href="#DejaVuSans-69" x="27.783203"/>
       <use xlink:href="#DejaVuSans-62" x="55.566406"/>
       <use xlink:href="#DejaVuSans-73" x="119.042969"/>
       <use xlink:href="#DejaVuSans-73" x="171.142578"/>
       <use xlink:href="#DejaVuSans-68" x="223.242188"/>
      </g>
     </g>
    </g>
    <g id="ytick_9">
     <g id="line2d_12">
      <g>
       <use xlink:href="#mc5380dc3d1" x="45.139063" y="252" style="stroke: #000000; stroke-width: 0.8"/>
      </g>
     </g>
     <g id="text_12">
      <!-- libtiff -->
      <g transform="translate(12.495313 254.759375) scale(0.1 -0.1)">
       <defs>
        <path id="DejaVuSans-66" d="M 2375 4863 
L 2375 4384 
L 1825 4384 
Q 1516 4384 1395 4259 
Q 1275 4134 1275 3809 
L 1275 3500 
L 2222 3500 
L 2222 3053 
L 1275 3053 
L 1275 0 
L 697 0 
L 697 3053 
L 147 3053 
L 147 3500 
L 697 3500 
L 697 3744 
Q 697 4328 969 4595 
Q 1241 4863 1831 4863 
L 2375 4863 
z
" transform="scale(0.015625)"/>
       </defs>
       <use xlink:href="#DejaVuSans-6c"/>
       <use xlink:href="#DejaVuSans-69" x="27.783203"/>
       <use xlink:href="#DejaVuSans-62" x="55.566406"/>
       <use xlink:href="#DejaVuSans-74" x="119.042969"/>
       <use xlink:href="#DejaVuSans-69" x="158.251953"/>
       <use xlink:href="#DejaVuSans-66" x="186.035156"/>
       <use xlink:href="#DejaVuSans-66" x="221.240234"/>
      </g>
     </g>
    </g>
    <g id="ytick_10">
     <g id="line2d_13">
      <g>
       <use xlink:href="#mc5380dc3d1" x="45.139063" y="280.8" style="stroke: #000000; stroke-width: 0.8"/>
      </g>
     </g>
     <g id="text_13">
      <!-- lrzip -->
      <g transform="translate(16.875 283.559375) scale(0.1 -0.1)">
       <use xlink:href="#DejaVuSans-6c"/>
       <use xlink:href="#DejaVuSans-72" x="27.783203"/>
       <use xlink:href="#DejaVuSans-7a" x="68.896484"/>
       <use xlink:href="#DejaVuSans-69" x="121.386719"/>
       <use xlink:href="#DejaVuSans-70" x="149.169922"/>
      </g>
     </g>
    </g>
    <g id="ytick_11">
     <g id="line2d_14">
      <g>
       <use xlink:href="#mc5380dc3d1" x="45.139063" y="309.6" style="stroke: #000000; stroke-width: 0.8"/>
      </g>
     </g>
     <g id="text_14">
      <!-- lz4 -->
      <g transform="translate(23.75 312.359375) scale(0.1 -0.1)">
       <defs>
        <path id="DejaVuSans-34" d="M 2419 4116 
L 825 1625 
L 2419 1625 
L 2419 4116 
z
M 2253 4666 
L 3047 4666 
L 3047 1625 
L 3713 1625 
L 3713 1100 
L 3047 1100 
L 3047 0 
L 2419 0 
L 2419 1100 
L 313 1100 
L 313 1709 
L 2253 4666 
z
" transform="scale(0.015625)"/>
       </defs>
       <use xlink:href="#DejaVuSans-6c"/>
       <use xlink:href="#DejaVuSans-7a" x="27.783203"/>
       <use xlink:href="#DejaVuSans-34" x="80.273438"/>
      </g>
     </g>
    </g>
    <g id="ytick_12">
     <g id="line2d_15">
      <g>
       <use xlink:href="#mc5380dc3d1" x="45.139063" y="338.4" style="stroke: #000000; stroke-width: 0.8"/>
      </g>
     </g>
     <g id="text_15">
      <!-- opus -->
      <g transform="translate(14.125 341.159375) scale(0.1 -0.1)">
       <use xlink:href="#DejaVuSans-6f"/>
       <use xlink:href="#DejaVuSans-70" x="61.181641"/>
       <use xlink:href="#DejaVuSans-75" x="124.658203"/>
       <use xlink:href="#DejaVuSans-73" x="188.037109"/>
      </g>
     </g>
    </g>
    <g id="ytick_13">
     <g id="line2d_16">
      <g>
       <use xlink:href="#mc5380dc3d1" x="45.139063" y="367.2" style="stroke: #000000; stroke-width: 0.8"/>
      </g>
     </g>
     <g id="text_16">
      <!-- xz -->
      <g transform="translate(26.971875 369.959375) scale(0.1 -0.1)">
       <defs>
        <path id="DejaVuSans-78" d="M 3513 3500 
L 2247 1797 
L 3578 0 
L 2900 0 
L 1881 1375 
L 863 0 
L 184 0 
L 1544 1831 
L 300 3500 
L 978 3500 
L 1906 2253 
L 2834 3500 
L 3513 3500 
z
" transform="scale(0.015625)"/>
       </defs>
       <use xlink:href="#DejaVuSans-78"/>
       <use xlink:href="#DejaVuSans-7a" x="59.179688"/>
      </g>
     </g>
    </g>
   </g>
   <g id="text_17">
    <!-- 1/0 -->
    <g style="fill: #262626" transform="translate(51.492188 18.760469) scale(0.1 -0.1)">
     <defs>
      <path id="DejaVuSans-2f" d="M 1625 4666 
L 2156 4666 
L 531 -594 
L 0 -594 
L 1625 4666 
z
" transform="scale(0.015625)"/>
     </defs>
     <use xlink:href="#DejaVuSans-31"/>
     <use xlink:href="#DejaVuSans-2f" x="63.623047"/>
     <use xlink:href="#DejaVuSans-30" x="97.314453"/>
    </g>
    <!-- 1 -->
    <g style="fill: #262626" transform="translate(56.357813 29.958281) scale(0.1 -0.1)">
     <use xlink:href="#DejaVuSans-31"/>
    </g>
   </g>
   <g id="text_18">
    <!-- 1/0 -->
    <g style="fill: #262626" transform="translate(109.092188 47.560469) scale(0.1 -0.1)">
     <use xlink:href="#DejaVuSans-31"/>
     <use xlink:href="#DejaVuSans-2f" x="63.623047"/>
     <use xlink:href="#DejaVuSans-30" x="97.314453"/>
    </g>
    <!-- 1 -->
    <g style="fill: #262626" transform="translate(113.957813 58.758281) scale(0.1 -0.1)">
     <use xlink:href="#DejaVuSans-31"/>
    </g>
   </g>
   <g id="text_19">
    <!-- 1/0 -->
    <g style="fill: #262626" transform="translate(109.092188 76.360469) scale(0.1 -0.1)">
     <use xlink:href="#DejaVuSans-31"/>
     <use xlink:href="#DejaVuSans-2f" x="63.623047"/>
     <use xlink:href="#DejaVuSans-30" x="97.314453"/>
    </g>
    <!-- 1 -->
    <g style="fill: #262626" transform="translate(113.957813 87.558281) scale(0.1 -0.1)">
     <use xlink:href="#DejaVuSans-31"/>
    </g>
   </g>
   <g id="text_20">
    <!-- 1/0 -->
    <g style="fill: #262626" transform="translate(109.092188 105.160469) scale(0.1 -0.1)">
     <use xlink:href="#DejaVuSans-31"/>
     <use xlink:href="#DejaVuSans-2f" x="63.623047"/>
     <use xlink:href="#DejaVuSans-30" x="97.314453"/>
    </g>
    <!-- 1 -->
    <g style="fill: #262626" transform="translate(113.957813 116.358281) scale(0.1 -0.1)">
     <use xlink:href="#DejaVuSans-31"/>
    </g>
   </g>
   <g id="text_21">
    <!-- 1/0 -->
    <g style="fill: #262626" transform="translate(109.092188 133.960469) scale(0.1 -0.1)">
     <use xlink:href="#DejaVuSans-31"/>
     <use xlink:href="#DejaVuSans-2f" x="63.623047"/>
     <use xlink:href="#DejaVuSans-30" x="97.314453"/>
    </g>
    <!-- 1 -->
    <g style="fill: #262626" transform="translate(113.957813 145.158281) scale(0.1 -0.1)">
     <use xlink:href="#DejaVuSans-31"/>
    </g>
   </g>
   <g id="text_22">
    <!-- 1/0 -->
    <g style="fill: #262626" transform="translate(109.092188 162.760469) scale(0.1 -0.1)">
     <use xlink:href="#DejaVuSans-31"/>
     <use xlink:href="#DejaVuSans-2f" x="63.623047"/>
     <use xlink:href="#DejaVuSans-30" x="97.314453"/>
    </g>
    <!-- 1 -->
    <g style="fill: #262626" transform="translate(113.957813 173.958281) scale(0.1 -0.1)">
     <use xlink:href="#DejaVuSans-31"/>
    </g>
   </g>
   <g id="text_23">
    <!-- 1/0 -->
    <g style="fill: #262626" transform="translate(109.092188 191.560469) scale(0.1 -0.1)">
     <use xlink:href="#DejaVuSans-31"/>
     <use xlink:href="#DejaVuSans-2f" x="63.623047"/>
     <use xlink:href="#DejaVuSans-30" x="97.314453"/>
    </g>
    <!-- 1 -->
    <g style="fill: #262626" transform="translate(113.957813 202.758281) scale(0.1 -0.1)">
     <use xlink:href="#DejaVuSans-31"/>
    </g>
   </g>
   <g id="text_24">
    <!-- 1/0 -->
    <g style="fill: #262626" transform="translate(80.292188 220.360469) scale(0.1 -0.1)">
     <use xlink:href="#DejaVuSans-31"/>
     <use xlink:href="#DejaVuSans-2f" x="63.623047"/>
     <use xlink:href="#DejaVuSans-30" x="97.314453"/>
    </g>
    <!-- 1 -->
    <g style="fill: #262626" transform="translate(85.157813 231.558281) scale(0.1 -0.1)">
     <use xlink:href="#DejaVuSans-31"/>
    </g>
   </g>
   <g id="text_25">
    <!-- 1/0 -->
    <g style="fill: #262626" transform="translate(80.292188 249.160469) scale(0.1 -0.1)">
     <use xlink:href="#DejaVuSans-31"/>
     <use xlink:href="#DejaVuSans-2f" x="63.623047"/>
     <use xlink:href="#DejaVuSans-30" x="97.314453"/>
    </g>
    <!-- 1 -->
    <g style="fill: #262626" transform="translate(85.157813 260.358281) scale(0.1 -0.1)">
     <use xlink:href="#DejaVuSans-31"/>
    </g>
   </g>
   <g id="text_26">
    <!-- 1/0 -->
    <g style="fill: #262626" transform="translate(109.092188 277.960469) scale(0.1 -0.1)">
     <use xlink:href="#DejaVuSans-31"/>
     <use xlink:href="#DejaVuSans-2f" x="63.623047"/>
     <use xlink:href="#DejaVuSans-30" x="97.314453"/>
    </g>
    <!-- 1 -->
    <g style="fill: #262626" transform="translate(113.957813 289.158281) scale(0.1 -0.1)">
     <use xlink:href="#DejaVuSans-31"/>
    </g>
   </g>
   <g id="text_27">
    <!-- 1/0 -->
    <g style="fill: #262626" transform="translate(109.092188 306.760469) scale(0.1 -0.1)">
     <use xlink:href="#DejaVuSans-31"/>
     <use xlink:href="#DejaVuSans-2f" x="63.623047"/>
     <use xlink:href="#DejaVuSans-30" x="97.314453"/>
    </g>
    <!-- 1 -->
    <g style="fill: #262626" transform="translate(113.957813 317.958281) scale(0.1 -0.1)">
     <use xlink:href="#DejaVuSans-31"/>
    </g>
   </g>
   <g id="text_28">
    <!-- 1/0 -->
    <g style="fill: #262626" transform="translate(109.092188 335.560469) scale(0.1 -0.1)">
     <use xlink:href="#DejaVuSans-31"/>
     <use xlink:href="#DejaVuSans-2f" x="63.623047"/>
     <use xlink:href="#DejaVuSans-30" x="97.314453"/>
    </g>
    <!-- 1 -->
    <g style="fill: #262626" transform="translate(113.957813 346.758281) scale(0.1 -0.1)">
     <use xlink:href="#DejaVuSans-31"/>
    </g>
   </g>
   <g id="text_29">
    <!-- 1/0 -->
    <g style="fill: #262626" transform="translate(109.092188 364.360469) scale(0.1 -0.1)">
     <use xlink:href="#DejaVuSans-31"/>
     <use xlink:href="#DejaVuSans-2f" x="63.623047"/>
     <use xlink:href="#DejaVuSans-30" x="97.314453"/>
    </g>
    <!-- 1 -->
    <g style="fill: #262626" transform="translate(113.957813 375.558281) scale(0.1 -0.1)">
     <use xlink:href="#DejaVuSans-31"/>
    </g>
   </g>
   <g id="legend_1">
    <g id="patch_3">
     <path d="M 138.539063 59.234375 
L 263.767188 59.234375 
Q 265.767188 59.234375 265.767188 57.234375 
L 265.767188 14.2 
Q 265.767188 12.2 263.767188 12.2 
L 138.539063 12.2 
Q 136.539063 12.2 136.539063 14.2 
L 136.539063 57.234375 
Q 136.539063 59.234375 138.539063 59.234375 
z
" style="fill: #ffffff; opacity: 0.8; stroke: #cccccc; stroke-linejoin: miter"/>
    </g>
    <g id="patch_4">
     <path d="M 140.539063 23.798437 
L 160.539063 23.798437 
L 160.539063 16.798437 
L 140.539063 16.798437 
z
" style="fill: #8eba42"/>
    </g>
    <g id="text_30">
     <!-- Success (top left) -->
     <g transform="translate(168.539063 23.798437) scale(0.1 -0.1)">
      <defs>
       <path id="DejaVuSans-53" d="M 3425 4513 
L 3425 3897 
Q 3066 4069 2747 4153 
Q 2428 4238 2131 4238 
Q 1616 4238 1336 4038 
Q 1056 3838 1056 3469 
Q 1056 3159 1242 3001 
Q 1428 2844 1947 2747 
L 2328 2669 
Q 3034 2534 3370 2195 
Q 3706 1856 3706 1288 
Q 3706 609 3251 259 
Q 2797 -91 1919 -91 
Q 1588 -91 1214 -16 
Q 841 59 441 206 
L 441 856 
Q 825 641 1194 531 
Q 1563 422 1919 422 
Q 2459 422 2753 634 
Q 3047 847 3047 1241 
Q 3047 1584 2836 1778 
Q 2625 1972 2144 2069 
L 1759 2144 
Q 1053 2284 737 2584 
Q 422 2884 422 3419 
Q 422 4038 858 4394 
Q 1294 4750 2059 4750 
Q 2388 4750 2728 4690 
Q 3069 4631 3425 4513 
z
" transform="scale(0.015625)"/>
       <path id="DejaVuSans-20" transform="scale(0.015625)"/>
       <path id="DejaVuSans-28" d="M 1984 4856 
Q 1566 4138 1362 3434 
Q 1159 2731 1159 2009 
Q 1159 1288 1364 580 
Q 1569 -128 1984 -844 
L 1484 -844 
Q 1016 -109 783 600 
Q 550 1309 550 2009 
Q 550 2706 781 3412 
Q 1013 4119 1484 4856 
L 1984 4856 
z
" transform="scale(0.015625)"/>
       <path id="DejaVuSans-29" d="M 513 4856 
L 1013 4856 
Q 1481 4119 1714 3412 
Q 1947 2706 1947 2009 
Q 1947 1309 1714 600 
Q 1481 -109 1013 -844 
L 513 -844 
Q 928 -128 1133 580 
Q 1338 1288 1338 2009 
Q 1338 2731 1133 3434 
Q 928 4138 513 4856 
z
" transform="scale(0.015625)"/>
      </defs>
      <use xlink:href="#DejaVuSans-53"/>
      <use xlink:href="#DejaVuSans-75" x="63.476562"/>
      <use xlink:href="#DejaVuSans-63" x="126.855469"/>
      <use xlink:href="#DejaVuSans-63" x="181.835938"/>
      <use xlink:href="#DejaVuSans-65" x="236.816406"/>
      <use xlink:href="#DejaVuSans-73" x="298.339844"/>
      <use xlink:href="#DejaVuSans-73" x="350.439453"/>
      <use xlink:href="#DejaVuSans-20" x="402.539062"/>
      <use xlink:href="#DejaVuSans-28" x="434.326172"/>
      <use xlink:href="#DejaVuSans-74" x="473.339844"/>
      <use xlink:href="#DejaVuSans-6f" x="512.548828"/>
      <use xlink:href="#DejaVuSans-70" x="573.730469"/>
      <use xlink:href="#DejaVuSans-20" x="637.207031"/>
      <use xlink:href="#DejaVuSans-6c" x="668.994141"/>
      <use xlink:href="#DejaVuSans-65" x="696.777344"/>
      <use xlink:href="#DejaVuSans-66" x="758.300781"/>
      <use xlink:href="#DejaVuSans-74" x="791.755859"/>
      <use xlink:href="#DejaVuSans-29" x="830.964844"/>
     </g>
    </g>
    <g id="patch_5">
     <path d="M 140.539063 38.476562 
L 160.539063 38.476562 
L 160.539063 31.476562 
L 140.539063 31.476562 
z
" style="fill: #348abd"/>
    </g>
    <g id="text_31">
     <!-- Blocked (top right) -->
     <g transform="translate(168.539063 38.476562) scale(0.1 -0.1)">
      <defs>
       <path id="DejaVuSans-42" d="M 1259 2228 
L 1259 519 
L 2272 519 
Q 2781 519 3026 730 
Q 3272 941 3272 1375 
Q 3272 1813 3026 2020 
Q 2781 2228 2272 2228 
L 1259 2228 
z
M 1259 4147 
L 1259 2741 
L 2194 2741 
Q 2656 2741 2882 2914 
Q 3109 3088 3109 3444 
Q 3109 3797 2882 3972 
Q 2656 4147 2194 4147 
L 1259 4147 
z
M 628 4666 
L 2241 4666 
Q 2963 4666 3353 4366 
Q 3744 4066 3744 3513 
Q 3744 3084 3544 2831 
Q 3344 2578 2956 2516 
Q 3422 2416 3680 2098 
Q 3938 1781 3938 1306 
Q 3938 681 3513 340 
Q 3088 0 2303 0 
L 628 0 
L 628 4666 
z
" transform="scale(0.015625)"/>
       <path id="DejaVuSans-6b" d="M 581 4863 
L 1159 4863 
L 1159 1991 
L 2875 3500 
L 3609 3500 
L 1753 1863 
L 3688 0 
L 2938 0 
L 1159 1709 
L 1159 0 
L 581 0 
L 581 4863 
z
" transform="scale(0.015625)"/>
       <path id="DejaVuSans-64" d="M 2906 2969 
L 2906 4863 
L 3481 4863 
L 3481 0 
L 2906 0 
L 2906 525 
Q 2725 213 2448 61 
Q 2172 -91 1784 -91 
Q 1150 -91 751 415 
Q 353 922 353 1747 
Q 353 2572 751 3078 
Q 1150 3584 1784 3584 
Q 2172 3584 2448 3432 
Q 2725 3281 2906 2969 
z
M 947 1747 
Q 947 1113 1208 752 
Q 1469 391 1925 391 
Q 2381 391 2643 752 
Q 2906 1113 2906 1747 
Q 2906 2381 2643 2742 
Q 2381 3103 1925 3103 
Q 1469 3103 1208 2742 
Q 947 2381 947 1747 
z
" transform="scale(0.015625)"/>
      </defs>
      <use xlink:href="#DejaVuSans-42"/>
      <use xlink:href="#DejaVuSans-6c" x="68.603516"/>
      <use xlink:href="#DejaVuSans-6f" x="96.386719"/>
      <use xlink:href="#DejaVuSans-63" x="157.568359"/>
      <use xlink:href="#DejaVuSans-6b" x="212.548828"/>
      <use xlink:href="#DejaVuSans-65" x="266.833984"/>
      <use xlink:href="#DejaVuSans-64" x="328.357422"/>
      <use xlink:href="#DejaVuSans-20" x="391.833984"/>
      <use xlink:href="#DejaVuSans-28" x="423.621094"/>
      <use xlink:href="#DejaVuSans-74" x="462.634766"/>
      <use xlink:href="#DejaVuSans-6f" x="501.84375"/>
      <use xlink:href="#DejaVuSans-70" x="563.025391"/>
      <use xlink:href="#DejaVuSans-20" x="626.501953"/>
      <use xlink:href="#DejaVuSans-72" x="658.289062"/>
      <use xlink:href="#DejaVuSans-69" x="699.402344"/>
      <use xlink:href="#DejaVuSans-67" x="727.185547"/>
      <use xlink:href="#DejaVuSans-68" x="790.662109"/>
      <use xlink:href="#DejaVuSans-74" x="854.041016"/>
      <use xlink:href="#DejaVuSans-29" x="893.25"/>
     </g>
    </g>
    <g id="patch_6">
     <path d="M 140.539063 53.154687 
L 160.539063 53.154687 
L 160.539063 46.154687 
L 140.539063 46.154687 
z
" style="fill: #e24a33"/>
    </g>
    <g id="text_32">
     <!-- Failed/Missing -->
     <g transform="translate(168.539063 53.154687) scale(0.1 -0.1)">
      <defs>
       <path id="DejaVuSans-46" d="M 628 4666 
L 3309 4666 
L 3309 4134 
L 1259 4134 
L 1259 2759 
L 3109 2759 
L 3109 2228 
L 1259 2228 
L 1259 0 
L 628 0 
L 628 4666 
z
" transform="scale(0.015625)"/>
       <path id="DejaVuSans-61" d="M 2194 1759 
Q 1497 1759 1228 1600 
Q 959 1441 959 1056 
Q 959 750 1161 570 
Q 1363 391 1709 391 
Q 2188 391 2477 730 
Q 2766 1069 2766 1631 
L 2766 1759 
L 2194 1759 
z
M 3341 1997 
L 3341 0 
L 2766 0 
L 2766 531 
Q 2569 213 2275 61 
Q 1981 -91 1556 -91 
Q 1019 -91 701 211 
Q 384 513 384 1019 
Q 384 1609 779 1909 
Q 1175 2209 1959 2209 
L 2766 2209 
L 2766 2266 
Q 2766 2663 2505 2880 
Q 2244 3097 1772 3097 
Q 1472 3097 1187 3025 
Q 903 2953 641 2809 
L 641 3341 
Q 956 3463 1253 3523 
Q 1550 3584 1831 3584 
Q 2591 3584 2966 3190 
Q 3341 2797 3341 1997 
z
" transform="scale(0.015625)"/>
       <path id="DejaVuSans-4d" d="M 628 4666 
L 1569 4666 
L 2759 1491 
L 3956 4666 
L 4897 4666 
L 4897 0 
L 4281 0 
L 4281 4097 
L 3078 897 
L 2444 897 
L 1241 4097 
L 1241 0 
L 628 0 
L 628 4666 
z
" transform="scale(0.015625)"/>
      </defs>
      <use xlink:href="#DejaVuSans-46"/>
      <use xlink:href="#DejaVuSans-61" x="48.394531"/>
      <use xlink:href="#DejaVuSans-69" x="109.673828"/>
      <use xlink:href="#DejaVuSans-6c" x="137.457031"/>
      <use xlink:href="#DejaVuSans-65" x="165.240234"/>
      <use xlink:href="#DejaVuSans-64" x="226.763672"/>
      <use xlink:href="#DejaVuSans-2f" x="290.240234"/>
      <use xlink:href="#DejaVuSans-4d" x="323.931641"/>
      <use xlink:href="#DejaVuSans-69" x="410.210938"/>
      <use xlink:href="#DejaVuSans-73" x="437.994141"/>
      <use xlink:href="#DejaVuSans-73" x="490.09375"/>
      <use xlink:href="#DejaVuSans-69" x="542.193359"/>
      <use xlink:href="#DejaVuSans-6e" x="569.976562"/>
      <use xlink:href="#DejaVuSans-67" x="633.355469"/>
     </g>
    </g>
   </g>
  </g>
 </g>
 <defs>
  <clipPath id="p6faf417bf6">
   <rect x="45.139063" y="7.2" width="86.4" height="374.4"/>
  </clipPath>
 </defs>
</svg>
