<?xml version="1.0" encoding="utf-8" standalone="no"?>
<!DOCTYPE svg PUBLIC "-//W3C//DTD SVG 1.1//EN"
  "http://www.w3.org/Graphics/SVG/1.1/DTD/svg11.dtd">
<svg xmlns:xlink="http://www.w3.org/1999/xlink" width="414.641875pt" height="150.288583pt" viewBox="0 0 414.641875 150.288583" xmlns="http://www.w3.org/2000/svg" version="1.1">
 <metadata>
  <rdf:RDF xmlns:dc="http://purl.org/dc/elements/1.1/" xmlns:cc="http://creativecommons.org/ns#" xmlns:rdf="http://www.w3.org/1999/02/22-rdf-syntax-ns#">
   <cc:Work>
    <dc:type rdf:resource="http://purl.org/dc/dcmitype/StillImage"/>
    <dc:date>2022-12-10T11:12:39.385545</dc:date>
    <dc:format>image/svg+xml</dc:format>
    <dc:creator>
     <cc:Agent>
      <dc:title>Matplotlib v3.6.2, https://matplotlib.org/</dc:title>
     </cc:Agent>
    </dc:creator>
   </cc:Work>
  </rdf:RDF>
 </metadata>
 <defs>
  <style type="text/css">*{stroke-linejoin: round; stroke-linecap: butt}</style>
 </defs>
 <g id="figure_1">
  <g id="patch_1">
   <path d="M 0 150.288583 
L 414.641875 150.288583 
L 414.641875 0 
L 0 0 
z
" style="fill: #ffffff"/>
  </g>
  <g id="axes_1">
   <g id="patch_2">
    <path d="M 50.321875 139.332094 
L 407.441875 139.332094 
L 407.441875 32.196094 
L 50.321875 32.196094 
z
" style="fill: #ffffff"/>
   </g>
   <g id="patch_3">
    <path d="M 55.423589 32.196094 
L 96.237304 32.196094 
L 96.237304 32.196094 
L 55.423589 32.196094 
z
" clip-path="url(#pdbcdaed371)" style="fill: #3274a1"/>
   </g>
   <g id="patch_4">
    <path d="M 106.440732 32.196094 
L 147.254446 32.196094 
L 147.254446 32.196094 
L 106.440732 32.196094 
z
" clip-path="url(#pdbcdaed371)" style="fill: #3274a1"/>
   </g>
   <g id="patch_5">
    <path d="M 157.457875 32.196094 
L 198.271589 32.196094 
L 198.271589 32.196094 
L 157.457875 32.196094 
z
" clip-path="url(#pdbcdaed371)" style="fill: #3274a1"/>
   </g>
   <g id="patch_6">
    <path d="M 208.475018 32.196094 
L 249.288732 32.196094 
L 249.288732 32.196094 
L 208.475018 32.196094 
z
" clip-path="url(#pdbcdaed371)" style="fill: #3274a1"/>
   </g>
   <g id="patch_7">
    <path d="M 259.492161 32.196094 
L 300.305875 32.196094 
L 300.305875 32.196094 
L 259.492161 32.196094 
z
" clip-path="url(#pdbcdaed371)" style="fill: #3274a1"/>
   </g>
   <g id="patch_8">
    <path d="M 310.509304 32.196094 
L 351.323018 32.196094 
L 351.323018 32.196094 
L 310.509304 32.196094 
z
" clip-path="url(#pdbcdaed371)" style="fill: #3274a1"/>
   </g>
   <g id="patch_9">
    <path d="M 361.526446 32.196094 
L 402.340161 32.196094 
L 402.340161 32.196094 
L 361.526446 32.196094 
z
" clip-path="url(#pdbcdaed371)" style="fill: #3274a1"/>
   </g>
   <g id="patch_10">
    <path d="M 55.423589 32.196094 
L 96.237304 32.196094 
L 96.237304 49.201808 
L 55.423589 49.201808 
z
" clip-path="url(#pdbcdaed371)" style="fill: #e1812c"/>
   </g>
   <g id="patch_11">
    <path d="M 106.440732 32.196094 
L 147.254446 32.196094 
L 147.254446 134.230379 
L 106.440732 134.230379 
z
" clip-path="url(#pdbcdaed371)" style="fill: #e1812c"/>
   </g>
   <g id="patch_12">
    <path d="M 157.457875 32.196094 
L 198.271589 32.196094 
L 198.271589 49.201808 
L 157.457875 49.201808 
z
" clip-path="url(#pdbcdaed371)" style="fill: #e1812c"/>
   </g>
   <g id="patch_13">
    <path d="M 208.475018 32.196094 
L 249.288732 32.196094 
L 249.288732 49.201808 
L 208.475018 49.201808 
z
" clip-path="url(#pdbcdaed371)" style="fill: #e1812c"/>
   </g>
   <g id="patch_14">
    <path d="M 259.492161 32.196094 
L 300.305875 32.196094 
L 300.305875 49.201808 
L 259.492161 49.201808 
z
" clip-path="url(#pdbcdaed371)" style="fill: #e1812c"/>
   </g>
   <g id="patch_15">
    <path d="M 310.509304 32.196094 
L 351.323018 32.196094 
L 351.323018 49.201808 
L 310.509304 49.201808 
z
" clip-path="url(#pdbcdaed371)" style="fill: #e1812c"/>
   </g>
   <g id="patch_16">
    <path d="M 361.526446 32.196094 
L 402.340161 32.196094 
L 402.340161 49.201808 
L 361.526446 49.201808 
z
" clip-path="url(#pdbcdaed371)" style="fill: #e1812c"/>
   </g>
   <g id="matplotlib.axis_1"/>
   <g id="matplotlib.axis_2">
    <g id="ytick_1">
     <g id="line2d_1">
      <defs>
       <path id="m60608d803c" d="M 0 0 
L -3.5 0 
" style="stroke: #000000; stroke-width: 0.8"/>
      </defs>
      <g>
       <use xlink:href="#m60608d803c" x="50.321875" y="32.196094" style="stroke: #000000; stroke-width: 0.8"/>
      </g>
     </g>
     <g id="text_1">
      <!--    0 -->
      <g transform="translate(7.2 37.934766) scale(0.15 -0.15)">
       <defs>
        <path id="DejaVuSansMono-20" transform="scale(0.015625)"/>
        <path id="DejaVuSansMono-30" d="M 1509 2344 
Q 1509 2516 1629 2641 
Q 1750 2766 1919 2766 
Q 2094 2766 2219 2641 
Q 2344 2516 2344 2344 
Q 2344 2169 2220 2047 
Q 2097 1925 1919 1925 
Q 1744 1925 1626 2044 
Q 1509 2163 1509 2344 
z
M 1925 4250 
Q 1484 4250 1267 3775 
Q 1050 3300 1050 2328 
Q 1050 1359 1267 884 
Q 1484 409 1925 409 
Q 2369 409 2586 884 
Q 2803 1359 2803 2328 
Q 2803 3300 2586 3775 
Q 2369 4250 1925 4250 
z
M 1925 4750 
Q 2672 4750 3055 4137 
Q 3438 3525 3438 2328 
Q 3438 1134 3055 521 
Q 2672 -91 1925 -91 
Q 1178 -91 797 521 
Q 416 1134 416 2328 
Q 416 3525 797 4137 
Q 1178 4750 1925 4750 
z
" transform="scale(0.015625)"/>
       </defs>
       <use xlink:href="#DejaVuSansMono-20"/>
       <use xlink:href="#DejaVuSansMono-20" x="60.205078"/>
       <use xlink:href="#DejaVuSansMono-20" x="120.410156"/>
       <use xlink:href="#DejaVuSansMono-30" x="180.615234"/>
      </g>
     </g>
    </g>
    <g id="ytick_2">
     <g id="line2d_2">
      <g>
       <use xlink:href="#m60608d803c" x="50.321875" y="134.230379" style="stroke: #000000; stroke-width: 0.8"/>
      </g>
     </g>
     <g id="text_2">
      <!--   -6 -->
      <g transform="translate(7.2 139.969051) scale(0.15 -0.15)">
       <defs>
        <path id="DejaVuSansMono-2d" d="M 1113 2009 
L 2741 2009 
L 2741 1497 
L 1113 1497 
L 1113 2009 
z
" transform="scale(0.015625)"/>
        <path id="DejaVuSansMono-36" d="M 3097 4563 
L 3097 3981 
Q 2900 4097 2678 4158 
Q 2456 4219 2216 4219 
Q 1616 4219 1306 3767 
Q 997 3316 997 2438 
Q 1147 2750 1412 2917 
Q 1678 3084 2022 3084 
Q 2697 3084 3067 2670 
Q 3438 2256 3438 1497 
Q 3438 741 3056 325 
Q 2675 -91 1984 -91 
Q 1172 -91 794 492 
Q 416 1075 416 2328 
Q 416 3509 870 4129 
Q 1325 4750 2188 4750 
Q 2419 4750 2650 4701 
Q 2881 4653 3097 4563 
z
M 1972 2591 
Q 1569 2591 1337 2300 
Q 1106 2009 1106 1497 
Q 1106 984 1337 693 
Q 1569 403 1972 403 
Q 2391 403 2603 679 
Q 2816 956 2816 1497 
Q 2816 2041 2603 2316 
Q 2391 2591 1972 2591 
z
" transform="scale(0.015625)"/>
       </defs>
       <use xlink:href="#DejaVuSansMono-20"/>
       <use xlink:href="#DejaVuSansMono-20" x="60.205078"/>
       <use xlink:href="#DejaVuSansMono-2d" x="120.410156"/>
       <use xlink:href="#DejaVuSansMono-36" x="180.615234"/>
      </g>
     </g>
    </g>
   </g>
   <g id="line2d_3">
    <path clip-path="url(#pdbcdaed371)" style="fill: none; stroke: #424242; stroke-width: 2.7; stroke-linecap: square"/>
   </g>
   <g id="line2d_4">
    <path clip-path="url(#pdbcdaed371)" style="fill: none; stroke: #424242; stroke-width: 2.7; stroke-linecap: square"/>
   </g>
   <g id="line2d_5">
    <path clip-path="url(#pdbcdaed371)" style="fill: none; stroke: #424242; stroke-width: 2.7; stroke-linecap: square"/>
   </g>
   <g id="line2d_6">
    <path clip-path="url(#pdbcdaed371)" style="fill: none; stroke: #424242; stroke-width: 2.7; stroke-linecap: square"/>
   </g>
   <g id="line2d_7">
    <path clip-path="url(#pdbcdaed371)" style="fill: none; stroke: #424242; stroke-width: 2.7; stroke-linecap: square"/>
   </g>
   <g id="line2d_8">
    <path clip-path="url(#pdbcdaed371)" style="fill: none; stroke: #424242; stroke-width: 2.7; stroke-linecap: square"/>
   </g>
   <g id="line2d_9">
    <path clip-path="url(#pdbcdaed371)" style="fill: none; stroke: #424242; stroke-width: 2.7; stroke-linecap: square"/>
   </g>
   <g id="line2d_10">
    <path clip-path="url(#pdbcdaed371)" style="fill: none; stroke: #424242; stroke-width: 2.7; stroke-linecap: square"/>
   </g>
   <g id="line2d_11">
    <path clip-path="url(#pdbcdaed371)" style="fill: none; stroke: #424242; stroke-width: 2.7; stroke-linecap: square"/>
   </g>
   <g id="line2d_12">
    <path clip-path="url(#pdbcdaed371)" style="fill: none; stroke: #424242; stroke-width: 2.7; stroke-linecap: square"/>
   </g>
   <g id="line2d_13">
    <path clip-path="url(#pdbcdaed371)" style="fill: none; stroke: #424242; stroke-width: 2.7; stroke-linecap: square"/>
   </g>
   <g id="line2d_14">
    <path clip-path="url(#pdbcdaed371)" style="fill: none; stroke: #424242; stroke-width: 2.7; stroke-linecap: square"/>
   </g>
   <g id="line2d_15">
    <path clip-path="url(#pdbcdaed371)" style="fill: none; stroke: #424242; stroke-width: 2.7; stroke-linecap: square"/>
   </g>
   <g id="line2d_16">
    <path clip-path="url(#pdbcdaed371)" style="fill: none; stroke: #424242; stroke-width: 2.7; stroke-linecap: square"/>
   </g>
   <g id="patch_17">
    <path d="M 50.321875 139.332094 
L 50.321875 32.196094 
" style="fill: none; stroke: #000000; stroke-width: 0.8; stroke-linejoin: miter; stroke-linecap: square"/>
   </g>
   <g id="patch_18">
    <path d="M 407.441875 139.332094 
L 407.441875 32.196094 
" style="fill: none; stroke: #000000; stroke-width: 0.8; stroke-linejoin: miter; stroke-linecap: square"/>
   </g>
   <g id="patch_19">
    <path d="M 50.321875 139.332094 
L 407.441875 139.332094 
" style="fill: none; stroke: #000000; stroke-width: 0.8; stroke-linejoin: miter; stroke-linecap: square"/>
   </g>
   <g id="patch_20">
    <path d="M 50.321875 32.196094 
L 407.441875 32.196094 
" style="fill: none; stroke: #000000; stroke-width: 0.8; stroke-linejoin: miter; stroke-linecap: square"/>
   </g>
   <g id="text_3">
    <!-- xz -->
    <g transform="translate(214.922891 26.196094) scale(0.25 -0.25)">
     <defs>
      <path id="DejaVuSans-78" d="M 3513 3500 
L 2247 1797 
L 3578 0 
L 2900 0 
L 1881 1375 
L 863 0 
L 184 0 
L 1544 1831 
L 300 3500 
L 978 3500 
L 1906 2253 
L 2834 3500 
L 3513 3500 
z
" transform="scale(0.015625)"/>
      <path id="DejaVuSans-7a" d="M 353 3500 
L 3084 3500 
L 3084 2975 
L 922 459 
L 3084 459 
L 3084 0 
L 275 0 
L 275 525 
L 2438 3041 
L 353 3041 
L 353 3500 
z
" transform="scale(0.015625)"/>
     </defs>
     <use xlink:href="#DejaVuSans-78"/>
     <use xlink:href="#DejaVuSans-7a" x="59.179688"/>
    </g>
   </g>
  </g>
 </g>
 <defs>
  <clipPath id="pdbcdaed371">
   <rect x="50.321875" y="32.196094" width="357.12" height="107.136"/>
  </clipPath>
 </defs>
</svg>
