<?xml version="1.0" encoding="utf-8" standalone="no"?>
<!DOCTYPE svg PUBLIC "-//W3C//DTD SVG 1.1//EN"
  "http://www.w3.org/Graphics/SVG/1.1/DTD/svg11.dtd">
<svg xmlns:xlink="http://www.w3.org/1999/xlink" width="440.47375pt" height="438.513437pt" viewBox="0 0 440.47375 438.513437" xmlns="http://www.w3.org/2000/svg" version="1.1">
 <metadata>
  <rdf:RDF xmlns:dc="http://purl.org/dc/elements/1.1/" xmlns:cc="http://creativecommons.org/ns#" xmlns:rdf="http://www.w3.org/1999/02/22-rdf-syntax-ns#">
   <cc:Work>
    <dc:type rdf:resource="http://purl.org/dc/dcmitype/StillImage"/>
    <dc:date>2022-02-23T14:18:34.411581</dc:date>
    <dc:format>image/svg+xml</dc:format>
    <dc:creator>
     <cc:Agent>
      <dc:title>Matplotlib v3.5.1, https://matplotlib.org/</dc:title>
     </cc:Agent>
    </dc:creator>
   </cc:Work>
  </rdf:RDF>
 </metadata>
 <defs>
  <style type="text/css">*{stroke-linejoin: round; stroke-linecap: butt}</style>
 </defs>
 <g id="figure_1">
  <g id="patch_1">
   <path d="M 0 438.513437 
L 440.47375 438.513437 
L 440.47375 0 
L 0 0 
z
" style="fill: #ffffff"/>
  </g>
  <g id="axes_1">
   <g id="patch_2">
    <path d="M 56.64375 386.44 
L 368.708607 386.44 
L 368.708607 72.212571 
L 56.64375 72.212571 
z
" style="fill: #ffffff"/>
   </g>
   <g id="PathCollection_1">
    <defs>
     <path id="m91e6f5e787" d="M 0 4.330127 
C 1.148363 4.330127 2.249847 3.873878 3.061862 3.061862 
C 3.873878 2.249847 4.330127 1.148363 4.330127 0 
C 4.330127 -1.148363 3.873878 -2.249847 3.061862 -3.061862 
C 2.249847 -3.873878 1.148363 -4.330127 0 -4.330127 
C -1.148363 -4.330127 -2.249847 -3.873878 -3.061862 -3.061862 
C -3.873878 -2.249847 -4.330127 -1.148363 -4.330127 0 
C -4.330127 1.148363 -3.873878 2.249847 -3.061862 3.061862 
C -2.249847 3.873878 -1.148363 4.330127 0 4.330127 
z
" style="stroke: #ffffff; stroke-opacity: 0.5; stroke-width: 0.69282"/>
    </defs>
    <g clip-path="url(#p86bde3baba)">
     <use xlink:href="#m91e6f5e787" x="159.210521" y="295.412109" style="fill: #1f77b4; fill-opacity: 0.5; stroke: #ffffff; stroke-opacity: 0.5; stroke-width: 0.69282"/>
     <use xlink:href="#m91e6f5e787" x="85.013282" y="367.893334" style="fill: #1f77b4; fill-opacity: 0.5; stroke: #ffffff; stroke-opacity: 0.5; stroke-width: 0.69282"/>
     <use xlink:href="#m91e6f5e787" x="79.557603" y="367.893334" style="fill: #1f77b4; fill-opacity: 0.5; stroke: #ffffff; stroke-opacity: 0.5; stroke-width: 0.69282"/>
     <use xlink:href="#m91e6f5e787" x="91.560098" y="329.52092" style="fill: #1f77b4; fill-opacity: 0.5; stroke: #ffffff; stroke-opacity: 0.5; stroke-width: 0.69282"/>
     <use xlink:href="#m91e6f5e787" x="215.949586" y="303.939311" style="fill: #1f77b4; fill-opacity: 0.5; stroke: #ffffff; stroke-opacity: 0.5; stroke-width: 0.69282"/>
     <use xlink:href="#m91e6f5e787" x="229.043217" y="308.202913" style="fill: #1f77b4; fill-opacity: 0.5; stroke: #ffffff; stroke-opacity: 0.5; stroke-width: 0.69282"/>
     <use xlink:href="#m91e6f5e787" x="128.658717" y="137.658854" style="fill: #1f77b4; fill-opacity: 0.5; stroke: #ffffff; stroke-opacity: 0.5; stroke-width: 0.69282"/>
     <use xlink:href="#m91e6f5e787" x="263.959564" y="235.721688" style="fill: #1f77b4; fill-opacity: 0.5; stroke: #ffffff; stroke-opacity: 0.5; stroke-width: 0.69282"/>
     <use xlink:href="#m91e6f5e787" x="175.577559" y="295.412109" style="fill: #1f77b4; fill-opacity: 0.5; stroke: #ffffff; stroke-opacity: 0.5; stroke-width: 0.69282"/>
     <use xlink:href="#m91e6f5e787" x="126.476445" y="308.202913" style="fill: #1f77b4; fill-opacity: 0.5; stroke: #ffffff; stroke-opacity: 0.5; stroke-width: 0.69282"/>
     <use xlink:href="#m91e6f5e787" x="101.38032" y="325.257319" style="fill: #1f77b4; fill-opacity: 0.5; stroke: #ffffff; stroke-opacity: 0.5; stroke-width: 0.69282"/>
     <use xlink:href="#m91e6f5e787" x="70.828516" y="359.366131" style="fill: #1f77b4; fill-opacity: 0.5; stroke: #ffffff; stroke-opacity: 0.5; stroke-width: 0.69282"/>
     <use xlink:href="#m91e6f5e787" x="90.468962" y="286.884906" style="fill: #1f77b4; fill-opacity: 0.5; stroke: #ffffff; stroke-opacity: 0.5; stroke-width: 0.69282"/>
     <use xlink:href="#m91e6f5e787" x="77.375331" y="350.838928" style="fill: #1f77b4; fill-opacity: 0.5; stroke: #ffffff; stroke-opacity: 0.5; stroke-width: 0.69282"/>
     <use xlink:href="#m91e6f5e787" x="190.853461" y="86.495636" style="fill: #1f77b4; fill-opacity: 0.5; stroke: #ffffff; stroke-opacity: 0.5; stroke-width: 0.69282"/>
     <use xlink:href="#m91e6f5e787" x="82.831011" y="359.366131" style="fill: #1f77b4; fill-opacity: 0.5; stroke: #ffffff; stroke-opacity: 0.5; stroke-width: 0.69282"/>
     <use xlink:href="#m91e6f5e787" x="131.932125" y="320.993717" style="fill: #1f77b4; fill-opacity: 0.5; stroke: #ffffff; stroke-opacity: 0.5; stroke-width: 0.69282"/>
     <use xlink:href="#m91e6f5e787" x="73.010788" y="355.102529" style="fill: #1f77b4; fill-opacity: 0.5; stroke: #ffffff; stroke-opacity: 0.5; stroke-width: 0.69282"/>
     <use xlink:href="#m91e6f5e787" x="241.045711" y="112.077245" style="fill: #1f77b4; fill-opacity: 0.5; stroke: #ffffff; stroke-opacity: 0.5; stroke-width: 0.69282"/>
     <use xlink:href="#m91e6f5e787" x="83.922147" y="346.575326" style="fill: #1f77b4; fill-opacity: 0.5; stroke: #ffffff; stroke-opacity: 0.5; stroke-width: 0.69282"/>
     <use xlink:href="#m91e6f5e787" x="83.922147" y="367.893334" style="fill: #1f77b4; fill-opacity: 0.5; stroke: #ffffff; stroke-opacity: 0.5; stroke-width: 0.69282"/>
     <use xlink:href="#m91e6f5e787" x="209.402771" y="363.629732" style="fill: #1f77b4; fill-opacity: 0.5; stroke: #ffffff; stroke-opacity: 0.5; stroke-width: 0.69282"/>
     <use xlink:href="#m91e6f5e787" x="117.747358" y="261.303297" style="fill: #1f77b4; fill-opacity: 0.5; stroke: #ffffff; stroke-opacity: 0.5; stroke-width: 0.69282"/>
     <use xlink:href="#m91e6f5e787" x="201.76482" y="312.466514" style="fill: #1f77b4; fill-opacity: 0.5; stroke: #ffffff; stroke-opacity: 0.5; stroke-width: 0.69282"/>
     <use xlink:href="#m91e6f5e787" x="122.111902" y="346.575326" style="fill: #1f77b4; fill-opacity: 0.5; stroke: #ffffff; stroke-opacity: 0.5; stroke-width: 0.69282"/>
     <use xlink:href="#m91e6f5e787" x="73.010788" y="333.784522" style="fill: #1f77b4; fill-opacity: 0.5; stroke: #ffffff; stroke-opacity: 0.5; stroke-width: 0.69282"/>
     <use xlink:href="#m91e6f5e787" x="212.676179" y="248.512492" style="fill: #1f77b4; fill-opacity: 0.5; stroke: #ffffff; stroke-opacity: 0.5; stroke-width: 0.69282"/>
     <use xlink:href="#m91e6f5e787" x="97.015777" y="257.039695" style="fill: #1f77b4; fill-opacity: 0.5; stroke: #ffffff; stroke-opacity: 0.5; stroke-width: 0.69282"/>
     <use xlink:href="#m91e6f5e787" x="94.833505" y="227.194485" style="fill: #1f77b4; fill-opacity: 0.5; stroke: #ffffff; stroke-opacity: 0.5; stroke-width: 0.69282"/>
     <use xlink:href="#m91e6f5e787" x="71.919652" y="342.311725" style="fill: #1f77b4; fill-opacity: 0.5; stroke: #ffffff; stroke-opacity: 0.5; stroke-width: 0.69282"/>
     <use xlink:href="#m91e6f5e787" x="73.010788" y="350.838928" style="fill: #1f77b4; fill-opacity: 0.5; stroke: #ffffff; stroke-opacity: 0.5; stroke-width: 0.69282"/>
     <use xlink:href="#m91e6f5e787" x="71.919652" y="329.52092" style="fill: #1f77b4; fill-opacity: 0.5; stroke: #ffffff; stroke-opacity: 0.5; stroke-width: 0.69282"/>
     <use xlink:href="#m91e6f5e787" x="134.114396" y="291.148507" style="fill: #1f77b4; fill-opacity: 0.5; stroke: #ffffff; stroke-opacity: 0.5; stroke-width: 0.69282"/>
     <use xlink:href="#m91e6f5e787" x="106.836" y="350.838928" style="fill: #1f77b4; fill-opacity: 0.5; stroke: #ffffff; stroke-opacity: 0.5; stroke-width: 0.69282"/>
     <use xlink:href="#m91e6f5e787" x="98.106913" y="346.575326" style="fill: #1f77b4; fill-opacity: 0.5; stroke: #ffffff; stroke-opacity: 0.5; stroke-width: 0.69282"/>
     <use xlink:href="#m91e6f5e787" x="86.104418" y="329.52092" style="fill: #1f77b4; fill-opacity: 0.5; stroke: #ffffff; stroke-opacity: 0.5; stroke-width: 0.69282"/>
     <use xlink:href="#m91e6f5e787" x="95.924641" y="372.156935" style="fill: #1f77b4; fill-opacity: 0.5; stroke: #ffffff; stroke-opacity: 0.5; stroke-width: 0.69282"/>
     <use xlink:href="#m91e6f5e787" x="81.739875" y="363.629732" style="fill: #1f77b4; fill-opacity: 0.5; stroke: #ffffff; stroke-opacity: 0.5; stroke-width: 0.69282"/>
     <use xlink:href="#m91e6f5e787" x="74.101924" y="342.311725" style="fill: #1f77b4; fill-opacity: 0.5; stroke: #ffffff; stroke-opacity: 0.5; stroke-width: 0.69282"/>
     <use xlink:href="#m91e6f5e787" x="152.663706" y="269.8305" style="fill: #1f77b4; fill-opacity: 0.5; stroke: #ffffff; stroke-opacity: 0.5; stroke-width: 0.69282"/>
     <use xlink:href="#m91e6f5e787" x="89.377826" y="286.884906" style="fill: #1f77b4; fill-opacity: 0.5; stroke: #ffffff; stroke-opacity: 0.5; stroke-width: 0.69282"/>
     <use xlink:href="#m91e6f5e787" x="90.468962" y="333.784522" style="fill: #1f77b4; fill-opacity: 0.5; stroke: #ffffff; stroke-opacity: 0.5; stroke-width: 0.69282"/>
     <use xlink:href="#m91e6f5e787" x="154.845978" y="282.621304" style="fill: #1f77b4; fill-opacity: 0.5; stroke: #ffffff; stroke-opacity: 0.5; stroke-width: 0.69282"/>
     <use xlink:href="#m91e6f5e787" x="85.013282" y="99.286441" style="fill: #1f77b4; fill-opacity: 0.5; stroke: #ffffff; stroke-opacity: 0.5; stroke-width: 0.69282"/>
     <use xlink:href="#m91e6f5e787" x="131.932125" y="346.575326" style="fill: #1f77b4; fill-opacity: 0.5; stroke: #ffffff; stroke-opacity: 0.5; stroke-width: 0.69282"/>
     <use xlink:href="#m91e6f5e787" x="76.284196" y="282.621304" style="fill: #1f77b4; fill-opacity: 0.5; stroke: #ffffff; stroke-opacity: 0.5; stroke-width: 0.69282"/>
     <use xlink:href="#m91e6f5e787" x="70.828516" y="363.629732" style="fill: #1f77b4; fill-opacity: 0.5; stroke: #ffffff; stroke-opacity: 0.5; stroke-width: 0.69282"/>
     <use xlink:href="#m91e6f5e787" x="123.203038" y="350.838928" style="fill: #1f77b4; fill-opacity: 0.5; stroke: #ffffff; stroke-opacity: 0.5; stroke-width: 0.69282"/>
     <use xlink:href="#m91e6f5e787" x="70.828516" y="346.575326" style="fill: #1f77b4; fill-opacity: 0.5; stroke: #ffffff; stroke-opacity: 0.5; stroke-width: 0.69282"/>
     <use xlink:href="#m91e6f5e787" x="70.828516" y="372.156935" style="fill: #1f77b4; fill-opacity: 0.5; stroke: #ffffff; stroke-opacity: 0.5; stroke-width: 0.69282"/>
     <use xlink:href="#m91e6f5e787" x="77.375331" y="363.629732" style="fill: #1f77b4; fill-opacity: 0.5; stroke: #ffffff; stroke-opacity: 0.5; stroke-width: 0.69282"/>
     <use xlink:href="#m91e6f5e787" x="88.28669" y="295.412109" style="fill: #1f77b4; fill-opacity: 0.5; stroke: #ffffff; stroke-opacity: 0.5; stroke-width: 0.69282"/>
     <use xlink:href="#m91e6f5e787" x="251.95707" y="320.993717" style="fill: #1f77b4; fill-opacity: 0.5; stroke: #ffffff; stroke-opacity: 0.5; stroke-width: 0.69282"/>
     <use xlink:href="#m91e6f5e787" x="78.466467" y="184.55847" style="fill: #1f77b4; fill-opacity: 0.5; stroke: #ffffff; stroke-opacity: 0.5; stroke-width: 0.69282"/>
     <use xlink:href="#m91e6f5e787" x="70.828516" y="312.466514" style="fill: #1f77b4; fill-opacity: 0.5; stroke: #ffffff; stroke-opacity: 0.5; stroke-width: 0.69282"/>
     <use xlink:href="#m91e6f5e787" x="79.557603" y="355.102529" style="fill: #1f77b4; fill-opacity: 0.5; stroke: #ffffff; stroke-opacity: 0.5; stroke-width: 0.69282"/>
     <use xlink:href="#m91e6f5e787" x="70.828516" y="316.730116" style="fill: #1f77b4; fill-opacity: 0.5; stroke: #ffffff; stroke-opacity: 0.5; stroke-width: 0.69282"/>
     <use xlink:href="#m91e6f5e787" x="103.562592" y="367.893334" style="fill: #1f77b4; fill-opacity: 0.5; stroke: #ffffff; stroke-opacity: 0.5; stroke-width: 0.69282"/>
     <use xlink:href="#m91e6f5e787" x="97.015777" y="257.039695" style="fill: #1f77b4; fill-opacity: 0.5; stroke: #ffffff; stroke-opacity: 0.5; stroke-width: 0.69282"/>
     <use xlink:href="#m91e6f5e787" x="112.291679" y="227.194485" style="fill: #1f77b4; fill-opacity: 0.5; stroke: #ffffff; stroke-opacity: 0.5; stroke-width: 0.69282"/>
     <use xlink:href="#m91e6f5e787" x="83.922147" y="363.629732" style="fill: #1f77b4; fill-opacity: 0.5; stroke: #ffffff; stroke-opacity: 0.5; stroke-width: 0.69282"/>
     <use xlink:href="#m91e6f5e787" x="75.19306" y="363.629732" style="fill: #1f77b4; fill-opacity: 0.5; stroke: #ffffff; stroke-opacity: 0.5; stroke-width: 0.69282"/>
     <use xlink:href="#m91e6f5e787" x="301.058184" y="231.458086" style="fill: #1f77b4; fill-opacity: 0.5; stroke: #ffffff; stroke-opacity: 0.5; stroke-width: 0.69282"/>
     <use xlink:href="#m91e6f5e787" x="237.772303" y="210.140079" style="fill: #1f77b4; fill-opacity: 0.5; stroke: #ffffff; stroke-opacity: 0.5; stroke-width: 0.69282"/>
     <use xlink:href="#m91e6f5e787" x="239.954575" y="320.993717" style="fill: #1f77b4; fill-opacity: 0.5; stroke: #ffffff; stroke-opacity: 0.5; stroke-width: 0.69282"/>
     <use xlink:href="#m91e6f5e787" x="82.831011" y="316.730116" style="fill: #1f77b4; fill-opacity: 0.5; stroke: #ffffff; stroke-opacity: 0.5; stroke-width: 0.69282"/>
     <use xlink:href="#m91e6f5e787" x="86.104418" y="372.156935" style="fill: #1f77b4; fill-opacity: 0.5; stroke: #ffffff; stroke-opacity: 0.5; stroke-width: 0.69282"/>
     <use xlink:href="#m91e6f5e787" x="88.28669" y="257.039695" style="fill: #1f77b4; fill-opacity: 0.5; stroke: #ffffff; stroke-opacity: 0.5; stroke-width: 0.69282"/>
     <use xlink:href="#m91e6f5e787" x="79.557603" y="312.466514" style="fill: #1f77b4; fill-opacity: 0.5; stroke: #ffffff; stroke-opacity: 0.5; stroke-width: 0.69282"/>
     <use xlink:href="#m91e6f5e787" x="71.919652" y="333.784522" style="fill: #1f77b4; fill-opacity: 0.5; stroke: #ffffff; stroke-opacity: 0.5; stroke-width: 0.69282"/>
     <use xlink:href="#m91e6f5e787" x="115.565087" y="269.8305" style="fill: #1f77b4; fill-opacity: 0.5; stroke: #ffffff; stroke-opacity: 0.5; stroke-width: 0.69282"/>
     <use xlink:href="#m91e6f5e787" x="78.466467" y="367.893334" style="fill: #1f77b4; fill-opacity: 0.5; stroke: #ffffff; stroke-opacity: 0.5; stroke-width: 0.69282"/>
     <use xlink:href="#m91e6f5e787" x="76.284196" y="363.629732" style="fill: #1f77b4; fill-opacity: 0.5; stroke: #ffffff; stroke-opacity: 0.5; stroke-width: 0.69282"/>
     <use xlink:href="#m91e6f5e787" x="103.562592" y="359.366131" style="fill: #1f77b4; fill-opacity: 0.5; stroke: #ffffff; stroke-opacity: 0.5; stroke-width: 0.69282"/>
     <use xlink:href="#m91e6f5e787" x="80.648739" y="359.366131" style="fill: #1f77b4; fill-opacity: 0.5; stroke: #ffffff; stroke-opacity: 0.5; stroke-width: 0.69282"/>
     <use xlink:href="#m91e6f5e787" x="71.919652" y="338.048123" style="fill: #1f77b4; fill-opacity: 0.5; stroke: #ffffff; stroke-opacity: 0.5; stroke-width: 0.69282"/>
     <use xlink:href="#m91e6f5e787" x="74.101924" y="359.366131" style="fill: #1f77b4; fill-opacity: 0.5; stroke: #ffffff; stroke-opacity: 0.5; stroke-width: 0.69282"/>
     <use xlink:href="#m91e6f5e787" x="79.557603" y="218.667282" style="fill: #1f77b4; fill-opacity: 0.5; stroke: #ffffff; stroke-opacity: 0.5; stroke-width: 0.69282"/>
     <use xlink:href="#m91e6f5e787" x="77.375331" y="363.629732" style="fill: #1f77b4; fill-opacity: 0.5; stroke: #ffffff; stroke-opacity: 0.5; stroke-width: 0.69282"/>
     <use xlink:href="#m91e6f5e787" x="211.585043" y="184.55847" style="fill: #1f77b4; fill-opacity: 0.5; stroke: #ffffff; stroke-opacity: 0.5; stroke-width: 0.69282"/>
     <use xlink:href="#m91e6f5e787" x="97.015777" y="359.366131" style="fill: #1f77b4; fill-opacity: 0.5; stroke: #ffffff; stroke-opacity: 0.5; stroke-width: 0.69282"/>
     <use xlink:href="#m91e6f5e787" x="76.284196" y="291.148507" style="fill: #1f77b4; fill-opacity: 0.5; stroke: #ffffff; stroke-opacity: 0.5; stroke-width: 0.69282"/>
     <use xlink:href="#m91e6f5e787" x="77.375331" y="367.893334" style="fill: #1f77b4; fill-opacity: 0.5; stroke: #ffffff; stroke-opacity: 0.5; stroke-width: 0.69282"/>
     <use xlink:href="#m91e6f5e787" x="101.38032" y="282.621304" style="fill: #1f77b4; fill-opacity: 0.5; stroke: #ffffff; stroke-opacity: 0.5; stroke-width: 0.69282"/>
     <use xlink:href="#m91e6f5e787" x="151.57257" y="261.303297" style="fill: #1f77b4; fill-opacity: 0.5; stroke: #ffffff; stroke-opacity: 0.5; stroke-width: 0.69282"/>
     <use xlink:href="#m91e6f5e787" x="81.739875" y="312.466514" style="fill: #1f77b4; fill-opacity: 0.5; stroke: #ffffff; stroke-opacity: 0.5; stroke-width: 0.69282"/>
     <use xlink:href="#m91e6f5e787" x="111.200543" y="308.202913" style="fill: #1f77b4; fill-opacity: 0.5; stroke: #ffffff; stroke-opacity: 0.5; stroke-width: 0.69282"/>
     <use xlink:href="#m91e6f5e787" x="83.922147" y="372.156935" style="fill: #1f77b4; fill-opacity: 0.5; stroke: #ffffff; stroke-opacity: 0.5; stroke-width: 0.69282"/>
     <use xlink:href="#m91e6f5e787" x="73.010788" y="320.993717" style="fill: #1f77b4; fill-opacity: 0.5; stroke: #ffffff; stroke-opacity: 0.5; stroke-width: 0.69282"/>
     <use xlink:href="#m91e6f5e787" x="250.865934" y="218.667282" style="fill: #1f77b4; fill-opacity: 0.5; stroke: #ffffff; stroke-opacity: 0.5; stroke-width: 0.69282"/>
     <use xlink:href="#m91e6f5e787" x="82.831011" y="367.893334" style="fill: #1f77b4; fill-opacity: 0.5; stroke: #ffffff; stroke-opacity: 0.5; stroke-width: 0.69282"/>
     <use xlink:href="#m91e6f5e787" x="92.651234" y="359.366131" style="fill: #1f77b4; fill-opacity: 0.5; stroke: #ffffff; stroke-opacity: 0.5; stroke-width: 0.69282"/>
     <use xlink:href="#m91e6f5e787" x="83.922147" y="338.048123" style="fill: #1f77b4; fill-opacity: 0.5; stroke: #ffffff; stroke-opacity: 0.5; stroke-width: 0.69282"/>
     <use xlink:href="#m91e6f5e787" x="90.468962" y="269.8305" style="fill: #1f77b4; fill-opacity: 0.5; stroke: #ffffff; stroke-opacity: 0.5; stroke-width: 0.69282"/>
     <use xlink:href="#m91e6f5e787" x="92.651234" y="367.893334" style="fill: #1f77b4; fill-opacity: 0.5; stroke: #ffffff; stroke-opacity: 0.5; stroke-width: 0.69282"/>
     <use xlink:href="#m91e6f5e787" x="90.468962" y="227.194485" style="fill: #1f77b4; fill-opacity: 0.5; stroke: #ffffff; stroke-opacity: 0.5; stroke-width: 0.69282"/>
     <use xlink:href="#m91e6f5e787" x="107.927136" y="312.466514" style="fill: #1f77b4; fill-opacity: 0.5; stroke: #ffffff; stroke-opacity: 0.5; stroke-width: 0.69282"/>
     <use xlink:href="#m91e6f5e787" x="181.033239" y="350.838928" style="fill: #1f77b4; fill-opacity: 0.5; stroke: #ffffff; stroke-opacity: 0.5; stroke-width: 0.69282"/>
     <use xlink:href="#m91e6f5e787" x="70.828516" y="333.784522" style="fill: #1f77b4; fill-opacity: 0.5; stroke: #ffffff; stroke-opacity: 0.5; stroke-width: 0.69282"/>
     <use xlink:href="#m91e6f5e787" x="76.284196" y="333.784522" style="fill: #1f77b4; fill-opacity: 0.5; stroke: #ffffff; stroke-opacity: 0.5; stroke-width: 0.69282"/>
     <use xlink:href="#m91e6f5e787" x="71.919652" y="367.893334" style="fill: #1f77b4; fill-opacity: 0.5; stroke: #ffffff; stroke-opacity: 0.5; stroke-width: 0.69282"/>
     <use xlink:href="#m91e6f5e787" x="83.922147" y="367.893334" style="fill: #1f77b4; fill-opacity: 0.5; stroke: #ffffff; stroke-opacity: 0.5; stroke-width: 0.69282"/>
     <use xlink:href="#m91e6f5e787" x="118.838494" y="282.621304" style="fill: #1f77b4; fill-opacity: 0.5; stroke: #ffffff; stroke-opacity: 0.5; stroke-width: 0.69282"/>
     <use xlink:href="#m91e6f5e787" x="354.523841" y="141.922456" style="fill: #1f77b4; fill-opacity: 0.5; stroke: #ffffff; stroke-opacity: 0.5; stroke-width: 0.69282"/>
     <use xlink:href="#m91e6f5e787" x="82.831011" y="346.575326" style="fill: #1f77b4; fill-opacity: 0.5; stroke: #ffffff; stroke-opacity: 0.5; stroke-width: 0.69282"/>
     <use xlink:href="#m91e6f5e787" x="89.377826" y="312.466514" style="fill: #1f77b4; fill-opacity: 0.5; stroke: #ffffff; stroke-opacity: 0.5; stroke-width: 0.69282"/>
     <use xlink:href="#m91e6f5e787" x="206.129363" y="235.721688" style="fill: #1f77b4; fill-opacity: 0.5; stroke: #ffffff; stroke-opacity: 0.5; stroke-width: 0.69282"/>
     <use xlink:href="#m91e6f5e787" x="102.471456" y="274.094101" style="fill: #1f77b4; fill-opacity: 0.5; stroke: #ffffff; stroke-opacity: 0.5; stroke-width: 0.69282"/>
     <use xlink:href="#m91e6f5e787" x="154.845978" y="158.976861" style="fill: #1f77b4; fill-opacity: 0.5; stroke: #ffffff; stroke-opacity: 0.5; stroke-width: 0.69282"/>
     <use xlink:href="#m91e6f5e787" x="77.375331" y="239.985289" style="fill: #1f77b4; fill-opacity: 0.5; stroke: #ffffff; stroke-opacity: 0.5; stroke-width: 0.69282"/>
     <use xlink:href="#m91e6f5e787" x="79.557603" y="333.784522" style="fill: #1f77b4; fill-opacity: 0.5; stroke: #ffffff; stroke-opacity: 0.5; stroke-width: 0.69282"/>
     <use xlink:href="#m91e6f5e787" x="87.195554" y="342.311725" style="fill: #1f77b4; fill-opacity: 0.5; stroke: #ffffff; stroke-opacity: 0.5; stroke-width: 0.69282"/>
    </g>
   </g>
   <g id="matplotlib.axis_1">
    <g id="xtick_1">
     <g id="line2d_1">
      <defs>
       <path id="m76cb3a0f45" d="M 0 0 
L 0 3.5 
" style="stroke: #000000; stroke-width: 0.8"/>
      </defs>
      <g>
       <use xlink:href="#m76cb3a0f45" x="69.73738" y="386.44" style="stroke: #000000; stroke-width: 0.8"/>
      </g>
     </g>
     <g id="text_1">
      <!-- 0 -->
      <g transform="translate(64.965505 404.837656)scale(0.15 -0.15)">
       <defs>
        <path id="DejaVuSans-30" d="M 2034 4250 
Q 1547 4250 1301 3770 
Q 1056 3291 1056 2328 
Q 1056 1369 1301 889 
Q 1547 409 2034 409 
Q 2525 409 2770 889 
Q 3016 1369 3016 2328 
Q 3016 3291 2770 3770 
Q 2525 4250 2034 4250 
z
M 2034 4750 
Q 2819 4750 3233 4129 
Q 3647 3509 3647 2328 
Q 3647 1150 3233 529 
Q 2819 -91 2034 -91 
Q 1250 -91 836 529 
Q 422 1150 422 2328 
Q 422 3509 836 4129 
Q 1250 4750 2034 4750 
z
" transform="scale(0.015625)"/>
       </defs>
       <use xlink:href="#DejaVuSans-30"/>
      </g>
     </g>
    </g>
    <g id="xtick_2">
     <g id="line2d_2">
      <g>
       <use xlink:href="#m76cb3a0f45" x="124.294174" y="386.44" style="stroke: #000000; stroke-width: 0.8"/>
      </g>
     </g>
     <g id="text_2">
      <!-- 50 -->
      <g transform="translate(114.750424 404.837656)scale(0.15 -0.15)">
       <defs>
        <path id="DejaVuSans-35" d="M 691 4666 
L 3169 4666 
L 3169 4134 
L 1269 4134 
L 1269 2991 
Q 1406 3038 1543 3061 
Q 1681 3084 1819 3084 
Q 2600 3084 3056 2656 
Q 3513 2228 3513 1497 
Q 3513 744 3044 326 
Q 2575 -91 1722 -91 
Q 1428 -91 1123 -41 
Q 819 9 494 109 
L 494 744 
Q 775 591 1075 516 
Q 1375 441 1709 441 
Q 2250 441 2565 725 
Q 2881 1009 2881 1497 
Q 2881 1984 2565 2268 
Q 2250 2553 1709 2553 
Q 1456 2553 1204 2497 
Q 953 2441 691 2322 
L 691 4666 
z
" transform="scale(0.015625)"/>
       </defs>
       <use xlink:href="#DejaVuSans-35"/>
       <use xlink:href="#DejaVuSans-30" x="63.623047"/>
      </g>
     </g>
    </g>
    <g id="xtick_3">
     <g id="line2d_3">
      <g>
       <use xlink:href="#m76cb3a0f45" x="178.850967" y="386.44" style="stroke: #000000; stroke-width: 0.8"/>
      </g>
     </g>
     <g id="text_3">
      <!-- 100 -->
      <g transform="translate(164.535342 404.837656)scale(0.15 -0.15)">
       <defs>
        <path id="DejaVuSans-31" d="M 794 531 
L 1825 531 
L 1825 4091 
L 703 3866 
L 703 4441 
L 1819 4666 
L 2450 4666 
L 2450 531 
L 3481 531 
L 3481 0 
L 794 0 
L 794 531 
z
" transform="scale(0.015625)"/>
       </defs>
       <use xlink:href="#DejaVuSans-31"/>
       <use xlink:href="#DejaVuSans-30" x="63.623047"/>
       <use xlink:href="#DejaVuSans-30" x="127.246094"/>
      </g>
     </g>
    </g>
    <g id="xtick_4">
     <g id="line2d_4">
      <g>
       <use xlink:href="#m76cb3a0f45" x="233.40776" y="386.44" style="stroke: #000000; stroke-width: 0.8"/>
      </g>
     </g>
     <g id="text_4">
      <!-- 150 -->
      <g transform="translate(219.092135 404.837656)scale(0.15 -0.15)">
       <use xlink:href="#DejaVuSans-31"/>
       <use xlink:href="#DejaVuSans-35" x="63.623047"/>
       <use xlink:href="#DejaVuSans-30" x="127.246094"/>
      </g>
     </g>
    </g>
    <g id="xtick_5">
     <g id="line2d_5">
      <g>
       <use xlink:href="#m76cb3a0f45" x="287.964553" y="386.44" style="stroke: #000000; stroke-width: 0.8"/>
      </g>
     </g>
     <g id="text_5">
      <!-- 200 -->
      <g transform="translate(273.648928 404.837656)scale(0.15 -0.15)">
       <defs>
        <path id="DejaVuSans-32" d="M 1228 531 
L 3431 531 
L 3431 0 
L 469 0 
L 469 531 
Q 828 903 1448 1529 
Q 2069 2156 2228 2338 
Q 2531 2678 2651 2914 
Q 2772 3150 2772 3378 
Q 2772 3750 2511 3984 
Q 2250 4219 1831 4219 
Q 1534 4219 1204 4116 
Q 875 4013 500 3803 
L 500 4441 
Q 881 4594 1212 4672 
Q 1544 4750 1819 4750 
Q 2544 4750 2975 4387 
Q 3406 4025 3406 3419 
Q 3406 3131 3298 2873 
Q 3191 2616 2906 2266 
Q 2828 2175 2409 1742 
Q 1991 1309 1228 531 
z
" transform="scale(0.015625)"/>
       </defs>
       <use xlink:href="#DejaVuSans-32"/>
       <use xlink:href="#DejaVuSans-30" x="63.623047"/>
       <use xlink:href="#DejaVuSans-30" x="127.246094"/>
      </g>
     </g>
    </g>
    <g id="xtick_6">
     <g id="line2d_6">
      <g>
       <use xlink:href="#m76cb3a0f45" x="342.521346" y="386.44" style="stroke: #000000; stroke-width: 0.8"/>
      </g>
     </g>
     <g id="text_6">
      <!-- 250 -->
      <g transform="translate(328.205721 404.837656)scale(0.15 -0.15)">
       <use xlink:href="#DejaVuSans-32"/>
       <use xlink:href="#DejaVuSans-35" x="63.623047"/>
       <use xlink:href="#DejaVuSans-30" x="127.246094"/>
      </g>
     </g>
    </g>
    <g id="text_7">
     <!-- Commit Size -->
     <g transform="translate(149.688679 427.154062)scale(0.2 -0.2)">
      <defs>
       <path id="DejaVuSans-43" d="M 4122 4306 
L 4122 3641 
Q 3803 3938 3442 4084 
Q 3081 4231 2675 4231 
Q 1875 4231 1450 3742 
Q 1025 3253 1025 2328 
Q 1025 1406 1450 917 
Q 1875 428 2675 428 
Q 3081 428 3442 575 
Q 3803 722 4122 1019 
L 4122 359 
Q 3791 134 3420 21 
Q 3050 -91 2638 -91 
Q 1578 -91 968 557 
Q 359 1206 359 2328 
Q 359 3453 968 4101 
Q 1578 4750 2638 4750 
Q 3056 4750 3426 4639 
Q 3797 4528 4122 4306 
z
" transform="scale(0.015625)"/>
       <path id="DejaVuSans-6f" d="M 1959 3097 
Q 1497 3097 1228 2736 
Q 959 2375 959 1747 
Q 959 1119 1226 758 
Q 1494 397 1959 397 
Q 2419 397 2687 759 
Q 2956 1122 2956 1747 
Q 2956 2369 2687 2733 
Q 2419 3097 1959 3097 
z
M 1959 3584 
Q 2709 3584 3137 3096 
Q 3566 2609 3566 1747 
Q 3566 888 3137 398 
Q 2709 -91 1959 -91 
Q 1206 -91 779 398 
Q 353 888 353 1747 
Q 353 2609 779 3096 
Q 1206 3584 1959 3584 
z
" transform="scale(0.015625)"/>
       <path id="DejaVuSans-6d" d="M 3328 2828 
Q 3544 3216 3844 3400 
Q 4144 3584 4550 3584 
Q 5097 3584 5394 3201 
Q 5691 2819 5691 2113 
L 5691 0 
L 5113 0 
L 5113 2094 
Q 5113 2597 4934 2840 
Q 4756 3084 4391 3084 
Q 3944 3084 3684 2787 
Q 3425 2491 3425 1978 
L 3425 0 
L 2847 0 
L 2847 2094 
Q 2847 2600 2669 2842 
Q 2491 3084 2119 3084 
Q 1678 3084 1418 2786 
Q 1159 2488 1159 1978 
L 1159 0 
L 581 0 
L 581 3500 
L 1159 3500 
L 1159 2956 
Q 1356 3278 1631 3431 
Q 1906 3584 2284 3584 
Q 2666 3584 2933 3390 
Q 3200 3197 3328 2828 
z
" transform="scale(0.015625)"/>
       <path id="DejaVuSans-69" d="M 603 3500 
L 1178 3500 
L 1178 0 
L 603 0 
L 603 3500 
z
M 603 4863 
L 1178 4863 
L 1178 4134 
L 603 4134 
L 603 4863 
z
" transform="scale(0.015625)"/>
       <path id="DejaVuSans-74" d="M 1172 4494 
L 1172 3500 
L 2356 3500 
L 2356 3053 
L 1172 3053 
L 1172 1153 
Q 1172 725 1289 603 
Q 1406 481 1766 481 
L 2356 481 
L 2356 0 
L 1766 0 
Q 1100 0 847 248 
Q 594 497 594 1153 
L 594 3053 
L 172 3053 
L 172 3500 
L 594 3500 
L 594 4494 
L 1172 4494 
z
" transform="scale(0.015625)"/>
       <path id="DejaVuSans-20" transform="scale(0.015625)"/>
       <path id="DejaVuSans-53" d="M 3425 4513 
L 3425 3897 
Q 3066 4069 2747 4153 
Q 2428 4238 2131 4238 
Q 1616 4238 1336 4038 
Q 1056 3838 1056 3469 
Q 1056 3159 1242 3001 
Q 1428 2844 1947 2747 
L 2328 2669 
Q 3034 2534 3370 2195 
Q 3706 1856 3706 1288 
Q 3706 609 3251 259 
Q 2797 -91 1919 -91 
Q 1588 -91 1214 -16 
Q 841 59 441 206 
L 441 856 
Q 825 641 1194 531 
Q 1563 422 1919 422 
Q 2459 422 2753 634 
Q 3047 847 3047 1241 
Q 3047 1584 2836 1778 
Q 2625 1972 2144 2069 
L 1759 2144 
Q 1053 2284 737 2584 
Q 422 2884 422 3419 
Q 422 4038 858 4394 
Q 1294 4750 2059 4750 
Q 2388 4750 2728 4690 
Q 3069 4631 3425 4513 
z
" transform="scale(0.015625)"/>
       <path id="DejaVuSans-7a" d="M 353 3500 
L 3084 3500 
L 3084 2975 
L 922 459 
L 3084 459 
L 3084 0 
L 275 0 
L 275 525 
L 2438 3041 
L 353 3041 
L 353 3500 
z
" transform="scale(0.015625)"/>
       <path id="DejaVuSans-65" d="M 3597 1894 
L 3597 1613 
L 953 1613 
Q 991 1019 1311 708 
Q 1631 397 2203 397 
Q 2534 397 2845 478 
Q 3156 559 3463 722 
L 3463 178 
Q 3153 47 2828 -22 
Q 2503 -91 2169 -91 
Q 1331 -91 842 396 
Q 353 884 353 1716 
Q 353 2575 817 3079 
Q 1281 3584 2069 3584 
Q 2775 3584 3186 3129 
Q 3597 2675 3597 1894 
z
M 3022 2063 
Q 3016 2534 2758 2815 
Q 2500 3097 2075 3097 
Q 1594 3097 1305 2825 
Q 1016 2553 972 2059 
L 3022 2063 
z
" transform="scale(0.015625)"/>
      </defs>
      <use xlink:href="#DejaVuSans-43"/>
      <use xlink:href="#DejaVuSans-6f" x="69.824219"/>
      <use xlink:href="#DejaVuSans-6d" x="131.005859"/>
      <use xlink:href="#DejaVuSans-6d" x="228.417969"/>
      <use xlink:href="#DejaVuSans-69" x="325.830078"/>
      <use xlink:href="#DejaVuSans-74" x="353.613281"/>
      <use xlink:href="#DejaVuSans-20" x="392.822266"/>
      <use xlink:href="#DejaVuSans-53" x="424.609375"/>
      <use xlink:href="#DejaVuSans-69" x="488.085938"/>
      <use xlink:href="#DejaVuSans-7a" x="515.869141"/>
      <use xlink:href="#DejaVuSans-65" x="568.359375"/>
     </g>
    </g>
   </g>
   <g id="matplotlib.axis_2">
    <g id="ytick_1">
     <g id="line2d_7">
      <defs>
       <path id="m922b996358" d="M 0 0 
L -3.5 0 
" style="stroke: #000000; stroke-width: 0.8"/>
      </defs>
      <g>
       <use xlink:href="#m922b996358" x="56.64375" y="376.420537" style="stroke: #000000; stroke-width: 0.8"/>
      </g>
     </g>
     <g id="text_8">
      <!-- 0 -->
      <g transform="translate(40.1 382.119365)scale(0.15 -0.15)">
       <use xlink:href="#DejaVuSans-30"/>
      </g>
     </g>
    </g>
    <g id="ytick_2">
     <g id="line2d_8">
      <g>
       <use xlink:href="#m922b996358" x="56.64375" y="333.784522" style="stroke: #000000; stroke-width: 0.8"/>
      </g>
     </g>
     <g id="text_9">
      <!-- 10 -->
      <g transform="translate(30.55625 339.48335)scale(0.15 -0.15)">
       <use xlink:href="#DejaVuSans-31"/>
       <use xlink:href="#DejaVuSans-30" x="63.623047"/>
      </g>
     </g>
    </g>
    <g id="ytick_3">
     <g id="line2d_9">
      <g>
       <use xlink:href="#m922b996358" x="56.64375" y="291.148507" style="stroke: #000000; stroke-width: 0.8"/>
      </g>
     </g>
     <g id="text_10">
      <!-- 20 -->
      <g transform="translate(30.55625 296.847335)scale(0.15 -0.15)">
       <use xlink:href="#DejaVuSans-32"/>
       <use xlink:href="#DejaVuSans-30" x="63.623047"/>
      </g>
     </g>
    </g>
    <g id="ytick_4">
     <g id="line2d_10">
      <g>
       <use xlink:href="#m922b996358" x="56.64375" y="248.512492" style="stroke: #000000; stroke-width: 0.8"/>
      </g>
     </g>
     <g id="text_11">
      <!-- 30 -->
      <g transform="translate(30.55625 254.21132)scale(0.15 -0.15)">
       <defs>
        <path id="DejaVuSans-33" d="M 2597 2516 
Q 3050 2419 3304 2112 
Q 3559 1806 3559 1356 
Q 3559 666 3084 287 
Q 2609 -91 1734 -91 
Q 1441 -91 1130 -33 
Q 819 25 488 141 
L 488 750 
Q 750 597 1062 519 
Q 1375 441 1716 441 
Q 2309 441 2620 675 
Q 2931 909 2931 1356 
Q 2931 1769 2642 2001 
Q 2353 2234 1838 2234 
L 1294 2234 
L 1294 2753 
L 1863 2753 
Q 2328 2753 2575 2939 
Q 2822 3125 2822 3475 
Q 2822 3834 2567 4026 
Q 2313 4219 1838 4219 
Q 1578 4219 1281 4162 
Q 984 4106 628 3988 
L 628 4550 
Q 988 4650 1302 4700 
Q 1616 4750 1894 4750 
Q 2613 4750 3031 4423 
Q 3450 4097 3450 3541 
Q 3450 3153 3228 2886 
Q 3006 2619 2597 2516 
z
" transform="scale(0.015625)"/>
       </defs>
       <use xlink:href="#DejaVuSans-33"/>
       <use xlink:href="#DejaVuSans-30" x="63.623047"/>
      </g>
     </g>
    </g>
    <g id="ytick_5">
     <g id="line2d_11">
      <g>
       <use xlink:href="#m922b996358" x="56.64375" y="205.876478" style="stroke: #000000; stroke-width: 0.8"/>
      </g>
     </g>
     <g id="text_12">
      <!-- 40 -->
      <g transform="translate(30.55625 211.575306)scale(0.15 -0.15)">
       <defs>
        <path id="DejaVuSans-34" d="M 2419 4116 
L 825 1625 
L 2419 1625 
L 2419 4116 
z
M 2253 4666 
L 3047 4666 
L 3047 1625 
L 3713 1625 
L 3713 1100 
L 3047 1100 
L 3047 0 
L 2419 0 
L 2419 1100 
L 313 1100 
L 313 1709 
L 2253 4666 
z
" transform="scale(0.015625)"/>
       </defs>
       <use xlink:href="#DejaVuSans-34"/>
       <use xlink:href="#DejaVuSans-30" x="63.623047"/>
      </g>
     </g>
    </g>
    <g id="ytick_6">
     <g id="line2d_12">
      <g>
       <use xlink:href="#m922b996358" x="56.64375" y="163.240463" style="stroke: #000000; stroke-width: 0.8"/>
      </g>
     </g>
     <g id="text_13">
      <!-- 50 -->
      <g transform="translate(30.55625 168.939291)scale(0.15 -0.15)">
       <use xlink:href="#DejaVuSans-35"/>
       <use xlink:href="#DejaVuSans-30" x="63.623047"/>
      </g>
     </g>
    </g>
    <g id="ytick_7">
     <g id="line2d_13">
      <g>
       <use xlink:href="#m922b996358" x="56.64375" y="120.604448" style="stroke: #000000; stroke-width: 0.8"/>
      </g>
     </g>
     <g id="text_14">
      <!-- 60 -->
      <g transform="translate(30.55625 126.303276)scale(0.15 -0.15)">
       <defs>
        <path id="DejaVuSans-36" d="M 2113 2584 
Q 1688 2584 1439 2293 
Q 1191 2003 1191 1497 
Q 1191 994 1439 701 
Q 1688 409 2113 409 
Q 2538 409 2786 701 
Q 3034 994 3034 1497 
Q 3034 2003 2786 2293 
Q 2538 2584 2113 2584 
z
M 3366 4563 
L 3366 3988 
Q 3128 4100 2886 4159 
Q 2644 4219 2406 4219 
Q 1781 4219 1451 3797 
Q 1122 3375 1075 2522 
Q 1259 2794 1537 2939 
Q 1816 3084 2150 3084 
Q 2853 3084 3261 2657 
Q 3669 2231 3669 1497 
Q 3669 778 3244 343 
Q 2819 -91 2113 -91 
Q 1303 -91 875 529 
Q 447 1150 447 2328 
Q 447 3434 972 4092 
Q 1497 4750 2381 4750 
Q 2619 4750 2861 4703 
Q 3103 4656 3366 4563 
z
" transform="scale(0.015625)"/>
       </defs>
       <use xlink:href="#DejaVuSans-36"/>
       <use xlink:href="#DejaVuSans-30" x="63.623047"/>
      </g>
     </g>
    </g>
    <g id="ytick_8">
     <g id="line2d_14">
      <g>
       <use xlink:href="#m922b996358" x="56.64375" y="77.968433" style="stroke: #000000; stroke-width: 0.8"/>
      </g>
     </g>
     <g id="text_15">
      <!-- 70 -->
      <g transform="translate(30.55625 83.667262)scale(0.15 -0.15)">
       <defs>
        <path id="DejaVuSans-37" d="M 525 4666 
L 3525 4666 
L 3525 4397 
L 1831 0 
L 1172 0 
L 2766 4134 
L 525 4134 
L 525 4666 
z
" transform="scale(0.015625)"/>
       </defs>
       <use xlink:href="#DejaVuSans-37"/>
       <use xlink:href="#DejaVuSans-30" x="63.623047"/>
      </g>
     </g>
    </g>
    <g id="text_16">
     <!-- Node Degree -->
     <g transform="translate(22.396875 294.999723)rotate(-90)scale(0.2 -0.2)">
      <defs>
       <path id="DejaVuSans-4e" d="M 628 4666 
L 1478 4666 
L 3547 763 
L 3547 4666 
L 4159 4666 
L 4159 0 
L 3309 0 
L 1241 3903 
L 1241 0 
L 628 0 
L 628 4666 
z
" transform="scale(0.015625)"/>
       <path id="DejaVuSans-64" d="M 2906 2969 
L 2906 4863 
L 3481 4863 
L 3481 0 
L 2906 0 
L 2906 525 
Q 2725 213 2448 61 
Q 2172 -91 1784 -91 
Q 1150 -91 751 415 
Q 353 922 353 1747 
Q 353 2572 751 3078 
Q 1150 3584 1784 3584 
Q 2172 3584 2448 3432 
Q 2725 3281 2906 2969 
z
M 947 1747 
Q 947 1113 1208 752 
Q 1469 391 1925 391 
Q 2381 391 2643 752 
Q 2906 1113 2906 1747 
Q 2906 2381 2643 2742 
Q 2381 3103 1925 3103 
Q 1469 3103 1208 2742 
Q 947 2381 947 1747 
z
" transform="scale(0.015625)"/>
       <path id="DejaVuSans-44" d="M 1259 4147 
L 1259 519 
L 2022 519 
Q 2988 519 3436 956 
Q 3884 1394 3884 2338 
Q 3884 3275 3436 3711 
Q 2988 4147 2022 4147 
L 1259 4147 
z
M 628 4666 
L 1925 4666 
Q 3281 4666 3915 4102 
Q 4550 3538 4550 2338 
Q 4550 1131 3912 565 
Q 3275 0 1925 0 
L 628 0 
L 628 4666 
z
" transform="scale(0.015625)"/>
       <path id="DejaVuSans-67" d="M 2906 1791 
Q 2906 2416 2648 2759 
Q 2391 3103 1925 3103 
Q 1463 3103 1205 2759 
Q 947 2416 947 1791 
Q 947 1169 1205 825 
Q 1463 481 1925 481 
Q 2391 481 2648 825 
Q 2906 1169 2906 1791 
z
M 3481 434 
Q 3481 -459 3084 -895 
Q 2688 -1331 1869 -1331 
Q 1566 -1331 1297 -1286 
Q 1028 -1241 775 -1147 
L 775 -588 
Q 1028 -725 1275 -790 
Q 1522 -856 1778 -856 
Q 2344 -856 2625 -561 
Q 2906 -266 2906 331 
L 2906 616 
Q 2728 306 2450 153 
Q 2172 0 1784 0 
Q 1141 0 747 490 
Q 353 981 353 1791 
Q 353 2603 747 3093 
Q 1141 3584 1784 3584 
Q 2172 3584 2450 3431 
Q 2728 3278 2906 2969 
L 2906 3500 
L 3481 3500 
L 3481 434 
z
" transform="scale(0.015625)"/>
       <path id="DejaVuSans-72" d="M 2631 2963 
Q 2534 3019 2420 3045 
Q 2306 3072 2169 3072 
Q 1681 3072 1420 2755 
Q 1159 2438 1159 1844 
L 1159 0 
L 581 0 
L 581 3500 
L 1159 3500 
L 1159 2956 
Q 1341 3275 1631 3429 
Q 1922 3584 2338 3584 
Q 2397 3584 2469 3576 
Q 2541 3569 2628 3553 
L 2631 2963 
z
" transform="scale(0.015625)"/>
      </defs>
      <use xlink:href="#DejaVuSans-4e"/>
      <use xlink:href="#DejaVuSans-6f" x="74.804688"/>
      <use xlink:href="#DejaVuSans-64" x="135.986328"/>
      <use xlink:href="#DejaVuSans-65" x="199.462891"/>
      <use xlink:href="#DejaVuSans-20" x="260.986328"/>
      <use xlink:href="#DejaVuSans-44" x="292.773438"/>
      <use xlink:href="#DejaVuSans-65" x="369.775391"/>
      <use xlink:href="#DejaVuSans-67" x="431.298828"/>
      <use xlink:href="#DejaVuSans-72" x="494.775391"/>
      <use xlink:href="#DejaVuSans-65" x="533.638672"/>
      <use xlink:href="#DejaVuSans-65" x="595.162109"/>
     </g>
    </g>
   </g>
   <g id="line2d_15">
    <path d="M 76.502423 386.44 
L 76.502423 72.212571 
" clip-path="url(#p86bde3baba)" style="fill: none; stroke: #777777; stroke-width: 3; stroke-linecap: square"/>
   </g>
   <g id="line2d_16">
    <path d="M 56.64375 261.303297 
L 368.708607 261.303297 
" clip-path="url(#p86bde3baba)" style="fill: none; stroke: #777777; stroke-width: 3; stroke-linecap: square"/>
   </g>
   <g id="patch_3">
    <path d="M 56.64375 386.44 
L 56.64375 72.212571 
" style="fill: none; stroke: #000000; stroke-width: 0.8; stroke-linejoin: miter; stroke-linecap: square"/>
   </g>
   <g id="patch_4">
    <path d="M 56.64375 386.44 
L 368.708607 386.44 
" style="fill: none; stroke: #000000; stroke-width: 0.8; stroke-linejoin: miter; stroke-linecap: square"/>
   </g>
  </g>
  <g id="axes_2">
   <g id="patch_5">
    <path d="M 56.64375 61.377143 
L 368.708607 61.377143 
L 368.708607 7.2 
L 56.64375 7.2 
z
" style="fill: #ffffff"/>
   </g>
   <g id="PolyCollection_1">
    <defs>
     <path id="m12f9a2b9ad" d="M 3.23765 -377.336728 
L 3.23765 -377.136295 
L 5.34256 -377.136295 
L 7.44747 -377.136295 
L 9.55238 -377.136295 
L 11.65729 -377.136295 
L 13.762199 -377.136295 
L 15.867109 -377.136295 
L 17.972019 -377.136295 
L 20.076929 -377.136295 
L 22.181839 -377.136295 
L 24.286749 -377.136295 
L 26.391658 -377.136295 
L 28.496568 -377.136295 
L 30.601478 -377.136295 
L 32.706388 -377.136295 
L 34.811298 -377.136295 
L 36.916208 -377.136295 
L 39.021117 -377.136295 
L 41.126027 -377.136295 
L 43.230937 -377.136295 
L 45.335847 -377.136295 
L 47.440757 -377.136295 
L 49.545667 -377.136295 
L 51.650576 -377.136295 
L 53.755486 -377.136295 
L 55.860396 -377.136295 
L 57.965306 -377.136295 
L 60.070216 -377.136295 
L 62.175126 -377.136295 
L 64.280035 -377.136295 
L 66.384945 -377.136295 
L 68.489855 -377.136295 
L 70.594765 -377.136295 
L 72.699675 -377.136295 
L 74.804585 -377.136295 
L 76.909494 -377.136295 
L 79.014404 -377.136295 
L 81.119314 -377.136295 
L 83.224224 -377.136295 
L 85.329134 -377.136295 
L 87.434044 -377.136295 
L 89.538953 -377.136295 
L 91.643863 -377.136295 
L 93.748773 -377.136295 
L 95.853683 -377.136295 
L 97.958593 -377.136295 
L 100.063503 -377.136295 
L 102.168412 -377.136295 
L 104.273322 -377.136295 
L 106.378232 -377.136295 
L 108.483142 -377.136295 
L 110.588052 -377.136295 
L 112.692962 -377.136295 
L 114.797871 -377.136295 
L 116.902781 -377.136295 
L 119.007691 -377.136295 
L 121.112601 -377.136295 
L 123.217511 -377.136295 
L 125.322421 -377.136295 
L 127.42733 -377.136295 
L 129.53224 -377.136295 
L 131.63715 -377.136295 
L 133.74206 -377.136295 
L 135.84697 -377.136295 
L 137.95188 -377.136295 
L 140.056789 -377.136295 
L 142.161699 -377.136295 
L 144.266609 -377.136295 
L 146.371519 -377.136295 
L 148.476429 -377.136295 
L 150.581339 -377.136295 
L 152.686248 -377.136295 
L 154.791158 -377.136295 
L 156.896068 -377.136295 
L 159.000978 -377.136295 
L 161.105888 -377.136295 
L 163.210797 -377.136295 
L 165.315707 -377.136295 
L 167.420617 -377.136295 
L 169.525527 -377.136295 
L 171.630437 -377.136295 
L 173.735347 -377.136295 
L 175.840256 -377.136295 
L 177.945166 -377.136295 
L 180.050076 -377.136295 
L 182.154986 -377.136295 
L 184.259896 -377.136295 
L 186.364806 -377.136295 
L 188.469715 -377.136295 
L 190.574625 -377.136295 
L 192.679535 -377.136295 
L 194.784445 -377.136295 
L 196.889355 -377.136295 
L 198.994265 -377.136295 
L 201.099174 -377.136295 
L 203.204084 -377.136295 
L 205.308994 -377.136295 
L 207.413904 -377.136295 
L 209.518814 -377.136295 
L 211.623724 -377.136295 
L 213.728633 -377.136295 
L 215.833543 -377.136295 
L 217.938453 -377.136295 
L 220.043363 -377.136295 
L 222.148273 -377.136295 
L 224.253183 -377.136295 
L 226.358092 -377.136295 
L 228.463002 -377.136295 
L 230.567912 -377.136295 
L 232.672822 -377.136295 
L 234.777732 -377.136295 
L 236.882642 -377.136295 
L 238.987551 -377.136295 
L 241.092461 -377.136295 
L 243.197371 -377.136295 
L 245.302281 -377.136295 
L 247.407191 -377.136295 
L 249.512101 -377.136295 
L 251.61701 -377.136295 
L 253.72192 -377.136295 
L 255.82683 -377.136295 
L 257.93174 -377.136295 
L 260.03665 -377.136295 
L 262.14156 -377.136295 
L 264.246469 -377.136295 
L 266.351379 -377.136295 
L 268.456289 -377.136295 
L 270.561199 -377.136295 
L 272.666109 -377.136295 
L 274.771019 -377.136295 
L 276.875928 -377.136295 
L 278.980838 -377.136295 
L 281.085748 -377.136295 
L 283.190658 -377.136295 
L 285.295568 -377.136295 
L 287.400478 -377.136295 
L 289.505387 -377.136295 
L 291.610297 -377.136295 
L 293.715207 -377.136295 
L 295.820117 -377.136295 
L 297.925027 -377.136295 
L 300.029937 -377.136295 
L 302.134846 -377.136295 
L 304.239756 -377.136295 
L 306.344666 -377.136295 
L 308.449576 -377.136295 
L 310.554486 -377.136295 
L 312.659396 -377.136295 
L 314.764305 -377.136295 
L 316.869215 -377.136295 
L 318.974125 -377.136295 
L 321.079035 -377.136295 
L 323.183945 -377.136295 
L 325.288855 -377.136295 
L 327.393764 -377.136295 
L 329.498674 -377.136295 
L 331.603584 -377.136295 
L 333.708494 -377.136295 
L 335.813404 -377.136295 
L 337.918314 -377.136295 
L 340.023223 -377.136295 
L 342.128133 -377.136295 
L 344.233043 -377.136295 
L 346.337953 -377.136295 
L 348.442863 -377.136295 
L 350.547773 -377.136295 
L 352.652682 -377.136295 
L 354.757592 -377.136295 
L 356.862502 -377.136295 
L 358.967412 -377.136295 
L 361.072322 -377.136295 
L 363.177232 -377.136295 
L 365.282141 -377.136295 
L 367.387051 -377.136295 
L 369.491961 -377.136295 
L 371.596871 -377.136295 
L 373.701781 -377.136295 
L 375.806691 -377.136295 
L 377.9116 -377.136295 
L 380.01651 -377.136295 
L 382.12142 -377.136295 
L 384.22633 -377.136295 
L 386.33124 -377.136295 
L 388.43615 -377.136295 
L 390.541059 -377.136295 
L 392.645969 -377.136295 
L 394.750879 -377.136295 
L 396.855789 -377.136295 
L 398.960699 -377.136295 
L 401.065609 -377.136295 
L 403.170518 -377.136295 
L 405.275428 -377.136295 
L 407.380338 -377.136295 
L 409.485248 -377.136295 
L 411.590158 -377.136295 
L 413.695068 -377.136295 
L 415.799977 -377.136295 
L 417.904887 -377.136295 
L 420.009797 -377.136295 
L 422.114707 -377.136295 
L 422.114707 -377.14411 
L 422.114707 -377.14411 
L 420.009797 -377.146593 
L 417.904887 -377.149748 
L 415.799977 -377.153716 
L 413.695068 -377.158659 
L 411.590158 -377.164754 
L 409.485248 -377.172197 
L 407.380338 -377.181192 
L 405.275428 -377.191954 
L 403.170518 -377.204697 
L 401.065609 -377.219628 
L 398.960699 -377.236939 
L 396.855789 -377.256793 
L 394.750879 -377.279314 
L 392.645969 -377.304576 
L 390.541059 -377.33259 
L 388.43615 -377.363293 
L 386.33124 -377.396538 
L 384.22633 -377.43209 
L 382.12142 -377.469621 
L 380.01651 -377.508708 
L 377.9116 -377.548846 
L 375.806691 -377.589452 
L 373.701781 -377.629882 
L 371.596871 -377.669453 
L 369.491961 -377.707467 
L 367.387051 -377.743238 
L 365.282141 -377.77612 
L 363.177232 -377.805539 
L 361.072322 -377.83102 
L 358.967412 -377.852214 
L 356.862502 -377.868918 
L 354.757592 -377.881086 
L 352.652682 -377.888843 
L 350.547773 -377.89248 
L 348.442863 -377.892445 
L 346.337953 -377.889327 
L 344.233043 -377.883833 
L 342.128133 -377.876757 
L 340.023223 -377.868943 
L 337.918314 -377.861254 
L 335.813404 -377.854531 
L 333.708494 -377.849557 
L 331.603584 -377.847035 
L 329.498674 -377.847555 
L 327.393764 -377.851585 
L 325.288855 -377.859464 
L 323.183945 -377.871401 
L 321.079035 -377.887492 
L 318.974125 -377.907741 
L 316.869215 -377.932087 
L 314.764305 -377.960441 
L 312.659396 -377.992724 
L 310.554486 -378.028901 
L 308.449576 -378.069023 
L 306.344666 -378.113258 
L 304.239756 -378.16191 
L 302.134846 -378.21544 
L 300.029937 -378.274465 
L 297.925027 -378.339754 
L 295.820117 -378.412201 
L 293.715207 -378.492801 
L 291.610297 -378.582599 
L 289.505387 -378.682644 
L 287.400478 -378.793931 
L 285.295568 -378.917344 
L 283.190658 -379.053593 
L 281.085748 -379.203165 
L 278.980838 -379.366273 
L 276.875928 -379.542825 
L 274.771019 -379.732398 
L 272.666109 -379.934227 
L 270.561199 -380.147217 
L 268.456289 -380.369964 
L 266.351379 -380.600786 
L 264.246469 -380.83778 
L 262.14156 -381.078874 
L 260.03665 -381.321895 
L 257.93174 -381.564637 
L 255.82683 -381.804923 
L 253.72192 -382.040675 
L 251.61701 -382.269958 
L 249.512101 -382.491027 
L 247.407191 -382.702357 
L 245.302281 -382.90265 
L 243.197371 -383.090845 
L 241.092461 -383.2661 
L 238.987551 -383.427768 
L 236.882642 -383.57537 
L 234.777732 -383.708559 
L 232.672822 -383.827086 
L 230.567912 -383.930771 
L 228.463002 -384.019477 
L 226.358092 -384.093102 
L 224.253183 -384.151576 
L 222.148273 -384.194875 
L 220.043363 -384.223043 
L 217.938453 -384.236229 
L 215.833543 -384.234728 
L 213.728633 -384.219022 
L 211.623724 -384.18983 
L 209.518814 -384.14814 
L 207.413904 -384.095241 
L 205.308994 -384.03274 
L 203.204084 -383.96256 
L 201.099174 -383.886927 
L 198.994265 -383.808337 
L 196.889355 -383.729509 
L 194.784445 -383.653325 
L 192.679535 -383.582765 
L 190.574625 -383.520828 
L 188.469715 -383.470466 
L 186.364806 -383.434514 
L 184.259896 -383.415629 
L 182.154986 -383.41625 
L 180.050076 -383.438569 
L 177.945166 -383.484519 
L 175.840256 -383.555788 
L 173.735347 -383.653845 
L 171.630437 -383.779988 
L 169.525527 -383.935408 
L 167.420617 -384.121261 
L 165.315707 -384.338752 
L 163.210797 -384.589221 
L 161.105888 -384.874234 
L 159.000978 -385.195658 
L 156.896068 -385.555745 
L 154.791158 -385.957185 
L 152.686248 -386.403158 
L 150.581339 -386.897364 
L 148.476429 -387.444025 
L 146.371519 -388.04787 
L 144.266609 -388.714091 
L 142.161699 -389.448272 
L 140.056789 -390.256272 
L 137.95188 -391.144092 
L 135.84697 -392.117688 
L 133.74206 -393.182749 
L 131.63715 -394.344435 
L 129.53224 -395.607072 
L 127.42733 -396.973816 
L 125.322421 -398.446277 
L 123.217511 -400.024138 
L 121.112601 -401.704755 
L 119.007691 -403.482775 
L 116.902781 -405.349788 
L 114.797871 -407.294033 
L 112.692962 -409.300187 
L 110.588052 -411.34926 
L 108.483142 -413.418622 
L 106.378232 -415.482179 
L 104.273322 -417.510712 
L 102.168412 -419.472389 
L 100.063503 -421.333441 
L 97.958593 -423.058997 
L 95.853683 -424.614046 
L 93.748773 -425.964502 
L 91.643863 -427.078323 
L 89.538953 -427.926643 
L 87.434044 -428.48485 
L 85.329134 -428.733574 
L 83.224224 -428.659514 
L 81.119314 -428.25608 
L 79.014404 -427.523783 
L 76.909494 -426.470372 
L 74.804585 -425.110699 
L 72.699675 -423.466307 
L 70.594765 -421.56476 
L 68.489855 -419.438758 
L 66.384945 -417.125063 
L 64.280035 -414.663298 
L 62.175126 -412.094677 
L 60.070216 -409.46072 
L 57.965306 -406.80202 
L 55.860396 -404.157103 
L 53.755486 -401.561445 
L 51.650576 -399.046661 
L 49.545667 -396.639899 
L 47.440757 -394.363454 
L 45.335847 -392.234591 
L 43.230937 -390.265568 
L 41.126027 -388.463844 
L 39.021117 -386.832429 
L 36.916208 -385.370365 
L 34.811298 -384.073273 
L 32.706388 -382.93396 
L 30.601478 -381.943039 
L 28.496568 -381.089529 
L 26.391658 -380.361422 
L 24.286749 -379.746193 
L 22.181839 -379.231242 
L 20.076929 -378.804255 
L 17.972019 -378.453497 
L 15.867109 -378.168023 
L 13.762199 -377.937817 
L 11.65729 -377.753878 
L 9.55238 -377.608247 
L 7.44747 -377.493992 
L 5.34256 -377.405164 
L 3.23765 -377.336728 
z
" style="stroke: #1f77b4"/>
    </defs>
    <g clip-path="url(#p02fd87cecb)">
     <use xlink:href="#m12f9a2b9ad" x="0" y="438.513437" style="fill: #1f77b4; fill-opacity: 0.25; stroke: #1f77b4"/>
    </g>
   </g>
   <g id="matplotlib.axis_3">
    <g id="xtick_7">
     <g id="line2d_17">
      <g>
       <use xlink:href="#m76cb3a0f45" x="69.73738" y="61.377143" style="stroke: #000000; stroke-width: 0.8"/>
      </g>
     </g>
    </g>
    <g id="xtick_8">
     <g id="line2d_18">
      <g>
       <use xlink:href="#m76cb3a0f45" x="124.294174" y="61.377143" style="stroke: #000000; stroke-width: 0.8"/>
      </g>
     </g>
    </g>
    <g id="xtick_9">
     <g id="line2d_19">
      <g>
       <use xlink:href="#m76cb3a0f45" x="178.850967" y="61.377143" style="stroke: #000000; stroke-width: 0.8"/>
      </g>
     </g>
    </g>
    <g id="xtick_10">
     <g id="line2d_20">
      <g>
       <use xlink:href="#m76cb3a0f45" x="233.40776" y="61.377143" style="stroke: #000000; stroke-width: 0.8"/>
      </g>
     </g>
    </g>
    <g id="xtick_11">
     <g id="line2d_21">
      <g>
       <use xlink:href="#m76cb3a0f45" x="287.964553" y="61.377143" style="stroke: #000000; stroke-width: 0.8"/>
      </g>
     </g>
    </g>
    <g id="xtick_12">
     <g id="line2d_22">
      <g>
       <use xlink:href="#m76cb3a0f45" x="342.521346" y="61.377143" style="stroke: #000000; stroke-width: 0.8"/>
      </g>
     </g>
    </g>
   </g>
   <g id="matplotlib.axis_4">
    <g id="ytick_9"/>
    <g id="ytick_10"/>
   </g>
   <g id="patch_6">
    <path d="M 56.64375 61.377143 
L 368.708607 61.377143 
" style="fill: none; stroke: #000000; stroke-width: 0.8; stroke-linejoin: miter; stroke-linecap: square"/>
   </g>
  </g>
  <g id="axes_3">
   <g id="patch_7">
    <path d="M 379.469464 386.44 
L 433.27375 386.44 
L 433.27375 72.212571 
L 379.469464 72.212571 
z
" style="fill: #ffffff"/>
   </g>
   <g id="PolyCollection_2">
    <defs>
     <path id="ma58be39a60" d="M 379.619896 8.965927 
L 379.469464 8.965927 
L 379.469464 6.773434 
L 379.469464 4.58094 
L 379.469464 2.388447 
L 379.469464 0.195954 
L 379.469464 -1.996539 
L 379.469464 -4.189033 
L 379.469464 -6.381526 
L 379.469464 -8.574019 
L 379.469464 -10.766512 
L 379.469464 -12.959006 
L 379.469464 -15.151499 
L 379.469464 -17.343992 
L 379.469464 -19.536485 
L 379.469464 -21.728979 
L 379.469464 -23.921472 
L 379.469464 -26.113965 
L 379.469464 -28.306458 
L 379.469464 -30.498952 
L 379.469464 -32.691445 
L 379.469464 -34.883938 
L 379.469464 -37.076431 
L 379.469464 -39.268925 
L 379.469464 -41.461418 
L 379.469464 -43.653911 
L 379.469464 -45.846404 
L 379.469464 -48.038898 
L 379.469464 -50.231391 
L 379.469464 -52.423884 
L 379.469464 -54.616377 
L 379.469464 -56.808871 
L 379.469464 -59.001364 
L 379.469464 -61.193857 
L 379.469464 -63.38635 
L 379.469464 -65.578844 
L 379.469464 -67.771337 
L 379.469464 -69.96383 
L 379.469464 -72.156324 
L 379.469464 -74.348817 
L 379.469464 -76.54131 
L 379.469464 -78.733803 
L 379.469464 -80.926297 
L 379.469464 -83.11879 
L 379.469464 -85.311283 
L 379.469464 -87.503776 
L 379.469464 -89.69627 
L 379.469464 -91.888763 
L 379.469464 -94.081256 
L 379.469464 -96.273749 
L 379.469464 -98.466243 
L 379.469464 -100.658736 
L 379.469464 -102.851229 
L 379.469464 -105.043722 
L 379.469464 -107.236216 
L 379.469464 -109.428709 
L 379.469464 -111.621202 
L 379.469464 -113.813695 
L 379.469464 -116.006189 
L 379.469464 -118.198682 
L 379.469464 -120.391175 
L 379.469464 -122.583668 
L 379.469464 -124.776162 
L 379.469464 -126.968655 
L 379.469464 -129.161148 
L 379.469464 -131.353641 
L 379.469464 -133.546135 
L 379.469464 -135.738628 
L 379.469464 -137.931121 
L 379.469464 -140.123614 
L 379.469464 -142.316108 
L 379.469464 -144.508601 
L 379.469464 -146.701094 
L 379.469464 -148.893587 
L 379.469464 -151.086081 
L 379.469464 -153.278574 
L 379.469464 -155.471067 
L 379.469464 -157.66356 
L 379.469464 -159.856054 
L 379.469464 -162.048547 
L 379.469464 -164.24104 
L 379.469464 -166.433533 
L 379.469464 -168.626027 
L 379.469464 -170.81852 
L 379.469464 -173.011013 
L 379.469464 -175.203506 
L 379.469464 -177.396 
L 379.469464 -179.588493 
L 379.469464 -181.780986 
L 379.469464 -183.973479 
L 379.469464 -186.165973 
L 379.469464 -188.358466 
L 379.469464 -190.550959 
L 379.469464 -192.743452 
L 379.469464 -194.935946 
L 379.469464 -197.128439 
L 379.469464 -199.320932 
L 379.469464 -201.513425 
L 379.469464 -203.705919 
L 379.469464 -205.898412 
L 379.469464 -208.090905 
L 379.469464 -210.283398 
L 379.469464 -212.475892 
L 379.469464 -214.668385 
L 379.469464 -216.860878 
L 379.469464 -219.053371 
L 379.469464 -221.245865 
L 379.469464 -223.438358 
L 379.469464 -225.630851 
L 379.469464 -227.823344 
L 379.469464 -230.015838 
L 379.469464 -232.208331 
L 379.469464 -234.400824 
L 379.469464 -236.593317 
L 379.469464 -238.785811 
L 379.469464 -240.978304 
L 379.469464 -243.170797 
L 379.469464 -245.36329 
L 379.469464 -247.555784 
L 379.469464 -249.748277 
L 379.469464 -251.94077 
L 379.469464 -254.133263 
L 379.469464 -256.325757 
L 379.469464 -258.51825 
L 379.469464 -260.710743 
L 379.469464 -262.903236 
L 379.469464 -265.09573 
L 379.469464 -267.288223 
L 379.469464 -269.480716 
L 379.469464 -271.673209 
L 379.469464 -273.865703 
L 379.469464 -276.058196 
L 379.469464 -278.250689 
L 379.469464 -280.443182 
L 379.469464 -282.635676 
L 379.469464 -284.828169 
L 379.469464 -287.020662 
L 379.469464 -289.213156 
L 379.469464 -291.405649 
L 379.469464 -293.598142 
L 379.469464 -295.790635 
L 379.469464 -297.983129 
L 379.469464 -300.175622 
L 379.469464 -302.368115 
L 379.469464 -304.560608 
L 379.469464 -306.753102 
L 379.469464 -308.945595 
L 379.469464 -311.138088 
L 379.469464 -313.330581 
L 379.469464 -315.523075 
L 379.469464 -317.715568 
L 379.469464 -319.908061 
L 379.469464 -322.100554 
L 379.469464 -324.293048 
L 379.469464 -326.485541 
L 379.469464 -328.678034 
L 379.469464 -330.870527 
L 379.469464 -333.063021 
L 379.469464 -335.255514 
L 379.469464 -337.448007 
L 379.469464 -339.6405 
L 379.469464 -341.832994 
L 379.469464 -344.025487 
L 379.469464 -346.21798 
L 379.469464 -348.410473 
L 379.469464 -350.602967 
L 379.469464 -352.79546 
L 379.469464 -354.987953 
L 379.469464 -357.180446 
L 379.469464 -359.37294 
L 379.469464 -361.565433 
L 379.469464 -363.757926 
L 379.469464 -365.950419 
L 379.469464 -368.142913 
L 379.469464 -370.335406 
L 379.469464 -372.527899 
L 379.469464 -374.720392 
L 379.469464 -376.912886 
L 379.469464 -379.105379 
L 379.469464 -381.297872 
L 379.469464 -383.490365 
L 379.469464 -385.682859 
L 379.469464 -387.875352 
L 379.469464 -390.067845 
L 379.469464 -392.260338 
L 379.469464 -394.452832 
L 379.469464 -396.645325 
L 379.469464 -398.837818 
L 379.469464 -401.030311 
L 379.469464 -403.222805 
L 379.469464 -405.415298 
L 379.469464 -407.607791 
L 379.469464 -409.800284 
L 379.469464 -411.992778 
L 379.469464 -414.185271 
L 379.469464 -416.377764 
L 379.469464 -418.570257 
L 379.469464 -420.762751 
L 379.469464 -422.955244 
L 379.469464 -425.147737 
L 379.469464 -427.34023 
L 379.481928 -427.34023 
L 379.481928 -427.34023 
L 379.48575 -425.147737 
L 379.490591 -422.955244 
L 379.496675 -420.762751 
L 379.504262 -418.570257 
L 379.513649 -416.377764 
L 379.525171 -414.185271 
L 379.539203 -411.992778 
L 379.556158 -409.800284 
L 379.576482 -407.607791 
L 379.600651 -405.415298 
L 379.629166 -403.222805 
L 379.662538 -401.030311 
L 379.701285 -398.837818 
L 379.745911 -396.645325 
L 379.796894 -394.452832 
L 379.854668 -392.260338 
L 379.919608 -390.067845 
L 379.992006 -387.875352 
L 380.072055 -385.682859 
L 380.159834 -383.490365 
L 380.255289 -381.297872 
L 380.358223 -379.105379 
L 380.468286 -376.912886 
L 380.584972 -374.720392 
L 380.707621 -372.527899 
L 380.835423 -370.335406 
L 380.967434 -368.142913 
L 381.102597 -365.950419 
L 381.239759 -363.757926 
L 381.377706 -361.565433 
L 381.515195 -359.37294 
L 381.650986 -357.180446 
L 381.783881 -354.987953 
L 381.912756 -352.79546 
L 382.036595 -350.602967 
L 382.154521 -348.410473 
L 382.265814 -346.21798 
L 382.369931 -344.025487 
L 382.466513 -341.832994 
L 382.555388 -339.6405 
L 382.636559 -337.448007 
L 382.710198 -335.255514 
L 382.776616 -333.063021 
L 382.836241 -330.870527 
L 382.889591 -328.678034 
L 382.937237 -326.485541 
L 382.979776 -324.293048 
L 383.017799 -322.100554 
L 383.051871 -319.908061 
L 383.082507 -317.715568 
L 383.11016 -315.523075 
L 383.135218 -313.330581 
L 383.158003 -311.138088 
L 383.178779 -308.945595 
L 383.19777 -306.753102 
L 383.215177 -304.560608 
L 383.231201 -302.368115 
L 383.246072 -300.175622 
L 383.260068 -297.983129 
L 383.273546 -295.790635 
L 383.286959 -293.598142 
L 383.300875 -291.405649 
L 383.315993 -289.213156 
L 383.333148 -287.020662 
L 383.353316 -284.828169 
L 383.377612 -282.635676 
L 383.407288 -280.443182 
L 383.443715 -278.250689 
L 383.488378 -276.058196 
L 383.542851 -273.865703 
L 383.608784 -271.673209 
L 383.687874 -269.480716 
L 383.781842 -267.288223 
L 383.892401 -265.09573 
L 384.021225 -262.903236 
L 384.169913 -260.710743 
L 384.339948 -258.51825 
L 384.532654 -256.325757 
L 384.749154 -254.133263 
L 384.990324 -251.94077 
L 385.256748 -249.748277 
L 385.548679 -247.555784 
L 385.866005 -245.36329 
L 386.208221 -243.170797 
L 386.574414 -240.978304 
L 386.963266 -238.785811 
L 387.37306 -236.593317 
L 387.801717 -234.400824 
L 388.246842 -232.208331 
L 388.705783 -230.015838 
L 389.175713 -227.823344 
L 389.653714 -225.630851 
L 390.136877 -223.438358 
L 390.622399 -221.245865 
L 391.107683 -219.053371 
L 391.590426 -216.860878 
L 392.068702 -214.668385 
L 392.541023 -212.475892 
L 393.006391 -210.283398 
L 393.464319 -208.090905 
L 393.914836 -205.898412 
L 394.358468 -203.705919 
L 394.796206 -201.513425 
L 395.229445 -199.320932 
L 395.659923 -197.128439 
L 396.08964 -194.935946 
L 396.520781 -192.743452 
L 396.955633 -190.550959 
L 397.396512 -188.358466 
L 397.845697 -186.165973 
L 398.305369 -183.973479 
L 398.777573 -181.780986 
L 399.264187 -179.588493 
L 399.766906 -177.396 
L 400.287242 -175.203506 
L 400.826527 -173.011013 
L 401.385934 -170.81852 
L 401.966493 -168.626027 
L 402.569121 -166.433533 
L 403.19464 -164.24104 
L 403.843799 -162.048547 
L 404.517291 -159.856054 
L 405.215765 -157.66356 
L 405.939823 -155.471067 
L 406.690019 -153.278574 
L 407.466849 -151.086081 
L 408.270723 -148.893587 
L 409.101946 -146.701094 
L 409.960681 -144.508601 
L 410.846907 -142.316108 
L 411.760377 -140.123614 
L 412.700557 -137.931121 
L 413.666571 -135.738628 
L 414.657129 -133.546135 
L 415.670451 -131.353641 
L 416.704181 -129.161148 
L 417.755294 -126.968655 
L 418.820002 -124.776162 
L 419.893648 -122.583668 
L 420.97061 -120.391175 
L 422.044206 -118.198682 
L 423.10662 -116.006189 
L 424.14884 -113.813695 
L 425.160635 -111.621202 
L 426.130563 -109.428709 
L 427.046036 -107.236216 
L 427.89343 -105.043722 
L 428.658261 -102.851229 
L 429.325421 -100.658736 
L 429.879477 -98.466243 
L 430.305028 -96.273749 
L 430.58711 -94.081256 
L 430.711641 -91.888763 
L 430.665889 -89.69627 
L 430.438938 -87.503776 
L 430.022147 -85.311283 
L 429.409559 -83.11879 
L 428.598261 -80.926297 
L 427.588653 -78.733803 
L 426.384631 -76.54131 
L 424.99365 -74.348817 
L 423.426675 -72.156324 
L 421.698008 -69.96383 
L 419.824998 -67.771337 
L 417.827643 -65.578844 
L 415.7281 -63.38635 
L 413.550121 -61.193857 
L 411.318439 -59.001364 
L 409.058128 -56.808871 
L 406.793967 -54.616377 
L 404.549835 -52.423884 
L 402.348145 -50.231391 
L 400.209366 -48.038898 
L 398.151618 -45.846404 
L 396.190378 -43.653911 
L 394.338279 -41.461418 
L 392.605021 -39.268925 
L 390.997382 -37.076431 
L 389.519317 -34.883938 
L 388.172142 -32.691445 
L 386.954775 -30.498952 
L 385.864034 -28.306458 
L 384.894961 -26.113965 
L 384.041164 -23.921472 
L 383.29516 -21.728979 
L 382.648702 -19.536485 
L 382.093092 -17.343992 
L 381.619447 -15.151499 
L 381.218948 -12.959006 
L 380.883028 -10.766512 
L 380.603539 -8.574019 
L 380.372861 -6.381526 
L 380.183989 -4.189033 
L 380.030575 -1.996539 
L 379.906952 0.195954 
L 379.808121 2.388447 
L 379.729734 4.58094 
L 379.668052 6.773434 
L 379.619896 8.965927 
z
" style="stroke: #1f77b4"/>
    </defs>
    <g clip-path="url(#p05a24b6e4e)">
     <use xlink:href="#ma58be39a60" x="0" y="438.513437" style="fill: #1f77b4; fill-opacity: 0.25; stroke: #1f77b4"/>
    </g>
   </g>
   <g id="matplotlib.axis_5">
    <g id="xtick_13"/>
    <g id="xtick_14"/>
   </g>
   <g id="matplotlib.axis_6">
    <g id="ytick_11">
     <g id="line2d_23">
      <g>
       <use xlink:href="#m922b996358" x="379.469464" y="376.420537" style="stroke: #000000; stroke-width: 0.8"/>
      </g>
     </g>
    </g>
    <g id="ytick_12">
     <g id="line2d_24">
      <g>
       <use xlink:href="#m922b996358" x="379.469464" y="333.784522" style="stroke: #000000; stroke-width: 0.8"/>
      </g>
     </g>
    </g>
    <g id="ytick_13">
     <g id="line2d_25">
      <g>
       <use xlink:href="#m922b996358" x="379.469464" y="291.148507" style="stroke: #000000; stroke-width: 0.8"/>
      </g>
     </g>
    </g>
    <g id="ytick_14">
     <g id="line2d_26">
      <g>
       <use xlink:href="#m922b996358" x="379.469464" y="248.512492" style="stroke: #000000; stroke-width: 0.8"/>
      </g>
     </g>
    </g>
    <g id="ytick_15">
     <g id="line2d_27">
      <g>
       <use xlink:href="#m922b996358" x="379.469464" y="205.876478" style="stroke: #000000; stroke-width: 0.8"/>
      </g>
     </g>
    </g>
    <g id="ytick_16">
     <g id="line2d_28">
      <g>
       <use xlink:href="#m922b996358" x="379.469464" y="163.240463" style="stroke: #000000; stroke-width: 0.8"/>
      </g>
     </g>
    </g>
    <g id="ytick_17">
     <g id="line2d_29">
      <g>
       <use xlink:href="#m922b996358" x="379.469464" y="120.604448" style="stroke: #000000; stroke-width: 0.8"/>
      </g>
     </g>
    </g>
    <g id="ytick_18">
     <g id="line2d_30">
      <g>
       <use xlink:href="#m922b996358" x="379.469464" y="77.968433" style="stroke: #000000; stroke-width: 0.8"/>
      </g>
     </g>
    </g>
   </g>
   <g id="patch_8">
    <path d="M 379.469464 386.44 
L 379.469464 72.212571 
" style="fill: none; stroke: #000000; stroke-width: 0.8; stroke-linejoin: miter; stroke-linecap: square"/>
   </g>
  </g>
 </g>
 <defs>
  <clipPath id="p86bde3baba">
   <rect x="56.64375" y="72.212571" width="312.064857" height="314.227429"/>
  </clipPath>
  <clipPath id="p02fd87cecb">
   <rect x="56.64375" y="7.2" width="312.064857" height="54.177143"/>
  </clipPath>
  <clipPath id="p05a24b6e4e">
   <rect x="379.469464" y="72.212571" width="53.804286" height="314.227429"/>
  </clipPath>
 </defs>
</svg>
