<?xml version="1.0" encoding="utf-8" standalone="no"?>
<!DOCTYPE svg PUBLIC "-//W3C//DTD SVG 1.1//EN"
  "http://www.w3.org/Graphics/SVG/1.1/DTD/svg11.dtd">
<svg xmlns:xlink="http://www.w3.org/1999/xlink" width="445.312812pt" height="443.3525pt" viewBox="0 0 445.312812 443.3525" xmlns="http://www.w3.org/2000/svg" version="1.1">
 <metadata>
  <rdf:RDF xmlns:dc="http://purl.org/dc/elements/1.1/" xmlns:cc="http://creativecommons.org/ns#" xmlns:rdf="http://www.w3.org/1999/02/22-rdf-syntax-ns#">
   <cc:Work>
    <dc:type rdf:resource="http://purl.org/dc/dcmitype/StillImage"/>
    <dc:date>2022-12-09T16:25:56.169862</dc:date>
    <dc:format>image/svg+xml</dc:format>
    <dc:creator>
     <cc:Agent>
      <dc:title>Matplotlib v3.6.2, https://matplotlib.org/</dc:title>
     </cc:Agent>
    </dc:creator>
   </cc:Work>
  </rdf:RDF>
 </metadata>
 <defs>
  <style type="text/css">*{stroke-linejoin: round; stroke-linecap: butt}</style>
 </defs>
 <g id="figure_1">
  <g id="patch_1">
   <path d="M 0 443.3525 
L 445.312812 443.3525 
L 445.312812 0 
L 0 0 
z
" style="fill: #ffffff"/>
  </g>
  <g id="axes_1">
   <g id="patch_2">
    <path d="M 61.482813 386.44 
L 373.54767 386.44 
L 373.54767 72.212571 
L 61.482813 72.212571 
z
" style="fill: #ffffff"/>
   </g>
   <g id="PathCollection_1">
    <defs>
     <path id="m79d8d2491b" d="M 0 5 
C 1.326016 5 2.597899 4.473168 3.535534 3.535534 
C 4.473168 2.597899 5 1.326016 5 0 
C 5 -1.326016 4.473168 -2.597899 3.535534 -3.535534 
C 2.597899 -4.473168 1.326016 -5 0 -5 
C -1.326016 -5 -2.597899 -4.473168 -3.535534 -3.535534 
C -4.473168 -2.597899 -5 -1.326016 -5 0 
C -5 1.326016 -4.473168 2.597899 -3.535534 3.535534 
C -2.597899 4.473168 -1.326016 5 0 5 
z
" style="stroke: #ffffff; stroke-opacity: 0.5; stroke-width: 0.8"/>
    </defs>
    <g clip-path="url(#p06ca6dd80a)">
     <use xlink:href="#m79d8d2491b" x="106.591714" y="372.156935" style="fill: #1f77b4; fill-opacity: 0.5; stroke: #ffffff; stroke-opacity: 0.5; stroke-width: 0.8"/>
     <use xlink:href="#m79d8d2491b" x="91.80191" y="335.297413" style="fill: #1f77b4; fill-opacity: 0.5; stroke: #ffffff; stroke-opacity: 0.5; stroke-width: 0.8"/>
     <use xlink:href="#m79d8d2491b" x="83.734744" y="362.942054" style="fill: #1f77b4; fill-opacity: 0.5; stroke: #ffffff; stroke-opacity: 0.5; stroke-width: 0.8"/>
     <use xlink:href="#m79d8d2491b" x="79.701162" y="353.727174" style="fill: #1f77b4; fill-opacity: 0.5; stroke: #ffffff; stroke-opacity: 0.5; stroke-width: 0.8"/>
     <use xlink:href="#m79d8d2491b" x="246.422585" y="362.942054" style="fill: #1f77b4; fill-opacity: 0.5; stroke: #ffffff; stroke-opacity: 0.5; stroke-width: 0.8"/>
     <use xlink:href="#m79d8d2491b" x="79.701162" y="339.904853" style="fill: #1f77b4; fill-opacity: 0.5; stroke: #ffffff; stroke-opacity: 0.5; stroke-width: 0.8"/>
     <use xlink:href="#m79d8d2491b" x="79.701162" y="372.156935" style="fill: #1f77b4; fill-opacity: 0.5; stroke: #ffffff; stroke-opacity: 0.5; stroke-width: 0.8"/>
     <use xlink:href="#m79d8d2491b" x="99.869076" y="261.578368" style="fill: #1f77b4; fill-opacity: 0.5; stroke: #ffffff; stroke-opacity: 0.5; stroke-width: 0.8"/>
     <use xlink:href="#m79d8d2491b" x="90.457382" y="344.512293" style="fill: #1f77b4; fill-opacity: 0.5; stroke: #ffffff; stroke-opacity: 0.5; stroke-width: 0.8"/>
     <use xlink:href="#m79d8d2491b" x="75.667579" y="335.297413" style="fill: #1f77b4; fill-opacity: 0.5; stroke: #ffffff; stroke-opacity: 0.5; stroke-width: 0.8"/>
     <use xlink:href="#m79d8d2491b" x="91.80191" y="367.549495" style="fill: #1f77b4; fill-opacity: 0.5; stroke: #ffffff; stroke-opacity: 0.5; stroke-width: 0.8"/>
     <use xlink:href="#m79d8d2491b" x="126.759628" y="238.541166" style="fill: #1f77b4; fill-opacity: 0.5; stroke: #ffffff; stroke-opacity: 0.5; stroke-width: 0.8"/>
     <use xlink:href="#m79d8d2491b" x="99.869076" y="362.942054" style="fill: #1f77b4; fill-opacity: 0.5; stroke: #ffffff; stroke-opacity: 0.5; stroke-width: 0.8"/>
     <use xlink:href="#m79d8d2491b" x="77.012106" y="330.689972" style="fill: #1f77b4; fill-opacity: 0.5; stroke: #ffffff; stroke-opacity: 0.5; stroke-width: 0.8"/>
     <use xlink:href="#m79d8d2491b" x="85.079272" y="187.859323" style="fill: #1f77b4; fill-opacity: 0.5; stroke: #ffffff; stroke-opacity: 0.5; stroke-width: 0.8"/>
     <use xlink:href="#m79d8d2491b" x="175.162622" y="266.185808" style="fill: #1f77b4; fill-opacity: 0.5; stroke: #ffffff; stroke-opacity: 0.5; stroke-width: 0.8"/>
     <use xlink:href="#m79d8d2491b" x="86.4238" y="330.689972" style="fill: #1f77b4; fill-opacity: 0.5; stroke: #ffffff; stroke-opacity: 0.5; stroke-width: 0.8"/>
     <use xlink:href="#m79d8d2491b" x="211.464867" y="349.119734" style="fill: #1f77b4; fill-opacity: 0.5; stroke: #ffffff; stroke-opacity: 0.5; stroke-width: 0.8"/>
     <use xlink:href="#m79d8d2491b" x="77.012106" y="349.119734" style="fill: #1f77b4; fill-opacity: 0.5; stroke: #ffffff; stroke-opacity: 0.5; stroke-width: 0.8"/>
     <use xlink:href="#m79d8d2491b" x="153.65018" y="280.008129" style="fill: #1f77b4; fill-opacity: 0.5; stroke: #ffffff; stroke-opacity: 0.5; stroke-width: 0.8"/>
     <use xlink:href="#m79d8d2491b" x="99.869076" y="335.297413" style="fill: #1f77b4; fill-opacity: 0.5; stroke: #ffffff; stroke-opacity: 0.5; stroke-width: 0.8"/>
     <use xlink:href="#m79d8d2491b" x="99.869076" y="238.541166" style="fill: #1f77b4; fill-opacity: 0.5; stroke: #ffffff; stroke-opacity: 0.5; stroke-width: 0.8"/>
     <use xlink:href="#m79d8d2491b" x="144.238487" y="330.689972" style="fill: #1f77b4; fill-opacity: 0.5; stroke: #ffffff; stroke-opacity: 0.5; stroke-width: 0.8"/>
     <use xlink:href="#m79d8d2491b" x="116.003407" y="362.942054" style="fill: #1f77b4; fill-opacity: 0.5; stroke: #ffffff; stroke-opacity: 0.5; stroke-width: 0.8"/>
     <use xlink:href="#m79d8d2491b" x="102.558131" y="372.156935" style="fill: #1f77b4; fill-opacity: 0.5; stroke: #ffffff; stroke-opacity: 0.5; stroke-width: 0.8"/>
     <use xlink:href="#m79d8d2491b" x="140.204904" y="353.727174" style="fill: #1f77b4; fill-opacity: 0.5; stroke: #ffffff; stroke-opacity: 0.5; stroke-width: 0.8"/>
     <use xlink:href="#m79d8d2491b" x="138.860376" y="367.549495" style="fill: #1f77b4; fill-opacity: 0.5; stroke: #ffffff; stroke-opacity: 0.5; stroke-width: 0.8"/>
     <use xlink:href="#m79d8d2491b" x="85.079272" y="335.297413" style="fill: #1f77b4; fill-opacity: 0.5; stroke: #ffffff; stroke-opacity: 0.5; stroke-width: 0.8"/>
     <use xlink:href="#m79d8d2491b" x="86.4238" y="316.867651" style="fill: #1f77b4; fill-opacity: 0.5; stroke: #ffffff; stroke-opacity: 0.5; stroke-width: 0.8"/>
     <use xlink:href="#m79d8d2491b" x="105.247186" y="303.045331" style="fill: #1f77b4; fill-opacity: 0.5; stroke: #ffffff; stroke-opacity: 0.5; stroke-width: 0.8"/>
     <use xlink:href="#m79d8d2491b" x="107.936241" y="362.942054" style="fill: #1f77b4; fill-opacity: 0.5; stroke: #ffffff; stroke-opacity: 0.5; stroke-width: 0.8"/>
     <use xlink:href="#m79d8d2491b" x="94.490965" y="372.156935" style="fill: #1f77b4; fill-opacity: 0.5; stroke: #ffffff; stroke-opacity: 0.5; stroke-width: 0.8"/>
     <use xlink:href="#m79d8d2491b" x="83.734744" y="353.727174" style="fill: #1f77b4; fill-opacity: 0.5; stroke: #ffffff; stroke-opacity: 0.5; stroke-width: 0.8"/>
     <use xlink:href="#m79d8d2491b" x="179.196204" y="137.17748" style="fill: #1f77b4; fill-opacity: 0.5; stroke: #ffffff; stroke-opacity: 0.5; stroke-width: 0.8"/>
     <use xlink:href="#m79d8d2491b" x="281.380302" y="284.615569" style="fill: #1f77b4; fill-opacity: 0.5; stroke: #ffffff; stroke-opacity: 0.5; stroke-width: 0.8"/>
     <use xlink:href="#m79d8d2491b" x="134.826793" y="303.045331" style="fill: #1f77b4; fill-opacity: 0.5; stroke: #ffffff; stroke-opacity: 0.5; stroke-width: 0.8"/>
     <use xlink:href="#m79d8d2491b" x="91.80191" y="339.904853" style="fill: #1f77b4; fill-opacity: 0.5; stroke: #ffffff; stroke-opacity: 0.5; stroke-width: 0.8"/>
     <use xlink:href="#m79d8d2491b" x="90.457382" y="367.549495" style="fill: #1f77b4; fill-opacity: 0.5; stroke: #ffffff; stroke-opacity: 0.5; stroke-width: 0.8"/>
     <use xlink:href="#m79d8d2491b" x="133.482266" y="229.326286" style="fill: #1f77b4; fill-opacity: 0.5; stroke: #ffffff; stroke-opacity: 0.5; stroke-width: 0.8"/>
     <use xlink:href="#m79d8d2491b" x="298.859161" y="316.867651" style="fill: #1f77b4; fill-opacity: 0.5; stroke: #ffffff; stroke-opacity: 0.5; stroke-width: 0.8"/>
     <use xlink:href="#m79d8d2491b" x="75.667579" y="372.156935" style="fill: #1f77b4; fill-opacity: 0.5; stroke: #ffffff; stroke-opacity: 0.5; stroke-width: 0.8"/>
     <use xlink:href="#m79d8d2491b" x="75.667579" y="339.904853" style="fill: #1f77b4; fill-opacity: 0.5; stroke: #ffffff; stroke-opacity: 0.5; stroke-width: 0.8"/>
     <use xlink:href="#m79d8d2491b" x="97.18002" y="367.549495" style="fill: #1f77b4; fill-opacity: 0.5; stroke: #ffffff; stroke-opacity: 0.5; stroke-width: 0.8"/>
     <use xlink:href="#m79d8d2491b" x="179.196204" y="353.727174" style="fill: #1f77b4; fill-opacity: 0.5; stroke: #ffffff; stroke-opacity: 0.5; stroke-width: 0.8"/>
     <use xlink:href="#m79d8d2491b" x="91.80191" y="362.942054" style="fill: #1f77b4; fill-opacity: 0.5; stroke: #ffffff; stroke-opacity: 0.5; stroke-width: 0.8"/>
     <use xlink:href="#m79d8d2491b" x="113.314352" y="316.867651" style="fill: #1f77b4; fill-opacity: 0.5; stroke: #ffffff; stroke-opacity: 0.5; stroke-width: 0.8"/>
     <use xlink:href="#m79d8d2491b" x="75.667579" y="358.334614" style="fill: #1f77b4; fill-opacity: 0.5; stroke: #ffffff; stroke-opacity: 0.5; stroke-width: 0.8"/>
     <use xlink:href="#m79d8d2491b" x="97.18002" y="293.83045" style="fill: #1f77b4; fill-opacity: 0.5; stroke: #ffffff; stroke-opacity: 0.5; stroke-width: 0.8"/>
     <use xlink:href="#m79d8d2491b" x="102.558131" y="362.942054" style="fill: #1f77b4; fill-opacity: 0.5; stroke: #ffffff; stroke-opacity: 0.5; stroke-width: 0.8"/>
     <use xlink:href="#m79d8d2491b" x="75.667579" y="367.549495" style="fill: #1f77b4; fill-opacity: 0.5; stroke: #ffffff; stroke-opacity: 0.5; stroke-width: 0.8"/>
     <use xlink:href="#m79d8d2491b" x="94.490965" y="307.652771" style="fill: #1f77b4; fill-opacity: 0.5; stroke: #ffffff; stroke-opacity: 0.5; stroke-width: 0.8"/>
     <use xlink:href="#m79d8d2491b" x="95.835493" y="339.904853" style="fill: #1f77b4; fill-opacity: 0.5; stroke: #ffffff; stroke-opacity: 0.5; stroke-width: 0.8"/>
     <use xlink:href="#m79d8d2491b" x="77.012106" y="367.549495" style="fill: #1f77b4; fill-opacity: 0.5; stroke: #ffffff; stroke-opacity: 0.5; stroke-width: 0.8"/>
     <use xlink:href="#m79d8d2491b" x="121.381517" y="307.652771" style="fill: #1f77b4; fill-opacity: 0.5; stroke: #ffffff; stroke-opacity: 0.5; stroke-width: 0.8"/>
     <use xlink:href="#m79d8d2491b" x="107.936241" y="312.260211" style="fill: #1f77b4; fill-opacity: 0.5; stroke: #ffffff; stroke-opacity: 0.5; stroke-width: 0.8"/>
     <use xlink:href="#m79d8d2491b" x="114.658879" y="303.045331" style="fill: #1f77b4; fill-opacity: 0.5; stroke: #ffffff; stroke-opacity: 0.5; stroke-width: 0.8"/>
     <use xlink:href="#m79d8d2491b" x="86.4238" y="367.549495" style="fill: #1f77b4; fill-opacity: 0.5; stroke: #ffffff; stroke-opacity: 0.5; stroke-width: 0.8"/>
     <use xlink:href="#m79d8d2491b" x="146.927542" y="155.607241" style="fill: #1f77b4; fill-opacity: 0.5; stroke: #ffffff; stroke-opacity: 0.5; stroke-width: 0.8"/>
     <use xlink:href="#m79d8d2491b" x="242.389002" y="229.326286" style="fill: #1f77b4; fill-opacity: 0.5; stroke: #ffffff; stroke-opacity: 0.5; stroke-width: 0.8"/>
     <use xlink:href="#m79d8d2491b" x="98.524548" y="256.970928" style="fill: #1f77b4; fill-opacity: 0.5; stroke: #ffffff; stroke-opacity: 0.5; stroke-width: 0.8"/>
     <use xlink:href="#m79d8d2491b" x="284.069358" y="316.867651" style="fill: #1f77b4; fill-opacity: 0.5; stroke: #ffffff; stroke-opacity: 0.5; stroke-width: 0.8"/>
     <use xlink:href="#m79d8d2491b" x="82.390217" y="353.727174" style="fill: #1f77b4; fill-opacity: 0.5; stroke: #ffffff; stroke-opacity: 0.5; stroke-width: 0.8"/>
     <use xlink:href="#m79d8d2491b" x="86.4238" y="289.22301" style="fill: #1f77b4; fill-opacity: 0.5; stroke: #ffffff; stroke-opacity: 0.5; stroke-width: 0.8"/>
     <use xlink:href="#m79d8d2491b" x="89.112855" y="339.904853" style="fill: #1f77b4; fill-opacity: 0.5; stroke: #ffffff; stroke-opacity: 0.5; stroke-width: 0.8"/>
     <use xlink:href="#m79d8d2491b" x="82.390217" y="289.22301" style="fill: #1f77b4; fill-opacity: 0.5; stroke: #ffffff; stroke-opacity: 0.5; stroke-width: 0.8"/>
     <use xlink:href="#m79d8d2491b" x="78.356634" y="372.156935" style="fill: #1f77b4; fill-opacity: 0.5; stroke: #ffffff; stroke-opacity: 0.5; stroke-width: 0.8"/>
     <use xlink:href="#m79d8d2491b" x="81.045689" y="353.727174" style="fill: #1f77b4; fill-opacity: 0.5; stroke: #ffffff; stroke-opacity: 0.5; stroke-width: 0.8"/>
     <use xlink:href="#m79d8d2491b" x="78.356634" y="353.727174" style="fill: #1f77b4; fill-opacity: 0.5; stroke: #ffffff; stroke-opacity: 0.5; stroke-width: 0.8"/>
     <use xlink:href="#m79d8d2491b" x="82.390217" y="289.22301" style="fill: #1f77b4; fill-opacity: 0.5; stroke: #ffffff; stroke-opacity: 0.5; stroke-width: 0.8"/>
     <use xlink:href="#m79d8d2491b" x="113.314352" y="335.297413" style="fill: #1f77b4; fill-opacity: 0.5; stroke: #ffffff; stroke-opacity: 0.5; stroke-width: 0.8"/>
     <use xlink:href="#m79d8d2491b" x="93.146438" y="367.549495" style="fill: #1f77b4; fill-opacity: 0.5; stroke: #ffffff; stroke-opacity: 0.5; stroke-width: 0.8"/>
     <use xlink:href="#m79d8d2491b" x="75.667579" y="335.297413" style="fill: #1f77b4; fill-opacity: 0.5; stroke: #ffffff; stroke-opacity: 0.5; stroke-width: 0.8"/>
     <use xlink:href="#m79d8d2491b" x="90.457382" y="339.904853" style="fill: #1f77b4; fill-opacity: 0.5; stroke: #ffffff; stroke-opacity: 0.5; stroke-width: 0.8"/>
     <use xlink:href="#m79d8d2491b" x="81.045689" y="353.727174" style="fill: #1f77b4; fill-opacity: 0.5; stroke: #ffffff; stroke-opacity: 0.5; stroke-width: 0.8"/>
     <use xlink:href="#m79d8d2491b" x="297.514634" y="266.185808" style="fill: #1f77b4; fill-opacity: 0.5; stroke: #ffffff; stroke-opacity: 0.5; stroke-width: 0.8"/>
     <use xlink:href="#m79d8d2491b" x="87.768327" y="349.119734" style="fill: #1f77b4; fill-opacity: 0.5; stroke: #ffffff; stroke-opacity: 0.5; stroke-width: 0.8"/>
     <use xlink:href="#m79d8d2491b" x="86.4238" y="353.727174" style="fill: #1f77b4; fill-opacity: 0.5; stroke: #ffffff; stroke-opacity: 0.5; stroke-width: 0.8"/>
     <use xlink:href="#m79d8d2491b" x="75.667579" y="321.475092" style="fill: #1f77b4; fill-opacity: 0.5; stroke: #ffffff; stroke-opacity: 0.5; stroke-width: 0.8"/>
     <use xlink:href="#m79d8d2491b" x="78.356634" y="349.119734" style="fill: #1f77b4; fill-opacity: 0.5; stroke: #ffffff; stroke-opacity: 0.5; stroke-width: 0.8"/>
     <use xlink:href="#m79d8d2491b" x="285.413885" y="100.317957" style="fill: #1f77b4; fill-opacity: 0.5; stroke: #ffffff; stroke-opacity: 0.5; stroke-width: 0.8"/>
     <use xlink:href="#m79d8d2491b" x="91.80191" y="362.942054" style="fill: #1f77b4; fill-opacity: 0.5; stroke: #ffffff; stroke-opacity: 0.5; stroke-width: 0.8"/>
     <use xlink:href="#m79d8d2491b" x="82.390217" y="256.970928" style="fill: #1f77b4; fill-opacity: 0.5; stroke: #ffffff; stroke-opacity: 0.5; stroke-width: 0.8"/>
     <use xlink:href="#m79d8d2491b" x="223.565615" y="86.495636" style="fill: #1f77b4; fill-opacity: 0.5; stroke: #ffffff; stroke-opacity: 0.5; stroke-width: 0.8"/>
     <use xlink:href="#m79d8d2491b" x="109.280769" y="344.512293" style="fill: #1f77b4; fill-opacity: 0.5; stroke: #ffffff; stroke-opacity: 0.5; stroke-width: 0.8"/>
     <use xlink:href="#m79d8d2491b" x="120.03699" y="358.334614" style="fill: #1f77b4; fill-opacity: 0.5; stroke: #ffffff; stroke-opacity: 0.5; stroke-width: 0.8"/>
     <use xlink:href="#m79d8d2491b" x="150.961125" y="353.727174" style="fill: #1f77b4; fill-opacity: 0.5; stroke: #ffffff; stroke-opacity: 0.5; stroke-width: 0.8"/>
     <use xlink:href="#m79d8d2491b" x="130.793211" y="270.793248" style="fill: #1f77b4; fill-opacity: 0.5; stroke: #ffffff; stroke-opacity: 0.5; stroke-width: 0.8"/>
     <use xlink:href="#m79d8d2491b" x="156.339235" y="372.156935" style="fill: #1f77b4; fill-opacity: 0.5; stroke: #ffffff; stroke-opacity: 0.5; stroke-width: 0.8"/>
     <use xlink:href="#m79d8d2491b" x="125.4151" y="321.475092" style="fill: #1f77b4; fill-opacity: 0.5; stroke: #ffffff; stroke-opacity: 0.5; stroke-width: 0.8"/>
     <use xlink:href="#m79d8d2491b" x="249.11164" y="215.503965" style="fill: #1f77b4; fill-opacity: 0.5; stroke: #ffffff; stroke-opacity: 0.5; stroke-width: 0.8"/>
     <use xlink:href="#m79d8d2491b" x="85.079272" y="367.549495" style="fill: #1f77b4; fill-opacity: 0.5; stroke: #ffffff; stroke-opacity: 0.5; stroke-width: 0.8"/>
     <use xlink:href="#m79d8d2491b" x="237.010891" y="335.297413" style="fill: #1f77b4; fill-opacity: 0.5; stroke: #ffffff; stroke-opacity: 0.5; stroke-width: 0.8"/>
     <use xlink:href="#m79d8d2491b" x="83.734744" y="349.119734" style="fill: #1f77b4; fill-opacity: 0.5; stroke: #ffffff; stroke-opacity: 0.5; stroke-width: 0.8"/>
     <use xlink:href="#m79d8d2491b" x="101.213603" y="330.689972" style="fill: #1f77b4; fill-opacity: 0.5; stroke: #ffffff; stroke-opacity: 0.5; stroke-width: 0.8"/>
     <use xlink:href="#m79d8d2491b" x="176.507149" y="293.83045" style="fill: #1f77b4; fill-opacity: 0.5; stroke: #ffffff; stroke-opacity: 0.5; stroke-width: 0.8"/>
     <use xlink:href="#m79d8d2491b" x="77.012106" y="349.119734" style="fill: #1f77b4; fill-opacity: 0.5; stroke: #ffffff; stroke-opacity: 0.5; stroke-width: 0.8"/>
     <use xlink:href="#m79d8d2491b" x="90.457382" y="367.549495" style="fill: #1f77b4; fill-opacity: 0.5; stroke: #ffffff; stroke-opacity: 0.5; stroke-width: 0.8"/>
     <use xlink:href="#m79d8d2491b" x="93.146438" y="326.082532" style="fill: #1f77b4; fill-opacity: 0.5; stroke: #ffffff; stroke-opacity: 0.5; stroke-width: 0.8"/>
     <use xlink:href="#m79d8d2491b" x="270.624081" y="316.867651" style="fill: #1f77b4; fill-opacity: 0.5; stroke: #ffffff; stroke-opacity: 0.5; stroke-width: 0.8"/>
     <use xlink:href="#m79d8d2491b" x="254.48975" y="321.475092" style="fill: #1f77b4; fill-opacity: 0.5; stroke: #ffffff; stroke-opacity: 0.5; stroke-width: 0.8"/>
     <use xlink:href="#m79d8d2491b" x="77.012106" y="339.904853" style="fill: #1f77b4; fill-opacity: 0.5; stroke: #ffffff; stroke-opacity: 0.5; stroke-width: 0.8"/>
     <use xlink:href="#m79d8d2491b" x="82.390217" y="353.727174" style="fill: #1f77b4; fill-opacity: 0.5; stroke: #ffffff; stroke-opacity: 0.5; stroke-width: 0.8"/>
     <use xlink:href="#m79d8d2491b" x="83.734744" y="362.942054" style="fill: #1f77b4; fill-opacity: 0.5; stroke: #ffffff; stroke-opacity: 0.5; stroke-width: 0.8"/>
     <use xlink:href="#m79d8d2491b" x="313.648965" y="220.111405" style="fill: #1f77b4; fill-opacity: 0.5; stroke: #ffffff; stroke-opacity: 0.5; stroke-width: 0.8"/>
     <use xlink:href="#m79d8d2491b" x="83.734744" y="284.615569" style="fill: #1f77b4; fill-opacity: 0.5; stroke: #ffffff; stroke-opacity: 0.5; stroke-width: 0.8"/>
     <use xlink:href="#m79d8d2491b" x="78.356634" y="316.867651" style="fill: #1f77b4; fill-opacity: 0.5; stroke: #ffffff; stroke-opacity: 0.5; stroke-width: 0.8"/>
     <use xlink:href="#m79d8d2491b" x="77.012106" y="372.156935" style="fill: #1f77b4; fill-opacity: 0.5; stroke: #ffffff; stroke-opacity: 0.5; stroke-width: 0.8"/>
     <use xlink:href="#m79d8d2491b" x="107.936241" y="247.756047" style="fill: #1f77b4; fill-opacity: 0.5; stroke: #ffffff; stroke-opacity: 0.5; stroke-width: 0.8"/>
     <use xlink:href="#m79d8d2491b" x="93.146438" y="95.710517" style="fill: #1f77b4; fill-opacity: 0.5; stroke: #ffffff; stroke-opacity: 0.5; stroke-width: 0.8"/>
     <use xlink:href="#m79d8d2491b" x="89.112855" y="358.334614" style="fill: #1f77b4; fill-opacity: 0.5; stroke: #ffffff; stroke-opacity: 0.5; stroke-width: 0.8"/>
     <use xlink:href="#m79d8d2491b" x="150.961125" y="321.475092" style="fill: #1f77b4; fill-opacity: 0.5; stroke: #ffffff; stroke-opacity: 0.5; stroke-width: 0.8"/>
     <use xlink:href="#m79d8d2491b" x="359.362903" y="316.867651" style="fill: #1f77b4; fill-opacity: 0.5; stroke: #ffffff; stroke-opacity: 0.5; stroke-width: 0.8"/>
     <use xlink:href="#m79d8d2491b" x="98.524548" y="330.689972" style="fill: #1f77b4; fill-opacity: 0.5; stroke: #ffffff; stroke-opacity: 0.5; stroke-width: 0.8"/>
     <use xlink:href="#m79d8d2491b" x="91.80191" y="372.156935" style="fill: #1f77b4; fill-opacity: 0.5; stroke: #ffffff; stroke-opacity: 0.5; stroke-width: 0.8"/>
     <use xlink:href="#m79d8d2491b" x="250.456167" y="238.541166" style="fill: #1f77b4; fill-opacity: 0.5; stroke: #ffffff; stroke-opacity: 0.5; stroke-width: 0.8"/>
     <use xlink:href="#m79d8d2491b" x="75.667579" y="362.942054" style="fill: #1f77b4; fill-opacity: 0.5; stroke: #ffffff; stroke-opacity: 0.5; stroke-width: 0.8"/>
    </g>
   </g>
   <g id="matplotlib.axis_1">
    <g id="xtick_1">
     <g id="line2d_1">
      <defs>
       <path id="m5e080cab66" d="M 0 0 
L 0 3.5 
" style="stroke: #000000; stroke-width: 0.8"/>
      </defs>
      <g>
       <use xlink:href="#m5e080cab66" x="74.323051" y="386.44" style="stroke: #000000; stroke-width: 0.8"/>
      </g>
     </g>
     <g id="text_1">
      <!-- 0 -->
      <g transform="translate(69.551176 404.837656) scale(0.15 -0.15)">
       <defs>
        <path id="DejaVuSans-30" d="M 2034 4250 
Q 1547 4250 1301 3770 
Q 1056 3291 1056 2328 
Q 1056 1369 1301 889 
Q 1547 409 2034 409 
Q 2525 409 2770 889 
Q 3016 1369 3016 2328 
Q 3016 3291 2770 3770 
Q 2525 4250 2034 4250 
z
M 2034 4750 
Q 2819 4750 3233 4129 
Q 3647 3509 3647 2328 
Q 3647 1150 3233 529 
Q 2819 -91 2034 -91 
Q 1250 -91 836 529 
Q 422 1150 422 2328 
Q 422 3509 836 4129 
Q 1250 4750 2034 4750 
z
" transform="scale(0.015625)"/>
       </defs>
       <use xlink:href="#DejaVuSans-30"/>
      </g>
     </g>
    </g>
    <g id="xtick_2">
     <g id="line2d_2">
      <g>
       <use xlink:href="#m5e080cab66" x="141.549431" y="386.44" style="stroke: #000000; stroke-width: 0.8"/>
      </g>
     </g>
     <g id="text_2">
      <!-- 50 -->
      <g transform="translate(132.005681 404.837656) scale(0.15 -0.15)">
       <defs>
        <path id="DejaVuSans-35" d="M 691 4666 
L 3169 4666 
L 3169 4134 
L 1269 4134 
L 1269 2991 
Q 1406 3038 1543 3061 
Q 1681 3084 1819 3084 
Q 2600 3084 3056 2656 
Q 3513 2228 3513 1497 
Q 3513 744 3044 326 
Q 2575 -91 1722 -91 
Q 1428 -91 1123 -41 
Q 819 9 494 109 
L 494 744 
Q 775 591 1075 516 
Q 1375 441 1709 441 
Q 2250 441 2565 725 
Q 2881 1009 2881 1497 
Q 2881 1984 2565 2268 
Q 2250 2553 1709 2553 
Q 1456 2553 1204 2497 
Q 953 2441 691 2322 
L 691 4666 
z
" transform="scale(0.015625)"/>
       </defs>
       <use xlink:href="#DejaVuSans-35"/>
       <use xlink:href="#DejaVuSans-30" x="63.623047"/>
      </g>
     </g>
    </g>
    <g id="xtick_3">
     <g id="line2d_3">
      <g>
       <use xlink:href="#m5e080cab66" x="208.775812" y="386.44" style="stroke: #000000; stroke-width: 0.8"/>
      </g>
     </g>
     <g id="text_3">
      <!-- 100 -->
      <g transform="translate(194.460187 404.837656) scale(0.15 -0.15)">
       <defs>
        <path id="DejaVuSans-31" d="M 794 531 
L 1825 531 
L 1825 4091 
L 703 3866 
L 703 4441 
L 1819 4666 
L 2450 4666 
L 2450 531 
L 3481 531 
L 3481 0 
L 794 0 
L 794 531 
z
" transform="scale(0.015625)"/>
       </defs>
       <use xlink:href="#DejaVuSans-31"/>
       <use xlink:href="#DejaVuSans-30" x="63.623047"/>
       <use xlink:href="#DejaVuSans-30" x="127.246094"/>
      </g>
     </g>
    </g>
    <g id="xtick_4">
     <g id="line2d_4">
      <g>
       <use xlink:href="#m5e080cab66" x="276.002192" y="386.44" style="stroke: #000000; stroke-width: 0.8"/>
      </g>
     </g>
     <g id="text_4">
      <!-- 150 -->
      <g transform="translate(261.686567 404.837656) scale(0.15 -0.15)">
       <use xlink:href="#DejaVuSans-31"/>
       <use xlink:href="#DejaVuSans-35" x="63.623047"/>
       <use xlink:href="#DejaVuSans-30" x="127.246094"/>
      </g>
     </g>
    </g>
    <g id="xtick_5">
     <g id="line2d_5">
      <g>
       <use xlink:href="#m5e080cab66" x="343.228572" y="386.44" style="stroke: #000000; stroke-width: 0.8"/>
      </g>
     </g>
     <g id="text_5">
      <!-- 200 -->
      <g transform="translate(328.912947 404.837656) scale(0.15 -0.15)">
       <defs>
        <path id="DejaVuSans-32" d="M 1228 531 
L 3431 531 
L 3431 0 
L 469 0 
L 469 531 
Q 828 903 1448 1529 
Q 2069 2156 2228 2338 
Q 2531 2678 2651 2914 
Q 2772 3150 2772 3378 
Q 2772 3750 2511 3984 
Q 2250 4219 1831 4219 
Q 1534 4219 1204 4116 
Q 875 4013 500 3803 
L 500 4441 
Q 881 4594 1212 4672 
Q 1544 4750 1819 4750 
Q 2544 4750 2975 4387 
Q 3406 4025 3406 3419 
Q 3406 3131 3298 2873 
Q 3191 2616 2906 2266 
Q 2828 2175 2409 1742 
Q 1991 1309 1228 531 
z
" transform="scale(0.015625)"/>
       </defs>
       <use xlink:href="#DejaVuSans-32"/>
       <use xlink:href="#DejaVuSans-30" x="63.623047"/>
       <use xlink:href="#DejaVuSans-30" x="127.246094"/>
      </g>
     </g>
    </g>
    <g id="text_6">
     <!-- Commit Size -->
     <g transform="translate(138.780866 430.953281) scale(0.25 -0.25)">
      <defs>
       <path id="DejaVuSans-43" d="M 4122 4306 
L 4122 3641 
Q 3803 3938 3442 4084 
Q 3081 4231 2675 4231 
Q 1875 4231 1450 3742 
Q 1025 3253 1025 2328 
Q 1025 1406 1450 917 
Q 1875 428 2675 428 
Q 3081 428 3442 575 
Q 3803 722 4122 1019 
L 4122 359 
Q 3791 134 3420 21 
Q 3050 -91 2638 -91 
Q 1578 -91 968 557 
Q 359 1206 359 2328 
Q 359 3453 968 4101 
Q 1578 4750 2638 4750 
Q 3056 4750 3426 4639 
Q 3797 4528 4122 4306 
z
" transform="scale(0.015625)"/>
       <path id="DejaVuSans-6f" d="M 1959 3097 
Q 1497 3097 1228 2736 
Q 959 2375 959 1747 
Q 959 1119 1226 758 
Q 1494 397 1959 397 
Q 2419 397 2687 759 
Q 2956 1122 2956 1747 
Q 2956 2369 2687 2733 
Q 2419 3097 1959 3097 
z
M 1959 3584 
Q 2709 3584 3137 3096 
Q 3566 2609 3566 1747 
Q 3566 888 3137 398 
Q 2709 -91 1959 -91 
Q 1206 -91 779 398 
Q 353 888 353 1747 
Q 353 2609 779 3096 
Q 1206 3584 1959 3584 
z
" transform="scale(0.015625)"/>
       <path id="DejaVuSans-6d" d="M 3328 2828 
Q 3544 3216 3844 3400 
Q 4144 3584 4550 3584 
Q 5097 3584 5394 3201 
Q 5691 2819 5691 2113 
L 5691 0 
L 5113 0 
L 5113 2094 
Q 5113 2597 4934 2840 
Q 4756 3084 4391 3084 
Q 3944 3084 3684 2787 
Q 3425 2491 3425 1978 
L 3425 0 
L 2847 0 
L 2847 2094 
Q 2847 2600 2669 2842 
Q 2491 3084 2119 3084 
Q 1678 3084 1418 2786 
Q 1159 2488 1159 1978 
L 1159 0 
L 581 0 
L 581 3500 
L 1159 3500 
L 1159 2956 
Q 1356 3278 1631 3431 
Q 1906 3584 2284 3584 
Q 2666 3584 2933 3390 
Q 3200 3197 3328 2828 
z
" transform="scale(0.015625)"/>
       <path id="DejaVuSans-69" d="M 603 3500 
L 1178 3500 
L 1178 0 
L 603 0 
L 603 3500 
z
M 603 4863 
L 1178 4863 
L 1178 4134 
L 603 4134 
L 603 4863 
z
" transform="scale(0.015625)"/>
       <path id="DejaVuSans-74" d="M 1172 4494 
L 1172 3500 
L 2356 3500 
L 2356 3053 
L 1172 3053 
L 1172 1153 
Q 1172 725 1289 603 
Q 1406 481 1766 481 
L 2356 481 
L 2356 0 
L 1766 0 
Q 1100 0 847 248 
Q 594 497 594 1153 
L 594 3053 
L 172 3053 
L 172 3500 
L 594 3500 
L 594 4494 
L 1172 4494 
z
" transform="scale(0.015625)"/>
       <path id="DejaVuSans-20" transform="scale(0.015625)"/>
       <path id="DejaVuSans-53" d="M 3425 4513 
L 3425 3897 
Q 3066 4069 2747 4153 
Q 2428 4238 2131 4238 
Q 1616 4238 1336 4038 
Q 1056 3838 1056 3469 
Q 1056 3159 1242 3001 
Q 1428 2844 1947 2747 
L 2328 2669 
Q 3034 2534 3370 2195 
Q 3706 1856 3706 1288 
Q 3706 609 3251 259 
Q 2797 -91 1919 -91 
Q 1588 -91 1214 -16 
Q 841 59 441 206 
L 441 856 
Q 825 641 1194 531 
Q 1563 422 1919 422 
Q 2459 422 2753 634 
Q 3047 847 3047 1241 
Q 3047 1584 2836 1778 
Q 2625 1972 2144 2069 
L 1759 2144 
Q 1053 2284 737 2584 
Q 422 2884 422 3419 
Q 422 4038 858 4394 
Q 1294 4750 2059 4750 
Q 2388 4750 2728 4690 
Q 3069 4631 3425 4513 
z
" transform="scale(0.015625)"/>
       <path id="DejaVuSans-7a" d="M 353 3500 
L 3084 3500 
L 3084 2975 
L 922 459 
L 3084 459 
L 3084 0 
L 275 0 
L 275 525 
L 2438 3041 
L 353 3041 
L 353 3500 
z
" transform="scale(0.015625)"/>
       <path id="DejaVuSans-65" d="M 3597 1894 
L 3597 1613 
L 953 1613 
Q 991 1019 1311 708 
Q 1631 397 2203 397 
Q 2534 397 2845 478 
Q 3156 559 3463 722 
L 3463 178 
Q 3153 47 2828 -22 
Q 2503 -91 2169 -91 
Q 1331 -91 842 396 
Q 353 884 353 1716 
Q 353 2575 817 3079 
Q 1281 3584 2069 3584 
Q 2775 3584 3186 3129 
Q 3597 2675 3597 1894 
z
M 3022 2063 
Q 3016 2534 2758 2815 
Q 2500 3097 2075 3097 
Q 1594 3097 1305 2825 
Q 1016 2553 972 2059 
L 3022 2063 
z
" transform="scale(0.015625)"/>
      </defs>
      <use xlink:href="#DejaVuSans-43"/>
      <use xlink:href="#DejaVuSans-6f" x="69.824219"/>
      <use xlink:href="#DejaVuSans-6d" x="131.005859"/>
      <use xlink:href="#DejaVuSans-6d" x="228.417969"/>
      <use xlink:href="#DejaVuSans-69" x="325.830078"/>
      <use xlink:href="#DejaVuSans-74" x="353.613281"/>
      <use xlink:href="#DejaVuSans-20" x="392.822266"/>
      <use xlink:href="#DejaVuSans-53" x="424.609375"/>
      <use xlink:href="#DejaVuSans-69" x="488.085938"/>
      <use xlink:href="#DejaVuSans-7a" x="515.869141"/>
      <use xlink:href="#DejaVuSans-65" x="568.359375"/>
     </g>
    </g>
   </g>
   <g id="matplotlib.axis_2">
    <g id="ytick_1">
     <g id="line2d_6">
      <defs>
       <path id="m9bb6ee0281" d="M 0 0 
L -3.5 0 
" style="stroke: #000000; stroke-width: 0.8"/>
      </defs>
      <g>
       <use xlink:href="#m9bb6ee0281" x="61.482813" y="376.764375" style="stroke: #000000; stroke-width: 0.8"/>
      </g>
     </g>
     <g id="text_7">
      <!-- 0 -->
      <g transform="translate(44.939063 382.463203) scale(0.15 -0.15)">
       <use xlink:href="#DejaVuSans-30"/>
      </g>
     </g>
    </g>
    <g id="ytick_2">
     <g id="line2d_7">
      <g>
       <use xlink:href="#m9bb6ee0281" x="61.482813" y="330.689972" style="stroke: #000000; stroke-width: 0.8"/>
      </g>
     </g>
     <g id="text_8">
      <!-- 10 -->
      <g transform="translate(35.395313 336.3888) scale(0.15 -0.15)">
       <use xlink:href="#DejaVuSans-31"/>
       <use xlink:href="#DejaVuSans-30" x="63.623047"/>
      </g>
     </g>
    </g>
    <g id="ytick_3">
     <g id="line2d_8">
      <g>
       <use xlink:href="#m9bb6ee0281" x="61.482813" y="284.615569" style="stroke: #000000; stroke-width: 0.8"/>
      </g>
     </g>
     <g id="text_9">
      <!-- 20 -->
      <g transform="translate(35.395313 290.314397) scale(0.15 -0.15)">
       <use xlink:href="#DejaVuSans-32"/>
       <use xlink:href="#DejaVuSans-30" x="63.623047"/>
      </g>
     </g>
    </g>
    <g id="ytick_4">
     <g id="line2d_9">
      <g>
       <use xlink:href="#m9bb6ee0281" x="61.482813" y="238.541166" style="stroke: #000000; stroke-width: 0.8"/>
      </g>
     </g>
     <g id="text_10">
      <!-- 30 -->
      <g transform="translate(35.395313 244.239994) scale(0.15 -0.15)">
       <defs>
        <path id="DejaVuSans-33" d="M 2597 2516 
Q 3050 2419 3304 2112 
Q 3559 1806 3559 1356 
Q 3559 666 3084 287 
Q 2609 -91 1734 -91 
Q 1441 -91 1130 -33 
Q 819 25 488 141 
L 488 750 
Q 750 597 1062 519 
Q 1375 441 1716 441 
Q 2309 441 2620 675 
Q 2931 909 2931 1356 
Q 2931 1769 2642 2001 
Q 2353 2234 1838 2234 
L 1294 2234 
L 1294 2753 
L 1863 2753 
Q 2328 2753 2575 2939 
Q 2822 3125 2822 3475 
Q 2822 3834 2567 4026 
Q 2313 4219 1838 4219 
Q 1578 4219 1281 4162 
Q 984 4106 628 3988 
L 628 4550 
Q 988 4650 1302 4700 
Q 1616 4750 1894 4750 
Q 2613 4750 3031 4423 
Q 3450 4097 3450 3541 
Q 3450 3153 3228 2886 
Q 3006 2619 2597 2516 
z
" transform="scale(0.015625)"/>
       </defs>
       <use xlink:href="#DejaVuSans-33"/>
       <use xlink:href="#DejaVuSans-30" x="63.623047"/>
      </g>
     </g>
    </g>
    <g id="ytick_5">
     <g id="line2d_10">
      <g>
       <use xlink:href="#m9bb6ee0281" x="61.482813" y="192.466763" style="stroke: #000000; stroke-width: 0.8"/>
      </g>
     </g>
     <g id="text_11">
      <!-- 40 -->
      <g transform="translate(35.395313 198.165591) scale(0.15 -0.15)">
       <defs>
        <path id="DejaVuSans-34" d="M 2419 4116 
L 825 1625 
L 2419 1625 
L 2419 4116 
z
M 2253 4666 
L 3047 4666 
L 3047 1625 
L 3713 1625 
L 3713 1100 
L 3047 1100 
L 3047 0 
L 2419 0 
L 2419 1100 
L 313 1100 
L 313 1709 
L 2253 4666 
z
" transform="scale(0.015625)"/>
       </defs>
       <use xlink:href="#DejaVuSans-34"/>
       <use xlink:href="#DejaVuSans-30" x="63.623047"/>
      </g>
     </g>
    </g>
    <g id="ytick_6">
     <g id="line2d_11">
      <g>
       <use xlink:href="#m9bb6ee0281" x="61.482813" y="146.39236" style="stroke: #000000; stroke-width: 0.8"/>
      </g>
     </g>
     <g id="text_12">
      <!-- 50 -->
      <g transform="translate(35.395313 152.091188) scale(0.15 -0.15)">
       <use xlink:href="#DejaVuSans-35"/>
       <use xlink:href="#DejaVuSans-30" x="63.623047"/>
      </g>
     </g>
    </g>
    <g id="ytick_7">
     <g id="line2d_12">
      <g>
       <use xlink:href="#m9bb6ee0281" x="61.482813" y="100.317957" style="stroke: #000000; stroke-width: 0.8"/>
      </g>
     </g>
     <g id="text_13">
      <!-- 60 -->
      <g transform="translate(35.395313 106.016785) scale(0.15 -0.15)">
       <defs>
        <path id="DejaVuSans-36" d="M 2113 2584 
Q 1688 2584 1439 2293 
Q 1191 2003 1191 1497 
Q 1191 994 1439 701 
Q 1688 409 2113 409 
Q 2538 409 2786 701 
Q 3034 994 3034 1497 
Q 3034 2003 2786 2293 
Q 2538 2584 2113 2584 
z
M 3366 4563 
L 3366 3988 
Q 3128 4100 2886 4159 
Q 2644 4219 2406 4219 
Q 1781 4219 1451 3797 
Q 1122 3375 1075 2522 
Q 1259 2794 1537 2939 
Q 1816 3084 2150 3084 
Q 2853 3084 3261 2657 
Q 3669 2231 3669 1497 
Q 3669 778 3244 343 
Q 2819 -91 2113 -91 
Q 1303 -91 875 529 
Q 447 1150 447 2328 
Q 447 3434 972 4092 
Q 1497 4750 2381 4750 
Q 2619 4750 2861 4703 
Q 3103 4656 3366 4563 
z
" transform="scale(0.015625)"/>
       </defs>
       <use xlink:href="#DejaVuSans-36"/>
       <use xlink:href="#DejaVuSans-30" x="63.623047"/>
      </g>
     </g>
    </g>
    <g id="text_14">
     <!-- Node Degree -->
     <g transform="translate(26.196094 311.418083) rotate(-90) scale(0.25 -0.25)">
      <defs>
       <path id="DejaVuSans-4e" d="M 628 4666 
L 1478 4666 
L 3547 763 
L 3547 4666 
L 4159 4666 
L 4159 0 
L 3309 0 
L 1241 3903 
L 1241 0 
L 628 0 
L 628 4666 
z
" transform="scale(0.015625)"/>
       <path id="DejaVuSans-64" d="M 2906 2969 
L 2906 4863 
L 3481 4863 
L 3481 0 
L 2906 0 
L 2906 525 
Q 2725 213 2448 61 
Q 2172 -91 1784 -91 
Q 1150 -91 751 415 
Q 353 922 353 1747 
Q 353 2572 751 3078 
Q 1150 3584 1784 3584 
Q 2172 3584 2448 3432 
Q 2725 3281 2906 2969 
z
M 947 1747 
Q 947 1113 1208 752 
Q 1469 391 1925 391 
Q 2381 391 2643 752 
Q 2906 1113 2906 1747 
Q 2906 2381 2643 2742 
Q 2381 3103 1925 3103 
Q 1469 3103 1208 2742 
Q 947 2381 947 1747 
z
" transform="scale(0.015625)"/>
       <path id="DejaVuSans-44" d="M 1259 4147 
L 1259 519 
L 2022 519 
Q 2988 519 3436 956 
Q 3884 1394 3884 2338 
Q 3884 3275 3436 3711 
Q 2988 4147 2022 4147 
L 1259 4147 
z
M 628 4666 
L 1925 4666 
Q 3281 4666 3915 4102 
Q 4550 3538 4550 2338 
Q 4550 1131 3912 565 
Q 3275 0 1925 0 
L 628 0 
L 628 4666 
z
" transform="scale(0.015625)"/>
       <path id="DejaVuSans-67" d="M 2906 1791 
Q 2906 2416 2648 2759 
Q 2391 3103 1925 3103 
Q 1463 3103 1205 2759 
Q 947 2416 947 1791 
Q 947 1169 1205 825 
Q 1463 481 1925 481 
Q 2391 481 2648 825 
Q 2906 1169 2906 1791 
z
M 3481 434 
Q 3481 -459 3084 -895 
Q 2688 -1331 1869 -1331 
Q 1566 -1331 1297 -1286 
Q 1028 -1241 775 -1147 
L 775 -588 
Q 1028 -725 1275 -790 
Q 1522 -856 1778 -856 
Q 2344 -856 2625 -561 
Q 2906 -266 2906 331 
L 2906 616 
Q 2728 306 2450 153 
Q 2172 0 1784 0 
Q 1141 0 747 490 
Q 353 981 353 1791 
Q 353 2603 747 3093 
Q 1141 3584 1784 3584 
Q 2172 3584 2450 3431 
Q 2728 3278 2906 2969 
L 2906 3500 
L 3481 3500 
L 3481 434 
z
" transform="scale(0.015625)"/>
       <path id="DejaVuSans-72" d="M 2631 2963 
Q 2534 3019 2420 3045 
Q 2306 3072 2169 3072 
Q 1681 3072 1420 2755 
Q 1159 2438 1159 1844 
L 1159 0 
L 581 0 
L 581 3500 
L 1159 3500 
L 1159 2956 
Q 1341 3275 1631 3429 
Q 1922 3584 2338 3584 
Q 2397 3584 2469 3576 
Q 2541 3569 2628 3553 
L 2631 2963 
z
" transform="scale(0.015625)"/>
      </defs>
      <use xlink:href="#DejaVuSans-4e"/>
      <use xlink:href="#DejaVuSans-6f" x="74.804688"/>
      <use xlink:href="#DejaVuSans-64" x="135.986328"/>
      <use xlink:href="#DejaVuSans-65" x="199.462891"/>
      <use xlink:href="#DejaVuSans-20" x="260.986328"/>
      <use xlink:href="#DejaVuSans-44" x="292.773438"/>
      <use xlink:href="#DejaVuSans-65" x="369.775391"/>
      <use xlink:href="#DejaVuSans-67" x="431.298828"/>
      <use xlink:href="#DejaVuSans-72" x="494.775391"/>
      <use xlink:href="#DejaVuSans-65" x="533.638672"/>
      <use xlink:href="#DejaVuSans-65" x="595.162109"/>
     </g>
    </g>
   </g>
   <g id="line2d_13">
    <path d="M 82.390217 386.44 
L 82.390217 72.212571 
" clip-path="url(#p06ca6dd80a)" style="fill: none; stroke: #777777; stroke-width: 3; stroke-linecap: square"/>
   </g>
   <g id="line2d_14">
    <path d="M 61.482813 289.22301 
L 373.54767 289.22301 
" clip-path="url(#p06ca6dd80a)" style="fill: none; stroke: #777777; stroke-width: 3; stroke-linecap: square"/>
   </g>
   <g id="patch_3">
    <path d="M 61.482813 386.44 
L 61.482813 72.212571 
" style="fill: none; stroke: #000000; stroke-width: 0.8; stroke-linejoin: miter; stroke-linecap: square"/>
   </g>
   <g id="patch_4">
    <path d="M 61.482812 386.44 
L 373.54767 386.44 
" style="fill: none; stroke: #000000; stroke-width: 0.8; stroke-linejoin: miter; stroke-linecap: square"/>
   </g>
   <g id="PathCollection_2"/>
  </g>
  <g id="axes_2">
   <g id="patch_5">
    <path d="M 61.482813 61.377143 
L 373.54767 61.377143 
L 373.54767 7.2 
L 61.482813 7.2 
z
" style="fill: #ffffff"/>
   </g>
   <g id="PolyCollection_1">
    <defs>
     <path id="m55dd5dee03" d="M 0.676172 -382.181964 
L 0.676172 -381.975357 
L 2.855459 -381.975357 
L 5.034746 -381.975357 
L 7.214033 -381.975357 
L 9.39332 -381.975357 
L 11.572608 -381.975357 
L 13.751895 -381.975357 
L 15.931182 -381.975357 
L 18.110469 -381.975357 
L 20.289756 -381.975357 
L 22.469043 -381.975357 
L 24.64833 -381.975357 
L 26.827617 -381.975357 
L 29.006905 -381.975357 
L 31.186192 -381.975357 
L 33.365479 -381.975357 
L 35.544766 -381.975357 
L 37.724053 -381.975357 
L 39.90334 -381.975357 
L 42.082627 -381.975357 
L 44.261914 -381.975357 
L 46.441202 -381.975357 
L 48.620489 -381.975357 
L 50.799776 -381.975357 
L 52.979063 -381.975357 
L 55.15835 -381.975357 
L 57.337637 -381.975357 
L 59.516924 -381.975357 
L 61.696211 -381.975357 
L 63.875499 -381.975357 
L 66.054786 -381.975357 
L 68.234073 -381.975357 
L 70.41336 -381.975357 
L 72.592647 -381.975357 
L 74.771934 -381.975357 
L 76.951221 -381.975357 
L 79.130509 -381.975357 
L 81.309796 -381.975357 
L 83.489083 -381.975357 
L 85.66837 -381.975357 
L 87.847657 -381.975357 
L 90.026944 -381.975357 
L 92.206231 -381.975357 
L 94.385518 -381.975357 
L 96.564806 -381.975357 
L 98.744093 -381.975357 
L 100.92338 -381.975357 
L 103.102667 -381.975357 
L 105.281954 -381.975357 
L 107.461241 -381.975357 
L 109.640528 -381.975357 
L 111.819815 -381.975357 
L 113.999103 -381.975357 
L 116.17839 -381.975357 
L 118.357677 -381.975357 
L 120.536964 -381.975357 
L 122.716251 -381.975357 
L 124.895538 -381.975357 
L 127.074825 -381.975357 
L 129.254112 -381.975357 
L 131.4334 -381.975357 
L 133.612687 -381.975357 
L 135.791974 -381.975357 
L 137.971261 -381.975357 
L 140.150548 -381.975357 
L 142.329835 -381.975357 
L 144.509122 -381.975357 
L 146.688409 -381.975357 
L 148.867697 -381.975357 
L 151.046984 -381.975357 
L 153.226271 -381.975357 
L 155.405558 -381.975357 
L 157.584845 -381.975357 
L 159.764132 -381.975357 
L 161.943419 -381.975357 
L 164.122706 -381.975357 
L 166.301994 -381.975357 
L 168.481281 -381.975357 
L 170.660568 -381.975357 
L 172.839855 -381.975357 
L 175.019142 -381.975357 
L 177.198429 -381.975357 
L 179.377716 -381.975357 
L 181.557003 -381.975357 
L 183.736291 -381.975357 
L 185.915578 -381.975357 
L 188.094865 -381.975357 
L 190.274152 -381.975357 
L 192.453439 -381.975357 
L 194.632726 -381.975357 
L 196.812013 -381.975357 
L 198.9913 -381.975357 
L 201.170588 -381.975357 
L 203.349875 -381.975357 
L 205.529162 -381.975357 
L 207.708449 -381.975357 
L 209.887736 -381.975357 
L 212.067023 -381.975357 
L 214.24631 -381.975357 
L 216.425598 -381.975357 
L 218.604885 -381.975357 
L 220.784172 -381.975357 
L 222.963459 -381.975357 
L 225.142746 -381.975357 
L 227.322033 -381.975357 
L 229.50132 -381.975357 
L 231.680607 -381.975357 
L 233.859895 -381.975357 
L 236.039182 -381.975357 
L 238.218469 -381.975357 
L 240.397756 -381.975357 
L 242.577043 -381.975357 
L 244.75633 -381.975357 
L 246.935617 -381.975357 
L 249.114904 -381.975357 
L 251.294192 -381.975357 
L 253.473479 -381.975357 
L 255.652766 -381.975357 
L 257.832053 -381.975357 
L 260.01134 -381.975357 
L 262.190627 -381.975357 
L 264.369914 -381.975357 
L 266.549201 -381.975357 
L 268.728489 -381.975357 
L 270.907776 -381.975357 
L 273.087063 -381.975357 
L 275.26635 -381.975357 
L 277.445637 -381.975357 
L 279.624924 -381.975357 
L 281.804211 -381.975357 
L 283.983498 -381.975357 
L 286.162786 -381.975357 
L 288.342073 -381.975357 
L 290.52136 -381.975357 
L 292.700647 -381.975357 
L 294.879934 -381.975357 
L 297.059221 -381.975357 
L 299.238508 -381.975357 
L 301.417795 -381.975357 
L 303.597083 -381.975357 
L 305.77637 -381.975357 
L 307.955657 -381.975357 
L 310.134944 -381.975357 
L 312.314231 -381.975357 
L 314.493518 -381.975357 
L 316.672805 -381.975357 
L 318.852092 -381.975357 
L 321.03138 -381.975357 
L 323.210667 -381.975357 
L 325.389954 -381.975357 
L 327.569241 -381.975357 
L 329.748528 -381.975357 
L 331.927815 -381.975357 
L 334.107102 -381.975357 
L 336.286389 -381.975357 
L 338.465677 -381.975357 
L 340.644964 -381.975357 
L 342.824251 -381.975357 
L 345.003538 -381.975357 
L 347.182825 -381.975357 
L 349.362112 -381.975357 
L 351.541399 -381.975357 
L 353.720687 -381.975357 
L 355.899974 -381.975357 
L 358.079261 -381.975357 
L 360.258548 -381.975357 
L 362.437835 -381.975357 
L 364.617122 -381.975357 
L 366.796409 -381.975357 
L 368.975696 -381.975357 
L 371.154984 -381.975357 
L 373.334271 -381.975357 
L 375.513558 -381.975357 
L 377.692845 -381.975357 
L 379.872132 -381.975357 
L 382.051419 -381.975357 
L 384.230706 -381.975357 
L 386.409993 -381.975357 
L 388.589281 -381.975357 
L 390.768568 -381.975357 
L 392.947855 -381.975357 
L 395.127142 -381.975357 
L 397.306429 -381.975357 
L 399.485716 -381.975357 
L 401.665003 -381.975357 
L 403.84429 -381.975357 
L 406.023578 -381.975357 
L 408.202865 -381.975357 
L 410.382152 -381.975357 
L 412.561439 -381.975357 
L 414.740726 -381.975357 
L 416.920013 -381.975357 
L 419.0993 -381.975357 
L 421.278587 -381.975357 
L 423.457875 -381.975357 
L 425.637162 -381.975357 
L 427.816449 -381.975357 
L 429.995736 -381.975357 
L 432.175023 -381.975357 
L 434.35431 -381.975357 
L 434.35431 -381.98281 
L 434.35431 -381.98281 
L 432.175023 -381.985002 
L 429.995736 -381.987745 
L 427.816449 -381.991149 
L 425.637162 -381.995336 
L 423.457875 -382.000444 
L 421.278587 -382.00662 
L 419.0993 -382.014024 
L 416.920013 -382.022822 
L 414.740726 -382.033187 
L 412.561439 -382.045289 
L 410.382152 -382.059295 
L 408.202865 -382.075356 
L 406.023578 -382.093611 
L 403.84429 -382.114167 
L 401.665003 -382.137104 
L 399.485716 -382.16246 
L 397.306429 -382.190227 
L 395.127142 -382.220349 
L 392.947855 -382.252719 
L 390.768568 -382.287173 
L 388.589281 -382.3235 
L 386.409993 -382.361441 
L 384.230706 -382.400702 
L 382.051419 -382.440961 
L 379.872132 -382.481887 
L 377.692845 -382.523156 
L 375.513558 -382.564468 
L 373.334271 -382.60557 
L 371.154984 -382.646277 
L 368.975696 -382.686491 
L 366.796409 -382.726222 
L 364.617122 -382.7656 
L 362.437835 -382.80489 
L 360.258548 -382.844496 
L 358.079261 -382.884964 
L 355.899974 -382.926972 
L 353.720687 -382.971325 
L 351.541399 -383.018928 
L 349.362112 -383.070768 
L 347.182825 -383.127879 
L 345.003538 -383.191312 
L 342.824251 -383.262092 
L 340.644964 -383.341183 
L 338.465677 -383.429449 
L 336.286389 -383.527613 
L 334.107102 -383.636225 
L 331.927815 -383.755634 
L 329.748528 -383.88596 
L 327.569241 -384.027086 
L 325.389954 -384.178641 
L 323.210667 -384.340008 
L 321.03138 -384.51033 
L 318.852092 -384.688534 
L 316.672805 -384.873348 
L 314.493518 -385.063346 
L 312.314231 -385.25698 
L 310.134944 -385.452626 
L 307.955657 -385.648632 
L 305.77637 -385.843365 
L 303.597083 -386.035252 
L 301.417795 -386.222829 
L 299.238508 -386.404768 
L 297.059221 -386.579913 
L 294.879934 -386.747295 
L 292.700647 -386.906143 
L 290.52136 -387.055884 
L 288.342073 -387.196131 
L 286.162786 -387.326661 
L 283.983498 -387.44739 
L 281.804211 -387.558333 
L 279.624924 -387.65957 
L 277.445637 -387.751202 
L 275.26635 -387.833309 
L 273.087063 -387.905921 
L 270.907776 -387.968986 
L 268.728489 -388.022347 
L 266.549201 -388.065741 
L 264.369914 -388.098796 
L 262.190627 -388.121047 
L 260.01134 -388.131963 
L 257.832053 -388.130986 
L 255.652766 -388.117572 
L 253.473479 -388.091246 
L 251.294192 -388.051653 
L 249.114904 -387.998611 
L 246.935617 -387.932163 
L 244.75633 -387.852617 
L 242.577043 -387.760586 
L 240.397756 -387.657003 
L 238.218469 -387.543138 
L 236.039182 -387.420591 
L 233.859895 -387.291278 
L 231.680607 -387.157401 
L 229.50132 -387.021411 
L 227.322033 -386.885953 
L 225.142746 -386.753813 
L 222.963459 -386.627857 
L 220.784172 -386.510965 
L 218.604885 -386.405968 
L 216.425598 -386.31559 
L 214.24631 -386.242388 
L 212.067023 -386.188709 
L 209.887736 -386.156643 
L 207.708449 -386.148003 
L 205.529162 -386.164295 
L 203.349875 -386.206716 
L 201.170588 -386.276158 
L 198.9913 -386.373217 
L 196.812013 -386.498216 
L 194.632726 -386.651243 
L 192.453439 -386.832187 
L 190.274152 -387.040784 
L 188.094865 -387.276673 
L 185.915578 -387.539445 
L 183.736291 -387.828709 
L 181.557003 -388.144142 
L 179.377716 -388.485557 
L 177.198429 -388.852955 
L 175.019142 -389.246586 
L 172.839855 -389.666999 
L 170.660568 -390.1151 
L 168.481281 -390.59219 
L 166.301994 -391.100016 
L 164.122706 -391.640795 
L 161.943419 -392.217246 
L 159.764132 -392.832598 
L 157.584845 -393.490584 
L 155.405558 -394.195422 
L 153.226271 -394.951763 
L 151.046984 -395.764617 
L 148.867697 -396.639249 
L 146.688409 -397.581032 
L 144.509122 -398.595273 
L 142.329835 -399.686998 
L 140.150548 -400.860697 
L 137.971261 -402.120045 
L 135.791974 -403.467593 
L 133.612687 -404.904441 
L 131.4334 -406.429905 
L 129.254112 -408.041202 
L 127.074825 -409.733142 
L 124.895538 -411.497878 
L 122.716251 -413.324703 
L 120.536964 -415.199934 
L 118.357677 -417.106873 
L 116.17839 -419.025892 
L 113.999103 -420.934618 
L 111.819815 -422.808247 
L 109.640528 -424.619977 
L 107.461241 -426.341552 
L 105.281954 -427.943921 
L 103.102667 -429.397963 
L 100.92338 -430.675295 
L 98.744093 -431.749093 
L 96.564806 -432.594933 
L 94.385518 -433.191581 
L 92.206231 -433.521732 
L 90.026944 -433.572636 
L 87.847657 -433.336603 
L 85.66837 -432.811346 
L 83.489083 -432.000157 
L 81.309796 -430.911895 
L 79.130509 -429.56079 
L 76.951221 -427.966071 
L 74.771934 -426.151423 
L 72.592647 -424.144307 
L 70.41336 -421.975168 
L 68.234073 -419.67656 
L 66.054786 -417.282234 
L 63.875499 -414.826213 
L 61.696211 -412.341905 
L 59.516924 -409.861282 
L 57.337637 -407.414147 
L 55.15835 -405.027517 
L 52.979063 -402.725149 
L 50.799776 -400.527195 
L 48.620489 -398.45001 
L 46.441202 -396.506093 
L 44.261914 -394.704162 
L 42.082627 -393.049335 
L 39.90334 -391.543414 
L 37.724053 -390.185232 
L 35.544766 -388.971057 
L 33.365479 -387.895025 
L 31.186192 -386.949581 
L 29.006905 -386.125908 
L 26.827617 -385.414337 
L 24.64833 -384.804719 
L 22.469043 -384.286752 
L 20.289756 -383.850261 
L 18.110469 -383.485421 
L 15.931182 -383.182938 
L 13.751895 -382.934172 
L 11.572608 -382.731222 
L 9.39332 -382.566971 
L 7.214033 -382.435096 
L 5.034746 -382.330054 
L 2.855459 -382.247045 
L 0.676172 -382.181964 
z
" style="stroke: #1f77b4"/>
    </defs>
    <g clip-path="url(#p9b162f3bd0)">
     <use xlink:href="#m55dd5dee03" x="0" y="443.3525" style="fill: #1f77b4; fill-opacity: 0.25; stroke: #1f77b4"/>
    </g>
   </g>
   <g id="matplotlib.axis_3">
    <g id="xtick_6">
     <g id="line2d_15">
      <g>
       <use xlink:href="#m5e080cab66" x="74.323051" y="61.377143" style="stroke: #000000; stroke-width: 0.8"/>
      </g>
     </g>
    </g>
    <g id="xtick_7">
     <g id="line2d_16">
      <g>
       <use xlink:href="#m5e080cab66" x="141.549431" y="61.377143" style="stroke: #000000; stroke-width: 0.8"/>
      </g>
     </g>
    </g>
    <g id="xtick_8">
     <g id="line2d_17">
      <g>
       <use xlink:href="#m5e080cab66" x="208.775812" y="61.377143" style="stroke: #000000; stroke-width: 0.8"/>
      </g>
     </g>
    </g>
    <g id="xtick_9">
     <g id="line2d_18">
      <g>
       <use xlink:href="#m5e080cab66" x="276.002192" y="61.377143" style="stroke: #000000; stroke-width: 0.8"/>
      </g>
     </g>
    </g>
    <g id="xtick_10">
     <g id="line2d_19">
      <g>
       <use xlink:href="#m5e080cab66" x="343.228572" y="61.377143" style="stroke: #000000; stroke-width: 0.8"/>
      </g>
     </g>
    </g>
   </g>
   <g id="matplotlib.axis_4">
    <g id="ytick_8"/>
    <g id="ytick_9"/>
   </g>
   <g id="patch_6">
    <path d="M 61.482812 61.377143 
L 373.54767 61.377143 
" style="fill: none; stroke: #000000; stroke-width: 0.8; stroke-linejoin: miter; stroke-linecap: square"/>
   </g>
  </g>
  <g id="axes_3">
   <g id="patch_7">
    <path d="M 384.308527 386.44 
L 438.112812 386.44 
L 438.112812 72.212571 
L 384.308527 72.212571 
z
" style="fill: #ffffff"/>
   </g>
   <g id="PolyCollection_2">
    <defs>
     <path id="ma14a96f237" d="M 384.471148 -1.448723 
L 384.308527 -1.448723 
L 384.308527 -3.585181 
L 384.308527 -5.721638 
L 384.308527 -7.858095 
L 384.308527 -9.994552 
L 384.308527 -12.131009 
L 384.308527 -14.267467 
L 384.308527 -16.403924 
L 384.308527 -18.540381 
L 384.308527 -20.676838 
L 384.308527 -22.813295 
L 384.308527 -24.949753 
L 384.308527 -27.08621 
L 384.308527 -29.222667 
L 384.308527 -31.359124 
L 384.308527 -33.495581 
L 384.308527 -35.632039 
L 384.308527 -37.768496 
L 384.308527 -39.904953 
L 384.308527 -42.04141 
L 384.308527 -44.177867 
L 384.308527 -46.314325 
L 384.308527 -48.450782 
L 384.308527 -50.587239 
L 384.308527 -52.723696 
L 384.308527 -54.860153 
L 384.308527 -56.996611 
L 384.308527 -59.133068 
L 384.308527 -61.269525 
L 384.308527 -63.405982 
L 384.308527 -65.542439 
L 384.308527 -67.678896 
L 384.308527 -69.815354 
L 384.308527 -71.951811 
L 384.308527 -74.088268 
L 384.308527 -76.224725 
L 384.308527 -78.361182 
L 384.308527 -80.49764 
L 384.308527 -82.634097 
L 384.308527 -84.770554 
L 384.308527 -86.907011 
L 384.308527 -89.043468 
L 384.308527 -91.179926 
L 384.308527 -93.316383 
L 384.308527 -95.45284 
L 384.308527 -97.589297 
L 384.308527 -99.725754 
L 384.308527 -101.862212 
L 384.308527 -103.998669 
L 384.308527 -106.135126 
L 384.308527 -108.271583 
L 384.308527 -110.40804 
L 384.308527 -112.544498 
L 384.308527 -114.680955 
L 384.308527 -116.817412 
L 384.308527 -118.953869 
L 384.308527 -121.090326 
L 384.308527 -123.226784 
L 384.308527 -125.363241 
L 384.308527 -127.499698 
L 384.308527 -129.636155 
L 384.308527 -131.772612 
L 384.308527 -133.909069 
L 384.308527 -136.045527 
L 384.308527 -138.181984 
L 384.308527 -140.318441 
L 384.308527 -142.454898 
L 384.308527 -144.591355 
L 384.308527 -146.727813 
L 384.308527 -148.86427 
L 384.308527 -151.000727 
L 384.308527 -153.137184 
L 384.308527 -155.273641 
L 384.308527 -157.410099 
L 384.308527 -159.546556 
L 384.308527 -161.683013 
L 384.308527 -163.81947 
L 384.308527 -165.955927 
L 384.308527 -168.092385 
L 384.308527 -170.228842 
L 384.308527 -172.365299 
L 384.308527 -174.501756 
L 384.308527 -176.638213 
L 384.308527 -178.774671 
L 384.308527 -180.911128 
L 384.308527 -183.047585 
L 384.308527 -185.184042 
L 384.308527 -187.320499 
L 384.308527 -189.456957 
L 384.308527 -191.593414 
L 384.308527 -193.729871 
L 384.308527 -195.866328 
L 384.308527 -198.002785 
L 384.308527 -200.139243 
L 384.308527 -202.2757 
L 384.308527 -204.412157 
L 384.308527 -206.548614 
L 384.308527 -208.685071 
L 384.308527 -210.821528 
L 384.308527 -212.957986 
L 384.308527 -215.094443 
L 384.308527 -217.2309 
L 384.308527 -219.367357 
L 384.308527 -221.503814 
L 384.308527 -223.640272 
L 384.308527 -225.776729 
L 384.308527 -227.913186 
L 384.308527 -230.049643 
L 384.308527 -232.1861 
L 384.308527 -234.322558 
L 384.308527 -236.459015 
L 384.308527 -238.595472 
L 384.308527 -240.731929 
L 384.308527 -242.868386 
L 384.308527 -245.004844 
L 384.308527 -247.141301 
L 384.308527 -249.277758 
L 384.308527 -251.414215 
L 384.308527 -253.550672 
L 384.308527 -255.68713 
L 384.308527 -257.823587 
L 384.308527 -259.960044 
L 384.308527 -262.096501 
L 384.308527 -264.232958 
L 384.308527 -266.369416 
L 384.308527 -268.505873 
L 384.308527 -270.64233 
L 384.308527 -272.778787 
L 384.308527 -274.915244 
L 384.308527 -277.051702 
L 384.308527 -279.188159 
L 384.308527 -281.324616 
L 384.308527 -283.461073 
L 384.308527 -285.59753 
L 384.308527 -287.733987 
L 384.308527 -289.870445 
L 384.308527 -292.006902 
L 384.308527 -294.143359 
L 384.308527 -296.279816 
L 384.308527 -298.416273 
L 384.308527 -300.552731 
L 384.308527 -302.689188 
L 384.308527 -304.825645 
L 384.308527 -306.962102 
L 384.308527 -309.098559 
L 384.308527 -311.235017 
L 384.308527 -313.371474 
L 384.308527 -315.507931 
L 384.308527 -317.644388 
L 384.308527 -319.780845 
L 384.308527 -321.917303 
L 384.308527 -324.05376 
L 384.308527 -326.190217 
L 384.308527 -328.326674 
L 384.308527 -330.463131 
L 384.308527 -332.599589 
L 384.308527 -334.736046 
L 384.308527 -336.872503 
L 384.308527 -339.00896 
L 384.308527 -341.145417 
L 384.308527 -343.281875 
L 384.308527 -345.418332 
L 384.308527 -347.554789 
L 384.308527 -349.691246 
L 384.308527 -351.827703 
L 384.308527 -353.964161 
L 384.308527 -356.100618 
L 384.308527 -358.237075 
L 384.308527 -360.373532 
L 384.308527 -362.509989 
L 384.308527 -364.646446 
L 384.308527 -366.782904 
L 384.308527 -368.919361 
L 384.308527 -371.055818 
L 384.308527 -373.192275 
L 384.308527 -375.328732 
L 384.308527 -377.46519 
L 384.308527 -379.601647 
L 384.308527 -381.738104 
L 384.308527 -383.874561 
L 384.308527 -386.011018 
L 384.308527 -388.147476 
L 384.308527 -390.283933 
L 384.308527 -392.42039 
L 384.308527 -394.556847 
L 384.308527 -396.693304 
L 384.308527 -398.829762 
L 384.308527 -400.966219 
L 384.308527 -403.102676 
L 384.308527 -405.239133 
L 384.308527 -407.37559 
L 384.308527 -409.512048 
L 384.308527 -411.648505 
L 384.308527 -413.784962 
L 384.308527 -415.921419 
L 384.308527 -418.057876 
L 384.308527 -420.194334 
L 384.308527 -422.330791 
L 384.308527 -424.467248 
L 384.308527 -426.603705 
L 384.320914 -426.603705 
L 384.320914 -426.603705 
L 384.324988 -424.467248 
L 384.330225 -422.330791 
L 384.336901 -420.194334 
L 384.345335 -418.057876 
L 384.355894 -415.921419 
L 384.368998 -413.784962 
L 384.385112 -411.648505 
L 384.40475 -409.512048 
L 384.428464 -407.37559 
L 384.456838 -405.239133 
L 384.490472 -403.102676 
L 384.529969 -400.966219 
L 384.575913 -398.829762 
L 384.628845 -396.693304 
L 384.689236 -394.556847 
L 384.757458 -392.42039 
L 384.833753 -390.283933 
L 384.918207 -388.147476 
L 385.010716 -386.011018 
L 385.110965 -383.874561 
L 385.218408 -381.738104 
L 385.332256 -379.601647 
L 385.451474 -377.46519 
L 385.574791 -375.328732 
L 385.700714 -373.192275 
L 385.827563 -371.055818 
L 385.953509 -368.919361 
L 386.076627 -366.782904 
L 386.194958 -364.646446 
L 386.306572 -362.509989 
L 386.409641 -360.373532 
L 386.502506 -358.237075 
L 386.583742 -356.100618 
L 386.65222 -353.964161 
L 386.707147 -351.827703 
L 386.748108 -349.691246 
L 386.775076 -347.554789 
L 386.788414 -345.418332 
L 386.788862 -343.281875 
L 386.777494 -341.145417 
L 386.755675 -339.00896 
L 386.724995 -336.872503 
L 386.687199 -334.736046 
L 386.644109 -332.599589 
L 386.597545 -330.463131 
L 386.549252 -328.326674 
L 386.500831 -326.190217 
L 386.453683 -324.05376 
L 386.408967 -321.917303 
L 386.367565 -319.780845 
L 386.33008 -317.644388 
L 386.296831 -315.507931 
L 386.267877 -313.371474 
L 386.243045 -311.235017 
L 386.221977 -309.098559 
L 386.204177 -306.962102 
L 386.189067 -304.825645 
L 386.17604 -302.689188 
L 386.164516 -300.552731 
L 386.15399 -298.416273 
L 386.144076 -296.279816 
L 386.134536 -294.143359 
L 386.125309 -292.006902 
L 386.116526 -289.870445 
L 386.10851 -287.733987 
L 386.10178 -285.59753 
L 386.097039 -283.461073 
L 386.095153 -281.324616 
L 386.097139 -279.188159 
L 386.104136 -277.051702 
L 386.117381 -274.915244 
L 386.138184 -272.778787 
L 386.167901 -270.64233 
L 386.207912 -268.505873 
L 386.259587 -266.369416 
L 386.324267 -264.232958 
L 386.403237 -262.096501 
L 386.497694 -259.960044 
L 386.608723 -257.823587 
L 386.737265 -255.68713 
L 386.884084 -253.550672 
L 387.049742 -251.414215 
L 387.234563 -249.277758 
L 387.438607 -247.141301 
L 387.661648 -245.004844 
L 387.903155 -242.868386 
L 388.162283 -240.731929 
L 388.43787 -238.595472 
L 388.728457 -236.459015 
L 389.032299 -234.322558 
L 389.347413 -232.1861 
L 389.671618 -230.049643 
L 390.002597 -227.913186 
L 390.337963 -225.776729 
L 390.675333 -223.640272 
L 391.012403 -221.503814 
L 391.34703 -219.367357 
L 391.677298 -217.2309 
L 392.001593 -215.094443 
L 392.318654 -212.957986 
L 392.627624 -210.821528 
L 392.928082 -208.685071 
L 393.22006 -206.548614 
L 393.504051 -204.412157 
L 393.781002 -202.2757 
L 394.052288 -200.139243 
L 394.319688 -198.002785 
L 394.585344 -195.866328 
L 394.851713 -193.729871 
L 395.121526 -191.593414 
L 395.397734 -189.456957 
L 395.683459 -187.320499 
L 395.981955 -185.184042 
L 396.296557 -183.047585 
L 396.63065 -180.911128 
L 396.987635 -178.774671 
L 397.370896 -176.638213 
L 397.783777 -174.501756 
L 398.229562 -172.365299 
L 398.711451 -170.228842 
L 399.232538 -168.092385 
L 399.795792 -165.955927 
L 400.40403 -163.81947 
L 401.059892 -161.683013 
L 401.765802 -159.546556 
L 402.523938 -157.410099 
L 403.336185 -155.273641 
L 404.204087 -153.137184 
L 405.128796 -151.000727 
L 406.111015 -148.86427 
L 407.150937 -146.727813 
L 408.248187 -144.591355 
L 409.401754 -142.454898 
L 410.60993 -140.318441 
L 411.870246 -138.181984 
L 413.179406 -136.045527 
L 414.533228 -133.909069 
L 415.926582 -131.772612 
L 417.353327 -129.636155 
L 418.806262 -127.499698 
L 420.277072 -125.363241 
L 421.756287 -123.226784 
L 423.233248 -121.090326 
L 424.6961 -118.953869 
L 426.131799 -116.817412 
L 427.526147 -114.680955 
L 428.863873 -112.544498 
L 430.128753 -110.40804 
L 431.303779 -108.271583 
L 432.371383 -106.135126 
L 433.313729 -103.998669 
L 434.113051 -101.862212 
L 434.752051 -99.725754 
L 435.214342 -97.589297 
L 435.48493 -95.45284 
L 435.550704 -93.316383 
L 435.400932 -91.179926 
L 435.027734 -89.043468 
L 434.426497 -86.907011 
L 433.596229 -84.770554 
L 432.539811 -82.634097 
L 431.264141 -80.49764 
L 429.780144 -78.361182 
L 428.102648 -76.224725 
L 426.250123 -74.088268 
L 424.244278 -71.951811 
L 422.109555 -69.815354 
L 419.872497 -67.678896 
L 417.561066 -65.542439 
L 415.203894 -63.405982 
L 412.829533 -61.269525 
L 410.465715 -59.133068 
L 408.138664 -56.996611 
L 405.872487 -54.860153 
L 403.688659 -52.723696 
L 401.60563 -50.587239 
L 399.638555 -48.450782 
L 397.799153 -46.314325 
L 396.095698 -44.177867 
L 394.533122 -42.04141 
L 393.113219 -39.904953 
L 391.83494 -37.768496 
L 390.694742 -35.632039 
L 389.686988 -33.495581 
L 388.804362 -31.359124 
L 388.038284 -29.222667 
L 387.379316 -27.08621 
L 386.817529 -24.949753 
L 386.342837 -22.813295 
L 385.94528 -20.676838 
L 385.615253 -18.540381 
L 385.343686 -16.403924 
L 385.122179 -14.267467 
L 384.943078 -12.131009 
L 384.799525 -9.994552 
L 384.685463 -7.858095 
L 384.595618 -5.721638 
L 384.52546 -3.585181 
L 384.471148 -1.448723 
z
" style="stroke: #1f77b4"/>
    </defs>
    <g clip-path="url(#p03df197a04)">
     <use xlink:href="#ma14a96f237" x="0" y="443.3525" style="fill: #1f77b4; fill-opacity: 0.25; stroke: #1f77b4"/>
    </g>
   </g>
   <g id="matplotlib.axis_5">
    <g id="xtick_11"/>
    <g id="xtick_12"/>
   </g>
   <g id="matplotlib.axis_6">
    <g id="ytick_10">
     <g id="line2d_20">
      <g>
       <use xlink:href="#m9bb6ee0281" x="384.308527" y="376.764375" style="stroke: #000000; stroke-width: 0.8"/>
      </g>
     </g>
    </g>
    <g id="ytick_11">
     <g id="line2d_21">
      <g>
       <use xlink:href="#m9bb6ee0281" x="384.308527" y="330.689972" style="stroke: #000000; stroke-width: 0.8"/>
      </g>
     </g>
    </g>
    <g id="ytick_12">
     <g id="line2d_22">
      <g>
       <use xlink:href="#m9bb6ee0281" x="384.308527" y="284.615569" style="stroke: #000000; stroke-width: 0.8"/>
      </g>
     </g>
    </g>
    <g id="ytick_13">
     <g id="line2d_23">
      <g>
       <use xlink:href="#m9bb6ee0281" x="384.308527" y="238.541166" style="stroke: #000000; stroke-width: 0.8"/>
      </g>
     </g>
    </g>
    <g id="ytick_14">
     <g id="line2d_24">
      <g>
       <use xlink:href="#m9bb6ee0281" x="384.308527" y="192.466763" style="stroke: #000000; stroke-width: 0.8"/>
      </g>
     </g>
    </g>
    <g id="ytick_15">
     <g id="line2d_25">
      <g>
       <use xlink:href="#m9bb6ee0281" x="384.308527" y="146.39236" style="stroke: #000000; stroke-width: 0.8"/>
      </g>
     </g>
    </g>
    <g id="ytick_16">
     <g id="line2d_26">
      <g>
       <use xlink:href="#m9bb6ee0281" x="384.308527" y="100.317957" style="stroke: #000000; stroke-width: 0.8"/>
      </g>
     </g>
    </g>
   </g>
   <g id="patch_8">
    <path d="M 384.308527 386.44 
L 384.308527 72.212571 
" style="fill: none; stroke: #000000; stroke-width: 0.8; stroke-linejoin: miter; stroke-linecap: square"/>
   </g>
  </g>
 </g>
 <defs>
  <clipPath id="p06ca6dd80a">
   <rect x="61.482813" y="72.212571" width="312.064857" height="314.227429"/>
  </clipPath>
  <clipPath id="p9b162f3bd0">
   <rect x="61.482813" y="7.2" width="312.064857" height="54.177143"/>
  </clipPath>
  <clipPath id="p03df197a04">
   <rect x="384.308527" y="72.212571" width="53.804286" height="314.227429"/>
  </clipPath>
 </defs>
</svg>
